<?xml version="1.0" ?><svg enable-background="new 0 0 64 64" version="1.1" viewBox="0 0 64 64" xml:space="preserve" xmlns="http://www.w3.org/2000/svg" xmlns:xlink="http://www.w3.org/1999/xlink"><g id="Color"><g><g><g><path d="M64,0h-5v2h3v4h2V0L64,0z M54,0h-5v2h5V0L54,0z M44,0h-5v2h5V0L44,0z M34,0h-5v2h5V0L34,0z M24,0h-5v2h5      V0L24,0z M14,0H9v2h5V0L14,0z M4,0H0v2h4V0L4,0z M2,6H0v5h2V6L2,6z M2,16H0v5h2V16L2,16z M2,26H0v5h2V26L2,26z M2,36H0v5h2V36      L2,36z M2,46H0v5h2V46L2,46z M2,56H0v5h2V56L2,56z M7,62H2v2h5V62L7,62z M17,62h-5v2h5V62L17,62z M27,62h-5v2h5V62L27,62z       M37,62h-5v2h5V62L37,62z M47,62h-5v2h5V62L47,62z M57,62h-5v2h5V62L57,62z M64,61h-2v1l0,0v2h2V61L64,61z M64,51h-2v5h2V51      L64,51z M64,41h-2v5h2V41L64,41z M64,31h-2v5h2V31L64,31z M64,21h-2v5h2V21L64,21z M64,11h-2v5h2V11L64,11z" fill="#8BA0AE"/></g></g><g><g><rect fill="#F2B851" height="30" width="3" x="30.5" y="17"/></g><g><rect fill="#F2B851" height="3" width="30" x="17" y="30.5"/></g></g></g></g></svg>