<?xml version="1.0" ?><!DOCTYPE svg  PUBLIC '-//W3C//DTD SVG 1.1//EN'  'http://www.w3.org/Graphics/SVG/1.1/DTD/svg11.dtd'><svg enable-background="new 0 0 64 64" height="64px" id="Layer_1" version="1.1" viewBox="0 0 64 64" width="64px" xml:space="preserve" xmlns="http://www.w3.org/2000/svg" xmlns:xlink="http://www.w3.org/1999/xlink"><path d="M32,6c14.358,0,26,11.643,26,26S46.358,58,32,58S6,46.357,6,32S17.642,6,32,6z" fill="#FFD52B" id="XMLID_654_"/><g id="XMLID_3417_"><path d="M23.771,26c-0.363,0.003-0.5-0.172-0.76-0.804c-0.146-0.307-0.33-0.749-0.78-1.212   c-0.435-0.458-1.171-0.951-2.231-0.969c-1.06,0.018-1.796,0.511-2.231,0.969c-0.45,0.463-0.634,0.905-0.78,1.212   c-0.139,0.309-0.223,0.457-0.338,0.642c-0.114,0.146-0.25,0.183-0.422,0.174c-0.171-0.009-0.334-0.033-0.477-0.159   c-0.071-0.063-0.138-0.151-0.198-0.276c-0.046-0.138-0.088-0.346-0.09-0.595c-0.009-0.482,0.125-1.23,0.745-2.113   c0.609-0.843,1.871-1.859,3.792-1.884c1.921,0.024,3.182,1.041,3.792,1.884c0.62,0.883,0.753,1.631,0.745,2.113   c-0.011,0.491-0.143,0.744-0.288,0.875C24.106,25.987,23.943,25.999,23.771,26z" fill="#6E351D" id="XMLID_337_"/></g><g id="XMLID_3416_"><path d="M47.771,26c-0.363,0.003-0.5-0.172-0.76-0.804c-0.146-0.307-0.33-0.749-0.78-1.212   c-0.435-0.458-1.171-0.951-2.231-0.969c-1.06,0.018-1.796,0.511-2.231,0.969c-0.45,0.463-0.634,0.905-0.78,1.212   c-0.139,0.309-0.223,0.457-0.338,0.642c-0.114,0.146-0.25,0.183-0.422,0.174c-0.171-0.009-0.334-0.033-0.477-0.159   c-0.071-0.063-0.138-0.151-0.198-0.276c-0.046-0.138-0.088-0.346-0.09-0.595c-0.009-0.482,0.125-1.23,0.745-2.113   c0.609-0.843,1.871-1.859,3.792-1.884c1.921,0.024,3.182,1.041,3.792,1.884c0.62,0.883,0.753,1.631,0.745,2.113   c-0.011,0.491-0.143,0.744-0.288,0.875C48.106,25.987,47.943,25.999,47.771,26z" fill="#6E351D" id="XMLID_336_"/></g><g id="XMLID_3415_"><path d="M46.141,32.18c0.196,0.256,0.003,0.769-1.833,1.871c-0.925,0.533-2.278,1.191-4.269,1.801   c-0.992,0.313-2.151,0.577-3.484,0.803c-1.315,0.215-2.92,0.342-4.526,0.36c-3.466-0.026-6.07-0.551-8.067-1.163   c-1.99-0.609-3.344-1.268-4.269-1.801c-1.829-1.098-2.041-1.625-1.831-1.869c0.223-0.289,0.48-0.368,2.212,0.338   c0.875,0.333,2.132,0.857,4.037,1.389c0.953,0.263,2.068,0.517,3.373,0.729c1.296,0.191,2.834,0.334,4.488,0.349   c1.812-0.017,3.209-0.157,4.544-0.349c1.305-0.212,2.42-0.466,3.373-0.729c1.905-0.531,3.162-1.056,4.037-1.389   C45.659,31.813,45.914,31.895,46.141,32.18z" fill="#6E351D" id="XMLID_335_"/></g><path d="M52.893,6.854l-0.017-0.154c-0.011-0.074-0.055-0.232-0.096-0.344  c-0.181-0.449-0.386-0.653-0.612-0.878c-0.896-0.789-1.86-1.131-2.911-1.497C47.156,3.299,44.7,2.859,41.83,2.521  c-2.872-0.329-6.149-0.525-9.903-0.531c-3.736,0.013-7.955,0.162-12.669,0.898c-1.179,0.188-2.325,0.42-3.439,0.709  c-1.116,0.305-2.194,0.628-3.27,1.241c-0.268,0.151-0.542,0.348-0.81,0.593c-0.264,0.264-0.557,0.596-0.698,1.132  c-0.026,0.137-0.044,0.277-0.052,0.416c-0.004-0.009,0.018,0.295,0.011,0.176l0.003,0.023l0.007,0.047l0.014,0.094  c0.004,0.116,0.185,0.626,0.297,0.747c0.242,0.372,0.514,0.599,0.768,0.789c1.028,0.723,1.987,1.017,2.923,1.314  c1.868,0.552,3.623,0.846,5.263,1.08c1.65,0.23,3.184,0.375,4.623,0.479c5.75,0.389,9.875,0.199,12.807-0.017  c0.833-0.065,1.56-0.138,2.211-0.212c0.008-0.001,0.01-0.001,0.02-0.001c0.521-0.044,4.677-0.564,5.613-0.766  c0.937-0.239,4.683-0.998,6.167-1.896c0.356-0.262,0.812-0.563,1.095-1.299c0.037-0.083,0.048-0.197,0.066-0.298l0.02-0.156  l0.007-0.079L52.893,6.854z M12.971,7.091c-0.06,0.049-0.046-0.04-0.073-0.055l-0.015-0.027c0.008,0.003,0.014,0.006,0.046,0.012  c0.107,0.028,0.069,0.033,0.077,0.022c0.001-0.005,0.019-0.021,0.024-0.029c0.002,0.004,0.001,0.004,0.004,0.009  C13.051,7.037,13.026,7.065,12.971,7.091z M51.26,7.023c0.024,0.071-0.176,0.334-0.425,0.512c-0.253,0.187-0.534,0.355-0.819,0.495  c-1.147,0.563-1.643,0.688-2.395,0.942c-0.03,0.01-0.063,0.021-0.094,0.03c-2.602,0.649-6.149,1.028-8.865,1.114  c-2.712,0.067-6.688,0.186-12.446-0.209c-2.861-0.229-6.227-0.518-9.88-1.442c-0.896-0.244-1.835-0.534-2.613-0.953  c-0.19-0.104-0.367-0.216-0.502-0.326c-0.078-0.056-0.105-0.106-0.166-0.153c-0.002-0.006-0.009-0.018-0.017-0.029  c0.038-0.051,0.128-0.141,0.245-0.23c0.667-0.479,1.75-0.857,2.822-1.151c1.093-0.297,2.262-0.532,3.478-0.729  c4.881-0.759,9.296-0.896,13.153-0.898c3.863,0.016,7.2,0.223,10.049,0.563c2.836,0.348,5.244,0.793,7.03,1.492  c0.438,0.175,0.839,0.374,1.115,0.586c0.134,0.103,0.244,0.21,0.285,0.279C51.212,6.856,51.284,7.032,51.26,7.023z" fill="#45D4FF" id="XMLID_340_"/><path d="M26.5,53.987c-3.71,0.002-7.289-0.558-10.664-1.583C20.276,55.889,25.891,58.003,32,58  c12.933,0.351,23.175-9.285,25.506-21.53C51.15,47.14,39.843,54.349,26.5,53.987z" fill="#F7C12B" id="XMLID_1000_"/></svg>