<?xml version="1.0" ?><!DOCTYPE svg  PUBLIC '-//W3C//DTD SVG 1.1//EN'  'http://www.w3.org/Graphics/SVG/1.1/DTD/svg11.dtd'><svg enable-background="new 0 0 512 512" height="512px" id="Layer_1" version="1.1" viewBox="0 0 512 512" width="512px" xml:space="preserve" xmlns="http://www.w3.org/2000/svg" xmlns:xlink="http://www.w3.org/1999/xlink"><g><g><g><g><path d="M403.245,219.769l-25.631-13.391l-11.278-21.735l-34.247-9.077l-15.422-28.141l-37.586-6.772      l-18.898-22.533l0,0c-2.523-0.105-64.339,53.779-64.339,127.137c0,73.359,17.924,77.522,103.492,77.522      S406.022,229.721,403.245,219.769L403.245,219.769z" fill="#4D4D4F"/><path d="M119.646,219.617l-37.948,10.278c-8.084,2.189-13.696,9.525-13.696,17.9v43.621      c0,9.006,6.47,16.71,15.341,18.266l61.295,10.75L119.646,219.617z" fill="#F16C6A"/><path d="M187.287,136.478c0,0-52.475-36.624-85.297-24.616l28.82,78.773L187.287,136.478z" fill="#F16C6A"/><g><polygon fill="#F16C6A" points="142.77,320.431 164.116,402.556 214.322,402.556 226.057,320.431      "/><polygon fill="#F16C6A" points="362.368,320.431 341.022,402.556 290.816,402.556 279.08,320.431      "/></g><path d="M430.831,298.526c-3.469,0-6.838-1.298-9.538-3.812c-6.364-5.922-7.336-16.673-2.603-28.758      c2.954-7.54,7.643-13.58,13.21-17.544c-3.796-6.438-8.893-9.687-13.582-9.968c-9.855-0.561-18.348,10.22-21.653,27.537      l-11.314-2.159c5.416-28.381,21.527-37.577,33.656-36.874c8.591,0.515,17.568,5.92,23.493,16.735      c3.117-0.65,6.326-0.706,9.519-0.103c9.896,1.869,20.47,10.909,20.47,30.677h-11.518c0-10.81-4.146-18.048-11.09-19.36      c-0.954-0.18-1.968-0.241-3.011-0.179c1.097,4.041,1.856,8.538,2.199,13.508c0.968,14.035-3.489,24.814-11.922,28.837      C435.091,298.045,432.942,298.526,430.831,298.526z M436.228,259.68c-2.636,2.472-5.029,5.921-6.813,10.477      c-3.249,8.293-2.479,14.075-0.275,16.126c0.868,0.807,1.895,0.935,3.049,0.384c3.184-1.518,6.086-7.564,5.39-17.647      C437.344,265.612,436.879,262.5,436.228,259.68z" fill="#F16C6A"/></g><path d="M385.351,234.679l-10.545-3.474l-12.438,14.051l-17.603-6.219l-20.988,19.645l-24.108-28.144     l-22.464,7.829L257.756,228l13.838-36.356l-32.58-30.816l21.168-42.709c-2.522-0.105-5.06-0.161-7.613-0.161     c-85.568,0-154.934,59.47-154.934,132.829c0,73.359,69.366,132.828,154.934,132.828c85.568,0,154.934-59.469,154.934-132.828     c0-10.682-1.48-21.066-4.258-31.018L385.351,234.679z" fill="#F16C6A"/><circle cx="144.638" cy="236.084" fill="#FFF9C3" r="9.173"/><path d="M185.719,154.164c-3.698,1.787-5.134,6.327-3.151,9.924c1.831,3.322,5.932,4.633,9.346,2.981     c15.458-7.477,32.669-11.957,50.543-13.189l7.252-14.632C227.104,139.648,205.183,144.759,185.719,154.164z" fill="#262626"/></g></g><g><g><polygon fill="#4D4D4F" points="106.042,365.334 115.108,361.04 131.102,381.843 147.347,385.357 147.347,392.39 99.955,398.262         "/><polygon fill="#F16C6A" points="82.204,387.287 106.042,365.334 122.025,387.287 147.347,392.39 139.202,402.556 90.889,402.556         "/></g><g><polygon fill="#4D4D4F" points="378.911,359.519 369.498,373.807 374.205,387.791 355.928,393.61 355.928,402.556      409.441,402.556 389.409,359.519    "/><polygon fill="#F16C6A" points="389.409,359.519 379.995,373.807 384.702,387.791 366.426,393.61 366.426,402.556      419.938,402.556 411.561,378.46    "/></g><g><polygon fill="#4D4D4F" points="73.61,368.996 72.677,396.635 70.092,402.556 60.105,402.556 65.044,364.944    "/><polygon fill="#F16C6A" points="65.044,364.944 63.559,395.255 60.105,402.556 39.51,388.033 47.082,371.868    "/></g><g><polygon fill="#4D4D4F" points="419.191,358.936 423.832,378.761 438.296,390.592 439.624,400.225 451.529,402.556      455.03,387.83 429.773,356.924    "/><polygon fill="#F16C6A" points="429.773,356.924 434.903,378.615 449.368,390.445 451.529,402.556 472.49,377.738      463.904,363.208    "/></g></g></g></svg>