<?xml version="1.0" ?><svg enable-background="new 0 0 24 24" height="24px" id="Layer_1" version="1.1" viewBox="0 0 24 24" width="24px" xml:space="preserve" xmlns="http://www.w3.org/2000/svg" xmlns:xlink="http://www.w3.org/1999/xlink"><g><path d="M18,2H6C4.9,2,4,2.9,4,4v16c0,1.1,0.9,2,2,2h12c1.1,0,2-0.9,2-2V4C20,2.9,19.1,2,18,2z" fill="#37474F"/><rect fill="#FAFAFA" height="2" width="2" x="6" y="18"/><rect fill="#FAFAFA" height="2" width="2" x="6" y="14"/><rect fill="#FAFAFA" height="2" width="2" x="6" y="10"/><rect fill="#FAFAFA" height="2" width="2" x="11" y="18"/><rect fill="#FAFAFA" height="2" width="2" x="11" y="14"/><rect fill="#FAFAFA" height="2" width="2" x="11" y="10"/><rect fill="#FAFAFA" height="6" width="2" x="16" y="14"/><rect fill="#FAFAFA" height="2" width="2" x="16" y="10"/><rect fill="#03A9F4" height="3" width="12" x="6" y="4"/><polygon fill="#4FC3F7" points="6,4 6,7 18,4  "/></g></svg>