<?xml version="1.0" ?><!DOCTYPE svg  PUBLIC '-//W3C//DTD SVG 1.1//EN'  'http://www.w3.org/Graphics/SVG/1.1/DTD/svg11.dtd'><svg enable-background="new 0 0 64 64" height="64px" id="Layer_1" version="1.1" viewBox="0 0 64 64" width="64px" xml:space="preserve" xmlns="http://www.w3.org/2000/svg" xmlns:xlink="http://www.w3.org/1999/xlink"><path d="M32,6c14.357,0,26,11.643,26,26S46.357,58,32,58S6,46.357,6,32S17.643,6,32,6z" fill="#FFD52B" id="XMLID_646_"/><path d="M12.189,13.68C17.12,8.4,24.21,5,32,5s14.88,3.4,19.81,8.68C56.2,11.11,57,6,57,6  s1,3.02,1,6c0,4-2,7-2,7c1.75,3.98,3,8.26,3,13c0,14.91-12.09,27-27,27S5,46.91,5,32c0-4.74,1.25-9.02,3-13c0,0-2-3-2-7  c0-2.98,1-6,1-6S7.8,11.11,12.189,13.68z M48,27c0-2.21-1.79-4-4-4s-4,1.79-4,4s1.79,4,4,4S48,29.21,48,27z M24,27  c0-2.21-1.79-4-4-4s-4,1.79-4,4s1.79,4,4,4S24,29.21,24,27z" fill="#ED464E" id="XMLID_4024_"/><circle cx="44" cy="27" fill="#6E351D" id="XMLID_4003_" r="4"/><circle cx="20" cy="27" fill="#6E351D" id="XMLID_3997_" r="4"/><g id="XMLID_3376_"><path d="M39.221,34.058c0.302,0.082,0.525,0.493-0.148,1.72c-0.355,0.591-1.002,1.377-2.166,2.063   c-0.58,0.338-1.286,0.644-2.111,0.842c-0.405,0.111-0.856,0.189-1.349,0.243c-0.53,0.079-0.86,0.054-1.446,0.09   c-2.068-0.021-3.751-0.475-4.906-1.175c-1.164-0.687-1.811-1.473-2.166-2.063c-0.669-1.212-0.458-1.663-0.147-1.715   c0.351-0.101,0.593-0.052,1.293,0.67c0.37,0.341,0.862,0.865,1.776,1.341c0.895,0.491,2.241,0.893,4.15,0.911   c0.41-0.028,1.02-0.017,1.353-0.086c0.386-0.032,0.756-0.113,1.104-0.189c0.679-0.181,1.251-0.381,1.693-0.636   c0.914-0.476,1.406-1,1.776-1.341C38.627,34.009,38.868,33.966,39.221,34.058z" fill="#6E351D" id="XMLID_322_"/></g><g id="XMLID_3373_"><path d="M25.915,25.212c-0.255,0.638-0.837,0.513-5.292-1.27s-4.963-2.093-4.708-2.73   s0.671-1.071,5.462,0.846C26.168,23.974,26.17,24.574,25.915,25.212z" fill="#6E351D" id="XMLID_321_"/></g><g id="XMLID_3372_"><path d="M37.915,24.788c-0.255-0.638,0.253-0.948,4.708-2.73s5.037-1.907,5.292-1.27   s0.253,1.238-4.538,3.154C38.586,25.859,38.17,25.426,37.915,24.788z" fill="#6E351D" id="XMLID_320_"/></g><path d="M26.111,54.613c-3.909,0.002-7.741-0.67-11.297-1.789  c4.678,3.807,10.655,6.179,17.092,6.175c13.626,0.383,25.375-10.655,26.873-23.529C52.082,47.131,40.17,55.009,26.111,54.613z" fill="#D94046" id="XMLID_987_"/></svg>