<?xml version="1.0" ?><!DOCTYPE svg  PUBLIC '-//W3C//DTD SVG 1.0//EN'  'http://www.w3.org/TR/2001/REC-SVG-20010904/DTD/svg10.dtd'><svg enable-background="new 0 0 15.939 32" height="32" overflow="visible" viewBox="0 0 15.939 32" width="15.939" xml:space="preserve" xmlns="http://www.w3.org/2000/svg" xmlns:xlink="http://www.w3.org/1999/xlink"><g><g id="Pixel_Grid"><g/></g><g id="_x24_-sign_1_"><g id="_x24_-sign"><rect fill="#34B67A" height="6" id="Top" width="4" x="5.67"/><rect fill="#34B67A" height="6" id="Bottom" width="4" x="5.67" y="26"/><polygon fill="#0BA55F" id="Shadow" points="5.67,27 9.67,31 9.67,27 "/><path d="M1.069,22.252c1.38,0.726,3.588,1.449,5.831,1.449        c2.416,0,3.691-1,3.691-2.553c0-1.414-1.103-2.277-3.897-3.242c-3.864-1.381-6.417-3.52-6.417-6.936        c0-3.967,3.347-6.969,8.797-6.969c2.657,0,4.555,0.518,5.935,1.173l-1.174,4.209C12.938,8.936,11.247,8.28,9.005,8.28        c-2.277,0-3.381,1.069-3.381,2.242c0,1.483,1.276,2.139,4.313,3.312c4.105,1.518,6.003,3.658,6.003,6.969        c0,3.897-2.968,7.21-9.35,7.21c-2.656,0-5.278-0.724-6.589-1.449L1.069,22.252z" fill="#34B67A" id="S"/></g></g></g></svg>