<?xml version="1.0" ?><!DOCTYPE svg  PUBLIC '-//W3C//DTD SVG 1.1//EN'  'http://www.w3.org/Graphics/SVG/1.1/DTD/svg11.dtd'><svg enable-background="new 0 0 128 128" height="128px" version="1.1" viewBox="0 0 128 128" width="128px" xml:space="preserve" xmlns="http://www.w3.org/2000/svg" xmlns:xlink="http://www.w3.org/1999/xlink"><g id="Layer_2"/><g id="Layer_1"><path d="M96,56.447l-4.964-0.302c-0.588-2.141-1.425-4.178-2.479-6.078l3.317-3.748   c1.445-1.648,1.197-3.045,0.056-4.186l-6.195-6.195c-1.141-1.141-2.528-1.381-4.187,0.055l-3.738,3.309   c-1.891-1.055-3.918-1.893-6.049-2.485L71.468,32c-0.143-2.188-1.307-3-2.92-3h-8.762c-1.613,0-2.765,0.812-2.922,3l-0.299,4.913   c-2.069,0.604-4.037,1.441-5.875,2.484l-3.777-3.344c-1.647-1.446-3.045-1.197-4.186-0.057l-6.195,6.196   c-1.141,1.141-1.381,2.529,0.055,4.188l3.421,3.865c-0.975,1.786-1.753,3.694-2.318,5.691L32,56.282c-2.188,0.142-3,1.306-3,2.919   v8.762c0,1.613,0.812,2.765,3,2.922l5.737,0.35c0.565,1.946,1.332,3.805,2.287,5.549l-3.849,4.347   c-1.446,1.647-1.198,3.045-0.058,4.186l6.195,6.196c1.141,1.141,2.529,1.38,4.188-0.055l4.289-3.796   c1.74,0.978,3.596,1.774,5.543,2.36L56.698,96c0.144,2.188,1.307,3,2.921,3h8.762c1.613,0,2.764-0.812,2.922-3l0.352-5.787   c2.017-0.551,3.942-1.321,5.748-2.289l4.323,3.827c1.648,1.445,3.045,1.197,4.186,0.056l6.195-6.195   c1.141-1.141,1.381-2.528-0.055-4.187l-3.685-4.163c1.059-1.845,1.911-3.821,2.525-5.901L96,71.05c2.188-0.144,3-1.307,3-2.92   v-8.762C99,57.755,98.188,56.604,96,56.447z M64.086,72.883c-5.182,0-9.382-4.201-9.382-9.383s4.2-9.383,9.382-9.383   s9.383,4.201,9.383,9.383S69.268,72.883,64.086,72.883z" fill="#40D0AD"/></g></svg>