<?xml version="1.0" ?><svg enable-background="new 0 0 64 64" id="Layer_1" version="1.1" viewBox="0 0 64 64" xml:space="preserve" xmlns="http://www.w3.org/2000/svg" xmlns:xlink="http://www.w3.org/1999/xlink"><rect fill="#FFFFFF" height="30" width="44" x="10" y="15"/><path d="M21.255,36.572l9.993-10.243c0.339-0.349,0.872-0.418,1.292-0.167l9.694,5.816L54,17.823V12  c0-1.105-0.895-2-2-2H12c-1.105,0-2,0.895-2,2v20.085L21.255,36.572z" fill="#D9DCE1"/><path d="M43.336,34.998c-0.186,0.245-0.461,0.373-0.748,0.397c-0.213,0.018-0.432-0.015-0.628-0.132l-9.763-5.858  l-0.025-0.015l-9.92,10.168c-0.202,0.207-0.475,0.317-0.752,0.317c-0.142,0-0.285-0.029-0.42-0.088L10,35.377V52  c0,1.105,0.895,2,2,2h40c1.105,0,2-0.895,2-2V22.291L43.336,34.998z" fill="#56AAFF"/></svg>