<?xml version="1.0" ?><svg id="Layer_1" style="enable-background:new 0 0 48 48;" version="1.1" viewBox="0 0 48 48" xml:space="preserve" xmlns="http://www.w3.org/2000/svg" xmlns:xlink="http://www.w3.org/1999/xlink"><style type="text/css">
	.st0{fill:#C0C3C9;}
	.st1{fill:#44C4A1;}
	.st2{fill:#EBF0F4;}
	.st3{fill:#3FA69C;}
	.st4{fill:#3A556A;}
	.st5{fill:#27A2DB;}
	.st6{fill:#1D77A1;}
	.st7{fill:#FCD562;}
	.st8{fill:#E66354;}
	.st9{fill:#DC8744;}
	.st10{fill:none;stroke:#439CBF;stroke-width:3;stroke-miterlimit:10;}
	.st11{fill:#439CBF;}
	.st12{fill:#CD513F;}
</style><g><rect class="st5" height="47" width="34.7" x="9" y="0.5"/><rect class="st0" height="3.2" width="9" x="4.4" y="6"/><rect class="st0" height="3.2" width="9" x="4.4" y="16.9"/><rect class="st0" height="3.2" width="9" x="4.4" y="27.9"/><rect class="st0" height="3.2" width="9" x="4.4" y="38.8"/><path class="st7" d="M25.4,23.5h0.6v1.5h3.2v-1.5h0.6c1.9,0,3.5-1.6,3.5-3.5v-2c0-1.9-1.6-3.5-3.5-3.5h-4.3c-0.1,0-0.3-0.1-0.3-0.3   v-2c0-0.1,0-0.1,0.1-0.2c0,0,0.1-0.1,0.2-0.1h4.3c0.1,0,0.3,0.1,0.3,0.3v1h3.2v-1c0-1.9-1.6-3.5-3.5-3.5h-0.6V7.3h-3.2v1.5h-0.6   c0,0,0,0,0,0c-0.9,0-1.8,0.4-2.4,1c-0.7,0.7-1,1.5-1,2.4v2c0,1.9,1.6,3.5,3.5,3.5h4.3c0.1,0,0.3,0.1,0.3,0.3v2   c0,0.1-0.1,0.3-0.3,0.3h-4.3c-0.1,0-0.3-0.1-0.3-0.3v-1h-3.2v1C21.9,21.9,23.5,23.5,25.4,23.5z"/><rect class="st2" height="3.2" width="17.5" x="18.8" y="30.3"/><rect class="st2" height="3.2" width="17.5" x="18.8" y="37.2"/></g></svg>