<?xml version="1.0" ?><!DOCTYPE svg  PUBLIC '-//W3C//DTD SVG 1.0//EN'  'http://www.w3.org/TR/2001/REC-SVG-20010904/DTD/svg10.dtd'><svg enable-background="new 0 0 32 32" height="32px" id="Layer_1" version="1.0" viewBox="0 0 32 32" width="32px" xml:space="preserve" xmlns="http://www.w3.org/2000/svg" xmlns:xlink="http://www.w3.org/1999/xlink"><g><path d="M30.042,0c1.104,0,2,0.896,2,2v28c0,1.104-0.896,2-2,2h-28c-1.104,0-2-0.896-2-2V2c0-1.104,0.896-2,2-2   H30.042z" fill="#3AAD73"/><path d="M0.042,2v28c0,1.104,0.896,2,2,2h28c1.104,0,2-0.896,2-2V2c0-1.104-0.896-2-2-2h-28   C0.938,0,0.042,0.896,0.042,2z M30.042,2v28h-28V2H30.042z" opacity="0.15"/><path d="M23.042,14h-5V9c0-1.104-0.896-2-2-2s-2,0.896-2,2v5h-5c-1.104,0-2,0.896-2,2s0.896,2,2,2h5v5   c0,1.104,0.896,2,2,2s2-0.896,2-2v-5h5c1.104,0,2-0.896,2-2S24.146,14,23.042,14z" fill="#FFFFFF"/></g><g/><g/><g/><g/><g/><g/></svg>