<?xml version="1.0" ?><!DOCTYPE svg  PUBLIC '-//W3C//DTD SVG 1.1//EN'  'http://www.w3.org/Graphics/SVG/1.1/DTD/svg11.dtd'><svg height="340px" id="Layer_1" style="enable-background:new 0 0 249 340;" version="1.1" viewBox="0 0 249 340" width="249px" xml:space="preserve" xmlns="http://www.w3.org/2000/svg" xmlns:xlink="http://www.w3.org/1999/xlink"><style type="text/css">
	.st0{fill:#00A5D1;}
</style><g><g><path class="st0" d="M233.6,120.8c0-59-48-107.1-107.1-107.1c-59,0-107,48-107,107.1c0,11.7,9.5,21.2,21.2,21.2     c11.7,0,21.2-9.5,21.2-21.2c0-35.7,29-64.6,64.6-64.6c35.7,0,64.7,29,64.7,64.6c0,35.5-28.7,64.3-64.1,64.6     c-1.2-0.1-2.5-0.2-3.7-0.2c-15.2,0-27.6,12.3-27.6,27.6l0.1,30c0,15.3,12.3,27.6,27.6,27.6c15.2,0,27.6-12.3,27.6-27.6L151,225     C198.2,214,233.6,171.4,233.6,120.8z"/><path class="st0" d="M151.2,309.3c0-15.3-12.4-27.7-27.7-27.7c-15.3,0-27.7,12.4-27.7,27.7c0,15.4,12.4,27.7,27.7,27.7     C138.8,337,151.2,324.6,151.2,309.3z"/></g></g></svg>