<?xml version="1.0" ?><svg viewBox="0 0 64 64" xmlns="http://www.w3.org/2000/svg"><g id="flat"><rect height="26" style="fill:#8ec13f" width="50" x="7" y="35"/><polygon points="51 61 13 61 18 35 47 35 51 61" style="fill:#55b56a"/><rect height="58" style="fill:#d3843d" width="4" x="3" y="3"/><rect height="58" style="fill:#d3843d" width="4" x="57" y="3"/><rect height="18" style="fill:#ffd782" width="50" x="7" y="7"/><polygon points="27.94 35 25.09 61 23.09 61 25.93 35 27.94 35" style="fill:#cfdfe8"/><polygon points="40.89 61 38.86 61 35.07 35 37.1 35 40.89 61" style="fill:#cfdfe8"/><polygon points="19 21 14 21 14 19 17 19 17 17 14 17 14 11 19 11 19 13 16 13 16 15 19 15 19 21" style="fill:#dd3e46"/><polygon points="21 13 23 13 23 21 25 21 25 13 27 13 27 11 21 11 21 13" style="fill:#dd3e46"/><polygon points="51 11 45 11 45 13 47 13 47 21 49 21 49 13 51 13 51 11" style="fill:#dd3e46"/><path d="M29,21h2V17h2v4h2V11H29Zm4-8v2H31V13Z" style="fill:#dd3e46"/><path d="M37,11V21h2V17.414l2,2V21h2V18.586L41.414,17H43V11H37Zm2,2h2v2H39Z" style="fill:#dd3e46"/></g></svg>