<?xml version="1.0" ?><!DOCTYPE svg  PUBLIC '-//W3C//DTD SVG 1.1//EN'  'http://www.w3.org/Graphics/SVG/1.1/DTD/svg11.dtd'><svg enable-background="new 0 0 128 128" id="Layer_1" version="1.1" viewBox="0 0 128 128" xml:space="preserve" xmlns="http://www.w3.org/2000/svg" xmlns:xlink="http://www.w3.org/1999/xlink"><g><g><path d="M49.5,26.7c-4.6-1.6-8.9-4.2-12.8-8.2c1.2-4.7,2.4-9.3,3.5-14c4,4,8.3,6.6,12.8,8.2    C51.8,17.4,50.6,22.1,49.5,26.7z" fill="#EDEDED"/></g><g><path d="M63.7,29.3c-4.9-0.2-9.7-0.9-14.2-2.6c1.2-4.7,2.3-9.3,3.5-14c4.5,1.6,9.3,2.4,14.2,2.6    C66,20,64.9,24.6,63.7,29.3z" fill="#010101"/></g><g><path d="M78.6,29.1c-5,0.2-10,0.4-14.9,0.2c1.2-4.7,2.3-9.3,3.5-14c4.9,0.2,9.9,0,14.9-0.2    C81,19.8,79.8,24.4,78.6,29.1z" fill="#EDEDED"/></g><g><path d="M93.6,28.9c-4.9-0.2-9.9,0-14.9,0.2c1.2-4.7,2.4-9.3,3.5-14c5-0.2,10-0.4,14.9-0.2    C95.9,19.6,94.7,24.2,93.6,28.9z" fill="#010101"/></g><g><path d="M107.8,31.5c-4.5-1.6-9.3-2.3-14.2-2.6c1.2-4.7,2.3-9.3,3.5-14c4.9,0.2,9.7,0.9,14.2,2.6    C110.2,22.2,109,26.8,107.8,31.5z" fill="#EDEDED"/></g><g><path d="M120.6,39.7c-4-4-8.3-6.6-12.8-8.2c1.2-4.7,2.3-9.3,3.5-14c4.5,1.6,8.9,4.2,12.8,8.2    C123,30.3,121.8,35,120.6,39.7z" fill="#010101"/></g><g><path d="M45.9,40.7c-4.6-1.6-8.9-4.2-12.8-8.2c1.2-4.7,2.4-9.3,3.5-14c4,4,8.3,6.6,12.8,8.2    C48.3,31.4,47.1,36.1,45.9,40.7z" fill="#010101"/></g><g><path d="M60.2,43.3c-4.9-0.2-9.7-0.9-14.2-2.6c1.2-4.7,2.4-9.3,3.5-14c4.5,1.6,9.3,2.4,14.2,2.6    C62.5,34,61.3,38.7,60.2,43.3z" fill="#EDEDED"/></g><g><path d="M75.1,43.1c-5,0.2-10,0.5-14.9,0.2c1.2-4.7,2.4-9.3,3.5-14c4.9,0.2,9.9,0,14.9-0.2    C77.5,33.8,76.3,38.4,75.1,43.1z" fill="#010101"/></g><g><path d="M90,42.9c-4.9-0.2-9.9,0-14.9,0.2c1.2-4.7,2.4-9.3,3.5-14c5-0.2,10-0.5,14.9-0.2    C92.4,33.6,91.2,38.2,90,42.9z" fill="#EDEDED"/></g><g><path d="M104.3,45.5c-4.5-1.6-9.3-2.3-14.2-2.6c1.2-4.7,2.3-9.3,3.5-14c4.9,0.2,9.7,0.9,14.2,2.6    C106.6,36.2,105.5,40.8,104.3,45.5z" fill="#010101"/></g><g><path d="M117.1,53.7c-4-4-8.3-6.6-12.8-8.2c1.2-4.7,2.3-9.3,3.5-14c4.5,1.6,8.9,4.2,12.8,8.2    C119.5,44.3,118.3,49,117.1,53.7z" fill="#EDEDED"/></g><g><path d="M42.4,54.7c-4.6-1.6-8.9-4.2-12.8-8.2c1.2-4.7,2.3-9.3,3.5-14c4,4,8.3,6.6,12.8,8.2    C44.8,45.4,43.6,50.1,42.4,54.7z" fill="#EDEDED"/></g><g><path d="M56.6,57.3c-4.9-0.2-9.7-1-14.2-2.6c1.2-4.7,2.4-9.3,3.5-14c4.5,1.6,9.3,2.4,14.2,2.6    C59,48,57.8,52.7,56.6,57.3z" fill="#010101"/></g><g><path d="M71.6,57.1c-5,0.2-10,0.4-14.9,0.2c1.2-4.7,2.3-9.3,3.5-14c4.9,0.2,9.9,0,14.9-0.2    C73.9,47.8,72.8,52.4,71.6,57.1z" fill="#EDEDED"/></g><g><path d="M86.5,56.9c-4.9-0.2-9.9,0-14.9,0.2c1.2-4.7,2.3-9.3,3.5-14c5-0.2,10-0.4,14.9-0.2    C88.9,47.6,87.7,52.2,86.5,56.9z" fill="#010101"/></g><g><path d="M100.8,59.5c-4.5-1.6-9.3-2.4-14.2-2.6c1.2-4.7,2.4-9.3,3.5-14c4.9,0.2,9.7,0.9,14.2,2.6    C103.1,50.2,101.9,54.8,100.8,59.5z" fill="#EDEDED"/></g><g><path d="M113.6,67.7c-4-4-8.3-6.6-12.8-8.2c1.2-4.7,2.4-9.3,3.5-14c4.5,1.6,8.9,4.2,12.8,8.2    C115.9,58.4,114.8,63,113.6,67.7z" fill="#010101"/></g><g><path d="M38.9,68.7c-4.6-1.6-8.9-4.2-12.8-8.2c1.2-4.7,2.3-9.3,3.5-14c4,4,8.3,6.6,12.8,8.2    C41.2,59.4,40.1,64.1,38.9,68.7z" fill="#010101"/></g><g><path d="M53.1,71.3c-4.9-0.2-9.7-0.9-14.2-2.6c1.2-4.7,2.3-9.3,3.5-14c4.5,1.6,9.3,2.3,14.2,2.6    C55.5,62,54.3,66.7,53.1,71.3z" fill="#EDEDED"/></g><g><path d="M68.1,71.1c-5,0.2-10,0.4-14.9,0.2c1.2-4.7,2.3-9.3,3.5-14c4.9,0.2,9.9,0,14.9-0.2    C70.4,61.8,69.2,66.4,68.1,71.1z" fill="#010101"/></g><g><path d="M83,70.9c-4.9-0.2-9.9,0-14.9,0.2c1.2-4.7,2.3-9.3,3.5-14c5-0.2,10-0.4,14.9-0.2    C85.3,61.6,84.2,66.2,83,70.9z" fill="#EDEDED"/></g><g><path d="M97.2,73.5c-4.5-1.6-9.3-2.4-14.2-2.6c1.2-4.7,2.3-9.3,3.5-14c4.9,0.2,9.7,0.9,14.2,2.6    C99.6,64.2,98.4,68.8,97.2,73.5z" fill="#010101"/></g><g><path d="M110.1,81.7c-4-4-8.3-6.6-12.8-8.2c1.2-4.7,2.3-9.3,3.5-14c4.5,1.6,8.9,4.2,12.8,8.2    C112.4,72.4,111.2,77,110.1,81.7z" fill="#EDEDED"/></g><g><rect fill="#AA6527" height="125.1" transform="matrix(0.9697 0.2441 -0.2441 0.9697 16.3774 -3.4313)" width="5.9" x="19.1" y="1.8"/></g></g></svg>