<?xml version="1.0" ?><!DOCTYPE svg  PUBLIC '-//W3C//DTD SVG 1.1//EN'  'http://www.w3.org/Graphics/SVG/1.1/DTD/svg11.dtd'><svg enable-background="new 0 0 256 256" height="256px" id="Layer_1" version="1.1" viewBox="0 0 256 256" width="256px" xml:space="preserve" xmlns="http://www.w3.org/2000/svg" xmlns:xlink="http://www.w3.org/1999/xlink"><g><g><path d="M120.447,29.245h-0.008c-57.053,0-103.311,46.259-103.311,103.312s46.258,103.306,103.311,103.306h0.008     c57.049-0.003,103.304-46.255,103.304-103.306C223.751,75.505,177.496,29.248,120.447,29.245z M120.447,215.204h-0.006     c-45.648,0-82.648-36.998-82.648-82.654c0-45.64,37-82.647,82.648-82.647h0.006c45.646,0.004,82.641,37.01,82.641,82.647     C203.088,178.204,166.094,215.201,120.447,215.204z" fill="#FA5670"/><path d="M120.447,49.902h-0.006c-45.648,0-82.648,37.008-82.648,82.647c0,45.656,37,82.654,82.648,82.654h0.006     c45.646-0.003,82.641-37,82.641-82.654C203.088,86.912,166.094,49.906,120.447,49.902z M120.447,194.545h-0.008     c-34.244,0-61.986-27.75-61.986-61.996c0-34.23,27.742-61.988,61.986-61.988h0.008c34.24,0.003,61.979,27.761,61.979,61.988     C182.426,166.793,154.687,194.542,120.447,194.545z" fill="#FFFFFF"/><path d="M223.751,132.556c0-57.051-46.255-103.308-103.304-103.312v20.657     c45.646,0.004,82.641,37.01,82.641,82.647c0,45.654-36.994,82.651-82.641,82.654v20.658     C177.496,235.859,223.751,189.607,223.751,132.556z" fill="#E24E6E"/><path d="M182.426,132.549c0,34.244-27.738,61.993-61.979,61.996v20.658c45.646-0.003,82.641-37,82.641-82.654     c0-45.638-36.994-82.644-82.641-82.647v20.659C154.687,70.564,182.426,98.322,182.426,132.549z" fill="#EEE4EF"/><path d="M120.447,111.89h-0.008c-11.41,0-20.66,9.249-20.66,20.661c0,11.414,9.25,20.665,20.66,20.665h0.008     c11.406-0.005,20.653-9.253,20.653-20.665C141.1,121.141,131.853,111.894,120.447,111.89z" fill="#FA5670"/><path d="M120.447,70.561h-0.008c-34.244,0-61.986,27.759-61.986,61.988c0,34.246,27.742,61.996,61.986,61.996     h0.008c34.24-0.003,61.979-27.752,61.979-61.996C182.426,98.322,154.687,70.564,120.447,70.561z M120.447,173.878h-0.008     c-22.822,0-41.325-18.502-41.325-41.325c0-22.824,18.503-41.324,41.325-41.324h0.008c22.817,0.003,41.317,18.502,41.317,41.324     C161.765,155.373,143.265,173.873,120.447,173.878z" fill="#FA5670"/><path d="M120.447,91.229h-0.008c-22.822,0-41.325,18.5-41.325,41.324c0,22.823,18.503,41.325,41.325,41.325h0.008     c22.817-0.005,41.317-18.505,41.317-41.325C161.765,109.731,143.265,91.232,120.447,91.229z M120.447,153.216h-0.008     c-11.41,0-20.66-9.251-20.66-20.665c0-11.412,9.25-20.661,20.66-20.661h0.008c11.406,0.004,20.653,9.251,20.653,20.661     C141.1,143.963,131.853,153.211,120.447,153.216z" fill="#FFFFFF"/><path d="M182.426,132.549c0-34.228-27.738-61.985-61.979-61.988v20.668c22.817,0.003,41.317,18.502,41.317,41.324     c0,22.82-18.5,41.32-41.317,41.325v20.667C154.687,194.542,182.426,166.793,182.426,132.549z" fill="#E24E6E"/><path d="M141.1,132.551c0,11.412-9.247,20.66-20.653,20.665v20.662c22.817-0.005,41.317-18.505,41.317-41.325     c0-22.822-18.5-41.321-41.317-41.324v20.661C131.853,111.894,141.1,121.141,141.1,132.551z" fill="#EEE4EF"/><path d="M141.1,132.551c0-11.41-9.247-20.657-20.653-20.661v41.326C131.853,153.211,141.1,143.963,141.1,132.551z     " fill="#E24E6E"/><g><g><path d="M174.507,81.076c-1.077,1.018-1.924,0.638-1.88-0.843l3.486-27.939       c0.042-1.479,0.957-3.523,2.036-4.542l28.628-27.042c1.077-1.017,2.025-0.64,2.107,0.841l-0.747,24.929       c0.079,1.48-0.733,3.522-1.81,4.54L174.507,81.076z" fill="#FFBE69"/></g><g><path d="M176.129,82.333c-1.077,1.014-0.746,1.882,0.734,1.924l28.092-1.89c1.48,0.04,3.572-0.757,4.65-1.771       l28.629-27.045c1.078-1.018,0.754-1.984-0.718-2.149l-24.935-0.674c-1.471-0.167-3.557,0.529-4.633,1.547L176.129,82.333z" fill="#E9A66B"/></g><path d="M222.045,37.265c0,0-0.002-0.001-0.002-0.002c-1.741-1.842-4.645-1.924-6.486-0.184l-97.182,91.795      c-1.842,1.74-1.927,4.644-0.187,6.486c0,0.002,0,0.002,0,0.002c1.741,1.843,4.646,1.926,6.488,0.186l97.184-91.796      C223.702,42.011,223.785,39.106,222.045,37.265z" fill="#3E4D75"/><path d="M222.045,37.265c0,0-0.002-0.001-0.002-0.002l-103.854,98.098c0,0.002,0,0.002,0,0.002      c1.741,1.843,4.646,1.926,6.488,0.186l97.184-91.796C223.702,42.011,223.785,39.106,222.045,37.265z" fill="#353859"/></g></g></g></svg>