<?xml version="1.0" ?><!DOCTYPE svg  PUBLIC '-//W3C//DTD SVG 1.1//EN'  'http://www.w3.org/Graphics/SVG/1.1/DTD/svg11.dtd'><svg height="341px" style="enable-background:new 0 0.1 236 341;" version="1.1" viewBox="0 0.1 236 341" width="236px" xml:space="preserve" xmlns="http://www.w3.org/2000/svg" xmlns:xlink="http://www.w3.org/1999/xlink"><style type="text/css">
<![CDATA[
	.st0{fill:#EEB211;}
	.st1{fill:#EF3E42;}
	.st2{fill:#54B948;}
	.st3{fill:#F78F1E;}
	.st4{fill:#939598;}
	.st5{fill:#FFD200;}
	.st6{fill:none;}
	.st7{fill:#6D6E71;}
]]>
</style><defs/><path class="st4" d="M68.6,38.9c0-8.2,6.7-14.9,14.9-14.9H142c8.2,0,14.9,6.7,14.9,14.9V264c0,8.2-6.7,14.9-14.9,14.9H83.5  c-8.2,0-14.9-6.7-14.9-14.9V38.9L68.6,38.9z"/><path class="st2" d="M79.5,230.8c0,18.4,14.9,33.3,33.3,33.3c18.4,0,33.3-14.9,33.3-33.3c0-18.4-14.9-33.3-33.3-33.3  C94.4,197.5,79.5,212.4,79.5,230.8L79.5,230.8z"/><path d="M79.5,151.4c0,18.4,14.9,33.3,33.3,33.3c18.4,0,33.3-14.9,33.3-33.3c0-18.4-14.9-33.3-33.3-33.3  C94.4,118.2,79.5,133.1,79.5,151.4L79.5,151.4z"/><polygon class="st7" points="128.2,285.9 128.2,313.8 97.3,313.8 97.3,285.9 128.2,285.9 "/><path d="M146,72.1c0-18.4-14.9-33.3-33.3-33.3c-18.4,0-33.3,14.9-33.3,33.3c0,18.4,14.9,33.3,33.3,33.3  C131.1,105.3,146,90.5,146,72.1L146,72.1z"/><path class="st7" d="M163.6,40.1h47l-28,34.7v12.6c0,9.2-7.5,16.7-16.7,16.7h-2.2V40.1L163.6,40.1z"/><path class="st7" d="M163.6,119.4h47l-28,34.7v12.6c0,9.2-7.5,16.7-16.7,16.7h-2.2V119.4L163.6,119.4z"/><path class="st7" d="M163.6,198.8h47l-28,34.7V246c0,9.2-7.5,16.7-16.7,16.7h-2.2V198.8L163.6,198.8z"/><path class="st7" d="M61.9,104.1h-2.2c-9.2,0-16.7-7.5-16.7-16.7V74.7l-28-34.7h47V104.1L61.9,104.1z"/><path class="st7" d="M61.9,183.4h-2.2c-9.2,0-16.7-7.5-16.7-16.7v-12.6l-28-34.7h47V183.4L61.9,183.4z"/><path class="st7" d="M61.9,262.8h-2.2c-9.2,0-16.7-7.5-16.7-16.7v-12.6l-28-34.7h47V262.8L61.9,262.8z"/><rect class="st6" height="341" id="_x3C_Slice_x3E__28_" width="236"/></svg>