<?xml version="1.0" ?><!DOCTYPE svg  PUBLIC '-//W3C//DTD SVG 1.1//EN'  'http://www.w3.org/Graphics/SVG/1.1/DTD/svg11.dtd'><svg height="340px" style="enable-background:new 0 0.1 218 340;" version="1.1" viewBox="0 0.1 218 340" width="218px" xml:space="preserve" xmlns="http://www.w3.org/2000/svg" xmlns:xlink="http://www.w3.org/1999/xlink"><style type="text/css">
<![CDATA[
	.st0{fill:#EEB211;}
	.st1{fill:#EF3E42;}
	.st2{fill:#54B948;}
	.st3{fill:#F78F1E;}
	.st4{fill:#939598;}
	.st5{fill:#FFD200;}
	.st6{fill:none;}
	.st7{fill:#6D6E71;}
]]>
</style><defs/><path class="st4" d="M69.6,42.9c0-8.2,6.7-14.9,14.9-14.9h58.6c8.2,0,14.9,6.7,14.9,14.9V268c0,8.2-6.7,14.9-14.9,14.9H84.5  c-8.2,0-14.9-6.7-14.9-14.9V42.9L69.6,42.9z"/><path d="M80.5,234.8c0,18.4,14.9,33.3,33.3,33.3c18.4,0,33.3-14.9,33.3-33.3c0-18.4-14.9-33.3-33.3-33.3  C95.4,201.5,80.5,216.4,80.5,234.8L80.5,234.8z"/><path d="M80.5,155.4c0,18.4,14.9,33.3,33.3,33.3c18.4,0,33.3-14.9,33.3-33.3c0-18.4-14.9-33.3-33.3-33.3  C95.4,122.2,80.5,137.1,80.5,155.4L80.5,155.4z"/><polygon class="st7" points="129.3,289.9 129.3,317.8 98.3,317.8 98.3,289.9 129.3,289.9 "/><path class="st1" d="M147.1,76.1c0-18.4-14.9-33.3-33.3-33.3c-18.4,0-33.3,14.9-33.3,33.3c0,18.4,14.9,33.3,33.3,33.3  C132.2,109.3,147.1,94.5,147.1,76.1L147.1,76.1z"/><path class="st7" d="M164.6,44.1h47l-28,34.7v12.6c0,9.2-7.5,16.7-16.7,16.7h-2.2V44.1L164.6,44.1z"/><path class="st7" d="M164.6,123.4h47l-28,34.7v12.6c0,9.2-7.5,16.7-16.7,16.7h-2.2V123.4L164.6,123.4z"/><path class="st7" d="M164.6,202.8h47l-28,34.7V250c0,9.2-7.5,16.7-16.7,16.7h-2.2V202.8L164.6,202.8z"/><path class="st7" d="M63,108.1h-2.2c-9.2,0-16.7-7.5-16.7-16.7V78.7L16,44.1h47V108.1L63,108.1z"/><path class="st7" d="M63,187.4h-2.2c-9.2,0-16.7-7.5-16.7-16.7v-12.6l-28-34.7h47V187.4L63,187.4z"/><path class="st7" d="M63,266.8h-2.2c-9.2,0-16.7-7.5-16.7-16.7v-12.6l-28-34.7h47V266.8L63,266.8z"/><rect class="st6" height="340" id="_x3C_Slice_x3E__28_" width="218"/></svg>