<?xml version="1.0" ?><svg viewBox="0 0 512 512" xmlns="http://www.w3.org/2000/svg"><g id="flat"><rect height="104" style="fill:#b76504" width="32" x="240" y="384"/><rect height="104" style="fill:#894c03" width="8" x="264" y="384"/><path d="M232,392h48V328h0A104,104,0,0,0,384,224V192.971A40.971,40.971,0,0,0,372,164h0a40.971,40.971,0,0,1-12-28.971V112l24,24V120a56,56,0,0,0-56-56h0v87.029A40.971,40.971,0,0,0,340,180h0a40.971,40.971,0,0,1,12,28.971V216a80,80,0,0,1-80,80h0V104l24,8L256,24l-40,88,24-8V296h0a80,80,0,0,1-80-80v-7.029A40.973,40.973,0,0,1,172,180h0a40.973,40.973,0,0,0,12-28.971V64h0a56,56,0,0,0-56,56v8l24-24v31.029A40.971,40.971,0,0,1,140,164h0a40.971,40.971,0,0,0-12,28.971V224A104,104,0,0,0,232,328h0Z" style="fill:#ff421d"/><path d="M288,104l-24-8V282.171a16.743,16.743,0,0,0,5.112,12.216c1.063,1,2.1,1.691,2.888,1.613V104l24,8L256,24l-2.182,4.8Z" style="fill:#cc3517"/><path d="M176,143.029A40.973,40.973,0,0,1,164,172h0a40.972,40.972,0,0,0-12,28.97V208a79.817,79.817,0,0,0,27.572,60.428A79.694,79.694,0,0,1,160,216v-7.03A40.972,40.972,0,0,1,172,180h0a40.973,40.973,0,0,0,12-28.971V64h0a56.588,56.588,0,0,0-8,.567Z" style="fill:#cc3517"/><path d="M360,135.029V112l-8-8v23.029A40.973,40.973,0,0,0,364,156a40.972,40.972,0,0,1,12,28.97V216A104,104,0,0,1,272,320v72h8V328A104,104,0,0,0,384,224V192.97A40.972,40.972,0,0,0,372,164,40.973,40.973,0,0,1,360,135.029Z" style="fill:#cc3517"/></g></svg>