<?xml version="1.0" ?><!DOCTYPE svg  PUBLIC '-//W3C//DTD SVG 1.1//EN'  'http://www.w3.org/Graphics/SVG/1.1/DTD/svg11.dtd'><svg height="512px" style="shape-rendering:geometricPrecision; text-rendering:geometricPrecision; image-rendering:optimizeQuality; fill-rule:evenodd; clip-rule:evenodd" version="1.1" viewBox="0 0 512 512" width="512px" xml:space="preserve" xmlns="http://www.w3.org/2000/svg" xmlns:xlink="http://www.w3.org/1999/xlink"><defs><style type="text/css">
   <![CDATA[
    .fil0 {fill:#2B2A29}
   ]]>
  </style></defs><g id="Layer_x0020_1"><path class="fil0" d="M251 202l0 252c0,0 -2,30 -4,35 -10,24 44,24 34,0 -2,-5 -4,-35 -4,-35l0 -253c31,-6 54,-33 54,-66l0 -78 1 -1c0,0 7,6 12,8 5,2 5,2 5,2l2 -4c-16,-9 -21,-29 -25,-45l0 0 -1 0 0 0c-4,17 -10,37 -25,45l2 4c0,0 0,0 5,-2 5,-2 12,-8 12,-8l1 1 0 2 0 52 0 21c0,23 -15,43 -35,51 -17,6 -13,1 -13,-14l0 -125 1 -1c0,0 7,6 12,8 5,2 5,2 5,2l2 -4c-16,-9 -21,-29 -25,-45l0 0 -1 0 0 0c-4,17 -10,37 -25,45l2 4c0,0 0,0 5,-2 5,-2 12,-8 12,-8l1 1 0 125c0,15 4,20 -12,14 -21,-8 -36,-28 -36,-51l0 -21 0 -52 0 -2 1 -1c0,0 7,6 12,8 5,2 5,2 5,2l2 -4c-16,-9 -21,-29 -25,-45l0 0 -1 0 0 0c-4,17 -10,37 -25,45l2 4c0,0 0,0 5,-2 5,-2 12,-8 12,-8l1 1 0 78c0,33 24,60 55,66z"/></g></svg>