<?xml version="1.0" ?><svg enable-background="new 0 0 48 48" id="Layer_1" version="1.1" viewBox="0 0 48 48" xml:space="preserve" xmlns="http://www.w3.org/2000/svg" xmlns:xlink="http://www.w3.org/1999/xlink"><g><g><g><g><path d="M16,27.1c-2.8,0-5.7-1.1-7.9-3.2L1,16.7l1.4-1.4l7.1,7.1c3.5,3.5,9.3,3.5,12.9,0c1.7-1.7,2.7-4,2.7-6.4      s-0.9-4.7-2.7-6.4l-7.1-7.1L16.7,1l7.1,7.1c2.1,2.1,3.3,4.9,3.3,7.8s-1.2,5.8-3.3,7.8C21.7,26,18.9,27.1,16,27.1z" fill="#010101"/></g></g><g><g><g><polygon fill="#010101" points="15.8,6.4 14.8,0.5 20.7,1.5 20.4,3.4 17.2,3 17.7,6.1      "/></g></g></g><g><g><g><polygon fill="#010101" points="1.5,20.7 0.5,14.8 6.4,15.8 6.1,17.7 3,17.2 3.4,20.4      "/></g></g></g></g><g><g><rect fill="#010101" height="2" transform="matrix(0.7071 0.7071 -0.7071 0.7071 34.9628 -14.4819)" width="33.3" x="18.3" y="34"/></g></g><g><g><g><rect fill="#010101" height="2" transform="matrix(0.7071 0.7071 -0.7071 0.7071 16.0337 -6.6413)" width="20.2" x="5.9" y="15"/></g></g><g><g><g><polygon fill="#010101" points="8.6,13.5 7.7,7.7 13.5,8.6 13.2,10.6 10.1,10.1 10.6,13.2      "/></g></g></g></g></g></svg>