<svg width="134" height="134" xmlns="http://www.w3.org/2000/svg">

 <g>
  <title>background</title>
  <rect fill="none" id="canvas_background" height="402" width="582" y="-1" x="-1"/>
 </g>
 <g>
  <title fill="#ffffff">Layer 1</title>
  <path fill="#ffffff" id="svg_1" d="m28.054689,45.719669c-2.446289,0 -4.436529,1.99511 -4.436529,4.44775s1.99024,4.44775 4.436529,4.44775c2.445801,0 4.436029,-1.99511 4.436029,-4.44775s-1.990229,-4.44775 -4.436029,-4.44775zm0,6.8955c-1.34326,0 -2.436529,-1.098141 -2.436529,-2.44775s1.093269,-2.44775 2.436529,-2.44775s2.436031,1.098141 2.436031,2.44775s-1.092772,2.44775 -2.436031,2.44775z"/>
  <path fill="#ffffff" id="svg_2" d="m130,58.361759c-0.552246,0 -1,0.44775 -1,1c0,2.61718 -2.120613,4.74609 -4.727051,4.74609l-2.468811,0c-0.681274,-23.536987 -25.251099,-42.522459 -55.376884,-42.522459c-10.173832,0 -20.094242,2.178709 -28.731945,6.30566l-15.591789,-10.71533c-0.328129,-0.22559 -0.759279,-0.234369 -1.09668,-0.023439c-0.337891,0.21143 -0.51807,0.603029 -0.4585,0.99658l2.93457,19.460449c-4.407711,4.259769 -7.98291,9.68457 -10.14551,15.390629l-7.046381,0c-1.81446,0 -3.29102,1.479492 -3.29102,3.29834l0,17.40332c0,1.818848 1.47656,3.29834 3.29102,3.29834l7.046381,0c3.24365,8.521973 9.994629,16.479492 18.6626,21.98877l0,14.712891c0,1.818848 1.476559,3.29834 3.291019,3.29834l10.417961,0c1.814461,0 3.291019,-1.479492 3.291019,-3.29834l0,-7.385246c5.838871,1.576164 11.412109,2.313957 17.427254,2.313957c6.019524,0 11.782219,-0.758301 17.572746,-2.314941l0,7.38623c0,1.818848 1.476563,3.29834 3.291023,3.29834l10.417953,0c1.814461,0 3.291023,-1.479492 3.291023,-3.29834l0,-14.712402c12.912483,-8.186707 20.425423,-20.10041 20.800423,-32.881348l2.472527,0c3.709473,0 6.727051,-3.026371 6.727051,-6.74609c0,-0.55225 -0.447754,-1 -1,-1zm-30.527344,39.224598c-0.293945,0.182625 -0.472656,0.503914 -0.472656,0.849609l0,15.265633c0,0.71582 -0.579102,1.29834 -1.291023,1.29834l-10.417953,0c-0.711922,0 -1.291023,-0.58252 -1.291023,-1.29834l0,-8.703133c0,-0.314445 -0.147949,-0.610344 -0.398933,-0.799309c-0.175285,-0.131836 -0.386703,-0.200691 -0.601067,-0.200691c-0.092773,0 -0.186523,0.012703 -0.277344,0.03907c-6.039543,1.744637 -12.023926,2.592773 -18.295403,2.592773c-6.259285,0 -12.026375,-0.82373 -18.149914,-2.592773c-0.302238,-0.088379 -0.626949,-0.027344 -0.87841,0.161621c-0.25098,0.188965 -0.39893,0.484863 -0.39893,0.799309l0,8.703133c0,0.71582 -0.579102,1.29834 -1.291019,1.29834l-10.417961,0c-0.711918,0 -1.291019,-0.58252 -1.291019,-1.29834l0,-15.265633c0,-0.346184 -0.178711,-0.667473 -0.47266,-0.849609c-8.744141,-5.424797 -15.505859,-13.41552 -18.55175,-21.92334c-0.14209,-0.397934 -0.51905,-0.663078 -0.94141,-0.663078l-7.74316,0c-0.71192,0 -1.29102,-0.58252 -1.29102,-1.29834l0,-17.40332c0,-0.71582 0.5791,-1.29834 1.29102,-1.29834l7.74316,0c0.42236,0 0.79883,-0.265141 0.94141,-0.662598c2.08642,-5.820313 5.72998,-11.373051 10.25927,-15.63525c0.238771,-0.224609 0.352051,-0.552742 0.30323,-0.876961l-2.668459,-17.69628l14.171869,9.739738c0.297371,0.20459 0.682129,0.23291 1.006351,0.07373c8.487789,-4.158689 18.30127,-6.35693 28.379402,-6.35693c29.449699,0 53.40918,18.626951 53.40918,41.522459c0,12.608398 -7.422371,24.446289 -20.363777,32.478508z"/>
 </g>
</svg>