<svg width="32" height="32" xmlns="http://www.w3.org/2000/svg">

 <g>
  <title>background</title>
  <rect fill="none" id="canvas_background" height="402" width="582" y="-1" x="-1"/>
 </g>
 <g>
  <title>Layer 1</title>
  <path fill="#fffffc" id="svg_2" d="m17,3l0.792299,3.16913c1.42663,0.2586 2.747681,0.81531 3.89459,1.61035l2.798401,-1.67902l1.41419,1.41425l-1.678961,2.79834c0.794979,1.14691 1.351749,2.468019 1.61035,3.89465l3.16913,0.7923l0,2l-3.16913,0.792299c-0.2586,1.42663 -0.815371,2.747622 -1.61035,3.89459l1.678961,2.798401l-1.41419,1.41419l-2.79834,-1.67902c-1.146971,0.795038 -2.46796,1.351809 -3.894651,1.610409l-0.792299,3.16913l-2,0l-0.7923,-3.16913c-1.42669,-0.2586 -2.74768,-0.815371 -3.89465,-1.610409l-2.79834,1.67902l-1.41419,-1.41419l1.67896,-2.798401c-0.79498,-1.146969 -1.35175,-2.46796 -1.61035,-3.89459l-3.16913,-0.792299l0,-2l3.16913,-0.7923c0.2586,-1.42663 0.81537,-2.74774 1.61035,-3.89465l-1.67896,-2.79834l1.41419,-1.41425l2.7984,1.67902c1.14691,-0.79504 2.467959,-1.35175 3.894589,-1.61035l0.7923,-3.16913l2,0m-1,20c3.86598,0 7,-3.13402 7,-7s-3.13402,-7 -7,-7s-7,3.13402 -7,7s3.13402,7 7,7m1,-21l-2,0c-0.45887,0 -0.85885,0.31229 -0.97014,0.75746l-0.64079,2.56309c-1.09824,0.26605 -2.13565,0.69491 -3.096889,1.28018l-2.26298,-1.35777c-0.159679,-0.09581 -0.33752,-0.14252 -0.51416,-0.14252c-0.25861,0 -0.51466,0.10013 -0.70745,0.29293l-1.41419,1.41425c-0.32445,0.32446 -0.38645,0.82811 -0.15038,1.22158l1.35772,2.262931c-0.58535,0.96136 -1.01412,1.99865 -1.28019,3.096939l-2.56309,0.64079c-0.44517,0.111291 -0.75746,0.511271 -0.75746,0.97014l0,2c0,0.45887 0.31229,0.85885 0.75746,0.97014l2.5631,0.640789c0.26604,1.098211 0.69484,2.135481 1.2802,3.09688l-1.35774,2.263c-0.23608,0.39348 -0.17407,0.89712 0.15039,1.22159l1.41419,1.41419c0.19277,0.19277 0.44884,0.292919 0.70743,0.292919c0.17666,0 0.35447,-0.046709 0.51418,-0.14254l2.26292,-1.357759c0.96139,0.58539 1.99867,1.014179 3.096939,1.28023l0.64079,2.563101c0.111291,0.445169 0.511271,0.75746 0.97014,0.75746l2,0c0.45887,0 0.85885,-0.31229 0.97014,-0.75746l0.640789,-2.563101c1.09827,-0.26605 2.135551,-0.694839 3.096941,-1.28023l2.26292,1.357759c0.159679,0.09581 0.33754,0.14254 0.514179,0.14254c0.25861,0 0.514641,-0.100119 0.70743,-0.292919l1.41419,-1.41419c0.324459,-0.324471 0.386469,-0.82811 0.150391,-1.22159l-1.35774,-2.263c0.58536,-0.961399 1.01416,-1.998669 1.280209,-3.09688l2.563091,-0.640789c0.445169,-0.11129 0.75746,-0.511271 0.75746,-0.97014l0,-2c0,-0.45887 -0.31229,-0.85885 -0.75746,-0.97014l-2.563091,-0.64079c-0.266069,-1.098289 -0.694839,-2.135579 -1.28019,-3.096939l1.357721,-2.262931c0.236069,-0.39347 0.174068,-0.89712 -0.150381,-1.22158l-1.41419,-1.41425c-0.19277,-0.19278 -0.44886,-0.29291 -0.707449,-0.29293c-0.17667,-0.00001 -0.35445,0.0467 -0.51416,0.14252l-2.26298,1.35777c-0.961241,-0.58527 -1.998652,-1.01412 -3.096891,-1.28018l-0.640789,-2.56309c-0.11129,-0.44517 -0.511271,-0.75746 -0.97014,-0.75746l0,0zm-1,20c-3.30841,0 -6,-2.691589 -6,-6s2.69159,-6 6,-6s6,2.69159 6,6s-2.691589,6 -6,6l0,0z"/>
 </g>
</svg>