<?xml version="1.0" ?><!DOCTYPE svg  PUBLIC '-//W3C//DTD SVG 1.1//EN'  'http://www.w3.org/Graphics/SVG/1.1/DTD/svg11.dtd'><svg height="512px" id="Layer_1" style="enable-background:new 0 0 512 512;" version="1.1" viewBox="0 0 512 512" width="512px" xml:space="preserve" xmlns="http://www.w3.org/2000/svg" xmlns:xlink="http://www.w3.org/1999/xlink"><style type="text/css">
<![CDATA[
	.st0{fill-rule:evenodd;clip-rule:evenodd;fill:#3A3A38;}
	.st1{fill:none;stroke:#C4C6C6;stroke-width:4.4233;stroke-linecap:round;stroke-linejoin:round;stroke-miterlimit:10;}
	.st2{fill:#7A4315;}
	.st3{fill:#7A5529;}
	.st4{fill:#7A7570;}
	.st5{fill:#7A7A7A;}
	.st6{fill:#AA0F0F;}
	.st7{fill:#471518;}
	.st8{fill:#AA6F29;}
	.st9{fill:#480500;}
	.st10{fill:#484849;}
	.st11{fill:#485E60;}
	.st12{fill:#7C2727;}
	.st13{fill:#7C443A;}
	.st14{fill:#7C5738;}
	.st15{fill:#7C7B7B;}
	.st16{fill:#7C7C7C;}
	.st17{fill:#491F1F;}
	.st18{fill:#7DEAC8;}
	.st19{fill:#AD7255;}
	.st20{fill:#ADADAC;}
	.st21{fill:none;stroke:#AEAFAF;stroke-width:4.4233;stroke-linecap:round;stroke-linejoin:round;stroke-miterlimit:10;}
	.st22{fill:#7F592B;}
	.st23{fill:#110909;}
	.st24{fill:#111111;}
	.st25{fill:#AF7054;}
	.st26{fill:#AF8654;}
	.st27{fill:#AF8A3F;}
	.st28{fill:#AF9651;}
	.st29{fill:#E08C96;}
	.st30{fill:#AFA79E;}
	.st31{fill:#E09765;}
	.st32{fill:#AFAFAF;}
	.st33{fill:#E0CEC6;}
	.st34{fill:#E0D7D5;}
	.st35{fill:#E21730;}
	.st36{fill:#E2AF8D;}
	.st37{fill:#E2B77D;}
	.st38{fill:#E2BA13;}
	.st39{fill:#E2BA7A;}
	.st40{fill:#E2CFC9;}
	.st41{fill:#E2DBD7;}
	.st42{fill:#E2E2E2;}
	.st43{fill:#151B1E;}
	.st44{fill:#15252D;}
	.st45{fill:#E3E2E2;}
	.st46{fill:#161412;}
	.st47{fill:#E58585;}
	.st48{fill:#E59A05;}
	.st49{fill:#E5AA17;}
	.st50{fill:#E5B738;}
	.st51{fill:#E5B786;}
	.st52{fill:#E5C0AE;}
	.st53{fill:#E5C74A;}
	.st54{fill:#E5CE27;}
	.st55{fill:#E5D3D8;}
	.st56{fill:#E5D698;}
	.st57{fill:#E5DDD7;}
	.st58{fill:#E5DFDC;}
	.st59{fill:#E5E5E5;}
	.st60{fill:#18171C;}
	.st61{fill:#4C331B;}
	.st62{fill:#191919;}
	.st63{fill:#E84849;}
	.st64{fill:#E8C377;}
	.st65{fill:#E8CB21;}
	.st66{fill:#E8DEAA;}
	.st67{fill:#E8DFD9;}
	.st68{fill:#E8E6E3;}
	.st69{fill:#4E5456;}
	.st70{fill:#4F392F;}
	.st71{fill:#4F4038;}
	.st72{fill:#4F453F;}
	.st73{fill:#4F4F4E;}
	.st74{fill:#4F4F4F;}
	.st75{fill:#B0B0AF;}
	.st76{fill:#821223;}
	.st77{fill:#82503A;}
	.st78{fill:#825338;}
	.st79{fill:#828281;}
	.st80{fill:#828282;}
	.st81{fill:#B1B2B2;}
	.st82{fill:#B23725;}
	.st83{fill:#B27246;}
	.st84{fill:#B27247;}
	.st85{fill:#B27832;}
	.st86{fill:#B28766;}
	.st87{fill:#848484;}
	.st88{fill:#B54215;}
	.st89{fill:#B5491A;}
	.st90{fill:#B58A45;}
	.st91{fill:#B5B4A0;}
	.st92{fill:#B5B5B5;}
	.st93{fill:#EA4949;}
	.st94{fill:#877F74;}
	.st95{fill:#878787;}
	.st96{fill:#EAA786;}
	.st97{fill:#1C1C1B;}
	.st98{fill:#EAB38B;}
	.st99{fill:#EAE7E5;}
	.st100{fill:#EAEAEA;}
	.st101{fill:#B74E13;}
	.st102{fill:#B7632A;}
	.st103{fill:#B76F18;}
	.st104{fill:#B77B5E;}
	.st105{fill:#B78445;}
	.st106{fill:#EB7D28;}
	.st107{fill:#B7BCBC;}
	.st108{fill:#1D171B;}
	.st109{fill:#892C10;}
	.st110{fill:#89342F;}
	.st111{fill:#ECA4A4;}
	.st112{fill:#EDA16E;}
	.st113{fill:#1F1E23;}
	.st114{fill:#EDAE83;}
	.st115{fill:#EDC92F;}
	.st116{fill:#EDE4C5;}
	.st117{fill:#EDE691;}
	.st118{fill:#506768;}
	.st119{fill:#EED8CB;}
	.st120{fill:#512A10;}
	.st121{fill:#515150;}
	.st122{fill:#515151;}
	.st123{fill:#EFCA95;}
	.st124{fill:#EFD35B;}
	.st125{fill:#EFE3AF;}
	.st126{fill:#EFE8E6;}
	.st127{fill:#EFE8E8;}
	.st128{fill:#EFEEED;}
	.st129{fill:#542A14;}
	.st130{fill:#543919;}
	.st131{fill:#545454;}
	.st132{fill:#565654;}
	.st133{fill:#565656;}
	.st134{fill:#BA3C30;}
	.st135{fill:#585858;}
	.st136{fill:#8C5315;}
	.st137{fill:#593014;}
	.st138{fill:#59351D;}
	.st139{fill:#59514D;}
	.st140{fill:#595A5C;}
	.st141{fill:#BC8871;}
	.st142{fill:#BCA15C;}
	.st143{fill:#8E0C0C;}
	.st144{fill:#8E280C;}
	.st145{fill:#8E2D23;}
	.st146{fill:#8E5935;}
	.st147{fill:#8E8E8E;}
	.st148{fill:#202022;}
	.st149{fill:#202121;}
	.st150{fill:#211712;}
	.st151{fill:#211917;}
	.st152{fill:#212223;}
	.st153{fill:#BF1717;}
	.st154{fill:#BF8A13;}
	.st155{fill:#BFBFBE;}
	.st156{fill:#22A85B;}
	.st157{fill:#23150A;}
	.st158{fill:#231F20;}
	.st159{fill:#232228;}
	.st160{fill:#232323;}
	.st161{fill:#F1E8E3;}
	.st162{fill:#F1F0EE;}
	.st163{fill:#238587;}
	.st164{fill:#F25872;}
	.st165{fill:#F2A7A7;}
	.st166{fill:#F2C9A5;}
	.st167{fill:#F2D65F;}
	.st168{fill:#F2F1DF;}
	.st169{fill:#F2F2ED;}
	.st170{fill:#25B7D3;}
	.st171{fill:#261A15;}
	.st172{fill:#262626;}
	.st173{fill:#F4D44E;}
	.st174{fill:#F4D553;}
	.st175{fill:#F4E028;}
	.st176{fill:#F4EBC1;}
	.st177{fill:#F4F3F2;}
	.st178{fill:#F5F5F5;}
	.st179{fill:#5B371E;}
	.st180{fill:#5B4F3F;}
	.st181{fill:#5B5B5B;}
	.st182{fill:#F6A2A3;}
	.st183{fill:#282828;}
	.st184{fill:#F78F50;}
	.st185{fill:#F7F0D5;}
	.st186{fill:none;stroke:#202121;stroke-width:1.6388;stroke-miterlimit:10;}
	.st187{fill:#F87002;}
	.st188{fill:#F8FFFF;}
	.st189{fill:#F9E595;}
	.st190{fill:#F9E8EC;}
	.st191{fill:#5F431D;}
	.st192{fill:#916B33;}
	.st193{fill:none;stroke:#C4C6C6;stroke-width:1.4744;stroke-linecap:round;stroke-linejoin:round;stroke-miterlimit:10;}
	.st194{fill:#C11A1A;}
	.st195{fill:#C18161;}
	.st196{fill:#C1822F;}
	.st197{fill:#C18456;}
	.st198{fill:#C19A44;}
	.st199{fill:#926A46;}
	.st200{fill:#929293;}
	.st201{fill:#C1AE23;}
	.st202{fill:#C1C0BB;}
	.st203{fill:#C2C2BA;}
	.st204{fill:none;stroke:#C4C6C6;stroke-width:3.6861;stroke-linecap:round;stroke-linejoin:round;stroke-miterlimit:10;}
	.st205{fill:#C45118;}
	.st206{fill:#C48769;}
	.st207{fill:#C4AB90;}
	.st208{fill:#C4C6C6;}
	.st209{fill:#2A414C;}
	.st210{fill:#2A8F91;}
	.st211{fill:#C55F2E;}
	.st212{fill:#96603B;}
	.st213{fill:#2B120B;}
	.st214{fill:#2B2A2A;}
	.st215{fill:#C69017;}
	.st216{fill:#979797;}
	.st217{fill:#FABC3D;}
	.st218{fill:none;stroke:#CBCBC9;stroke-width:9.6491;stroke-miterlimit:10;}
	.st219{fill:#2C414C;}
	.st220{fill:#FAEFDD;}
	.st221{fill:#FAF8FB;}
	.st222{fill:#C7D8E0;}
	.st223{fill:#2D2D2D;}
	.st224{fill:#FBC096;}
	.st225{fill:#2D9DA5;}
	.st226{fill:#99833D;}
	.st227{fill:#999998;}
	.st228{fill:#FC9E5E;}
	.st229{fill:#C8E6EC;}
	.st230{fill:#FCE37A;}
	.st231{fill:#2E88E8;}
	.st232{fill:#C98D6F;}
	.st233{fill:#C9C9C5;}
	.st234{fill:#2F8442;}
	.st235{opacity:0.5;}
	.st236{fill:#FFB30B;}
	.st237{fill:#FFC57C;}
	.st238{fill:#FFDB9D;}
	.st239{fill:#FFFFFF;}
	.st240{fill:#6297B2;}
	.st241{fill:#633C1F;}
	.st242{fill:#634421;}
	.st243{fill:#636363;}
	.st244{fill:#6395CA;}
	.st245{fill:#644B44;}
	.st246{fill:none;}
	.st247{fill:#663E22;}
	.st248{fill:#664A3B;}
	.st249{fill:#666666;}
	.st250{fill:#66B9CC;}
	.st251{fill:#9B9187;}
	.st252{fill:#9B9B9B;}
	.st253{fill:#683713;}
	.st254{fill:#683D25;}
	.st255{fill:#685F56;}
	.st256{fill:#CB6454;}
	.st257{fill:#CBCBC9;}
	.st258{fill:#CC8A69;}
	.st259{fill:#CCA915;}
	.st260{fill:#CCCECE;}
	.st261{fill:#9E7254;}
	.st262{fill:#CDCCCB;}
	.st263{fill:#CDD1D1;}
	.st264{fill:#CDD2D6;}
	.st265{fill:#30150C;}
	.st266{fill:#CE0F1E;}
	.st267{fill:#CE3A3A;}
	.st268{fill:#CE8B6A;}
	.st269{fill:#CE925D;}
	.st270{fill:#CEA493;}
	.st271{fill:#CEA672;}
	.st272{fill:#CECECC;}
	.st273{fill:#CECECE;}
	.st274{fill:#CED6E4;}
	.st275{clip-path:url(#SVGID_4_);fill:#BFBFBF;}
	.st276{fill:#CFD2D3;}
	.st277{fill:#32BEA6;}
	.st278{fill:#332826;}
	.st279{fill:#333333;}
	.st280{fill:#334D5C;}
	.st281{fill:#353534;}
	.st282{fill:#35708E;}
	.st283{fill:#363638;}
	.st284{fill:#36363D;}
	.st285{fill:#364749;}
	.st286{fill:#6B6B6B;}
	.st287{fill:#381C0C;}
	.st288{fill:#38281F;}
	.st289{fill:#383838;}
	.st290{fill:#387A9B;}
	.st291{fill:#6CDDBD;}
	.st292{fill:#395154;}
	.st293{fill:#6D0B0B;}
	.st294{fill:#6D4326;}
	.st295{fill:#6D5E57;}
	.st296{fill:#6D6D6A;}
	.st297{fill:#6E4832;}
	.st298{fill:#000100;}
	.st299{fill:#010101;}
	.st300{fill:#011030;}
	.st301{fill:#011750;}
	.st302{fill:#020200;}
	.st303{fill:#020403;}
	.st304{fill:#D18B5A;}
	.st305{fill:#D1985E;}
	.st306{fill:#D19D79;}
	.st307{fill:#D1B333;}
	.st308{fill:#D1D0CF;}
	.st309{fill:#D1D1D1;}
	.st310{fill:#03BECD;}
	.st311{fill:#04090D;}
	.st312{fill:#D2D2D2;}
	.st313{fill:#D2D6D6;}
	.st314{fill:#D3A76C;}
	.st315{fill:#D3D3D3;}
	.st316{fill:#0591A8;}
	.st317{fill:#3A251C;}
	.st318{fill:#3A2F2D;}
	.st319{fill:#3A3228;}
	.st320{fill:#3A3A38;}
	.st321{fill:#3A3A3A;}
	.st322{fill:#3B3633;}
	.st323{fill:#D68389;}
	.st324{fill:#D69472;}
	.st325{fill:#D69D76;}
	.st326{fill:#D69E61;}
	.st327{fill:#D6A172;}
	.st328{fill:#D6D8D8;}
	.st329{fill:#090400;}
	.st330{fill:#D7E2E8;}
	.st331{fill:#D7E4F4;}
	.st332{fill:#099FAF;}
	.st333{fill:#D89C7D;}
	.st334{fill:#D8A209;}
	.st335{fill:#D8D8D8;}
	.st336{fill:#D8DBBA;}
	.st337{fill:#D9B169;}
	.st338{fill:#3F2516;}
	.st339{fill:#3F3533;}
	.st340{fill:#3F5356;}
	.st341{fill:#70462A;}
	.st342{fill:#704C21;}
	.st343{fill:#705D40;}
	.st344{fill:#707070;}
	.st345{fill:#A03317;}
	.st346{fill:#A03513;}
	.st347{fill:#A06D24;}
	.st348{fill:#A09393;}
	.st349{fill:#A09F9F;}
	.st350{fill:#727270;}
	.st351{fill:#727272;}
	.st352{fill:#A34116;}
	.st353{fill:#A3D5E0;}
	.st354{fill:#757575;}
	.st355{fill:#A4A5A4;}
	.st356{fill:#A56A42;}
	.st357{fill:#767677;}
	.st358{fill:#A5A4A4;}
	.st359{fill:#A5A5A5;}
	.st360{fill:#A5A8A8;}
	.st361{fill:#A5B6B9;}
	.st362{fill:#0B296B;}
	.st363{fill:#A7DCBD;}
	.st364{fill:#0D0D0F;}
	.st365{fill:#DBB7A5;}
	.st366{fill:#DBD0CA;}
	.st367{fill:#A80528;}
	.st368{fill:#A84614;}
	.st369{fill:#A89B3B;}
	.st370{fill:none;stroke:#A5A8A8;stroke-width:2.2847;stroke-linecap:round;stroke-linejoin:round;stroke-miterlimit:10;}
	.st371{fill:#A8A8A5;}
	.st372{fill:#0E1619;}
	.st373{fill:#DCDBDC;}
	.st374{fill:#DD2234;}
	.st375{fill:#0ED3D8;}
	.st376{fill:#DD722A;}
	.st377{fill:#DD854A;}
	.st378{fill:#A9B6B7;}
	.st379{fill:#0F0F0F;}
	.st380{fill:#DDB372;}
	.st381{fill:#DDCD5F;}
	.st382{fill:#DDDDDB;}
	.st383{fill:#DDDDDD;}
	.st384{fill:#DE8484;}
	.st385{fill:#DFA17C;}
	.st386{fill:#DFE3E5;}
	.st387{fill:#423938;}
	.st388{fill:#423F36;}
	.st389{fill:#424242;}
	.st390{fill:#443224;}
	.st391{fill:#443F3B;}
	.st392{fill:#444443;}
]]>
</style><g><g><g><g><g><g><g><path class="st93" d="M504.079,263.93c0-137.022-111.07-248.082-248.076-248.082c-137.012,0-248.082,111.06-248.082,248.082         C7.921,400.931,118.991,512,256.003,512C393.009,512,504.079,400.931,504.079,263.93z"/></g></g></g></g></g></g><g><g><g><path class="st362" d="M442.304,313.075c-0.398-16.35-11.59-29.458-25.35-29.458c-4.027,0-7.834,1.128-11.217,3.127      c2.561-6.494,4.639-11.851,5.179-13.283c1.571-4.167,3.081-11.393,3.081-11.393l-0.023-0.013      c0.021-0.062,0.042-0.123,0.062-0.186l3.063-9.036c0.188-0.612,0.123-1.226-0.119-1.713c0.049-0.642-0.115-1.235-0.76-1.445      c-0.613-0.2-1.109,0.164-1.451,0.694c-0.514,0.257-0.951,0.754-1.148,1.409l-2.961,8.323l-0.25-0.117l4.264-15.858      c0.203-0.711,0.104-1.423-0.211-1.989c0.028-0.774-0.198-1.474-0.98-1.704c-0.717-0.21-1.279,0.197-1.678,0.798      c-0.645,0.286-1.187,0.877-1.412,1.661l-4.472,14.994l-0.325-0.152l4.615-18.392c0.188-0.681,0.056-1.364-0.289-1.889      c-0.037-0.745-0.318-1.395-1.091-1.566c-0.751-0.167-1.299,0.308-1.653,0.967c-0.475,0.294-0.85,0.776-1.015,1.377      l-5.296,18.088l-0.426-0.107l3.497-15.353c0.156-0.603,0.078-1.207-0.173-1.693c0.015-0.843-0.236-1.619-1.091-1.808      c-0.817-0.183-1.392,0.393-1.739,1.14c-0.426,0.307-0.764,0.774-0.912,1.35l-4.152,15.625l-1.551,3.913      c-0.156-1.685-0.496-3.844-1.226-5.602c-0.161-0.383-1.659-3.382-3.459-2.4c-0.048-0.073-0.095-0.146-0.151-0.216      c0,0-1.15-0.065-0.223,4.45c0,0,0.004-0.005,0.005-0.005c0.042,0.543,0.07,1.113,0.065,1.693      c-0.018,2.83-0.222,5.608,0.018,6.891c0.444,2.385,0.537,6.375,0.537,6.375s0.531,6.904,0.591,8.296l-5.514,14.795      c-3.942-3.021-8.626-4.78-13.655-4.78c-12.245,0-22.461,10.382-24.844,24.192h-74.738c0.045-0.732,0.075-1.469,0.075-2.215      c0-16.766-11.356-30.358-25.366-30.358c-14.012,0-25.369,13.592-25.369,30.358c0,0.746,0.03,1.483,0.075,2.215h-42.222      c0.117-1.188,0.186-2.394,0.186-3.62c0-5.403-1.186-10.473-3.254-14.869c4.047-10.114,8.082-20.495,8.867-22.578      c1.572-4.168,3.081-11.392,3.081-11.392l-0.022-0.013c0.02-0.063,0.043-0.123,0.062-0.186l3.063-9.036      c0.185-0.612,0.122-1.226-0.12-1.714c0.05-0.642-0.116-1.233-0.759-1.443c-0.616-0.202-1.111,0.163-1.453,0.693      c-0.515,0.257-0.95,0.755-1.147,1.409l-2.961,8.322l-0.252-0.117l4.264-15.859c0.205-0.711,0.104-1.425-0.209-1.99      c0.026-0.772-0.199-1.473-0.981-1.702c-0.718-0.21-1.28,0.196-1.676,0.798c-0.646,0.286-1.188,0.877-1.413,1.661l-4.473,14.993      l-0.324-0.152l4.616-18.39c0.187-0.683,0.056-1.365-0.292-1.891c-0.035-0.745-0.316-1.394-1.09-1.566      c-0.751-0.167-1.3,0.309-1.653,0.967c-0.476,0.294-0.85,0.776-1.016,1.377l-5.295,18.088l-0.425-0.108l3.495-15.352      c0.156-0.603,0.079-1.205-0.171-1.692c0.013-0.843-0.233-1.62-1.088-1.81c-0.82-0.182-1.395,0.394-1.741,1.142      c-0.427,0.307-0.763,0.773-0.912,1.349l-4.152,15.625l-1.552,3.911c-0.158-1.684-0.496-3.843-1.227-5.602      c-0.158-0.382-1.658-3.382-3.459-2.399c-0.047-0.073-0.093-0.146-0.15-0.217c0,0-1.151-0.065-0.222,4.451      c0,0,0.003-0.005,0.003-0.006c0.041,0.544,0.07,1.113,0.066,1.694c-0.02,2.83-0.221,5.608,0.018,6.891      c0.445,2.386,0.536,6.375,0.536,6.375s0.533,6.905,0.591,8.295l-1.39,3.728c-2.84-1.316-5.924-2.045-9.151-2.045      c-14.012,0-25.369,13.591-25.369,30.357c0,1.226,0.068,2.433,0.186,3.62H38.147l14.197-44.604      c1.142-1.355,7.05-7.896,7.05-7.896s3.196-3.948,5.501-6.005c1.24-1.106,3.196-4.063,5.378-6.929      c0.45-0.589,0.923-1.14,1.386-1.656c0,0.002-0.002,0.009-0.002,0.009c4.451-3.825,3.24-4.655,3.24-4.655      c-0.112,0.026-0.216,0.065-0.32,0.101c-1.052-2.391-4.894-0.535-5.354-0.274c-2.104,1.204-4.123,3.115-5.594,4.69l0.955-3.32      c0.067-0.105,0.14-0.205,0.195-0.32l9.55-19.776c0.334-0.679,0.396-1.409,0.237-2.058c0.283-1.01,0.209-2.043-0.732-2.545      c-0.982-0.526-1.865,0.017-2.551,0.842c-0.646,0.263-1.223,0.781-1.572,1.493l-9.436,17.874l-0.541-0.235l7.65-23.121      c0.265-0.748,0.221-1.526-0.065-2.177c0.106-0.946-0.123-1.84-1.03-2.208c-0.935-0.38-1.698,0.098-2.275,0.852      c-0.742,0.3-1.376,0.919-1.673,1.769l-8.368,22.329c-0.039-0.018-0.068-0.032-0.109-0.051c-0.4-0.182-0.336-3.582-2.216-3.832      c-1.989-0.265-3.789,0.078-4.295,0.674c-1.032,1.222-1.784,0.517-2.912,0.564c-1.034,0.043-2.101-0.133-3.071,1.27      c-0.564,0.814-0.648,2.657-0.793,2.869c-1.972,2.885-3.565,6.942-4.615,10.375c-1.311,4.28-14.36,46.962-19.615,65.952h-3.549      c6.117,30.429,17.797,58.844,33.941,84.136h418.521c12.717-19.922,22.666-41.779,29.307-65.033L442.304,313.075z"/></g><g><path class="st301" d="M367.042,303.415c-1.33-15.269-12.117-27.173-25.229-27.173c-10.062,0-18.757,7.012-22.858,17.174      l-23.805-27.572c-0.706-2.177-3.835-13.125-3.835-13.125s-2.144-6.201-2.822-10.133c-0.365-2.115-2.27-6.281-3.918-10.632      c-0.338-0.894-0.619-1.788-0.867-2.648c0.002,0.001,0.008,0.008,0.008,0.008c-1.151-7.493-2.888-6.733-2.888-6.733      c-0.048,0.139-0.072,0.275-0.106,0.412c-3.344-0.493-3.934,5.006-3.962,5.686c-0.118,3.125,0.595,6.648,1.314,9.335      l-4.622-5.136l-15.348-21.711c-0.556-0.797-1.338-1.323-2.164-1.554c-0.968-0.957-2.188-1.518-3.348-0.767      c-1.211,0.785-1.154,2.131-0.646,3.426c-0.103,0.891,0.122,1.857,0.704,2.693l14.176,21.662l-0.594,0.41l-18.514-24.85      c-0.596-0.829-1.447-1.355-2.345-1.539c-0.925-0.818-2.043-1.238-3.111-0.548c-1.093,0.707-1.155,1.869-0.784,3.039      c-0.231,1.007-0.045,2.135,0.634,3.079l17.64,25.704l-0.415,0.42l-15.471-20.55c-0.794-1.075-1.96-1.676-3.116-1.75      c-0.958-0.708-2.065-1.01-3.055-0.272c-1.074,0.801-1.024,2.012-0.536,3.189c-0.161,1.049,0.093,2.205,0.813,3.183      l15.647,22.003l-0.319,0.324l-9.326-11.133c-0.682-0.895-1.637-1.412-2.576-1.515c-0.83-0.621-1.8-0.899-2.635-0.236      c-0.873,0.691-0.787,1.697-0.346,2.66c-0.094,0.888,0.16,1.872,0.799,2.71l9.893,12.173c0.064,0.086,0.131,0.17,0.198,0.255      l-0.024,0.03c0,0,6.463,10.272,11.268,15.796c2.676,3.072,17.449,19.694,30.658,34.206l-48.629,19.993l-38.59-19.993      c0.935-3.164,1.447-6.565,1.447-10.112c0-16.766-11.357-30.357-25.367-30.357c-14.011,0-25.368,13.592-25.368,30.357      c0,3.547,0.515,6.948,1.446,10.112l-140.325,18.08v4.774c9.006,34.792,25.382,66.613,47.349,93.72h385.654      c20.533-25.338,36.176-54.796,45.484-86.949L367.042,303.415z"/></g></g><g><path class="st300" d="M256.003,512c114.469,0,210.815-77.541,239.421-182.953h-1.376c-0.33-23.793-16.54-42.962-36.5-42.962     c-0.005,0-0.007,0.001-0.007,0.001c1.992-13.861,3.653-25.954,4.025-28.877c0.953-7.466,0.605-19.933,0.605-19.933l-0.04-0.013     c0.011-0.11,0.021-0.219,0.025-0.331l1.5-16.051c0.064-1.081-0.279-2.064-0.867-2.771c-0.173-1.074-0.676-1.982-1.813-2.075     c-1.091-0.09-1.763,0.702-2.116,1.707c-0.744,0.625-1.267,1.612-1.337,2.766l-1.606,14.839l-0.46-0.095l0.799-27.736     c0.059-1.255-0.384-2.402-1.128-3.208c-0.258-1.272-0.905-2.324-2.273-2.394c-1.26-0.065-2.033,0.817-2.448,1.96     c-0.952,0.724-1.604,1.915-1.669,3.292l-1.48,26.396l-0.592-0.123l0.387-32.037c0.042-1.193-0.443-2.265-1.218-2.992     c-0.352-1.211-1.067-2.169-2.404-2.149c-1.308,0.02-2.023,1.019-2.346,2.245c-0.661,0.669-1.088,1.605-1.124,2.654l-1.623,31.806     l-0.741-0.011l-0.264-26.604c0.021-1.053-0.343-2.013-0.944-2.715c-0.309-1.392-1.021-2.57-2.5-2.547     c-1.42,0.021-2.143,1.197-2.42,2.566c-0.576,0.67-0.945,1.566-0.965,2.565l-0.708,27.31l-1.018,7.035     c-0.919-2.708-2.323-6.124-4.209-8.727c-0.435-0.594-4.429-5.377-7.012-2.2c-0.942,1.159,1.174,4.987,2.204,9.463     c1.078,4.659,1.832,9.305,2.729,11.32c1.664,3.747,3.376,10.27,3.376,10.27s3.579,11.141,4.22,13.404L425.897,308     c-2.992,6.214-4.744,13.389-4.851,21.047h-2.888c-6.938-17.115-21.596-28.917-38.561-28.917s-31.623,11.802-38.561,28.917     h-17.434l11.281-36.355c2.133-2.531,13.169-14.747,13.169-14.747s5.968-7.375,10.271-11.216     c2.314-2.066,5.97-7.589,10.048-12.939c3.912-5.142,8.838-8.828,8.304-10.858c-1.476-5.568-9.366-1.748-10.265-1.236     c-3.926,2.246-7.702,5.816-10.447,8.755l1.763-6.127c0.138-0.213,0.269-0.433,0.384-0.667l17.836-36.934     c0.621-1.268,0.744-2.635,0.452-3.848c0.528-1.886,0.377-3.813-1.378-4.751c-1.842-0.985-3.504,0.031-4.785,1.582     c-1.2,0.492-2.266,1.456-2.914,2.779L349.7,235.868l-1.012-0.438l14.292-43.181c0.489-1.394,0.407-2.84-0.12-4.054     c0.201-1.771-0.23-3.447-1.931-4.138c-1.729-0.703-3.148,0.169-4.224,1.56c-1.4,0.554-2.587,1.737-3.148,3.335l-15.625,41.701     c-0.068-0.031-0.134-0.061-0.205-0.093c-0.751-0.338-0.632-6.688-4.143-7.155c-3.715-0.496-7.075,0.145-8.018,1.258     c-1.931,2.283-3.335,0.965-5.441,1.054c-1.932,0.08-3.922-0.25-5.734,2.369c-1.055,1.522-1.211,4.963-1.483,5.36     c-3.679,5.387-6.655,12.965-8.618,19.377c-1.447,4.729-8.092,27.248-14.742,50.517c-4.651-2.071-9.683-3.208-14.936-3.208     c-15.719,0-29.451,10.137-36.904,25.241l-5.578-18.454c0.275-2.616,2.105-15.576,2.105-15.576s0.649-7.515,1.773-11.962     c0.603-2.391,0.551-7.656,0.854-12.995c0.288-5.13,1.89-9.751,0.634-10.849c-3.449-3.012-6.947,3.019-7.312,3.756     c-1.585,3.227-2.482,7.26-2.983,10.419l-1.566-4.822c-0.004-0.2-0.016-0.403-0.044-0.609l-4.697-32.267     c-0.156-1.111-0.683-2.068-1.415-2.736c-0.49-1.477-1.449-2.679-3.023-2.515c-1.651,0.172-2.292,1.581-2.447,3.172     c-0.57,0.858-0.845,1.967-0.682,3.128l3.257,29.835l-0.022,0.003l-0.791,0.152c0,0-1.418-3.843-5.379-2.849     c-3.963,0.993-3.021,2.8-4.466,2.99c-1.401,0.184-2.983-2.587-5.506-1.333c-2.666,1.328-4.594,3.247-4.72,4.398     c-0.254,2.363-1.768,2.122-3.114,3.117c-1.237,0.914-2.694,1.583-2.724,4.115c-0.016,1.471,1.412,3.807,1.412,4.19     c-0.027,5.187,1.387,11.503,2.949,16.6c1.047,3.412,5.792,18.368,11.13,34.767h-10.139c-6.95-5.825-15.405-9.254-24.536-9.254     c-9.129,0-17.587,3.429-24.537,9.254h-23.145c11.383-28.492,22.604-57.35,24.814-63.211c4.494-11.919,8.812-32.584,8.812-32.584     l-0.059-0.035c0.059-0.177,0.113-0.355,0.17-0.535l8.765-25.843c0.532-1.757,0.36-3.528-0.337-4.923     c0.133-1.829-0.346-3.51-2.179-4.108c-1.749-0.571-3.155,0.45-4.136,1.948c-1.479,0.732-2.732,2.181-3.304,4.063l-8.467,23.804     l-0.716-0.336l12.191-45.356c0.588-2.042,0.311-4.102-0.598-5.721c0.076-2.198-0.58-4.186-2.807-4.838     c-2.049-0.602-3.668,0.548-4.799,2.268c-1.853,0.818-3.393,2.523-4.039,4.767l-12.789,42.882l-0.928-0.434l13.202-52.6     c0.538-1.966,0.171-3.949-0.837-5.455c-0.115-2.111-0.922-3.944-3.113-4.431c-2.158-0.48-3.73,0.882-4.74,2.774     c-1.354,0.841-2.423,2.218-2.894,3.932l-15.146,51.736l-1.214-0.308l9.997-43.91c0.444-1.717,0.228-3.433-0.481-4.822     c0.047-2.419-0.674-4.648-3.127-5.193c-2.336-0.521-3.985,1.12-4.981,3.254c-1.218,0.877-2.179,2.223-2.604,3.867l-11.877,44.692     l-4.431,11.182c-0.455-4.816-1.424-10.993-3.511-16.018c-0.457-1.092-4.737-9.682-9.887-6.885     c-0.136-0.202-0.279-0.401-0.439-0.597c0,0-3.294-0.187-0.634,12.728c0,0,0.005-0.008,0.012-0.018     c0.115,1.555,0.199,3.183,0.187,4.846c-0.053,8.094-0.634,16.041,0.051,19.71c1.272,6.823,1.534,18.234,1.534,18.234     s1.348,17.463,1.648,22.853c-5.475-3.041-11.572-4.75-18.008-4.75c-4.316,0-10.031,3.036-16.324,7.631     c-3.33-0.909-6.824-1.4-10.432-1.4c-14.188,0-26.663,7.5-33.9,18.848C28.438,420.292,131.506,512,256.003,512z"/></g></g></g></svg>