<?xml version="1.0" ?><!DOCTYPE svg  PUBLIC '-//W3C//DTD SVG 1.0//EN'  'http://www.w3.org/TR/2001/REC-SVG-20010904/DTD/svg10.dtd'><svg height="345px" style="shape-rendering:geometricPrecision; text-rendering:geometricPrecision; image-rendering:optimizeQuality; fill-rule:evenodd; clip-rule:evenodd" version="1.0" viewBox="0 0 143018 143019" width="345px" xml:space="preserve" xmlns="http://www.w3.org/2000/svg" xmlns:xlink="http://www.w3.org/1999/xlink"><defs><style type="text/css">
   <![CDATA[
    .fil8 {fill:#333333}
    .fil5 {fill:#64B3F5}
    .fil6 {fill:#CCCCCC}
    .fil7 {fill:#D6D6D6}
    .fil10 {fill:red}
    .fil9 {fill:#FF1644}
    .fil12 {fill:#FF3C00}
    .fil11 {fill:#FF5622}
    .fil2 {fill:#FF8964}
    .fil4 {fill:#FFA98F}
    .fil3 {fill:#FFCBBB}
    .fil1 {fill:#FFCBD1}
    .fil0 {fill:#FFE9ED}
   ]]>
  </style></defs><g id="Layer_x0020_1"><circle class="fil0" cx="71509" cy="71509" r="71509"/><path class="fil1" d="M142841 66502c114,1655 178,3323 178,5007 0,39493 -32016,71509 -71509,71509 -9618,0 -18790,-1904 -27166,-5346l23148 -95974 10919 11602 2847 -7288 -11749 -12674 5974 -13799 34138 34138 10197 -10198 23022 23022z"/><path class="fil2" d="M44762 83579c0,0 -382,7998 -1741,9775 -1359,1777 -8498,3230 -8498,3230 16861,13246 19241,14566 36763,0 0,0 -7980,-1452 -9339,-3230 -1359,-1777 -1741,-9775 -1741,-9775l-7722 -1423 -7722 1423z"/><path class="fil3" d="M51913 51532l-9463 -5114 -4351 3808 -870 8158 -462 4133c0,0 -2068,-2420 -3019,-1576 -952,842 -843,7395 952,9353 1794,1957 2011,1359 2011,1359 0,0 1468,7612 5439,12561 3970,4949 7015,7613 8482,7885 1469,272 1850,-54 1850,-54 0,0 381,326 1849,54 1469,-271 4515,-2936 8484,-7885 3972,-4949 5438,-12561 5438,-12561 0,0 217,597 2012,-1359 1795,-1958 1904,-8511 951,-9353 -951,-844 -3017,1576 -3017,1576l-464 -4133 -870 -8158 -4350 -3808 -9463 5114 -570 118 -570 -118z"/><path class="fil4" d="M53324 92206c257,-2 588,-30 1008,-109 1469,-271 4515,-2936 8484,-7885 3972,-4949 5438,-12561 5438,-12561 0,0 217,597 2012,-1359 1795,-1958 1904,-8511 951,-9353 -951,-844 -3017,1576 -3017,1576l-464 -4133 -870 -8158 -2832 -2480 -10710 9301 0 35159z"/><path class="fil5" d="M39469 94697l-7693 662c0,0 -13453,-1715 -16222,10023 -682,2893 -968,5323 -1947,8101 11521,16587 33474,29427 57402,29535 2744,12 5450,-158 8115,-455l0 -15686 4483 9231 15034 -6593c0,0 -6463,-12396 -9232,-24134 -2770,-11739 -16221,-10023 -16221,-10023l-7693 -662c-576,5522 -6181,9850 -13014,9850 -6833,0 -12437,-4328 -13014,-9850z"/><path class="fil6" d="M39469 94697l-3260 282c959,7008 7880,12440 16274,12440 8394,0 15315,-5432 16274,-12440l-3260 -282c-576,5521 -6181,9849 -13014,9849 -6833,0 -12437,-4328 -13014,-9849z"/><path class="fil7" d="M82042 132883l1567 3226 15033 -6593c0,0 -701,-1349 -1742,-3572l-14858 6940z"/><path class="fil8" d="M64223 52522c0,0 251,4699 1953,6160 1700,1461 1084,7671 1084,7671l1087 -762c0,0 16,-3295 723,-3947 707,-652 1277,-815 1277,-815 170,-4965 2576,-11206 1328,-14385 -7341,-18714 -37538,-10369 -37728,318 -54,3043 656,14450 656,14450 0,0 1468,1413 1630,3099 163,1686 109,2284 109,2284l1468 -218c0,0 -1141,-5112 109,-6363 1250,-1250 -644,-6797 2078,-6148l13328 3179 10899 -4525z"/><polygon class="fil8" points="84386,52571 84641,73249 90130,90737 93066,97757 112085,99288 113362,88183 118339,72610 120893,57037 102256,43125 "/><path class="fil9" d="M93994 92563l7547 0 7546 0c0,0 16715,7211 18000,8049 1285,838 1956,3521 1956,3521l988 8491c-10373,14514 -25966,25040 -44036,28839 256,-2914 -53,-6060 -1574,-9594l-982 10083c-3731,646 -7561,1002 -11464,1054l2064 -38873c0,0 671,-2683 1956,-3521 1285,-838 17999,-8049 17999,-8049z"/><path class="fil2" d="M109152 81838l606 9882c621,10144 -17168,10145 -16547,0l638 -10427c2902,3048 5117,4696 6262,4885 321,53 2985,53 3306,0 1074,-178 3092,-1641 5735,-4340z"/><path class="fil3" d="M85221 58374l-414 3313c0,0 -1847,-1941 -2698,-1265 -851,675 -753,5927 851,7497 1605,1569 1799,1089 1799,1089 0,0 2499,4077 5267,7763 829,1104 1683,2174 2500,3087 1811,2024 5923,7077 9313,7077 3334,0 7383,-5089 9161,-7077 3549,-3966 7208,-11074 7208,-11074 0,0 195,480 1799,-1089 1604,-1569 1702,-6822 851,-7497 -851,-675 -2698,1264 -2698,1264l-2760 -2306 -778 -6538c-1466,-1150 -16596,-8248 -24472,-3107 -1170,764 -4257,7811 -4930,8862z"/><path class="fil4" d="M101616 86927c75,5 150,9 223,9 3334,0 7383,-5089 9161,-7077 3549,-3966 7208,-11074 7208,-11074 0,0 195,480 1799,-1089 1604,-1569 1702,-6822 851,-7497 -851,-675 -2698,1264 -2698,1264l-2760 -2306 -778 -6538c-640,-502 -3887,-2139 -7997,-3395l-5009 10095 0 27608z"/><path class="fil8" d="M91872 51751c2148,2256 7061,6962 11846,8389 6374,1900 11628,2124 11628,2124 0,0 673,5233 -110,11718 -783,6485 -1343,7176 -1343,7176l-3018 6316c0,0 -3579,4471 -2908,11514 671,7043 8385,10174 7490,14758 -895,4583 -3913,7435 -3913,7435 0,0 10844,-3802 10285,-12858 -558,-9055 -6205,-18894 -6205,-18894 0,0 -1397,-6484 2851,-11738 4249,-5254 7043,-27614 1341,-34210 -5701,-6596 -20124,-10172 -25714,-7937 -5590,2235 -6485,5366 -6485,5366l71 215c-1279,659 -2638,1506 -4095,2579 -10174,7490 -3802,28733 446,33987 4249,5254 2852,11738 2852,11738 0,0 -5646,9839 -6204,18894 -559,9056 10284,12858 10284,12858 0,0 -3018,-2851 -3912,-7435 -895,-4584 6819,-7715 7490,-14758 671,-7043 -2908,-11514 -2908,-11514 -3313,-6931 -4576,-11342 -4693,-14986 -201,-6231 2066,-14943 4922,-20737z"/><path class="fil10" d="M86294 83196l2995 -1120c716,-268 1519,99 1787,814l0 1c268,716 -99,1520 -814,1787l-2995 1120c-716,268 -1520,-99 -1787,-814l0 0c-267,-716 99,-1520 815,-1787z"/><path class="fil10" d="M116585 82557l-2995 -1120c-716,-268 -1520,99 -1787,814l0 0c-267,716 99,1519 815,1787l2995 1120c715,268 1520,-99 1787,-814l0 -1c268,-716 -99,-1519 -814,-1787z"/><path class="fil11" d="M69508 22553c0,-2151 -1744,-3896 -3896,-3896 -2152,0 -3896,1744 -3896,3896 0,5191 5909,7513 7793,10785 1883,-3273 7792,-5595 7792,-10785 0,-2151 -1744,-3896 -3896,-3896 -2152,0 -3896,1744 -3896,3896z"/><path class="fil12" d="M69508 33338c1883,-3273 7793,-5595 7793,-10785 0,-2152 -1745,-3896 -3897,-3896 -2152,0 -3896,1744 -3896,3896l0 10785z"/><path class="fil11" d="M80183 32880c0,-1350 -1094,-2443 -2444,-2443 -1349,0 -2443,1094 -2443,2443 0,3255 3706,4711 4887,6764 1181,-2053 4887,-3509 4887,-6764 0,-1350 -1094,-2443 -2443,-2443 -1350,0 -2443,1094 -2443,2443z"/><path class="fil12" d="M80183 39644c1181,-2053 4887,-3509 4887,-6764 0,-1349 -1094,-2443 -2444,-2443 -1349,0 -2443,1094 -2443,2443l0 6764z"/></g></svg>