<?xml version="1.0" ?><!DOCTYPE svg  PUBLIC '-//W3C//DTD SVG 1.1//EN'  'http://www.w3.org/Graphics/SVG/1.1/DTD/svg11.dtd'><svg height="512px" id="Layer_1" style="enable-background:new 0 0 512 512;" version="1.1" viewBox="0 0 512 512" width="512px" xml:space="preserve" xmlns="http://www.w3.org/2000/svg" xmlns:xlink="http://www.w3.org/1999/xlink"><style type="text/css">
<![CDATA[
	.st0{fill:#487206;}
	.st1{fill:#48A1AF;}
	.st2{fill:#ADDBA2;}
	.st3{fill:#7F7D77;}
	.st4{fill:#E05663;}
	.st5{fill:#AFA58C;}
	.st6{fill:#AFAFAE;}
	.st7{fill:#E0AF4C;}
	.st8{fill:#E0D1D1;}
	.st9{fill:#E0DFDC;}
	.st10{fill:#E0E2D9;}
	.st11{fill:#E17A2D;}
	.st12{fill:#E22929;}
	.st13{fill:#E2580C;}
	.st14{fill:#E2DDCF;}
	.st15{fill:#E2E1D9;}
	.st16{fill:#E2E2E0;}
	.st17{fill:#E2F0F2;}
	.st18{fill:#E53046;}
	.st19{fill:#4ABC96;}
	.st20{fill:#E5AA5C;}
	.st21{fill:#E79E2F;}
	.st22{fill:#E8546C;}
	.st23{fill:#E8B1A0;}
	.st24{fill:#E8CB70;}
	.st25{fill:#B24000;}
	.st26{fill:#845E35;}
	.st27{fill-rule:evenodd;clip-rule:evenodd;fill:#7ABC1B;}
	.st28{fill:#EA4949;}
	.st29{fill:#EAE7E1;}
	.st30{fill:#EAEFEF;}
	.st31{fill:#888988;}
	.st32{fill:#888989;}
	.st33{fill:#898479;}
	.st34{fill:#ED6B6B;}
	.st35{fill:#EDC92F;}
	.st36{fill:#EDC988;}
	.st37{fill:#EDD48E;}
	.st38{fill:#EDE362;}
	.st39{fill:#EE660E;}
	.st40{fill:#EF8989;}
	.st41{fill:#EFD565;}
	.st42{fill:#EFEDED;}
	.st43{fill:#EFEEE4;}
	.st44{fill:#BA8436;}
	.st45{fill:#BAB8B6;}
	.st46{fill:#BABAB6;}
	.st47{fill:#8D9696;}
	.st48{fill:#BF4013;}
	.st49{fill:#BFB599;}
	.st50{fill:#BFBFBE;}
	.st51{fill:#F2AD51;}
	.st52{fill:#F2B800;}
	.st53{fill:#F2F2F2;}
	.st54{fill:#F4D44E;}
	.st55{fill:#F4E028;}
	.st56{fill:#F4F4F4;}
	.st57{fill:#292A25;}
	.st58{fill:#F7F5F2;}
	.st59{fill:#29C183;}
	.st60{fill:#5F8E0E;}
	.st61{fill:#909191;}
	.st62{fill:#C16842;}
	.st63{fill:#C18111;}
	.st64{fill:#C1BFBF;}
	.st65{fill:#C6A206;}
	.st66{fill:#C6C5C4;}
	.st67{fill:#993504;}
	.st68{fill:#996511;}
	.st69{fill:#997141;}
	.st70{fill:#999282;}
	.st71{fill:#FCCF4F;}
	.st72{fill:#60737C;}
	.st73{fill:#FFFFFF;}
	.st74{fill:#644B44;}
	.st75{fill:#CACCCC;}
	.st76{fill:#CC8127;}
	.st77{fill:#CCC5B4;}
	.st78{fill:#CCCCCC;}
	.st79{fill:#9E9D86;}
	.st80{fill:#CE8320;}
	.st81{fill:#CE8C78;}
	.st82{fill:#CECECE;}
	.st83{fill:#9FA09F;}
	.st84{fill:#9FA3A3;}
	.st85{fill:#334D5C;}
	.st86{fill:#337180;}
	.st87{fill:#6B615D;}
	.st88{fill:#6E4832;}
	.st89{fill:#D1CD3B;}
	.st90{fill-rule:evenodd;clip-rule:evenodd;fill:#64A80D;}
	.st91{fill:#D3E1E2;}
	.st92{fill:#D4D8D8;}
	.st93{fill:#D61E1E;}
	.st94{fill:#D63434;}
	.st95{fill:#D6D6D0;}
	.st96{fill:#D7DBDB;}
	.st97{fill:#D88D2B;}
	.st98{fill:#D8D8D8;}
	.st99{fill:#3F3F3D;}
	.st100{fill:#705634;}
	.st101{fill:#727069;}
	.st102{fill:#72706B;}
	.st103{fill:#A3712F;}
	.st104{fill:#A54B2B;}
	.st105{fill-rule:evenodd;clip-rule:evenodd;fill:#6B9913;}
	.st106{fill:#DB9A83;}
	.st107{fill:#DBDBDB;}
	.st108{fill:#DDD7D7;}
	.st109{fill:#DDDDDD;}
	.st110{fill:#DFA17C;}
]]>
</style><g><g><g><path class="st85" d="M256.003,7.924c-137.012,0-248.083,111.06-248.083,248.082c0,137.001,111.07,248.07,248.083,248.07     c137.006,0,248.076-111.069,248.076-248.07C504.079,118.983,393.009,7.924,256.003,7.924z"/></g></g><g><g><g><path class="st43" d="M9.846,225c-1.266,10.158-1.925,20.505-1.925,31.006c0,10.497,0.659,20.84,1.925,30.994h401.466v-62H9.846      z"/></g></g><g><g><rect class="st79" height="62" width="4.781" x="114.724" y="225"/></g></g><g><g><polygon class="st83" points="426.948,254 419.281,247 429.281,233 430.796,225 411.312,225 411.312,287 421.614,287       428.114,282.5 426.114,275 430.796,268     "/></g></g><g><g><polygon class="st31" points="430.796,225 411.312,254 411.312,265 421.614,287 428.114,282.5 421.614,258.5 426.948,254       419.281,247 429.281,233     "/></g></g><g><g><g><path class="st21" d="M9.846,225c-1.266,10.158-1.925,20.505-1.925,31.006c0,10.497,0.659,20.84,1.925,30.994h76.172v-62H9.846       z"/></g></g><g><g><g><g><g><g><circle class="st20" cx="75.39" cy="232.083" r="3.495"/></g></g><g><g><circle class="st20" cx="75.39" cy="248.334" r="3.495"/></g></g><g><g><circle class="st20" cx="75.39" cy="264.585" r="3.495"/></g></g><g><g><circle class="st20" cx="75.39" cy="280.835" r="3.495"/></g></g></g></g></g><g><g><g><g><g><circle class="st20" cx="45.286" cy="232.083" r="3.495"/></g></g><g><g><circle class="st20" cx="45.286" cy="248.334" r="3.495"/></g></g><g><g><circle class="st20" cx="45.286" cy="264.585" r="3.495"/></g></g><g><g><circle class="st20" cx="45.286" cy="280.835" r="3.495"/></g></g></g></g></g><g><g><g><g><g><circle class="st20" cx="15.182" cy="232.083" r="3.495"/></g></g><g><g><circle class="st20" cx="15.182" cy="248.334" r="3.495"/></g></g><g><g><circle class="st20" cx="15.182" cy="264.585" r="3.495"/></g></g><g><g><circle class="st20" cx="15.182" cy="280.835" r="3.495"/></g></g></g></g></g><g><g><g><g><g><circle class="st20" cx="60.537" cy="240.014" r="3.495"/></g></g><g><g><circle class="st20" cx="60.537" cy="256.265" r="3.495"/></g></g><g><g><circle class="st20" cx="60.537" cy="272.515" r="3.495"/></g></g></g></g></g><g><g><g><g><g><circle class="st20" cx="30.433" cy="240.014" r="3.495"/></g></g><g><g><circle class="st20" cx="30.433" cy="256.265" r="3.495"/></g></g><g><g><circle class="st20" cx="30.433" cy="272.515" r="3.495"/></g></g></g></g></g></g></g></g><g><g><path class="st72" d="M429.25,166.11c0,0-44.596,0-44.592,0l-47.979-0.161c-9.345,0.604-16.704,7.079-16.704,14.989     c0,8.306,11.106,15.046,16.639,15.046h74.256c3.92,0,7.1-1.935,7.1-4.183c0-1.956-2.792-3.742-5.621-3.979     c-2.833-0.24-11.124,0.24-13.169-0.183c-2.968-0.522-5.127-2.105-5.127-3.978c0-2.051,2.593-3.752,6.001-4.092     c-0.516-0.091,29.197-0.172,29.197-0.172c6.403,0,11.592-2.974,11.592-6.645C440.843,169.086,435.653,166.11,429.25,166.11z"/></g></g><g><g><path class="st72" d="M356.512,79.902h-74.924c-6.204,0-11.241-2.882-11.241-6.44c0-3.557,5.037-6.438,11.241-6.438     c0,0,11.618-0.097,11.618-0.147c5.128-0.597,8.988-3.194,8.988-6.313c0-3.555-5.031-6.438-11.236-6.438l-50.546,0.055     l-53.382,0.058c-8.569,0-15.512,5.76-15.512,12.866c0,6.604,6.003,12.033,13.723,12.773h13.92c9.92,0,17.964,4.608,17.964,10.292     c0,5.686-8.044,10.294-17.964,10.294l-28.339,0.013c-7.99,0.517-14.282,6.052-14.282,12.815c0,7.102,6.943,12.865,15.507,12.865     h156.008c6.069,0,10.993-2.996,10.993-6.476c0-3.029-4.322-5.793-8.703-6.161c-4.386-0.371-17.222,0.372-20.389-0.283     c-4.596-0.808-7.939-3.259-7.939-6.158c0-3.175,4.015-5.809,9.291-6.336c-0.798-0.14,45.203-0.267,45.203-0.267     c9.914,0,17.948-4.604,17.948-10.287C374.46,84.508,366.425,79.902,356.512,79.902z"/></g></g></g></svg>