<?xml version="1.0" ?><!DOCTYPE svg  PUBLIC '-//W3C//DTD SVG 1.1//EN'  'http://www.w3.org/Graphics/SVG/1.1/DTD/svg11.dtd'><svg height="512px" id="Layer_1" style="enable-background:new 0 0 512 512;" version="1.1" viewBox="0 0 512 512" width="512px" xml:space="preserve" xmlns="http://www.w3.org/2000/svg" xmlns:xlink="http://www.w3.org/1999/xlink"><style type="text/css">
<![CDATA[
	.st0{fill:#487206;}
	.st1{fill:#48A1AF;}
	.st2{fill:#ADDBA2;}
	.st3{fill:#7F7D77;}
	.st4{fill:#E05663;}
	.st5{fill:#AFA58C;}
	.st6{fill:#AFAFAE;}
	.st7{fill:#E0AF4C;}
	.st8{fill:#E0D1D1;}
	.st9{fill:#E0DFDC;}
	.st10{fill:#E0E2D9;}
	.st11{fill:#E17A2D;}
	.st12{fill:#E22929;}
	.st13{fill:#E2580C;}
	.st14{fill:#E2DDCF;}
	.st15{fill:#E2E1D9;}
	.st16{fill:#E2E2E0;}
	.st17{fill:#E2F0F2;}
	.st18{fill:#E53046;}
	.st19{fill:#4ABC96;}
	.st20{fill:#E5AA5C;}
	.st21{fill:#E79E2F;}
	.st22{fill:#E8546C;}
	.st23{fill:#E8B1A0;}
	.st24{fill:#E8CB70;}
	.st25{fill:#B24000;}
	.st26{fill:#845E35;}
	.st27{fill-rule:evenodd;clip-rule:evenodd;fill:#7ABC1B;}
	.st28{fill:#EA4949;}
	.st29{fill:#EAE7E1;}
	.st30{fill:#EAEFEF;}
	.st31{fill:#888988;}
	.st32{fill:#888989;}
	.st33{fill:#898479;}
	.st34{fill:#ED6B6B;}
	.st35{fill:#EDC92F;}
	.st36{fill:#EDC988;}
	.st37{fill:#EDD48E;}
	.st38{fill:#EDE362;}
	.st39{fill:#EE660E;}
	.st40{fill:#EF8989;}
	.st41{fill:#EFD565;}
	.st42{fill:#EFEDED;}
	.st43{fill:#EFEEE4;}
	.st44{fill:#BA8436;}
	.st45{fill:#BAB8B6;}
	.st46{fill:#BABAB6;}
	.st47{fill:#8D9696;}
	.st48{fill:#BF4013;}
	.st49{fill:#BFB599;}
	.st50{fill:#BFBFBE;}
	.st51{fill:#F2AD51;}
	.st52{fill:#F2B800;}
	.st53{fill:#F2F2F2;}
	.st54{fill:#F4D44E;}
	.st55{fill:#F4E028;}
	.st56{fill:#F4F4F4;}
	.st57{fill:#292A25;}
	.st58{fill:#F7F5F2;}
	.st59{fill:#29C183;}
	.st60{fill:#5F8E0E;}
	.st61{fill:#909191;}
	.st62{fill:#C16842;}
	.st63{fill:#C18111;}
	.st64{fill:#C1BFBF;}
	.st65{fill:#C6A206;}
	.st66{fill:#C6C5C4;}
	.st67{fill:#993504;}
	.st68{fill:#996511;}
	.st69{fill:#997141;}
	.st70{fill:#999282;}
	.st71{fill:#FCCF4F;}
	.st72{fill:#60737C;}
	.st73{fill:#FFFFFF;}
	.st74{fill:#644B44;}
	.st75{fill:#CACCCC;}
	.st76{fill:#CC8127;}
	.st77{fill:#CCC5B4;}
	.st78{fill:#CCCCCC;}
	.st79{fill:#9E9D86;}
	.st80{fill:#CE8320;}
	.st81{fill:#CE8C78;}
	.st82{fill:#CECECE;}
	.st83{fill:#9FA09F;}
	.st84{fill:#9FA3A3;}
	.st85{fill:#334D5C;}
	.st86{fill:#337180;}
	.st87{fill:#6B615D;}
	.st88{fill:#6E4832;}
	.st89{fill:#D1CD3B;}
	.st90{fill-rule:evenodd;clip-rule:evenodd;fill:#64A80D;}
	.st91{fill:#D3E1E2;}
	.st92{fill:#D4D8D8;}
	.st93{fill:#D61E1E;}
	.st94{fill:#D63434;}
	.st95{fill:#D6D6D0;}
	.st96{fill:#D7DBDB;}
	.st97{fill:#D88D2B;}
	.st98{fill:#D8D8D8;}
	.st99{fill:#3F3F3D;}
	.st100{fill:#705634;}
	.st101{fill:#727069;}
	.st102{fill:#72706B;}
	.st103{fill:#A3712F;}
	.st104{fill:#A54B2B;}
	.st105{fill-rule:evenodd;clip-rule:evenodd;fill:#6B9913;}
	.st106{fill:#DB9A83;}
	.st107{fill:#DBDBDB;}
	.st108{fill:#DDD7D7;}
	.st109{fill:#DDDDDD;}
	.st110{fill:#DFA17C;}
]]>
</style><g><g><g><path class="st85" d="M256.003,7.924c-137.012,0-248.082,111.06-248.082,248.082c0,137.001,111.07,248.07,248.082,248.07     c137.006,0,248.076-111.069,248.076-248.07C504.079,118.983,393.009,7.924,256.003,7.924z"/></g></g><g><g><g><rect class="st73" height="122.623" width="270.938" x="120.531" y="89.686"/></g></g><g><g><rect class="st53" height="6.958" width="270.938" x="120.531" y="89.686"/></g></g><g><g><rect class="st108" height="122.623" width="5.604" x="120.531" y="89.686"/></g></g><g><g><path class="st98" d="M126.379,96.918v370.628c37.724,23.164,82.11,36.53,129.624,36.53c47.511,0,91.896-13.366,129.619-36.529      V96.918H126.379z"/></g></g><g><g><polygon class="st82" points="126.379,96.918 354.456,124 385.622,173 385.622,96.918     "/></g></g><g><g><path class="st64" d="M145.456,196l-19.077-99.082v370.628c37.724,23.164,82.11,36.53,129.624,36.53      c47.511,0,91.896-13.366,129.619-36.529V222L145.456,196z"/></g></g><g><g><g><g><rect class="st43" height="28.14" transform="matrix(0.0704 -0.9975 0.9975 0.0704 -186.4408 445.6139)" width="184.191" x="53.762" y="308.765"/></g></g><g><g><rect class="st79" height="28.14" transform="matrix(0.0702 -0.9975 0.9975 0.0702 -142.4782 410.144)" width="2.17" x="147.688" y="267.431"/></g></g><g><g><g><rect class="st21" height="28.141" transform="matrix(0.0704 -0.9975 0.9975 0.0704 -93.6708 370.6306)" width="63.861" x="120.083" y="221.501"/></g></g><g><g><g><g><g><g><circle class="st20" cx="160.934" cy="263.374" r="1.586"/></g></g><g><g><circle class="st20" cx="153.577" cy="262.855" r="1.586"/></g></g><g><g><circle class="st20" cx="146.22" cy="262.336" r="1.586"/></g></g><g><g><path class="st20" d="M138.973,260.235c-0.873-0.062-1.63,0.596-1.691,1.47c-0.062,0.873,0.595,1.632,1.469,1.694             c0.876,0.062,1.632-0.598,1.694-1.471C140.505,261.055,139.849,260.297,138.973,260.235z"/></g></g></g></g></g><g><g><g><g><g><circle class="st20" cx="161.896" cy="249.744" r="1.587"/></g></g><g><g><circle class="st20" cx="154.539" cy="249.226" r="1.587"/></g></g><g><g><circle class="st20" cx="147.182" cy="248.707" r="1.586"/></g></g><g><g><circle class="st20" cx="139.823" cy="248.187" r="1.587"/></g></g></g></g></g><g><g><g><g><g><circle class="st20" cx="162.857" cy="236.114" r="1.586"/></g></g><g><g><circle class="st20" cx="155.5" cy="235.595" r="1.586"/></g></g><g><g><circle class="st20" cx="148.144" cy="235.076" r="1.586"/></g></g><g><g><path class="st20" d="M140.896,232.975c-0.874-0.062-1.631,0.598-1.692,1.47c-0.062,0.875,0.596,1.633,1.469,1.694             c0.876,0.062,1.633-0.597,1.694-1.471C142.429,233.796,141.771,233.037,140.896,232.975z"/></g></g></g></g></g><g><g><g><g><g><circle class="st20" cx="157.818" cy="256.396" r="1.587"/></g></g><g><g><circle class="st20" cx="150.46" cy="255.877" r="1.587"/></g></g><g><g><circle class="st20" cx="143.104" cy="255.358" r="1.587"/></g></g></g></g></g><g><g><g><g><g><circle class="st20" cx="158.78" cy="242.767" r="1.586"/></g></g><g><g><circle class="st20" cx="151.422" cy="242.248" r="1.586"/></g></g><g><g><circle class="st20" cx="144.066" cy="241.729" r="1.586"/></g></g></g></g></g></g><g><g><g><g><g><g><circle class="st20" cx="163.819" cy="222.484" r="1.586"/></g></g><g><g><circle class="st20" cx="156.462" cy="221.965" r="1.586"/></g></g><g><g><circle class="st20" cx="149.105" cy="221.446" r="1.586"/></g></g><g><g><path class="st20" d="M141.858,219.345c-0.873-0.062-1.631,0.598-1.693,1.471c-0.061,0.874,0.596,1.632,1.469,1.693             c0.876,0.062,1.633-0.597,1.694-1.47S142.733,219.407,141.858,219.345z"/></g></g></g></g></g><g><g><g><g><g><circle class="st20" cx="164.78" cy="208.855" r="1.586"/></g></g><g><g><circle class="st20" cx="157.423" cy="208.336" r="1.587"/></g></g><g><g><circle class="st20" cx="150.066" cy="207.817" r="1.586"/></g></g><g><g><path class="st20" d="M142.819,205.715c-0.873-0.062-1.631,0.598-1.692,1.471c-0.062,0.875,0.596,1.634,1.469,1.695             c0.876,0.062,1.632-0.598,1.694-1.473C144.352,206.536,143.694,205.777,142.819,205.715z"/></g></g></g></g></g><g><g><g><g><g><circle class="st20" cx="159.741" cy="229.136" r="1.587"/></g></g><g><g><circle class="st20" cx="152.384" cy="228.617" r="1.587"/></g></g><g><g><circle class="st20" cx="145.027" cy="228.098" r="1.586"/></g></g></g></g></g><g><g><g><g><g><circle class="st20" cx="160.703" cy="215.506" r="1.586"/></g></g><g><g><circle class="st20" cx="153.346" cy="214.987" r="1.586"/></g></g><g><g><circle class="st20" cx="145.989" cy="214.468" r="1.586"/></g></g></g></g></g></g></g></g><g><g><g><rect class="st43" height="28.142" transform="matrix(0.1007 -0.9949 0.9949 0.1007 -144.1375 448.3593)" width="184.191" x="83.851" y="289.84"/></g></g><g><g><rect class="st79" height="28.141" transform="matrix(0.1008 -0.9949 0.9949 0.1008 -99.3802 415.4143)" width="2.171" x="179.033" y="248.614"/></g></g><g><g><g><rect class="st21" height="28.14" transform="matrix(0.1007 -0.9949 0.9949 0.1007 -49.6199 378.8549)" width="63.861" x="152.824" y="202.805"/></g></g><g><g><g><g><g><g><path class="st20" d="M192.984,243.358c-0.872-0.088-1.649,0.546-1.737,1.418c-0.088,0.871,0.546,1.65,1.417,1.738             c0.874,0.088,1.651-0.547,1.739-1.418C194.492,244.225,193.857,243.446,192.984,243.358z"/></g></g><g><g><circle class="st20" cx="185.487" cy="244.194" r="1.586"/></g></g><g><g><circle class="st20" cx="178.148" cy="243.451" r="1.586"/></g></g><g><g><circle class="st20" cx="170.81" cy="242.708" r="1.586"/></g></g></g></g></g><g><g><g><g><g><circle class="st20" cx="194.2" cy="231.342" r="1.587"/></g></g><g><g><circle class="st20" cx="186.863" cy="230.599" r="1.587"/></g></g><g><g><circle class="st20" cx="179.524" cy="229.857" r="1.587"/></g></g><g><g><circle class="st20" cx="172.186" cy="229.114" r="1.587"/></g></g></g></g></g><g><g><g><g><g><circle class="st20" cx="195.576" cy="217.748" r="1.586"/></g></g><g><g><circle class="st20" cx="188.239" cy="217.005" r="1.586"/></g></g><g><g><circle class="st20" cx="180.9" cy="216.262" r="1.586"/></g></g><g><g><path class="st20" d="M173.722,213.941c-0.871-0.088-1.649,0.548-1.737,1.418c-0.088,0.872,0.546,1.649,1.417,1.738             c0.874,0.088,1.65-0.546,1.739-1.418C175.229,214.809,174.595,214.03,173.722,213.941z"/></g></g></g></g></g><g><g><g><g><g><circle class="st20" cx="189.923" cy="237.867" r="1.587"/></g></g><g><g><circle class="st20" cx="182.584" cy="237.124" r="1.587"/></g></g><g><g><circle class="st20" cx="175.247" cy="236.381" r="1.587"/></g></g></g></g></g><g><g><g><g><g><circle class="st20" cx="191.299" cy="224.273" r="1.586"/></g></g><g><g><circle class="st20" cx="183.96" cy="223.53" r="1.586"/></g></g><g><g><circle class="st20" cx="176.624" cy="222.787" r="1.586"/></g></g></g></g></g></g><g><g><g><g><g><g><circle class="st20" cx="196.952" cy="204.153" r="1.586"/></g></g><g><g><circle class="st20" cx="189.615" cy="203.41" r="1.586"/></g></g><g><g><circle class="st20" cx="182.276" cy="202.668" r="1.586"/></g></g><g><g><circle class="st20" cx="174.938" cy="201.925" r="1.586"/></g></g></g></g></g><g><g><g><g><g><circle class="st20" cx="198.328" cy="190.559" r="1.586"/></g></g><g><g><circle class="st20" cx="190.991" cy="189.817" r="1.587"/></g></g><g><g><circle class="st20" cx="183.652" cy="189.074" r="1.586"/></g></g><g><g><circle class="st20" cx="176.313" cy="188.331" r="1.587"/></g></g></g></g></g><g><g><g><g><g><circle class="st20" cx="192.675" cy="210.678" r="1.587"/></g></g><g><g><circle class="st20" cx="185.337" cy="209.935" r="1.587"/></g></g><g><g><circle class="st20" cx="177.999" cy="209.192" r="1.587"/></g></g></g></g></g><g><g><g><g><g><circle class="st20" cx="194.051" cy="197.083" r="1.586"/></g></g><g><g><circle class="st20" cx="186.713" cy="196.341" r="1.586"/></g></g><g><g><circle class="st20" cx="179.375" cy="195.598" r="1.586"/></g></g></g></g></g></g></g></g><g><g><g><rect class="st43" height="184.191" transform="matrix(0.9945 -0.1044 0.1044 0.9945 -32.2281 25.6878)" width="28.142" x="215.28" y="228.71"/></g></g><g><g><rect class="st79" height="2.17" transform="matrix(0.9945 -0.1044 0.1044 0.9945 -27.9571 25.0176)" width="28.14" x="210.955" y="278.51"/></g></g><g><g><g><rect class="st21" height="63.862" transform="matrix(0.9945 -0.1044 0.1044 0.9945 -23.2023 24.2648)" width="28.141" x="206.149" y="201.871"/></g></g><g><g><g><g><g><g><circle class="st20" cx="233.845" cy="259.627" r="1.587"/></g></g><g><g><circle class="st20" cx="226.508" cy="260.397" r="1.587"/></g></g><g><g><circle class="st20" cx="219.173" cy="261.167" r="1.585"/></g></g><g><g><circle class="st20" cx="211.838" cy="261.937" r="1.586"/></g></g></g></g></g><g><g><g><g><g><circle class="st20" cx="232.419" cy="246.038" r="1.587"/></g></g><g><g><circle class="st20" cx="225.083" cy="246.809" r="1.587"/></g></g><g><g><circle class="st20" cx="217.747" cy="247.578" r="1.586"/></g></g><g><g><circle class="st20" cx="210.412" cy="248.348" r="1.586"/></g></g></g></g></g><g><g><g><g><g><circle class="st20" cx="230.993" cy="232.449" r="1.586"/></g></g><g><g><circle class="st20" cx="223.656" cy="233.219" r="1.587"/></g></g><g><g><circle class="st20" cx="216.32" cy="233.989" r="1.586"/></g></g><g><g><circle class="st20" cx="208.986" cy="234.758" r="1.586"/></g></g></g></g></g><g><g><g><g><g><circle class="st20" cx="229.561" cy="253.297" r="1.586"/></g></g><g><g><circle class="st20" cx="222.226" cy="254.067" r="1.586"/></g></g><g><g><circle class="st20" cx="214.889" cy="254.837" r="1.586"/></g></g></g></g></g><g><g><g><g><g><circle class="st20" cx="228.135" cy="239.71" r="1.586"/></g></g><g><g><circle class="st20" cx="220.799" cy="240.48" r="1.586"/></g></g><g><g><circle class="st20" cx="213.463" cy="241.25" r="1.586"/></g></g></g></g></g></g><g><g><g><g><g><g><circle class="st20" cx="229.566" cy="218.86" r="1.587"/></g></g><g><g><circle class="st20" cx="222.23" cy="219.63" r="1.587"/></g></g><g><g><circle class="st20" cx="214.895" cy="220.4" r="1.586"/></g></g><g><g><circle class="st20" cx="207.559" cy="221.17" r="1.586"/></g></g></g></g></g><g><g><g><g><g><circle class="st20" cx="228.14" cy="205.27" r="1.586"/></g></g><g><g><circle class="st20" cx="220.804" cy="206.04" r="1.587"/></g></g><g><g><circle class="st20" cx="213.468" cy="206.81" r="1.585"/></g></g><g><g><circle class="st20" cx="206.133" cy="207.58" r="1.586"/></g></g></g></g></g><g><g><g><g><g><circle class="st20" cx="226.709" cy="226.12" r="1.586"/></g></g><g><g><circle class="st20" cx="219.373" cy="226.89" r="1.586"/></g></g><g><g><circle class="st20" cx="212.037" cy="227.66" r="1.586"/></g></g></g></g></g><g><g><g><g><g><circle class="st20" cx="225.283" cy="212.531" r="1.586"/></g></g><g><g><circle class="st20" cx="217.947" cy="213.301" r="1.586"/></g></g><g><g><circle class="st20" cx="210.611" cy="214.071" r="1.586"/></g></g></g></g></g></g></g></g><g><g><g><rect class="st43" height="28.142" transform="matrix(0.0708 -0.9975 0.9975 0.0708 -66.0773 543.4271)" width="184.191" x="166.555" y="293.11"/></g></g><g><g><rect class="st79" height="28.142" transform="matrix(0.0711 -0.9975 0.9975 0.0711 -22.1898 507.8693)" width="2.17" x="260.5" y="251.778"/></g></g><g><g><g><rect class="st21" height="28.141" transform="matrix(0.0708 -0.9975 0.9975 0.0708 26.7194 468.5239)" width="63.861" x="232.916" y="205.849"/></g></g><g><g><g><g><g><g><circle class="st20" cx="273.754" cy="247.727" r="1.586"/></g></g><g><g><circle class="st20" cx="266.397" cy="247.205" r="1.586"/></g></g><g><g><circle class="st20" cx="259.04" cy="246.682" r="1.586"/></g></g><g><g><circle class="st20" cx="251.682" cy="246.16" r="1.586"/></g></g></g></g></g><g><g><g><g><g><circle class="st20" cx="274.721" cy="234.098" r="1.586"/></g></g><g><g><circle class="st20" cx="267.365" cy="233.575" r="1.587"/></g></g><g><g><circle class="st20" cx="260.008" cy="233.053" r="1.586"/></g></g><g><g><circle class="st20" cx="252.65" cy="232.531" r="1.586"/></g></g></g></g></g><g><g><g><g><g><circle class="st20" cx="275.688" cy="220.469" r="1.586"/></g></g><g><g><circle class="st20" cx="268.333" cy="219.946" r="1.586"/></g></g><g><g><circle class="st20" cx="260.976" cy="219.423" r="1.586"/></g></g><g><g><circle class="st20" cx="253.618" cy="218.901" r="1.586"/></g></g></g></g></g><g><g><g><g><g><circle class="st20" cx="270.642" cy="240.748" r="1.586"/></g></g><g><g><circle class="st20" cx="263.284" cy="240.226" r="1.586"/></g></g><g><g><circle class="st20" cx="255.928" cy="239.703" r="1.586"/></g></g></g></g></g><g><g><g><g><g><circle class="st20" cx="271.609" cy="227.118" r="1.587"/></g></g><g><g><circle class="st20" cx="264.252" cy="226.596" r="1.586"/></g></g><g><g><circle class="st20" cx="256.895" cy="226.074" r="1.587"/></g></g></g></g></g></g><g><g><g><g><g><g><circle class="st20" cx="276.656" cy="206.839" r="1.586"/></g></g><g><g><circle class="st20" cx="269.301" cy="206.316" r="1.586"/></g></g><g><g><circle class="st20" cx="261.943" cy="205.794" r="1.586"/></g></g><g><g><circle class="st20" cx="254.586" cy="205.271" r="1.586"/></g></g></g></g></g><g><g><g><g><g><circle class="st20" cx="277.624" cy="193.21" r="1.586"/></g></g><g><g><circle class="st20" cx="270.268" cy="192.688" r="1.587"/></g></g><g><g><circle class="st20" cx="262.911" cy="192.165" r="1.587"/></g></g><g><g><circle class="st20" cx="255.554" cy="191.642" r="1.586"/></g></g></g></g></g><g><g><g><g><g><circle class="st20" cx="272.577" cy="213.489" r="1.586"/></g></g><g><g><circle class="st20" cx="265.219" cy="212.967" r="1.586"/></g></g><g><g><circle class="st20" cx="257.862" cy="212.444" r="1.586"/></g></g></g></g></g><g><g><g><g><g><circle class="st20" cx="273.545" cy="199.859" r="1.586"/></g></g><g><g><circle class="st20" cx="266.188" cy="199.337" r="1.586"/></g></g><g><g><circle class="st20" cx="258.83" cy="198.814" r="1.586"/></g></g></g></g></g></g></g></g><g><g><g><rect class="st43" height="184.191" transform="matrix(0.998 -0.0633 0.0633 0.998 -15.7356 19.0489)" width="28.14" x="278.615" y="165.705"/></g></g><g><g><rect class="st79" height="2.169" transform="matrix(0.998 -0.0633 0.0633 0.998 -13.1191 18.7946)" width="28.14" x="275.992" y="215.363"/></g></g><g><g><g><rect class="st21" height="63.862" transform="matrix(0.998 -0.0633 0.0633 0.998 -10.211 18.5077)" width="28.14" x="273.078" y="138.564"/></g></g><g><g><g><g><g><g><circle class="st20" cx="299.697" cy="196.86" r="1.586"/></g></g><g><g><circle class="st20" cx="292.336" cy="197.327" r="1.586"/></g></g><g><g><circle class="st20" cx="284.976" cy="197.794" r="1.586"/></g></g><g><g><circle class="st20" cx="277.614" cy="198.261" r="1.586"/></g></g></g></g></g><g><g><g><g><g><circle class="st20" cx="298.832" cy="183.224" r="1.587"/></g></g><g><g><circle class="st20" cx="291.471" cy="183.691" r="1.587"/></g></g><g><g><circle class="st20" cx="284.111" cy="184.158" r="1.587"/></g></g><g><g><circle class="st20" cx="276.749" cy="184.625" r="1.587"/></g></g></g></g></g><g><g><g><g><g><circle class="st20" cx="297.967" cy="169.587" r="1.586"/></g></g><g><g><circle class="st20" cx="290.606" cy="170.054" r="1.586"/></g></g><g><g><circle class="st20" cx="283.246" cy="170.521" r="1.586"/></g></g><g><g><circle class="st20" cx="275.884" cy="170.989" r="1.586"/></g></g></g></g></g><g><g><g><g><g><circle class="st20" cx="295.678" cy="190.361" r="1.586"/></g></g><g><g><circle class="st20" cx="288.317" cy="190.827" r="1.586"/></g></g><g><g><circle class="st20" cx="280.957" cy="191.294" r="1.586"/></g></g></g></g></g><g><g><g><g><g><circle class="st20" cx="294.813" cy="176.724" r="1.587"/></g></g><g><g><circle class="st20" cx="287.452" cy="177.191" r="1.587"/></g></g><g><g><circle class="st20" cx="280.092" cy="177.658" r="1.587"/></g></g></g></g></g></g><g><g><g><g><g><g><circle class="st20" cx="297.102" cy="155.951" r="1.586"/></g></g><g><g><circle class="st20" cx="289.742" cy="156.418" r="1.586"/></g></g><g><g><circle class="st20" cx="282.381" cy="156.885" r="1.586"/></g></g><g><g><circle class="st20" cx="275.019" cy="157.352" r="1.585"/></g></g></g></g></g><g><g><g><g><g><circle class="st20" cx="296.237" cy="142.315" r="1.587"/></g></g><g><g><circle class="st20" cx="288.876" cy="142.782" r="1.586"/></g></g><g><g><circle class="st20" cx="281.516" cy="143.249" r="1.587"/></g></g><g><g><circle class="st20" cx="274.154" cy="143.716" r="1.587"/></g></g></g></g></g><g><g><g><g><g><circle class="st20" cx="293.949" cy="163.087" r="1.586"/></g></g><g><g><circle class="st20" cx="286.587" cy="163.554" r="1.586"/></g></g><g><g><circle class="st20" cx="279.227" cy="164.021" r="1.586"/></g></g></g></g></g><g><g><g><g><g><circle class="st20" cx="293.083" cy="149.451" r="1.586"/></g></g><g><g><circle class="st20" cx="285.722" cy="149.918" r="1.586"/></g></g><g><g><circle class="st20" cx="278.362" cy="150.385" r="1.585"/></g></g></g></g></g></g></g></g><g><g><g><rect class="st43" height="184.191" width="28.142" x="309.071" y="201.577"/></g></g><g><g><rect class="st79" height="2.169" width="28.142" x="309.071" y="251.152"/></g></g><g><g><g><rect class="st21" height="63.862" width="28.142" x="309.071" y="174.261"/></g></g><g><g><g><g><g><g><circle class="st20" cx="333.996" cy="233.3" r="1.586"/></g></g><g><g><circle class="st20" cx="326.622" cy="233.3" r="1.586"/></g></g><g><g><circle class="st20" cx="319.245" cy="233.3" r="1.586"/></g></g><g><g><circle class="st20" cx="311.869" cy="233.3" r="1.586"/></g></g></g></g></g><g><g><g><g><g><circle class="st20" cx="333.996" cy="219.635" r="1.586"/></g></g><g><g><circle class="st20" cx="326.622" cy="219.635" r="1.586"/></g></g><g><g><circle class="st20" cx="319.245" cy="219.635" r="1.586"/></g></g><g><g><circle class="st20" cx="311.869" cy="219.635" r="1.586"/></g></g></g></g></g><g><g><g><g><g><circle class="st20" cx="333.996" cy="205.972" r="1.586"/></g></g><g><g><circle class="st20" cx="326.622" cy="205.972" r="1.586"/></g></g><g><g><circle class="st20" cx="319.245" cy="205.972" r="1.586"/></g></g><g><g><circle class="st20" cx="311.869" cy="205.972" r="1.586"/></g></g></g></g></g><g><g><g><g><g><circle class="st20" cx="330.397" cy="226.558" r="1.586"/></g></g><g><g><circle class="st20" cx="323.022" cy="226.558" r="1.586"/></g></g><g><g><circle class="st20" cx="315.646" cy="226.558" r="1.586"/></g></g></g></g></g><g><g><g><g><g><circle class="st20" cx="330.397" cy="212.894" r="1.586"/></g></g><g><g><circle class="st20" cx="323.022" cy="212.894" r="1.586"/></g></g><g><g><circle class="st20" cx="315.646" cy="212.894" r="1.586"/></g></g></g></g></g></g><g><g><g><g><g><g><circle class="st20" cx="333.996" cy="192.308" r="1.586"/></g></g><g><g><circle class="st20" cx="326.622" cy="192.308" r="1.586"/></g></g><g><g><circle class="st20" cx="319.245" cy="192.308" r="1.586"/></g></g><g><g><circle class="st20" cx="311.869" cy="192.308" r="1.586"/></g></g></g></g></g><g><g><g><g><g><circle class="st20" cx="333.996" cy="178.644" r="1.586"/></g></g><g><g><circle class="st20" cx="326.622" cy="178.644" r="1.586"/></g></g><g><g><circle class="st20" cx="319.245" cy="178.644" r="1.586"/></g></g><g><g><circle class="st20" cx="311.869" cy="178.644" r="1.586"/></g></g></g></g></g><g><g><g><g><g><circle class="st20" cx="330.397" cy="199.23" r="1.587"/></g></g><g><g><circle class="st20" cx="323.022" cy="199.23" r="1.587"/></g></g><g><g><circle class="st20" cx="315.646" cy="199.23" r="1.587"/></g></g></g></g></g><g><g><g><g><g><circle class="st20" cx="330.397" cy="185.567" r="1.586"/></g></g><g><g><circle class="st20" cx="323.022" cy="185.567" r="1.586"/></g></g><g><g><circle class="st20" cx="315.646" cy="185.567" r="1.586"/></g></g></g></g></g></g></g></g><g><g><g><rect class="st43" height="28.142" transform="matrix(0.1214 -0.9926 0.9926 0.1214 -13.4078 626.4105)" width="184.19" x="255.038" y="306.708"/></g></g><g><g><rect class="st79" height="28.142" transform="matrix(0.1215 -0.9926 0.9926 0.1215 31.7933 595.2197)" width="2.17" x="351.077" y="265.578"/></g></g><g><g><g><rect class="st21" height="28.142" transform="matrix(0.1214 -0.9926 0.9926 0.1214 82.1148 560.6561)" width="63.862" x="325.82" y="219.874"/></g></g><g><g><g><g><g><g><circle class="st20" cx="365.234" cy="262.168" r="1.586"/></g></g><g><g><circle class="st20" cx="357.914" cy="261.273" r="1.586"/></g></g><g><g><circle class="st20" cx="350.593" cy="260.378" r="1.586"/></g></g><g><g><circle class="st20" cx="343.271" cy="259.483" r="1.586"/></g></g></g></g></g><g><g><g><g><g><circle class="st20" cx="366.893" cy="248.605" r="1.587"/></g></g><g><g><circle class="st20" cx="359.572" cy="247.71" r="1.587"/></g></g><g><g><circle class="st20" cx="352.252" cy="246.815" r="1.587"/></g></g><g><g><circle class="st20" cx="344.93" cy="245.92" r="1.587"/></g></g></g></g></g><g><g><g><g><g><circle class="st20" cx="368.551" cy="235.042" r="1.586"/></g></g><g><g><circle class="st20" cx="361.231" cy="234.147" r="1.586"/></g></g><g><g><circle class="st20" cx="353.91" cy="233.252" r="1.586"/></g></g><g><g><circle class="st20" cx="346.588" cy="232.357" r="1.586"/></g></g></g></g></g><g><g><g><g><g><circle class="st20" cx="362.48" cy="255.04" r="1.586"/></g></g><g><g><circle class="st20" cx="355.159" cy="254.145" r="1.587"/></g></g><g><g><circle class="st20" cx="347.839" cy="253.25" r="1.586"/></g></g></g></g></g><g><g><g><g><g><circle class="st20" cx="364.139" cy="241.477" r="1.586"/></g></g><g><g><circle class="st20" cx="356.817" cy="240.582" r="1.586"/></g></g><g><g><circle class="st20" cx="349.498" cy="239.687" r="1.586"/></g></g></g></g></g></g><g><g><g><g><g><g><circle class="st20" cx="370.209" cy="221.479" r="1.586"/></g></g><g><g><circle class="st20" cx="362.889" cy="220.584" r="1.586"/></g></g><g><g><circle class="st20" cx="355.568" cy="219.689" r="1.586"/></g></g><g><g><circle class="st20" cx="348.246" cy="218.794" r="1.586"/></g></g></g></g></g><g><g><g><g><g><circle class="st20" cx="371.868" cy="207.918" r="1.587"/></g></g><g><g><circle class="st20" cx="364.547" cy="207.022" r="1.587"/></g></g><g><g><circle class="st20" cx="357.227" cy="206.127" r="1.587"/></g></g><g><g><circle class="st20" cx="349.905" cy="205.232" r="1.587"/></g></g></g></g></g><g><g><g><g><g><circle class="st20" cx="365.797" cy="227.914" r="1.587"/></g></g><g><g><circle class="st20" cx="358.476" cy="227.019" r="1.587"/></g></g><g><g><circle class="st20" cx="351.156" cy="226.124" r="1.586"/></g></g></g></g></g><g><g><g><g><g><path class="st20" d="M367.647,212.777c-0.869-0.106-1.658,0.513-1.765,1.382c-0.107,0.869,0.512,1.66,1.38,1.767             c0.872,0.106,1.661-0.513,1.768-1.382C369.136,213.675,368.52,212.883,367.647,212.777z"/></g></g><g><g><circle class="st20" cx="360.135" cy="213.456" r="1.586"/></g></g><g><g><circle class="st20" cx="352.814" cy="212.561" r="1.586"/></g></g></g></g></g></g></g></g></g><g><g><path class="st8" d="M356.788,216.388c-6.061,10.478-5.11,61.822-16.38,61.822H170.749c-11.521,0-9.578-47.671-16.636-62.196      c-7.059-14.523-27.497-15.097-27.497-15.097v266.777c37.672,23.073,81.974,36.381,129.387,36.381      c47.41,0,91.71-13.308,129.381-36.38V200.917C385.384,200.917,362.848,205.911,356.788,216.388z"/></g></g><g><g><path class="st42" d="M361.528,215.073c-6.345,10.78-5.351,67.572-17.15,67.572H166.739c-12.063,0-10.028-53.012-17.419-67.957      c-7.39-14.943-28.789-15.533-28.789-15.533v264.681c38.95,25.439,85.479,40.24,135.472,40.24      c49.99,0,96.518-14.8,135.466-40.239V199.155C391.469,199.155,367.873,204.293,361.528,215.073z"/></g></g><g><g><path class="st28" d="M120.531,301.487v162.349c9.403,6.142,19.248,11.663,29.479,16.505L256.417,406l105.7,74.283      c10.186-4.828,19.986-10.329,29.352-16.446v-162.35H120.531z"/></g></g><g><g><path class="st12" d="M120.531,301.487v162.349c9.403,6.142,19.248,11.663,29.479,16.505L256.417,406l135.052-104.513H120.531z"/></g></g><g><g><g><polygon class="st52" points="290.535,450.47 264.153,450.47 256,425.378 247.847,450.47 221.465,450.47 242.809,465.977        234.656,491.068 256,475.561 277.344,491.068 269.191,465.977      "/></g></g><g><g><polygon class="st71" points="247.847,450.47 221.465,450.47 242.809,465.977 234.656,491.068 256,475.561 256,425.378             "/></g></g></g></g></g></svg>