<?xml version="1.0" ?><!DOCTYPE svg  PUBLIC '-//W3C//DTD SVG 1.1//EN'  'http://www.w3.org/Graphics/SVG/1.1/DTD/svg11.dtd'><svg height="512px" id="Layer_1" style="enable-background:new 0 0 512 512;" version="1.1" viewBox="0 0 512 512" width="512px" xml:space="preserve" xmlns="http://www.w3.org/2000/svg" xmlns:xlink="http://www.w3.org/1999/xlink"><style type="text/css">
<![CDATA[
	.st0{fill:#487206;}
	.st1{fill:#48A1AF;}
	.st2{fill:#ADDBA2;}
	.st3{fill:#7F7D77;}
	.st4{fill:#E05663;}
	.st5{fill:#AFA58C;}
	.st6{fill:#AFAFAE;}
	.st7{fill:#E0AF4C;}
	.st8{fill:#E0D1D1;}
	.st9{fill:#E0DFDC;}
	.st10{fill:#E0E2D9;}
	.st11{fill:#E17A2D;}
	.st12{fill:#E22929;}
	.st13{fill:#E2580C;}
	.st14{fill:#E2DDCF;}
	.st15{fill:#E2E1D9;}
	.st16{fill:#E2E2E0;}
	.st17{fill:#E2F0F2;}
	.st18{fill:#E53046;}
	.st19{fill:#4ABC96;}
	.st20{fill:#E5AA5C;}
	.st21{fill:#E79E2F;}
	.st22{fill:#E8546C;}
	.st23{fill:#E8B1A0;}
	.st24{fill:#E8CB70;}
	.st25{fill:#B24000;}
	.st26{fill:#845E35;}
	.st27{fill-rule:evenodd;clip-rule:evenodd;fill:#7ABC1B;}
	.st28{fill:#EA4949;}
	.st29{fill:#EAE7E1;}
	.st30{fill:#EAEFEF;}
	.st31{fill:#888988;}
	.st32{fill:#888989;}
	.st33{fill:#898479;}
	.st34{fill:#ED6B6B;}
	.st35{fill:#EDC92F;}
	.st36{fill:#EDC988;}
	.st37{fill:#EDD48E;}
	.st38{fill:#EDE362;}
	.st39{fill:#EE660E;}
	.st40{fill:#EF8989;}
	.st41{fill:#EFD565;}
	.st42{fill:#EFEDED;}
	.st43{fill:#EFEEE4;}
	.st44{fill:#BA8436;}
	.st45{fill:#BAB8B6;}
	.st46{fill:#BABAB6;}
	.st47{fill:#8D9696;}
	.st48{fill:#BF4013;}
	.st49{fill:#BFB599;}
	.st50{fill:#BFBFBE;}
	.st51{fill:#F2AD51;}
	.st52{fill:#F2B800;}
	.st53{fill:#F2F2F2;}
	.st54{fill:#F4D44E;}
	.st55{fill:#F4E028;}
	.st56{fill:#F4F4F4;}
	.st57{fill:#292A25;}
	.st58{fill:#F7F5F2;}
	.st59{fill:#29C183;}
	.st60{fill:#5F8E0E;}
	.st61{fill:#909191;}
	.st62{fill:#C16842;}
	.st63{fill:#C18111;}
	.st64{fill:#C1BFBF;}
	.st65{fill:#C6A206;}
	.st66{fill:#C6C5C4;}
	.st67{fill:#993504;}
	.st68{fill:#996511;}
	.st69{fill:#997141;}
	.st70{fill:#999282;}
	.st71{fill:#FCCF4F;}
	.st72{fill:#60737C;}
	.st73{fill:#FFFFFF;}
	.st74{fill:#644B44;}
	.st75{fill:#CACCCC;}
	.st76{fill:#CC8127;}
	.st77{fill:#CCC5B4;}
	.st78{fill:#CCCCCC;}
	.st79{fill:#9E9D86;}
	.st80{fill:#CE8320;}
	.st81{fill:#CE8C78;}
	.st82{fill:#CECECE;}
	.st83{fill:#9FA09F;}
	.st84{fill:#9FA3A3;}
	.st85{fill:#334D5C;}
	.st86{fill:#337180;}
	.st87{fill:#6B615D;}
	.st88{fill:#6E4832;}
	.st89{fill:#D1CD3B;}
	.st90{fill-rule:evenodd;clip-rule:evenodd;fill:#64A80D;}
	.st91{fill:#D3E1E2;}
	.st92{fill:#D4D8D8;}
	.st93{fill:#D61E1E;}
	.st94{fill:#D63434;}
	.st95{fill:#D6D6D0;}
	.st96{fill:#D7DBDB;}
	.st97{fill:#D88D2B;}
	.st98{fill:#D8D8D8;}
	.st99{fill:#3F3F3D;}
	.st100{fill:#705634;}
	.st101{fill:#727069;}
	.st102{fill:#72706B;}
	.st103{fill:#A3712F;}
	.st104{fill:#A54B2B;}
	.st105{fill-rule:evenodd;clip-rule:evenodd;fill:#6B9913;}
	.st106{fill:#DB9A83;}
	.st107{fill:#DBDBDB;}
	.st108{fill:#DDD7D7;}
	.st109{fill:#DDDDDD;}
	.st110{fill:#DFA17C;}
]]>
</style><g><g><g><path class="st59" d="M256.003,7.924c-137.012,0-248.082,111.06-248.082,248.082c0,137.001,111.07,248.07,248.082,248.07     c137.006,0,248.076-111.069,248.076-248.07C504.079,118.983,393.009,7.924,256.003,7.924z"/></g></g><g><g><g><path class="st26" d="M443.753,157.494c-9.134-16.576-36.5-5.799-36.5-5.799L49.81,299.065l15.307,41.363L429.21,188.861      C444.608,181.447,451.452,171.467,443.753,157.494z"/></g></g><g><g><polygon class="st69" points="341.649,178.5 252.48,215.338 337.149,227.25 425.435,190.175     "/></g></g><g><g><polygon class="st69" points="249.482,216.833 160.899,253.125 244.982,265.583 334.316,228.5     "/></g></g><g><g><polygon class="st69" points="156.649,254.625 66.274,292.25 152.024,304.5 241.649,266.875     "/></g></g><g><g><path class="st69" d="M443.753,157.494c-9.134-16.576-36.5-5.799-36.5-5.799l-61.828,25.491l83.785,11.675      C444.608,181.447,451.452,171.467,443.753,157.494z"/></g></g><g><g><ellipse class="st69" cx="57.462" cy="319.747" rx="9.885" ry="22.051" transform="matrix(0.9378 -0.3471 0.3471 0.9378 -107.3996 39.8173)"/></g></g><g><g><g><path class="st69" d="M63.649,293.333l-12.876,5.406c5.044-0.688,11.931,6.658,15.88,17.216       c4.206,11.245,3.484,21.872-1.608,23.737c-5.095,1.865,1.606,0.249,1.606,0.249l82.082-34.108L63.649,293.333z"/></g></g><g><g><path class="st69" d="M49.81,299.065c-0.397,0.147-0.759,0.365-1.104,0.616l2.067-0.854       C50.444,298.873,50.122,298.95,49.81,299.065z"/></g></g></g><g><g><ellipse class="st100" cx="57.461" cy="319.747" rx="8.618" ry="19.224" transform="matrix(0.9379 -0.347 0.347 0.9379 -107.3902 39.8115)"/></g></g><g><g><path class="st89" d="M353.701,197.264c-4.203-11.36-11.73-19.044-16.834-17.199l-29.216,12.575      c5.003-1.66,12.311,5.842,16.403,16.905c4.134,11.171,4.036,21.615-0.969,23.468c0,0,28.913-11.685,29.005-11.718      C357.192,219.407,357.914,208.648,353.701,197.264z"/></g></g><g><g><path class="st38" d="M333.867,205.607c-4.203-11.36-11.73-19.045-16.833-17.2l-9.383,4.232      c5.003-1.66,12.311,5.842,16.403,16.905c4.134,11.171,4.036,21.615-0.969,23.468c0,0,9.08-3.341,9.172-3.375      C337.358,227.75,338.08,216.991,333.867,205.607z"/></g></g><g><g><path class="st38" d="M353.828,197.195c-4.203-11.36-11.73-19.045-16.834-17.2l-9.382,4.232      c5.003-1.66,12.311,5.842,16.403,16.905c4.134,11.171,4.036,21.615-0.969,23.468c0,0,9.08-3.341,9.171-3.375      C357.319,219.338,358.041,208.579,353.828,197.195z"/></g></g></g></g></svg>