<?xml version="1.0" ?><!DOCTYPE svg  PUBLIC '-//W3C//DTD SVG 1.1//EN'  'http://www.w3.org/Graphics/SVG/1.1/DTD/svg11.dtd'><svg height="512px" id="Layer_1" style="enable-background:new 0 0 512 512;" version="1.1" viewBox="0 0 512 512" width="512px" xml:space="preserve" xmlns="http://www.w3.org/2000/svg" xmlns:xlink="http://www.w3.org/1999/xlink"><style type="text/css">
<![CDATA[
	.st0{fill:#487206;}
	.st1{fill:#48A1AF;}
	.st2{fill:#ADDBA2;}
	.st3{fill:#7F7D77;}
	.st4{fill:#E05663;}
	.st5{fill:#AFA58C;}
	.st6{fill:#AFAFAE;}
	.st7{fill:#E0AF4C;}
	.st8{fill:#E0D1D1;}
	.st9{fill:#E0DFDC;}
	.st10{fill:#E0E2D9;}
	.st11{fill:#E17A2D;}
	.st12{fill:#E22929;}
	.st13{fill:#E2580C;}
	.st14{fill:#E2DDCF;}
	.st15{fill:#E2E1D9;}
	.st16{fill:#E2E2E0;}
	.st17{fill:#E2F0F2;}
	.st18{fill:#E53046;}
	.st19{fill:#4ABC96;}
	.st20{fill:#E5AA5C;}
	.st21{fill:#E79E2F;}
	.st22{fill:#E8546C;}
	.st23{fill:#E8B1A0;}
	.st24{fill:#E8CB70;}
	.st25{fill:#B24000;}
	.st26{fill:#845E35;}
	.st27{fill-rule:evenodd;clip-rule:evenodd;fill:#7ABC1B;}
	.st28{fill:#EA4949;}
	.st29{fill:#EAE7E1;}
	.st30{fill:#EAEFEF;}
	.st31{fill:#888988;}
	.st32{fill:#888989;}
	.st33{fill:#898479;}
	.st34{fill:#ED6B6B;}
	.st35{fill:#EDC92F;}
	.st36{fill:#EDC988;}
	.st37{fill:#EDD48E;}
	.st38{fill:#EDE362;}
	.st39{fill:#EE660E;}
	.st40{fill:#EF8989;}
	.st41{fill:#EFD565;}
	.st42{fill:#EFEDED;}
	.st43{fill:#EFEEE4;}
	.st44{fill:#BA8436;}
	.st45{fill:#BAB8B6;}
	.st46{fill:#BABAB6;}
	.st47{fill:#8D9696;}
	.st48{fill:#BF4013;}
	.st49{fill:#BFB599;}
	.st50{fill:#BFBFBE;}
	.st51{fill:#F2AD51;}
	.st52{fill:#F2B800;}
	.st53{fill:#F2F2F2;}
	.st54{fill:#F4D44E;}
	.st55{fill:#F4E028;}
	.st56{fill:#F4F4F4;}
	.st57{fill:#292A25;}
	.st58{fill:#F7F5F2;}
	.st59{fill:#29C183;}
	.st60{fill:#5F8E0E;}
	.st61{fill:#909191;}
	.st62{fill:#C16842;}
	.st63{fill:#C18111;}
	.st64{fill:#C1BFBF;}
	.st65{fill:#C6A206;}
	.st66{fill:#C6C5C4;}
	.st67{fill:#993504;}
	.st68{fill:#996511;}
	.st69{fill:#997141;}
	.st70{fill:#999282;}
	.st71{fill:#FCCF4F;}
	.st72{fill:#60737C;}
	.st73{fill:#FFFFFF;}
	.st74{fill:#644B44;}
	.st75{fill:#CACCCC;}
	.st76{fill:#CC8127;}
	.st77{fill:#CCC5B4;}
	.st78{fill:#CCCCCC;}
	.st79{fill:#9E9D86;}
	.st80{fill:#CE8320;}
	.st81{fill:#CE8C78;}
	.st82{fill:#CECECE;}
	.st83{fill:#9FA09F;}
	.st84{fill:#9FA3A3;}
	.st85{fill:#334D5C;}
	.st86{fill:#337180;}
	.st87{fill:#6B615D;}
	.st88{fill:#6E4832;}
	.st89{fill:#D1CD3B;}
	.st90{fill-rule:evenodd;clip-rule:evenodd;fill:#64A80D;}
	.st91{fill:#D3E1E2;}
	.st92{fill:#D4D8D8;}
	.st93{fill:#D61E1E;}
	.st94{fill:#D63434;}
	.st95{fill:#D6D6D0;}
	.st96{fill:#D7DBDB;}
	.st97{fill:#D88D2B;}
	.st98{fill:#D8D8D8;}
	.st99{fill:#3F3F3D;}
	.st100{fill:#705634;}
	.st101{fill:#727069;}
	.st102{fill:#72706B;}
	.st103{fill:#A3712F;}
	.st104{fill:#A54B2B;}
	.st105{fill-rule:evenodd;clip-rule:evenodd;fill:#6B9913;}
	.st106{fill:#DB9A83;}
	.st107{fill:#DBDBDB;}
	.st108{fill:#DDD7D7;}
	.st109{fill:#DDDDDD;}
	.st110{fill:#DFA17C;}
]]>
</style><g><g><g><path class="st1" d="M256.003,7.924c-137.012,0-248.082,111.06-248.082,248.083c0,137,111.07,248.07,248.082,248.07     c137.006,0,248.076-111.07,248.076-248.07C504.079,118.983,393.009,7.924,256.003,7.924z"/></g></g><g><g><g><g><path class="st56" d="M405.704,262.449c-19.146-85.428-73.643-116.359-73.643-116.359       c-33.879-25.039-57.443,36.822-57.443,36.822c-10.311,26.512,7.365,132.561,7.365,132.561       c11.781,41.241,32.402,50.078,32.402,50.078c17.676,4.419,44.186,10.31,44.186,10.31c45.662,29.458,67.755,7.365,67.755,7.365       C432.218,350.822,405.704,262.449,405.704,262.449z"/></g></g><g><g><path class="st30" d="M332.062,146.09c-33.879-25.039-57.443,36.822-57.443,36.822c-10.311,26.512,7.365,132.561,7.365,132.561       c11.781,41.241,32.402,50.078,32.402,50.078c9.113,2.278,20.577,4.948,29.545,7c4.084,0.935,27.588-25.222,42.135-52.66       c15.441-29.12,21.85-59.652,21.85-59.652C388.768,174.811,332.062,146.09,332.062,146.09z"/></g></g><g><g><g><path class="st92" d="M355.612,210.364c-0.51-0.316-12.533-7.773-22.019-8.299c-0.14-0.002-2.902-0.021-6.446-0.528        c0.826-0.503,1.355-0.84,1.486-0.924c0.52-0.332,0.918-0.816,1.148-1.388c7.336-18.343,20.959-24.872,21.096-24.936        c1.473-0.688,2.111-2.44,1.424-3.915c-0.689-1.474-2.441-2.112-3.916-1.424c-0.635,0.296-15.434,7.386-23.703,27.184        c-1.072,0.659-27.05,14.947-40.021,15.75c-1.065,0.066-2.018,0.69-2.486,1.651c-0.146,0.307-3.606,7.588-0.105,16.034        c3.135,7.572,10.679,13.458,22.418,17.499c0.316,0.109,0.642,0.163,0.959,0.163c1.221,0,2.363-0.769,2.784-1.987        c0.528-1.539-0.288-3.215-1.827-3.745c-10.017-3.449-16.36-8.189-18.854-14.091c-1.735-4.108-1.163-7.817-0.603-9.801        c3.604-0.385,7.395-1.289,11.162-2.465c11.85,12.293,29.942,16.61,30.732,16.795c0.223,0.05,0.447,0.074,0.666,0.074        c1.34,0,2.55-0.92,2.865-2.28c0.367-1.583-0.619-3.166-2.205-3.535c-0.162-0.039-15.213-3.652-25.844-13.234        c5.645-2.201,10.943-4.808,15.156-7.06c6.753,2.019,13.623,2.051,13.951,2.051c7.824,0.438,18.946,7.338,19.059,7.409        c0.486,0.303,1.025,0.448,1.559,0.448c0.98,0,1.941-0.491,2.5-1.384C357.41,213.043,356.99,211.227,355.612,210.364z"/></g></g><g><g><path class="st92" d="M396.249,254.253c-1.023-0.814-25.771-19.815-91.986-12.899c-1.621,0.169-2.793,1.617-2.623,3.236        c0.004,0.043,0.031,0.075,0.038,0.117l-9.216,42.933c-0.053,0.189-0.104,0.373-0.12,0.564l-3.665,17.077        c-0.342,1.591,0.67,3.158,2.262,3.499c0.209,0.044,0.416,0.066,0.621,0.066c1.358,0,2.58-0.945,2.877-2.328l2.811-13.097        c26.156,18.831,25.069,40.944,25.004,41.973c-0.119,1.619,1.1,3.027,2.717,3.146c0.076,0.006,0.152,0.009,0.224,0.009        c1.528,0,2.817-1.18,2.935-2.729c0.085-1.133,1.628-27.506-29.539-48.646l3.646-16.998        c13.166-1.989,36.875,31.025,48.854,52.616c0.537,0.971,1.542,1.518,2.578,1.518c0.484,0,0.971-0.119,1.428-0.369        c1.42-0.79,1.934-2.582,1.143-4.005c-2.048-3.701-13.894-24.58-27.707-39.703c26.426-12.781,43.49,2.344,44.25,3.039        c0.566,0.522,1.283,0.78,1.995,0.78c0.792,0,1.579-0.317,2.163-0.943c1.102-1.194,1.035-3.057-0.16-4.163        c-0.215-0.199-21.399-19.267-52.531-3.141c-6.939-6.731-14.156-11.475-20.733-11.581l3.697-17.23        c61.628-5.928,85.079,11.643,85.38,11.876c0.539,0.425,1.184,0.633,1.823,0.633c0.868,0,1.726-0.382,2.306-1.112        C397.731,257.118,397.522,255.266,396.249,254.253z"/></g></g></g></g><g><g><g><path class="st56" d="M237.382,182.912c0,0-23.566-61.861-57.441-36.822c0,0-54.498,30.931-73.646,116.359       c0,0-26.512,88.373-20.62,120.777c0,0,22.093,22.093,67.755-7.365c0,0,26.512-5.891,44.186-10.31       c0,0,20.621-8.837,32.402-50.078C230.017,315.473,247.692,209.424,237.382,182.912z"/></g></g><g><g><path class="st30" d="M237.382,182.912c0,0-23.566-61.861-57.441-36.822c0,0-56.707,28.721-75.855,114.149       c0,0,6.406,30.532,21.85,59.652c14.547,27.438,38.049,53.595,42.135,52.66c8.968-2.053,20.432-4.723,29.545-7       c0,0,20.621-8.837,32.402-50.078C230.017,315.473,247.692,209.424,237.382,182.912z"/></g></g><g><g><g><path class="st75" d="M229.823,213.535c-0.469-0.96-1.417-1.637-2.484-1.651c-11.912-0.158-38.949-15.092-40.021-15.75        c-8.27-19.798-23.068-26.888-23.703-27.184c-1.475-0.688-3.229-0.05-3.916,1.424c-0.688,1.475-0.049,3.228,1.424,3.915        c0.137,0.063,13.76,6.593,21.096,24.936c0.229,0.571,0.631,1.056,1.148,1.388c0.128,0.083,0.662,0.42,1.485,0.924        c-3.543,0.508-6.305,0.526-6.445,0.528c-9.485,0.526-21.511,7.983-22.019,8.299c-1.378,0.863-1.798,2.68-0.936,4.061        c0.557,0.893,1.52,1.384,2.5,1.384c0.531,0,1.072-0.145,1.559-0.448c0.112-0.07,11.234-6.971,19.059-7.409        c0.328,0,7.198-0.032,13.95-2.051c4.213,2.252,9.513,4.858,15.157,7.06c-10.633,9.582-25.682,13.195-25.845,13.234        c-1.585,0.369-2.573,1.951-2.204,3.535c0.313,1.36,1.525,2.28,2.867,2.28c0.218,0,0.441-0.023,0.664-0.074        c0.79-0.185,18.882-4.501,30.732-16.795c3.768,1.177,7.559,2.08,11.162,2.465c0.559,1.984,1.131,5.693-0.604,9.801        c-2.496,5.902-8.835,10.643-18.854,14.091c-1.539,0.53-2.355,2.206-1.828,3.745c0.42,1.219,1.564,1.987,2.786,1.987        c0.315,0,0.642-0.053,0.959-0.163c11.737-4.041,19.281-9.927,22.417-17.499C233.433,221.124,229.972,213.842,229.823,213.535z        "/></g></g><g><g><path class="st75" d="M223.323,305.28l-3.666-17.077c-0.016-0.191-0.066-0.375-0.119-0.564l-9.215-42.933        c0.006-0.042,0.033-0.073,0.035-0.117c0.172-1.619-1.002-3.066-2.621-3.236c-66.215-6.916-90.963,12.085-91.986,12.899        c-1.271,1.013-1.482,2.865-0.47,4.138c0.581,0.73,1.438,1.112,2.306,1.112c0.641,0,1.283-0.208,1.824-0.633        c0.301-0.234,23.752-17.804,85.38-11.876l3.698,17.23c-6.578,0.106-13.795,4.85-20.734,11.581        c-31.132-16.126-52.314,2.942-52.531,3.141c-1.195,1.106-1.264,2.968-0.158,4.163c0.58,0.626,1.368,0.943,2.159,0.943        c0.714,0,1.431-0.257,1.997-0.78c0.76-0.695,17.824-15.82,44.25-3.039c-13.813,15.123-25.657,36.002-27.709,39.703        c-0.791,1.423-0.275,3.215,1.145,4.005c0.455,0.25,0.943,0.369,1.428,0.369c1.034,0,2.039-0.547,2.578-1.518        c11.979-21.591,35.688-54.605,48.854-52.616l3.646,16.998c-31.167,21.139-29.627,47.512-29.539,48.646        c0.117,1.549,1.406,2.729,2.935,2.729c0.071,0,0.146-0.003,0.223-0.009c1.618-0.119,2.837-1.527,2.718-3.146        c-0.065-1.029-1.152-23.142,25.004-41.973l2.811,13.097c0.297,1.382,1.519,2.328,2.877,2.328c0.203,0,0.412-0.022,0.621-0.066        C222.653,308.438,223.665,306.871,223.323,305.28z"/></g></g></g></g><g><g><path class="st92" d="M237.248,71.816l2.511,23.242v127.377c0,0,8.348-6.751,16.708-6.751c8.358,0,15.94,6.751,15.94,6.751      V95.058l2.51-23.242H237.248z"/></g></g><g><g><path class="st75" d="M239.759,162.782v59.652c0,0,8.348-6.751,16.708-6.751L239.759,162.782z"/></g></g><g><g><path class="st92" d="M284.192,212.002c-7.172-0.308-11.785-22.83-11.785-22.83v33.263c5.248,7.518,15.375,15.251,15.375,15.251      L284.192,212.002z"/></g></g><g><g><path class="st75" d="M228.13,212.002l-3.591,25.684c0,0,10.126-7.733,15.374-15.251v-33.263      C239.913,189.172,235.302,211.694,228.13,212.002z"/></g></g></g></g></svg>