<?xml version="1.0" ?><!DOCTYPE svg  PUBLIC '-//W3C//DTD SVG 1.1//EN'  'http://www.w3.org/Graphics/SVG/1.1/DTD/svg11.dtd'><svg height="512px" id="Layer_1" style="enable-background:new 0 0 512 512;" version="1.1" viewBox="0 0 512 512" width="512px" xml:space="preserve" xmlns="http://www.w3.org/2000/svg" xmlns:xlink="http://www.w3.org/1999/xlink"><style type="text/css">
<![CDATA[
	.st0{fill:#487206;}
	.st1{fill:#48A1AF;}
	.st2{fill:#ADDBA2;}
	.st3{fill:#7F7D77;}
	.st4{fill:#E05663;}
	.st5{fill:#AFA58C;}
	.st6{fill:#AFAFAE;}
	.st7{fill:#E0AF4C;}
	.st8{fill:#E0D1D1;}
	.st9{fill:#E0DFDC;}
	.st10{fill:#E0E2D9;}
	.st11{fill:#E17A2D;}
	.st12{fill:#E22929;}
	.st13{fill:#E2580C;}
	.st14{fill:#E2DDCF;}
	.st15{fill:#E2E1D9;}
	.st16{fill:#E2E2E0;}
	.st17{fill:#E2F0F2;}
	.st18{fill:#E53046;}
	.st19{fill:#4ABC96;}
	.st20{fill:#E5AA5C;}
	.st21{fill:#E79E2F;}
	.st22{fill:#E8546C;}
	.st23{fill:#E8B1A0;}
	.st24{fill:#E8CB70;}
	.st25{fill:#B24000;}
	.st26{fill:#845E35;}
	.st27{fill-rule:evenodd;clip-rule:evenodd;fill:#7ABC1B;}
	.st28{fill:#EA4949;}
	.st29{fill:#EAE7E1;}
	.st30{fill:#EAEFEF;}
	.st31{fill:#888988;}
	.st32{fill:#888989;}
	.st33{fill:#898479;}
	.st34{fill:#ED6B6B;}
	.st35{fill:#EDC92F;}
	.st36{fill:#EDC988;}
	.st37{fill:#EDD48E;}
	.st38{fill:#EDE362;}
	.st39{fill:#EE660E;}
	.st40{fill:#EF8989;}
	.st41{fill:#EFD565;}
	.st42{fill:#EFEDED;}
	.st43{fill:#EFEEE4;}
	.st44{fill:#BA8436;}
	.st45{fill:#BAB8B6;}
	.st46{fill:#BABAB6;}
	.st47{fill:#8D9696;}
	.st48{fill:#BF4013;}
	.st49{fill:#BFB599;}
	.st50{fill:#BFBFBE;}
	.st51{fill:#F2AD51;}
	.st52{fill:#F2B800;}
	.st53{fill:#F2F2F2;}
	.st54{fill:#F4D44E;}
	.st55{fill:#F4E028;}
	.st56{fill:#F4F4F4;}
	.st57{fill:#292A25;}
	.st58{fill:#F7F5F2;}
	.st59{fill:#29C183;}
	.st60{fill:#5F8E0E;}
	.st61{fill:#909191;}
	.st62{fill:#C16842;}
	.st63{fill:#C18111;}
	.st64{fill:#C1BFBF;}
	.st65{fill:#C6A206;}
	.st66{fill:#C6C5C4;}
	.st67{fill:#993504;}
	.st68{fill:#996511;}
	.st69{fill:#997141;}
	.st70{fill:#999282;}
	.st71{fill:#FCCF4F;}
	.st72{fill:#60737C;}
	.st73{fill:#FFFFFF;}
	.st74{fill:#644B44;}
	.st75{fill:#CACCCC;}
	.st76{fill:#CC8127;}
	.st77{fill:#CCC5B4;}
	.st78{fill:#CCCCCC;}
	.st79{fill:#9E9D86;}
	.st80{fill:#CE8320;}
	.st81{fill:#CE8C78;}
	.st82{fill:#CECECE;}
	.st83{fill:#9FA09F;}
	.st84{fill:#9FA3A3;}
	.st85{fill:#334D5C;}
	.st86{fill:#337180;}
	.st87{fill:#6B615D;}
	.st88{fill:#6E4832;}
	.st89{fill:#D1CD3B;}
	.st90{fill-rule:evenodd;clip-rule:evenodd;fill:#64A80D;}
	.st91{fill:#D3E1E2;}
	.st92{fill:#D4D8D8;}
	.st93{fill:#D61E1E;}
	.st94{fill:#D63434;}
	.st95{fill:#D6D6D0;}
	.st96{fill:#D7DBDB;}
	.st97{fill:#D88D2B;}
	.st98{fill:#D8D8D8;}
	.st99{fill:#3F3F3D;}
	.st100{fill:#705634;}
	.st101{fill:#727069;}
	.st102{fill:#72706B;}
	.st103{fill:#A3712F;}
	.st104{fill:#A54B2B;}
	.st105{fill-rule:evenodd;clip-rule:evenodd;fill:#6B9913;}
	.st106{fill:#DB9A83;}
	.st107{fill:#DBDBDB;}
	.st108{fill:#DDD7D7;}
	.st109{fill:#DDDDDD;}
	.st110{fill:#DFA17C;}
]]>
</style><g><g><g><path class="st1" d="M256.003,7.924c-137.012,0-248.082,111.06-248.082,248.083c0,137,111.07,248.07,248.082,248.07     c137.006,0,248.076-111.07,248.076-248.07C504.079,118.983,393.009,7.924,256.003,7.924z"/></g></g><g><g><g><g><rect class="st43" height="6.393" transform="matrix(0.9986 -0.052 0.052 0.9986 -9.4927 20.3896)" width="42.749" x="365.689" y="189.412"/></g></g><g><g><rect class="st79" height="6.393" transform="matrix(0.9987 -0.0515 0.0515 0.9987 -9.4817 19.2634)" width="0.493" x="368.674" y="190.357"/></g></g><g><g><polygon class="st83" points="410.48,192.628 410.009,191.207 409.182,190.527 410.137,189.032 410.249,188.2 408.244,188.305        408.576,194.689 409.636,194.634 410.281,194.136 410.036,193.374      "/></g></g><g><g><polygon class="st31" points="409.482,191.699 410.009,191.207 409.182,190.527 410.137,189.032 410.249,188.2        408.399,191.291 408.458,192.424 409.636,194.634 410.281,194.136      "/></g></g><g><g><path class="st51" d="M365.553,190.528l-12.621,0.671c-0.076,1.052-0.089,2.122-0.032,3.203       c0.056,1.081,0.18,2.143,0.363,3.182l12.622-0.671L365.553,190.528z"/></g></g><g><g><path class="st21" d="M365.553,190.528c0,0-12.474,6.017-12.29,7.056l12.622-0.671L365.553,190.528z"/></g></g></g><g><g><g><g><path class="st110" d="M345.999,152.845c0,0-15.32-7.21-23.431-22.528c0,0-3.782-8.096-5.074-11.328        c-0.602-1.5-0.298-6.576-1.673-10.534c-4.415-12.714-10.644-27.918-17.582-36.709c0,0-44.233-42.274-99.197-18.845        c0,0-63.943,24.577-63.078,81.099c0.867,56.522,28.01,81.921,49.637,111.657c0,0-6.183,34.753-16.22,44.154        c0,0,13.005,19.58,27.312,29.797c14.305,10.218,37.567,16.158,37.567,16.158s6.96-51.304,25.229-70.286        c5.03-5.229,14.697-21.74,55.868-18.022c0,0,32.438-0.001,30.638-30.637c0,0,0.263-6.046,2.605-7.5l0.637-30.11        c-0.285-0.539-0.824-3.663,0.791-6.464C350.028,172.747,362.217,160.055,345.999,152.845z"/></g></g><g><g><path class="st88" d="M310.94,114.707c0,0-19.254-3.609-27.852-1.172c-3.449,0.977-9.842,9.972-9.842,9.972        s8.89-3.496,12.229-4.481c3.338-0.985,26.012-1.346,26.012-1.346S314.439,115.893,310.94,114.707z"/></g></g><g><g><path class="st74" d="M304.096,132.957c-6.131,1.362-18.677,2.384-18.677,2.384c9.096,7.123,17.496,5.401,22.311,1.703        c4.468-3.435,5.677-8.629,5.677-8.629S310.227,131.595,304.096,132.957z"/></g></g><g><g><path class="st88" d="M316.373,88.556C265.675,10.828,184.774,50.987,159.67,73.742        c-78.103,70.795,24.759,174.68,24.759,174.68s11.242-11.921,11.582-37.126c0.34-25.24,7.145-51.123,20.54-72.053        c9.118-14.246,21.03-24.323,33.35-31.503c24.646-14.368,58.251-8.088,67.055-9.436        C319.298,97.947,317.379,90.095,316.373,88.556z"/></g></g><g><g><path class="st110" d="M353.529,194.292c0.301-2.405,3.397-5.255,3.07-7.865c-0.938-7.486-4.402-6.45-6.63-6.759        c-2.229-0.31-6.73,10.422-6.73,10.422c-1.963,4.228,0.647,17.884,0.647,17.884c8.669,3.892,10.936-1.239,10.936-1.239        C357.407,200.109,353.205,196.878,353.529,194.292z"/></g></g></g><g><g><ellipse class="st110" cx="199.356" cy="173.704" rx="16.794" ry="21.111" transform="matrix(0.9436 -0.331 0.331 0.9436 -46.2601 75.7829)"/></g></g></g><g><g><path class="st86" d="M154.457,282.823c-27.03-1.04-81.179,78.088-103.453,112.91c36.192,52.99,92.392,91.219,157.726,103.826      c18.26-26.697,52.438-70.77,61.367-116.225C285.083,307.038,154.457,282.823,154.457,282.823z"/></g></g><g><g><g><g><path class="st110" d="M377.512,230.59c0,0-3.235-11.364-7.69-19.781c-0.524-0.99-6.268-9.127-10.758-4.869        c-1.636,1.554,0.755,7.785,1.396,14.768c0.67,7.269,1.863,14.173,3.388,17.171c3.002,5.862,5.389,16.419,5.389,16.419        l14.505-12.253L377.512,230.59z"/></g></g><g><g><path class="st110" d="M396.194,213.82l-15.418-21.654l-11.154-16.473c-1.447-3.942-4.016-9.764-7.509-7.093        c-2.628,2.011-1.853,4.437-1.233,7.924l9.772,20.73l7.962,19.94c0,0,2.174,2.519,5.624,1.918        C387.681,218.51,396.813,217.31,396.194,213.82z"/></g></g></g></g><g><g><path class="st110" d="M413.209,259.662c-6.419-23.524-12.092-30.954-14.183-38.387c-1.562-5.542-2.564-7.518-5.755-11.7      l-15.243,4.96c0,0,1.563,8.107,2.067,11.881l-0.248,10.021l-11.357,15.31c1.666,10.123,11.953,27.043,14.964,29.213      c0.724,0.522-1.09,6.506-4.301,15.838c-9.004,26.167,30.522,21.092,31.826,5.651c0.17-1.992,0.537-13.259,0.783-15.451      C413.822,268.744,413.209,259.662,413.209,259.662z"/></g></g><g><g><path class="st86" d="M376.096,292l-54.333,156l-58.999-106.667l-52.448,101.575l55.146,60.971      c39.068-1.465,75.828-11.952,108.246-29.459l45.055-180.087L376.096,292z"/></g></g></g></g></svg>