<?xml version="1.0" ?><!DOCTYPE svg  PUBLIC '-//W3C//DTD SVG 1.1//EN'  'http://www.w3.org/Graphics/SVG/1.1/DTD/svg11.dtd'><svg enable-background="new 0 0 600 600" id="Layer_1" version="1.1" viewBox="0 0 600 600" xml:space="preserve" xmlns="http://www.w3.org/2000/svg" xmlns:xlink="http://www.w3.org/1999/xlink"><g id="New_Symbol_2_6_" opacity="0.25"/><g id="New_Symbol_2_5_"/><g id="New_Symbol_2_4_"/><g id="New_Symbol_2_1_"/><g id="New_Symbol_2"/><g id="New_Symbol"><g id="New_Symbol_2_3_"/></g><g id="New_Symbol_1_"><g id="New_Symbol_2_7_"/></g><g id="New_Symbol_2_"><g id="New_Symbol_2_8_"/></g><g id="New_Symbol_2_2_"/><g id="New_Symbol_3_"><g id="New_Symbol_2_10_"/></g><g id="New_Symbol_4_"><g id="New_Symbol_2_11_"/></g><circle cx="299.3" cy="293.3" fill="#048ABF" r="258.3"/><g id="New_Symbol_5_"><g id="New_Symbol_2_12_"/></g><g id="New_Symbol_6_"><g id="New_Symbol_2_13_"/></g><g id="New_Symbol_7_"><g id="New_Symbol_2_14_"/></g><g opacity="0.26"><path d="M367.7,277.7v-8.1c0-1.5-0.2-2.9-0.6-4.3c0.4-1.4,0.6-2.8,0.6-4.3v-34c0-9.4-7.7-17-17-17H284l-0.1-7.1h0   c-0.1,0.2-0.2,0.4-0.2,0.6c0.2-0.6,0.3-1.1,0.3-1.7l0-0.5c-0.1-0.5-0.3-1-0.6-1.3c-0.7-1.2-1.9-2.4-3.4-3.4   c1.5-1.1,2.6-2.2,3.4-3.4c0.6-0.7,0.9-2.4,0.9-2.4l-0.3-40c0,0,0,0,0,0l0-0.5c0-0.1,0-0.1,0-0.2l0-1.8l-1.1-1.5h0l-4-5.4h-0.4   c-0.9-2.2-3.3-4.1-6.9-5.7v-22.4c0-0.2,0.1-0.5,0.1-0.7c0-5.3-9.9-9.7-22.1-9.7c-12.2,0-22.1,4.3-22.1,9.7c0,0.3,0,0.6,0.1,0.9   v22.3c-3.6,1.6-6.1,3.6-7,5.7h-0.4l-3.8,4.5l0,0l-1.4,1.7v43.4c0,0.9,0.4,1.8,1.3,2.6c0.7,1,1.7,2,3,2.9v0.2   c-1.2,0.9-2.3,1.9-3,2.9c-0.8,0.9-1.3,1.7-1.3,2.6c0,0.2,0,0.4,0.1,0.6H215v7.2c-8.9,0.5-16.1,7.9-16.1,17v34   c0,1.5,0.2,2.9,0.6,4.3c-0.4,1.4-0.6,2.8-0.6,4.3V495c0,9.4,7.7,17,17,17h134.7c9.4,0,17-7.7,17-17V322.8c3.5-0.7,6.1-3.7,6.1-7.4   v-30.2C373.8,281.4,371.2,278.4,367.7,277.7z" fill="#141414"/><polygon fill="#141414" points="283.9,202.7 283.9,202.9 284.3,202.9  "/></g><path d="M399.3,288.1L399.3,288.1c-4.2,0-7.6-3.4-7.6-7.6v-30.2c0-4.2,3.4-7.6,7.6-7.6l0,0c4.2,0,7.6,3.4,7.6,7.6  v30.2C406.8,284.7,403.4,288.1,399.3,288.1z" fill="#202022"/><path d="M383.7,243.2H249c-9.4,0-17-7.7-17-17v-34c0-9.4,7.7-17,17-17h134.7c9.4,0,17,7.7,17,17v34  C400.7,235.5,393.1,243.2,383.7,243.2z" fill="#525252"/><path d="M383.7,477.1H249c-9.4,0-17-7.7-17-17V234.7c0-9.4,7.7-17,17-17h134.7c9.4,0,17,7.7,17,17v225.4  C400.7,469.5,393.1,477.1,383.7,477.1z" fill="#363636"/><ellipse cx="282.3" cy="198.1" fill="#363636" rx="31.9" ry="14.9"/><ellipse cx="282.3" cy="198.1" fill="#202022" rx="13.7" ry="6.4"/><rect fill="#202022" height="161.6" width="85.1" x="273.1" y="262.6"/><g><path d="M281.4,273.6c0.7-0.1,1.6-0.2,2.7-0.2c1.4,0,2.4,0.3,3,0.9c0.6,0.5,0.9,1.3,0.9,2.3c0,1-0.3,1.8-0.8,2.3   c-0.7,0.8-1.9,1.2-3.3,1.2c-0.4,0-0.8,0-1.1-0.1v4.3h-1.4V273.6z M282.8,278.8c0.3,0.1,0.7,0.1,1.2,0.1c1.7,0,2.7-0.8,2.7-2.3   c0-1.4-1-2.1-2.6-2.1c-0.6,0-1.1,0-1.3,0.1V278.8z" fill="#05B8FF"/><path d="M296.5,280.3c0,2.9-2,4.1-3.9,4.1c-2.1,0-3.7-1.5-3.7-4c0-2.6,1.7-4.1,3.9-4.1   C295,276.3,296.5,278,296.5,280.3z M290.4,280.4c0,1.7,1,3,2.4,3c1.3,0,2.4-1.3,2.4-3c0-1.3-0.7-3-2.3-3   C291.1,277.4,290.4,278.9,290.4,280.4z" fill="#05B8FF"/><path d="M298.8,276.5l1,4c0.2,0.9,0.4,1.7,0.6,2.5h0c0.2-0.8,0.4-1.6,0.7-2.5l1.3-4h1.2l1.2,3.9   c0.3,0.9,0.5,1.8,0.7,2.5h0c0.1-0.8,0.3-1.6,0.6-2.5l1.1-3.9h1.4l-2.5,7.8h-1.3l-1.2-3.7c-0.3-0.9-0.5-1.6-0.7-2.6h0   c-0.2,0.9-0.4,1.7-0.7,2.6l-1.3,3.7h-1.3l-2.3-7.8H298.8z" fill="#05B8FF"/><path d="M310.7,280.7c0,1.9,1.3,2.7,2.7,2.7c1,0,1.6-0.2,2.2-0.4l0.2,1c-0.5,0.2-1.4,0.5-2.6,0.5   c-2.4,0-3.8-1.6-3.8-3.9s1.4-4.2,3.6-4.2c2.5,0,3.2,2.2,3.2,3.7c0,0.3,0,0.5,0,0.7H310.7z M314.8,279.6c0-0.9-0.4-2.3-2-2.3   c-1.4,0-2.1,1.3-2.2,2.3H314.8z" fill="#05B8FF"/><path d="M317.9,278.9c0-0.9,0-1.7-0.1-2.4h1.2l0,1.5h0.1c0.4-1,1.2-1.7,2.2-1.7c0.2,0,0.3,0,0.4,0v1.3   c-0.1,0-0.3,0-0.5,0c-1,0-1.7,0.8-1.9,1.8c0,0.2-0.1,0.4-0.1,0.7v4.1h-1.4V278.9z" fill="#05B8FF"/></g><g><path d="M293.7,294.9c-0.5,0-1,0-1.6,0.1c-3.7,0.3-5.3,2.2-5.8,4.3h0.1c0.9-0.9,2.1-1.4,3.8-1.4   c3,0,5.5,2.1,5.5,5.8c0,3.5-2.7,6.4-6.6,6.4c-4.7,0-7.1-3.5-7.1-7.8c0-3.3,1.2-6.1,3.2-7.9c1.8-1.6,4.1-2.5,6.9-2.6   c0.8-0.1,1.3-0.1,1.7,0V294.9z M291.4,303.9c0-1.6-0.9-3.1-2.7-3.1c-1.1,0-2.1,0.7-2.5,1.6c-0.1,0.2-0.2,0.5-0.2,1   c0.1,1.9,1,3.6,2.9,3.6C290.5,307,291.4,305.7,291.4,303.9z" fill="#05B8FF"/><path d="M310.7,300.8c0,5.5-2.2,9.3-6.8,9.3c-4.6,0-6.6-4.1-6.7-9.2c0-5.2,2.2-9.2,6.8-9.2   C308.8,291.7,310.7,295.9,310.7,300.8z M301.4,300.9c0,4.1,1,6,2.6,6c1.6,0,2.5-2,2.5-6.1c0-3.9-0.9-6-2.5-6   C302.4,294.8,301.4,296.8,301.4,300.9z" fill="#05B8FF"/><path d="M312.9,307.6c0-1.5,1-2.5,2.5-2.5c1.5,0,2.4,1,2.4,2.5c0,1.5-1,2.5-2.5,2.5   C313.9,310.1,312.9,309,312.9,307.6z" fill="#05B8FF"/><path d="M333,300.8c0,5.5-2.2,9.3-6.8,9.3c-4.6,0-6.6-4.1-6.7-9.2c0-5.2,2.2-9.2,6.8-9.2   C331.1,291.7,333,295.9,333,300.8z M323.8,300.9c0,4.1,1,6,2.6,6c1.6,0,2.5-2,2.5-6.1c0-3.9-0.9-6-2.5-6   C324.8,294.8,323.7,296.8,323.8,300.9z" fill="#05B8FF"/><path d="M337.2,309.8l-3.1-12.1h1.7l1.4,6.1c0.4,1.5,0.7,3,0.9,4.2h0c0.2-1.2,0.6-2.6,1-4.2l1.6-6.1h1.6l1.5,6.1   c0.3,1.4,0.7,2.9,0.8,4.1h0c0.3-1.3,0.6-2.7,1-4.2l1.6-6.1h1.6l-3.4,12.1h-1.6l-1.5-6.3c-0.4-1.5-0.6-2.7-0.8-4h0   c-0.2,1.2-0.5,2.4-0.9,4l-1.7,6.3H337.2z" fill="#05B8FF"/></g><g><path d="M283.8,337.2l-3.5-10.8h1.5l1.7,5.3c0.5,1.5,0.9,2.8,1.2,4h0c0.3-1.3,0.8-2.6,1.2-4l1.8-5.4h1.5l-3.9,10.8   H283.8z" fill="#05B8FF"/><path d="M296.8,333.3c0,2.9-2,4.1-3.9,4.1c-2.1,0-3.7-1.5-3.7-4c0-2.6,1.7-4.1,3.9-4.1   C295.3,329.3,296.8,330.9,296.8,333.3z M290.7,333.3c0,1.7,1,3,2.4,3c1.3,0,2.4-1.3,2.4-3c0-1.3-0.7-3-2.3-3   C291.4,330.3,290.7,331.9,290.7,333.3z" fill="#05B8FF"/><path d="M298.6,325.8h1.4v11.4h-1.4V325.8z" fill="#05B8FF"/><path d="M304.1,327.2v2.2h2v1.1h-2v4.2c0,1,0.3,1.5,1.1,1.5c0.4,0,0.6,0,0.8-0.1l0.1,1.1c-0.3,0.1-0.7,0.2-1.3,0.2   c-0.7,0-1.2-0.2-1.5-0.6c-0.4-0.4-0.5-1.1-0.5-2v-4.2h-1.2v-1.1h1.2v-1.9L304.1,327.2z" fill="#05B8FF"/><path d="M312,337.2l-0.1-1h0c-0.4,0.6-1.3,1.2-2.4,1.2c-1.6,0-2.4-1.1-2.4-2.2c0-1.9,1.7-2.9,4.7-2.9v-0.2   c0-0.6-0.2-1.8-1.8-1.8c-0.7,0-1.5,0.2-2,0.6l-0.3-0.9c0.6-0.4,1.6-0.7,2.6-0.7c2.4,0,3,1.6,3,3.2v2.9c0,0.7,0,1.3,0.1,1.9H312z    M311.8,333.2c-1.5,0-3.3,0.2-3.3,1.8c0,0.9,0.6,1.3,1.3,1.3c1,0,1.7-0.6,1.9-1.3c0-0.1,0.1-0.3,0.1-0.4V333.2z" fill="#05B8FF"/><path d="M322.2,329.4c0,0.6-0.1,1.2-0.1,2.1v4.5c0,1.8-0.4,2.9-1.1,3.6c-0.8,0.7-1.8,0.9-2.8,0.9   c-0.9,0-2-0.2-2.6-0.6l0.4-1.1c0.5,0.3,1.3,0.6,2.3,0.6c1.4,0,2.5-0.8,2.5-2.7v-0.9h0c-0.4,0.7-1.3,1.3-2.5,1.3   c-1.9,0-3.3-1.6-3.3-3.8c0-2.6,1.7-4.1,3.5-4.1c1.3,0,2.1,0.7,2.4,1.3h0l0.1-1.2H322.2z M320.7,332.5c0-0.2,0-0.4-0.1-0.6   c-0.3-0.8-0.9-1.5-2-1.5c-1.3,0-2.3,1.1-2.3,2.9c0,1.5,0.8,2.8,2.3,2.8c0.9,0,1.7-0.5,2-1.4c0.1-0.2,0.1-0.5,0.1-0.8V332.5z" fill="#05B8FF"/><path d="M325.2,333.6c0,1.9,1.3,2.7,2.7,2.7c1,0,1.6-0.2,2.2-0.4l0.2,1c-0.5,0.2-1.4,0.5-2.6,0.5   c-2.4,0-3.8-1.6-3.8-3.9c0-2.3,1.4-4.2,3.6-4.2c2.5,0,3.2,2.2,3.2,3.7c0,0.3,0,0.5,0,0.7H325.2z M329.4,332.6c0-0.9-0.4-2.3-2-2.3   c-1.4,0-2.1,1.3-2.2,2.3H329.4z" fill="#05B8FF"/></g><g><path d="M281.4,376.6c0.6-0.1,1.6-0.2,2.6-0.2c1.4,0,2.3,0.2,3,0.8c0.6,0.4,0.9,1.1,0.9,1.9c0,1-0.7,2-1.8,2.4v0   c1,0.3,2.2,1.1,2.2,2.7c0,0.9-0.4,1.6-0.9,2.2c-0.8,0.7-2,1-3.7,1c-1,0-1.7-0.1-2.2-0.1V376.6z M282.8,381.1h1.3   c1.5,0,2.3-0.8,2.3-1.8c0-1.3-1-1.8-2.4-1.8c-0.6,0-1,0-1.2,0.1V381.1z M282.8,386.2c0.3,0,0.7,0.1,1.2,0.1c1.4,0,2.8-0.5,2.8-2.1   c0-1.5-1.3-2.1-2.8-2.1h-1.2V386.2z" fill="#05B8FF"/><path d="M294.4,387.3l-0.1-1h0c-0.4,0.6-1.3,1.2-2.4,1.2c-1.6,0-2.4-1.1-2.4-2.2c0-1.9,1.7-2.9,4.7-2.9v-0.2   c0-0.6-0.2-1.8-1.8-1.8c-0.7,0-1.5,0.2-2,0.6L290,380c0.6-0.4,1.6-0.7,2.6-0.7c2.4,0,3,1.6,3,3.2v2.9c0,0.7,0,1.3,0.1,1.9H294.4z    M294.2,383.3c-1.5,0-3.3,0.2-3.3,1.8c0,0.9,0.6,1.3,1.3,1.3c1,0,1.7-0.6,1.9-1.3c0-0.1,0.1-0.3,0.1-0.4V383.3z" fill="#05B8FF"/><path d="M299.5,377.3v2.2h2v1.1h-2v4.2c0,1,0.3,1.5,1.1,1.5c0.4,0,0.6,0,0.8-0.1l0.1,1.1c-0.3,0.1-0.7,0.2-1.3,0.2   c-0.7,0-1.2-0.2-1.5-0.6c-0.4-0.4-0.5-1.1-0.5-2v-4.2h-1.2v-1.1h1.2v-1.9L299.5,377.3z" fill="#05B8FF"/><path d="M304.8,377.3v2.2h2v1.1h-2v4.2c0,1,0.3,1.5,1.1,1.5c0.4,0,0.6,0,0.8-0.1l0.1,1.1c-0.3,0.1-0.7,0.2-1.3,0.2   c-0.7,0-1.2-0.2-1.5-0.6c-0.4-0.4-0.5-1.1-0.5-2v-4.2h-1.2v-1.1h1.2v-1.9L304.8,377.3z" fill="#05B8FF"/><path d="M309.1,383.7c0,1.9,1.3,2.7,2.7,2.7c1,0,1.6-0.2,2.2-0.4l0.2,1c-0.5,0.2-1.4,0.5-2.6,0.5   c-2.4,0-3.8-1.6-3.8-3.9s1.4-4.2,3.6-4.2c2.5,0,3.2,2.2,3.2,3.7c0,0.3,0,0.5,0,0.7H309.1z M313.2,382.7c0-0.9-0.4-2.3-2-2.3   c-1.4,0-2.1,1.3-2.2,2.3H313.2z" fill="#05B8FF"/><path d="M316.3,382c0-0.9,0-1.7-0.1-2.4h1.2l0,1.5h0.1c0.4-1,1.2-1.7,2.2-1.7c0.2,0,0.3,0,0.4,0v1.3   c-0.1,0-0.3,0-0.5,0c-1,0-1.7,0.8-1.9,1.8c0,0.2-0.1,0.4-0.1,0.7v4.1h-1.4V382z" fill="#05B8FF"/><path d="M322.5,379.5l1.7,4.6c0.2,0.5,0.4,1.1,0.5,1.6h0c0.1-0.5,0.3-1.1,0.5-1.6l1.5-4.6h1.5l-2.1,5.5   c-1,2.7-1.7,4-2.7,4.9c-0.7,0.6-1.4,0.9-1.7,0.9l-0.4-1.2c0.4-0.1,0.8-0.3,1.2-0.7c0.4-0.3,0.9-0.9,1.2-1.6   c0.1-0.1,0.1-0.3,0.1-0.3c0-0.1,0-0.2-0.1-0.4l-2.9-7.2H322.5z" fill="#05B8FF"/></g><g><path d="M283,358.6c0.7,0.4,2.4,1.1,4.1,1.1c2.2,0,3.3-1,3.3-2.4c0-1.8-1.8-2.5-3.6-2.5h-1.7v-3h1.6   c1.4,0,3.2-0.5,3.2-2.1c0-1.1-0.9-1.9-2.6-1.9c-1.5,0-3,0.6-3.7,1.1l-0.9-3c1.1-0.7,3.2-1.3,5.5-1.3c3.8,0,5.9,2,5.9,4.4   c0,1.9-1.1,3.4-3.3,4.1v0.1c2.1,0.4,3.9,2,3.9,4.3c0,3.2-2.8,5.5-7.3,5.5c-2.3,0-4.2-0.6-5.3-1.3L283,358.6z" fill="#05B8FF"/><path d="M297.7,360.5c0-1.5,1-2.5,2.5-2.5c1.5,0,2.4,1,2.4,2.5c0,1.5-1,2.5-2.5,2.5   C298.7,363,297.7,362,297.7,360.5z" fill="#05B8FF"/><path d="M305.4,358.6c0.7,0.4,2.4,1.1,4.1,1.1c2.2,0,3.3-1,3.3-2.4c0-1.8-1.8-2.5-3.6-2.5h-1.7v-3h1.6   c1.4,0,3.2-0.5,3.2-2.1c0-1.1-0.9-1.9-2.6-1.9c-1.5,0-3,0.6-3.7,1.1l-0.9-3c1.1-0.7,3.2-1.3,5.5-1.3c3.8,0,5.9,2,5.9,4.4   c0,1.9-1.1,3.4-3.3,4.1v0.1c2.1,0.4,3.9,2,3.9,4.3c0,3.2-2.8,5.5-7.3,5.5c-2.3,0-4.2-0.6-5.3-1.3L305.4,358.6z" fill="#05B8FF"/><path d="M333,353.7c0,5.5-2.2,9.3-6.8,9.3c-4.6,0-6.6-4.1-6.7-9.2c0-5.2,2.2-9.2,6.8-9.2   C331.1,344.6,333,348.9,333,353.7z M323.8,353.9c0,4.1,1,6,2.6,6c1.6,0,2.5-2,2.5-6.1c0-3.9-0.9-6-2.5-6   C324.8,347.8,323.7,349.7,323.8,353.9z" fill="#05B8FF"/><path d="M339,362.7l-5-15.3h2.1l2.4,7.5c0.7,2.1,1.2,3.9,1.6,5.7h0c0.4-1.8,1.1-3.7,1.7-5.7l2.6-7.6h2.1l-5.5,15.3   H339z" fill="#05B8FF"/></g><path d="M347.8,398.7v16.1H283v-16.1H347.8 M348.7,397.7h-66.6v18h66.6V397.7L348.7,397.7z" fill="#05B8FF"/><g><rect fill="#05B8FF" height="11.8" width="35.4" x="285.1" y="400.8"/></g><g><rect fill="#048ABF" height="11.8" width="3.3" x="348" y="400.8"/></g><path d="M282.7,154.6c16.4,0,30.1,4.5,33.7,10.6c0.2,0.3,0.4,0.8,0.6,1.3l0,0.5c0,1.3-0.4,2.5-1.2,3.5l-4,5.4h-58.7  l-3.8-4.5c-0.9-1.1-1.4-2.4-1.4-3.8l0,0c0-0.9,0.4-1.8,1.3-2.6C253.3,158.9,266.8,154.6,282.7,154.6z" fill="#D9D9D9"/><path d="M311.9,154.1h-59.7v36.6c0,0.9,0.4,1.8,1.1,2.6c3.4,5.8,15,10.1,28.8,10.1c14.1,0,25.9-4.5,29-10.6  c0.5-0.7,0.8-2.4,0.8-2.4l-0.3-35.6" fill="#9E9E9E"/><path d="M248.1,112.7l5.1-6.2h58.7l5.1,6.9l0.3,42.5c0,0-0.3,1.7-0.9,2.4c-3.6,6.1-17.3,10.6-33.7,10.6  c-16,0-29.4-4.3-33.4-10.1c-0.8-0.9-1.3-1.7-1.3-2.6V112.7h69.2" fill="#CCCCCC"/><path d="M316.9,168c-0.1,0.4-0.3,0.9-0.5,1.1c-3.6,6.1-17.3,10.6-33.7,10.6c-16,0-29.4-4.3-33.4-10.1  c-0.5-0.5-0.8-1-1-1.6h-0.2v33.3c0,0.9,0.4,1.8,1.3,2.6c4,5.8,17.4,10.1,33.4,10.1c16.4,0,30.1-4.5,33.7-10.6  c0.6-0.7,0.9-2.4,0.9-2.4l-0.3-33.2l0.3,0.1H316.9z" fill="#CCCCCC"/><ellipse cx="282.5" cy="108.1" fill="#EBEBEB" rx="29.3" ry="11.2"/><circle cx="295.3" cy="152.7" fill="#282828" r="3.2"/><path d="M293,176.3h-19.4c-1.4,0-2.5-1.1-2.5-2.5l0,0c0-1.4,1.1-2.5,2.5-2.5H293c1.4,0,2.5,1.1,2.5,2.5l0,0  C295.6,175.2,294.4,176.3,293,176.3z" fill="#282828"/><path d="M254.4,207.3c5.7,3.1,10,4.3,16.1,4.7v-87.9l-16.1-8.3V207.3z" fill="#FFFFFF" opacity="0.33"/><path d="M282.7,127.6c16.4,0,30.1-4.5,33.7-10.6c0.2-0.3,0.4-0.8,0.6-1.3l0-0.5c0-1.3-0.4-2.5-1.2-3.5l-4-5.4h-58.7  l-3.8,4.5c-0.9,1.1-1.4,2.4-1.4,3.8l0,0c0,0.9,0.4,1.8,1.3,2.6C253.3,123.3,266.8,127.6,282.7,127.6z" fill="#D9D9D9"/><path d="M304.6,103.2V76.9h-44.1v26.2c-0.1,0.3-0.1,0.6-0.1,0.9c0,5.3,9.9,9.7,22.1,9.7c12.2,0,22.1-4.3,22.1-9.7  C304.7,103.8,304.7,103.5,304.6,103.2z" fill="#363636"/><ellipse cx="282.6" cy="77.6" fill="#454545" rx="22.1" ry="9.7"/><path d="M298.6,76.9c0,3.5-7.2,6.9-16,6.9c-8.9,0-16-3.4-16-6.9s7.2-6.4,16-6.4C291.4,70.6,298.6,73.4,298.6,76.9z" fill="#202022"/><circle cx="268.5" cy="152.7" fill="#282828" r="3.2"/></svg>