<?xml version="1.0" ?><!DOCTYPE svg  PUBLIC '-//W3C//DTD SVG 1.1//EN'  'http://www.w3.org/Graphics/SVG/1.1/DTD/svg11.dtd'><svg height="512px" style="shape-rendering:geometricPrecision; text-rendering:geometricPrecision; image-rendering:optimizeQuality; fill-rule:evenodd; clip-rule:evenodd" version="1.1" viewBox="0 0 512 512" width="512px" xml:space="preserve" xmlns="http://www.w3.org/2000/svg" xmlns:xlink="http://www.w3.org/1999/xlink"><defs><style type="text/css">
   <![CDATA[
    .fil4 {fill:#434242}
    .fil0 {fill:#56698F}
    .fil7 {fill:#7690C9}
    .fil3 {fill:#EBECEC}
    .fil1 {fill:#EF7F1A}
    .fil5 {fill:#FFED00}
    .fil2 {fill:#FF3305}
    .fil6 {fill:#D06A1E}
   ]]>
  </style></defs><g id="Layer_x0020_1"><g id="_632813648"><path class="fil0" d="M256 16c131,0 238,106 238,238 0,131 -106,238 -238,238 -131,0 -238,-106 -238,-238 0,-131 106,-238 238,-238z"/><g><path class="fil1" d="M362 228c0,0 -3,-16 -30,-32 -27,-16 -56,-13 -56,-13 0,0 -12,-25 -45,-26 -33,0 -52,34 -52,34l-53 16c0,0 -33,-12 -57,-12 -23,1 -22,23 -22,23l3 21c0,0 -17,12 -32,13 0,1 0,2 0,3 0,24 4,48 11,70 7,-2 15,-4 23,-3 47,3 100,23 172,22 72,-2 89,-38 116,-62 26,-24 39,-23 39,-23 0,0 4,-21 -16,-31z"/><polygon class="fil2" points="378,258 343,255 353,270 "/><path class="fil3" d="M305 220c-7,0 -13,6 -13,13 0,7 6,13 13,13 7,0 13,-6 13,-13 0,-7 -6,-13 -13,-13z"/><path class="fil4" d="M305 228c-3,0 -5,2 -5,5 0,3 2,5 5,5 3,0 5,-2 5,-5 0,-3 -2,-5 -5,-5z"/><path class="fil5" d="M276 182c0,0 -23,-1 -46,1 -23,2 -50,7 -50,7 22,-17 48,-28 76,-29 0,0 12,4 21,20z"/><path class="fil5" d="M50 239l76 -32c0,0 -17,-6 -25,-8 -8,-2 -51,40 -51,40z"/><path class="fil6" d="M299 320c0,0 -9,17 -11,32 -2,15 -18,30 -39,24 -21,-6 -20,-21 -20,-21 0,0 6,-26 71,-35z"/><path class="fil3" d="M289 182c-47,27 -111,76 -32,118 26,14 49,15 49,15l-7 6c0,0 -77,-8 -97,-40 -29,-45 42,-91 77,-99l11 0z"/><path class="fil3" d="M155 198c0,0 -35,35 -27,50 8,15 16,24 10,46 -7,21 14,45 14,45l-27 -5c0,0 -19,-18 -16,-33 3,-15 0,-32 -13,-39 -13,-7 18,-52 38,-58 21,-6 21,-6 21,-6z"/><path class="fil3" d="M43 243c0,0 -12,27 -7,37 5,10 -1,25 2,31 3,6 10,11 10,11 0,0 -12,0 -20,3 -6,-20 -10,-40 -10,-62 0,-1 1,-1 1,-2 8,-11 7,-11 7,-11l17 -7z"/></g><path class="fil7" d="M407 192c10,0 19,8 19,19 0,10 -8,19 -19,19 -10,0 -19,-8 -19,-19 0,-10 8,-19 19,-19zm-161 -143c13,0 23,10 23,23 0,13 -10,23 -23,23 -13,0 -23,-10 -23,-23 0,-13 10,-23 23,-23zm99 46c18,0 33,15 33,33 0,18 -15,33 -33,33 -18,0 -33,-15 -33,-33 0,-18 15,-33 33,-33z"/></g></g></svg>