<?xml version="1.0" ?><!DOCTYPE svg  PUBLIC '-//W3C//DTD SVG 1.0//EN'  'http://www.w3.org/TR/2001/REC-SVG-20010904/DTD/svg10.dtd'><svg height="110px" style="enable-background:new 0 0 110 110;" version="1.0" viewBox="0 0 110 110" width="110px" xml:space="preserve" xmlns="http://www.w3.org/2000/svg" xmlns:xlink="http://www.w3.org/1999/xlink"><g id="Artboard"/><g id="Multicolor"><circle cx="55" cy="55" r="55" style="fill:#25B7D3;"/><g><g><path d="M79.602,43.049c-0.279-2.497-1.659-4.697-3.826-6.06l-10.971-6.556     c0.484-1.971-0.023-4.135-1.563-5.675c-2.343-2.343-6.142-2.343-8.485,0c-2.343,2.343-2.343,6.142,0,8.485     c2.142,2.142,5.487,2.302,7.838,0.529l11.09,6.626c1.091,0.688,1.799,1.815,1.943,3.097c0.143,1.281-0.297,2.538-1.208,3.45     c-1.643,1.643-4.317,1.643-5.96,0l-3.095-3.095l2.121-2.121l-10.607-0.707l8.752,8.752c3.203,3.203,8.414,3.203,11.617,0     C79.024,47.996,79.883,45.546,79.602,43.049z M61.121,31.121c-1.172,1.172-3.071,1.172-4.243,0s-1.172-3.071,0-4.243     s3.071-1.172,4.243,0S62.293,29.95,61.121,31.121z" style="fill:#F0F1F1;"/></g><g><path d="M54.757,24.757c-2.343,2.343-2.343,6.142,0,8.485c0.12,0.12,0.255,0.21,0.382,0.317l2.124-2.124     c-0.133-0.095-0.265-0.195-0.385-0.315c-1.172-1.171-1.172-3.071,0-4.242c1.171-1.172,3.071-1.172,4.242,0     c0.12,0.12,0.22,0.251,0.315,0.385l2.133-2.133c-0.106-0.126-0.208-0.255-0.327-0.374C60.899,22.414,57.101,22.414,54.757,24.757     z" style="fill:#FFFFFF;"/></g><g><path d="M23,51c3,4,0,16,8,16c-8,0-5,12-8,16c12,0,14-12,14-12v-4v-4C37,63,35,51,23,51z" style="fill:#CFD3D4;"/></g><g><path d="M23,51c3,4,0,16,8,16h6v-4C37,63,35,51,23,51z" style="fill:#F0F1F1;"/></g><g><path d="M69.39,77.99C66.81,83.32,61.33,87,55,87v-8.32c1.92,0.21,3.93,0.32,6,0.32     C63.94,79,66.76,78.62,69.39,77.99z" style="fill:#CFD3D4;"/></g><g><path d="M87,67c0,3.038-11.732,12-26,12c-14.36,0-26-5.365-26-12c0-6.667,11.712-12,26-12     C75.36,55,87,64,87,67z" style="fill:#E2E4E5;"/></g><g><path d="M48.929,56.372C52.543,55.497,56.651,55,61,55c1.341,0,2.659,0.079,3.945,0.224     c-1.112-2.682-4.4-5.326-5.44-6.113c-0.201-0.152-0.453-0.223-0.704-0.198c-1.661,0.167-8.316,0.892-12.595,2.174     c-0.337,0.101-0.596,0.37-0.683,0.71s0.011,0.701,0.258,0.951C46.838,53.813,48.144,55.395,48.929,56.372z" style="fill:#F0F1F1;"/></g><g><path d="M61,55c-14.288,0-26,5.333-26,12h52C87,64,75.36,55,61,55z" style="fill:#FFFFFF;"/></g><g><g><path d="M35,37.5c-9.282,0-9.955-13.682-10-14.269L27.991,23C28,23.116,28.486,34.5,35,34.5      c3.027,0,6.497-2.328,9.853-4.58c4.162-2.791,8.444-5.666,12.263-4.18c0.484,0.188,0.847,0.598,0.977,1.101      c0.13,0.503,0.01,1.037-0.323,1.436c-0.378,0.454-1.01,0.6-1.549,0.36c-2.267-1.009-5.278,0.809-9.697,3.775      C42.795,34.913,38.94,37.5,35,37.5z" style="fill:#3E3E3F;"/></g></g><g><path d="M71.123,59.364c-0.536,0-1.031,0.159-1.455,0.423c0.411,0.24,0.7,0.667,0.7,1.176     c0,0.763-0.619,1.382-1.382,1.382c-0.227,0-0.433-0.068-0.622-0.165c0.028,1.502,1.25,2.713,2.759,2.713     c1.527,0,2.765-1.238,2.765-2.765S72.649,59.364,71.123,59.364z" style="fill:#3E3E3F;"/></g></g></g></svg>