<?xml version="1.0" ?><!DOCTYPE svg  PUBLIC '-//W3C//DTD SVG 1.1//EN'  'http://www.w3.org/Graphics/SVG/1.1/DTD/svg11.dtd'><svg enable-background="new 0 0 512 512" height="512px" id="Layer_1" version="1.1" viewBox="0 0 512 512" width="512px" xml:space="preserve" xmlns="http://www.w3.org/2000/svg" xmlns:xlink="http://www.w3.org/1999/xlink"><g><path d="M512,256.003C512,114.617,397.385,0,255.998,0C114.617,0,0,114.617,0,256.003   C0,397.384,114.617,512,255.998,512C397.385,512,512,397.384,512,256.003z" fill="#41BFED"/><g><g><g><g><path d="M365.217,179.815c-0.24,0-0.479-0.063-0.695-0.194c-0.636-0.382-0.836-1.207-0.454-1.844       c0.926-1.531,1.878-3.047,2.854-4.548c0.402-0.62,1.236-0.795,1.854-0.394c0.623,0.404,0.799,1.235,0.394,1.857       c-0.959,1.475-1.896,2.966-2.805,4.475C366.112,179.585,365.67,179.815,365.217,179.815z M371.033,170.893       c-0.269,0-0.538-0.078-0.774-0.243c-0.604-0.428-0.749-1.267-0.324-1.872c1.033-1.464,2.088-2.911,3.165-4.34       c0.448-0.595,1.287-0.707,1.884-0.263c0.59,0.448,0.708,1.289,0.262,1.883c-1.063,1.402-2.101,2.824-3.114,4.268       C371.869,170.694,371.455,170.893,371.033,170.893z M377.46,162.394c-0.298,0-0.598-0.097-0.847-0.299       c-0.573-0.47-0.663-1.313-0.196-1.891c1.13-1.391,2.284-2.762,3.463-4.113c0.485-0.555,1.334-0.62,1.893-0.131       c0.558,0.489,0.618,1.336,0.131,1.895c-1.156,1.329-2.29,2.674-3.399,4.044C378.238,162.224,377.852,162.394,377.46,162.394z        M384.461,154.355c-0.328,0-0.659-0.12-0.918-0.361c-0.542-0.506-0.569-1.356-0.063-1.899c1.226-1.309,2.472-2.596,3.74-3.862       c0.524-0.525,1.373-0.525,1.897,0c0.525,0.524,0.525,1.377,0,1.897c-1.247,1.246-2.473,2.514-3.676,3.801       C385.177,154.214,384.819,154.355,384.461,154.355z M392.007,146.821c-0.357,0-0.718-0.145-0.981-0.428       c-0.506-0.545-0.477-1.396,0.067-1.899c1.313-1.219,2.646-2.42,3.999-3.595c0.559-0.491,1.409-0.427,1.895,0.131       c0.487,0.561,0.427,1.408-0.132,1.894c-1.332,1.159-2.644,2.34-3.931,3.537C392.663,146.703,392.335,146.821,392.007,146.821z        M400.061,139.827c-0.39,0-0.775-0.171-1.043-0.496c-0.467-0.577-0.377-1.422,0.196-1.891c1.395-1.128,2.81-2.234,4.244-3.314       c0.587-0.44,1.432-0.331,1.88,0.264c0.446,0.593,0.328,1.436-0.265,1.882c-1.409,1.059-2.797,2.145-4.163,3.257       C400.661,139.73,400.361,139.827,400.061,139.827z M408.585,133.404c-0.421,0-0.839-0.2-1.098-0.571       c-0.43-0.609-0.279-1.445,0.328-1.87c1.467-1.031,2.957-2.035,4.463-3.014c0.615-0.401,1.452-0.23,1.855,0.394       c0.404,0.621,0.229,1.452-0.394,1.857c-1.479,0.961-2.942,1.95-4.385,2.96C409.119,133.325,408.854,133.404,408.585,133.404z        M417.539,127.588c-0.454,0-0.9-0.23-1.151-0.65c-0.384-0.638-0.176-1.462,0.459-1.844c1.537-0.924,3.093-1.823,4.663-2.696       c0.643-0.352,1.463-0.126,1.826,0.522c0.36,0.65,0.128,1.465-0.521,1.827c-1.544,0.858-3.073,1.74-4.585,2.649       C418.013,127.523,417.774,127.588,417.539,127.588z M426.878,122.408c-0.489,0-0.961-0.268-1.195-0.732       c-0.339-0.661-0.075-1.471,0.585-1.807c1.598-0.815,3.213-1.604,4.846-2.363c0.671-0.309,1.469-0.024,1.783,0.65       c0.315,0.671,0.022,1.471-0.65,1.784c-1.6,0.748-3.188,1.521-4.757,2.319C427.292,122.36,427.084,122.408,426.878,122.408z        M436.563,117.895c-0.521,0-1.018-0.308-1.235-0.815c-0.29-0.685,0.026-1.471,0.71-1.764c1.653-0.704,3.32-1.375,5.006-2.018       c0.691-0.263,1.467,0.078,1.732,0.772c0.265,0.692-0.082,1.469-0.773,1.734c-1.652,0.632-3.289,1.293-4.911,1.982       C436.916,117.86,436.738,117.895,436.563,117.895z M446.55,114.07c-0.559,0-1.079-0.349-1.271-0.904       c-0.24-0.702,0.131-1.466,0.832-1.707c1.699-0.585,3.412-1.139,5.138-1.664c0.726-0.21,1.46,0.188,1.676,0.896       c0.216,0.711-0.186,1.46-0.894,1.676c-1.694,0.514-3.377,1.057-5.045,1.631C446.84,114.047,446.694,114.07,446.55,114.07z        M456.767,110.961c-0.595,0-1.138-0.399-1.299-1c-0.188-0.716,0.239-1.453,0.955-1.642c1.729-0.456,3.469-0.889,5.219-1.29       c0.74-0.169,1.449,0.289,1.61,1.007c0.164,0.724-0.285,1.445-1.007,1.61c-1.724,0.396-3.433,0.817-5.134,1.27       C456.995,110.947,456.879,110.961,456.767,110.961z" fill="#FFFFFF"/></g></g><g><g><path d="M377.46,185.43c-0.298,0-0.598-0.097-0.847-0.299c-0.573-0.469-0.663-1.314-0.196-1.892       c1.13-1.389,2.284-2.76,3.463-4.111c0.485-0.558,1.334-0.624,1.893-0.131c0.558,0.487,0.618,1.334,0.131,1.893       c-1.156,1.331-2.29,2.676-3.399,4.045C378.238,185.26,377.852,185.43,377.46,185.43z M384.461,177.392       c-0.328,0-0.659-0.12-0.918-0.362c-0.542-0.506-0.569-1.354-0.063-1.897c1.226-1.309,2.472-2.597,3.74-3.863       c0.524-0.524,1.373-0.524,1.897,0c0.525,0.523,0.525,1.376,0,1.899c-1.247,1.245-2.473,2.512-3.676,3.8       C385.177,177.251,384.819,177.392,384.461,177.392z M392.007,169.857c-0.357,0-0.718-0.145-0.981-0.428       c-0.506-0.546-0.477-1.395,0.067-1.898c1.313-1.22,2.646-2.421,3.999-3.597c0.559-0.492,1.409-0.427,1.895,0.132       c0.487,0.562,0.427,1.409-0.132,1.895c-1.332,1.159-2.644,2.338-3.931,3.537C392.663,169.739,392.335,169.857,392.007,169.857z        M400.061,162.863c-0.39,0-0.775-0.171-1.043-0.496c-0.467-0.577-0.377-1.421,0.196-1.892c1.395-1.127,2.81-2.233,4.244-3.314       c0.587-0.44,1.432-0.33,1.88,0.266c0.446,0.593,0.328,1.434-0.265,1.88c-1.409,1.06-2.797,2.146-4.163,3.258       C400.661,162.766,400.361,162.863,400.061,162.863z M408.585,156.44c-0.421,0-0.839-0.199-1.098-0.571       c-0.43-0.608-0.279-1.446,0.328-1.87c1.467-1.031,2.957-2.035,4.463-3.014c0.615-0.403,1.452-0.231,1.855,0.393       c0.404,0.622,0.229,1.454-0.394,1.857c-1.479,0.963-2.942,1.951-4.385,2.961C409.119,156.361,408.854,156.44,408.585,156.44z        M417.539,150.623c-0.454,0-0.9-0.23-1.151-0.65c-0.384-0.637-0.176-1.46,0.459-1.844c1.537-0.922,3.093-1.821,4.663-2.694       c0.643-0.35,1.463-0.13,1.826,0.521c0.36,0.65,0.128,1.467-0.521,1.829c-1.544,0.856-3.073,1.741-4.585,2.647       C418.013,150.562,417.774,150.623,417.539,150.623z M426.878,145.443c-0.489,0-0.961-0.267-1.195-0.73       c-0.339-0.661-0.075-1.471,0.585-1.808c1.598-0.815,3.213-1.604,4.846-2.362c0.671-0.313,1.469-0.023,1.783,0.649       c0.315,0.672,0.022,1.473-0.65,1.783c-1.6,0.748-3.188,1.521-4.757,2.322C427.292,145.396,427.084,145.443,426.878,145.443z        M436.563,140.932c-0.521,0-1.018-0.308-1.235-0.817c-0.29-0.684,0.026-1.471,0.71-1.762c1.653-0.705,3.32-1.377,5.006-2.02       c0.691-0.267,1.467,0.079,1.732,0.773c0.265,0.692-0.082,1.47-0.773,1.733c-1.652,0.633-3.289,1.293-4.911,1.982       C436.916,140.896,436.738,140.932,436.563,140.932z M446.55,137.106c-0.559,0-1.079-0.348-1.271-0.904       c-0.24-0.703,0.131-1.466,0.832-1.707c1.699-0.585,3.412-1.138,5.138-1.662c0.726-0.21,1.46,0.186,1.676,0.894       c0.216,0.71-0.186,1.462-0.894,1.676c-1.694,0.515-3.377,1.057-5.045,1.632C446.84,137.083,446.694,137.106,446.55,137.106z        M456.767,133.996c-0.595,0-1.138-0.398-1.299-0.999c-0.188-0.716,0.239-1.452,0.955-1.641c1.729-0.457,3.469-0.89,5.219-1.292       c0.74-0.175,1.449,0.287,1.61,1.009c0.164,0.723-0.285,1.444-1.007,1.609c-1.724,0.396-3.433,0.819-5.134,1.27       C456.995,133.983,456.879,133.996,456.767,133.996z M467.16,131.618c-0.629,0-1.191-0.446-1.317-1.089       c-0.139-0.729,0.336-1.432,1.064-1.574c1.756-0.337,3.523-0.645,5.302-0.922c0.721-0.09,1.418,0.386,1.532,1.119       c0.116,0.732-0.388,1.419-1.118,1.534c-1.747,0.273-3.483,0.575-5.206,0.907C467.331,131.61,467.247,131.618,467.16,131.618z" fill="#FFFFFF"/></g></g><g><g><path d="M387.752,198.383c-0.328,0-0.658-0.12-0.919-0.362c-0.539-0.506-0.567-1.355-0.062-1.898       c1.224-1.309,2.47-2.597,3.738-3.863c0.524-0.524,1.376-0.524,1.9,0s0.524,1.377,0,1.899c-1.25,1.246-2.474,2.512-3.679,3.8       C388.468,198.242,388.111,198.383,387.752,198.383z M395.3,190.849c-0.36,0-0.72-0.145-0.984-0.429       c-0.506-0.545-0.474-1.394,0.067-1.897c1.315-1.221,2.648-2.422,4.001-3.597c0.559-0.489,1.407-0.427,1.893,0.132       c0.489,0.562,0.428,1.409-0.131,1.895c-1.332,1.157-2.643,2.338-3.932,3.537C395.955,190.73,395.628,190.849,395.3,190.849z        M403.354,183.854c-0.392,0-0.775-0.171-1.044-0.497c-0.467-0.576-0.378-1.42,0.197-1.891c1.392-1.127,2.809-2.233,4.242-3.314       c0.588-0.44,1.43-0.33,1.881,0.265c0.446,0.594,0.328,1.435-0.266,1.881c-1.407,1.06-2.798,2.146-4.164,3.257       C403.951,183.757,403.651,183.854,403.354,183.854z M411.876,177.431c-0.422,0-0.838-0.198-1.099-0.571       c-0.427-0.608-0.277-1.445,0.328-1.869c1.47-1.031,2.959-2.036,4.464-3.015c0.616-0.4,1.452-0.23,1.856,0.394       c0.403,0.622,0.229,1.454-0.394,1.857c-1.479,0.963-2.941,1.951-4.385,2.961C412.412,177.353,412.144,177.431,411.876,177.431z        M420.829,171.614c-0.453,0-0.899-0.23-1.15-0.65c-0.383-0.637-0.177-1.461,0.459-1.844c1.536-0.922,3.092-1.822,4.662-2.695       c0.643-0.35,1.464-0.129,1.829,0.521c0.359,0.65,0.125,1.466-0.523,1.828c-1.544,0.857-3.072,1.741-4.583,2.648       C421.305,171.553,421.065,171.614,420.829,171.614z M430.168,166.435c-0.486,0-0.959-0.268-1.195-0.73       c-0.339-0.661-0.076-1.472,0.585-1.809c1.601-0.815,3.216-1.604,4.846-2.362c0.675-0.312,1.473-0.025,1.784,0.65       c0.314,0.672,0.024,1.473-0.65,1.783c-1.601,0.748-3.189,1.521-4.758,2.322C430.583,166.388,430.377,166.435,430.168,166.435z        M439.854,161.922c-0.522,0-1.018-0.307-1.236-0.816c-0.291-0.684,0.025-1.471,0.708-1.762c1.654-0.706,3.324-1.377,5.007-2.02       c0.684-0.263,1.471,0.081,1.733,0.773c0.264,0.692-0.081,1.47-0.774,1.733c-1.65,0.632-3.288,1.293-4.911,1.982       C440.209,161.887,440.028,161.922,439.854,161.922z M449.84,158.098c-0.558,0-1.077-0.349-1.269-0.905       c-0.241-0.702,0.132-1.465,0.831-1.707c1.699-0.584,3.412-1.137,5.138-1.662c0.72-0.21,1.462,0.186,1.675,0.895       c0.216,0.71-0.186,1.46-0.894,1.675c-1.694,0.515-3.375,1.057-5.042,1.632C450.131,158.074,449.984,158.098,449.84,158.098z        M460.059,154.987c-0.596,0-1.14-0.398-1.299-0.999c-0.189-0.716,0.238-1.453,0.954-1.642c1.729-0.457,3.471-0.89,5.219-1.291       c0.753-0.17,1.446,0.289,1.611,1.009c0.165,0.723-0.287,1.444-1.008,1.609c-1.723,0.396-3.434,0.818-5.135,1.269       C460.285,154.975,460.171,154.987,460.059,154.987z M470.451,152.609c-0.63,0-1.19-0.446-1.317-1.089       c-0.139-0.729,0.337-1.432,1.066-1.574c1.754-0.337,3.521-0.645,5.299-0.923c0.716-0.109,1.419,0.386,1.535,1.12       c0.114,0.732-0.388,1.418-1.121,1.534c-1.746,0.273-3.481,0.574-5.205,0.907C470.621,152.601,470.537,152.609,470.451,152.609z        M480.709,150.728c-0.63-0.007-1.187-0.461-1.305-1.105c-0.129-0.729,0.356-1.428,1.085-1.559       c1.762-0.314,3.53-0.6,5.314-0.854c0.716-0.1,1.413,0.404,1.518,1.139c0.108,0.734-0.406,1.415-1.141,1.521       c-1.749,0.253-3.487,0.53-5.216,0.839C480.879,150.724,480.795,150.728,480.709,150.728z" fill="#FFFFFF"/></g></g><g><g><path d="M395.3,210.853c-0.36,0-0.72-0.144-0.984-0.427c-0.506-0.545-0.474-1.396,0.067-1.898       c1.315-1.22,2.648-2.421,4.001-3.596c0.559-0.491,1.407-0.428,1.893,0.131c0.489,0.561,0.428,1.408-0.131,1.893       c-1.332,1.16-2.643,2.341-3.932,3.538C395.955,210.734,395.628,210.853,395.3,210.853z M403.354,203.858       c-0.392,0-0.775-0.17-1.044-0.495c-0.467-0.577-0.378-1.422,0.197-1.891c1.392-1.128,2.809-2.235,4.242-3.315       c0.588-0.44,1.43-0.333,1.881,0.265c0.446,0.593,0.328,1.436-0.266,1.881c-1.407,1.059-2.798,2.145-4.164,3.257       C403.951,203.762,403.651,203.858,403.354,203.858z M411.876,197.436c-0.422,0-0.838-0.198-1.099-0.571       c-0.427-0.608-0.277-1.444,0.328-1.87c1.47-1.03,2.959-2.035,4.464-3.013c0.616-0.404,1.452-0.23,1.856,0.394       c0.403,0.622,0.229,1.452-0.394,1.856c-1.479,0.963-2.941,1.951-4.385,2.961C412.412,197.357,412.144,197.436,411.876,197.436z        M420.829,191.619c-0.453,0-0.899-0.23-1.15-0.649c-0.383-0.638-0.177-1.462,0.459-1.845c1.536-0.924,3.092-1.823,4.662-2.696       c0.643-0.349,1.464-0.128,1.829,0.523c0.359,0.649,0.125,1.465-0.523,1.826c-1.544,0.858-3.072,1.742-4.583,2.65       C421.305,191.556,421.065,191.619,420.829,191.619z M430.168,186.44c-0.486,0-0.959-0.269-1.195-0.733       c-0.339-0.659-0.076-1.471,0.585-1.806c1.601-0.815,3.216-1.605,4.846-2.363c0.675-0.312,1.473-0.023,1.784,0.65       c0.314,0.672,0.024,1.471-0.65,1.784c-1.601,0.747-3.189,1.521-4.758,2.32C430.583,186.393,430.377,186.44,430.168,186.44z        M439.854,181.926c-0.522,0-1.018-0.306-1.236-0.814c-0.291-0.685,0.025-1.472,0.708-1.763c1.654-0.706,3.324-1.376,5.007-2.02       c0.684-0.265,1.471,0.081,1.733,0.774c0.264,0.691-0.081,1.468-0.774,1.733c-1.65,0.631-3.288,1.293-4.911,1.982       C440.209,181.893,440.028,181.926,439.854,181.926z M449.84,178.104c-0.558,0-1.077-0.35-1.269-0.905       c-0.241-0.703,0.132-1.466,0.831-1.707c1.699-0.585,3.412-1.14,5.138-1.663c0.72-0.219,1.462,0.187,1.675,0.895       c0.216,0.71-0.186,1.46-0.894,1.676c-1.694,0.513-3.375,1.057-5.042,1.631C450.131,178.079,449.984,178.104,449.84,178.104z        M460.059,174.993c-0.596,0-1.14-0.399-1.299-1c-0.189-0.716,0.238-1.453,0.954-1.642c1.729-0.456,3.471-0.89,5.219-1.29       c0.753-0.178,1.446,0.285,1.611,1.006c0.165,0.725-0.287,1.446-1.008,1.611c-1.723,0.396-3.434,0.817-5.135,1.269       C460.285,174.979,460.171,174.993,460.059,174.993z M470.451,172.614c-0.63,0-1.19-0.446-1.317-1.088       c-0.139-0.73,0.337-1.433,1.066-1.574c1.754-0.339,3.521-0.645,5.299-0.924c0.716-0.106,1.419,0.386,1.535,1.12       c0.114,0.731-0.388,1.419-1.121,1.534c-1.746,0.272-3.481,0.574-5.205,0.908C470.621,172.605,470.537,172.614,470.451,172.614z        M479.313,171.085c-0.626-0.053-1.148-0.546-1.22-1.196c-0.073-0.738,0.459-1.398,1.195-1.477       c1.778-0.186,3.568-0.341,5.361-0.463c0.724-0.048,1.379,0.502,1.432,1.245c0.053,0.739-0.508,1.382-1.246,1.435       c-1.764,0.119-3.52,0.272-5.266,0.456C479.483,171.093,479.398,171.093,479.313,171.085z M488.565,170.497       c-0.628-0.052-1.148-0.545-1.22-1.195c-0.073-0.74,0.459-1.397,1.195-1.477c1.778-0.187,3.566-0.341,5.361-0.465       c0.724-0.047,1.379,0.504,1.432,1.246c0.053,0.739-0.51,1.382-1.246,1.435c-1.766,0.121-3.52,0.272-5.266,0.456       C488.736,170.505,488.652,170.505,488.565,170.497z" fill="#FFFFFF"/></g></g></g><g><g><g><g><path d="M167.105,307.625h-56.038c-5.848,0-10.919-4.05-12.21-9.751L68.604,164.35        c-0.839-3.713,0.053-7.61,2.429-10.578c2.371-2.979,5.975-4.711,9.782-4.711h99.562c6.919,0,12.521,5.607,12.521,12.52        c0,6.914-5.603,12.526-12.521,12.526H96.493l24.577,108.479h46.035c6.915,0,12.521,5.606,12.521,12.52        C179.627,302.019,174.021,307.625,167.105,307.625z" fill="#882C00"/></g></g><g><path d="M266.503,325.844c-4.222,0-8.455-1.61-11.67-4.836c-6.456-6.441-6.456-16.889,0-23.341l113.001-113.011       c6.446-6.44,16.89-6.44,23.345,0c6.452,6.452,6.452,16.9,0,23.352l-113,113C274.954,324.233,270.727,325.844,266.503,325.844z" fill="#3BB000"/></g><polygon fill="#3BB000" points="130.595,383.773 333.964,383.773 310.617,169.065 333.964,149.061 147.411,149.061     "/><polygon fill="#3BB000" points="356.364,144.979 356.364,219.533 430.536,219.533     "/></g><polygon fill="#3B9C00" points="232.282,149.061 232.282,383.773 333.964,383.773 310.617,169.065 333.964,149.061    "/></g><g><path d="M226.989,286.104c-7.625,28.513-29.966,15.574-9.109-5.28c-20.856,20.854-33.473-1.468-5.164-9.128     c-28.309,7.66-28.309-18.236,0-10.576c-28.309-7.66-15.692-29.965,5.164-9.113c-20.856-20.852,1.484-33.791,9.109-5.279     c-7.625-28.512,18.238-28.512,10.579,0c7.659-28.512,29.982-15.572,9.128,5.279c20.854-20.852,33.452,1.453,5.144,9.113     c28.309-7.66,28.309,18.236,0,10.576c28.309,7.66,15.711,29.982-5.144,9.128c20.854,20.854-1.469,33.793-9.128,5.28     C245.228,314.616,219.364,314.616,226.989,286.104z" fill="#FFFFFF"/><g><path d="M257.662,266.409c0-14.015-11.371-25.376-25.38-25.376c-14.021-0.006-25.387,11.361-25.393,25.382      c0,14.02,11.372,25.38,25.393,25.375C246.291,291.79,257.662,280.43,257.662,266.409z" fill="#FF9616"/><path d="M257.662,266.409c0-14.015-11.371-25.376-25.38-25.376v50.757      C246.291,291.79,257.662,280.43,257.662,266.409z" fill="#FF6C14"/><path d="M249.449,266.415c0-9.479-7.688-17.169-17.172-17.169c-9.484,0-17.167,7.69-17.167,17.169      c-0.006,9.487,7.683,17.166,17.167,17.172C241.761,283.587,249.449,275.896,249.449,266.415z" fill="#FFC801"/><circle cx="224.834" cy="258.415" fill="#FFFFFF" r="3.408"/><path d="M249.449,266.415c0-9.479-7.688-17.169-17.172-17.169v34.341      C241.761,283.587,249.449,275.896,249.449,266.415z" fill="#FF9714"/></g></g></g></g></svg>