<?xml version="1.0" ?><!DOCTYPE svg  PUBLIC '-//W3C//DTD SVG 1.0//EN'  'http://www.w3.org/TR/2001/REC-SVG-20010904/DTD/svg10.dtd'><svg height="110px" style="enable-background:new 0 0 110 110;" version="1.0" viewBox="0 0 110 110" width="110px" xml:space="preserve" xmlns="http://www.w3.org/2000/svg" xmlns:xlink="http://www.w3.org/1999/xlink"><g id="Artboard"/><g id="Multicolor"><circle cx="55" cy="55" r="55" style="fill:#32BEA6;"/><g><g><rect height="12" style="fill:#F0F1F1;" width="58" x="29" y="39"/></g><g><path d="M69.297,44.555C69.111,44.833,68.799,45,68.465,45h-12.93c-0.334,0-0.647-0.167-0.832-0.445L51,39     h22L69.297,44.555z" style="fill:#CFD3D4;"/></g><g><rect height="12" style="fill:#FFFFFF;" width="3" x="26" y="39"/></g><g><rect height="8" style="fill:#E2E4E5;" width="3" x="23" y="41"/></g><g><polygon points="37,35 34,35 31,39 37,39    " style="fill:#FFFFFF;"/></g><g><polygon points="83,37 77,37 75,39 85,39    " style="fill:#FFFFFF;"/></g><g><rect height="6" style="fill:#CFD3D4;" width="1.75" x="75" y="41"/></g><g><rect height="6" style="fill:#CFD3D4;" width="1.75" x="78.25" y="41"/></g><g><rect height="6" style="fill:#CFD3D4;" width="1.75" x="81.5" y="41"/></g><g><path d="M26,51l8.496,5.664C34.825,56.883,35.211,57,35.606,57H42.5v-6H26z" style="fill:#CFD3D4;"/></g><g><path d="M55,51c0.945,3.716-0.615,6.081-3,8c3.297,0.838,5.528-0.296,7.33-2.227L55,51z" style="fill:#F0F1F1;"/></g><g><path d="M65.5,60.5H48c-1.378,0-2.5-1.122-2.5-2.5v-7h-3v7c0,3.033,2.467,5.5,5.5,5.5h16.5L65.5,60.5z" style="fill:#F0F1F1;"/></g><g><path d="M55,51h32c0,0-9.875,9.91-7,14c2.127,3.026,5.596,15.064,5.646,19.979     c0.006,0.534-0.203,1.048-0.578,1.428C84.692,86.786,84.181,87,83.647,87H65c-0.713,0-1.372-0.38-1.73-0.996     s-0.36-1.377-0.007-1.996l2.218-2.38c0.387-0.415,0.579-0.975,0.529-1.541c-0.05-0.565-0.338-1.083-0.792-1.423L64.8,78     c-0.849-0.637-1.053-1.826-0.464-2.709l1.614-2.716c0.589-0.883,0.385-2.073-0.464-2.709l-1.333-1     c-0.689-0.517-0.97-1.416-0.697-2.232L66,59h-5L55,51z" style="fill:#3E3E3F;"/></g></g></g></svg>