<?xml version="1.0" ?><!DOCTYPE svg  PUBLIC '-//W3C//DTD SVG 1.0//EN'  'http://www.w3.org/TR/2001/REC-SVG-20010904/DTD/svg10.dtd'><svg height="269px" style="shape-rendering:geometricPrecision; text-rendering:geometricPrecision; image-rendering:optimizeQuality; fill-rule:evenodd; clip-rule:evenodd" version="1.0" viewBox="0 0 54028 54080" width="268px" xml:space="preserve" xmlns="http://www.w3.org/2000/svg" xmlns:xlink="http://www.w3.org/1999/xlink"><defs><style type="text/css">
   <![CDATA[
    .fil6 {fill:#54892E}
    .fil4 {fill:#689D38}
    .fil0 {fill:#B1E3FB}
    .fil5 {fill:#EDEDED}
    .fil3 {fill:white}
    .fil2 {fill:#54892E;fill-rule:nonzero}
    .fil1 {fill:#9BCB64;fill-rule:nonzero}
    .fil7 {fill:#FFED58;fill-rule:nonzero}
   ]]>
  </style></defs><g id="Layer_x0020_1"><g id="_439584432"><circle class="fil0" cx="27014" cy="27014" r="27014"/><polygon class="fil1" points="8666,38638 25122,3681 42547,38638 "/><polygon class="fil2" points="42547,38638 25122,3681 25122,38638 "/><path class="fil1" d="M31049 38638l15565 -26942 7176 11731c156,1174 237,2371 237,3587 0,4162 -942,8104 -2623,11624l-20356 0z"/><path class="fil2" d="M53790 23427l-7176 -11731 0 26942 4790 0c1681,-3521 2623,-7463 2623,-11624 0,-1216 -82,-2414 -237,-3587z"/><path class="fil1" d="M396 31641l11153 -19304 16481 26942 -25091 0c-1208,-2366 -2076,-4933 -2543,-7638z"/><polygon class="fil2" points="28030,39279 11549,12337 11549,39279 "/><path class="fil3" d="M19537 2115c1737,0 3145,1408 3145,3145 0,1737 -1408,3145 -3145,3145 -1737,0 -3145,-1408 -3145,-3145 0,-1737 1408,-3145 3145,-3145z"/><path class="fil4" d="M7608 34238l-876 -510 -1809 2570 -3127 122c3805,10309 13719,17660 25349,17660 11667,0 21606,-7396 25385,-17755l-170 95 -2690 -1889 -717 514 -3174 -2538 -1229 -161 -2927 806 -1228 -869 -1297 1029 -1681 -645 -1126 257 -1741 804 -580 932 -1741 835 -1277 114 -4047 2007 -3698 -1648 -1558 460 -922 -1445 -2765 739 -2150 -2088 -2833 -1124 -1553 603 -983 -832 -2833 1959z"/><path class="fil5" d="M11690 7367c280,0 544,67 777,184 253,-247 599,-400 981,-400 662,0 1217,458 1365,1074 331,99 596,349 717,670 40,-5 80,-6 121,-6 611,0 1107,496 1107,1107 0,612 -496,1107 -1107,1107 -191,0 -370,-48 -526,-133 -135,460 -559,796 -1063,796 -307,0 -586,-126 -786,-328 -201,203 -479,328 -787,328 -292,0 -558,-114 -756,-299 -202,221 -493,360 -817,360 -303,0 -577,-121 -777,-319 -92,20 -187,31 -284,31 -729,0 -1319,-591 -1319,-1319 0,-728 590,-1319 1319,-1319 39,0 79,2 118,6 94,-866 827,-1541 1718,-1541z"/><path class="fil5" d="M33926 7289c280,0 544,67 777,184 253,-247 599,-400 982,-400 662,0 1217,458 1365,1074 331,100 596,349 717,670 40,-4 80,-6 121,-6 611,0 1107,496 1107,1108 0,611 -496,1107 -1107,1107 -191,0 -370,-48 -526,-133 -135,460 -560,796 -1063,796 -307,0 -586,-126 -786,-328 -201,203 -479,328 -787,328 -292,0 -558,-114 -756,-299 -202,221 -493,360 -817,360 -303,0 -577,-121 -777,-319 -91,20 -187,31 -284,31 -729,0 -1319,-591 -1319,-1319 0,-728 591,-1319 1319,-1319 40,0 79,2 118,6 94,-866 827,-1541 1718,-1541z"/><path class="fil6" d="M9533 47607c13,-6 26,-12 39,-18l99 -1643 2598 2023 99 -1643 106 -48 112 -50 2586 -1150c3944,-1731 8294,-3558 12629,-5222l247 -1532 2381 1991 247 -1532 703 -262c771,-279 1539,-551 2300,-814l39 -14 297 -102 503 -926 1909 893 503 -926 59 -19 152 -50c177,-56 354,-111 530,-165l80 -25 517 -970 1912 1086 517 -971 155 -45 150 -44c90,-24 181,-48 271,-72l2818 -986 61 -21 59 -21 58 -21 395 -1140 1988 2459 264 -764 349 -1188 2029 1420 349 -1188 848 -20c411,9 799,35 1163,81 500,63 966,142 1407,233 -3147,11430 -13615,19827 -26045,19827 -6032,0 -11601,-1978 -16096,-5320l-1308 -1036c-25,-21 -51,-43 -76,-64z"/><g><path class="fil7" d="M33136 33008c-687,-829 -657,-1916 -562,-2545 39,-170 75,-340 110,-509l0 0 0 0c101,-492 195,-981 348,-1471 89,-285 -116,-1117 -181,-1309 -155,-459 -465,-573 -782,-847 -433,-374 -954,-495 -1495,-480 -509,14 -1020,-24 -1530,-51 -61,-3 -137,-78 -170,-139 -44,-81 -68,-179 -75,-272 -8,-91 -20,-223 31,-269 144,-129 307,-279 484,-316 244,-51 441,-82 611,-313 195,-266 204,-583 -110,-664 -316,-81 -408,-371 -638,-519 -26,-17 -34,-102 -16,-138 71,-143 43,-253 -122,-354 91,-24 147,-32 196,-54 161,-73 346,-122 474,-235 219,-194 422,-414 591,-652 143,-201 261,-401 520,-471 74,-20 145,-87 195,-151 313,-393 620,-790 926,-1188 46,-60 78,-133 106,-204 136,-344 56,-664 -110,-974 -27,80 -25,159 -27,237 -3,127 14,259 -16,379 -195,776 -797,1083 -1455,1216 -148,30 -163,-51 -120,-170 121,-337 224,-682 363,-1012 106,-251 219,-516 395,-716 499,-567 473,-1168 203,-1808 -17,-40 -25,-84 -38,-126 -108,111 -93,216 -88,294 13,236 48,472 38,707 -9,213 -78,416 -277,542 -114,72 -184,78 -236,-82 -117,-359 -256,-710 -391,-1062 -23,-60 -76,-110 -115,-164 -49,72 -57,121 -55,170 11,262 26,524 36,786 6,149 12,296 -163,374 -30,14 -48,95 -44,142 21,222 -134,349 -346,275 -72,-25 -189,-66 -259,-97 -544,-293 -903,-806 -1387,-1179 3,73 25,130 60,176 398,509 797,1017 1339,1387 161,110 322,201 532,180 206,-21 254,27 233,239 -67,682 -311,1243 -996,1540 -252,109 -473,296 -693,468 -262,205 -567,253 -877,280 -67,6 -162,-54 -204,-112 -20,-28 38,-140 87,-185 261,-237 373,-547 444,-876 47,-217 -1,-422 -134,-605 -18,32 -24,63 -17,90 122,470 -256,1028 -669,1199 -173,72 -329,70 -500,4 -117,-45 -243,-74 -368,-86 -107,-10 -150,-52 -185,-153 -62,-172 -147,-440 -225,-606 -24,10 -83,25 -77,135 39,129 71,260 120,385 54,138 29,222 -130,206 -630,-61 -1241,-189 -1768,-571 -45,-33 -93,-76 -114,-126 -133,-310 -292,-614 -256,-971 8,-83 -10,-169 -17,-253 -25,-70 -58,-64 -86,-66 -26,263 -51,586 -78,849 -20,1 -40,3 -61,5 -414,-433 -719,-921 -668,-1555 34,-419 110,-835 169,-1252 19,-131 44,-262 67,-392 -24,-8 -48,-15 -73,-23 -76,179 -152,357 -226,537 -77,189 -144,382 -232,566 -23,47 -121,104 -161,89 -318,-116 -583,-285 -595,-679 -6,-195 17,-336 -2,-531 -16,-107 -84,-140 -100,-145 -29,95 -84,267 -80,361 10,293 35,586 70,877 21,177 34,543 71,718 -520,-240 -477,-874 -765,-1206 -12,230 -25,463 43,669 138,415 391,759 762,1009 61,41 110,104 159,161 81,96 146,208 238,293 263,241 547,460 804,708 797,769 1735,1233 2839,1356 317,35 349,97 280,413 -70,321 -113,645 87,946 25,37 30,101 18,146 -76,282 -160,562 -239,843 -70,245 -146,489 -204,737 -112,477 -214,956 -316,1436 -17,79 -15,164 -10,245 25,344 65,686 80,1030 21,485 19,970 41,1454 12,262 41,524 86,781 60,346 145,678 416,946 251,249 380,561 361,938 -10,205 56,417 109,620 86,333 232,656 275,994 59,473 44,955 67,1433 8,159 38,317 59,475 11,82 33,164 33,246 0,101 -2,201 -3,301 -14,312 -48,1008 -78,1163 0,0 -252,240 -252,461l490 0c0,0 23,-231 144,-423 0,0 52,-988 155,-1510l-2 1c5,-32 10,-63 14,-96 34,-265 139,-524 147,-789 20,-619 -1,-1240 0,-1860 0,-134 21,-267 30,-400 10,-148 127,-600 750,-650 247,-48 524,123 554,369 49,406 77,815 92,1223 7,195 -31,393 -61,587 -39,251 -145,503 -13,750 199,373 82,783 124,1187 -14,318 -46,996 -72,1149 0,0 -220,240 -220,461l432 0c0,0 25,-231 131,-423 0,0 27,-658 86,-1184 5,-2 9,-5 12,-7 0,-1 -5,-2 -11,-3 13,-115 27,-223 44,-316l-10 4c46,-219 98,-523 91,-978 -10,-601 127,-1166 271,-1735 11,-44 50,-80 76,-119 38,29 85,52 112,90 137,184 253,388 407,556 368,402 940,911 1040,1460 12,69 41,171 63,263 1,944 -197,1909 -197,1909 -269,208 -461,483 -461,483l653 0c58,-346 151,-330 151,-330 0,0 111,-425 237,-999l7 7c5,-34 9,-65 12,-96 204,-945 435,-2236 292,-2727 3,-20 7,-40 10,-59 53,124 115,242 187,349 608,906 102,3372 102,3372 -269,208 -461,483 -461,483l653 0c58,-346 151,-330 151,-330 0,0 901,-3448 481,-3954zm-2112 -12107l0 0c-70,308 -631,435 -935,292 305,-95 610,-190 935,-292zm-1209 745l0 0c-325,102 -649,204 -1008,317 92,-293 703,-484 1008,-317z"/></g><path class="fil3" d="M11146 27533l0 -1232 3268 0c157,-3590 1676,-6827 4054,-9205 2378,-2378 5615,-3897 9205,-4054l0 -3268 1232 0 0 3268c3590,157 6827,1676 9205,4054 2378,2378 3897,5615 4054,9205l3268 0 0 1232 -3268 0c-157,3590 -1676,6827 -4054,9205 -2378,2378 -5615,3897 -9205,4054l0 3268 -1232 0 0 -3268c-3590,-157 -6827,-1676 -9205,-4054 -2378,-2378 -3897,-5615 -4054,-9205l-3268 0zm17759 -13301l0 3659 -1232 0 0 -3659c-3262,156 -6202,1542 -8365,3705 -2163,2163 -3549,5103 -3705,8364l3659 0 0 1232 -3659 0c156,3262 1542,6202 3705,8365 2163,2163 5103,3549 8364,3705l0 -3659 1232 0 0 3659c3262,-156 6202,-1542 8365,-3705 2163,-2163 3549,-5103 3705,-8364l-3659 0 0 -1232 3659 0c-156,-3262 -1542,-6202 -3705,-8365 -2163,-2163 -5103,-3549 -8364,-3705z"/></g></g></svg>