<?xml version="1.0" ?><!DOCTYPE svg  PUBLIC '-//W3C//DTD SVG 1.1//EN'  'http://www.w3.org/Graphics/SVG/1.1/DTD/svg11.dtd'><svg enable-background="new 0 0 256 256" id="Layer_1" version="1.1" viewBox="0 0 256 256" xml:space="preserve" xmlns="http://www.w3.org/2000/svg" xmlns:xlink="http://www.w3.org/1999/xlink"><g><path d="M128,1C57.9,1,1,57.9,1,128c0,32.8,12.4,62.6,32.8,85.1C57,238.8,90.6,255,128,255   c37.4,0,71-16.2,94.2-41.9c20.4-22.5,32.8-52.4,32.8-85.1C255,57.9,198.1,1,128,1z" fill="#E17D37"/><path d="M193.4,136.4c-2.8-9.1-7.1-16.1-12.8-20.8c-3.1-2.6-6.7-4.4-10.1-6.3c-1.1-0.6-2.3-1.2-3.3-1.8l-3.9,3.5   c1.6,1,3.3,1.8,4.9,2.7c3.4,1.8,6.5,3.4,9.3,5.7c4.9,4.1,8.7,10.2,11.2,18.4c4.1,13.3,3.9,27.6,3.7,41.5c0,1.4,1.1,2.5,2.5,2.5   c0,0,0,0,0,0c1.4,0,2.5-1.1,2.5-2.5C197.5,165.1,197.7,150.4,193.4,136.4z" fill="#0B2C48"/><path d="M180,84.8c-4.4-1.3-9.1,0-12.3,3.2l-10.8,10.8l-5.7,5.7L138,117.7c0,0-0.1,0.1-0.1,0.1c0,0-0.1,0.1-0.1,0.1   l-78.3,92.3c-1.3,1.5-1.2,3.8,0.2,5.3c1.4,1.4,3.7,1.5,5.3,0.2l92.3-78.3c0,0,0.1-0.1,0.1-0.1c0,0,0.1,0,0.1-0.1l29-29   C193.6,101.1,191.4,88.3,180,84.8z M181.6,102.1L154.8,129l-8.5-8.5l9.9-9.9l5.6-5.5c0,0,0,0,0,0l10.8-10.8c3.2-3.2,9.3-2,10.4,3.7   C183.2,99.4,182.7,101,181.6,102.1z" fill="#EDF0F2"/><path d="M162.3,104.4c-2-1.5-3.9-3.3-6.1-5.7c-13.7-15.2-20.1-36.3-17.3-56.5c0.2-1.4-0.8-2.6-2.1-2.8   c-1.4-0.2-2.6,0.8-2.8,2.1c-3,21.7,3.9,44.3,18.5,60.5c2.4,2.7,4.5,4.7,6.8,6.3c1.3,1,2.6,1.8,4,2.6l3.9-3.5   C165.4,106.5,163.8,105.6,162.3,104.4z" fill="#0B2C48"/></g></svg>