<?xml version="1.0" ?><svg id="Layer_1" style="enable-background:new 0 0 512 512;" version="1.1" viewBox="0 0 512 512" xml:space="preserve" xmlns="http://www.w3.org/2000/svg" xmlns:xlink="http://www.w3.org/1999/xlink"><style type="text/css">
	.st0{fill:#51647F;}
	.st1{fill:#FFFFFF;}
</style><g id="XMLID_223_"><circle class="st0" cx="256" cy="256" id="XMLID_11_" r="256"/><g id="XMLID_1613_"><g id="XMLID_2178_"><path class="st1" d="M256,202.1c-31.3,0-56.7,25.4-56.7,56.7c0,31.3,25.4,56.7,56.7,56.7s56.7-25.4,56.7-56.7     C312.7,227.5,287.3,202.1,256,202.1z M256,293.1c-18.9,0-34.3-15.4-34.3-34.3s15.4-34.3,34.3-34.3s34.3,15.4,34.3,34.3     S274.9,293.1,256,293.1z" id="XMLID_1684_"/><path class="st1" d="M385.2,149.7h-38.7c-0.5,0-0.9,0.4-0.9,0.9v3.4v6.3v6.4h40.6v-6.4V154v-3.4     C386.1,150.1,385.7,149.7,385.2,149.7z" id="XMLID_1675_"/><path class="st1" d="M96,186.4v144h320v-144H96z M164.5,204.6c-3.1,0-5.6-2.5-5.6-5.6c0-3.1,2.5-5.6,5.6-5.6     s5.6,2.5,5.6,5.6C170.1,202.1,167.6,204.6,164.5,204.6z M256,325.3c-36.7,0-66.5-29.8-66.5-66.5c0-36.7,29.8-66.5,66.5-66.5     s66.5,29.8,66.5,66.5C322.5,295.5,292.7,325.3,256,325.3z M401.5,222c0,0.8-0.6,1.4-1.4,1.4H357c-0.8,0-1.4-0.6-1.4-1.4v-25.1     c0-0.8,0.6-1.4,1.4-1.4h43.1c0.8,0,1.4,0.6,1.4,1.4V222z" id="XMLID_1682_"/></g><g id="XMLID_1567_"><polygon class="st1" id="XMLID_1616_" points="416,178 416,164.2 314.3,164.2 314.3,149.7 109.4,149.7 99,178    "/><polygon class="st1" id="XMLID_1617_" points="98.3,338.8 108.1,362.3 403.9,362.3 413.7,338.8    "/></g></g></g></svg>