<?xml version="1.0" ?><!DOCTYPE svg  PUBLIC '-//W3C//DTD SVG 1.1//EN'  'http://www.w3.org/Graphics/SVG/1.1/DTD/svg11.dtd'><svg enable-background="new 0 0 512 512" height="512px" id="Layer_1" version="1.1" viewBox="0 0 512 512" width="512px" xml:space="preserve" xmlns="http://www.w3.org/2000/svg" xmlns:xlink="http://www.w3.org/1999/xlink"><g><path clip-rule="evenodd" d="M255.981,512C396.991,512,512,396.991,512,255.981   C512,115.008,396.991,0,255.981,0C115.009,0,0,115.008,0,255.981C0,396.991,115.009,512,255.981,512L255.981,512z" fill="#46BC9E" fill-rule="evenodd"/><path clip-rule="evenodd" d="M94.146,85.263h323.708c4.839,0,8.882,4.044,8.882,8.882v323.709   c0,4.837-4.043,8.88-8.882,8.88H94.146c-4.837,0-8.881-4.043-8.881-8.88V94.145C85.264,89.308,89.309,85.263,94.146,85.263   L94.146,85.263z" fill="#CC4D2C" fill-rule="evenodd"/><path clip-rule="evenodd" d="M94.146,174.76v231.415c0,4.837,4.233,8.655,9.26,8.655h27.817   c5.027,0,9.07-3.818,9.26-8.467c0,4.648,4.233,8.467,9.297,8.467h27.59c5.064,0,9.297-3.818,9.297-8.467   c0,4.648,4.233,8.467,9.259,8.467h27.816c5.027,0,9.071-3.818,9.071-8.467c0.188,4.648,4.233,8.467,9.26,8.467h27.816   c5.064,0,9.07-3.818,9.298-8.467c0,4.648,4.231,8.467,9.26,8.467h27.627c5.027,0,9.259-3.818,9.259-8.467   c0,4.648,4.233,8.467,9.261,8.467h27.816c5.064,0,9.071-3.818,9.071-8.467c0.226,4.648,4.231,8.467,9.297,8.467h27.816   c5.026,0,9.259-3.818,9.259-8.655V174.76C310.028,174.76,202.162,174.76,94.146,174.76L94.146,174.76z" fill="#95A4A5" fill-rule="evenodd"/><path clip-rule="evenodd" d="M417.854,174.76v-62.474c0-4.837-4.006-8.882-9.07-8.882H103.217   c-5.064,0-9.071,4.044-9.071,8.882v62.474C202.162,174.76,310.028,174.76,417.854,174.76L417.854,174.76z" fill="#E1792F" fill-rule="evenodd"/><path clip-rule="evenodd" d="M163.876,128.387c2.419,0,4.233,2.041,4.233,4.233   c0,2.419-1.814,4.232-4.233,4.232c-2.419,0-4.233-1.813-4.233-4.232C159.643,130.427,161.457,128.387,163.876,128.387   L163.876,128.387z M348.123,141.313c-2.417,0-4.232,1.814-4.232,4.233c0,2.192,1.815,4.232,4.232,4.232   c2.419,0,4.233-2.041,4.233-4.232C352.357,143.127,350.542,141.313,348.123,141.313L348.123,141.313z M348.123,128.387   c-2.417,0-4.232,2.041-4.232,4.233c0,2.419,1.815,4.232,4.232,4.232c2.419,0,4.233-1.813,4.233-4.232   C352.357,130.427,350.542,128.387,348.123,128.387L348.123,128.387z M336.635,147.549c2.418,0,4.231,2.003,4.231,4.233   c0,2.419-1.813,4.233-4.231,4.233c-2.419,0-4.233-1.814-4.233-4.233C332.402,149.552,334.216,147.549,336.635,147.549   L336.635,147.549z M336.635,134.85c2.418,0,4.231,1.814,4.231,4.233s-1.813,4.232-4.231,4.232c-2.419,0-4.233-1.813-4.233-4.232   S334.216,134.85,336.635,134.85L336.635,134.85z M336.635,121.962c2.418,0,4.231,2.003,4.231,4.422c0,2.23-1.813,4.232-4.231,4.232   c-2.419,0-4.233-2.002-4.233-4.232C332.402,123.965,334.216,121.962,336.635,121.962L336.635,121.962z M325.145,154.011   c-2.418,0-4.232,1.814-4.232,4.233c0,2.419,1.814,4.233,4.232,4.233c2.419,0,4.232-1.814,4.232-4.233   C329.377,155.826,327.564,154.011,325.145,154.011L325.145,154.011z M325.145,141.313c-2.418,0-4.232,1.814-4.232,4.233   c0,2.192,1.814,4.232,4.232,4.232c2.419,0,4.232-2.041,4.232-4.232C329.377,143.127,327.564,141.313,325.145,141.313   L325.145,141.313z M325.145,128.387c-2.418,0-4.232,2.041-4.232,4.233c0,2.419,1.814,4.232,4.232,4.232   c2.419,0,4.232-1.813,4.232-4.232C329.377,130.427,327.564,128.387,325.145,128.387L325.145,128.387z M325.145,115.688   c-2.418,0-4.232,1.814-4.232,4.233s1.814,4.232,4.232,4.232c2.419,0,4.232-1.813,4.232-4.232S327.564,115.688,325.145,115.688   L325.145,115.688z M313.656,147.549c2.228,0,4.232,2.003,4.232,4.233c0,2.419-2.005,4.233-4.232,4.233   c-2.42,0-4.234-1.814-4.234-4.233C309.422,149.552,311.237,147.549,313.656,147.549L313.656,147.549z M313.656,134.85   c2.228,0,4.232,1.814,4.232,4.233s-2.005,4.232-4.232,4.232c-2.42,0-4.234-1.813-4.234-4.232S311.237,134.85,313.656,134.85   L313.656,134.85z M313.656,121.962c2.228,0,4.232,2.003,4.232,4.422c0,2.23-2.005,4.232-4.232,4.232   c-2.42,0-4.234-2.002-4.234-4.232C309.422,123.965,311.237,121.962,313.656,121.962L313.656,121.962z M302.165,154.011   c2.23,0,4.233,1.814,4.233,4.233c0,2.419-2.003,4.233-4.233,4.233c-2.417,0-4.458-1.814-4.458-4.233   C297.707,155.826,299.748,154.011,302.165,154.011L302.165,154.011z M302.165,141.313c2.23,0,4.233,1.814,4.233,4.233   c0,2.192-2.003,4.232-4.233,4.232c-2.417,0-4.458-2.041-4.458-4.232C297.707,143.127,299.748,141.313,302.165,141.313   L302.165,141.313z M302.165,128.387c2.23,0,4.233,2.041,4.233,4.233c0,2.419-2.003,4.232-4.233,4.232   c-2.417,0-4.458-1.813-4.458-4.232C297.707,130.427,299.748,128.387,302.165,128.387L302.165,128.387z M302.165,115.688   c2.23,0,4.233,1.814,4.233,4.233s-2.003,4.232-4.233,4.232c-2.417,0-4.458-1.813-4.458-4.232S299.748,115.688,302.165,115.688   L302.165,115.688z M290.449,147.549c2.456,0,4.46,2.003,4.46,4.233c0,2.419-2.004,4.233-4.46,4.233   c-2.191,0-4.232-1.814-4.232-4.233C286.217,149.552,288.258,147.549,290.449,147.549L290.449,147.549z M290.449,134.85   c2.456,0,4.46,1.814,4.46,4.233s-2.004,4.232-4.46,4.232c-2.191,0-4.232-1.813-4.232-4.232S288.258,134.85,290.449,134.85   L290.449,134.85z M290.449,121.962c2.456,0,4.46,2.003,4.46,4.422c0,2.23-2.004,4.232-4.46,4.232c-2.191,0-4.232-2.002-4.232-4.232   C286.217,123.965,288.258,121.962,290.449,121.962L290.449,121.962z M278.96,154.011c-2.192,0-4.195,1.814-4.195,4.233   c0,2.419,2.003,4.233,4.195,4.233c2.457,0,4.233-1.814,4.233-4.233C283.194,155.826,281.417,154.011,278.96,154.011L278.96,154.011   z M278.96,141.313c-2.192,0-4.195,1.814-4.195,4.233c0,2.192,2.003,4.232,4.195,4.232c2.457,0,4.233-2.041,4.233-4.232   C283.194,143.127,281.417,141.313,278.96,141.313L278.96,141.313z M278.96,128.387c-2.192,0-4.195,2.041-4.195,4.233   c0,2.419,2.003,4.232,4.195,4.232c2.457,0,4.233-1.813,4.233-4.232C283.194,130.427,281.417,128.387,278.96,128.387L278.96,128.387   z M278.96,115.688c-2.192,0-4.195,1.814-4.195,4.233s2.003,4.232,4.195,4.232c2.457,0,4.233-1.813,4.233-4.232   S281.417,115.688,278.96,115.688L278.96,115.688z M267.471,147.549c2.457,0,4.234,2.003,4.234,4.233   c0,2.419-1.777,4.233-4.234,4.233c-2.192,0-4.233-1.814-4.233-4.233C263.238,149.552,265.279,147.549,267.471,147.549   L267.471,147.549z M267.471,134.85c2.457,0,4.234,1.814,4.234,4.233s-1.777,4.232-4.234,4.232c-2.192,0-4.233-1.813-4.233-4.232   S265.279,134.85,267.471,134.85L267.471,134.85z M267.471,121.962c2.457,0,4.234,2.003,4.234,4.422c0,2.23-1.777,4.232-4.234,4.232   c-2.192,0-4.233-2.002-4.233-4.232C263.238,123.965,265.279,121.962,267.471,121.962L267.471,121.962z M256.02,154.011   c2.418,0,4.195,1.814,4.195,4.233c0,2.419-1.777,4.233-4.195,4.233c-2.457,0-4.271-1.814-4.271-4.233   C251.748,155.826,253.563,154.011,256.02,154.011L256.02,154.011z M256.02,141.313c2.418,0,4.195,1.814,4.195,4.233   c0,2.192-1.777,4.232-4.195,4.232c-2.457,0-4.271-2.041-4.271-4.232C251.748,143.127,253.563,141.313,256.02,141.313   L256.02,141.313z M256.02,128.387c2.418,0,4.195,2.041,4.195,4.233c0,2.419-1.777,4.232-4.195,4.232   c-2.457,0-4.271-1.813-4.271-4.232C251.748,130.427,253.563,128.387,256.02,128.387L256.02,128.387z M256.02,115.688   c2.418,0,4.195,1.814,4.195,4.233s-1.777,4.232-4.195,4.232c-2.457,0-4.271-1.813-4.271-4.232S253.563,115.688,256.02,115.688   L256.02,115.688z M244.491,147.549c2.457,0,4.233,2.003,4.233,4.233c0,2.419-1.776,4.233-4.233,4.233   c-2.418,0-4.232-1.814-4.232-4.233C240.259,149.552,242.073,147.549,244.491,147.549L244.491,147.549z M244.491,134.85   c2.457,0,4.233,1.814,4.233,4.233s-1.776,4.232-4.233,4.232c-2.418,0-4.232-1.813-4.232-4.232S242.073,134.85,244.491,134.85   L244.491,134.85z M244.491,121.962c2.457,0,4.233,2.003,4.233,4.422c0,2.23-1.776,4.232-4.233,4.232   c-2.418,0-4.232-2.002-4.232-4.232C240.259,123.965,242.073,121.962,244.491,121.962L244.491,121.962z M233.002,154.011   c-2.418,0-4.233,1.814-4.233,4.233c0,2.419,1.814,4.233,4.233,4.233c2.457,0,4.233-1.814,4.233-4.233   C237.235,155.826,235.459,154.011,233.002,154.011L233.002,154.011z M233.002,141.313c-2.418,0-4.233,1.814-4.233,4.233   c0,2.192,1.814,4.232,4.233,4.232c2.457,0,4.233-2.041,4.233-4.232C237.235,143.127,235.459,141.313,233.002,141.313   L233.002,141.313z M233.002,128.387c-2.418,0-4.233,2.041-4.233,4.233c0,2.419,1.814,4.232,4.233,4.232   c2.457,0,4.233-1.813,4.233-4.232C237.235,130.427,235.459,128.387,233.002,128.387L233.002,128.387z M233.002,115.688   c-2.418,0-4.233,1.814-4.233,4.233s1.814,4.232,4.233,4.232c2.457,0,4.233-1.813,4.233-4.232S235.459,115.688,233.002,115.688   L233.002,115.688z M221.512,147.549c2.23,0,4.233,2.003,4.233,4.233c0,2.419-2.003,4.233-4.233,4.233   c-2.418,0-4.232-1.814-4.232-4.233C217.28,149.552,219.094,147.549,221.512,147.549L221.512,147.549z M221.512,134.85   c2.23,0,4.233,1.814,4.233,4.233s-2.003,4.232-4.233,4.232c-2.418,0-4.232-1.813-4.232-4.232S219.094,134.85,221.512,134.85   L221.512,134.85z M221.512,121.962c2.23,0,4.233,2.003,4.233,4.422c0,2.23-2.003,4.232-4.233,4.232   c-2.418,0-4.232-2.002-4.232-4.232C217.28,123.965,219.094,121.962,221.512,121.962L221.512,121.962z M210.023,154.011   c2.23,0,4.233,1.814,4.233,4.233c0,2.419-2.003,4.233-4.233,4.233c-2.418,0-4.233-1.814-4.233-4.233   C205.79,155.826,207.605,154.011,210.023,154.011L210.023,154.011z M210.023,141.313c2.23,0,4.233,1.814,4.233,4.233   c0,2.192-2.003,4.232-4.233,4.232c-2.418,0-4.233-2.041-4.233-4.232C205.79,143.127,207.605,141.313,210.023,141.313   L210.023,141.313z M210.023,128.387c2.23,0,4.233,2.041,4.233,4.233c0,2.419-2.003,4.232-4.233,4.232   c-2.418,0-4.233-1.813-4.233-4.232C205.79,130.427,207.605,128.387,210.023,128.387L210.023,128.387z M210.023,115.688   c2.23,0,4.233,1.814,4.233,4.233s-2.003,4.232-4.233,4.232c-2.418,0-4.233-1.813-4.233-4.232S207.605,115.688,210.023,115.688   L210.023,115.688z M198.533,147.549c2.23,0,4.234,2.003,4.234,4.233c0,2.419-2.004,4.233-4.234,4.233   c-2.418,0-4.421-1.814-4.421-4.233C194.113,149.552,196.115,147.549,198.533,147.549L198.533,147.549z M198.533,134.85   c2.23,0,4.234,1.814,4.234,4.233s-2.004,4.232-4.234,4.232c-2.418,0-4.421-1.813-4.421-4.232S196.115,134.85,198.533,134.85   L198.533,134.85z M198.533,121.962c2.23,0,4.234,2.003,4.234,4.422c0,2.23-2.004,4.232-4.234,4.232   c-2.418,0-4.421-2.002-4.421-4.232C194.113,123.965,196.115,121.962,198.533,121.962L198.533,121.962z M186.856,154.011   c-2.23,0-4.233,1.814-4.233,4.233c0,2.419,2.003,4.233,4.233,4.233c2.418,0,4.422-1.814,4.422-4.233   C191.278,155.826,189.274,154.011,186.856,154.011L186.856,154.011z M186.856,141.313c-2.23,0-4.233,1.814-4.233,4.233   c0,2.192,2.003,4.232,4.233,4.232c2.418,0,4.422-2.041,4.422-4.232C191.278,143.127,189.274,141.313,186.856,141.313   L186.856,141.313z M186.856,128.387c-2.23,0-4.233,2.041-4.233,4.233c0,2.419,2.003,4.232,4.233,4.232   c2.418,0,4.422-1.813,4.422-4.232C191.278,130.427,189.274,128.387,186.856,128.387L186.856,128.387z M186.856,115.688   c-2.23,0-4.233,1.814-4.233,4.233s2.003,4.232,4.233,4.232c2.418,0,4.422-1.813,4.422-4.232S189.274,115.688,186.856,115.688   L186.856,115.688z M175.366,147.549c2.419,0,4.233,2.003,4.233,4.233c0,2.419-1.813,4.233-4.233,4.233   c-2.23,0-4.233-1.814-4.233-4.233C171.133,149.552,173.136,147.549,175.366,147.549L175.366,147.549z M175.366,134.85   c2.419,0,4.233,1.814,4.233,4.233s-1.813,4.232-4.233,4.232c-2.23,0-4.233-1.813-4.233-4.232S173.136,134.85,175.366,134.85   L175.366,134.85z M175.366,121.962c2.419,0,4.233,2.003,4.233,4.422c0,2.23-1.813,4.232-4.233,4.232   c-2.23,0-4.233-2.002-4.233-4.232C171.133,123.965,173.136,121.962,175.366,121.962L175.366,121.962z M163.876,141.313   c2.419,0,4.233,1.814,4.233,4.233c0,2.192-1.814,4.232-4.233,4.232c-2.419,0-4.233-2.041-4.233-4.232   C159.643,143.127,161.457,141.313,163.876,141.313L163.876,141.313z" fill="#CC4D2C" fill-rule="evenodd"/><path clip-rule="evenodd" d="M114.291,149.778h26.418c5.821,0,10.658-4.837,10.658-10.695l0,0   c0-5.858-4.837-10.696-10.658-10.696h-26.418c-5.859,0-10.696,4.837-10.696,10.696l0,0   C103.595,144.941,108.432,149.778,114.291,149.778L114.291,149.778z M371.291,149.778h26.607c5.859,0,10.508-4.837,10.508-10.695   l0,0c0-5.858-4.648-10.696-10.508-10.696h-26.607c-5.858,0-10.694,4.837-10.694,10.696l0,0   C360.597,144.941,365.433,149.778,371.291,149.778L371.291,149.778z" fill="#CC4D2C" fill-rule="evenodd"/><path clip-rule="evenodd" d="M94.146,174.76v225.744c0,4.651,3.818,8.468,8.655,8.468h25.397   c4.838,0,8.655-3.816,8.655-8.468V174.76C122.568,174.76,108.432,174.76,94.146,174.76L94.146,174.76z" fill="#EDF0F0" fill-rule="evenodd"/><path clip-rule="evenodd" d="M141.087,174.76v225.744c0,4.651,3.854,8.468,8.465,8.468h25.625   c4.611,0,8.466-3.816,8.466-8.468V174.76C169.509,174.76,155.222,174.76,141.087,174.76L141.087,174.76z" fill="#EDF0F0" fill-rule="evenodd"/><path clip-rule="evenodd" d="M187.875,174.76v225.744c0,4.651,3.818,8.468,8.467,8.468h25.586   c4.649,0,8.466-3.816,8.466-8.468V174.76C216.297,174.76,202.162,174.76,187.875,174.76L187.875,174.76z" fill="#EDF0F0" fill-rule="evenodd"/><path clip-rule="evenodd" d="M234.854,174.76v225.744c0,4.651,3.628,8.468,8.466,8.468h25.359   c4.837,0,8.693-3.816,8.693-8.468V174.76C263.049,174.76,248.952,174.76,234.854,174.76L234.854,174.76z" fill="#EDF0F0" fill-rule="evenodd"/><path clip-rule="evenodd" d="M281.606,174.76v225.744c0,4.651,3.817,8.468,8.465,8.468h25.588   c4.648,0,8.466-3.816,8.466-8.468V174.76C310.028,174.76,295.703,174.76,281.606,174.76L281.606,174.76z" fill="#EDF0F0" fill-rule="evenodd"/><path clip-rule="evenodd" d="M328.358,174.76v225.744c0,4.651,3.817,8.468,8.465,8.468h25.626   c4.611,0,8.428-3.816,8.428-8.468V174.76C356.78,174.76,342.682,174.76,328.358,174.76L328.358,174.76z" fill="#EDF0F0" fill-rule="evenodd"/><path clip-rule="evenodd" d="M375.335,174.76v225.744c0,4.651,3.818,8.468,8.466,8.468h25.588   c4.649,0,8.465-3.816,8.465-8.468V174.76C403.568,174.76,389.433,174.76,375.335,174.76L375.335,174.76z" fill="#EDF0F0" fill-rule="evenodd"/><path clip-rule="evenodd" d="M149.552,174.76h-21.354v102.197c0,2.418,2.003,4.23,4.422,4.23   h12.699c2.418,0,4.233-1.813,4.233-4.23V174.76z" fill="#374A5D" fill-rule="evenodd"/><path clip-rule="evenodd" d="M196.343,174.76h-21.166v102.197c0,2.418,1.814,4.23,4.233,4.23   h12.7c2.418,0,4.233-1.813,4.233-4.23V174.76z" fill="#374A5D" fill-rule="evenodd"/><path clip-rule="evenodd" d="M290.071,174.76H268.68v102.197c0,2.418,2.041,4.23,4.46,4.23   h12.699c2.419,0,4.231-1.813,4.231-4.23V174.76z" fill="#374A5D" fill-rule="evenodd"/><path clip-rule="evenodd" d="M336.823,174.76h-21.164v102.197c0,2.418,1.814,4.23,4.233,4.23   h12.697c2.42,0,4.233-1.813,4.233-4.23V174.76L336.823,174.76z" fill="#374A5D" fill-rule="evenodd"/><path clip-rule="evenodd" d="M383.801,174.76h-21.353v102.197c0,2.418,2.002,4.23,4.232,4.23   h12.888c2.192,0,4.232-1.813,4.232-4.23V174.76z" fill="#374A5D" fill-rule="evenodd"/><polygon clip-rule="evenodd" fill="#BEC3C7" fill-rule="evenodd" points="128.198,186.439 128.198,174.76 103.217,174.76    94.146,174.76 94.146,186.439  "/><polygon clip-rule="evenodd" fill="#2F3F4F" fill-rule="evenodd" points="128.198,174.76 128.198,186.439 136.854,186.439    141.087,186.439 149.552,186.439 149.552,174.76 141.087,174.76 136.854,174.76  "/><rect clip-rule="evenodd" fill="#BEC3C7" fill-rule="evenodd" height="11.678" width="25.625" x="149.552" y="174.76"/><polygon clip-rule="evenodd" fill="#2F3F4F" fill-rule="evenodd" points="175.177,174.76 175.177,186.439 183.643,186.439    187.875,186.439 196.343,186.439 196.343,174.76 187.875,174.76 183.643,174.76  "/><rect clip-rule="evenodd" fill="#BEC3C7" fill-rule="evenodd" height="11.678" width="34.052" x="196.343" y="174.76"/><rect clip-rule="evenodd" fill="#BEC3C7" fill-rule="evenodd" height="11.678" width="33.863" x="234.817" y="174.76"/><polygon clip-rule="evenodd" fill="#2F3F4F" fill-rule="evenodd" points="268.68,174.76 268.68,186.439 277.373,186.439    281.606,186.439 290.071,186.439 290.071,174.76 281.606,174.76 277.373,174.76  "/><rect clip-rule="evenodd" fill="#BEC3C7" fill-rule="evenodd" height="11.678" width="25.588" x="290.071" y="174.76"/><polygon clip-rule="evenodd" fill="#2F3F4F" fill-rule="evenodd" points="315.658,174.76 315.658,186.439 324.124,186.439    328.358,186.439 336.823,186.439 336.823,174.76 328.358,174.76 324.124,174.76  "/><rect clip-rule="evenodd" fill="#BEC3C7" fill-rule="evenodd" height="11.678" width="25.626" x="336.823" y="174.76"/><polygon clip-rule="evenodd" fill="#2F3F4F" fill-rule="evenodd" points="362.448,174.76 362.448,186.439 370.876,186.439    375.335,186.439 383.801,186.439 383.801,174.76 375.335,174.76 370.876,174.76  "/><polygon clip-rule="evenodd" fill="#BEC3C7" fill-rule="evenodd" points="383.801,174.76 383.801,186.439 417.854,186.439    417.854,174.76 408.783,174.76  "/><rect clip-rule="evenodd" fill="#808B8D" fill-rule="evenodd" height="11.678" width="4.46" x="230.394" y="174.76"/></g></svg>