<?xml version="1.0" ?><!DOCTYPE svg  PUBLIC '-//W3C//DTD SVG 1.1//EN'  'http://www.w3.org/Graphics/SVG/1.1/DTD/svg11.dtd'><svg height="202px" style="shape-rendering:geometricPrecision; text-rendering:geometricPrecision; image-rendering:optimizeQuality; fill-rule:evenodd; clip-rule:evenodd" version="1.1" viewBox="0 0 2808 2808" width="202px" xml:space="preserve" xmlns="http://www.w3.org/2000/svg" xmlns:xlink="http://www.w3.org/1999/xlink"><defs><style type="text/css">
   <![CDATA[
    .fil2 {fill:#5FDC68}
    .fil0 {fill:#6B7F9E}
    .fil4 {fill:#F7635B}
    .fil1 {fill:#FF7069}
    .fil3 {fill:#FFE356;fill-rule:nonzero}
   ]]>
  </style></defs><g id="Layer_x0020_1"><g id="_657996048"><circle class="fil0" cx="1404" cy="1404" r="1404"/><path class="fil1" d="M584 2544c12,-3 25,-5 38,-5 46,0 87,22 112,57 18,-64 76,-111 146,-111 13,0 26,2 38,5 10,-72 72,-128 147,-128 52,0 99,27 125,68 30,-28 70,-45 114,-45 53,0 99,25 129,63 27,-69 94,-119 173,-119 96,0 175,73 184,166 8,-2 17,-2 26,-2 44,0 84,22 107,56 26,-20 59,-32 94,-32 57,0 106,30 134,76 -109,69 -229,123 -356,160 -44,-7 -81,-36 -99,-76 -27,15 -57,23 -90,23 -63,0 -119,-32 -153,-81 -26,56 -83,95 -150,95 -63,0 -118,-36 -146,-88 -25,20 -58,32 -93,32 -12,0 -24,-1 -35,-4 -4,35 -21,67 -45,90 -145,-45 -280,-114 -401,-200zm969 256c-49,5 -99,8 -149,8l-1 0c11,-31 42,-54 77,-54 32,0 60,19 73,46zm-322 -3c-26,-3 -52,-7 -78,-12 1,-21 19,-37 39,-37 22,0 40,18 40,40 0,3 0,6 -1,9z"/><g><path class="fil2" d="M2161 435c-1461,-117 -1065,1243 -383,819 313,-194 207,-692 383,-819z"/><path class="fil2" d="M553 1126c944,-133 739,684 317,458 -207,-111 -193,-396 -317,-458z"/><path class="fil3" d="M1313 1908l-23 1c-84,-576 -485,-621 -486,-622 289,45 487,257 509,620z"/><path class="fil2" d="M2074 1511c-944,-133 -739,684 -317,458 207,-111 193,-396 317,-458z"/><path class="fil3" d="M1290 2194l23 4c162,-586 584,-581 586,-581 -306,9 -539,203 -609,577z"/><path class="fil3" d="M2004 496c-791,133 -646,1419 -631,1996l-95 30c-24,-539 -101,-1940 726,-2026z"/></g><path class="fil4" d="M661 2595c40,4 74,24 97,54 17,-62 74,-108 141,-108 13,0 25,2 37,5 10,-70 70,-124 142,-124 51,0 96,26 121,66 29,-27 67,-44 110,-44 51,0 96,24 125,61 26,-67 91,-115 168,-115 93,0 169,70 179,161 8,-2 16,-2 25,-2 43,0 81,21 104,54 25,-19 57,-31 91,-31 42,0 80,17 108,45 -207,120 -448,189 -705,189 -273,0 -528,-78 -743,-213z"/></g></g></svg>