<?xml version="1.0" ?><svg enable-background="new 0 0 128 128" id="Layer_1" version="1.1" viewBox="0 0 128 128" xml:space="preserve" xmlns="http://www.w3.org/2000/svg" xmlns:xlink="http://www.w3.org/1999/xlink"><g><circle cx="64" cy="64" fill="#EF4438" r="63.5"/><g><path d="M103.6,100.4c-2.8,0-5.1-2.3-5.1-5.1c0-2.8,2.3-5.1,5.1-5.1c0,0,0,0,0.1,0v-5.6c0,0,0,0-0.1,0    c-2.8,0-5.1-2.3-5.1-5.1c0-2.8,2.3-5.1,5.1-5.1c0,0,0,0,0.1,0V69c0,0,0,0-0.1,0c-2.8,0-5.1-2.3-5.1-5.1c0-2.8,2.3-5.1,5.1-5.1    c0,0,0,0,0.1,0v-5.6c0,0,0,0-0.1,0c-2.8,0-5.1-2.3-5.1-5.1c0-2.8,2.3-5.1,5.1-5.1c0,0,0,0,0.1,0v-5.6c0,0,0,0-0.1,0    c-2.8,0-5.1-2.3-5.1-5.1c0-2.8,2.3-5.1,5.1-5.1c0,0,0,0,0.1,0v-3.3h-3.3c0,2.8-2.3,5.1-5.1,5.1s-5.1-2.3-5.1-5.1h-5.6    c0,2.8-2.3,5.1-5.1,5.1c-2.8,0-5.1-2.3-5.1-5.1h-5.6c0,2.8-2.3,5.1-5.1,5.1c-2.8,0-5.1-2.3-5.1-5.1h-5.6c0,2.8-2.3,5.1-5.1,5.1    c-2.8,0-5.1-2.3-5.1-5.1h-5.6c0,2.8-2.3,5.1-5.1,5.1c-2.8,0-5.1-2.3-5.1-5.1h-3.3v3.3c2.8,0,5.1,2.3,5.1,5.1    c0,2.8-2.3,5.1-5.1,5.1v5.6c2.8,0,5.1,2.3,5.1,5.1c0,2.8-2.3,5.1-5.1,5.1v5.6c2.8,0,5.1,2.3,5.1,5.1c0,2.8-2.3,5.1-5.1,5.1v5.6    c2.8,0,5.1,2.3,5.1,5.1c0,2.8-2.3,5.1-5.1,5.1v5.6c2.8,0,5.1,2.3,5.1,5.1c0,2.8-2.3,5.1-5.1,5.1v3.3h3.3c0-2.8,2.3-5.1,5.1-5.1    c2.8,0,5.1,2.3,5.1,5.1h5.6c0-2.8,2.3-5.1,5.1-5.1c2.8,0,5.1,2.3,5.1,5.1h5.6c0-2.8,2.3-5.1,5.1-5.1c2.8,0,5.1,2.3,5.1,5.1h5.6    c0-2.8,2.3-5.1,5.1-5.1c2.8,0,5.1,2.3,5.1,5.1h5.6c0-2.8,2.3-5.1,5.1-5.1s5.1,2.3,5.1,5.1h3.3L103.6,100.4    C103.7,100.4,103.6,100.4,103.6,100.4z" fill="#71B2E2"/><rect fill="#E3E6E8" height="59.5" width="59.5" x="34.2" y="34.2"/><g><path d="M80.4,78.8c-5.7,0-10.3-4.6-10.3-10.3s4.6-10.3,10.3-10.3s10.3,4.6,10.3,10.3S86,78.8,80.4,78.8z      M80.4,60.3c-4.6,0-8.3,3.7-8.3,8.3s3.7,8.3,8.3,8.3s8.3-3.7,8.3-8.3S84.9,60.3,80.4,60.3z" fill="#5C5D60"/></g><g><path d="M33.6,74c-0.9,0-1.8,0-2.7-0.1l0.1-2c2.3,0.1,4.6,0.3,6.7-0.5c1.2-0.4,2.2-1.1,3.3-1.7l0.6-0.3     c2.3-1.4,5.8-3.3,9.7-3.8c1.4-0.2,2.7-0.2,4.1-0.2c1.1,0,2.2,0,3.3-0.1c1.9-0.2,4.4-0.8,5.8-2.6l1.6,1.2     c-1.8,2.4-4.9,3.2-7.1,3.4c-1.2,0.1-2.3,0.1-3.5,0.1c-1.3,0-2.6,0-3.8,0.2c-2.7,0.4-5.5,1.5-8.9,3.6l-0.6,0.3     c-1.2,0.7-2.4,1.5-3.7,1.9C36.8,73.9,35.2,74,33.6,74z" fill="#5C5D60"/></g><g><path d="M33.6,81.6c-0.9,0-1.8,0-2.7-0.1l0.1-2c2.3,0.1,4.6,0.2,6.7-0.5c1.1-0.4,2.2-1.1,3.3-1.7l0.6-0.3     c2.3-1.4,5.8-3.3,9.7-3.8c1.4-0.2,2.7-0.2,4.1-0.2c1.1,0,2.2,0,3.3-0.1c1.9-0.2,4.4-0.8,5.8-2.6l1.6,1.2     c-1.8,2.4-4.9,3.2-7.1,3.4c-1.2,0.1-2.3,0.1-3.5,0.1c-1.3,0-2.6,0-3.8,0.2c-3.5,0.5-6.8,2.3-8.9,3.6L42.1,79     c-1.2,0.7-2.4,1.5-3.7,1.9C36.8,81.4,35.2,81.6,33.6,81.6z" fill="#5C5D60"/></g><g><path d="M33.6,89.1c-0.9,0-1.8,0-2.7-0.1l0.1-2c2.3,0.1,4.6,0.3,6.7-0.5c1.2-0.4,2.2-1.1,3.3-1.7l0.6-0.3     c2.3-1.4,5.8-3.3,9.7-3.8c1.4-0.2,2.7-0.2,4.1-0.2c1.1,0,2.2,0,3.3-0.1c1.9-0.2,4.4-0.8,5.8-2.6l1.6,1.2     c-1.8,2.4-4.9,3.2-7.1,3.4c-1.2,0.1-2.3,0.1-3.5,0.1c-1.3,0-2.6,0-3.8,0.2c-2.7,0.4-5.5,1.5-8.9,3.6l-0.5,0.3     c-1.2,0.7-2.4,1.5-3.7,1.9C36.8,89,35.2,89.1,33.6,89.1z" fill="#5C5D60"/></g></g></g></svg>