<?xml version="1.0" ?><!DOCTYPE svg  PUBLIC '-//W3C//DTD SVG 1.1//EN'  'http://www.w3.org/Graphics/SVG/1.1/DTD/svg11.dtd'><svg height="136.833px" id="Layer_1" style="enable-background:new 0 0 136.833 136.833;" version="1.1" viewBox="0 0 136.833 136.833" width="136.833px" xml:space="preserve" xmlns="http://www.w3.org/2000/svg" xmlns:xlink="http://www.w3.org/1999/xlink"><style type="text/css">
<![CDATA[
	.st0{fill:#7A5628;}
	.st1{fill:#49A0AE;}
	.st2{fill:#ACA8A9;}
	.st3{fill:#7DB6B7;}
	.st4{fill:#11100E;}
	.st5{fill:#7FCDCC;}
	.st6{fill:#E0DAD2;}
	.st7{fill:#E1E1E1;}
	.st8{fill:#13B3CA;}
	.st9{fill:#E3E4E5;}
	.st10{fill:#15B5AC;}
	.st11{fill:#E4B894;}
	.st12{fill:#E4C88F;}
	.st13{fill:#E4DED0;}
	.st14{fill:#4A86C5;}
	.st15{fill:#4ABC96;}
	.st16{fill:#171413;}
	.st17{fill:#E5CE27;}
	.st18{fill:#187070;}
	.st19{fill:#E7CB7C;}
	.st20{fill:#E7DDB3;}
	.st21{fill:#E7E9EA;}
	.st22{fill:#E84849;}
	.st23{fill:#E89423;}
	.st24{fill:#E8CC7C;}
	.st25{fill:#E8EAEB;}
	.st26{fill:#E97539;}
	.st27{fill:#E9C29C;}
	.st28{fill:#E9DC96;}
	.st29{fill:#B16E29;}
	.st30{opacity:0.01;}
	.st31{opacity:0.45;}
	.st32{fill:#1A1919;}
	.st33{fill:#B69B30;}
	.st34{fill:#EADD97;}
	.st35{fill:#EB9682;}
	.st36{fill:#B7B7B7;}
	.st37{fill:#EBD9A9;}
	.st38{fill:#1DA049;}
	.st39{fill:#1E1913;}
	.st40{fill:#1E1B17;}
	.st41{fill:#ECDAAA;}
	.st42{fill:#ECE6D5;}
	.st43{fill:#ED3351;}
	.st44{fill:#B9B9BA;}
	.st45{fill:#EDECED;}
	.st46{fill:#1FA85B;}
	.st47{fill:#EEE17F;}
	.st48{fill:#EEE4B8;}
	.st49{fill-rule:evenodd;clip-rule:evenodd;fill:#7FCDCC;}
	.st50{fill:#515252;}
	.st51{fill:#543A1A;}
	.st52{fill:#BB2025;}
	.st53{fill:#8C652E;}
	.st54{fill:#8C8C8C;}
	.st55{fill:#212121;}
	.st56{fill:#BF2126;}
	.st57{fill:#BFBEBE;}
	.st58{fill:#F0C418;}
	.st59{fill:#F0CF6A;}
	.st60{fill:#F0E3C8;}
	.st61{fill:#F1D069;}
	.st62{fill:#F1E4C8;}
	.st63{fill:#F2D083;}
	.st64{fill:#F3BB70;}
	.st65{fill:#F3C715;}
	.st66{fill:#F3D183;}
	.st67{fill:#258C8E;}
	.st68{fill:#25999B;}
	.st69{fill:#F4E028;}
	.st70{fill:#F59798;}
	.st71{fill:#F5DE57;}
	.st72{fill:#F6A2A3;}
	.st73{fill:#F6F7F7;}
	.st74{fill:#28999B;}
	.st75{fill:#F7DF56;}
	.st76{fill:#29A5AE;}
	.st77{fill:#F8B85C;}
	.st78{fill:#F8D648;}
	.st79{fill:#F8DC62;}
	.st80{fill:#F8E69B;}
	.st81{fill:#F8E9AB;}
	.st82{fill:#F8F3DC;}
	.st83{fill:#F9A11C;}
	.st84{fill:#F9A72F;}
	.st85{fill:#F9A731;}
	.st86{fill:#F9E478;}
	.st87{fill:#F9EC34;}
	.st88{fill:#92C7CB;}
	.st89{fill:#93574E;}
	.st90{fill:#939291;}
	.st91{fill:#C2D2D3;}
	.st92{fill:#C42126;}
	.st93{fill:#C47267;}
	.st94{fill:#C4C3C3;}
	.st95{fill:#C5A72E;}
	.st96{fill:#2B2B2B;}
	.st97{fill:#2B5C64;}
	.st98{fill:#FACB83;}
	.st99{fill:#2D2D2D;}
	.st100{fill:#FBEC68;}
	.st101{fill:#2D646D;}
	.st102{fill:#FBF3CE;}
	.st103{fill:#C8802A;}
	.st104{fill:#99999A;}
	.st105{fill:#C8C8C8;}
	.st106{fill-rule:evenodd;clip-rule:evenodd;fill:#59A29F;}
	.st107{fill:#99CED5;}
	.st108{fill:#FDF3D0;}
	.st109{fill:#2F8442;}
	.st110{fill:#60441D;}
	.st111{opacity:0.5;}
	.st112{opacity:0.6;}
	.st113{opacity:0.8;}
	.st114{fill:#FFCE80;}
	.st115{fill:#FFEBBF;}
	.st116{fill:#FFEEA5;}
	.st117{fill:#FFFFFA;}
	.st118{fill:#FFFFFF;}
	.st119{fill:#644421;}
	.st120{fill:none;}
	.st121{fill:#65A844;}
	.st122{fill:#CB4645;}
	.st123{fill:#69C8CF;}
	.st124{fill:#CCCBCB;}
	.st125{fill:#30302F;}
	.st126{fill:#9F7534;}
	.st127{fill:#9F77AA;}
	.st128{fill:#CECECD;}
	.st129{fill:#CECFD0;}
	.st130{fill:#336C75;}
	.st131{fill:#343433;}
	.st132{fill:#344E5D;}
	.st133{fill:#353535;}
	.st134{fill:#357180;}
	.st135{fill:#377CA5;}
	.st136{fill:#383939;}
	.st137{fill-rule:evenodd;clip-rule:evenodd;fill:#97D6D5;}
	.st138{fill:#388388;}
	.st139{fill:#6E5538;}
	.st140{fill:#00A79E;}
	.st141{fill:#D0A288;}
	.st142{fill:#D0E8D0;}
	.st143{fill:#D1AF2B;}
	.st144{fill:#D2B488;}
	.st145{fill:#D2D2D2;}
	.st146{fill-rule:evenodd;clip-rule:evenodd;fill:#63AAA5;}
	.st147{fill:#D3B85F;}
	.st148{fill:#D3B95F;}
	.st149{fill:#D3D3D3;}
	.st150{fill:#D54027;}
	.st151{fill:#3AB780;}
	.st152{fill:#D5BA8A;}
	.st153{fill:#D62127;}
	.st154{fill:#D68936;}
	.st155{fill:#3CB881;}
	.st156{fill:#D7D7D7;}
	.st157{fill:#D7DABA;}
	.st158{fill:#D8D8D7;}
	.st159{fill:#714D22;}
	.st160{fill:#A0D9DC;}
	.st161{fill:#A2D4DE;}
	.st162{fill:#A46434;}
	.st163{fill:#A4A4A4;}
	.st164{fill:#A6A5A5;}
	.st165{fill:#DAA9A3;}
	.st166{fill:#DBBA33;}
	.st167{fill:#DBD3BB;}
	.st168{fill:#DBDDDC;}
	.st169{fill:#DCBF8D;}
	.st170{fill:#DCC172;}
	.st171{fill:#DCDFE0;}
	.st172{fill:#DDC272;}
	.st173{fill:#DDD2A5;}
	.st174{fill:#DDDDDC;}
	.st175{fill:#DDDFE0;}
	.st176{fill:#414141;}
	.st177{fill:#DFC191;}
	.st178{fill:#DFDDDC;}
	.st179{fill:#DFE0E0;}
	.st180{fill:#DFE0E1;}
]]>
</style><g><g><g><circle class="st151" cx="68.417" cy="68.417" r="63.333"/></g></g><g><g><path class="st176" d="M106.838,103.503c0,1.842-1.493,3.334-3.335,3.334H33.33c-1.842,0-3.335-1.492-3.335-3.334V33.332     c0-1.842,1.493-3.336,3.335-3.336h70.173c1.842,0,3.335,1.494,3.335,3.336V103.503z"/></g><g><path class="st136" d="M68.413,106.837H33.33c-1.842,0-3.335-1.492-3.335-3.334V33.332c0-1.842,1.493-3.336,3.335-3.336h35.083     V106.837z"/></g><g><circle class="st158" cx="68.189" cy="68.71" r="31.883"/></g><g><circle class="st4" cx="68.19" cy="68.71" r="30.318"/></g><g><path class="st16" d="M68.189,68.71L54.87,95.953c-6.924-3.391-12.364-9.344-15.086-16.623L68.189,68.71z"/></g><g><path class="st39" d="M68.19,68.71L48.287,45.832c2.386-2.072,5.071-3.748,7.945-4.982L68.19,68.71z"/></g><g><path class="st16" d="M68.19,68.71l12.629-27.57c2.872,1.318,5.508,3.074,7.816,5.184L68.19,68.71z"/></g><g><path class="st16" d="M68.188,68.71l13.004,27.395c-2.856,1.354-5.895,2.244-8.994,2.656L68.188,68.71z"/></g><g><path class="st39" d="M68.189,68.71l29.841-5.379c1.186,6.607,0.158,13.504-3.016,19.523L68.189,68.71z"/></g><g><path class="st39" d="M68.19,68.71l-5.534-29.813c1.239-0.229,2.489-0.381,3.742-0.453L68.19,68.71z"/></g><g class="st30"><circle class="st178" cx="68.19" cy="68.71" r="26.9"/></g><g class="st30"><circle class="st178" cx="68.189" cy="68.71" r="23.779"/></g><g class="st30"><circle class="st178" cx="68.19" cy="68.71" r="20.51"/></g><g class="st30"><circle class="st178" cx="68.189" cy="68.71" r="17.538"/></g><g class="st30"><circle class="st178" cx="68.189" cy="68.71" r="14.714"/></g><g class="st30"><circle class="st178" cx="68.19" cy="68.71" r="12.485"/></g><g class="st30"><circle class="st178" cx="68.189" cy="68.71" r="10.107"/></g><g><circle class="st164" cx="68.189" cy="68.71" r="7.468"/></g><g><circle class="st125" cx="68.19" cy="68.71" r="1.784"/></g><g><g><path class="st2" d="M91.968,79.113c-0.274,0-0.551-0.084-0.789-0.258c-0.596-0.438-0.725-1.273-0.289-1.869l7.469-10.199      V44.783c0-0.738,0.6-1.338,1.338-1.338s1.338,0.6,1.338,1.338v22.441c0,0.283-0.091,0.561-0.259,0.789l-7.728,10.553      C92.786,78.923,92.38,79.113,91.968,79.113z"/></g></g><g><g><path class="st55" d="M104.163,41.208c0,0.213-0.175,0.387-0.387,0.387h-8.151c-0.214,0-0.388-0.174-0.388-0.387v-8.152      c0-0.211,0.174-0.387,0.388-0.387h8.151c0.212,0,0.387,0.176,0.387,0.387V41.208z"/></g><g><path class="st55" d="M101.94,45.271c0,0.109-0.087,0.195-0.194,0.195h-4.092c-0.107,0-0.194-0.086-0.194-0.195v-4.09      c0-0.107,0.087-0.195,0.194-0.195h4.092c0.107,0,0.194,0.088,0.194,0.195V45.271z"/></g></g><g><g><circle class="st133" cx="36.163" cy="100.958" r="2.972"/></g><g><circle class="st4" cx="36.162" cy="100.958" r="2.304"/></g><g><path class="st40" d="M34.745,102.421c-0.791-0.791-0.791-2.074,0-2.863c0.792-0.793,2.072-0.789,2.865,0      C38.399,100.347,35.535,103.21,34.745,102.421z"/></g></g><g><g><circle class="st133" cx="43.631" cy="100.958" r="2.973"/></g><g><circle class="st4" cx="43.631" cy="100.958" r="2.304"/></g><g><path class="st40" d="M42.214,102.421c-0.791-0.791-0.791-2.074,0-2.863c0.791-0.793,2.072-0.789,2.864,0      C45.867,100.347,43.003,103.21,42.214,102.421z"/></g></g><g><g><g><path class="st99" d="M84.827,102.71c-0.465,0-0.842-0.377-0.842-0.844v-0.768c0-0.467,0.377-0.842,0.842-0.842h17.775       c0.464,0,0.842,0.375,0.842,0.842v0.768c0,0.467-0.378,0.844-0.842,0.844H84.827z"/></g></g><g><g><circle class="st90" cx="95.921" cy="101.451" r="1.861"/></g><g><path class="st118" d="M95.921,103.601c-1.185,0-2.148-0.965-2.148-2.15s0.964-2.15,2.148-2.15c1.187,0,2.151,0.965,2.151,2.15       S97.107,103.601,95.921,103.601z M95.921,99.878c-0.866,0-1.57,0.705-1.57,1.572s0.704,1.572,1.57,1.572       c0.868,0,1.573-0.705,1.573-1.572S96.789,99.878,95.921,99.878z"/></g></g></g><g><path class="st125" d="M90.698,82.259c-0.076,0.076-0.199,0.076-0.275,0.002l-2.893-2.895c-0.076-0.076-0.076-0.199,0-0.275     l2.893-2.893c0.075-0.074,0.199-0.076,0.275,0l2.893,2.893c0.076,0.076,0.075,0.201,0,0.275L90.698,82.259z"/></g></g></g></svg>