<?xml version="1.0" ?><!DOCTYPE svg  PUBLIC '-//W3C//DTD SVG 1.0//EN'  'http://www.w3.org/TR/2001/REC-SVG-20010904/DTD/svg10.dtd'><svg height="110px" style="enable-background:new 0 0 110 110;" version="1.0" viewBox="0 0 110 110" width="110px" xml:space="preserve" xmlns="http://www.w3.org/2000/svg" xmlns:xlink="http://www.w3.org/1999/xlink"><g id="Artboard"/><g id="Multicolor"><circle cx="55" cy="55" r="55" style="fill:#32BEA6;"/><g><g><path d="M71,23c-6.617,0-12,5.383-12,12H49c-1.104,0-2,0.896-2,2s0.896,2,2,2h2v4h2v-4h7v4h2v-4h7v5h2v-5     h2c1.104,0,2-0.896,2-2s-0.896-2-2-2H63c0-4.411,3.589-8,8-8s8,3.589,8,8v14h4V35C83,28.383,77.617,23,71,23z" style="fill:#0484AB;"/></g><g><path d="M87,49c0-1.1-0.9-2-2-2h-4c-1.1,0-2,0.9-2,2v6H31v-6c0-1.1-0.9-2-2-2h-4c-1.1,0-2,0.9-2,2v36     c0,1.1,0.9,2,2,2h4c1.1,0,2-0.9,2-2v-6h48v6c0,1.1,0.9,2,2,2h4c1.1,0,2-0.9,2-2V49z M37,75h-6V59h6V75z M51,75h-6V59h6V75z      M65,75h-6V59h6V75z M79,75h-6V59h6V75z" style="fill:#FFFFFF;"/></g><g><circle cx="51.727" cy="46.273" r="4.273" style="fill:#FACB1B;"/></g><g><path d="M64.797,49.833c-1.966,0-3.561-1.594-3.561-3.561c0-1.967,1.594-3.561,3.561-3.561     c0.09,0,0.175,0.02,0.263,0.027C64.376,42.273,63.55,42,62.66,42c-2.36,0-4.273,1.913-4.273,4.273s1.913,4.273,4.273,4.273     c0.89,0,1.716-0.273,2.4-0.739C64.972,49.813,64.887,49.833,64.797,49.833z" style="fill:#FACB1B;"/></g><g><path d="M69.766,40.701c0.033-0.102,0.127-0.171,0.234-0.171s0.201,0.069,0.234,0.171l1.067,3.307h3.453     c0.107,0,0.201,0.069,0.234,0.171c0.033,0.102-0.003,0.214-0.089,0.277L72.105,46.5l1.067,3.307     c0.033,0.102-0.003,0.214-0.089,0.277c-0.086,0.063-0.203,0.063-0.289,0L70,48.04l-2.794,2.044c-0.086,0.063-0.203,0.063-0.289,0     c-0.086-0.063-0.122-0.175-0.089-0.277l1.067-3.307l-2.794-2.044c-0.086-0.063-0.122-0.175-0.089-0.277     c0.033-0.102,0.127-0.171,0.234-0.171h3.453L69.766,40.701z" style="fill:#FACB1B;"/></g><g><path d="M72.004,44.008h-0.703l-1.067-3.307C70.201,40.599,70.107,40.53,70,40.53     s-0.201,0.069-0.234,0.171l-1.067,3.307h-3.453c-0.107,0-0.201,0.069-0.234,0.171c-0.033,0.102,0.003,0.214,0.089,0.277     l2.794,2.044l-0.771,2.388L72.004,44.008z" style="fill:#FBE158;"/></g><g><path d="M61.236,46.273c0-1.967,1.594-3.561,3.561-3.561c0.09,0,0.175,0.02,0.263,0.027     C64.376,42.273,63.551,42,62.66,42c-2.36,0-4.273,1.913-4.273,4.273c0,0.945,0.316,1.809,0.835,2.517l2.059-2.059     C61.263,46.579,61.236,46.429,61.236,46.273z" style="fill:#FBE158;"/></g><g><path d="M51.727,42c-2.36,0-4.273,1.913-4.273,4.273c0,1.183,0.481,2.253,1.258,3.027l6.041-6.041     C53.98,42.481,52.91,42,51.727,42z" style="fill:#FBE158;"/></g></g></g></svg>