<?xml version="1.0" ?><!DOCTYPE svg  PUBLIC '-//W3C//DTD SVG 1.1//EN'  'http://www.w3.org/Graphics/SVG/1.1/DTD/svg11.dtd'><svg enable-background="new 0 0 512 512" height="512px" id="Layer_1" version="1.1" viewBox="0 0 512 512" width="512px" xml:space="preserve" xmlns="http://www.w3.org/2000/svg" xmlns:xlink="http://www.w3.org/1999/xlink"><g><path d="M512,256c0,141.266-114.509,256-256,256C114.753,512,0,397.518,0,256C0,114.62,114.62,0,256,0    C397.446,0,512,114.688,512,256z" fill="#72C6E9"/><g><path d="M244.596,112.042c1.656,0.119,3.226,0.871,4.431,2.02c2.582,2.469,3.546,6.807,0.392,10.33l-10.17,11.371     l-1.354-1.301l10.168-11.367c2.432-2.721,1.553-5.861-0.296-7.625c-0.633-0.607-1.413-1.082-2.271-1.328L244.596,112.042z" fill="#FFFFFF"/><g><path d="M334.71,143.087L258.128,112.2c-0.739-0.307-1.522-0.148-2.135,0.291      c-0.613-0.424-1.388-0.582-2.124-0.285l-76.563,30.875c-7.407,0.484-11.307,6.584-11.307,12.66      c0,6.334,4.193,12.752,12.209,12.752h155.582c8.015,0,12.209-6.418,12.209-12.752C346,149.665,342.103,143.571,334.71,143.087z       M333.791,163.693H178.209c-5.233,0-7.58-3.993-7.58-7.952c0-3.957,2.347-7.955,7.58-7.955c0.211,0,77.794-31.41,77.794-31.41      s77.588,31.41,77.788,31.41c5.233,0,7.578,3.998,7.578,7.955C341.369,159.7,339.024,163.693,333.791,163.693z" fill="#2C2C2C"/><path d="M256.003,115.896c-1.291,0-2.335-1.079-2.335-2.415v-9.979c0-4.504,2.605-8.521,6.635-10.238      c4.234-1.811,6.973-6.035,6.973-10.781c0-6.432-5.057-11.658-11.272-11.658c-6.218,0-11.278,5.227-11.278,11.658      c0,1.33-1.045,2.414-2.335,2.414c-1.288,0-2.333-1.084-2.333-2.414c0-9.085,7.157-16.482,15.946-16.482      c8.786,0,15.942,7.397,15.942,16.482c0,6.704-3.878,12.687-9.874,15.239c-2.272,0.976-3.738,3.241-3.738,5.78v9.979      C258.333,114.817,257.294,115.896,256.003,115.896z" fill="#2C2C2C"/></g><g><g><path d="M314.039,133.847c-7.564,10.658-30.679,22.494-58.031,22.494c-27.37,0-50.482-11.836-58.037-22.494       l-9.777,4.072l14,79.098c1.822,10.174,1.689,15.082,7.445,19.113c2.984,2.09,8.223,3.92,12.42,3.92l67.924,2.533       c4.459,0,9.305-3.676,12.379-6.441c5.399-4.85,5.565-9.166,7.448-19.125l13.996-79.098L314.039,133.847z" fill="#F9F8D2"/><path d="M210.596,193.222c5.104,15.818,8.531,29.352,14.698,37.947h8.813       C225.093,222.444,216.984,210.743,210.596,193.222z" opacity="0.1"/><path d="M304.104,193.222c-5.103,15.818-8.538,29.352-14.695,37.947h-8.824       C289.595,222.444,297.706,210.743,304.104,193.222z" opacity="0.1"/></g><g><path d="M302.326,264.256c-37.129,0-55.602,0-92.734,0c-32.141,44.557-17.325,131.914-11.394,160.203       c1.21,5.76,1.808,11.633,1.808,17.521v4.021h111.983v-4.309c0-5.846,0.613-11.834,1.813-17.551       C319.829,395.457,334.494,308.617,302.326,264.256z" fill="#F9F8D2"/><path d="M299.408,264.256h-9.734c32.163,44.361-3.496,131.201-9.525,159.887       c-1.197,5.717-1.813,11.705-1.813,17.547v4.313h26.07v-4.313c0-5.842,0.611-11.83,1.813-17.547       C312.245,395.457,331.576,308.617,299.408,264.256z" opacity="0.1"/><path d="M209.597,314.373c5.104-19.336,8.532-35.885,14.7-46.387h8.814       C224.104,278.648,215.989,292.955,209.597,314.373z" opacity="0.1"/><path d="M303.104,314.373c-5.103-19.336-8.531-35.885-14.7-46.387h-8.813       C288.601,278.648,296.716,292.955,303.104,314.373z" opacity="0.1"/></g><g><path d="M302.361,264.256c-29.362,12.221-63.362,12.221-92.723,0c0-9.372,0-18.747,0-28.114       c29.36-12.223,63.36-12.223,92.723,0C302.361,245.509,302.361,254.884,302.361,264.256z" fill="#FF6B58"/><path d="M302.361,264.256c-29.362,12.227-63.365,12.227-92.725,0l20.146-0.27       c20.388-0.277,40.289-6.444,57.456-17.821l15.122-10.023C302.361,245.509,302.361,254.884,302.361,264.256z" opacity="0.2"/></g></g><g><path d="M249.237,113.952c-1.231-1.152-2.846-1.797-4.484-1.895c-3.509-0.209-7.2,2.084-7.466,6.877      l-0.859,15.457l1.844,0.109l0.863-15.453c0.207-3.705,3.004-5.23,5.515-5.081c0.859,0.054,1.731,0.308,2.505,0.767      L249.237,113.952z" fill="#FFFFFF"/><g><g><g><path d="M249.057,145.608l-0.543-1.24l-3.49-7.838l-0.463-1.055l-14.889-0.887l-6.824,11.625l-1.825,32.844         l27.2,1.623l0.281-5.156l1.16-20.855l0.387-6.834L249.057,145.608z M233.492,140.458c0.104-1.9,1.686-3.35,3.518-3.236         c1.831,0.105,3.232,1.738,3.129,3.633c-0.109,1.889-1.676,3.346-3.512,3.234         C234.791,143.987,233.393,142.349,233.492,140.458z" fill="#FF6B58"/></g><g><path d="M249.297,148.563l-1.732,31.063l-25.631-1.52l1.732-31.068l0.037-0.078l6.377-11.029l14.07,0.838         L249.297,148.563z M246.902,178.858l1.683-30.158l-4.899-11.23l-13.219-0.787l-6.113,10.574l-1.68,30.162L246.902,178.858z" fill="#0D2038"/><g><polygon fill="#FFFFFF" points="222.947,177.651 222.928,178.003 222.068,177.948 222.119,177.067 222.462,177.093           222.432,177.62         "/><path d="M245.217,178.978l-0.02,0.352l-1.394-0.084l0.022-0.352L245.217,178.978z M242.435,178.81          l-0.019,0.352l-1.398-0.084l0.02-0.348L242.435,178.81z M239.646,178.642l-0.018,0.361l-1.393-0.086l0.02-0.361          L239.646,178.642z M236.867,178.478l-0.024,0.357l-1.392-0.09l0.025-0.348L236.867,178.478z M234.084,178.315l-0.021,0.352          l-1.389-0.08l0.018-0.361L234.084,178.315z M231.295,178.147l-0.018,0.355l-1.391-0.09l0.018-0.352L231.295,178.147z           M228.518,177.981l-0.021,0.35l-1.396-0.08l0.025-0.357L228.518,177.981z M225.728,177.819l-0.019,0.347l-1.395-0.079          l0.023-0.355L225.728,177.819z" fill="#FFFFFF"/><polygon fill="#FFFFFF" points="247.495,178.581 247.449,179.462 246.588,179.413 246.611,179.058 247.123,179.091           247.154,178.556         "/><path d="M249.102,149.804l-0.086,1.441l-0.336-0.016l0.08-1.441L249.102,149.804z M248.936,152.685          l-0.08,1.439l-0.336-0.02l0.075-1.439L248.936,152.685z M248.775,155.558l-0.075,1.441l-0.342-0.02l0.075-1.436          L248.775,155.558z M248.619,158.438l-0.08,1.439l-0.346-0.02l0.085-1.439L248.619,158.438z M248.46,161.317l-0.086,1.438          l-0.341-0.021l0.084-1.436L248.46,161.317z M248.299,164.198l-0.08,1.436l-0.348-0.021l0.087-1.434L248.299,164.198z           M248.137,167.067l-0.08,1.445l-0.341-0.023l0.085-1.441L248.137,167.067z M247.977,169.948l-0.08,1.439l-0.342-0.016          l0.08-1.443L247.977,169.948z M247.821,172.821l-0.081,1.445l-0.346-0.023l0.08-1.436L247.821,172.821z M247.655,175.702          l-0.08,1.436l-0.337-0.016l0.076-1.436L247.655,175.702z M248.996,148.315l-0.312,0.148l-0.577-1.316l0.311-0.145          L248.996,148.315z M247.842,145.688l-0.313,0.148l-0.572-1.316l0.312-0.152L247.842,145.688z M246.694,143.062l-0.319,0.143          l-0.578-1.316l0.316-0.143L246.694,143.062z M245.533,140.433l-0.313,0.145l-0.571-1.316l0.308-0.148L245.533,140.433z" fill="#FFFFFF"/><polygon fill="#FFFFFF" points="244.379,137.802 244.072,137.944 243.826,137.405 243.249,137.364 243.264,137.019           244.049,137.063         "/><path d="M241.893,136.931l-0.014,0.355l-1.373-0.08l0.016-0.355L241.893,136.931z M239.158,136.772          l-0.02,0.346l-1.373-0.08l0.019-0.35L239.158,136.772z M236.413,136.612l-0.021,0.348l-1.371-0.084l0.022-0.346          L236.413,136.612z M233.676,136.44l-0.02,0.355l-1.372-0.084l0.018-0.35L233.676,136.44z" fill="#FFFFFF"/><polygon fill="#FFFFFF" points="230.931,136.282 230.914,136.632 230.336,136.604 230.031,137.114 229.738,136.931           230.143,136.232         "/><path d="M229.314,138.351l-0.713,1.236l-0.303-0.184l0.727-1.23L229.314,138.351z M227.88,140.819          l-0.718,1.236l-0.297-0.178l0.713-1.242L227.88,140.819z M226.443,143.292l-0.721,1.248l-0.299-0.182l0.719-1.244          L226.443,143.292z M225.002,145.772l-0.721,1.23l-0.294-0.172l0.718-1.236L225.002,145.772z M224.065,148.315l-0.083,1.445          l-0.338-0.025l0.076-1.445L224.065,148.315z M223.906,151.194l-0.085,1.439l-0.345-0.02l0.084-1.439L223.906,151.194z           M223.74,154.073l-0.074,1.441l-0.341-0.023l0.079-1.441L223.74,154.073z M223.584,156.95l-0.078,1.434l-0.346-0.016          l0.082-1.443L223.584,156.95z M223.422,159.823l-0.079,1.447l-0.345-0.025l0.078-1.441L223.422,159.823z M223.264,162.704          l-0.077,1.439l-0.349-0.025l0.08-1.434L223.264,162.704z M223.104,165.577l-0.084,1.441l-0.346-0.02l0.084-1.441          L223.104,165.577z M222.94,168.458l-0.083,1.436l-0.336-0.016l0.074-1.439L222.94,168.458z M222.78,171.337l-0.083,1.438          l-0.338-0.021l0.076-1.436L222.78,171.337z M222.619,174.208l-0.076,1.449l-0.348-0.025l0.083-1.439L222.619,174.208z" fill="#FFFFFF"/></g></g><g><path d="M240.381,140.864c-0.105,1.998-1.763,3.523-3.691,3.408c-1.926-0.117-3.403-1.836-3.293-3.824         c0.113-1.989,1.771-3.512,3.697-3.4C239.02,137.167,240.488,138.88,240.381,140.864z M234.66,140.526         c-0.074,1.272,0.879,2.367,2.1,2.439c1.232,0.064,2.293-0.91,2.357-2.172c0.076-1.275-0.866-2.369-2.098-2.443         C235.795,138.284,234.732,139.255,234.66,140.526z" fill="#B54739"/></g><g><g><path d="M235.701,147.771l-0.107,1.91c-0.584,0.029-1.154,0.123-1.689,0.287          c-0.567,0.16-1.072,0.41-1.504,0.732c-0.438,0.326-0.799,0.747-1.082,1.252c-0.27,0.51-0.436,1.123-0.473,1.826          c-0.034,0.701,0.061,1.33,0.289,1.855c0.23,0.52,0.549,0.994,0.954,1.404c0.401,0.4,0.874,0.762,1.413,1.074          c0.516,0.291,1.053,0.568,1.605,0.826l-0.316,5.676c-0.684-0.105-1.198-0.348-1.535-0.725          c-0.349-0.393-0.505-0.977-0.467-1.74l0.033-0.529l-0.071-0.014c-0.216-0.051-0.437-0.08-0.647-0.09          c-0.23-0.01-0.457,0-0.674,0.049c-0.22,0.051-0.419,0.129-0.597,0.238c-0.179,0.113-0.331,0.262-0.438,0.445          c-0.114,0.182-0.186,0.41-0.197,0.664c-0.036,0.592,0.118,1.092,0.444,1.484c0.323,0.381,0.725,0.682,1.205,0.904          c0.465,0.223,0.973,0.381,1.489,0.469c0.522,0.096,0.974,0.154,1.346,0.174h0.038l-0.093,1.99l1.278-0.197l0.1-1.803          c0.621-0.049,1.227-0.164,1.788-0.346c0.597-0.189,1.13-0.461,1.593-0.811c0.451-0.367,0.834-0.813,1.119-1.357          c0.292-0.533,0.457-1.188,0.5-1.945c0.038-0.682-0.063-1.301-0.301-1.82c-0.229-0.514-0.566-0.975-0.985-1.369          c-0.416-0.387-0.913-0.742-1.464-1.045c-0.534-0.287-1.107-0.57-1.688-0.826l0.318-5.363          c0.471,0.129,0.857,0.361,1.153,0.693c0.31,0.355,0.458,0.834,0.427,1.434l-0.035,0.52l0.07,0.01          c0.222,0.045,0.432,0.074,0.637,0.09c0.22,0.01,0.436-0.01,0.645-0.045c0.216-0.045,0.409-0.117,0.588-0.223          c0.178-0.104,0.326-0.246,0.451-0.416c0.115-0.178,0.184-0.395,0.195-0.652c0.031-0.535-0.102-0.98-0.398-1.332          c-0.289-0.336-0.65-0.613-1.088-0.814c-0.432-0.199-0.891-0.348-1.381-0.436c-0.446-0.08-0.846-0.135-1.189-0.17          l0.122-2.023L235.701,147.771z M235.52,150.968l-0.254,4.914c-0.248-0.131-0.49-0.279-0.721-0.426          c-0.262-0.174-0.487-0.377-0.684-0.6c-0.195-0.229-0.342-0.484-0.452-0.777c-0.104-0.281-0.146-0.623-0.128-1.004          c0.018-0.332,0.094-0.629,0.227-0.877c0.129-0.246,0.299-0.463,0.505-0.637c0.2-0.178,0.444-0.32,0.715-0.422          C234.973,151.052,235.242,150.993,235.52,150.968z M237.895,160.462c0.211,0.213,0.367,0.471,0.484,0.748          c0.119,0.271,0.162,0.594,0.145,0.955c-0.021,0.365-0.099,0.688-0.233,0.969c-0.144,0.287-0.328,0.541-0.551,0.746          c-0.229,0.209-0.498,0.377-0.796,0.506c-0.27,0.119-0.563,0.203-0.865,0.246l0.311-5.18          c0.258,0.131,0.517,0.264,0.768,0.416C237.432,160.036,237.683,160.235,237.895,160.462z" fill="#2C2C2C"/></g></g></g><g><path d="M237.322,134.888c-0.081,1.43-0.156,2.854-0.239,4.285c-0.046,0.865-1.298,0.785-1.253-0.076        c0.084-1.43,0.156-2.859,0.244-4.285C236.485,134.833,236.905,134.862,237.322,134.888z" fill="#FFFFFF"/><path d="M236.338,139.769c0.336,0.066,0.723-0.133,0.745-0.596c0.083-1.432,0.158-2.855,0.239-4.285        c-0.055-0.006-0.117-0.006-0.176-0.016c-0.076,1.43-0.158,2.859-0.236,4.291C236.887,139.554,236.619,139.747,236.338,139.769        z" fill="#6B6B6B"/><path d="M238.572,134.944c-0.088,1.432-0.163,2.857-0.246,4.291c-0.051,0.861-1.301,0.787-1.25-0.072        c0.08-1.432,0.156-2.861,0.233-4.291C237.729,134.901,238.15,134.927,238.572,134.944z" fill="#FFFFFF"/><path d="M237.121,139.042c0.08-1.385,0.156-2.775,0.236-4.164c-0.018,0.004-0.035-0.006-0.048-0.006        c-0.077,1.43-0.153,2.859-0.233,4.291c-0.051,0.789,1.004,0.914,1.215,0.26C238,139.943,237.083,139.78,237.121,139.042z" fill="#6B6B6B"/><g><path d="M238.193,134.192c0.871,0.031,0.791,1.447-0.073,1.371c-0.547-0.039-1.095-0.068-1.64-0.098         c-0.879-0.055-0.807-1.42,0.072-1.365C237.099,134.13,237.648,134.165,238.193,134.192z" fill="#FFFFFF"/><path d="M238.115,135.411c-0.55-0.035-1.096-0.07-1.637-0.1c-0.38-0.023-0.578-0.291-0.621-0.578         c-0.016,0.348,0.184,0.707,0.623,0.732c0.545,0.029,1.093,0.059,1.64,0.098c0.493,0.045,0.734-0.4,0.679-0.791         C238.783,135.119,238.541,135.452,238.115,135.411z" fill="#6B6B6B"/></g></g></g></g></g></g></svg>