<?xml version="1.0" ?><!DOCTYPE svg  PUBLIC '-//W3C//DTD SVG 1.1//EN'  'http://www.w3.org/Graphics/SVG/1.1/DTD/svg11.dtd'><svg enable-background="new 0 0 512 512" height="512px" id="Layer_2" version="1.1" viewBox="0 0 512 512" width="512px" xml:space="preserve" xmlns="http://www.w3.org/2000/svg" xmlns:xlink="http://www.w3.org/1999/xlink"><circle cx="256" cy="256" fill="#376599" r="256"/><path d="M258.33,68.33" fill="none"/><line fill="none" x1="308" x2="290.33" y1="84.05" y2="84.05"/><g><line fill="none" x1="255.707" x2="255.707" y1="414.361" y2="411.871"/><path d="M287.25,113.259v1.78h-62.499v-17.4h0.01c0.2,0.05,3.28,0.81,7.65,1.729c1.89,1.141,4.029,2.28,6.37,3.391   c0.46,0.22,0.938,0.439,1.42,0.66c0.489,0.21,0.979,0.43,1.479,0.649c0.5,0.221,1,0.431,1.521,0.641   c1.029,0.43,2.09,0.84,3.17,1.25c0.49,0.189,1,0.38,1.51,0.56c2.04,0.74,4.17,1.44,6.36,2.1c0.83,0.25,1.66,0.49,2.51,0.73   c0.7,0.2,1.409,0.39,2.101,0.57c0.699,0.18,1.398,0.359,2.09,0.529c0.681,0.17,1.359,0.33,2.029,0.471   c0.021,0.01,0.039,0.02,0.051,0.02c0.67,0.15,1.33,0.3,1.988,0.43h0.012c1.209,0.261,2.398,0.49,3.568,0.69   c0.602,0.11,1.191,0.21,1.781,0.3c0.49,0.08,0.969,0.16,1.449,0.23c1.34,0.189,2.649,0.35,3.91,0.479   c0.938,0.101,1.858,0.181,2.76,0.24h0.01c0.791,0.05,1.551,0.09,2.301,0.11C283.16,113.509,285.33,113.448,287.25,113.259z" fill="#D1D3D4"/><path d="M287.25,97.639v15.62c-1.92,0.189-4.09,0.25-6.449,0.16c-0.75-0.021-1.51-0.061-2.301-0.11h-0.01   c-0.9-0.07-1.82-0.14-2.76-0.24c-1.261-0.13-2.57-0.29-3.91-0.479c-0.48-0.07-0.959-0.15-1.449-0.23   c-0.59-0.09-1.18-0.189-1.781-0.3c-1.17-0.2-2.359-0.43-3.568-0.69h-0.012c-0.658-0.14-1.318-0.279-1.988-0.43   c-0.012,0-0.03-0.01-0.051-0.02c-0.67-0.141-1.35-0.301-2.029-0.471c-0.69-0.17-1.391-0.34-2.09-0.529   c-0.69-0.181-1.399-0.37-2.101-0.57c-0.85-0.24-1.68-0.48-2.51-0.73c-2.19-0.659-4.32-1.359-6.36-2.1   c-0.51-0.18-1.02-0.37-1.51-0.56c-1.08-0.41-2.141-0.82-3.17-1.25c-0.521-0.21-1.021-0.42-1.521-0.641   c-0.5-0.22-0.99-0.439-1.479-0.649c-0.48-0.221-0.96-0.44-1.42-0.66c-2.341-1.11-4.48-2.25-6.37-3.391   c6.92,1.44,17.05,3.271,24.08,3.271c0.37,0,0.739,0,1.12-0.01c10.75-0.28,26.789-4.261,29.299-4.9   C287.131,97.669,287.25,97.639,287.25,97.639z" fill="#E6E7E8"/><line fill="none" x1="252.792" x2="252.792" y1="183.491" y2="176.673"/><path d="M255.707,112.172" fill="none"/><path d="M159.105,177.6c-0.363,0.774-0.738,1.538-1.126,2.276l-1.101-0.588c0.375-0.713,0.738-1.451,1.089-2.215   L159.105,177.6z" fill="#231F20"/><path d="M161.02,172.92c-0.287,0.801-0.588,1.589-0.9,2.365l-1.163-0.477c0.313-0.75,0.6-1.525,0.888-2.313   L161.02,172.92z" fill="#231F20"/><path d="M162.521,168.092c-0.225,0.825-0.45,1.626-0.7,2.427l-1.201-0.376c0.25-0.775,0.476-1.576,0.688-2.377   L162.521,168.092z" fill="#231F20"/><path d="M163.646,163.163c-0.163,0.838-0.325,1.663-0.513,2.477l-1.226-0.275c0.188-0.801,0.35-1.614,0.512-2.427   L163.646,163.163z" fill="#231F20"/><path d="M164.435,158.184c-0.1,0.838-0.226,1.677-0.351,2.502l-1.238-0.2c0.126-0.801,0.25-1.627,0.351-2.452   L164.435,158.184z" fill="#231F20"/><path d="M164.897,153.167c-0.05,0.838-0.112,1.676-0.188,2.515l-1.251-0.125c0.075-0.813,0.138-1.639,0.188-2.465   L164.897,153.167z" fill="#231F20"/><path d="M165.048,147.513v0.613c0,0.838-0.013,1.676-0.037,2.514l-1.251-0.037c0.024-0.813,0.037-1.651,0.037-2.477   v-0.613H165.048z" fill="#231F20"/><path d="M164.985,144.985l-1.251,0.05c-0.025-0.838-0.075-1.663-0.125-2.477l1.251-0.087   C164.91,143.31,164.96,144.147,164.985,144.985z" fill="#231F20"/><path d="M164.647,139.956l-1.251,0.126c-0.075-0.826-0.176-1.651-0.275-2.465l1.238-0.163   C164.472,138.28,164.561,139.118,164.647,139.956z" fill="#231F20"/><path d="M163.984,134.952l-1.238,0.213c-0.125-0.825-0.275-1.639-0.438-2.438l1.227-0.251   C163.696,133.289,163.847,134.114,163.984,134.952z" fill="#231F20"/><path d="M162.996,130.012l-1.226,0.287c-0.188-0.813-0.4-1.613-0.613-2.402l1.201-0.337   C162.583,128.359,162.796,129.186,162.996,130.012z" fill="#231F20"/><path d="M161.633,125.145l-1.188,0.376c-0.251-0.788-0.526-1.576-0.813-2.339l1.176-0.426   C161.095,123.531,161.37,124.332,161.633,125.145z" fill="#231F20"/><path d="M159.881,120.391l-1.15,0.488c-0.326-0.763-0.663-1.525-1.014-2.252l1.126-0.538   C159.205,118.84,159.556,119.603,159.881,120.391z" fill="#231F20"/><path d="M157.68,115.838l-1.089,0.601c-0.4-0.739-0.825-1.452-1.251-2.127l1.051-0.663   C156.841,114.349,157.267,115.074,157.68,115.838z" fill="#231F20"/><g><g><path d="M397.66,143.889c-0.189-0.15-0.381-0.32-0.58-0.47c-0.801-0.641-1.6-1.28-2.41-1.931     c-17.16-13.72-36.08-28.521-36.08-28.521c-0.279-0.21-0.65-0.42-1.049-0.55c-0.391-0.13-0.83-0.15-1.16-0.15l-62.221-13.07     c-1.52,3.42-3.82,6.57-6.721,9.33c-1.898,1.801-4.07,3.44-6.449,4.891c-0.939,0.569-1.93,1.109-2.949,1.62     c-6.361,3.189-13.961,5.05-22.141,5.06v-1.25c6.969-0.01,13.52-1.39,19.189-3.81c1.24-0.53,2.438-1.11,3.591-1.73h0.01     c3.36-1.82,6.311-4.02,8.75-6.54c2.319-2.36,4.17-5,5.471-7.83l-4.99-1.05l-0.471-0.1c0,0.01-0.01,0.01-0.01,0.02     c-3.51,6.56-11.83,11.67-22.229,13.56h-0.012c-2.859,0.521-5.859,0.801-8.969,0.801c-0.13,0-0.28,0-0.42-0.011     c-1.04-0.01-2.061-0.05-3.08-0.119c-13-0.881-23.74-6.631-27.78-14.4h-0.01l-1.16,0.25l-5.09,1.07c1.439,3.14,3.57,6.05,6.25,8.6     c3.16,3.03,7.09,5.58,11.57,7.48c4.069,1.729,8.59,2.93,13.399,3.47c1.92,0.229,3.891,0.34,5.891,0.34h0.029v1.25h-0.029     c-2.16,0-4.28-0.13-6.351-0.38c-5.79-0.69-11.18-2.32-15.89-4.68c-3.221-1.61-6.13-3.561-8.62-5.79     c-3.28-2.92-5.851-6.311-7.51-10.021l-22.37,4.7l-37.7,7.92l-2.021,0.42c-0.34,0-0.76,0.021-1.159,0.15     c-0.4,0.13-0.771,0.34-1.04,0.55c0,0-18.38,14.38-35.33,27.92c-1.061,0.85-2.12,1.69-3.16,2.53c-0.2,0.149-0.39,0.319-0.59,0.47     c-9.76,7.81-18.53,14.9-22.33,18.13c1.43,5.89,3.64,12.2,6.6,18.561c5.65,12.149,12.92,22.06,19.931,28.029l23.01-16.979     l15.72-11.601c0.5-0.479,0.92-0.3,0.92,0.391l0.13,196.86l0.011,10.43l0.01,24.16c0,0,95.95,0,97.77,0l97.711-0.121l0.02-19.311     l0.039-27.63l0.101-84.77l0.021-16.881l0.101-82.739c0-0.69,0.42-0.87,0.909-0.391l15.9,11.73l23.709,17.49     c5.371-4.82,10.859-11.891,15.59-20.471c1.722-3.52,3.439-7.06,5.031-10.33c2.189-5.159,3.869-10.239,5.039-15.029     c0.1-0.391,0.189-0.78,0.27-1.17C416.619,159.139,407.66,151.898,397.66,143.889z M165.17,144.988l-1.25,0.051     c-0.02-0.841-0.069-1.671-0.119-2.48l1.25-0.09C165.101,143.309,165.15,144.148,165.17,144.988z M164.84,139.959l-1.25,0.12     c-0.079-0.82-0.18-1.65-0.279-2.461l1.24-0.159C164.66,138.278,164.75,139.118,164.84,139.959z M164.17,134.948l-1.229,0.221     c-0.13-0.83-0.28-1.641-0.44-2.44l1.221-0.25C163.891,133.289,164.04,134.118,164.17,134.948z M163.19,130.009l-1.23,0.29     c-0.189-0.811-0.399-1.61-0.609-2.4l1.2-0.34C162.771,128.358,162.99,129.188,163.19,130.009z M161.82,125.148l-1.19,0.37     c-0.25-0.79-0.52-1.57-0.81-2.34l1.18-0.42C161.28,123.528,161.561,124.329,161.82,125.148z M159.03,118.089     c0.36,0.75,0.72,1.51,1.04,2.3l-1.15,0.49c-0.33-0.761-0.659-1.53-1.01-2.25L159.03,118.089z M156.78,116.438     c-0.4-0.74-0.83-1.45-1.25-2.13l1.05-0.66c0.45,0.7,0.88,1.431,1.29,2.19L156.78,116.438z M158.17,179.879l-1.1-0.59     c0.37-0.71,0.74-1.45,1.09-2.221l1.13,0.53C158.931,178.379,158.561,179.139,158.17,179.879z M160.311,175.289l-1.17-0.48     c0.319-0.75,0.609-1.53,0.89-2.31l1.18,0.42C160.92,173.719,160.62,174.509,160.311,175.289z M162.011,170.519l-1.2-0.38     c0.25-0.771,0.47-1.57,0.689-2.37l1.21,0.32C162.48,168.919,162.261,169.719,162.011,170.519z M163.32,165.639l-1.22-0.271     c0.18-0.81,0.35-1.619,0.51-2.43l1.229,0.22C163.67,163.999,163.511,164.829,163.32,165.639z M164.271,160.688l-1.23-0.2     c0.12-0.8,0.25-1.63,0.351-2.46l1.229,0.16C164.521,159.019,164.4,159.858,164.271,160.688z M164.9,155.679l-1.25-0.12     c0.07-0.81,0.14-1.64,0.189-2.47l1.25,0.08C165.04,154.009,164.971,154.839,164.9,155.679z M165.24,148.129     c0,0.84-0.02,1.67-0.04,2.51l-1.25-0.04c0.021-0.81,0.04-1.65,0.04-2.47v-0.62h1.25V148.129z M351.76,120.139     c0.211-0.51,0.439-1,0.67-1.49c0.09-0.18,0.18-0.37,0.271-0.56l1.121,0.54c-0.351,0.72-0.689,1.489-1.021,2.25l-1.141-0.49     C351.689,120.309,351.73,120.219,351.76,120.139z M350.721,122.759h0.01l1.17,0.42h0.011c-0.149,0.39-0.291,0.77-0.431,1.16     c-0.141,0.39-0.28,0.79-0.399,1.18l-1.181-0.37h-0.01C350.17,124.329,350.43,123.528,350.721,122.759z M349.17,127.559h0.01     l1.201,0.34c-0.211,0.79-0.42,1.59-0.611,2.4l-1.229-0.29h-0.012C348.73,129.188,348.939,128.358,349.17,127.559z      M347.66,134.329c0.08-0.5,0.17-0.99,0.27-1.471c0.021-0.13,0.051-0.25,0.08-0.38l1.221,0.25c-0.09,0.4-0.17,0.8-0.239,1.21     c-0.07,0.41-0.142,0.811-0.211,1.23l-1.22-0.221C347.59,134.738,347.619,134.528,347.66,134.329z M347.02,138.698     c0.051-0.409,0.101-0.83,0.15-1.239h0.01l1.23,0.159h0.01c-0.039,0.311-0.08,0.61-0.119,0.921c-0.041,0.31-0.07,0.619-0.102,0.93     c-0.01,0.06-0.01,0.12-0.02,0.18c-0.021,0.141-0.039,0.29-0.05,0.431l-1.239-0.12h-0.011     C346.92,139.539,346.971,139.118,347.02,138.698z M346.6,143.729c0.021-0.42,0.051-0.84,0.07-1.26l1.25,0.09     c-0.01,0.21-0.02,0.41-0.029,0.61c-0.01,0.199-0.021,0.41-0.041,0.62c-0.02,0.409-0.049,0.829-0.059,1.25l-1.24-0.051h-0.01     C346.561,144.568,346.58,144.148,346.6,143.729z M346.51,149.929c-0.01-0.6-0.02-1.2-0.02-1.8v-0.62h1.25v0.62     c0,0.819,0.01,1.66,0.039,2.47l-1.25,0.04C346.52,150.398,346.51,150.158,346.51,149.929z M346.641,153.169l1.25-0.08     c0.049,0.83,0.109,1.649,0.189,2.47l-1.25,0.12C346.75,154.839,346.689,154.009,346.641,153.169z M347.26,159.438     c-0.061-0.42-0.119-0.83-0.17-1.25h0.01l1.08-0.14l0.15-0.021c0.051,0.42,0.109,0.83,0.17,1.24c0.061,0.41,0.119,0.82,0.18,1.22     l-1.219,0.2C347.4,160.269,347.33,159.858,347.26,159.438z M348.27,164.979c-0.129-0.6-0.26-1.2-0.379-1.82l1.219-0.22h0.011     c0.08,0.41,0.16,0.811,0.239,1.21c0.091,0.41,0.171,0.811,0.261,1.21v0.01l-1.209,0.271     C348.359,165.419,348.311,165.198,348.27,164.979z M349.67,170.368c-0.051-0.159-0.1-0.31-0.141-0.47     c-0.09-0.3-0.17-0.6-0.26-0.899c-0.09-0.301-0.17-0.601-0.25-0.91l1.2-0.32c0.21,0.8,0.439,1.6,0.699,2.37l-1.199,0.38     C349.699,170.469,349.68,170.419,349.67,170.368z M350.961,174.108c-0.08-0.18-0.15-0.37-0.211-0.56l-0.24-0.63h0.01l1.16-0.42     c0.15,0.39,0.291,0.779,0.451,1.17c0.068,0.189,0.148,0.38,0.229,0.569c0.07,0.19,0.15,0.38,0.23,0.57h-0.01l-1.16,0.48     C351.26,174.898,351.1,174.509,350.961,174.108z M353.551,179.879c-0.191-0.37-0.381-0.75-0.57-1.13     c-0.18-0.381-0.36-0.761-0.541-1.15l1.121-0.53c0.181,0.38,0.359,0.761,0.539,1.13c0.181,0.37,0.371,0.73,0.562,1.091     L353.551,179.879z M354.939,116.438l-1.09-0.6c0.211-0.391,0.42-0.76,0.631-1.12c0.219-0.36,0.438-0.72,0.67-1.07l1.039,0.66     C355.77,114.988,355.34,115.698,354.939,116.438z" fill="#FAFAFA"/></g></g><path d="M352.24,177.599c0.363,0.775,0.738,1.539,1.125,2.276l1.102-0.588c-0.377-0.713-0.738-1.451-1.09-2.214   L352.24,177.599z" fill="#231F20"/><path d="M350.326,172.92c0.287,0.801,0.588,1.589,0.9,2.364l1.164-0.476c-0.313-0.75-0.603-1.526-0.892-2.314   L350.326,172.92z" fill="#231F20"/><path d="M348.826,168.091c0.225,0.825,0.449,1.626,0.699,2.427l1.201-0.375c-0.25-0.775-0.478-1.576-0.689-2.377   L348.826,168.091z" fill="#231F20"/><path d="M347.699,163.162c0.162,0.838,0.324,1.663,0.514,2.477l1.225-0.275c-0.188-0.801-0.352-1.613-0.512-2.427   L347.699,163.162z" fill="#231F20"/><path d="M346.91,158.184c0.1,0.838,0.225,1.676,0.352,2.502l1.236-0.2c-0.125-0.801-0.25-1.627-0.35-2.452   L346.91,158.184z" fill="#231F20"/><path d="M346.447,153.166c0.049,0.839,0.113,1.677,0.188,2.516l1.25-0.126c-0.075-0.813-0.139-1.639-0.188-2.464   L346.447,153.166z" fill="#231F20"/><path d="M346.297,147.512v0.613c0,0.838,0.014,1.677,0.039,2.515l1.25-0.037c-0.025-0.814-0.037-1.652-0.037-2.478   v-0.613H346.297z" fill="#231F20"/><path d="M346.359,144.985l1.252,0.05c0.022-0.838,0.076-1.664,0.125-2.478l-1.252-0.087   C346.436,143.309,346.385,144.146,346.359,144.985z" fill="#231F20"/><path d="M346.697,139.956l1.25,0.125c0.076-0.826,0.176-1.651,0.277-2.465l-1.238-0.162   C346.873,138.28,346.785,139.118,346.697,139.956z" fill="#231F20"/><path d="M347.361,134.952l1.238,0.212c0.125-0.825,0.274-1.639,0.438-2.438l-1.227-0.251   C347.648,133.288,347.498,134.114,347.361,134.952z" fill="#231F20"/><path d="M348.35,130.011l1.228,0.288c0.188-0.813,0.399-1.614,0.612-2.402l-1.203-0.338   C348.762,128.359,348.549,129.186,348.35,130.011z" fill="#231F20"/><path d="M349.713,125.145l1.188,0.375c0.25-0.788,0.527-1.576,0.814-2.339l-1.178-0.426   C350.25,123.53,349.977,124.331,349.713,125.145z" fill="#231F20"/><path d="M351.465,120.391l1.15,0.487c0.324-0.763,0.662-1.525,1.014-2.251l-1.127-0.538   C352.139,118.839,351.789,119.603,351.465,120.391z" fill="#231F20"/><path d="M353.666,115.837l1.088,0.601c0.4-0.738,0.826-1.451,1.252-2.127l-1.051-0.663   C354.504,114.349,354.078,115.073,353.666,115.837z" fill="#231F20"/><path d="M293.971,99.198c-1.52,3.42-3.82,6.57-6.721,9.33c-1.898,1.801-4.07,3.44-6.449,4.891   c-0.939,0.569-1.93,1.109-2.949,1.62c-6.36,3.189-13.961,5.05-22.141,5.06h-0.1c-2.16,0-4.28-0.13-6.351-0.38   c-5.79-0.69-11.18-2.32-15.89-4.68c-3.221-1.61-6.13-3.561-8.62-5.79c-3.28-2.92-5.851-6.311-7.51-10.021l1.26-0.27   c1.439,3.14,3.57,6.05,6.25,8.6c3.16,3.03,7.09,5.58,11.57,7.48c4.069,1.729,8.59,2.93,13.399,3.47   c1.92,0.229,3.891,0.34,5.891,0.34h0.1c6.97-0.01,13.521-1.39,19.188-3.81c1.24-0.53,2.439-1.11,3.59-1.73h0.011   c3.36-1.82,6.312-4.02,8.75-6.54c2.319-2.36,4.17-5,5.472-7.83L293.971,99.198z" fill="#231F20"/><path d="M177.17,177.38l3.021,2.72C179.11,179.26,178.101,178.36,177.17,177.38z" fill="#D1D3D4"/></g></svg>