<?xml version="1.0" ?><!DOCTYPE svg  PUBLIC '-//W3C//DTD SVG 1.1//EN'  'http://www.w3.org/Graphics/SVG/1.1/DTD/svg11.dtd'><svg enable-background="new 0 0 128 128" id="Layer_1" version="1.1" viewBox="0 0 128 128" xml:space="preserve" xmlns="http://www.w3.org/2000/svg" xmlns:xlink="http://www.w3.org/1999/xlink"><g><circle cx="64" cy="64" fill="#41C19E" r="64"/><linearGradient gradientUnits="userSpaceOnUse" id="SVGID_1_" x1="108.9372" x2="38.9257" y1="109.5581" y2="39.5466"><stop offset="6.099907e-002" style="stop-color:#FFFFFF;stop-opacity:0"/><stop offset="0.162" style="stop-color:#CDCDCD;stop-opacity:0.1075"/><stop offset="0.2839" style="stop-color:#979797;stop-opacity:0.2374"/><stop offset="0.4075" style="stop-color:#696969;stop-opacity:0.369"/><stop offset="0.5299" style="stop-color:#434343;stop-opacity:0.4994"/><stop offset="0.6511" style="stop-color:#262626;stop-opacity:0.6284"/><stop offset="0.7706" style="stop-color:#111111;stop-opacity:0.7557"/><stop offset="0.8878" style="stop-color:#040404;stop-opacity:0.8806"/><stop offset="1" style="stop-color:#000000"/></linearGradient><path d="M126.6,77.2L89.9,40.5C83.5,33.4,74.3,29,64,29c-9,0-17.2,3.4-23.4,9   c-4,3.6-7.1,8.1-9.1,13.2c0,0,0,0.1-0.1,0.1c-0.1,0.2-1,2.4-1.6,5.6c-0.1,0.3-0.1,0.7-0.2,1c-0.1,0.7-0.3,1.5-0.3,2.2h0   c-0.3,3.1-0.1,6.7,1.1,10.3c-0.5,0.6-0.8,1.4-0.8,2.3c0,1.2,0.5,2.2,1.3,2.9l12.4,12.4v5.1c0,0.6,0.3,1.1,0.7,1.5l0.1,0l3.7,3.7   l0.4,0.4l28.1,28.1C101.4,122,121.3,102.3,126.6,77.2z" fill="url(#SVGID_1_)" opacity="0.2"/><g><g><polygon fill="#3A556A" points="47.2,85.8 35.4,71.9 32.3,74.5 44.2,88.4    "/><g><g><path d="M33.5,74.8c-0.7,0-1.4-0.4-1.8-1.1c-5.6-10.4-0.6-21.9-0.4-22.4c0.4-1,1.6-1.5,2.6-1       c1,0.4,1.5,1.6,1,2.6l0,0c0,0.1-4.3,10.2,0.3,18.9c0.5,1,0.2,2.2-0.8,2.7C34.2,74.7,33.9,74.8,33.5,74.8z" fill="#3A556A"/></g><circle cx="33.5" cy="72.8" fill="#64798A" r="3.9"/><circle cx="33.5" cy="72.8" fill="#D5D6DB" r="2.3"/></g></g><g><polygon fill="#3A556A" points="80.8,85.8 92.6,71.9 95.7,74.5 83.8,88.4    "/><g><g><path d="M94.5,74.8c0.7,0,1.4-0.4,1.8-1.1c5.6-10.4,0.6-21.9,0.4-22.4c-0.4-1-1.6-1.5-2.6-1       c-1,0.4-1.5,1.6-1,2.6l0,0c0,0.1,4.3,10.2-0.3,18.9c-0.5,1-0.2,2.2,0.8,2.7C93.8,74.7,94.1,74.8,94.5,74.8z" fill="#3A556A"/></g><circle cx="94.5" cy="72.8" fill="#64798A" r="3.9"/><circle cx="94.5" cy="72.8" fill="#D5D6DB" r="2.3"/></g></g><path d="M29.6,60.1C32.7,46.8,46.9,36.7,64,36.7h0c17,0,31.2,10.1,34.4,23.5h0.4C96.8,42.6,82,29,64,29h0    c-18,0-32.9,13.6-34.8,31.1H29.6z" fill="#64798A"/><path d="M30.3,60.1C34.4,49.7,47.9,42,64,42h0c16,0,29.6,7.7,33.7,18.1h0.7C95.2,46.8,81,36.7,64,36.7h0    c-17,0-31.2,10.1-34.4,23.5H30.3z" fill="#3A556A"/><g><g><path d="M84.6,85.2v-7.9c0-1.1-0.9-2-2-2h-2.2v9.9H84.6z" fill="#EBF0F3"/><path d="M80.5,85.2v9.9h2.2c1.1,0,2-0.9,2-2v-7.9H80.5z" fill="#D5D6DB"/><path d="M75.9,71.5h-5.2c-1.1,0-2,0.9-2,2v11.8h7.1V71.5z" fill="#64798A"/><path d="M68.8,85.2V97c0,1.1,0.9,2,2,2h5.2V85.2H68.8z" fill="#3A556A"/><path d="M75.9,85.2V99h3.2c0.8,0,1.4-0.6,1.4-1.4v-2.4v-9.9H75.9z" fill="#F6C358"/><path d="M79.1,71.5h-3.2v13.8h4.6v-9.9v-2.4C80.5,72.1,79.8,71.5,79.1,71.5z" fill="#FCD462"/></g><g><path d="M43.3,85.2v-7.9c0-1.1,0.9-2,2-2h2.2v9.9H43.3z" fill="#EBF0F3"/><path d="M47.5,85.2v9.9h-2.2c-1.1,0-2-0.9-2-2v-7.9H47.5z" fill="#D5D6DB"/><path d="M52,71.5h5.2c1.1,0,2,0.9,2,2v11.8H52V71.5z" fill="#64798A"/><path d="M59.1,85.2V97c0,1.1-0.9,2-2,2H52V85.2H59.1z" fill="#3A556A"/><path d="M52,85.2V99h-3.2c-0.8,0-1.4-0.6-1.4-1.4v-2.4v-9.9H52z" fill="#F6C358"/><path d="M48.9,71.5H52v13.8h-4.6v-9.9v-2.4C47.5,72.1,48.1,71.5,48.9,71.5z" fill="#FCD462"/></g></g></g></g></svg>