<?xml version="1.0" ?><!DOCTYPE svg  PUBLIC '-//W3C//DTD SVG 1.1//EN'  'http://www.w3.org/Graphics/SVG/1.1/DTD/svg11.dtd'><svg id="Layer_1" style="enable-background:new 0 0 512 512;" version="1.1" viewBox="0 0 512 512" xml:space="preserve" xmlns="http://www.w3.org/2000/svg" xmlns:xlink="http://www.w3.org/1999/xlink"><style type="text/css">
	.st0{fill:#72C6E9;}
	.st1{fill:#FF4731;}
	.st2{fill:#D11F1F;}
	.st3{fill:#993611;}
	.st4{fill:#FFFFFF;}
	.st5{fill:#80BFE1;}
	.st6{fill:#B3B3B4;}
	.st7{fill:#CE93D8;}
	.st8{fill:#9575CD;}
	.st9{fill:#BA68C8;}
	.st10{fill:#AB47BC;}
	.st11{opacity:0.21;fill:#231F20;}
	.st12{fill:#D2E2EA;}
	.st13{fill:#F29C21;}
	.st14{fill:#E38D10;}
	.st15{fill:#EFC849;}
	.st16{fill:#61B500;}
	.st17{fill:#529900;}
	.st18{fill:#68C200;}
	.st19{fill:#F57F17;}
	.st20{fill:#FFEB3B;}
	.st21{fill:#FFB300;}
	.st22{fill:#DB8100;}
	.st23{fill:#8D4E38;}
	.st24{fill:#F3735C;}
	.st25{fill:#F5FAFC;}
	.st26{fill:#EA3924;}
	.st27{fill:#FF442E;}
	.st28{opacity:0.2;}
	.st29{fill:#D1D3D4;}
	.st30{fill:#B8B546;}
	.st31{fill:#D1CE50;}
	.st32{fill:#F7E81C;}
	.st33{fill:#E8D91B;}
	.st34{fill:#FFF130;}
	.st35{fill:#827B18;}
	.st36{fill:#8DC63F;}
	.st37{opacity:0.2;fill:#231F20;}
	.st38{opacity:0.1;}
	.st39{opacity:0.29;fill:#FFFFFF;}
</style><g><path class="st0" d="M512,256c0,141.2-114.4,255.8-255.6,256H256c-27.2,0-53.5-4.3-78.1-12.2C74.7,466.8,0,370.1,0,256    C0,114.6,114.6,0,256,0c118.2,0,217.7,80.1,247.1,189c1.8,6.5,3.2,13,4.5,19.7C510.5,224,512,239.8,512,256z"/><g><g><rect class="st1" height="236" width="229.2" x="122.3" y="130.1"/><g><polygon class="st2" points="159.8,141.8 115.4,161.7 159.8,161.7      "/><polygon class="st2" points="314,141.8 314,161.7 358.4,161.7      "/><polygon class="st3" points="314,141.8 314,130.1 351.5,130.1      "/><polygon class="st3" points="159.8,141.8 159.8,130.1 122.3,130.1      "/><rect class="st3" height="31.6" width="154.1" x="159.8" y="130.1"/></g><g><polygon class="st4" points="196.5,237.1 235.5,266.6 261.4,94.6 222.7,65.1      "/><polygon class="st5" points="205.3,178.8 244.3,208.3 255.6,133.6 216.7,104.3      "/><polygon class="st6" points="222.4,65.2 302.9,62 332.8,47.4 252.8,42.9      "/><polygon class="st7" points="222.4,65.2 261.4,94.6 252.8,42.9      "/><polygon class="st8" points="222.4,65.2 255,56.4 252.8,42.9      "/><polygon class="st9" points="252.8,42.9 261.4,94.6 304.5,95 339.7,95.4 342,95.4 332.8,47.4      "/><path class="st10" d="M330.3,35l-71.8-5.5c-2.1-0.2-3.9,1.3-4.2,3.4l-1.5,9.9l80,4.5l1.2-7.8c0.2-1.1-0.1-2.2-0.8-3.1       C332.4,35.6,331.4,35.1,330.3,35z"/><polygon class="st4" points="235.5,266.6 316.1,267.5 342,95.4 261.4,94.6      "/><polygon class="st4" points="244.3,208.3 325.3,209.1 336.1,134.2 255.6,133.6      "/><path class="st11" d="M316.3,63.7c-0.3-0.5-0.7-1-1.1-1.5c-0.3-0.5-0.7-1-1.1-1.5c-2-3.2-5.4-5.5-9-6c-1.1-0.2-2.2-0.2-3.4,0       c-1.9,0.3-3.5,1-4.9,2.1l-4.2,3.1c-3.4,2.5-5.1,7-4.1,11.8c0.5,2.2,1.5,4.2,2.9,5.8l13,17.6l35.3,0.4l-0.5-0.6       C339.1,94.5,316.4,63.7,316.3,63.7z"/><path class="st12" d="M293,68.4c-1.1-4.7,0.7-9.2,4.1-11.8l-4.3,3.2c-3.4,2.5-5.1,7-4.1,11.8c1.5,6.6,7.8,11.2,14.2,10.3       c1.8-0.3,3.4-1,4.8-2l4.3-3.2c-1.3,1-3,1.7-4.8,2C300.8,79.7,294.4,75.1,293,68.4z"/><path class="st4" d="M301.8,54.7c-6.4,0.9-10.3,7.1-8.8,13.7c1.5,6.6,7.8,11.2,14.2,10.3c6.4-0.9,10.3-7.1,8.8-13.7       C314.5,58.4,308.1,53.8,301.8,54.7z"/></g><g><ellipse class="st13" cx="173.3" cy="155.2" rx="33.6" ry="127.5" transform="matrix(0.9578 -0.2875 0.2875 0.9578 -37.3042 56.37)"/><g><path class="st14" d="M189.2,230.1c14.9,4,28.7,0.3,28.7,0.3l-53.8-14.4C164.2,216.1,174.3,226.2,189.2,230.1z"/><path class="st15" d="M164.2,216.1l53.8,14.4c0,0-10.2-10.1-25-14.1C178,212.4,164.2,216.1,164.2,216.1z"/></g><g><path class="st14" d="M178,185.2c16.3,4.4,31.6,0.4,31.6,0.4l-59.2-15.9C150.4,169.7,161.7,180.8,178,185.2z"/><path class="st15" d="M150.4,169.7l59.2,15.9c0,0-11.2-11.1-27.6-15.5C165.7,165.7,150.4,169.7,150.4,169.7z"/></g><g><path class="st14" d="M167,139.6c16.3,4.4,31.6,0.4,31.6,0.4l-59.2-15.9C139.4,124.1,150.7,135.2,167,139.6z"/><path class="st15" d="M139.4,124.1l59.2,15.9c0,0-11.2-11.1-27.6-15.5C154.7,120.1,139.4,124.1,139.4,124.1z"/></g><g><path class="st14" d="M156.2,93.3c14.9,4,28.7,0.3,28.7,0.3l-53.8-14.4C131.1,79.2,141.3,89.3,156.2,93.3z"/><path class="st15" d="M131.1,79.2l53.8,14.4c0,0-10.2-10.1-25-14.1C145,75.6,131.1,79.2,131.1,79.2z"/></g></g><g><path class="st16" d="M138.3,41.9c-4.4-11.1,97.1,74.7,118,221.7l-18.5,1.9C223.2,184.4,188.5,110.3,138.3,41.9z"/><path class="st17" d="M169.8,30.3c5.2-7.7,94.6,86.1,84,236.3l-18.5-1.7C235.3,264.9,237.2,105.3,169.8,30.3z"/><path class="st18" d="M228.6,22.5c0,0-6.1,7.5-7.6,10.3c-22.1,57.8-8.2,112.9,6.1,240.8l13.4-4.1       C225.7,179.9,218.1,95.1,228.6,22.5z"/></g><g><path class="st4" d="M208,202.4l101.9-60l-19.6-33.2c-3.2,1.1-6.8-0.2-8.6-3.2c-1.8-3-1.1-6.8,1.4-9.1l-5-8.5l-101.9,60       L208,202.4z"/><path class="st19" d="M208,202.4c6,4.9,17.4,16.8,29.6,27.3c-10.4-12.9-36.5-58.9-34-61.1L278,88.2l-101.9,60       C184.2,169,194,185.9,208,202.4z"/><path class="st20" d="M176.1,148.2c10.1,12.1,26,23.7,27.9,21.1c4.4-6.1,74.1-81.1,74.1-81.1       C237.1,109.2,205.5,128.5,176.1,148.2z"/><path class="st21" d="M282.1,106.7c-1.8-3-1.1-6.8,1.4-9.1l-5-8.5c-24.9,28.6-49.7,55.4-74.5,80.3c-1.5,0.9,5.1,14.3,13.3,28.6       c10.1,17.7,22.6,36.9,24.6,35.8l68.4-90.5c-6.1-13.1-14.7-26.3-19.6-33.2C287.5,111,283.9,109.7,282.1,106.7z"/><ellipse class="st4" cx="284.5" cy="127.6" rx="7.3" ry="7.3" transform="matrix(0.8618 -0.5073 0.5073 0.8618 -25.4175 161.9248)"/><ellipse class="st4" cx="255.1" cy="136.4" rx="7.3" ry="7.3" transform="matrix(0.8618 -0.5073 0.5073 0.8618 -33.9299 148.2523)"/><ellipse class="st4" cx="273.6" cy="153.4" rx="4.9" ry="4.9" transform="matrix(0.8618 -0.5073 0.5073 0.8618 -40.0166 160.003)"/><ellipse class="st4" cx="295.7" cy="148.9" rx="7.3" ry="7.3" transform="matrix(0.8618 -0.5073 0.5073 0.8618 -34.669 170.589)"/><ellipse class="st4" cx="235.7" cy="162.3" rx="7.3" ry="7.3" transform="matrix(0.8618 -0.5073 0.5073 0.8618 -49.7638 141.9906)"/><ellipse class="st4" cx="261.9" cy="174.5" rx="7.3" ry="7.3" transform="matrix(0.8618 -0.5073 0.5073 0.8618 -52.2949 156.9833)"/><ellipse class="st4" cx="250.9" cy="202.6" rx="7.3" ry="7.3" transform="matrix(0.8618 -0.5073 0.5073 0.8618 -68.0716 155.2553)"/><ellipse class="st4" cx="231.4" cy="183.9" rx="5.2" ry="5.2" transform="matrix(0.8618 -0.5073 0.5073 0.8618 -61.3147 142.8167)"/><ellipse class="st22" cx="283.6" cy="126.1" rx="7.3" ry="7.3" transform="matrix(0.8618 -0.5073 0.5073 0.8618 -24.7667 161.2589)"/><ellipse class="st22" cx="254.2" cy="134.9" rx="7.3" ry="7.3" transform="matrix(0.8618 -0.5073 0.5073 0.8618 -33.2793 147.5852)"/><ellipse class="st22" cx="272.7" cy="151.9" rx="4.9" ry="4.9" transform="matrix(0.8618 -0.5073 0.5073 0.8618 -39.3661 159.3373)"/><ellipse class="st22" cx="294.8" cy="147.4" rx="7.3" ry="7.3" transform="matrix(0.8618 -0.5073 0.5073 0.8618 -34.0188 169.9233)"/><ellipse class="st22" cx="234.8" cy="160.8" rx="7.3" ry="7.3" transform="matrix(0.8618 -0.5072 0.5072 0.8618 -49.1138 141.3224)"/><ellipse class="st22" cx="261" cy="172.9" rx="7.3" ry="7.3" transform="matrix(0.8618 -0.5073 0.5073 0.8618 -51.6448 156.3174)"/><ellipse class="st22" cx="250" cy="201" rx="7.3" ry="7.3" transform="matrix(0.8618 -0.5073 0.5073 0.8618 -67.4218 154.5885)"/><ellipse class="st22" cx="230.5" cy="182.4" rx="5.2" ry="5.2" transform="matrix(0.8618 -0.5073 0.5073 0.8618 -60.6644 142.1504)"/></g><g><rect class="st23" height="49.9" transform="matrix(0.2605 -0.9655 0.9655 0.2605 70.2045 425.0489)" width="81.5" x="271.8" y="141.8"/><path class="st4" d="M338.3,167.1l-1.2,4.4c-4.8,4.9-15.5,6.5-26.8,3.4c-11.2-3-19.7-9.8-21.4-16.4l1.2-4.4       c-2,7.2,7.3,16,20.5,19.6C323.9,177.3,336.3,174.3,338.3,167.1z"/><path class="st4" d="M343.2,148.8l-1.2,4.4c-4.8,4.9-15.5,6.5-26.8,3.4c-11.2-3-19.7-9.8-21.4-16.4l1.2-4.4       c-2,7.2,7.3,16,20.5,19.6C328.9,159,341.3,156,343.2,148.8z"/><rect class="st4" height="1.7" transform="matrix(0.2607 -0.9654 0.9654 0.2607 57.8719 416.3419)" width="72" x="264.8" y="169.5"/><rect class="st4" height="1.7" transform="matrix(0.2607 -0.9654 0.9654 0.2607 67.7847 440.4763)" width="72" x="285.5" y="175.1"/><g><ellipse class="st24" cx="323.1" cy="127.7" rx="14.2" ry="24.9" transform="matrix(0.2605 -0.9655 0.9655 0.2605 115.6645 406.354)"/><ellipse class="st25" cx="323.1" cy="127.7" rx="1.6" ry="2.8" transform="matrix(0.2605 -0.9655 0.9655 0.2605 115.6687 406.3571)"/><ellipse class="st25" cx="319" cy="118.7" rx="2.8" ry="5" transform="matrix(0.2605 -0.9655 0.9655 0.2605 121.2676 395.7458)"/><ellipse class="st25" cx="333" cy="122.5" rx="2.2" ry="3.9" transform="matrix(0.2605 -0.9655 0.9655 0.2605 127.9867 412.0837)"/><ellipse class="st25" cx="322.8" cy="136.1" rx="2.2" ry="3.9" transform="matrix(0.2605 -0.9655 0.9655 0.2605 107.31 412.2849)"/><ellipse class="st25" cx="333.9" cy="138.4" rx="2.8" ry="5" transform="matrix(0.2605 -0.9655 0.9655 0.2605 113.2751 424.7762)"/><ellipse class="st25" cx="307.3" cy="130.6" rx="2.2" ry="3.9" transform="matrix(0.2605 -0.9655 0.9655 0.2605 101.1329 393.2299)"/><ellipse class="st25" cx="306.8" cy="122.6" rx="2.2" ry="3.9" transform="matrix(0.2605 -0.9655 0.9655 0.2605 108.491 386.8855)"/><ellipse class="st25" cx="339.7" cy="131.5" rx="2.2" ry="3.9" transform="matrix(0.2605 -0.9655 0.9655 0.2605 124.2627 425.2413)"/></g></g><rect class="st26" height="230.5" width="243.1" x="115.4" y="161.7"/><polygon class="st27" points="361,405.7 112.8,405.7 115.4,356.7 358.4,356.7     "/><g><path class="st28" d="M194.8,177.4c0,2.1-5.4,3.8-12.1,3.8c-6.7,0-12.1-1.7-12.1-3.8H194.8z"/><path class="st28" d="M197.4,177.4c0,3.1-6.6,5.5-14.7,5.5c-8.1,0-14.7-2.5-14.7-5.5H197.4z"/><path class="st28" d="M200.8,177.4c0,4.6-8.1,8.3-18.1,8.3c-10,0-18.1-3.7-18.1-8.3H200.8z"/></g><g><path class="st28" d="M302.6,177.4c0,2.1-5.4,3.8-12.1,3.8c-6.7,0-12.1-1.7-12.1-3.8H302.6z"/><path class="st28" d="M305.3,177.4c0,3.1-6.6,5.5-14.7,5.5s-14.7-2.5-14.7-5.5H305.3z"/><path class="st28" d="M308.7,177.4c0,4.6-8.1,8.3-18.1,8.3s-18.1-3.7-18.1-8.3H308.7z"/></g><polygon class="st28" points="284.7,177.4 284.7,234.7 194.3,234.7 194.3,177.4 176.3,177.4 176.3,234.7 176.3,236.4       194.3,254.4 284.7,254.4 302.7,236.4 302.7,234.7 302.7,177.4     "/><g><polygon class="st29" points="300.1,231.2 300.1,231.2 282.1,249.2 191.7,249.2 173.7,231.2 173.7,231.2      "/><polygon class="st4" points="191.7,177.4 191.7,249.2 173.7,231.2 173.7,177.4      "/><polygon class="st4" points="300.1,177.4 300.1,231.2 282.1,249.2 282.1,177.4      "/></g></g><g><path class="st30" d="M70.3,340.6l-8.6,6c-1,0.7-1.3,2-0.6,3.1c7.2,11.7,9,12,10.7,24.9l26.1,3.9l-10-16.1      c-7.6-7-11.8-11.9-14.1-20.5C73.4,340.3,71.6,339.7,70.3,340.6z"/><path class="st31" d="M65.8,344.4c1.3-0.9,3.1-0.2,3.5,1.3c2.3,8.6,6,13.4,13.6,20.4l7.4,11.2l7.7,1.1l-10-16.1      c-7.6-7-11.8-11.9-14.1-20.5c-0.4-1.5-2.2-2.2-3.5-1.3l-8.6,6c-0.5,0.3-0.8,0.8-0.9,1.3L65.8,344.4z"/><path class="st32" d="M302.9,380.1c-0.1,0.4-0.3,0.8-0.4,1.2c0,0,0,0.1-0.1,0.1c-1.1,2.5-4.8,10-6.7,12.6      c-0.2,0.3-0.4,0.5-0.5,0.7c-5.4,7.6-9.2,12.5-13.8,16.8c0,0,0,0,0,0c-4.8,4.4-10.6,8.1-20,13.2c-72,38.9-148.1,33.8-185.8-16.9      c-0.1-0.2-0.2-0.4-0.4-0.6c-0.1-0.2-0.3-0.4-0.4-0.7c-0.1-0.2-0.2-0.3-0.3-0.5c-0.2-0.4-0.4-0.8-0.6-1.2      c-0.2-0.4-0.4-0.8-0.6-1.2c-0.2-0.4-0.4-0.8-0.5-1.2c-0.1-0.2-0.2-0.4-0.2-0.6c-0.2-0.4-0.3-0.8-0.5-1.2      c-0.1-0.2-0.1-0.4-0.2-0.6c-0.1-0.2-0.2-0.5-0.2-0.7c0-0.1-0.1-0.3-0.1-0.4c0-0.1-0.1-0.2-0.1-0.3c0-0.2-0.1-0.3-0.1-0.5      l-0.1-0.3c0-0.2-0.1-0.3-0.1-0.5c0-0.1,0-0.2-0.1-0.2c0-0.2-0.1-0.3-0.1-0.5c0-0.1,0-0.1,0-0.2c0-0.2-0.1-0.4-0.1-0.5      c0-0.1,0-0.1,0-0.2c0-0.2-0.1-0.4-0.1-0.6c0-0.1,0-0.1,0-0.2c0-0.2-0.1-0.4-0.1-0.6c0,0,0-0.1,0-0.1c0-0.2-0.1-0.4-0.1-0.6      c0,0,0-0.1,0-0.1c0-0.2-0.1-0.4-0.1-0.6c0,0,0,0,0-0.1c0-0.2-0.1-0.5-0.1-0.7c0,0,0,0,0,0c-0.6-5.7,0-11.6,1.6-17.4l1.1-0.9      l7.3-5.6l7.7-5.9c0.2,0,0.3,0.1,0.5,0.1c0.1,0,0.2,0,0.2,0c10,2.1,29,18,48.8,25.1c26.3,9.5,54.1,9.6,80.3,0      c21.8-8,42.2-15.9,57.2-17.5c7-0.7,13.6-1.7,20-0.9c0.3,0,0.5,0.1,0.7,0.1c0.1,0,0.3,0,0.4,0.1l0,0l3.2,5.1h0l0.7,1.1      L302.9,380.1z"/><path class="st33" d="M302.9,380.1c-0.1,0.4-0.3,0.8-0.4,1.2c0,0,0,0.1-0.1,0.1c-1.1,2.5-4.8,10-6.7,12.6      c-0.2,0.3-0.4,0.5-0.5,0.7c-5,7.1-9.2,12.4-13.8,16.8c0,0,0,0,0,0c-4.8,4.4-10.6,8.1-20,13.2c-72,38.9-148.1,33.8-185.8-16.9      c-0.1-0.2-0.2-0.4-0.4-0.6c-0.1-0.2-0.3-0.4-0.4-0.7c-0.1-0.2-0.2-0.3-0.3-0.5c-0.2-0.4-0.4-0.8-0.6-1.2      c-0.2-0.4-0.4-0.8-0.6-1.2c-0.2-0.4-0.4-0.8-0.5-1.2c-0.1-0.2-0.2-0.4-0.2-0.6c-0.2-0.4-0.3-0.8-0.5-1.2      c-0.1-0.2-0.1-0.4-0.2-0.6c-0.1-0.2-0.2-0.5-0.2-0.7c0-0.1-0.1-0.3-0.1-0.4c0-0.1-0.1-0.2-0.1-0.3c0-0.2-0.1-0.3-0.1-0.5      l-0.1-0.3c0-0.2-0.1-0.3-0.1-0.5c0-0.1,0-0.2-0.1-0.2c0-0.2-0.1-0.3-0.1-0.5c0-0.1,0-0.1,0-0.2c0-0.2-0.1-0.4-0.1-0.5      c0-0.1,0-0.1,0-0.2c0-0.2-0.1-0.4-0.1-0.6c0-0.1,0-0.1,0-0.2c0-0.2-0.1-0.4-0.1-0.6c0,0,0-0.1,0-0.1c0-0.2-0.1-0.4-0.1-0.6      c0,0,0-0.1,0-0.1c0-0.2-0.1-0.4-0.1-0.6c0,0,0,0,0-0.1c0-0.2-0.1-0.5-0.1-0.7c0,0,0,0,0,0c-0.6-5.7,0-11.6,1.6-17.4l1.1-0.9      c1.4,5.4,4.5,13,7.3,17.5c35.3,58,109.5,52.6,181.1,19.1c13.8-6.4,28.5-18.5,37.3-32.6c0.5-0.7,0.9-1.5,1.3-2.2L302.9,380.1z"/><path class="st34" d="M299.3,374.4L299.3,374.4c-0.7,0.3-1.5,0.6-2.2,0.8c-9.1,3.4-17.3,6.5-20.3,7.1      c-27.8,7.6-34.9,13.3-56.1,20.1c-26.6,8.5-57.2,11.9-83.5,2.5c-16.1-5.8-42.1-28.5-57-36.7l7.7-5.9c0.2,0,0.3,0.1,0.5,0.1      c0.1,0,0.2,0,0.2,0c10,2.1,29,18,48.8,25.1c26.3,9.5,54.1,9.6,80.3,0c21.8-8,42.2-15.9,57.2-17.5c7-0.7,13.6-1.7,20-0.9      c0.3,0,0.5,0.1,0.7,0.1c0.1,0,0.3,0,0.4,0.1l0,0L299.3,374.4z"/><path class="st35" d="M302.9,380.1c-0.1,0.4-0.3,0.8-0.4,1.2c-0.9-0.1-2.3-1.5-3.8-3.5c-0.3-0.5-0.7-1-1-1.5      c-0.2-0.4-0.4-0.7-0.6-1c-1.6-2.8-2.2-5.3-1.4-5.8c0.1-0.1,0.2-0.1,0.4-0.1l3.2,5.1l0.7,1.1L302.9,380.1z"/></g><g><path class="st36" d="M421.3,358.7c-2.3,4.4-6.2,7.2-9.3,8.9c0,0-0.1,0-0.1,0.1c-0.9,0.5-1.7,0.8-2.3,1.1c0,0-0.1,0-0.1,0      c-0.3,0.1-0.5,0.2-0.7,0.3c-0.4,0.2-0.7,0.3-0.9,0.3c0,0-0.1,0-0.1,0s-0.2-0.7-0.4-1.8c0-0.2-0.1-0.3-0.1-0.5c0,0,0,0,0-0.1      c-0.1-0.5-0.2-1-0.3-1.6c0-0.2,0-0.4-0.1-0.5c-0.2-2-0.3-4.6,0.1-7.2c0,0,0,0,0-0.1c0.3-1.8,0.9-3.7,1.8-5.4      c0.8-1.5,1.7-2.8,2.8-4c0.1-0.1,0.1-0.1,0.2-0.2c4.4-4.7,10.4-6.6,10.4-6.6S425.3,351,421.3,358.7z"/><path class="st37" d="M412.1,367.1c-0.1,0.2-0.1,0.4-0.2,0.6c-0.3,0.9-0.5,1.5-0.5,1.5s-0.7,0.1-1.8-0.4c0,0-0.1,0-0.1-0.1      c-0.3-0.1-0.5,0.1-0.7,0.4c-0.2,0.3-0.5,0.6-0.9,0.4c0,0,0,0,0,0c-0.2-0.6-0.4-1.4-0.6-2.2c0,0,0,0,0-0.1c0-0.1-0.1-0.3-0.1-0.4      c0-0.2-0.1-0.5-0.1-0.7c0-0.2,0-0.3-0.1-0.5c0-0.2,0-0.4-0.1-0.5c-0.2-2.2-0.2-4.7,0.1-7.2c0,0,0,0,0-0.1      c0.3-1.8,0.9-3.7,1.8-5.4c0.8-1.5,1.7-2.8,2.8-4c0.1-0.1,0.1-0.1,0.2-0.2C414.6,355.5,413.1,363.4,412.1,367.1z"/><path class="st36" d="M406.2,347c4.5,10.3,1.2,22.3,1.2,22.3s-13.1-4.8-17.6-15.1c-4.5-10.3,0.1-22.2,0.1-22.2      S401.7,336.7,406.2,347z"/><path class="st26" d="M450.9,388.4c-2.3-16.9-11-24.7-24.5-25.5c-9-0.9-13.3,6-18.1,5.5c-4.8,0.5-9.1-6.4-18.1-5.5      c-13.5,0.8-22.3,8.6-24.5,25.5c-2.8,20.9,11.9,47.2,24.2,52c6.1,2.4,11.2-2,18.5-1.8c6.6,0.2,12.3,4.2,18.5,1.8      C439,435.6,453.7,409.4,450.9,388.4z"/><path class="st38" d="M450.9,388.4c-1.4-10.1-5-17-10.7-21c1.2,3,2.1,6.4,2.6,10.2c2.8,20.9-11.9,47.2-24.2,52      c-6.1,2.4-12.5,4-19.1,3.7c-7.3-0.2-11.7-1.3-17.9-3.7c-2.5-1-5.1-2.8-7.6-5.4c4.6,7.9,10.4,14.1,15.7,16.1      c6.1,2.4,11.2-2,18.5-1.8c6.6,0.2,12.3,4.2,18.5,1.8C439,435.6,453.7,409.4,450.9,388.4z"/><circle class="st39" cx="386.3" cy="381.2" r="9.7"/></g></g></g></svg>