<?xml version="1.0" ?><!DOCTYPE svg  PUBLIC '-//W3C//DTD SVG 1.1//EN'  'http://www.w3.org/Graphics/SVG/1.1/DTD/svg11.dtd'><svg enable-background="new 0 0 64 64" height="64px" version="1.1" viewBox="0 0 64 64" width="64px" xml:space="preserve" xmlns="http://www.w3.org/2000/svg" xmlns:xlink="http://www.w3.org/1999/xlink"><g id="Layer_2"><circle cx="32" cy="32" fill="#4DD0E1" r="32"/></g><g id="Layer_1"><g id="NECKLACE"><path d="M52.16,20.894c-1.045-0.605-9.51-3.324-11.485-4.458    c-1.976-1.136-1.033-4.973-2.279-6.052L31.999,10l-6.398,0.384c-1.246,1.079-0.304,4.917-2.279,6.052    c-1.976,1.134-10.44,3.852-11.484,4.458C10.792,21.501,12.902,54,32.033,54C51.165,54,53.204,21.501,52.16,20.894z" fill="#37474F" id="element5_5_"/><path d="M42.452,17.164c0.088,0.04,0.172,0.084,0.259,0.126c2.847,0.854,4.653,2.751,4.653,6.95    c0,8.324-7.076,15.451-15.333,15.451c-8.259,0-15.334-7.126-15.334-15.451c0-4.127,1.745-6.032,4.507-6.905    c0.1-0.049,0.198-0.099,0.301-0.146c-3.322,0.801-5.466,2.743-5.466,7.421c0,8.681,7.378,16.112,15.992,16.112    c8.612,0,15.991-7.431,15.991-16.112C48.022,19.882,45.832,17.95,42.452,17.164z" fill="#FFFFFF" id="element4_12_"/><path d="M16.66,24.243c0,8.344,7.093,15.49,15.371,15.49c8.276,0,15.368-7.146,15.368-15.49    c0-4.209-1.809-6.112-4.662-6.967c2.373,1.146,3.85,3.202,3.85,6.905c0,7.917-6.728,14.696-14.583,14.696    c-7.854,0-14.582-6.779-14.582-14.696c0-3.654,1.439-5.708,3.758-6.861C18.409,18.195,16.66,20.105,16.66,24.243z" fill="#EEEEEE" id="element3_14_"/><path d="M34.313,44.691c0,1.86-1.044,2.974-2.331,2.974s-2.332-1.114-2.332-2.974    c0-1.863,2.332-4.959,2.332-4.959S34.313,42.828,34.313,44.691z" fill="#E0E0E0" id="element2_13_"/><path d="M33.721,44.768c0,1.469-0.756,2.659-1.689,2.659c-0.936,0-1.692-1.19-1.692-2.659    c0-1.465,0.757-2.656,1.692-2.656C32.965,42.111,33.721,43.302,33.721,44.768z" fill="#FF5252" id="element1_13_"/><path d="M33.115,45.403c0,0.945-0.484,1.709-1.084,1.709c-0.601,0-1.087-0.764-1.087-1.709    c0-0.94,0.486-1.704,1.087-1.704C32.631,43.699,33.115,44.463,33.115,45.403z" fill="#FF8A80" id="element_8_"/></g></g></svg>