<?xml version="1.0" ?><!DOCTYPE svg  PUBLIC '-//W3C//DTD SVG 1.1//EN'  'http://www.w3.org/Graphics/SVG/1.1/DTD/svg11.dtd'><svg enable-background="new 0 0 200 200" height="200px" id="Layer_1" version="1.1" viewBox="0 0 200 200" width="200px" xml:space="preserve" xmlns="http://www.w3.org/2000/svg" xmlns:xlink="http://www.w3.org/1999/xlink"><g><circle cx="100" cy="100.001" fill="#F15424" r="90.001"/><g><path d="M152.646,95.724l-0.723-3.243c-0.11-0.498-0.411-0.953-0.874-1.248c-0.465-0.293-1.004-0.375-1.501-0.264    l-88.876,19.768l1.586,7.13l88.875-19.767c0.498-0.111,0.953-0.411,1.249-0.874C152.678,96.761,152.756,96.222,152.646,95.724z     M148.208,96.345c-0.551,0-0.995-0.448-0.995-0.999s0.444-0.995,0.995-0.995c0.552,0,0.998,0.445,0.998,0.995    S148.76,96.345,148.208,96.345z" fill="#E6E5E5"/><path d="M129.099,100.231c0.053,0.239,0.002,0.496-0.166,0.728c-0.164,0.23-0.414,0.38-0.688,0.439l-48.46,10.78    l-0.761-3.428l48.458-10.78c0.274-0.06,0.565-0.026,0.811,0.105c0.249,0.141,0.406,0.358,0.459,0.598L129.099,100.231z" fill="#CCCBCA"/><path d="M158.501,130.953c0,1.021-0.389,2.04-1.166,2.817c-0.78,0.78-1.799,1.169-2.818,1.169H52.548    c-1.02,0-2.039-0.389-2.815-1.169c-0.78-0.777-1.168-1.797-1.168-2.817v-3.981h109.936V130.953z" fill="#242D3C"/><path d="M150.398,86.896c0.157,0.485,0.133,1.03-0.117,1.521c-0.246,0.492-0.67,0.835-1.154,0.993l-6.314,2.065    c-0.484,0.16-1.029,0.132-1.52-0.116c-0.491-0.251-0.834-0.675-0.994-1.157v-0.001L150.398,86.896L150.398,86.896z" fill="#CCCBCA"/><path d="M112.021,126.889H86.125v-7.886h19.919c1.528,0,3.06,0.584,4.227,1.751c1.165,1.165,1.75,2.694,1.75,4.224    V126.889z" fill="#CCCBCA"/><path d="M143.897,126.972c0-0.51,0.195-1.02,0.582-1.408c0.389-0.389,0.899-0.586,1.41-0.586h7.752    c0.509,0,1.021,0.197,1.408,0.586c0.389,0.389,0.585,0.898,0.585,1.408l0,0H143.897L143.897,126.972z" fill="#CCCBCA"/><path d="M84.373,111.956c-1.167-1.169-2.697-1.753-4.225-1.753H48.565v16.769h37.56V116.18    C86.125,114.65,85.539,113.121,84.373,111.956z M80.894,118.172c-1.1,0-1.992-0.892-1.992-1.992s0.892-1.991,1.992-1.991    c1.101,0,1.994,0.891,1.994,1.991S81.995,118.172,80.894,118.172z" fill="#CCCBCA"/><path d="M41.558,127.344c0,0.257,0.097,0.51,0.291,0.705c0.194,0.193,0.45,0.292,0.706,0.292h6.01v-1.992h-6.01    c-0.256,0-0.512,0.096-0.706,0.292C41.655,126.834,41.558,127.089,41.558,127.344L41.558,127.344z" fill="#CCCBCA"/><path d="M149.175,72.02c-0.781-2.471-2.523-4.637-5.021-5.896c-2.501-1.255-5.279-1.362-7.729-0.517L92.557,82.19    L74.171,88.79L51.26,97.359c-3.403,1.07-6.399,3.442-8.179,6.856c-1.781,3.413-2.006,7.226-0.935,10.629l1.496,5.928    l110.061-34.429L149.175,72.02z" fill="#242D3C"/><path d="M79.485,124.978c0-1.018-0.39-2.037-1.168-2.815c-0.777-0.779-1.797-1.167-2.818-1.167H52.548    c-1.02,0-2.039,0.388-2.815,1.167c-0.78,0.778-1.168,1.798-1.168,2.815v1.994h30.92V124.978z" fill="#242D3C"/></g></g></svg>