<?xml version="1.0" ?><!DOCTYPE svg  PUBLIC '-//W3C//DTD SVG 1.1//EN'  'http://www.w3.org/Graphics/SVG/1.1/DTD/svg11.dtd'><svg enable-background="new 0 0 512 512" id="Layer_1" version="1.1" viewBox="0 0 512 512" xml:space="preserve" xmlns="http://www.w3.org/2000/svg" xmlns:xlink="http://www.w3.org/1999/xlink"><g><circle cx="256" cy="256" fill="#84DBFF" r="253"/><g><path d="M125,298.1v73.6c0,7.3,5.9,13.3,13.3,13.3h14.4V284.8h-14.4C131,284.8,125,290.8,125,298.1z" fill="#324A5E"/><path d="M373.7,284.8h-14.4V385h14.4c7.3,0,13.3-6,13.3-13.3v-73.6C387,290.8,381,284.8,373.7,284.8z" fill="#324A5E"/><path d="M213.4,111.2v24.3h85.3v-24.3c0-10.6-8.6-19.2-19.2-19.2h-46.8C222,91.9,213.4,100.6,213.4,111.2z     M229.4,135.1V112c0-2.2,1.8-4,4-4h45.3c2.2,0,4,1.8,4,4v23.1H229.4z" fill="#324A5E"/><path d="M282.5,124.5h-53c-44.7,0-81,36.3-81,81v103.4h2.1h2.1h206.6h2.1h2.1V205.5    C363.5,160.8,327.2,124.5,282.5,124.5z" fill="#324A5E"/><path d="M148.5,258.8v137.5c0,9.8,8,17.8,17.8,17.8h179.4c9.8,0,17.8-8,17.8-17.8V258.8" fill="#5D6D7E"/><path d="M363.5,232.2c0-44.7-36.3-81-81-81h-53c-44.7,0-81,36.3-81,81h2.1l0,0h210.8l0,0H363.5z" fill="#2B3B4E"/><rect fill="#231F20" height="2.1" width="4.2" x="148.5" y="247.8"/><path d="M152.7,241.8l-4.2-0.1c0-1.4,0.1-2.9,0.3-4.3l4.1,0.4C152.8,239.1,152.8,240.5,152.7,241.8z M359.3,241.7    c0-1.4-0.1-2.7-0.2-4l4.1-0.4c0.1,1.4,0.2,2.8,0.3,4.3L359.3,241.7z M153.4,233.8l-4.1-0.6c0.2-1.4,0.4-2.8,0.7-4.2l4.1,0.8    C153.8,231.1,153.6,232.4,153.4,233.8z M358.6,233.6c-0.2-1.3-0.4-2.7-0.7-4l4.1-0.8c0.3,1.4,0.5,2.8,0.7,4.2L358.6,233.6z     M154.9,225.8l-4-1c0.3-1.4,0.7-2.8,1.1-4.1l4,1.2C155.6,223.2,155.3,224.5,154.9,225.8z M357,225.7c-0.3-1.3-0.7-2.6-1.1-3.9    l4-1.2c0.4,1.4,0.8,2.7,1.1,4.1L357,225.7z M157.3,218.1l-3.9-1.4c0.5-1.3,1-2.7,1.6-4l3.8,1.6    C158.3,215.5,157.8,216.8,157.3,218.1z M354.6,217.9c-0.5-1.3-1-2.5-1.5-3.8l3.8-1.6c0.6,1.3,1.1,2.6,1.6,4L354.6,217.9z     M160.5,210.6l-3.7-1.8c0.6-1.3,1.3-2.5,2-3.8l3.6,2C161.7,208.2,161.1,209.4,160.5,210.6z M351.5,210.5c-0.6-1.2-1.2-2.4-1.9-3.6    l3.6-2c0.7,1.2,1.4,2.5,2,3.8L351.5,210.5z M164.4,203.5l-3.5-2.2c0.8-1.2,1.6-2.4,2.4-3.6l3.4,2.4    C165.9,201.3,165.2,202.4,164.4,203.5z M347.5,203.4c-0.7-1.1-1.5-2.3-2.3-3.4l3.4-2.4c0.8,1.2,1.6,2.3,2.4,3.5L347.5,203.4z     M169.1,196.9l-3.3-2.6c0.9-1.1,1.8-2.2,2.7-3.3l3.1,2.8C170.8,194.8,170,195.8,169.1,196.9z M342.8,196.8    c-0.8-1.1-1.7-2.1-2.6-3.1l3.1-2.7c0.9,1.1,1.8,2.2,2.7,3.3L342.8,196.8z M174.5,190.8l-3-2.9c1-1,2-2,3.1-3l2.8,3.1    C176.4,188.9,175.4,189.8,174.5,190.8z M337.5,190.8c-0.9-1-1.9-1.9-2.9-2.8l2.8-3.1c1,1,2.1,2,3.1,3L337.5,190.8z M180.4,185.3    l-2.7-3.2c1.1-0.9,2.2-1.8,3.4-2.6l2.5,3.3C182.5,183.6,181.5,184.4,180.4,185.3z M331.5,185.3c-1-0.9-2.1-1.7-3.2-2.5l2.5-3.3    c1.1,0.9,2.3,1.7,3.4,2.6L331.5,185.3z M186.9,180.5l-2.3-3.5c1.2-0.8,2.4-1.6,3.6-2.3l2.1,3.6C189.2,179,188,179.7,186.9,180.5z     M325,180.4c-1.1-0.7-2.3-1.5-3.4-2.2l2.1-3.6c1.2,0.7,2.4,1.5,3.6,2.3L325,180.4z M193.9,176.3l-1.9-3.7c1.3-0.7,2.5-1.3,3.8-1.9    l1.7,3.8C196.3,175.1,195,175.7,193.9,176.3z M318.1,176.3c-1.2-0.6-2.4-1.2-3.6-1.8l1.7-3.8c1.3,0.6,2.6,1.2,3.8,1.9L318.1,176.3    z M201.2,173l-1.5-3.9c1.3-0.5,2.7-1,4-1.5l1.3,3.9C203.7,172,202.5,172.5,201.2,173z M310.7,172.9c-1.3-0.5-2.5-1-3.8-1.4    l1.3-3.9c1.4,0.5,2.7,0.9,4,1.5L310.7,172.9z M208.9,170.4l-1.1-4c1.4-0.4,2.7-0.7,4.1-1l0.9,4.1    C211.5,169.7,210.2,170,208.9,170.4z M303,170.3c-1.3-0.4-2.6-0.7-3.9-1l0.9-4.1c1.4,0.3,2.8,0.6,4.1,1L303,170.3z M216.8,168.6    l-0.7-4.1c1.4-0.2,2.8-0.4,4.2-0.6l0.5,4.1C219.5,168.2,218.1,168.4,216.8,168.6z M295.1,168.6c-1.3-0.2-2.7-0.4-4-0.6l0.5-4.1    c1.4,0.2,2.8,0.4,4.2,0.6L295.1,168.6z M224.8,167.7l-0.3-4.2c1.4-0.1,2.8-0.1,4.3-0.1l0,4.2C227.5,167.6,226.2,167.6,224.8,167.7    z M287,167.7c-1.3-0.1-2.7-0.1-4.1-0.1l0-4.2c1.4,0,2.9,0.1,4.3,0.1L287,167.7z M278.8,167.6h-4.2v-4.2h4.2V167.6z M270.5,167.6    h-4.2v-4.2h4.2V167.6z M262.2,167.6H258v-4.2h4.2V167.6z M253.8,167.6h-4.2v-4.2h4.2V167.6z M245.5,167.6h-4.2v-4.2h4.2V167.6z     M237.2,167.6H233v-4.2h4.2V167.6z" fill="#1C2A38"/><rect fill="#231F20" height="2.1" width="4.2" x="359.3" y="247.8"/><path d="M331.6,318.6L331.6,318.6l-149.2-0.1v0h-4.2v63.7c0,8.7,7,15.7,15.7,15.7h124c8.7,0,15.7-7,15.7-15.7    v-63.5H331.6z" fill="#FFD05B"/><path d="M318,279.2H194c-8.7,0-15.7,7-15.7,15.7v23.6h2.1l0,0l149.2,0.1v0h4.2v-23.7    C333.7,286.2,326.7,279.2,318,279.2z" fill="#F9B54C"/><rect fill="#2B3B4E" height="4.6" width="4.6" x="182.3" y="318.4"/><rect fill="#2B3B4E" height="4.6" width="4.6" x="186.9" y="313.9"/><rect fill="#2B3B4E" height="4.6" width="4.6" x="191.6" y="318.6"/><rect fill="#2B3B4E" height="4.6" width="4.6" x="196.2" y="313.9"/><rect fill="#2B3B4E" height="4.6" width="4.6" x="200.8" y="318.4"/><rect fill="#2B3B4E" height="4.6" width="4.6" x="205.4" y="313.9"/><rect fill="#2B3B4E" height="4.6" width="4.6" x="210" y="318.4"/><rect fill="#2B3B4E" height="4.6" width="4.6" x="214.6" y="313.9"/><rect fill="#2B3B4E" height="4.6" width="4.6" x="219.2" y="318.4"/><rect fill="#2B3B4E" height="4.6" width="4.6" x="223.8" y="313.9"/><rect fill="#2B3B4E" height="4.6" width="4.6" x="228.5" y="318.6"/><rect fill="#2B3B4E" height="4.6" width="4.6" x="233.1" y="313.9"/><rect fill="#2B3B4E" height="4.6" width="4.6" x="237.6" y="318.4"/><rect fill="#2B3B4E" height="4.6" width="4.6" x="242.2" y="313.9"/><rect fill="#2B3B4E" height="4.6" width="4.6" x="246.8" y="318.4"/><rect fill="#2B3B4E" height="4.6" width="4.6" x="251.4" y="313.9"/><rect fill="#2B3B4E" height="4.6" width="4.6" x="256" y="318.4"/><rect fill="#2B3B4E" height="4.6" width="4.6" x="260.6" y="313.9"/><rect fill="#2B3B4E" height="4.6" width="4.6" x="265.3" y="318.6"/><rect fill="#2B3B4E" height="4.6" width="4.6" x="269.9" y="313.9"/><rect fill="#2B3B4E" height="4.6" width="4.6" x="274.5" y="318.4"/><rect fill="#2B3B4E" height="4.6" width="4.6" x="279.1" y="313.9"/><rect fill="#2B3B4E" height="4.6" width="4.6" x="283.7" y="318.4"/><rect fill="#2B3B4E" height="4.6" width="4.6" x="288.2" y="313.9"/><rect fill="#2B3B4E" height="4.6" width="4.6" x="292.8" y="318.4"/><rect fill="#2B3B4E" height="4.6" width="4.6" x="297.4" y="313.9"/><rect fill="#2B3B4E" height="4.6" width="4.6" x="302.1" y="318.6"/><rect fill="#2B3B4E" height="4.6" width="4.6" x="306.7" y="313.9"/><rect fill="#2B3B4E" height="4.6" width="4.6" x="311.3" y="318.4"/><rect fill="#2B3B4E" height="4.6" width="4.6" x="315.9" y="313.9"/><rect fill="#2B3B4E" height="4.6" width="4.6" x="320.5" y="318.4"/><rect fill="#2B3B4E" height="4.6" width="4.6" x="325.1" y="313.9"/><path d="M210.1,348.3l-2.8-19.6c-0.6-4.1-4.2-7.3-8.4-7.3c-4.2,0-7.8,3.1-8.4,7.3l-2.8,19.6    c-0.5,3.2,0.5,6.5,2.6,9c2.1,2.5,5.2,3.9,8.5,3.9c3.3,0,6.4-1.4,8.5-3.9C209.6,354.8,210.6,351.5,210.1,348.3z M198.9,354.1    c-2.7,0-4.8-2.2-4.8-4.8s2.2-4.8,4.8-4.8c2.7,0,4.8,2.2,4.8,4.8S201.6,354.1,198.9,354.1z" fill="#2B3B4E"/><path d="M359.3,258.1h4.2c0-44.7-36.3-81-81-81h-53c-44.7,0-81,36.3-81,81h4.2l0,0H359.3L359.3,258.1z" fill="#324A5E"/></g></g></svg>