<?xml version="1.0" ?><!DOCTYPE svg  PUBLIC '-//W3C//DTD SVG 1.1//EN'  'http://www.w3.org/Graphics/SVG/1.1/DTD/svg11.dtd'><svg enable-background="new 0 0 64 64" height="64px" version="1.1" viewBox="0 0 64 64" width="64px" xml:space="preserve" xmlns="http://www.w3.org/2000/svg" xmlns:xlink="http://www.w3.org/1999/xlink"><g id="Layer_2"><circle cx="32" cy="32" fill="#FF8A80" r="32"/></g><g id="Layer_1"><g id="sneaker"><path d="M24.31,38.353c-8.847,0.354-14.97-0.489-14.955-1.495    c-0.57,0.932-1.342,1.495-1.195,3.315c-1.478,2.47,7.809,3.084,9.621,3.18c0.01-0.499,0.415-0.903,0.915-0.903h0.562    c0.49,0,0.889,0.388,0.911,0.875c0.554-0.011,1.194-0.024,1.898-0.038c0.041-0.467,0.431-0.837,0.909-0.837h0.56    c0.466,0,0.844,0.345,0.904,0.795c0.622-0.014,1.262-0.021,1.912-0.035c0.076-0.43,0.449-0.76,0.901-0.76h0.562    c0.44,0,0.809,0.311,0.896,0.726c0.644-0.008,1.282-0.016,1.904-0.023v-0.091c0-0.506,0.409-0.915,0.918-0.915h0.56    c0.507,0,0.916,0.409,0.916,0.915v0.069c0.692-0.005,1.333-0.009,1.899-0.005c0.073-0.435,0.448-0.767,0.902-0.767h0.561    c0.472,0,0.855,0.356,0.907,0.814c0.421,0.023,1.079,0.053,1.904,0.074c0.045-0.463,0.433-0.828,0.907-0.828h0.561    c0.483,0,0.875,0.375,0.91,0.852c0.606-0.002,1.245-0.014,1.904-0.034c0.063-0.444,0.441-0.787,0.904-0.787h0.561    c0.419,0,0.769,0.284,0.878,0.67c0.683-0.051,1.367-0.111,2.039-0.191c0.156-0.285,0.453-0.479,0.801-0.479h0.56    c0.213,0,0.404,0.077,0.559,0.196c0.828-0.148,1.612-0.332,2.318-0.556c0.14-0.326,0.463-0.556,0.842-0.556h0.562    c0.004,0,0.005,0,0.01,0c1.168-0.575,1.935-1.327,2.038-2.314c0,0,0.266-0.127,0.343-1.046    C50.616,41.931,35.862,40.617,24.31,38.353z" fill="#546E7A" id="element7_8_"/><path d="M11.718,23.429c-2.246,3.721-1.311,12.234-1.311,12.234s-1.405,1.551-1.264,3.296    c0.138,1.742,9.517,1.889,9.517,1.889s15.768-0.346,18.267-0.197c2.501,0.155,16.092,1.376,17.643-2.605    c0,0-27.454-14.808-27.797-14.124c-0.341,0.685-3.472,2.838-6.11,1.958c-2.638-0.881-3.565-3.844-4.298-4.285    C15.632,21.154,12.745,22.783,11.718,23.429z" fill="#546E7A" id="element6_9_"/><path d="M11.515,23.591C9.17,27.475,9.477,36.738,9.477,36.738s-1.464,1.614-1.317,3.435    c0.146,1.818,9.926,1.973,9.926,1.973s16.445-0.362,19.05-0.205c2.607,0.157,16.783,1.434,18.4-2.721    c1.618-4.156-1.346-6.309-3.424-6.548c-2.08-0.24-5.233-0.149-6.215-0.713c-0.979-0.566-12.226-7.033-12.226-7.033    s-4.481-4.176-5.551-4.276c-1.071-0.101-2.241,2.7-2.04,3.412c0.139,0.496,0.823,0.673,0.466,1.387    c-0.356,0.712-3.621,2.638-6.373,1.721c-2.75-0.915-3.718-4.331-4.482-4.785C14.927,21.924,12.585,22.921,11.515,23.591z" fill="#FFFFFF" id="element5_3_"/><path d="M9.781,29.927c-0.415,3.495-0.533,4.479-0.427,6.992    c1.243,1.761,5.269,1.253,15.505,1.559c11.563,2.035,27.455,3.463,31.077-0.713c0.496-3.207-2.005-4.883-3.825-5.093    c-2.08-0.24-5.233-0.149-6.215-0.713c-0.979-0.566-12.226-7.033-12.226-7.033s-4.481-4.176-5.551-4.276    c-1.071-0.101-1.324,2.394-1.121,3.104c0.137,0.497,0.821,1.594,0.463,2.307c-0.356,0.713-4.537,3.247-7.289,2.332    C18.543,34.097,12.889,26.456,9.781,29.927z" fill="#00BFA5" id="element4_14_"/><path d="M9.781,29.927c-0.415,3.495-0.533,4.479-0.427,6.992    c1.243,1.761,5.269,1.253,15.505,1.559c11.563,2.035,27.455,3.463,31.077-0.713c0.298-1.928-0.487-3.303-1.555-4.135    c0,0-0.004,0.648-2.882,0.874c-2.878,0.229-4.622-0.146-5.604-0.716c-0.979-0.561-12.531-7.639-12.531-7.639    s-4.482-4.176-5.551-4.279c-1.068-0.101-1.019,1.173-0.815,1.883c0.137,0.497,0.821,1.594,0.463,2.307    c-0.356,0.713-4.537,3.247-7.289,2.332C18.543,34.097,12.889,26.456,9.781,29.927z" fill="#1DE9B6" id="element3_4_"/><path d="M27.538,38.925c2.339,0.372,4.793,0.702,7.243,0.966    c2.991-8.749,14.3-2.942,11.115-7.932c-0.979-0.566-10.521-6.216-12.226-7.033c-6.906,5.355-7.054,6.979-9.828,9.768    C27.916,35.957,26.626,38.781,27.538,38.925z" fill="#EF5350" id="element2_15_"/><g id="element_10_"><g><path d="M44.846,32.959c-0.077,0.133-0.422,0.074-0.771-0.131l0,0c-0.348-0.204-0.569-0.479-0.492-0.611      l0.773-1.346c0.077-0.136,0.423-0.074,0.771,0.127l0,0c0.35,0.208,0.568,0.482,0.493,0.615L44.846,32.959z" fill="#00BFA5"/></g><g><path d="M42.119,31.93c-0.098,0.167-0.46,0.141-0.809-0.064l0,0c-0.349-0.204-0.553-0.507-0.455-0.678      l0.992-1.716c0.1-0.17,0.463-0.141,0.812,0.064l0,0c0.349,0.205,0.55,0.508,0.454,0.678L42.119,31.93z" fill="#00BFA5"/></g><g><path d="M39.468,30.775c-0.114,0.196-0.489,0.188-0.84-0.017l0,0c-0.349-0.202-0.538-0.528-0.425-0.724      l1.15-1.978c0.114-0.194,0.489-0.189,0.837,0.015l0,0c0.35,0.205,0.54,0.53,0.429,0.724L39.468,30.775z" fill="#00BFA5"/></g><g><path d="M36.905,29.467c-0.12,0.21-0.502,0.213-0.851,0.008l0,0c-0.349-0.202-0.535-0.538-0.414-0.744      l1.23-2.115c0.122-0.208,0.503-0.21,0.852-0.005l0,0c0.351,0.202,0.534,0.537,0.413,0.747L36.905,29.467z" fill="#00BFA5"/></g><g><path d="M34.241,28.339c-0.139,0.236-0.533,0.264-0.884,0.059l0,0c-0.349-0.204-0.52-0.56-0.383-0.796      l1.397-2.398c0.14-0.236,0.533-0.264,0.884-0.059l0,0c0.35,0.202,0.521,0.562,0.384,0.798L34.241,28.339z" fill="#00BFA5"/></g></g></g></g></svg>