<?xml version="1.0" ?><!DOCTYPE svg  PUBLIC '-//W3C//DTD SVG 1.1//EN'  'http://www.w3.org/Graphics/SVG/1.1/DTD/svg11.dtd'><svg enable-background="new 0 0 256 256" id="Layer_1" version="1.1" viewBox="0 0 256 256" xml:space="preserve" xmlns="http://www.w3.org/2000/svg" xmlns:xlink="http://www.w3.org/1999/xlink"><g><circle cx="128" cy="128" fill="#38B29A" r="127"/><g><path d="M194.7,85.5c-0.7-1.1-1.4-2.3-2.5-2.9c-1.5-0.8-3.4-0.5-5.1-0.2c-2.7,0.5-5.5,0.8-8.2,1.1    c-0.1,0.1-0.1,0.2-0.2,0.2c-10.8,8.5-21.3,17.5-30.9,27.3c-2.4,4.1-4.8,8.1-7.2,12.2c-7.2,11.7-15.6,22.6-26.7,30.6    c-3.5,6-8.3,11.1-14.4,14.5c-3.5,2-7.5,3.3-11.6,3.1c-4-0.2-8.1-1.9-10.5-5.2c-0.7-1-1.2-2.1-1.6-3.2c-3.7,1.4-7.5,2.6-11.3,3.6    c-5.1,1.4-11,3-12.9,7.9c-1.5,4,0.5,8.6,3.7,11.4c3.2,2.8,7.4,4.2,11.4,5.5c10.2,3.3,20.4,6.6,31,8c6.5,0.9,13.5,0.9,19.3-2.3    c7.8-4.3,11.4-13.4,15.1-21.5c13.2-29.6,34-55.8,59.8-75.4c2.3-1.8,4.9-3.8,5.4-6.7C197.6,90.7,196.1,88,194.7,85.5z" fill="#E65336"/><path d="M197.7,102.1c0,0-15,62.4-10.3,97.7H169c0,0,2.3-39.7-13.3-59.4l21-27.6l13.3-12.1L197.7,102.1z" fill="#6B140F"/><path d="M197.6,92.1c-8.1,0.7-14.3,6.7-18.8,11c-0.6,0.6-1.1,1.1-1.7,1.6c-20.2,19-36.4,42.5-47,68.2l-0.5,1.2    c-2.3,5.7-4.5,11.1-8.6,14c-2.5,1.8-5.8,2.9-10.7,3.5c-10.8,1.4-20.6-0.7-31.9-3c-8-1.7-16.2-3.4-25.7-4.1    c-0.1,0.2-0.3,0.4-0.6,0.5v6c0.1,0.5,0.3,1,0.4,1.2c0.8,1.8,2.7,2,4.3,2.7c7,0.8,13.4,2.1,19.6,3.4c9,1.9,17.6,3.7,26.8,3.7    c2.7,0,5.5-0.2,8.4-0.5c4.2-0.5,10.3-1.7,15.4-5.3c6.4-4.7,9.4-11.9,12-18.3l0.5-1.2c10-24.3,25.4-46.7,44.6-64.7    c0.6-0.5,1.2-1.1,1.8-1.7c3.6-3.5,7.7-7.4,12-8.2V92.1C197.7,92.1,197.6,92,197.6,92.1z" fill="#8F231D"/><path d="M179.9,55.1c-12.1,7.3-21.8,17.8-29.8,29.3c-8,11.5-14.3,24-20.6,36.5c-5.8,11.6-11.7,23.2-17.5,34.8    c-3.7,7.4-7.8,15.2-14.9,19.7c12-0.4,22.6-8.1,30.1-17.3s12.5-20.1,18.7-30.1c5.8-9.4,12.6-18.3,21.3-25.2    c8.7-6.9,19.4-10.1,30.5-10.8c1-11.2-2.1-24.3-8.4-33.6c-1.7-2.5-4.3-5.1-7.3-4.4C181.3,54.3,180.6,54.7,179.9,55.1z" fill="#E65336"/></g></g></svg>