<?xml version="1.0" ?><!DOCTYPE svg  PUBLIC '-//W3C//DTD SVG 1.1//EN'  'http://www.w3.org/Graphics/SVG/1.1/DTD/svg11.dtd'><svg enable-background="new 0 0 512 512" height="512px" version="1.1" viewBox="0 0 512 512" width="512px" xml:space="preserve" xmlns="http://www.w3.org/2000/svg" xmlns:xlink="http://www.w3.org/1999/xlink"><g id="Others"><g id="files"/><g id="pencil_rocket"/><g id="magic_hat__x26__rabbit"/><g id="phone__x26__target"/><g id="toast"/><g id="coffee"/><g id="suit"/><g id="DNA_tube"/><g id="clapper"/><g id="stopwatch"/><g id="map__x26__locator"/><g id="envelope"/><g id="phone__x26__megaphone"/><g id="speech_bubble"/><g id="medal"/></g><g id="Design"><g id="blueprint"/><g id="computer__x26__pencil__x26__ruker"/><g id="pencil__x26__ruler__x26__eraser"/><g id="paint_brush"/><g id="eraser"/><g id="round_brush"/><g id="scissor"/><g id="wacom"/><g id="vector"/><g id="lightbulb"/><g id="lamp"/><g id="pencil__x26__brush"/><g id="laptop__x26__brush"/><g id="paint"/><g id="magic_wand"/></g><g id="SEO_x2F__Web"><g id="W_key"/><g id="link_plus"/><g id="website__x26__lock"/><g id="video"/><g id="maginifier__x26__target"/><g id="website__x26__setting_1_"/><g id="website__x26__code"/><g id="SEO_tag"/><g id="website__x26__wrench"/><g id="crown"/><g id="eye"/><g id="website__x26__clock"/><g id="spider"/><g id="website__x26__medal"/><g id="graph"/></g><g id="Finance__x2F__Money"><g id="diamond"/><g id="calculating"/><g id="calculator"/><g id="auction_hammer"/><g id="bag_of_money"/><g id="piggy_bank"/><g id="bank"/><g id="umbrella__x26__coins"/><g id="safe"/><g id="treasure"/><g id="cash__x26__card"/><g id="coins__x26__cash"/><g id="coins__x26__card"/><g id="briefcase"/><g id="cash"/></g><g id="E-Commerce__x2F__Shopping"><g id="New_Symbol"/><g id="mobile__x26__finger"/><g id="price_tag"/><g id="website__x26__magnifier"/><g id="hand_to_ahnd_delivery"/><g id="hand__x26__credit_card"/><g id="hand__x26__iPad"/><g id="empty_basket"/><g id="full_basket"/><g id="trolley"/><g id="wallet"/><g id="truck"/><g id="delivery"/><g id="gift"/><g id="hand__x26__shopping_bag"/><g id="iMac_with_products"/><g id="laptop_store"><radialGradient cx="256" cy="256" gradientUnits="userSpaceOnUse" id="SVGID_1_" r="256"><stop offset="0" style="stop-color:#04BE9E"/><stop offset="1" style="stop-color:#00A185"/></radialGradient><circle cx="256" cy="256" fill="url(#SVGID_1_)" r="256"/><path d="M421,132c0-5.5-4.5-10-10-10H101c-5.5,0-10,4.5-10,10v204c0,5.5,4.5,10,10,10h310c5.5,0,10-4.5,10-10V132z    " fill="#2B3E51"/><path d="M401,132H256H111c-5.5,0-10,4.5-10,10v157c0,5.5,4.5,10,10,10h145h145c5.5,0,10-4.5,10-10V142    C411,136.5,406.5,132,401,132z" fill="#32ACFC"/><path d="M401,132H256v177h145c5.5,0,10-4.5,10-10V142C411,136.5,406.5,132,401,132z" fill="#2C97DE"/><path d="M311.613,186.58c-0.477-1.295-1.911-1.961-3.209-1.485l-12.266,4.5c-0.881,0.322-1.506,0.891-1.62,1.822    L292.091,211H203.5c-0.84,0-1.623,0.643-2.086,1.343c-0.463,0.701-0.543,1.698-0.213,2.47l20.5,47.834    c0.393,0.922,1.298,1.354,2.299,1.354h61.594l-0.295,2.625c-5.932,0.226-10.692,4.999-10.692,10.985    c0,0.169,0.018,0.39,0.025,0.39h-24.54c0.008,0,0.025-0.11,0.025-0.279c0-6.13-4.987-11.007-11.117-11.007    s-11.117,5.042-11.117,11.173c0,6.129,4.987,10.924,11.117,10.924c4.129,0,7.731-1.811,9.648-5.811h27.427    c1.917,4,5.521,5.838,9.648,5.838c6.13,0,11.117-4.877,11.117-11.007c0-4.528-2.726-8.372-6.619-10.103l0.608-4.934    c0.072-0.189,0.13-0.373,0.154-0.583l1.156-10.087l7.154-58.367l10.832-3.972C311.423,189.311,312.088,187.877,311.613,186.58z     M239,284.059c-3.373,0-6.117-2.744-6.117-6.117s2.744-6.117,6.117-6.117s6.117,2.744,6.117,6.117S242.373,284.059,239,284.059z     M225.65,259l-7.688-18h70.369l-1.16,10.133L286.207,259H225.65z M291.841,277.941c0,3.373-2.744,6.117-6.117,6.117    s-6.117-2.744-6.117-6.117s2.744-6.117,6.117-6.117S291.841,274.568,291.841,277.941z M289.135,234h-74.161l-7.688-18h83.911    L289.135,234z" fill="#FFFFFF"/><path d="M380.062,258.965c1.068-0.266,1.094-0.787,0.059-1.16l-30.035-10.807    c-1.034-0.373-1.577,0.17-1.204,1.205l10.807,30.035c0.373,1.034,0.919,1.014,1.215-0.045l2.202-7.909    c0.295-1.059,1.174-1.29,1.951-0.512l10.606,10.606c0.778,0.777,2.052,0.777,2.829,0l4.242-4.242c0.777-0.778,0.777-2.052,0-2.829    l-10.606-10.606c-0.777-0.777-0.541-1.632,0.526-1.896L380.062,258.965z" fill="#2B3E51" opacity="0.4"/><path d="M382.062,252.965c1.068-0.266,1.094-0.787,0.059-1.16l-30.035-10.807c-1.034-0.373-1.577,0.17-1.204,1.205    l10.807,30.035c0.373,1.034,0.919,1.014,1.215-0.045l2.202-7.909c0.295-1.059,1.174-1.29,1.951-0.512l10.606,10.606    c0.778,0.777,2.052,0.777,2.829,0l4.242-4.242c0.777-0.778,0.777-2.052,0-2.829l-10.606-10.606    c-0.777-0.777-0.541-1.632,0.526-1.896L382.062,252.965z" fill="#ECF0F1"/><path d="M421,208.573V116c0-0.685-0.07-1.354-0.203-2H91.203C91.07,114.646,91,115.315,91,116    v92.573c3.867,3.951,9.269,6.427,15.234,6.427c11.678,0,21.566-9.45,21.566-21H128c0,11.55,9.555,21,21.234,21    c11.006,0,19.881-8.396,20.867-19.029C171.115,206.604,180.228,215,191.234,215c11.678,0,21.365-9.45,21.365-21    c0,11.55,9.955,21,21.635,21c11.678,0,21.766-9.45,21.766-21c0,11.55,10.088,21,21.766,21c11.68,0,21.635-9.45,21.635-21    c0,11.55,9.688,21,21.365,21c11.007,0,20.119-8.396,21.133-19.029C342.885,206.604,351.76,215,362.766,215    c11.68,0,21.234-9.45,21.234-21h0.199c0,11.55,9.889,21,21.566,21C411.731,215,417.133,212.524,421,208.573z" fill="#2B3E51" opacity="0.4"/><path d="M61,396v8.518c0,0.5,0.034,0.994,0.088,1.482c0.735,6.594,6.287,12,13.035,12h363.279    c6.748,0,12.711-5.406,13.502-12c0.059-0.488,0.096-0.982,0.096-1.482V396H61z" fill="#ECF0F1"/><circle cx="381.966" cy="406.15" fill="#2C97DE" r="5.362"/><circle cx="396.903" cy="406.15" fill="#1ECA6B" r="5.362"/><polygon fill="#BDC3C7" points="421,320 91,320 61,396 451,396   "/><path d="M79.698,386c-2.2,0-3.339-1.674-2.531-3.721l19.168-48.559c0.808-2.047,3.269-3.721,5.469-3.721h308.393    c2.2,0,4.661,1.674,5.469,3.721l19.168,48.559c0.808,2.047-0.331,3.721-2.531,3.721H79.698z" fill="#33495F"/><path d="M421,71c0-2.2-1.8-4-4-4H95c-2.2,0-4,1.8-4,4v54c0,2.2,1.8,4,4,4h322c2.2,0,4-1.8,4-4V71z" fill="#E94B35"/><path d="M417,67H256v62h161c2.2,0,4-1.8,4-4V71C421,68.8,419.2,67,417,67z" fill="#C23824"/><polygon fill="#E94B35" points="91,100 43,172 85.4,172 123.8,100   "/><path d="M43,172c0,11.55,9.45,21,21,21s21-9.45,21-21H43z" fill="#C23824"/><path d="M85,172c0,11.55,9.555,21,21.234,21c11.678,0,21.566-9.45,21.566-21H85z" fill="#BDC3C7"/><path d="M128,172c0,11.55,9.555,21,21.234,21c11.678,0,20.966-9.45,20.966-21H128z" fill="#C23824"/><path d="M170,172c0,11.55,9.555,21,21.234,21c11.678,0,21.365-9.45,21.365-21H170z" fill="#BDC3C7"/><path d="M212.6,172c0,11.55,9.955,21,21.635,21c11.678,0,21.766-9.45,21.766-21H212.6z" fill="#C23824"/><polygon fill="#ECF0F1" points="421,100 388.2,100 355.4,100 322.6,100 289.8,100 257,100 256,100 255,100 222.2,100 189.4,100     156.6,100 123.8,100 85.4,172 127.801,172 170.2,172 212.6,172 255,172 256,172 257,172 299.4,172 341.8,172 384.199,172     426.6,172 469,172   "/><polygon fill="#E94B35" points="156.6,100 127.801,172 170.2,172 189.4,100   "/><polygon fill="#E94B35" points="255,100 222.2,100 212.6,172 255,172 256,172 256,100   "/><polygon fill="#E94B35" points="388.2,100 426.6,172 384.199,172 355.4,100   "/><polygon fill="#ECF0F1" points="421,100 469,172 426.6,172 388.2,100   "/><polygon fill="#E94B35" points="322.6,100 341.8,172 299.4,172 289.8,100   "/><path d="M469,172c0,11.55-9.45,21-21,21s-21-9.45-21-21H469z" fill="#BDC3C7"/><path d="M427,172c0,11.55-9.555,21-21.234,21c-11.678,0-21.566-9.45-21.566-21H427z" fill="#C23824"/><path d="M384,172c0,11.55-9.555,21-21.234,21c-11.678,0-20.966-9.45-20.966-21H384z" fill="#BDC3C7"/><path d="M342,172c0,11.55-9.555,21-21.234,21c-11.678,0-21.365-9.45-21.365-21H342z" fill="#C23824"/><path d="M299.4,172c0,11.55-9.955,21-21.635,21C266.088,193,256,183.55,256,172H299.4z" fill="#BDC3C7"/></g><g id="shopping_bag_with_mouse"/><g id="mobile_store"/><g id="store"/><g id="laptop_with_money"/></g><g id="Strategy"><g id="money_palnt"/><g id="contract"/><g id="trophy"/><g id="graph_paper"/><g id="competition"/><g id="checklist"/><g id="megaphone"/><g id="paper_airplane"/><g id="mission_1"/><g id="graph_board"/><g id="mission_2"/><g id="strategy"/><g id="target"/><g id="partnership"/><g id="chess"/></g></svg>