<?xml version="1.0" ?><!DOCTYPE svg  PUBLIC '-//W3C//DTD SVG 1.1//EN'  'http://www.w3.org/Graphics/SVG/1.1/DTD/svg11.dtd'><svg enable-background="new 0 0 512 512" height="512px" id="Layer_1" version="1.1" viewBox="0 0 512 512" width="512px" xml:space="preserve" xmlns="http://www.w3.org/2000/svg" xmlns:xlink="http://www.w3.org/1999/xlink"><g><circle clip-rule="evenodd" cx="256" cy="256" fill="#C73B26" fill-rule="evenodd" r="256"/><g><g><g><g><path clip-rule="evenodd" d="M172.33,75.014h167.34c10.598,0,19.189,8.584,19.189,19.172       v323.629c0,10.588-8.592,19.172-19.189,19.172H172.33c-10.6,0-19.191-8.584-19.191-19.172V94.186       C153.138,83.598,161.73,75.014,172.33,75.014z" fill="#1D475A" fill-rule="evenodd"/></g></g><g><g><path clip-rule="evenodd" d="M172.433,107.754h165.996v235.82H172.433V107.754z" fill="#E9F0F1" fill-rule="evenodd"/></g></g><g><g><path clip-rule="evenodd" d="M224.095,84.754h61.408c3.127,0,5.662,2.531,5.662,5.656       v0.191c0,3.123-2.535,5.656-5.662,5.656h-61.408c-3.127,0-5.662-2.533-5.662-5.656V90.41       C218.433,87.285,220.969,84.754,224.095,84.754z" fill="#E9F0F1" fill-rule="evenodd"/></g></g><g><g><path clip-rule="evenodd" d="M256,391.213c8.637,0,15.639,6.951,15.639,15.529       c0,8.576-7.002,15.529-15.639,15.529c-8.639,0-15.641-6.953-15.641-15.529C240.359,398.164,247.361,391.213,256,391.213z" fill="#E9F0F1" fill-rule="evenodd"/></g></g></g></g><g><g><g><g><g><path clip-rule="evenodd" d="M296.402,254.015l0.197-0.123l-1.357,0.005        c-0.289-0.019-0.578-0.03-0.871-0.03c-0.316,0-0.629,0.015-0.941,0.036l-49.959,0.148l-2.535-6.663h62.166l17.764-51.718        H220.793l-7.453-16.499l-19.189-0.158c0,0-2.932,0.018-3.014,4.441c-0.08,4.355,3.014,4.761,3.014,4.761h13.797l25.506,67.188        c-4.492,2.304-7.566,6.96-7.566,12.335c0,7.66,6.242,13.869,13.943,13.869c7.699,0,13.941-6.209,13.941-13.869        c0-1.513-0.246-2.967-0.697-4.329l28.104-0.155c-0.482,1.407-0.748,2.914-0.748,4.484c0,7.66,6.242,13.869,13.941,13.869        s13.943-6.209,13.943-13.869C308.314,260.763,303.14,254.993,296.402,254.015z M275.744,237.176h-16.488l-1.178-12.057h18.713        L275.744,237.176z M283.754,205.348h26.168l-6.027,14.754l-21.727-0.317L283.754,205.348z M281.888,224.723h20.141        l-4.281,12.85l-16.971-0.158L281.888,224.723z M278.679,205.19l-1.27,14.595h-19.982L256,205.19H278.679z M224.594,205.347        h26.168l1.586,14.437l-21.729,0.317L224.594,205.347z M252.521,224.723l1.109,12.691l-16.969,0.158l-4.281-12.85H252.521z         M239.83,272.129c-2.438,0-4.412-1.967-4.412-4.392c0-2.426,1.975-4.392,4.412-4.392c2.436,0,4.412,1.966,4.412,4.392        C244.242,270.162,242.265,272.129,239.83,272.129z M294.371,272.129c-2.436,0-4.412-1.967-4.412-4.392        c0-2.426,1.977-4.392,4.412-4.392c2.438,0,4.412,1.966,4.412,4.392C298.783,270.162,296.808,272.129,294.371,272.129z" fill="#1D475A" fill-rule="evenodd"/></g></g></g></g><polygon clip-rule="evenodd" fill="#00BD9A" fill-rule="evenodd" points="281.888,224.723 302.029,224.723 297.748,237.573     280.777,237.414   "/><polygon clip-rule="evenodd" fill="#00BD9A" fill-rule="evenodd" points="278.679,205.19 277.41,219.784 257.427,219.784     256,205.19   "/><polygon clip-rule="evenodd" fill="#00BD9A" fill-rule="evenodd" points="252.521,224.723 253.631,237.414 236.662,237.573     232.381,224.723   "/></g></g></svg>