<?xml version="1.0" ?><svg id="Layer_1" style="enable-background:new 0 0 100 100;" version="1.1" viewBox="0 0 100 100" xml:space="preserve" xmlns="http://www.w3.org/2000/svg" xmlns:xlink="http://www.w3.org/1999/xlink"><style type="text/css">
	.st0{fill:#DC6E79;}
	.st1{fill:#FFFFFF;}
	.st2{fill:#03ADAD;}
	.st3{fill:#E64B3F;}
	.st4{fill:#A35BB4;}
	.st5{fill:#98B260;}
	.st6{fill:#DAAC01;}
	.st7{fill:#E46675;}
	.st8{fill:#2EC19C;}
	.st9{fill:#F36C00;}
</style><g><circle class="st8" cx="50" cy="50" r="48"/><g><polygon class="st1" points="71.7471924,49.5775261 73.1266174,44.808445 34.9496765,44.808445 36.0622215,49.5775261   "/><path class="st1" d="M72.9281387,57.8146019h-3.56353l1.7197342-5.9454079H36.5968132l1.7156715,7.3548317    c0.1260948,0.5155678,0.5843887,0.8822441,1.1229668,0.8822441h33.4926872c1.2489853,0,2.2801971,1.0312767,2.2801971,2.2916679    c0,1.2604561-1.0312119,2.2801933-2.2801971,2.2801933H31.1969051c-0.6301937,0-1.1458321,0.5156403-1.1458321,1.1458359    c0,0.6416626,0.5156384,1.1458359,1.1458321,1.1458359h41.7312317c2.5208435,0,4.5718613-2.0510178,4.5718613-4.5718651    S75.4489822,57.8146019,72.9281387,57.8146019z"/><path class="st1" d="M34.4150848,42.516777h39.374382l1.7397308-6.0146446    c0.1030884-0.3552055,0.0343399-0.7218819-0.1833725-1.0083389c-0.2177124-0.2864609-0.5499725-0.4583626-0.9166489-0.4583626    H35.0239487l-2.7156181-11.6531067c-0.1145554-0.5156384-0.5843868-0.8823128-1.1114254-0.8823128H23.645834    c-0.6301956,0-1.145834,0.5156384-1.145834,1.1458321c0,0.6302643,0.5156384,1.145834,1.145834,1.145834h6.6344185    L34.4150848,42.516777z"/><path class="st1" d="M42.368782,69.0323563c-2.3375473,0-4.2281303,1.8905792-4.2281303,4.2281265    c0,2.3374786,1.890583,4.2395248,4.2281303,4.2395248c2.3374748,0,4.2395973-1.9020462,4.2395973-4.2395248    C46.6083794,70.9229355,44.7062569,69.0323563,42.368782,69.0323563z"/><path class="st1" d="M61.7447929,69.0323563c-2.3374748,0-4.2281303,1.8905792-4.2281303,4.2281265    c0,2.3374786,1.8906555,4.2395248,4.2281303,4.2395248c2.3375435,0,4.2395973-1.9020462,4.2395973-4.2395248    C65.9843903,70.9229355,64.0823364,69.0323563,61.7447929,69.0323563z"/></g></g></svg>