<?xml version="1.0" ?><!DOCTYPE svg  PUBLIC '-//W3C//DTD SVG 1.1//EN'  'http://www.w3.org/Graphics/SVG/1.1/DTD/svg11.dtd'><svg height="512px" id="Layer_1" style="enable-background:new 0 0 512 512;" version="1.1" viewBox="0 0 512 512" width="512px" xml:space="preserve" xmlns="http://www.w3.org/2000/svg" xmlns:xlink="http://www.w3.org/1999/xlink"><style type="text/css">
<![CDATA[
	.st0{fill:#AA2020;}
	.st1{fill:#7C5C4F;}
	.st2{fill:#48A1AF;}
	.st3{fill:#AC785B;}
	.st4{fill:#ADE0F7;}
	.st5{fill:#122528;}
	.st6{fill:#E1E2D4;}
	.st7{fill:#E22929;}
	.st8{fill:#E24844;}
	.st9{fill:#E24D87;}
	.st10{fill:#E2607F;}
	.st11{fill:#E27A7A;}
	.st12{fill:#E2D8A6;}
	.st13{fill:#E2D9B3;}
	.st14{fill:#E4E4E4;}
	.st15{fill:#E54615;}
	.st16{fill:#4ABC96;}
	.st17{fill:#E5A079;}
	.st18{fill:#E5A300;}
	.st19{fill:#E5AAAA;}
	.st20{fill:#E5B428;}
	.st21{fill:#E5C2B7;}
	.st22{fill:#E5DCD6;}
	.st23{fill:#178484;}
	.st24{fill:#4BA6DD;}
	.st25{fill:#191E18;}
	.st26{fill:#E7E0DC;}
	.st27{fill:#E7E4E2;}
	.st28{fill:#E85B8A;}
	.st29{fill:#E8BF13;}
	.st30{fill:#E8CA4B;}
	.st31{fill:#E8CDCD;}
	.st32{fill:#E8F4F4;}
	.st33{fill:#4E4F4F;}
	.st34{fill:#4F4846;}
	.st35{fill:#B08C8C;}
	.st36{fill:#B2B2B2;}
	.st37{fill:#1A7877;}
	.st38{fill:#1B1B1B;}
	.st39{fill:#86BFAB;}
	.st40{fill:#EA4949;}
	.st41{fill:#EA950C;}
	.st42{fill:#EA9C00;}
	.st43{fill:#EAC2B0;}
	.st44{fill:#EAD08F;}
	.st45{fill:#EAD988;}
	.st46{fill:#EAE0A7;}
	.st47{fill:#EAE19B;}
	.st48{fill:#B7967F;}
	.st49{fill:#B7E4D5;}
	.st50{fill:#B8D1E5;}
	.st51{fill:#ECBF30;}
	.st52{fill:#ECEDE2;}
	.st53{fill:#ED3232;}
	.st54{fill:#EDB721;}
	.st55{fill:#EDBF00;}
	.st56{fill:#EDC92F;}
	.st57{fill:#EDEDED;}
	.st58{fill:#EE8080;}
	.st59{fill:#514D46;}
	.st60{fill:#EF481B;}
	.st61{fill:#EF4B4B;}
	.st62{fill:#EFBBA0;}
	.st63{fill:#EFBBBB;}
	.st64{fill:#EFC6AF;}
	.st65{fill:#EFC866;}
	.st66{fill:#EFD3D3;}
	.st67{fill:#EFEDEC;}
	.st68{fill:#EFF4F9;}
	.st69{fill:#BA1713;}
	.st70{fill:#57AA39;}
	.st71{fill:#BAADAB;}
	.st72{fill:#8BBEC0;}
	.st73{fill:#8CC3CC;}
	.st74{fill:#599E6B;}
	.st75{fill:#BC9F66;}
	.st76{fill:#BCBCBC;}
	.st77{fill:#8FB5B6;}
	.st78{fill:#228080;}
	.st79{fill:#22A85B;}
	.st80{fill:#F1A6B3;}
	.st81{fill:#235D64;}
	.st82{fill:#F29292;}
	.st83{fill:#242C23;}
	.st84{fill:#F2C7B1;}
	.st85{fill:#F2D249;}
	.st86{fill:#F2ECB3;}
	.st87{fill:#F2EFE2;}
	.st88{fill:#F2EFED;}
	.st89{fill:#24BCB1;}
	.st90{fill:#F47C2C;}
	.st91{fill:#F47D94;}
	.st92{fill:#262626;}
	.st93{fill:#263C92;}
	.st94{fill:#5B3224;}
	.st95{fill:#5B4F3F;}
	.st96{fill:#5B7BAA;}
	.st97{fill:#27C1C1;}
	.st98{fill:#282827;}
	.st99{fill:#28898E;}
	.st100{fill:#28A7AD;}
	.st101{fill:#F781AE;}
	.st102{fill:#5CB7E5;}
	.st103{fill:#F7CA4D;}
	.st104{fill:#F7D64D;}
	.st105{fill:#297358;}
	.st106{fill:#F95E3A;}
	.st107{fill:#5EACB4;}
	.st108{fill:#909090;}
	.st109{fill:#C0C0C0;}
	.st110{fill:#C3C3C3;}
	.st111{fill:#94C5C5;}
	.st112{fill:#C48769;}
	.st113{fill:#C4A10E;}
	.st114{fill:#969595;}
	.st115{fill:#2B6671;}
	.st116{fill:#C6C5C4;}
	.st117{fill:#FAD3D3;}
	.st118{fill:#97E079;}
	.st119{fill:#2D2D2D;}
	.st120{fill:#FBCBAB;}
	.st121{fill:none;stroke:#6E4832;stroke-width:2.2943;stroke-linecap:round;stroke-linejoin:round;stroke-miterlimit:10;}
	.st122{fill:#9996FD;}
	.st123{fill:#FCE2E2;}
	.st124{fill:#C92727;}
	.st125{fill:#C9C9C8;}
	.st126{fill:#2F2E33;}
	.st127{opacity:0.6;}
	.st128{fill:#616262;}
	.st129{fill:#FFFFFF;}
	.st130{fill:#62BB45;}
	.st131{fill:#644B44;}
	.st132{fill:#64A80D;}
	.st133{fill:none;}
	.st134{fill:#CA261D;}
	.st135{fill:#CBBEB9;}
	.st136{fill:#CC8866;}
	.st137{fill:#6997B7;}
	.st138{fill:#CCBF7F;}
	.st139{display:inline;}
	.st140{fill:#9DC3C5;}
	.st141{fill:#CDC6C3;}
	.st142{fill:#CDCCCB;}
	.st143{fill:#CDCDCE;}
	.st144{fill:#CE8505;}
	.st145{fill:#CE8967;}
	.st146{fill:#323531;}
	.st147{fill:#337180;}
	.st148{fill:#353432;}
	.st149{fill:#353535;}
	.st150{fill:#357180;}
	.st151{fill:#367983;}
	.st152{fill:#369975;}
	.st153{fill:#6A7872;}
	.st154{fill:#6AA0C8;}
	.st155{fill:#3786B7;}
	.st156{fill:#6D4F44;}
	.st157{fill:#6D8DC6;}
	.st158{fill:#6E4832;}
	.st159{fill:#D0D1D1;}
	.st160{fill:#D0E3E5;}
	.st161{fill:#D39475;}
	.st162{fill:#D3C2C2;}
	.st163{fill:#3A3A39;}
	.st164{fill:#3A3F39;}
	.st165{fill:#D5CEC9;}
	.st166{fill:#3CA57F;}
	.st167{fill:#090A09;}
	.st168{fill:#D7D7D7;}
	.st169{fill:#D7E2E2;}
	.st170{fill:#3D2F26;}
	.st171{fill:#3D8B93;}
	.st172{fill:#D89898;}
	.st173{fill:#D8BD80;}
	.st174{fill:#D8D1CE;}
	.st175{fill:#D8D8D8;}
	.st176{fill:#D8DBBA;}
	.st177{fill:#D9EDED;}
	.st178{fill:#3F3938;}
	.st179{display:none;}
	.st180{fill:#A2CB6E;}
	.st181{fill:#A2D4DE;}
	.st182{fill:#A3D5E0;}
	.st183{fill:#76C6CE;}
	.st184{fill:#77CCF2;}
	.st185{fill:#77D28E;}
	.st186{fill:#0CA342;}
	.st187{fill:#DB3737;}
	.st188{fill:#DBD6D4;}
	.st189{fill:#DC3735;}
	.st190{fill:#DCD2CC;}
	.st191{fill:#A9A9C8;}
	.st192{fill:#DDB717;}
	.st193{fill:#DDD3CC;}
	.st194{fill:#408921;}
	.st195{fill:#4094D3;}
	.st196{fill:#41979F;}
	.st197{fill:#DFA17C;}
]]>
</style><g><g><g><path class="st176" d="M256.003,7.924c-137.012,0-248.082,111.06-248.082,248.082c0,137.001,111.07,248.07,248.082,248.07     c137.006,0,248.076-111.069,248.076-248.07C504.079,118.983,393.009,7.924,256.003,7.924z"/></g></g><g><g><g><g><g><rect class="st195" height="127.584" width="61.682" x="187.338" y="318.467"/></g></g><g><g><rect class="st155" height="6.231" width="61.682" x="187.338" y="343.542"/></g></g><g><g><rect class="st155" height="22.459" width="61.682" x="187.338" y="423.592"/></g></g></g><g><g><g><rect class="st195" height="127.584" width="61.681" x="262.818" y="318.467"/></g></g><g><g><rect class="st24" height="31.307" width="61.681" x="262.818" y="318.467"/></g></g><g><g><rect class="st24" height="31.307" width="61.681" x="187.594" y="318.467"/></g></g><g><g><rect class="st155" height="6.231" width="61.682" x="187.338" y="343.542"/></g></g><g><g><rect class="st155" height="6.231" width="61.681" x="262.818" y="343.542"/></g></g><g><g><rect class="st155" height="22.459" width="61.681" x="262.818" y="423.592"/></g></g></g><g><g><rect class="st102" height="31.307" width="13.635" x="249.021" y="318.467"/></g></g><g><g><rect class="st102" height="15.442" width="137.648" x="187.015" y="303.025"/></g></g><g><g><path class="st134" d="M309.96,174.431H201.716c-10.612,0-14.702,128.49-14.702,128.49h137.648       C324.663,302.92,322.694,174.431,309.96,174.431z"/></g></g><g><g><path class="st8" d="M295.664,162.812h-79.651c-7.808,0-15.684,12.812-15.684,12.812h111.019       C311.347,175.624,305.035,162.812,295.664,162.812z"/></g></g><g><g><g><rect class="st51" height="17.531" width="24.349" x="333.752" y="282.756"/></g></g><g><g><path class="st69" d="M361.996,256.46c-1.948-11.688-23.183-65.253-28.536-71.097c-5.352-5.844-18.213-0.974-18.213-0.974        l4.87,56.488l5.844,22.4l2.921,24.349l32.14,0.974C361.022,285.678,363.944,268.147,361.996,256.46z"/></g></g><g><g><path class="st51" d="M346.089,294.443c-10.758,0-19.479,8.721-19.479,19.479c0,6.608,3.297,12.438,8.33,15.959        c0,0,4.954-7.58,4.243-8.213c-2.135-1.899-3.483-4.663-3.483-7.747c0-5.737,4.651-10.388,10.389-10.388        c5.737,0,10.388,4.651,10.388,10.388c0,2.628-0.976,5.027-2.585,6.856c-0.596,0.676,4.46,8.269,4.46,8.269        c4.399-3.571,7.215-9.017,7.215-15.125C365.567,303.164,356.847,294.443,346.089,294.443z"/></g></g></g><g><g><g><rect class="st51" height="17.531" width="24.349" x="153.899" y="282.756"/></g></g><g><g><path class="st69" d="M178.54,185.363c-5.353,5.844-26.588,59.41-28.536,71.097c-1.948,11.687,0.974,29.217,0.974,32.14        l32.14-0.974l2.921-24.349l5.844-22.4l4.87-56.488C196.752,184.389,183.892,179.52,178.54,185.363z"/></g></g><g><g><path class="st51" d="M165.911,294.443c-10.758,0-19.479,8.721-19.479,19.479c0,6.108,2.816,11.554,7.215,15.125        c0,0,5.056-7.592,4.46-8.269c-1.609-1.829-2.585-4.229-2.585-6.856c0-5.737,4.651-10.388,10.388-10.388        c5.738,0,10.389,4.651,10.389,10.388c0,3.083-1.348,5.847-3.483,7.747c-0.711,0.633,4.243,8.213,4.243,8.213        c5.033-3.522,8.33-9.351,8.33-15.959C185.39,303.164,176.669,294.443,165.911,294.443z"/></g></g></g></g><g><g><path class="st20" d="M279.861,156.146h-47.723c-3.227,0-5.843,2.616-5.843,5.843c0,3.228,2.616,5.844,5.843,5.844h47.723      c3.227,0,5.843-2.616,5.843-5.844C285.705,158.762,283.088,156.146,279.861,156.146z"/></g></g><g><g><path class="st20" d="M264.911,59.356h-17.822c-4.13,0-7.479,3.348-7.479,7.479v16.898c0,4.131,3.349,7.479,7.479,7.479h17.822      c4.13,0,7.479-3.349,7.479-7.479V66.835C272.39,62.704,269.042,59.356,264.911,59.356z"/></g></g><g><g><path class="st51" d="M247.089,59.356c-4.13,0-7.479,3.348-7.479,7.479v16.898c0,4.131,3.349,7.479,7.479,7.479h9.218V59.356      H247.089z"/></g></g><g><g><path class="st51" d="M276.928,73.598h-41.856c-14.6,0-26.435,11.834-26.435,26.435v32.6c0,14.6,11.835,26.435,26.435,26.435      h41.856c14.6,0,26.435-11.835,26.435-26.435v-32.6C303.363,85.432,291.528,73.598,276.928,73.598z"/></g></g><g><g><path class="st103" d="M235.072,73.598c-14.6,0-26.435,11.834-26.435,26.435v32.6c0,14.6,11.835,26.435,26.435,26.435h20.871      V73.598H235.072z"/></g></g><g><g><g><circle class="st149" cx="241.745" cy="112.752" r="5.633"/></g></g><g><g><circle class="st149" cx="270.255" cy="112.752" r="5.633"/></g></g></g><g><g><path class="st149" d="M274.254,131.337c-0.595-0.68-1.628-0.748-2.308-0.155c-0.083,0.072-8.319,7.189-16.687,7.189      c-8.267,0-15.346-7.038-15.417-7.108c-0.636-0.642-1.67-0.646-2.312-0.011s-0.648,1.668-0.014,2.311      c0.326,0.33,8.09,8.08,17.742,8.08c9.583,0,18.466-7.671,18.839-7.998C274.779,133.051,274.848,132.017,274.254,131.337z"/></g></g></g></g></svg>