<?xml version="1.0" ?><svg style="enable-background:new 0 0 120 120;" version="1.1" viewBox="0 0 120 120" xml:space="preserve" xmlns="http://www.w3.org/2000/svg" xmlns:xlink="http://www.w3.org/1999/xlink"><style type="text/css">
	.st0{fill:#36B49E;}
	.st1{fill:#EBEEEE;}
	.st2{fill:#21A3D7;}
	.st3{fill:#324D5E;}
	.st4{fill:#FFDB59;}
	.st5{fill:#E45647;}
	.st6{opacity:0.5;}
	.st7{clip-path:url(#SVGID_2_);fill:#CC4D40;}
	.st8{opacity:0.65;clip-path:url(#SVGID_4_);fill:#4BBCE8;}
	.st9{clip-path:url(#SVGID_6_);}
	.st10{fill:#4D6473;}
	.st11{fill:#6D8491;}
	.st12{fill:#879FAA;}
	.st13{fill:#E6E9ED;}
	.st14{clip-path:url(#SVGID_6_);fill:#59727F;}
	.st15{fill:#31A38F;}
	.st16{fill:#FFFFFF;}
	.st17{fill:#F2F1EF;}
	.st18{fill:#DBDEDE;}
	.st19{fill:#5DE2C8;}
	.st20{opacity:0.39;}
	.st21{clip-path:url(#SVGID_8_);}
	.st22{fill:#269C84;}
	.st23{fill:#CBD1D1;}
	.st24{fill:#EFC83C;}
	.st25{fill:#2E9986;}
	.st26{fill:#4A7993;}
	.st27{fill:#CC4D40;}
	.st28{fill:#283F4D;}
	.st29{fill:#CCD1D9;}
	.st30{fill:#B3BAC4;}
	.st31{fill:#DFE1E5;}
	.st32{fill:#40D0AD;}
	.st33{fill:#93DCCD;}
	.st34{fill:#4BBCE8;}
	.st35{fill:#29404C;}
	.st36{fill:#B3BAC6;}
	.st37{fill:#0888AF;}
	.st38{fill:#FFE183;}
	.st39{fill:#E5B623;}
	.st40{fill:#FAE9A9;}
	.st41{clip-path:url(#SVGID_10_);}
	.st42{clip-path:url(#SVGID_12_);}
	.st43{clip-path:url(#SVGID_14_);}
	.st44{fill:#C1947C;}
	.st45{fill:#E0B8A6;}
	.st46{fill:#CEA18D;}
	.st47{fill:#D3AA9B;}
	.st48{fill:#EAC2B2;}
	.st49{fill:#DBB0A1;}
	.st50{fill:#B78B77;}
	.st51{fill:#253D49;}
	.st52{fill:#467187;}
	.st53{clip-path:url(#SVGID_18_);}
	.st54{fill:#F46A60;}
	.st55{fill:#3EBDE5;}
	.st56{fill:#43C9AF;}
	.st57{fill:#D0D3D6;}
	.st58{clip-path:url(#SVGID_20_);}
	.st59{clip-path:url(#SVGID_22_);}
	.st60{clip-path:url(#SVGID_22_);fill:#253D49;}
	.st61{opacity:0.65;fill:#46B0D9;}
	.st62{opacity:0.65;fill:#4BBCE8;}
	.st63{fill:#67D3F4;}
	.st64{fill:#EAAD98;}
	.st65{fill:#E09C84;}
	.st66{fill:#F7BEAB;}
	.st67{fill:#EFB521;}
	.st68{clip-path:url(#SVGID_24_);}
	.st69{fill:#D85144;}
	.st70{fill:#F7AA43;}
	.st71{fill:#EA9A3B;}
	.st72{fill:#D38A3C;}
	.st73{fill:#FFBE71;}
	.st74{fill:#FFACA6;}
	.st75{fill:#FFC8C7;}
	.st76{fill:#ED7D7A;}
	.st77{fill:#FC9390;}
	.st78{fill:#43DBB6;}
	.st79{opacity:0.43;fill:#40D0AD;}
	.st80{opacity:0.64;fill:#40D0AD;}
	.st81{fill:#C9CFD6;}
	.st82{opacity:0.52;fill:#E6E9ED;}
	.st83{fill:#38CEFC;}
	.st84{fill:#32A894;}
	.st85{fill:#C7FFF7;}
	.st86{fill:#99E0D5;}
	.st87{fill:#EFF2F2;}
	.st88{fill:#DDE0E0;}
</style><g id="bg"><ellipse class="st5" cx="60" cy="60" rx="60" ry="60" transform="matrix(1 -2.894390e-03 2.894390e-03 1 -0.1734 0.1739)"/></g><g id="icons"><path class="st27" d="M45.4,77.4c0,0-3.3,0.4-7.4,3.9c-2.9,2.5-5.3,4.7-9.2,7.9c-2.9,2.4-6.9,2.8-9.5,0.1c-1.9-2-3.4-4.9-3.4-9.3   c0-8.6,5.6-27.7,9.8-38.1c0.6-1.4,1.5-2.7,2.8-3.6c2.7-2.1,6.9-4.4,12.6-5.3c0.8-0.1,1.7,0.1,2.4,0.5c1.5,1,3.1,2.2,3.1,2.2h26.8   c0,0,1.6-1.2,3.1-2.2c0.7-0.5,1.6-0.7,2.4-0.5c5.6,0.9,9.9,3.2,12.6,5.3c1.2,0.9,2.2,2.2,2.8,3.6C98.4,52.3,104,71.4,104,80   c0,4.6-1.7,7.6-3.7,9.6c-2.6,2.5-6.7,2.2-9.1-0.4c-2.9-3.1-5.9-6-8.7-8.7c-3.9-3.7-7.9-3-7.9-3H45.4z"/><path class="st13" d="M45.4,72.9c0,0-3.9-0.2-7.4,3.9c-2.2,2.6-6.3,7-9.2,10.1c-2.5,2.7-6.9,2.8-9.5,0.1c-1.9-2-3.4-4.9-3.4-9.3   c0-8.6,5.6-27.7,9.8-38.1c0.6-1.4,1.5-2.7,2.8-3.6c2.7-2.1,6.9-4.4,12.6-5.3c0.8-0.1,1.7,0.1,2.4,0.5c1.5,1,3.1,2.2,3.1,2.2h26.8   c0,0,1.6-1.2,3.1-2.2c0.7-0.5,1.6-0.7,2.4-0.5c5.6,0.9,9.9,3.2,12.6,5.3c1.2,0.9,2.2,2.2,2.8,3.6c4.2,10.4,9.8,29.5,9.8,38.1   c0,4.6-1.7,7.6-3.7,9.6c-2.6,2.5-6.7,2.2-9.1-0.4c-2.9-3.1-7-7.5-9.2-10.1c-3.5-4.1-7.4-3.9-7.4-3.9H45.4z"/><path class="st29" d="M100.3,85.8c-2.6,2.5-6.7,2.2-9.1-0.4c-2.9-3.1-7-12-9.2-14.6c-3.5-4.1-7.4-3.9-7.4-3.9H45.4   c0,0-3.9-0.2-7.4,3.9c-2.2,2.6-6.3,11.5-9.2,14.6c-2.5,2.7-6.9,2.8-9.5,0.1c-1.7-1.7-3.1-5.4-3.3-9c0,0.6-0.1,1.1-0.1,1.6   c0,4.4,1.5,7.3,3.4,9.3c2.6,2.7,6.9,2.6,9.5-0.1c2.9-3.1,7-7.5,9.2-10.1c3.5-4.1,7.4-3.9,7.4-3.9h29.1c0,0,3.9-0.2,7.4,3.9   c2.2,2.6,6.3,7,9.2,10.1c2.4,2.6,6.6,2.9,9.1,0.4c2-2,3.7-5,3.7-9.6c0-0.5,0-1.1-0.1-1.6C103.6,80.3,102.1,84.1,100.3,85.8z"/><path class="st16" d="M25.8,43.2c0.6-1.4,1.5-2.7,2.8-3.6c2.7-2.1,6.9-3.3,12.6-4.1c0.8-0.1,1.7,0.1,2.4,0.5c1.5,1,3.1,1,3.1,1   h26.8c0,0,1.6-0.1,3.1-1c0.7-0.5,1.6-0.7,2.4-0.5c5.6,0.9,9.9,2.1,12.6,4.1c1.2,0.9,2.2,2.2,2.8,3.6c3.9,9.7,9.1,27,9.7,36.2   c0-0.5,0.1-1.1,0.1-1.6c0-8.6-5.6-27.7-9.8-38.1c-0.6-1.4-1.5-2.7-2.8-3.6c-2.7-2.1-6.9-4.4-12.6-5.3c-0.8-0.1-1.7,0.1-2.4,0.5   c-1.5,1-3.1,2.2-3.1,2.2H46.6c0,0-1.6-1.2-3.1-2.2c-0.7-0.5-1.6-0.7-2.4-0.5c-5.6,0.9-9.9,3.2-12.6,5.3c-1.2,0.9-2.2,2.2-2.8,3.6   C21.6,50.1,16,69.1,16,77.7c0,0.6,0,1.1,0.1,1.6C16.7,70.1,21.9,52.9,25.8,43.2z"/><circle class="st16" cx="82.8" cy="57.2" r="3.5"/><circle class="st16" cx="82.8" cy="44.8" r="3.5"/><circle class="st16" cx="88.9" cy="51" r="3.5"/><circle class="st16" cx="76.6" cy="51" r="3.5"/><circle class="st0" cx="82.8" cy="57.2" r="2.7"/><circle class="st24" cx="82.8" cy="44.8" r="2.7"/><circle class="st5" cx="88.9" cy="51" r="2.7"/><circle class="st2" cx="76.6" cy="51" r="2.7"/><circle class="st13" cx="68.5" cy="64.4" r="5.8"/><circle class="st3" cx="68.5" cy="64.4" r="4.5"/><circle class="st16" cx="36.9" cy="51" r="8.4"/><circle class="st3" cx="36.9" cy="51" r="7"/><circle class="st35" cx="36.9" cy="51" r="3.5"/><path class="st13" d="M55.5,62.4h-2.3V60c0-0.5-0.4-0.8-0.8-0.8h-2.4c-0.5,0-0.8,0.4-0.8,0.8v2.3h-2.3c-0.5,0-0.8,0.4-0.8,0.8v2.4   c0,0.5,0.4,0.8,0.8,0.8H48v2.3c0,0.5,0.4,0.8,0.8,0.8h4.4c0.5,0,0.8-0.4,0.8-0.8v-2.3h1.3c0.5,0,0.8-0.4,0.8-0.8v-2.4   C56.3,62.7,55.9,62.4,55.5,62.4z"/><path class="st3" d="M54.9,62.6h-2v-2c0-0.4-0.3-0.7-0.7-0.7h-2.1c-0.4,0-0.7,0.3-0.7,0.7v2h-2c-0.4,0-0.7,0.3-0.7,0.7v2.1   c0,0.4,0.3,0.7,0.7,0.7h2v2c0,0.4,0.3,0.7,0.7,0.7h2.1c0.4,0,0.7-0.3,0.7-0.7v-2h2c0.4,0,0.7-0.3,0.7-0.7v-2.1   C55.6,63,55.3,62.6,54.9,62.6z"/><circle class="st29" cx="53.2" cy="45.4" r="2.4"/><circle class="st29" cx="66.4" cy="45.4" r="2.4"/><circle class="st35" cx="68.5" cy="64.4" r="2.5"/></g></svg>