<?xml version="1.0" ?><!DOCTYPE svg  PUBLIC '-//W3C//DTD SVG 1.1//EN'  'http://www.w3.org/Graphics/SVG/1.1/DTD/svg11.dtd'><svg enable-background="new 0 0 64 64" height="64px" version="1.1" viewBox="0 0 64 64" width="64px" xml:space="preserve" xmlns="http://www.w3.org/2000/svg" xmlns:xlink="http://www.w3.org/1999/xlink"><g id="background"><circle cx="32" cy="32" fill="#FACB1B" r="32"/></g><g id="icon"><g id="chocolate_1_"><g><path d="M47.068,54.227c0,0.975-0.793,1.773-1.762,1.773H19.752c-0.97,0-1.948-0.798-1.948-1.773V10.773     C17.805,9.798,18.783,9,19.752,9h25.554c0.969,0,1.762,0.798,1.762,1.773V54.227z" fill="#9C6144"/><g><g><path d="M45.888,9.11l-1.824,1.825l0.626,0.627l1.941-1.94C46.432,9.392,46.179,9.215,45.888,9.11z" fill="#AF7653"/><rect fill="#AF7653" height="4.717" transform="matrix(-0.7071 -0.7071 0.7071 -0.7071 43.9869 57.9373)" width="0.887" x="33.549" y="17.5"/><polygon fill="#AF7653" points="32.913,9.216 37.032,13.336 37.659,12.708 33.95,9 33.13,9      "/><polygon fill="#AF7653" points="47.068,21.507 47.068,20.345 44.528,17.804 43.901,18.431 47.023,21.553      "/><g><rect fill="#9C6144" height="6.208" width="9.754" x="34.654" y="11.66"/><path d="M44.408,11.66v6.208h-8.868V11.66H44.408L44.408,11.66z M45.295,10.773H34.654v7.981h10.641V10.773        L45.295,10.773z" fill="#AF7653"/></g></g><g><polygon fill="#AF7653" points="47.068,20.861 46.811,20.603 44.063,23.35 44.69,23.977 47.068,21.599      "/><polygon fill="#AF7653" points="32.88,21.004 32.88,21.599 37.032,25.751 37.659,25.124 33.21,20.675      "/><g><rect fill="#9C6144" height="6.208" width="9.754" x="34.654" y="24.075"/><path d="M44.408,24.075v6.208h-8.868v-6.208H44.408L44.408,24.075z M45.295,23.189H34.654v7.981h10.641V23.189        L45.295,23.189z" fill="#AF7653"/></g></g><g><rect fill="#AF7653" height="3.885" transform="matrix(-0.7071 -0.7071 0.7071 -0.7071 36.6037 59.7418)" width="0.887" x="30.231" y="20.348"/><polygon fill="#AF7653" points="17.805,21.004 17.805,21.599 21.957,25.751 22.583,25.124 18.134,20.675      "/><g><rect fill="#9C6144" height="6.208" width="9.755" x="19.578" y="24.075"/><path d="M29.333,24.075v6.208h-8.868v-6.208H29.333L29.333,24.075z M30.219,23.189H19.578v7.981h10.641V23.189        L30.219,23.189z" fill="#AF7653"/></g></g><g><polygon fill="#AF7653" points="30.923,9 28.988,10.935 29.615,11.562 32.177,9      "/><polygon fill="#AF7653" points="17.805,21.599 20.898,18.504 20.272,17.878 17.805,20.345      "/><path d="M18.242,9.622l3.714,3.714l0.626-0.627L18.984,9.11C18.694,9.215,18.441,9.392,18.242,9.622z" fill="#AF7653"/><rect fill="#AF7653" height="0.887" transform="matrix(-0.7071 -0.7071 0.7071 -0.7071 38.4931 55.3008)" width="4.415" x="28.492" y="19.235"/><g><rect fill="#9C6144" height="6.208" width="9.755" x="19.578" y="11.66"/><path d="M29.333,11.66v6.208h-8.868V11.66H29.333L29.333,11.66z M30.219,10.773H19.578v7.981h10.641V10.773        L30.219,10.773z" fill="#AF7653"/></g></g></g><g><rect fill="#84462D" height="47" width="0.887" x="31.993" y="9"/><rect fill="#84462D" height="0.886" width="29.264" x="17.805" y="20.529"/></g></g><g><rect fill="#41C2B3" height="24.83" width="29.264" x="17.805" y="31.17"/><rect fill="#6CD0C5" height="20.396" width="23.943" x="20.465" y="32.943"/><polygon fill="#3AAB9E" points="47.068,56 17.805,56 20.465,53.34 44.408,53.34    "/><g><g><g><g><g><g><g><g><g><polygon fill="#12B2A0" points="17.805,31.17 24.632,31.177 27.209,30.441 29.878,31.36 32.745,30.684 37.147,29.396               42.829,30.219 47.068,28.783 47.068,14.348 52.094,17.878 52.39,23.213 48.843,23.632 48.87,34.717 43.134,33.288               37.328,37.405 32.866,36.504 28.462,42.72 24.88,38.181 19.564,42.698 13.038,37.599 16.017,32.07 11.61,26.736               14.285,19.614 17.805,20.529             "/></g></g></g></g></g></g></g></g></g><polygon fill="#84462D" points="47.068,27.65 42.829,28.759 37.374,28.5 29.998,30.089 27.504,29.332 23.125,30.289      17.805,30.283 17.805,38.365 19.578,40.051 24.885,36.463 28.446,40.051 32.894,34.703 37.313,35.645 42.911,31.078      47.068,32.203    "/><g><g><g><g><g><g><g><g><g><polygon fill="#E2E4E5" points="17.805,31.17 23.125,31.176 27.504,30.219 29.998,30.976 37.374,29.387 42.829,29.646               47.068,28.537 47.068,14.348 51.53,19.678 47.97,22.331 50.63,24.104 48.856,28.51 48.066,33.359 42.911,31.964               37.313,36.532 32.894,35.59 28.446,40.938 24.885,37.35 19.578,40.938 13.038,34.717 15.144,30.292 13.128,26.965               16.932,22.302 17.805,22.302             "/></g></g></g></g></g></g></g></g></g></g></g></g></svg>