<?xml version="1.0" ?><!DOCTYPE svg  PUBLIC '-//W3C//DTD SVG 1.1//EN'  'http://www.w3.org/Graphics/SVG/1.1/DTD/svg11.dtd'><svg enable-background="new 0 0 223.81 223.81" height="223.81px" id="Livello_1" version="1.1" viewBox="0 0 223.81 223.81" width="223.81px" xml:space="preserve" xmlns="http://www.w3.org/2000/svg" xmlns:xlink="http://www.w3.org/1999/xlink"><g><circle cx="111.905" cy="112.077" fill="#627077" r="111.321"/><path d="M222.235,126.989l-63.06-74.179l-27.454,18.297l-27.942,45.51l-20,4.898l8.366,5.694   l-11.969,62.074l29.5,34.114c7.25,0,15.117-0.213,25.235-2.456C192.009,208.283,217.759,161.95,222.235,126.989z" fill="#010202" opacity="0.15"/><g><path d="M149.524,45.867c-0.61,0-1.188,0.125-1.724,0.334c-0.374-3.467-3.308-6.168-6.875-6.168    c-2.85,0-5.295,1.724-6.355,4.186c-1.042,0.265-1.974,0.804-2.707,1.545c-0.541-0.249-1.137-0.398-1.771-0.398    c-0.261,0-0.515,0.032-0.763,0.077c0.003-0.088,0.013-0.175,0.013-0.264c0-4.131-3.349-7.48-7.48-7.48    c-3.228,0-5.97,2.049-7.019,4.914c-0.471-0.106-0.959-0.167-1.461-0.167c-1.262,0-2.436,0.359-3.44,0.971    c-0.882-3.753-4.244-6.551-8.267-6.551c-2.277,0-4.339,0.9-5.865,2.358c-1.659-1.463-3.832-2.358-6.218-2.358    c-5.201,0-9.417,4.216-9.417,9.417c0,0.016,0.002,0.031,0.002,0.046c-0.153-0.019-0.303-0.046-0.461-0.046    c-2.094,0-3.792,1.698-3.792,3.792c0,2.094,1.698,3.792,3.792,3.792c1.146,0,2.16-0.519,2.855-1.322    c1.725,1.932,4.226,3.155,7.02,3.155c1.05,0,2.056-0.179,3-0.496c1.103,0.932,2.527,1.496,4.084,1.496    c2.209,0,4.152-1.133,5.285-2.848c2.051-0.068,3.914-0.86,5.348-2.132c1.022,2.342,3.355,3.98,6.073,3.98    c2.538,0,4.74-1.428,5.854-3.524c0.818,0.307,1.701,0.483,2.626,0.483c1.61,0,3.098-0.514,4.319-1.38    c0.647,1.52,2.154,2.587,3.911,2.587c0.507,0,0.986-0.104,1.436-0.266c1.07,1.283,2.679,2.1,4.48,2.1    c1.687,0,3.203-0.721,4.268-1.866c0.214,0.02,0.43,0.033,0.649,0.033c1.586,0,3.043-0.54,4.21-1.438    c0.713,1.724,2.407,2.938,4.388,2.938c2.623,0,4.75-2.127,4.75-4.75S152.147,45.867,149.524,45.867z" fill="#FFFFFF"/><g><g><path d="M153.267,183.635c-0.612,5.466-5.613,9.938-11.113,9.938H88.487c-5.5,0-10.467-4.476-11.037-9.946      L67.191,85.243c-0.57-5.47,3.463-9.946,8.963-9.946h79.25c5.5,0,9.499,4.472,8.887,9.938L153.267,183.635z" fill="#D8BA95"/></g><g><path d="M160.904,66.214c0,2.2-1.8,4-4,4h-83c-2.2,0-4-1.8-4-4v-10.75c0-2.2,1.8-4,4-4h83c2.2,0,4,1.8,4,4      V66.214z" fill="#DEDFDF"/></g><g><path d="M171.404,76.464c0,2.2-1.8,4-4,4H64.154c-2.2,0-4-1.8-4-4v-9.25c0-2.2,1.8-4,4-4h103.25c2.2,0,4,1.8,4,4      V76.464z" fill="#F3F3F3"/></g><g><path d="M171.404,76.464c0,2.2-1.8,4-4,4H64.154c-2.2,0-4-1.8-4-4v-5.75c0-2.2,0-4.112,0-4.25s1.8-0.25,4-0.25      h103.25c2.2,0,4,0.094,4,0.208c0,0.115,0,2.008,0,4.208V76.464z" fill="#DEDFDF"/></g><polygon fill="#A8A6A6" points="164.265,85.464 67.214,85.464 66.154,80.464 165.404,80.464    "/><circle cx="115.404" cy="129.7" fill="#3F672F" r="27.479"/><circle cx="115.404" cy="129.7" fill="#DEDFDF" r="24.313"/><circle cx="115.404" cy="129.7" fill="#3F672F" r="20.729"/><rect fill="#010202" height="2.228" opacity="0.2" width="40.167" x="95.321" y="179.76"/><rect fill="#010202" height="2.228" opacity="0.2" width="40.167" x="95.321" y="185.094"/></g></g></g></svg>