<?xml version="1.0" ?><!DOCTYPE svg  PUBLIC '-//W3C//DTD SVG 1.0//EN'  'http://www.w3.org/TR/2001/REC-SVG-20010904/DTD/svg10.dtd'><svg height="110px" style="enable-background:new 0 0 110 110;" version="1.0" viewBox="0 0 110 110" width="110px" xml:space="preserve" xmlns="http://www.w3.org/2000/svg" xmlns:xlink="http://www.w3.org/1999/xlink"><g id="R-Multicolor"><circle cx="55" cy="55" r="55" style="fill:#25B7D3;"/><g><g><path d="M75,39H35l3.924,47.083C38.967,86.601,39.4,87,39.92,87h30.16c0.52,0,0.953-0.399,0.997-0.917     L75,39z" style="fill:#8E6134;"/></g><g><path d="M55,39H35l3.924,47.083C38.967,86.602,39.4,87,39.92,87H55V39z" style="fill:#A97A45;"/></g><g><path d="M79,37c0,1.105-0.895,2-2,2H33c-1.105,0-2-0.895-2-2v-4c0-1.105,0.895-2,2-2h44     c1.105,0,2,0.895,2,2V37z" style="fill:#E2E4E5;"/></g><g><path d="M33.22,53.199c-0.056-0.562,0.128-1.122,0.507-1.541S34.645,51,35.21,51h39.58     c0.565,0,1.104,0.239,1.483,0.658c0.379,0.419,0.563,0.979,0.507,1.541l-1.6,16C75.078,70.221,74.218,71,73.19,71H36.81     c-1.028,0-1.888-0.779-1.99-1.801L33.22,53.199z" style="fill:#F0F1F1;"/></g><g><path d="M75,31l-2.894-5.789C71.428,23.856,70.043,23,68.528,23H41.472c-1.515,0-2.9,0.856-3.578,2.211     L35,31H75z" style="fill:#F0F1F1;"/></g><g><path d="M52.349,62.858c-0.203,0.152-0.488,0.128-0.663-0.057c-0.174-0.184-0.183-0.47-0.02-0.665     c1.775-2.12,6.403-4.669,9.165-6.074c-2.148-2.094-6.007-2.49-9.485-0.74c-4.167,2.097-6.2,6.47-4.54,9.769     c1.66,3.298,6.383,4.272,10.55,2.175c4.164-2.095,6.196-6.463,4.544-9.761C59.798,58.49,55.164,60.758,52.349,62.858z" style="fill:#692E19;"/></g><g><path d="M55,23H41.472c-1.515,0-2.9,0.856-3.578,2.211L35,31h20V23z" style="fill:#FFFFFF;"/></g><g><path d="M55,31H33c-1.104,0-2,0.896-2,2v4c0,1.104,0.896,2,2,2h22V31z" style="fill:#F0F1F1;"/></g></g></g></svg>