<?xml version="1.0" ?><!DOCTYPE svg  PUBLIC '-//W3C//DTD SVG 1.1//EN'  'http://www.w3.org/Graphics/SVG/1.1/DTD/svg11.dtd'><svg height="512px" id="Layer_1" style="enable-background:new 0 0 512 512;" version="1.1" viewBox="0 0 512 512" width="512px" xml:space="preserve" xmlns="http://www.w3.org/2000/svg" xmlns:xlink="http://www.w3.org/1999/xlink"><circle cx="256" cy="256.001" id="bg_1_" r="256" style="fill:#E27C3E;"/><path d="M267.338,82.56c-59.317,0-194.195,113.691-200.553,242.213  c-6.354,128.522,168.777,111.583,239.392,88.982c70.617-22.604,173.714-100.274,127.812-173.72  C388.091,166.591,329.481,82.56,267.338,82.56z" style="fill:#F4F4F4;"/><path d="M128.881,393.61c-1.199,0-2.423-0.32-3.528-0.992c-27.253-16.527-40.187-42.76-38.448-77.972  c0.188-3.764,3.371-6.68,7.152-6.478c3.764,0.188,6.666,3.389,6.479,7.151c-1.477,29.823,9.254,51.906,31.893,65.635  c3.225,1.954,4.249,6.149,2.299,9.371C133.439,392.44,131.191,393.61,128.881,393.61z" style="fill:#FFFFFF;"/><path d="M193.544,255.567c0-34.517,27.98-62.497,62.498-62.497c34.512,0,62.491,27.979,62.491,62.497  c0,34.518-27.979,62.497-62.491,62.497C221.523,318.065,193.544,290.086,193.544,255.567z" style="fill:#FFB600;"/><path d="M213.139,260.683c-2.825,0-5.118-2.29-5.118-5.116c0-16.289,8.155-31.328,21.808-40.234  c2.369-1.544,5.541-0.877,7.08,1.49c1.545,2.367,0.878,5.537-1.489,7.081c-10.748,7.009-17.165,18.845-17.165,31.663  C218.254,258.393,215.965,260.683,213.139,260.683z" style="fill:#FFFFFF;"/><g/><g/><g/><g/><g/><g/><g/><g/><g/><g/><g/><g/><g/><g/><g/></svg>