<?xml version="1.0" ?><svg id="Layer_1" style="enable-background:new 0 0 100 100;" version="1.1" viewBox="0 0 100 100" xml:space="preserve" xmlns="http://www.w3.org/2000/svg" xmlns:xlink="http://www.w3.org/1999/xlink"><style type="text/css">
	.st0{fill:#334D5C;}
	.st1{fill:#D15241;}
	.st2{fill:#DC8744;}
	.st3{fill:#FCD462;}
	.st4{fill:#F6C358;}
	.st5{fill:#44C4A1;}
	.st6{fill:#EFC84A;}
	.st7{fill:#3EA69B;}
	.st8{fill:#E56353;}
	.st9{fill:#E05B49;}
	.st10{fill:#D5D6DB;}
	.st11{fill:#EBF0F3;}
	.st12{fill:#FFFFFF;}
	.st13{fill:#45B39C;}
	.st14{fill:#E1E6E9;}
	.st15{fill:#EA8953;}
	.st16{fill:#1C75A1;}
	.st17{fill:none;stroke:#E1E6E9;stroke-width:2;stroke-miterlimit:10;}
	.st18{fill:#64798A;}
	.st19{fill:#CE412D;}
	.st20{fill:#3A556A;}
	.st21{fill:#2D93BA;}
	.st22{fill:none;stroke:#44C4A1;stroke-width:2;stroke-miterlimit:10;}
	.st23{fill:#27A2DB;}
	.st24{fill:none;stroke:#E56353;stroke-width:2;stroke-linecap:round;stroke-miterlimit:10;}
	.st25{fill:#2F4859;}
	.st26{fill:none;stroke:#EBF0F3;stroke-width:2;stroke-miterlimit:10;}
	.st27{fill:#31978C;}
</style><g><circle class="st0" cx="50" cy="50" r="48"/><g><g><polyline class="st26" points="61.1,52.9 67.7,34.4 77.5,27.6    "/><g><path class="st1" d="M71.9,70.7h-9.1c-1.1,0-2-0.9-2.1-2l-2-23.4c-0.2-1.9,0.9-3.6,2.3-3.6h12.6c1.5,0,2.5,1.6,2.3,3.6l-2,23.4      C73.9,69.8,72.9,70.7,71.9,70.7z"/><path class="st8" d="M67.7,70.7h-4.9c-1.1,0-2-0.9-2.1-2l-2-23.4c-0.2-1.9,0.9-3.6,2.3-3.6h6.7V70.7z"/><path class="st2" d="M75.7,43.6H58.8c-1,0-1.8-0.8-1.8-1.8v-1.6c0-1,0.8-1.8,1.8-1.8h16.9c1,0,1.8,0.8,1.8,1.8v1.6      C77.5,42.8,76.7,43.6,75.7,43.6z"/><polygon class="st5" points="59.9,58.6 59.4,54.1 75.2,54.1 74.8,58.6     "/><circle class="st11" cx="67.3" cy="56.3" r="6.2"/></g></g><g><rect class="st1" height="1.7" width="33.5" x="35.6" y="57.9"/><path class="st2" d="M70,64.5H35.2c-1.1,0-1.9-0.9-1.9-1.9v-1c0-1.1,0.9-1.9,1.9-1.9H70c1.1,0,1.9,0.9,1.9,1.9v1     C71.9,63.6,71,64.5,70,64.5z"/><path class="st3" d="M65.5,72.4H38.7c-2.6,0-4.7-2.1-4.7-4.7v-1.3h36.1v1.3C70.2,70.3,68.1,72.4,65.5,72.4z"/><path class="st4" d="M52.1,66.4H34v1.1c0,2.7,2.2,4.8,4.8,4.8h13.2V66.4z"/><g><path class="st5" d="M65.7,66.4c0,0.6,0.7,1.2,1.7,1.2s1.7-0.5,1.7-1.2"/><path class="st5" d="M62.4,66.4c0,0.6,0.7,1.2,1.7,1.2s1.7-0.5,1.7-1.2"/><path class="st5" d="M59,66.4c0,0.6,0.7,1.2,1.7,1.2s1.7-0.5,1.7-1.2"/><path class="st5" d="M55.7,66.4c0,0.6,0.7,1.2,1.7,1.2s1.7-0.5,1.7-1.2"/><path class="st5" d="M52.4,66.4c0,0.6,0.7,1.2,1.7,1.2c0.9,0,1.7-0.5,1.7-1.2"/><path class="st5" d="M49,66.4c0,0.6,0.7,1.2,1.7,1.2s1.7-0.5,1.7-1.2"/><path class="st5" d="M45.7,66.4c0,0.6,0.7,1.2,1.7,1.2s1.7-0.5,1.7-1.2"/><path class="st5" d="M42.3,66.4c0,0.6,0.7,1.2,1.7,1.2s1.7-0.5,1.7-1.2"/><path class="st5" d="M39,66.4c0,0.6,0.7,1.2,1.7,1.2s1.7-0.5,1.7-1.2"/><path class="st5" d="M35.6,66.4c0,0.6,0.7,1.2,1.7,1.2s1.7-0.5,1.7-1.2"/></g><rect class="st5" height="2.1" width="33.5" x="35.6" y="64.5"/><path class="st3" d="M70.2,57.9c0-8.2-8-14.8-17.8-14.8s-17.8,6.6-17.8,14.8H70.2z"/><path class="st4" d="M52.3,57.9H34.5c0-8.2,8-14.8,17.8-14.8V57.9z"/></g><g><path class="st11" d="M22.5,46.9c0-5.6,4.5-10.1,10.4-10.1s10.8,4.5,10.8,10.1"/><rect class="st3" height="18.4" transform="matrix(0.9784 0.2069 -0.2069 0.9784 10.9794 -7.6033)" width="2.5" x="40.6" y="39.5"/><g><rect class="st4" height="18.4" transform="matrix(0.9784 0.2069 -0.2069 0.9784 10.5264 -7.0027)" width="2.5" x="37.5" y="37.6"/><rect class="st3" height="18.4" transform="matrix(0.9784 0.2069 -0.2069 0.9784 10.7214 -6.324)" width="2.5" x="34.3" y="38.9"/></g><g><rect class="st4" height="18.4" transform="matrix(0.9985 5.406104e-02 -5.406104e-02 0.9985 2.4858 -1.7503)" width="2.5" x="32.3" y="35.9"/><rect class="st3" height="18.4" transform="matrix(0.9985 5.406104e-02 -5.406104e-02 0.9985 2.5756 -1.5903)" width="2.5" x="29.4" y="37.6"/></g><g><rect class="st4" height="18.4" transform="matrix(0.9993 -3.642528e-02 3.642528e-02 0.9993 -1.6648 1.0506)" width="2.5" x="26.7" y="37"/><rect class="st3" height="18.4" transform="matrix(0.9993 -3.642528e-02 3.642528e-02 0.9993 -1.7394 0.9519)" width="2.5" x="24" y="39"/></g><g><polygon class="st21" points="40.7,72.3 25.6,72.3 22.5,46.9 43.8,46.9     "/><polygon class="st23" points="33.1,72.3 25.6,72.3 22.5,46.9 33.1,46.9     "/></g></g></g></g></svg>