<?xml version="1.0" ?><!DOCTYPE svg  PUBLIC '-//W3C//DTD SVG 1.0//EN'  'http://www.w3.org/TR/2001/REC-SVG-20010904/DTD/svg10.dtd'><svg height="110px" style="enable-background:new 0 0 110 110;" version="1.0" viewBox="0 0 110 110" width="110px" xml:space="preserve" xmlns="http://www.w3.org/2000/svg" xmlns:xlink="http://www.w3.org/1999/xlink"><g id="R-Multicolor"><circle cx="55" cy="55" r="55" style="fill:#25B7D3;"/><g><g><path d="M83,81c0,3.314-2.686,6-6,6H33c-2.209,0-4-1.791-4-4V27c0-2.209,1.791-4,4-4h44     c3.314,0,6,2.686,6,6V81z" style="fill:#DF2C2C;"/></g><g><path d="M70.38,23H33c-2.209,0-4,1.791-4,4v37.38L70.38,23z" style="fill:#FA5655;"/></g><path d="M73.986,54.216c3.294-3.294,3.997-7.931,1.57-10.358c-2.427-2.427-7.065-1.724-10.358,1.569    c-2.701,2.701-3.656,6.304-2.575,8.853l-3.016,3.016l-3.52-3.52c1.387-1.387,1.387-3.636,0-5.022l-8.135-8.135    c-0.361-0.361-0.947-0.361-1.308,0c-0.34,0.34-0.363,0.884-0.052,1.251l6.069,7.173c0.162,0.191,0.15,0.475-0.027,0.653    c-0.177,0.177-0.461,0.189-0.653,0.027l-7.173-6.069c-0.367-0.311-0.911-0.288-1.251,0.052l-0.052,0.052    c-0.34,0.34-0.363,0.884-0.052,1.251l6.069,7.172c0.162,0.192,0.15,0.476-0.027,0.653c-0.177,0.177-0.461,0.189-0.653,0.027    l-7.173-6.069c-0.367-0.311-0.911-0.288-1.251,0.052c-0.361,0.361-0.361,0.946,0,1.308l8.135,8.135    c1.387,1.387,3.635,1.387,5.022,0l3.52,3.52l-9.162,9.162c-0.693,0.693-0.693,1.818,0,2.511s1.818,0.693,2.511,0l9.162-9.162    l9.036,9.036c0.693,0.694,1.818,0.694,2.511,0c0.694-0.693,0.694-1.817,0-2.511l-9.036-9.036l3.016-3.016    C67.682,57.872,71.285,56.917,73.986,54.216z" style="fill:#FBE158;"/><g><rect height="64" style="fill:#3E3E3F;" width="8" x="27" y="23"/></g><g><polygon points="35,58.38 35,23 27,23 27,66.38    " style="fill:#5B5C5F;"/></g></g></g></svg>