<?xml version="1.0" ?><!DOCTYPE svg  PUBLIC '-//W3C//DTD SVG 1.1//EN'  'http://www.w3.org/Graphics/SVG/1.1/DTD/svg11.dtd'><svg height="6.82666in" style="shape-rendering:geometricPrecision; text-rendering:geometricPrecision; image-rendering:optimizeQuality; fill-rule:evenodd; clip-rule:evenodd" viewBox="0 0 6.82666 6.82666" width="6.82666in" xml:space="preserve" xmlns="http://www.w3.org/2000/svg" xmlns:xlink="http://www.w3.org/1999/xlink"><defs><style type="text/css">
   <![CDATA[
    .fil0 {fill:#E53935}
    .fil1 {fill:#FFFFFE;fill-rule:nonzero}
   ]]>
  </style></defs><g id="Layer_x0020_1"><circle class="fil0" cx="3.41333" cy="3.41333" r="3.4"/><g id="_235573376"><polygon class="fil1" id="_235579640" points="2.79161,3.26465 4.03657,3.26465 4.03657,3.42028 2.79161,3.42028 "/><polygon class="fil1" id="_235564376" points="3.4919,3.34246 3.4919,4.58741 3.33628,4.58741 3.33628,3.34246 "/><polygon class="fil1" id="_235579832" points="3.10285,4.5096 3.72533,4.5096 3.72533,4.66522 3.10285,4.66522 "/><polygon class="fil1" id="_235576808" points="5.28,3.20204 5.12666,3.96873 5.2031,4.65671 5.0487,4.67373 4.97089,3.97345 4.9718,3.94974 5.12742,3.17165 "/><polygon class="fil1" id="_235579256" points="5.01277,4.04275 4.58107,4.04275 4.51096,4.67373 4.35655,4.65671 4.43436,3.95643 4.44206,3.88713 4.51156,3.88713 5.01277,3.88713 "/><path class="fil1" d="M4.43086 2.23598c0.0513071,-0.0513071 0.122193,-0.0830472 0.200476,-0.0830472 0.0782835,0 0.149165,0.0317402 0.20048,0.0830472 0.051311,0.051315 0.0830472,0.122197 0.0830472,0.20048 0,0.0782835 -0.0317362,0.149169 -0.0830472,0.20048 -0.051315,0.051311 -0.122197,0.0830512 -0.20048,0.0830512 -0.0782874,0 -0.149169,-0.0317402 -0.200476,-0.0830512 -0.051315,-0.051311 -0.0830512,-0.122193 -0.0830512,-0.20048 0,-0.0782835 0.0317362,-0.149165 0.0830512,-0.20048z" id="_235577888"/><path class="fil1" d="M4.45208 2.8805c0.0510315,-0.0510276 0.121488,-0.0827047 0.199051,-0.0827047 0.077563,0 0.148024,0.0316772 0.199051,0.0827047 0.0510276,0.0510276 0.0827047,0.121492 0.0827047,0.199055l0 0.448012c0,0.077563 -0.0316772,0.148024 -0.0827047,0.199051 -0.0510276,0.0510276 -0.121488,0.0827047 -0.199051,0.0827047l-0.136051 -0.000901575c-0.0522008,-0.00034252 -0.170311,-0.00575197 -0.222693,-0.0056378l-0.205059 0.671362c-0.0721142,0.236106 -0.368106,0.112661 -0.303689,-0.0989685l0.226949 -0.745563 0.0012126 -0.00425197c0.00390157,-0.010622 0.007,-0.0211142 0.0100827,-0.0315669 0.0248228,-0.0841732 0.049374,-0.167398 0.189984,-0.168756l0.157508 -0.00152756 0 -0.343957c0,-0.077563 0.0316772,-0.148028 0.0827047,-0.199055z" id="_235571600"/><polygon class="fil1" id="_235571384" points="1.54666,3.20204 1.7,3.96873 1.62356,4.65671 1.77796,4.67373 1.85577,3.97345 1.85486,3.94974 1.69924,3.17165 "/><polygon class="fil1" id="_235572248" points="1.81389,4.04275 2.24559,4.04275 2.3157,4.67373 2.47011,4.65671 2.3923,3.95643 2.3846,3.88713 2.31509,3.88713 1.81389,3.88713 "/><path class="fil1" d="M2.3958 2.23598c-0.051311,-0.0513071 -0.122193,-0.0830472 -0.20048,-0.0830472 -0.0782835,0 -0.149165,0.0317402 -0.200476,0.0830472 -0.051311,0.051315 -0.0830512,0.122197 -0.0830512,0.20048 0,0.0782835 0.0317402,0.149169 0.0830512,0.20048 0.051311,0.051311 0.122193,0.0830512 0.200476,0.0830512 0.0782874,0 0.149169,-0.0317402 0.20048,-0.0830512 0.051311,-0.051311 0.0830512,-0.122193 0.0830512,-0.20048 0,-0.0782835 -0.0317402,-0.149165 -0.0830512,-0.20048z" id="_235572056"/><path class="fil1" d="M2.37458 2.8805c-0.0510315,-0.0510276 -0.121488,-0.0827047 -0.199051,-0.0827047 -0.0775591,0 -0.148024,0.0316772 -0.199051,0.0827047 -0.0510276,0.0510276 -0.0827047,0.121492 -0.0827047,0.199055l0 0.448012c0,0.077563 0.0316772,0.148024 0.0827047,0.199051 0.0510276,0.0510276 0.121492,0.0827047 0.199051,0.0827047l0.136051 -0.000901575c0.0522008,-0.00034252 0.170315,-0.00575197 0.222693,-0.0056378l0.205059 0.671362c0.0721142,0.236106 0.368106,0.112661 0.303689,-0.0989685l-0.226949 -0.745563 -0.0012126 -0.00425197c-0.00390157,-0.010622 -0.007,-0.0211142 -0.0100827,-0.0315669 -0.0248189,-0.0841732 -0.049374,-0.167398 -0.189984,-0.168756l-0.157508 -0.00152756 0 -0.343957c0,-0.077563 -0.0316772,-0.148028 -0.0827047,-0.199055z" id="_235571864"/><path class="fil1" d="M3.16936 2.8643l0.244732 0 0.244732 0 0.077811 0 0 0.077815c0,0.0890551 -0.0361024,0.169693 -0.0944764,0.228063 -0.0583661,0.058374 -0.139008,0.0944803 -0.228067,0.0944803 -0.0890551,0 -0.169693,-0.0361024 -0.228067,-0.0944764 -0.058374,-0.058374 -0.0944764,-0.139012 -0.0944764,-0.228067l0 -0.077815 0.077811 0z" id="_235573664"/></g></g></svg>