<?xml version="1.0" ?><!DOCTYPE svg  PUBLIC '-//W3C//DTD SVG 1.1//EN'  'http://www.w3.org/Graphics/SVG/1.1/DTD/svg11.dtd'><svg enable-background="new 0 0 256 256" id="Layer_1" version="1.1" viewBox="0 0 256 256" xml:space="preserve" xmlns="http://www.w3.org/2000/svg" xmlns:xlink="http://www.w3.org/1999/xlink"><g><circle cx="128" cy="128" fill="#2C424F" r="127"/><path d="M109.8,122.2c-2.1-13.2-9.3-25.4-16.3-37.1c-1.7-2.9-3.5-5.9-5.1-8.8c-1.9-3.4-3.7-7-3.6-11.2l7.2,0.3   c-0.1,2.3,1.2,4.8,2.6,7.4c1.6,2.9,3.4,5.8,5.1,8.7c7.3,12.3,14.9,25.1,17.2,39.7L109.8,122.2z" fill="#F8A839"/><path d="M129.4,125.6l-6.4-3.2l6.2-12.3c1-2,2.1-4.2,2.6-6.2c0.7-3,0.3-6.2-0.2-9.7c-0.2-1.4-0.3-2.8-0.5-4.2   c-0.6-7.6,1.5-13.5,5.8-16.8l4.3,5.7c-3.3,2.4-3.2,8.2-3,10.5c0.1,1.3,0.3,2.6,0.4,3.8c0.5,3.9,1,8,0.1,12.2   c-0.7,2.9-2,5.6-3.2,7.9L129.4,125.6z" fill="#F8A839"/><path d="M150.4,122.9l-6.8-2.4c1.9-5.4,2-11.4,2-17.2l0.4-30.2l7.2,0.1l-0.4,30.2   C152.8,109.5,152.7,116.4,150.4,122.9z" fill="#F8A839"/><path d="M97.5,116.6l-6.5-3c7.3-15.5,12-32.1,14-49.1l7.1,0.8C110,83.1,105.1,100.3,97.5,116.6z" fill="#FFCA5D"/><path d="M122.7,126.8l-7.2,0l0.2-38.4c0-3.2,0-6.6-0.9-9.5c-0.3-0.9-0.7-1.8-1.1-2.8c-1.5-3.4-3.3-7.5-1.4-11.9   l6.6,2.9c-0.6,1.5,0.3,3.7,1.4,6.1c0.5,1.1,1,2.2,1.3,3.3c1.4,4,1.4,8.2,1.3,11.8L122.7,126.8z" fill="#F8A839"/><path d="M162.9,116.9l-7.1-0.9c1-8.5,1.3-17.1,0.9-25.6l-0.1-2c-0.2-4.1-0.5-8.3,0.3-12.5c1.1-6.2,4-11.1,8.4-13.9   l3.8,6c-2.6,1.7-4.5,5-5.2,9.1c-0.6,3.5-0.4,7.1-0.2,10.9l0.1,2C164.3,98.9,164,108,162.9,116.9z" fill="#F8A839"/><path d="M97.9,121.7c-2.8-9.4-9.4-17-16.4-25c-6.5-7.5-13.2-15.2-16.9-24.8l6.7-2.6C74.6,77.7,80.6,84.6,87,92   c7.2,8.2,14.6,16.8,17.8,27.6L97.9,121.7z" fill="#F8A839"/><path d="M143.4,130.5l-7.2-0.6c0.6-9.6-2.7-19.5-5.6-28.2l-10-30.4c-1.5-4.5-3.2-9.7-3.7-15.2l7.1-0.9   c0.4,4.4,1.9,8.8,3.3,13.1l10,30.4C140.5,108.3,144,119.1,143.4,130.5z" fill="#FFCA5D"/><path d="M161.2,123.3l-5.6-4.5c8.6-10.6,15.6-22.4,20.8-35c0.5-1.3,1.1-2.6,1.6-3.9c2.3-5.7,4.7-11.7,8.5-16.9   l5.8,4.3c-3.3,4.5-5.4,9.7-7.6,15.2c-0.5,1.3-1.1,2.7-1.6,4C177.6,99.8,170.2,112.1,161.2,123.3z" fill="#FFCA5D"/><path d="M173.2,121.7c-3.6-12.8-11.3-23.6-19.5-35.1c-5.1-7.2-10.5-14.6-14.7-22.6l6.3-3.3   c4,7.5,9.2,14.8,14.2,21.8c8.2,11.5,16.7,23.3,20.6,37.3L173.2,121.7z" fill="#FFCA5D"/><path d="M119.3,132.9l-7.1-1.3c3.1-16.9,3.4-34.1,1-51.1l7.1-1C122.9,97.3,122.5,115.3,119.3,132.9z" fill="#FFCA5D"/><path d="M85,112l-7.1-1.3c3.1-16.9,3.4-34.1,1-51.1l7.1-1C88.5,76.4,88.2,94.4,85,112z" fill="#FFCA5D"/><path d="M145.5,127.2l-7.1-1.3c3.1-16.9,3.4-34.1,1-51.1l7.1-1C149.1,91.6,148.7,109.5,145.5,127.2z" fill="#FFCA5D"/><path d="M184.9,93.5h-15.1c-5.3,15.8-22,27.3-41.8,27.3c-19.8,0-36.6-11.6-41.8-27.3H61.8l10.1,100.8H174   L184.9,93.5z" fill="#E65336"/><polygon fill="#CD3B28" points="184.9,93.5 174,194.4 71.9,194.4 72.6,200.8 183.4,200.8 194.2,93.5  "/><rect fill="#EDF0F2" height="61.9" opacity="0.47" width="19" x="118.5" y="128.7"/><path d="M71.4,102.2l8.8,88.4h6.7l-9.9-85.5l5.8-0.3c0,0,5.3,17.8,28,23.9c0,0-21-7.3-27.1-28.9   H71.4V102.2z" fill="#EDF0F2" opacity="0.47"/></g></svg>