<?xml version="1.0" ?><!DOCTYPE svg  PUBLIC '-//W3C//DTD SVG 1.0//EN'  'http://www.w3.org/TR/2001/REC-SVG-20010904/DTD/svg10.dtd'><svg height="110px" style="enable-background:new 0 0 110 110;" version="1.0" viewBox="0 0 110 110" width="110px" xml:space="preserve" xmlns="http://www.w3.org/2000/svg" xmlns:xlink="http://www.w3.org/1999/xlink"><g id="R-Multicolor"><circle cx="55" cy="55" r="55" style="fill:#32BEA6;"/><g><g><polygon points="46.459,55.075 46.458,55.078 55.041,58.5 55.041,55.075    " style="fill:#EDBC7C;"/></g><g><path d="M65.621,55.514c-1.19,1.49-3.02,2.44-5.08,2.44c-2.281,0-4.277-1.173-5.437-2.952h-0.063h-0.063     c-0.016,0.025-0.036,0.048-0.052,0.073h0.116h-0.116c-1.167,1.737-3.136,2.879-5.384,2.879c-2.06,0-3.89-0.95-5.08-2.44     c-0.386,0.149-0.791,0.258-1.209,0.332c5.614,22.451,6.249,25.007,6.838,27.331c0.59,2.25,2.62,3.825,4.951,3.825     c2.239,0,4.388-1.552,4.97-3.88C60.067,82.9,65.67,60.49,66.83,55.846C66.413,55.772,66.007,55.664,65.621,55.514z" style="fill:#F4D0A1;"/></g><g><path d="M46.458,55.078l0.001-0.003h8.583v-0.073h-12c5.812,23.245,6.453,25.821,7.049,28.175     c0.59,2.25,2.62,3.825,4.951,3.825V55.075L46.458,55.078z" style="fill:#F8E1C2;"/></g><g><polygon points="43.844,58.213 45.151,63.441 55.041,67.384 63.139,70.611 64.209,66.331 55.041,62.676         " style="fill:#D4A263;"/></g><g><polygon points="46.311,68.08 47.618,73.308 55.041,76.267 61.12,78.69 62.19,74.409 55.041,71.56    " style="fill:#D4A263;"/></g><g><path d="M48.778,77.947c2.307,9.23,0.706,2.835,1.312,5.23l4.951,1.974l2.688,1.072     c1.105-0.685,1.949-1.771,2.282-3.101l0.158-0.634l-5.128-2.044L48.778,77.947z" style="fill:#D4A263;"/></g><g><polygon points="43.844,58.213 45.151,63.441 55.041,67.384 55.041,62.676    " style="fill:#EDBC7C;"/></g><g><polygon points="46.311,68.08 47.618,73.308 55.041,76.267 55.041,71.56    " style="fill:#EDBC7C;"/></g><g><path d="M48.778,77.947c2.307,9.23,0.706,2.835,1.312,5.23l4.951,1.974v-4.707L48.778,77.947z" style="fill:#EDBC7C;"/></g><g><path d="M60.541,57.954c-2.249,0-4.218-1.142-5.384-2.879h-0.116h-0.116c-0.671,1-1.609,1.797-2.714,2.296     l2.83,1.128l10.118,4.033l1.07-4.281l-2.649-1.056C62.673,57.676,61.642,57.954,60.541,57.954z" style="fill:#D4A263;"/></g><g><path d="M75.041,48.954c0,4.992-5.041,8.253-9.42,6.56c-1.19,1.49-3.02,2.44-5.08,2.44     c-2.32,0-4.35-1.21-5.5-3.04c-1.15,1.83-3.18,3.04-5.5,3.04c-2.06,0-3.89-0.95-5.08-2.44c-4.366,1.688-9.42-1.552-9.42-6.56     c0-2.8,1.64-5.21,4.01-6.33c0.17-8.69,7.26-15.67,15.99-15.67s15.82,6.98,15.99,15.67C73.401,43.744,75.041,46.154,75.041,48.954     z" style="fill:#84462D;"/></g><g><path d="M39.051,42.624c-2.37,1.12-4.01,3.53-4.01,6.33c0,4.992,5.041,8.253,9.42,6.56     c1.19,1.49,3.02,2.44,5.08,2.44c2.32,0,4.35-1.21,5.5-3.04v-27.96C46.311,26.954,39.222,33.934,39.051,42.624z" style="fill:#9C6144;"/></g><g><path d="M66.247,31.529c-2.885-2.831-6.839-4.575-11.204-4.575c-4.56,0-8.66,1.916-11.573,4.973     c-0.144,0.402-0.279,0.813-0.402,1.232c-1.208,4.115-1.175,6.761-0.787,8.655c0.118,0.576,0.456,1.007,0.873,1.114     c0.417,0.108,0.84-0.127,1.094-0.607l3.173-6.174c0.374-0.705,0.96-1.121,1.583-1.121s1.209,0.416,1.583,1.121l2.771,5.681     c0.374,0.705,0.959,1.12,1.583,1.12c0.623,0,1.208-0.415,1.582-1.12l2.768-5.681c0.374-0.705,0.96-1.121,1.583-1.121     s1.209,0.416,1.583,1.121l3.229,6.156c0.255,0.481,0.681,0.717,1.099,0.604c0.418-0.112,0.754-0.551,0.867-1.131     c0.356-1.833,0.345-4.571-0.843-8.617C66.641,32.599,66.45,32.06,66.247,31.529z" style="fill:#F0F1F1;"/></g><g><path d="M55.041,26.954c-4.559,0.001-8.658,1.916-11.571,4.973c-0.144,0.402-0.279,0.813-0.402,1.232     c-1.208,4.115-1.175,6.761-0.787,8.655c0.118,0.576,0.456,1.007,0.873,1.114c0.417,0.108,0.84-0.127,1.094-0.607l3.173-6.174     c0.374-0.705,0.96-1.121,1.583-1.121s1.209,0.416,1.583,1.121l2.771,5.681c0.374,0.705,0.959,1.12,1.583,1.12     c0.035,0,0.068-0.014,0.103-0.017V26.954z" style="fill:#FFFFFF;"/></g></g></g></svg>