<?xml version="1.0" ?><!DOCTYPE svg  PUBLIC '-//W3C//DTD SVG 1.1//EN'  'http://www.w3.org/Graphics/SVG/1.1/DTD/svg11.dtd'><svg enable-background="new 0 0 128 128" id="Layer_1" version="1.1" viewBox="0 0 128 128" xml:space="preserve" xmlns="http://www.w3.org/2000/svg" xmlns:xlink="http://www.w3.org/1999/xlink"><g id="XMLID_416_"><path d="M128,64c0,35.3-28.5,63.9-63.8,64H64C28.6,128,0,99.4,0,64C0,28.7,28.6,0,64,0   c34.8,0,63.2,27.8,64,62.4C128,63,128,63.5,128,64z" fill="#EBF0F3" id="XMLID_5413_"/><linearGradient gradientUnits="userSpaceOnUse" id="XMLID_2_" x1="110.1566" x2="52.7333" y1="109.2616" y2="51.8383"><stop offset="6.099910e-002" style="stop-color:#FFFFFF;stop-opacity:0"/><stop offset="0.162" style="stop-color:#CDCDCD;stop-opacity:0.1075"/><stop offset="0.2839" style="stop-color:#979797;stop-opacity:0.2374"/><stop offset="0.4075" style="stop-color:#696969;stop-opacity:0.369"/><stop offset="0.5299" style="stop-color:#434343;stop-opacity:0.4994"/><stop offset="0.6511" style="stop-color:#262626;stop-opacity:0.6284"/><stop offset="0.7706" style="stop-color:#111111;stop-opacity:0.7557"/><stop offset="0.8878" style="stop-color:#040404;stop-opacity:0.8806"/><stop offset="1" style="stop-color:#000000"/></linearGradient><path d="M128,64c0,35.3-28.5,63.9-63.8,64L23,86.8l78.4-50.9L128,62.4   C128,63,128,63.5,128,64z" fill="url(#XMLID_2_)" id="XMLID_125_" opacity="0.2"/><g id="XMLID_4688_"><polygon fill="#E56353" id="XMLID_4686_" points="107.3,66.7 21.1,66.7 29.5,34.8 98.8,34.8   "/><path d="M100.5,88.8H27.4c-3.2,0-5.7-2.6-5.7-5.7l-1.1-13.4l0-1c0-1.6,0.3-3.1,1.2-4.4    c0.8-1.2,2-2.1,3.6-2.1h76.8c2.9,0,5.3,2.4,5.3,5.3l0,2.4L106.2,83C106.2,86.2,103.7,88.8,100.5,88.8z" fill="#27A2DB" id="XMLID_4685_"/><path d="M107.4,67.4l-0.2,3.3c-0.5,1.5-2,2.6-3.7,2.6H85.7v5.6c0,1.1-0.8,2.1-1.9,2.2l-19.5,3.1    c-0.2,0-0.5,0-0.7,0L44,81.1C43,81,42.1,80,42.1,78.9v-5.6H24.4c-1.8,0-3.3-1.2-3.8-2.9c0-0.2-0.1-0.3-0.1-0.5l0-0.2v-0.1l0-1    c0-1.4,0.3-2.8,0.9-3.9v0c0.1-0.2,0.2-0.3,0.3-0.4c0.8-1.2,2-2.1,3.6-2.1h76.8c1.9,0,3.5,1,4.4,2.4c0.4,0.5,0.6,1.2,0.8,1.8    l0.1,0.5C107.4,67.1,107.4,67.2,107.4,67.4z" fill="#27A2DB" id="XMLID_4702_"/><path d="M107.4,67.4l-0.2,3.3c-0.5,1.5-2,2.6-3.7,2.6H85.7v5.6c0,1.1-0.8,2.1-1.9,2.2l-19.5,3.1    c-0.2,0-0.5,0-0.7,0L44,81.1C43,81,42.1,80,42.1,78.9v-5.6H24.4c-1.8,0-3.3-1.2-3.8-2.9c0,0,0.3-4.7,0.8-5.7    c0.1-0.2,0.2-0.3,0.3-0.4c0.8-1.2,2-2.1,3.6-2.1h76.8c1.9,0,3.5,1,4.4,2.4c0.5,0.7,0.8,1.5,0.8,2.4    C107.4,67.1,107.4,67.2,107.4,67.4z" fill="#27A2DB" id="XMLID_4703_"/><path d="M107.2,65.7l-3.9-26.6c-0.3-2.3-2.3-4.2-4.6-4.4l0,0h-0.2c-0.1,0-0.1,0-0.2,0l0,0    l-68.9,0l0,0c-2.4,0-4.6,1.9-5,4.4l-3.8,26.2c-0.2,0.5,0.2,1.1,0.2,1.6l-0.5,2.3c0,2.2,1.8,3.9,3.9,3.9h79.1    c2.2,0,3.9-1.8,3.9-3.9l-0.3-2.4C107.1,66.5,107.3,66.1,107.2,65.7z M26.4,58.6l2.1-16.5c0.2-1.7,1.6-2.9,3.3-2.9H96    c1.7,0,3.1,1.2,3.3,2.9l2.1,16.5c0.2,1.6-1,3-2.6,3H29.1C27.5,61.6,26.2,60.2,26.4,58.6z" fill="#FCD462" id="XMLID_4694_"/><path d="M107.4,66.9v2.4c0,0.5-0.1,0.9-0.2,1.3c-0.5,1.5-2,2.6-3.7,2.6H85.7v5.6    c0,1.1-0.8,2.1-1.9,2.2l-19.5,3.1c-0.2,0-0.5,0-0.7,0L44,81.1C43,81,42.1,80,42.1,78.9v-5.6H24.4c-1.8,0-3.3-1.2-3.8-2.9    c0-0.2-0.1-0.3-0.1-0.5c0-0.1,0-0.2,0-0.3c0-0.1,0-0.1,0-0.2c0,0,0-1.4,0-1.4c0-0.9,0.1-1.9,0.3-2.8l0.3-2.2c0,0.2,0,0.9,0.3,1.7    v0c0.4,1,1.3,2.1,3.3,2.2h78.5c2-0.2,2.9-1.4,3.3-2.4c0.3-0.8,0.3-1.4,0.3-1.5l0.5,3.4L107.4,66.9L107.4,66.9L107.4,66.9z" fill="#F6C358" id="XMLID_4710_"/><g id="XMLID_4692_"><path d="M47,52.9h-4.7c-0.1,0-0.3-0.1-0.2-0.2l0.9-6c0-0.1-0.1-0.2-0.2-0.2h-1.5     c-0.1,0-0.3,0.1-0.3,0.2l-1.3,7.3c0,0.1,0.1,0.2,0.2,0.2h6.8c0.2,0,0.3-0.1,0.3-0.2l0.1-1C47.2,53,47.1,52.9,47,52.9z" fill="#EBF0F3" id="XMLID_4705_"/><path d="M57.1,46.5h-1.5c-0.1,0-0.3,0.1-0.3,0.2l-0.3,4c0,0.6-0.1,1.1-0.2,1.3     c-0.1,0.3-0.3,0.5-0.6,0.7c-0.3,0.2-0.8,0.3-1.4,0.3c-0.6,0-1-0.1-1.4-0.3C51.2,52.6,51,52.3,51,52c0-0.2,0-0.6,0-1.3l0.4-3.9     c0-0.1-0.1-0.2-0.2-0.2h-1.5c-0.1,0-0.3,0.1-0.3,0.2L49,50.6c-0.1,0.9-0.1,1.6,0,2c0.1,0.3,0.2,0.6,0.5,0.9     c0.3,0.3,0.7,0.5,1.2,0.7c0.5,0.2,1.3,0.3,2.3,0.3c0.8,0,1.5-0.1,2-0.3c0.5-0.2,1-0.4,1.3-0.7c0.3-0.3,0.5-0.6,0.7-1     c0.1-0.4,0.2-1.1,0.3-2l0.2-3.8C57.3,46.6,57.2,46.5,57.1,46.5z" fill="#EBF0F3" id="XMLID_4706_"/><path d="M67.1,46.5h-1.3c-0.1,0-0.3,0.1-0.3,0.2l0,4.2c0,0.2-0.4,0.3-0.5,0.1l-3.5-4.4     c0-0.1-0.1-0.1-0.2-0.1h-1.5c-0.1,0-0.3,0.1-0.3,0.2l-0.3,7.4c0,0.1,0.1,0.2,0.3,0.2h1.4c0.2,0,0.3-0.1,0.3-0.2l0.1-4.3     c0-0.2,0.4-0.3,0.5-0.1l3.6,4.5c0.1,0.1,0.1,0.1,0.2,0.1h1.7c0.2,0,0.3-0.1,0.3-0.2l-0.2-7.4C67.3,46.6,67.2,46.5,67.1,46.5z" fill="#EBF0F3" id="XMLID_4707_"/><path d="M78,51.8l-1.8-0.4c-0.1,0.6-0.4,1-0.8,1.3c-0.4,0.3-0.9,0.4-1.4,0.4     c-0.8,0-1.4-0.2-1.9-0.6c-0.5-0.4-0.8-1.1-0.8-2.1c0-0.9,0.2-1.6,0.6-2c0.4-0.4,1-0.6,1.8-0.6c0.5,0,1,0.1,1.4,0.3     c0.3,0.2,0.6,0.4,0.7,0.8c0.1,0.1,0.2,0.2,0.3,0.1l1.5-0.3c0.1,0,0.2-0.2,0.2-0.3c-0.3-0.5-0.6-0.9-1.1-1.2     c-0.8-0.5-1.8-0.8-3-0.8c-1.4,0-2.5,0.3-3.3,1c-0.8,0.7-1.2,1.7-1.2,3c0,1.2,0.5,2.2,1.4,3c0.9,0.7,2.1,1.1,3.5,1.1     c1.1,0,2-0.2,2.7-0.7c0.6-0.4,1.1-1,1.3-1.8C78.3,51.9,78.2,51.8,78,51.8z" fill="#EBF0F3" id="XMLID_4708_"/><path d="M87.2,46.5h-1.5c-0.1,0-0.2,0.1-0.2,0.2l0.4,2.6c0,0.1-0.1,0.2-0.2,0.2h-3.5     c-0.1,0-0.3-0.1-0.3-0.2l-0.3-2.6c0-0.1-0.1-0.2-0.3-0.2h-1.5c-0.1,0-0.2,0.1-0.2,0.2l0.8,7.4c0,0.1,0.1,0.2,0.3,0.2h1.6     c0.2,0,0.3-0.1,0.2-0.2L82.1,51c0-0.1,0.1-0.2,0.2-0.2h3.5c0.1,0,0.3,0.1,0.3,0.2l0.5,3.1c0,0.1,0.2,0.2,0.3,0.2h1.6     c0.2,0,0.3-0.1,0.2-0.2l-1.3-7.4C87.4,46.6,87.3,46.5,87.2,46.5z" fill="#EBF0F3" id="XMLID_4709_"/></g></g></g></svg>