<?xml version="1.0" ?><!DOCTYPE svg  PUBLIC '-//W3C//DTD SVG 1.1//EN'  'http://www.w3.org/Graphics/SVG/1.1/DTD/svg11.dtd'><svg enable-background="new 0 0 256 256" id="Layer_1" version="1.1" viewBox="0 0 256 256" xml:space="preserve" xmlns="http://www.w3.org/2000/svg" xmlns:xlink="http://www.w3.org/1999/xlink"><g><circle cx="128" cy="128" fill="#39B39B" r="127"/><path d="M69.1,185.8c-0.8-0.4-1.6-0.9-2.1-1.6c-0.6-0.8-0.8-1.7-1-2.6c-1-5.2-0.4-10.7,1.9-15.5   c2.3-4.8,6.4-8.7,11.3-10.7c4.6-1.9,9.6-2.1,14.6-2.2c2.4-0.1,4.9-0.2,7.2,0.3c1.8,0.4,3.5,1.1,5.2,1.9c5.5,2.4,11.1,4.7,16.6,7.1   c-2.4-0.2-5.3-0.2-6.5,1.8c-1.3,2.2,0.4,5.4-1.2,7.5c-1,1.4-3.1,1.6-4.7,1c-1.6-0.6-2.8-2-3.9-3.3c-1.1-1.3-2.2-2.7-3.7-3.5   c-4-2.1-9.1,0.4-13.5-1c-2.4-0.8-4.6-2.7-7-2.1c-2.7,0.7-3.5,4.1-3.6,6.9c0,2.2,0.1,4.4,0.4,6.6c0.5,3.2,1.1,6.9-1.1,9.2   C75.9,188,72,187.3,69.1,185.8z" fill="#EB9723"/><path d="M140.9,69.2L55.3,156L178,173C174.6,92.1,140.9,69.2,140.9,69.2z" fill="#FFCD3F"/><path d="M155.9,47C155.9,47,155.9,47,155.9,47L54.2,155.8l1.1,0.2l85.6-86.8C158.6,67.9,156.7,52,155.9,47z" fill="#EB9723"/><path d="M178,173l23.3,3.2c0,0,8.7-76-45.4-129.2c0.8,5,2.7,20.8-14.9,22.2C140.9,69.2,174.6,92.1,178,173z" fill="#F6AB27"/><path d="M78.7,179.6c-0.3,3.1-2.6,5.9-5.6,6.7c-3,0.9-6.4-0.3-8.3-2.7c-1.8-2.3-2.1-5.4-2.2-8.3   c0-2.4,0.1-4.8,0.5-7.2c0.1-0.4,0.1-0.7,0-1.1c-0.2-0.7-1.1-1-1.8-1.2c-1.8-0.6-3.5-1.5-4.8-2.8c-1.3-1.4-2-3.4-1.5-5.2   c0.5-2,2.4-3.5,4.3-4.1s4.1-0.6,6.2-0.5c9,0.3,18.1,0.6,27.1,0.9c13.1,0.4,26.5,0.9,38.8,5.5c2.7,1,5.4,2.3,6.8,4.8   c-7.1-0.1-14.1-0.1-21.2-0.2c-0.5,0-1.1,0-1.6,0.2c-1,0.5-1.4,1.8-1.4,3s0.2,2.4-0.2,3.4c-0.8,2.1-3.7,2.7-5.8,1.8   c-2.1-0.9-3.5-2.8-5.1-4.4c-1.5-1.7-3.4-3.3-5.6-3.5c-1.3-0.1-2.5,0.3-3.8,0.2c-3.5-0.2-6.4-3.5-9.9-3.4c-2.3,0.1-4.4,1.7-5.4,3.8   c-1,2.1-1.1,4.5-0.7,6.7C77.9,174.5,79,177,78.7,179.6z" fill="#FFCD3F"/><path d="M115.7,149c0.1-0.9,0.8-1.7,1.7-2c0.9-0.3,1.8-0.3,2.7-0.2c0.7,0,1.5,0.1,2.2,0.5c1.2,0.8,1.5,2.4,1.6,3.9   c0,0.5,0.1,1-0.1,1.4c-0.2,0.5-0.5,0.9-0.9,1.2c-1.6,1.4-3.7,2.5-5.8,2.2c-2.1-0.3-4.1-2.2-3.8-4.4c0.1-0.5,0.3-1,0.7-1.3   c0.4-0.3,1-0.4,1.4-0.1c-0.3,0.8,0.1,1.9,0.9,2.3c-0.3-0.2,0.1-0.7,0.4-0.6c0.4,0.1,0.6,0.4,0.9,0.6c0.8,0.6,2,0,2.6-0.8   c0.4-0.6,0.7-1.4,0.4-2c-0.3-0.7-1.3-1-1.8-0.4c0.1,0.4-0.3,0.8-0.7,0.9c-0.4,0.1-0.8,0.1-1.3,0c-0.8-0.1-1.8-0.5-1.7-1.3" fill="#2E4555"/><path d="M107.4,113c0.1-0.8,0.7-1.4,1.4-1.7c0.7-0.3,1.5-0.2,2.3-0.2c0.6,0,1.3,0.1,1.8,0.4c1,0.6,1.3,2,1.4,3.3   c0,0.4,0.1,0.8-0.1,1.2c-0.1,0.4-0.5,0.7-0.8,1c-1.4,1.2-3.1,2.1-4.9,1.9c-1.8-0.2-3.5-1.9-3.2-3.7c0.1-0.4,0.2-0.9,0.6-1.1   c0.3-0.3,0.9-0.3,1.2-0.1c-0.3,0.7,0.1,1.6,0.7,1.9c-0.3-0.1,0.1-0.6,0.4-0.5c0.3,0.1,0.5,0.4,0.7,0.5c0.7,0.5,1.7,0,2.2-0.7   c0.4-0.5,0.6-1.1,0.3-1.7c-0.2-0.6-1.1-0.8-1.5-0.3c0.1,0.4-0.2,0.7-0.6,0.8c-0.3,0.1-0.7,0-1.1,0c-0.7-0.1-1.5-0.5-1.5-1.1" fill="#2E4555"/><path d="M138.5,83.9c0.1-0.8,0.7-1.4,1.4-1.7c0.7-0.3,1.5-0.2,2.3-0.2c0.6,0,1.3,0.1,1.8,0.4c1,0.6,1.3,2,1.4,3.3   c0,0.4,0.1,0.8-0.1,1.2c-0.1,0.4-0.5,0.7-0.8,1c-1.4,1.2-3.1,2.1-4.9,1.9c-1.8-0.2-3.5-1.9-3.2-3.7c0.1-0.4,0.2-0.9,0.6-1.1   s0.9-0.3,1.2-0.1c-0.3,0.7,0.1,1.6,0.7,1.9c-0.3-0.1,0.1-0.6,0.4-0.5s0.5,0.4,0.7,0.5c0.7,0.5,1.7,0,2.2-0.7   c0.4-0.5,0.6-1.1,0.3-1.7c-0.2-0.6-1.1-0.8-1.5-0.3c0.1,0.4-0.2,0.7-0.6,0.8c-0.3,0.1-0.7,0-1.1,0c-0.7-0.1-1.5-0.5-1.5-1.1" fill="#2E4555"/><path d="M156.9,141.4c0.1-0.8,0.7-1.4,1.4-1.7c0.7-0.3,1.5-0.2,2.3-0.2c0.6,0,1.3,0.1,1.8,0.4c1,0.6,1.3,2,1.4,3.3   c0,0.4,0.1,0.8-0.1,1.2c-0.1,0.4-0.5,0.7-0.8,1c-1.4,1.2-3.1,2.1-4.9,1.9c-1.8-0.2-3.5-1.9-3.2-3.7c0.1-0.4,0.2-0.9,0.6-1.1   c0.3-0.3,0.9-0.3,1.2-0.1c-0.3,0.7,0.1,1.6,0.7,1.9c-0.3-0.1,0.1-0.6,0.4-0.5c0.3,0.1,0.5,0.4,0.7,0.5c0.7,0.5,1.7,0,2.2-0.7   c0.4-0.5,0.6-1.1,0.3-1.7c-0.2-0.6-1.1-0.8-1.5-0.3c0.1,0.4-0.2,0.7-0.6,0.8c-0.3,0.1-0.7,0-1.1,0c-0.7-0.1-1.5-0.5-1.5-1.1" fill="#2E4555"/><path d="M147.5,166.4c0.3-0.1,0.6-0.3,0.9-0.4c-0.3,0-0.6,0.1-0.8,0.3C147.6,166.3,147.6,166.4,147.5,166.4z" fill="#EDF0F2"/><circle cx="139.8" cy="114.2" fill="#F04F2D" r="17.2"/><path d="M147.9,111.3c-0.6,0.4-1.2-0.7-1.8-0.5c-0.3,0.3-0.3,0.8-0.3,1.2s-0.4,0.9-0.8,0.8   c-0.2-0.1-0.3-0.2-0.5-0.3c-0.5-0.3-1.1-0.1-1.6,0.2s-0.8,0.8-1.3,1.1c-0.5,0.3-1.2,0.3-1.6-0.2c-0.2-0.3-0.2-0.8-0.1-1.2   c0.5-3,1-6.1,1.5-9.1c0.1-0.8,0.3-1.7,0.7-2.4c0.4-0.7,1.1-1.4,1.9-1.5c1-0.2,2,0.5,2.9,1.2c1.6,1.2,3.2,2.5,4.7,3.9   c0.6,0.6,1.3,1.3,1.2,2.1c-0.1,0.6-0.6,1.1-1.2,1.3c-0.6,0.2-1.2,0.1-1.8,0c-0.1,0.4,0.3,0.7,0.6,0.7c0.1,0.6-0.6,1.2-1.2,1   c-0.2-0.1-0.3-0.2-0.5-0.2c-0.4,0-0.5,0.5-0.5,0.8C148.2,110.7,148.2,111.1,147.9,111.3z" fill="#D82329"/><path d="M149.2,124c-0.3-0.2-0.6-0.6-0.9-0.7c-0.5-0.2-1.2,0-1.6-0.3c-0.4-0.4-0.2-1.1-0.6-1.5   c-0.3-0.3-0.7-0.4-1-0.8c-0.1-0.2-0.1-0.5-0.3-0.8c-0.1-0.2-0.3-0.3-0.4-0.4c-0.9-0.6-1.8-1.2-2.7-1.8c-0.4-0.3-0.9-0.6-1.1-1.1   c-0.1-0.1-0.1-0.3,0-0.4c0.1-0.1,0.2-0.2,0.4-0.2c3.1-0.6,6.4-1.2,9-3c1.1-0.7,2.1-1.6,3.4-2c0.1,0,0.3-0.1,0.5,0   c0.2,0.1,0.3,0.3,0.4,0.6c0.4,1,0.5,2.1,0.5,3.2c-0.1,2.6-1.2,4.9-2.4,7.2c-0.3,0.6-0.7,1.3-1.2,1.8   C150.7,124.2,149.8,124.4,149.2,124z" fill="#D82329"/><path d="M136.1,129c-1-0.2-2-0.5-2.9-0.9c-1.9-0.9-3.5-2.5-4.7-4.2c-0.6-0.8-1.1-2-0.4-2.8c0.5-0.5,1.3-0.5,2-0.8   c0.5-0.3,0.9-0.7,1.3-1.1c0.8-0.7,1.9-1.1,2.9-1.5c1-0.3,2-0.7,3-1c0.8-0.3,1.7-0.5,2.3,0.1c0.3,0.3,0.3,0.8,0.4,1.2   c0.1,1.2,0.3,2.4,0.4,3.7c0.1,1.3,0.4,2.8,1.6,3.3c-0.9,0.8-0.4,2.2-0.5,3.5c0,0.2-0.1,0.4-0.2,0.6c-0.1,0.1-0.3,0.2-0.4,0.2   C139.3,129.7,137.7,129.3,136.1,129z" fill="#D82329"/><path d="M130.7,102.8c0.9-0.8,1.9-1.5,3.1-1.9c0.7-0.2,1.6-0.3,2.2,0.1c0.5,0.4,0.8,1,1,1.7   c1.3,4.1,1.9,8.5,1.8,12.8c-2.6,0.4-5.3,0.7-7.9,1.1c-1.3,0.2-2.6,0.3-3.8,0c-1.2-0.3-2.4-1.4-2.5-2.6c0-0.5,0.1-1,0.2-1.4   c0.2-1,0.5-2,0.9-2.9C126.6,106.8,128.5,104.6,130.7,102.8z" fill="#D82329"/><circle cx="145.3" cy="103.1" fill="#DD6C26" r="1.2"/><circle cx="144.1" cy="107.7" fill="#DD6C26" r="0.9"/><circle cx="148.7" cy="105.3" fill="#DD6C26" r="0.4"/><circle cx="151.7" cy="115.7" fill="#DD6C26" r="1"/><circle cx="149.1" cy="118.8" fill="#DD6C26" r="0.7"/><circle cx="145.1" cy="117.4" fill="#DD6C26" r="0.7"/><circle cx="136.7" cy="118.5" fill="#DD6C26" r="0.5"/><circle cx="132.7" cy="122.6" fill="#DD6C26" r="1"/><circle cx="136.7" cy="124.8" fill="#DD6C26" r="1.1"/><circle cx="128.9" cy="112" fill="#DD6C26" r="0.9"/><circle cx="130.3" cy="108.3" fill="#DD6C26" r="0.5"/><circle cx="134" cy="112.5" fill="#DD6C26" r="0.9"/><circle cx="134.4" cy="105.5" fill="#DD6C26" r="1.3"/><circle cx="98.9" cy="137.5" fill="#F04F2D" r="12.5"/><path d="M104.7,135.4c-0.4,0.3-0.8-0.5-1.3-0.4c-0.2,0.2-0.2,0.6-0.2,0.9c0,0.3-0.3,0.7-0.6,0.6   c-0.1,0-0.2-0.1-0.3-0.2c-0.3-0.2-0.8-0.1-1.2,0.2c-0.3,0.3-0.6,0.6-1,0.8c-0.4,0.2-0.9,0.2-1.1-0.1c-0.2-0.2-0.1-0.6-0.1-0.8   c0.4-2.2,0.7-4.4,1.1-6.6c0.1-0.6,0.2-1.2,0.5-1.7c0.3-0.5,0.8-1,1.4-1.1c0.8-0.1,1.5,0.4,2.1,0.8c1.2,0.9,2.3,1.8,3.4,2.8   c0.5,0.4,1,0.9,0.9,1.6c-0.1,0.4-0.5,0.8-0.9,0.9c-0.4,0.1-0.9,0.1-1.3,0c0,0.3,0.2,0.5,0.4,0.5c0.1,0.5-0.5,0.9-0.9,0.7   c-0.1-0.1-0.2-0.1-0.3-0.1c-0.3,0-0.4,0.3-0.3,0.6C104.9,134.9,105,135.3,104.7,135.4z" fill="#D82329"/><path d="M105.7,144.6c-0.2-0.2-0.4-0.4-0.7-0.5c-0.4-0.1-0.8,0-1.1-0.2c-0.3-0.3-0.2-0.8-0.4-1.1   c-0.2-0.2-0.5-0.3-0.7-0.6c-0.1-0.2-0.1-0.4-0.2-0.5c-0.1-0.1-0.2-0.2-0.3-0.3c-0.7-0.4-1.3-0.9-2-1.3c-0.3-0.2-0.7-0.5-0.8-0.8   c0-0.1-0.1-0.2,0-0.3c0.1-0.1,0.2-0.1,0.3-0.1c2.3-0.5,4.6-0.9,6.6-2.2c0.8-0.5,1.5-1.2,2.5-1.4c0.1,0,0.2-0.1,0.3,0   c0.2,0.1,0.3,0.2,0.3,0.4c0.3,0.7,0.4,1.5,0.3,2.3c-0.1,1.9-0.9,3.6-1.7,5.2c-0.2,0.5-0.5,1-0.9,1.3   C106.7,144.8,106.1,144.9,105.7,144.6z" fill="#D82329"/><path d="M96.2,148.2c-0.7-0.2-1.4-0.3-2.1-0.6c-1.4-0.6-2.5-1.8-3.4-3c-0.4-0.6-0.8-1.5-0.3-2   c0.4-0.4,1-0.4,1.4-0.6c0.4-0.2,0.6-0.5,1-0.8c0.6-0.5,1.4-0.8,2.1-1.1c0.7-0.2,1.4-0.5,2.1-0.7c0.5-0.2,1.2-0.3,1.6,0.1   c0.2,0.2,0.2,0.6,0.3,0.9c0.1,0.9,0.2,1.8,0.3,2.7c0.1,0.9,0.3,2,1.2,2.4c-0.7,0.6-0.3,1.6-0.4,2.5c0,0.1,0,0.3-0.1,0.4   c-0.1,0.1-0.2,0.1-0.3,0.2C98.5,148.7,97.3,148.5,96.2,148.2z" fill="#D82329"/><path d="M92.2,129.2c0.7-0.6,1.4-1.1,2.3-1.4c0.5-0.2,1.1-0.2,1.6,0.1c0.4,0.3,0.6,0.8,0.7,1.2   c0.9,3,1.4,6.2,1.3,9.3c-1.9,0.3-3.8,0.5-5.7,0.8c-0.9,0.1-1.9,0.2-2.8,0c-0.9-0.3-1.7-1-1.8-1.9c0-0.4,0.1-0.7,0.1-1   c0.2-0.7,0.4-1.4,0.6-2.1C89.3,132.2,90.7,130.5,92.2,129.2z" fill="#D82329"/><circle cx="102.8" cy="129.4" fill="#DD6C26" r="0.8"/><circle cx="102" cy="132.8" fill="#DD6C26" r="0.7"/><circle cx="105.3" cy="131" fill="#DD6C26" r="0.3"/><circle cx="107.5" cy="138.6" fill="#DD6C26" r="0.8"/><circle cx="105.6" cy="140.9" fill="#DD6C26" r="0.5"/><circle cx="102.7" cy="139.8" fill="#DD6C26" r="0.5"/><circle cx="96.6" cy="140.6" fill="#DD6C26" r="0.3"/><circle cx="93.7" cy="143.6" fill="#DD6C26" r="0.8"/><circle cx="96.6" cy="145.1" fill="#DD6C26" r="0.8"/><circle cx="90.9" cy="135.9" fill="#DD6C26" r="0.7"/><circle cx="92" cy="133.2" fill="#DD6C26" r="0.4"/><circle cx="94.6" cy="136.3" fill="#DD6C26" r="0.6"/><circle cx="94.9" cy="131.2" fill="#DD6C26" r="0.9"/><path d="M138.6,167.5c0.6-0.5,1.4-0.8,2.2-1.1c0.7-0.3,1.5-0.5,2.2-0.8c0.6-0.2,1.3-0.4,1.7,0.1   c0.2,0.2,0.3,0.6,0.3,0.9c0.1,0.6,0.1,1.2,0.2,1.9l4.3,0.6c-0.2-0.1-0.4-0.2-0.6-0.4c-0.1-0.2-0.1-0.4-0.2-0.6   c-0.1-0.1-0.2-0.2-0.3-0.3c-0.7-0.5-1.4-0.9-2.1-1.4c-0.3-0.2-0.7-0.5-0.8-0.8c0-0.1-0.1-0.2,0-0.3c0.1-0.1,0.2-0.1,0.3-0.1   c2.4-0.5,4.8-0.9,6.8-2.2c0.8-0.5,1.6-1.2,2.6-1.5c0.1,0,0.2-0.1,0.3,0c0.2,0.1,0.3,0.3,0.3,0.4c0.3,0.8,0.4,1.6,0.4,2.4   c-0.1,1.9-0.9,3.7-1.8,5.5c0,0,0,0.1-0.1,0.1l1.9,0.3c1-1.9,1.6-4,1.6-6.3c0-7.2-5.8-13-13-13c-7.2,0-13,5.8-13,13c0,1,0.1,2,0.4,3   L138.6,167.5C138.6,167.5,138.6,167.5,138.6,167.5z M145.1,162.5c0.4-2.3,0.8-4.6,1.2-6.9c0.1-0.6,0.2-1.3,0.5-1.8   c0.3-0.6,0.8-1,1.4-1.1c0.8-0.1,1.5,0.4,2.2,0.9c1.2,0.9,2.4,1.9,3.5,2.9c0.5,0.4,1,1,0.9,1.6c-0.1,0.5-0.5,0.8-0.9,1   c-0.4,0.1-0.9,0.1-1.4,0c0,0.3,0.2,0.5,0.5,0.5c0.1,0.5-0.5,0.9-0.9,0.7c-0.1-0.1-0.2-0.1-0.4-0.1c-0.3,0-0.4,0.4-0.3,0.6   c0,0.3,0.1,0.6-0.2,0.7c-0.4,0.3-0.9-0.5-1.4-0.4c-0.2,0.2-0.2,0.6-0.2,0.9c0,0.3-0.3,0.7-0.6,0.6c-0.1,0-0.2-0.2-0.3-0.2   c-0.4-0.2-0.9-0.1-1.2,0.2c-0.3,0.3-0.6,0.6-1,0.8c-0.4,0.2-0.9,0.2-1.2-0.1C145,163.1,145,162.8,145.1,162.5z M135.3,165.5   c-0.9-0.3-1.8-1-1.9-2c0-0.4,0.1-0.7,0.2-1.1c0.2-0.7,0.4-1.5,0.6-2.2c0.8-2,2.2-3.7,3.8-5.1c0.7-0.6,1.5-1.2,2.3-1.5   c0.5-0.2,1.2-0.3,1.7,0.1c0.4,0.3,0.6,0.8,0.7,1.3c1,3.1,1.4,6.4,1.3,9.7c-2,0.3-4,0.5-6,0.8C137.2,165.6,136.3,165.8,135.3,165.5z   " fill="#F04F2D"/><path d="M146.3,163.5c0.4-0.2,0.7-0.6,1-0.8c0.3-0.3,0.9-0.4,1.2-0.2c0.1,0.1,0.2,0.2,0.3,0.2   c0.3,0.1,0.6-0.3,0.6-0.6c0-0.3,0-0.7,0.2-0.9c0.5-0.1,0.9,0.7,1.4,0.4c0.2-0.1,0.2-0.5,0.2-0.7c0-0.3,0.1-0.6,0.3-0.6   c0.1,0,0.2,0.1,0.4,0.1c0.4,0.2,1-0.3,0.9-0.7c-0.3,0-0.5-0.3-0.5-0.5c0.5,0.1,0.9,0.1,1.4,0c0.4-0.1,0.8-0.5,0.9-1   c0.1-0.6-0.4-1.2-0.9-1.6c-1.1-1-2.3-2-3.5-2.9c-0.6-0.5-1.4-1-2.2-0.9c-0.6,0.1-1.1,0.6-1.4,1.1c-0.3,0.6-0.4,1.2-0.5,1.8   c-0.4,2.3-0.8,4.6-1.2,6.9c-0.1,0.3-0.1,0.6,0.1,0.9C145.4,163.8,146,163.8,146.3,163.5z M151.7,156.7c0.2,0,0.3,0.1,0.3,0.3   s-0.1,0.3-0.3,0.3c-0.2,0-0.3-0.1-0.3-0.3S151.6,156.7,151.7,156.7z M149.1,154.5c0.5,0,0.9,0.4,0.9,0.9c0,0.5-0.4,0.9-0.9,0.9   c-0.5,0-0.9-0.4-0.9-0.9C148.2,154.9,148.6,154.5,149.1,154.5z M148.2,158.2c0.4,0,0.7,0.3,0.7,0.7c0,0.4-0.3,0.7-0.7,0.7   c-0.4,0-0.7-0.3-0.7-0.7C147.5,158.5,147.9,158.2,148.2,158.2z" fill="#D82329"/><path d="M156.3,164.2c0-0.8-0.1-1.7-0.4-2.4c-0.1-0.2-0.1-0.4-0.3-0.4c-0.1,0-0.2,0-0.3,0c-1,0.3-1.7,1-2.6,1.5   c-2,1.3-4.5,1.8-6.8,2.2c-0.1,0-0.2,0.1-0.3,0.1c-0.1,0.1,0,0.2,0,0.3c0.2,0.4,0.5,0.6,0.8,0.8c0.7,0.5,1.4,0.9,2.1,1.4   c0.1,0.1,0.3,0.2,0.3,0.3c0.1,0.2,0.1,0.4,0.2,0.6c0.1,0.2,0.4,0.3,0.6,0.4l4.9,0.7c0,0,0-0.1,0.1-0.1   C155.4,167.9,156.2,166.1,156.3,164.2z M149,166.7c-0.3,0-0.5-0.2-0.5-0.5c0-0.3,0.2-0.5,0.5-0.5c0.3,0,0.5,0.2,0.5,0.5   C149.5,166.4,149.3,166.7,149,166.7z M152,167.8c-0.3,0-0.6-0.3-0.6-0.6c0-0.3,0.3-0.6,0.6-0.6c0.3,0,0.6,0.3,0.6,0.6   C152.6,167.6,152.3,167.8,152,167.8z M153.2,164.9c0-0.4,0.4-0.8,0.8-0.8s0.8,0.4,0.8,0.8c0,0.4-0.4,0.8-0.8,0.8   S153.2,165.3,153.2,164.9z" fill="#D82329"/><path d="M144.8,165.7c-0.4-0.5-1.1-0.3-1.7-0.1c-0.7,0.3-1.5,0.5-2.2,0.8c-0.8,0.3-1.6,0.6-2.2,1.1c0,0,0,0,0,0   l6.7,0.9c-0.1-0.6-0.1-1.2-0.2-1.9C145,166.3,145,166,144.8,165.7z M142.7,167.4c-0.2,0-0.4-0.2-0.4-0.4c0-0.2,0.2-0.4,0.4-0.4   s0.4,0.2,0.4,0.4C143,167.2,142.9,167.4,142.7,167.4z" fill="#D82329"/><path d="M144.2,164.7c0.1-3.3-0.4-6.6-1.3-9.7c-0.1-0.5-0.3-1-0.7-1.3c-0.5-0.3-1.1-0.3-1.7-0.1   c-0.9,0.3-1.6,0.9-2.3,1.5c-1.6,1.4-3.1,3.1-3.8,5.1c-0.3,0.7-0.5,1.5-0.6,2.2c-0.1,0.4-0.2,0.7-0.2,1.1c0.1,1,0.9,1.7,1.9,2   c0.9,0.3,1.9,0.1,2.9,0C140.2,165.3,142.2,165,144.2,164.7z M140.9,156.2c0.5,0,1,0.4,1,1c0,0.5-0.4,1-1,1s-1-0.4-1-1   C139.9,156.7,140.3,156.2,140.9,156.2z M140.6,161.8c0.4,0,0.7,0.3,0.7,0.7s-0.3,0.7-0.7,0.7c-0.4,0-0.7-0.3-0.7-0.7   S140.2,161.8,140.6,161.8z M136.7,162.8c-0.4,0-0.7-0.3-0.7-0.7c0-0.4,0.3-0.7,0.7-0.7c0.4,0,0.7,0.3,0.7,0.7   C137.4,162.5,137.1,162.8,136.7,162.8z M137.8,159.7c-0.2,0-0.4-0.2-0.4-0.4c0-0.2,0.2-0.4,0.4-0.4c0.2,0,0.4,0.2,0.4,0.4   C138.2,159.5,138,159.7,137.8,159.7z" fill="#D82329"/><circle cx="149.1" cy="155.4" fill="#DD6C26" r="0.9"/><circle cx="148.2" cy="158.9" fill="#DD6C26" r="0.7"/><circle cx="151.7" cy="157" fill="#DD6C26" r="0.3"/><circle cx="154" cy="164.9" fill="#DD6C26" r="0.8"/><circle cx="152" cy="167.3" fill="#DD6C26" r="0.6"/><circle cx="149" cy="166.2" fill="#DD6C26" r="0.5"/><circle cx="142.7" cy="167" fill="#DD6C26" r="0.4"/><circle cx="136.7" cy="162.1" fill="#DD6C26" r="0.7"/><circle cx="137.8" cy="159.3" fill="#DD6C26" r="0.4"/><circle cx="140.6" cy="162.5" fill="#DD6C26" r="0.7"/><circle cx="140.9" cy="157.2" fill="#DD6C26" r="1"/></g></svg>