<?xml version="1.0" ?><svg id="Layer_1" style="enable-background:new 0 0 128 128;" version="1.1" viewBox="0 0 128 128" xml:space="preserve" xmlns="http://www.w3.org/2000/svg" xmlns:xlink="http://www.w3.org/1999/xlink"><style type="text/css">
	.st0{fill:#83CF8F;}
	.st1{fill:#474F5A;}
	.st2{fill:#F4F4F4;}
	.st3{fill:#D4DDDD;}
	.st4{fill:#F0C041;}
	.st5{fill:#F4DA80;}
	.st6{fill:#01B0C1;}
	.st7{fill:#EFF2F4;}
	.st8{fill:#FFFFFF;}
	.st9{fill:#E77961;}
	.st10{fill:#FF876C;}
	.st11{fill:#00C4F1;}
	.st12{fill:#F7F7F7;}
	.st13{fill:#FCFCFC;}
	.st14{fill:#01C6DA;}
	.st15{fill:#EFEFEF;}
	.st16{fill:#C0E5B5;}
	.st17{fill:#FFFBEB;}
	.st18{fill:#284B37;}
	.st19{fill:#D19E2C;}
	.st20{fill:#FFF7E6;}
	.st21{fill:#30363D;}
	.st22{fill:#90E1F6;}
	.st23{fill:none;}
	.st24{fill:#F9F9F9;}
	.st25{fill:#DDBD62;}
	.st26{fill:#F2CF6B;}
	.st27{fill:#EDD897;}
	.st28{fill:#EEEFF8;}
	.st29{fill:#FFFDF8;}
	.st30{fill:#FFFBF5;}
	.st31{fill:#EDD9B9;}
	.st32{fill:#E9E8DD;}
</style><g><circle class="st6" cx="64" cy="64" r="63.5"/><polygon class="st7" points="64.4,41.7 66.8,45.4 68.8,39.4 66.5,35.7  "/><polygon class="st10" points="62.3,47.7 64.7,51.4 66.8,45.4 64.4,41.7  "/><polygon class="st7" points="60.3,53.7 62.6,57.4 64.7,51.4 62.3,47.7  "/><polygon class="st10" points="58.9,57.6 62.2,58.7 62.6,57.4 60.3,53.7  "/><polygon class="st7" points="76.4,17.2 73.2,16.1 72.6,17.8 75,21.5  "/><polygon class="st7" points="70.6,23.7 68.5,29.7 70.9,33.4 72.9,27.5  "/><polygon class="st10" points="75,21.5 72.6,17.8 70.6,23.7 72.9,27.5  "/><polygon class="st10" points="66.5,35.7 68.8,39.4 70.9,33.4 68.5,29.7  "/><path class="st28" d="M84.6,43.7H43.4c-1.6,0-2.9,1.3-2.9,2.9c0,1.6,1.3,2.9,2.9,2.9h41.2c1.6,0,2.9-1.3,2.9-2.9   C87.5,45,86.2,43.7,84.6,43.7z"/><polygon class="st10" points="85.1,49.6 43.6,49.6 50.7,108.7 78.1,108.7  "/><path class="st28" d="M50.7,108.7c0.2,1.8,1.8,3.2,3.6,3.2h20.2c1.8,0,3.4-1.4,3.6-3.2H50.7z"/></g></svg>