<?xml version="1.0" ?><!DOCTYPE svg  PUBLIC '-//W3C//DTD SVG 1.1//EN'  'http://www.w3.org/Graphics/SVG/1.1/DTD/svg11.dtd'><svg enable-background="new 0 0 512 512" height="512px" id="Layer_1" version="1.1" viewBox="0 0 512 512" width="512px" xml:space="preserve" xmlns="http://www.w3.org/2000/svg" xmlns:xlink="http://www.w3.org/1999/xlink"><g><g><path d="M512,256c0,29.627-5.017,58.06-14.3,84.514c-29.15,83.46-100.32,147.187-188.177,165.853     C292.287,510.053,274.367,512,256,512C114.62,512,0,397.38,0,256S114.62,0,256,0C397.38,0,512,114.62,512,256z" fill="#26B999"/><path d="M497.7,340.514c-29.15,83.46-100.32,147.187-188.177,165.853c-0.01-0.006-81.546-81.78-81.546-81.78     c-4.88-3.787-8.293-9.487-9.147-16.147c0,0-16.286-126.233-23.96-185.887c-0.006-0.006-5.053-5.12-5.053-5.12     c-1.537-1.947-2.254-4.407-1.98-6.86c0.477-4.34,0.924-8.64,1.4-12.94c0-2.42,13.756-4.54,34.816-5.874     c-1.66-4.273-11.71-30.146-19.526-50.173l-0.034-0.1l-48.503-47.28l0.41-2.9l1.23-8.807c4.923,2.106,33.967,14.427,39.013,16.553     l0.033-0.033c1.744,0.58,3.21,1.507,4.267,2.94c2.767,2.76,88.473,88.507,88.473,88.507c0.037,0.033,0.07,0.1,0.104,0.133     c18.604,0.38,34.85,1.267,46.457,2.493c11.603,1.227,18.567,2.8,18.567,4.54C354.773,199.76,497.38,339.967,497.7,340.514z" opacity="0.2"/><g><g><path d="M351.8,215.56l-6.233,48.313l-1.16,9.1l-11.2,86.953l-1.327,10.327l-4.473,34.707l-0.453,3.493       c-1.554,12.054-11.554,21.061-23.38,21.061H242.2c-11.833,0-21.82-9.007-23.38-21.061l-0.413-3.233l-1.993-15.454l-2.021-15.68       l-6.453-50.113l-1.733-13.46l-11.4-88.561l-0.827-6.393H351.8z" fill="#C9280A"/><path d="M344.407,272.974l1.16-9.1c-52.374-26.94-85.507,84.16-139.36,46.64l1.733,13.46       c6.6,3.96,12.913,5.82,18.993,6.093c-4.613,4.846-7.354,10.88-7.354,17.426c0,15.92,16.181,28.827,36.187,28.927       c-14.96,7.16-29.287,10.04-41.374-2.333l2.021,15.68c34.347,21.66,82.426-50.173,115.466-19.513l1.327-10.327       c-12.5-13.38-27.453-10.066-43.047-2.407c1.454-3.12,2.254-6.5,2.254-10.027c0-15.307-14.967-27.826-33.907-28.853       C286.513,298.92,312.08,261.7,344.407,272.974z" fill="#FFFFFF"/><radialGradient cx="1099.2954" cy="236.5503" gradientTransform="matrix(0.9185 0 0 0.9438 -736.8433 99.2838)" gradientUnits="userSpaceOnUse" id="SVGID_1_" r="100.5689"><stop offset="0.5744" style="stop-color:#130C0E"/><stop offset="0.7977" style="stop-color:#130C0E"/><stop offset="1" style="stop-color:#130C0E"/></radialGradient><path d="M351.8,215.56l-24.846,192.893c-1.554,12.054-11.554,21.061-23.38,21.061h-3.48       L295.8,232.347l-100.993-10.394l-0.827-6.393H351.8z" fill="url(#SVGID_1_)" opacity="0.2"/><g><path d="M327.407,404.96l-0.453,3.493c-1.554,12.054-11.554,21.061-23.38,21.061H242.2        c-11.833,0-21.82-9.007-23.38-21.061l-0.413-3.233C254.62,409.587,291.207,409.507,327.407,404.96z" fill="#FFFFFF"/><radialGradient cx="1141.2104" cy="336.8906" gradientTransform="matrix(0.9185 0 0 0.9438 -736.8433 99.2838)" gradientUnits="userSpaceOnUse" id="SVGID_2_" r="15.3829"><stop offset="0.5744" style="stop-color:#130C0E"/><stop offset="0.7977" style="stop-color:#130C0E"/><stop offset="1" style="stop-color:#130C0E"/></radialGradient><path d="M299.747,407.56l-0.253,3.4c-0.513,6.894-1.973,13.2-4.12,18.554h8.2        c11.827,0,21.827-9.007,23.38-21.061l0.453-3.493C318.207,406.12,308.987,406.98,299.747,407.56z" fill="url(#SVGID_2_)" opacity="0.2"/></g></g><g><g><path d="M353.987,217.42c-1.527,1.92-3.733,3.147-6.134,3.38c-43.439,4.4-87.153,5.014-130.68,1.84        c-2.66-0.187-5.327-0.394-7.987-0.62c-2.08-0.173-4.167-0.353-6.24-0.54c-1.753-0.16-3.5-0.333-5.253-0.5        c-0.586-0.06-1.187-0.12-1.767-0.18c-2.406-0.233-4.606-1.46-6.12-3.38c-1.52-1.927-2.227-4.393-1.967-6.86        c0.467-4.313,0.927-8.62,1.393-12.933c6.667,0.753,13.347,1.413,20.021,1.993c2.693,0.233,5.387,0.44,8.086,0.64        c45.7,3.42,91.633,2.54,137.213-2.633c0.46,4.313,0.927,8.62,1.387,12.933C356.207,213.027,355.5,215.493,353.987,217.42z" fill="#E6E6E6"/><path d="M209.253,199.62c-0.44,5.08-0.88,10.153-1.32,15.233c-0.22,2.513,0.22,5.02,1.253,7.167        c2.66,0.227,5.327,0.433,7.987,0.62c-0.693-2.48-0.974-5.247-0.787-8c0.307-4.787,0.62-9.587,0.954-14.38L209.253,199.62z" fill="#FFFFFF" opacity="0.6"/><path d="M202.947,221.48c-1.753-0.16-3.5-0.333-5.253-0.5c-0.46-1.9-0.647-4.013-0.527-6.126        c0.287-5.08,0.573-10.153,0.86-15.233l5.206,0.64c-0.213,4.793-0.413,9.594-0.62,14.38        C202.52,216.967,202.633,219.307,202.947,221.48z" fill="#FFFFFF" opacity="0.6"/><radialGradient cx="1168.8462" cy="117.7451" gradientTransform="matrix(0.9185 0 0 0.9438 -736.8433 99.2838)" gradientUnits="userSpaceOnUse" id="SVGID_3_" r="17.626"><stop offset="0.5744" style="stop-color:#130C0E"/><stop offset="0.7977" style="stop-color:#130C0E"/><stop offset="1" style="stop-color:#130C0E"/></radialGradient><path d="M355.94,210.56c-0.46-4.307-0.927-8.62-1.394-12.933        c-12.307,1.393-24.646,2.46-36.993,3.233c0.434,5.68,0.867,11.36,1.3,17.047c0.134,1.793,0.007,3.593-0.353,5.287        c9.793-0.606,19.58-1.4,29.353-2.387c2.4-0.247,4.607-1.467,6.127-3.387C355.5,215.493,356.207,213.027,355.94,210.56z" fill="url(#SVGID_3_)" opacity="0.2"/><path d="M354.546,197.627c0,3.96-37,7.167-82.653,7.167s-82.66-3.207-82.66-7.167s37.007-7.174,82.66-7.174        S354.546,193.667,354.546,197.627z" fill="#FFFFFF"/></g><g><path d="M241.04,198.947c-5.54,0-11.08,0-16.62,0c-0.88,0-0.88-1.46,0-1.46c5.54,0,11.08,0,16.62,0        C241.92,197.487,241.92,198.947,241.04,198.947z"/><g><path d="M202.34,105.087l-7.773,3.193l-2.58,1.06l-0.267-0.066l0.433-0.894l4.54-9.373         C199.46,99.98,201.62,101.567,202.34,105.087z" fill="#C9280A"/><path d="M194.567,108.28l-2.601,1.187l1.38-2.5C193.813,107.087,194.5,107.833,194.567,108.28z         " fill="#FFFFFF" opacity="0.3"/><path d="M199.133,106.4l3.213-1.313c-0.727-3.52-2.893-5.107-5.653-6.074l-1.56,3.22         C196.926,103.067,198.353,104.307,199.133,106.4z" opacity="0.2"/><g><polygon fill="#C9280A" points="238.807,198.827 202.347,105.087 191.987,109.34 226.793,198.827         "/><g><polygon fill="#E7E5E3" points="193.813,114.033 192.593,110.907 204.573,110.827 205.793,113.953          "/><polygon fill="#E7E5E3" points="197.38,123.22 196.167,120.087 208.146,120.007 209.367,123.14          "/><polygon fill="#E7E5E3" points="200.96,132.4 199.74,129.273 211.72,129.187 212.94,132.32          "/><polygon fill="#E7E5E3" points="204.527,141.587 203.313,138.453 215.293,138.374 216.513,141.507          "/><polygon fill="#E7E5E3" points="208.1,150.767 206.886,147.64 218.867,147.56 220.08,150.687          "/><polygon fill="#E7E5E3" points="211.673,159.953 210.46,156.82 222.433,156.74 223.653,159.874          "/><polygon fill="#E7E5E3" points="215.247,169.133 214.027,166.007 226.013,165.927 227.227,169.053          "/><polygon fill="#E7E5E3" points="218.82,178.32 217.6,175.187 229.58,175.106 230.8,178.24          "/><polygon fill="#E7E5E3" points="222.393,187.5 221.173,184.374 233.153,184.293 234.374,187.42          "/><polygon fill="#E7E5E3" points="225.966,196.687 224.747,193.553 236.727,193.474 237.947,196.606          "/></g><polygon opacity="0.2" points="238.807,198.827 202.347,105.087 199.12,106.407 235.067,198.827         "/><polygon fill="#FFFFFF" opacity="0.3" points="229.787,198.827 194.56,108.28 191.987,109.34 226.793,198.827         "/></g><g><polygon fill="#C9280A" points="157.626,82.513 155.993,94.227 192.393,109.646 196.646,99.053         "/><g><polygon fill="#E7E5E3" points="159.233,95.6 156.2,94.313 164.5,85.427 167.533,86.713          "/><polygon fill="#E7E5E3" points="168.133,99.367 165.1,98.08 173.393,89.2 176.426,90.48          "/><polygon fill="#E7E5E3" points="177.027,103.14 174,101.854 182.293,92.967 185.32,94.253          "/><polygon fill="#E7E5E3" points="185.926,106.907 182.893,105.62 191.187,96.74 194.22,98.02          "/></g><polygon opacity="0.2" points="157.626,82.513 157.12,86.16 195.327,102.354 196.646,99.053         "/><polygon fill="#FFFFFF" opacity="0.3" points="156.4,91.307 155.993,94.227 192.393,109.646 193.454,107.007         "/></g></g><path d="M241.693,199.62c-5.973,0-11.954,0-17.933,0c-0.947,0-0.947-1.46,0-1.46c5.979,0,11.96,0,17.933,0        C242.64,198.16,242.64,199.62,241.693,199.62z" fill="#CCCCCC"/></g></g></g></g></g></svg>