<?xml version="1.0" ?><!DOCTYPE svg  PUBLIC '-//W3C//DTD SVG 1.0//EN'  'http://www.w3.org/TR/2001/REC-SVG-20010904/DTD/svg10.dtd'><svg height="383px" style="shape-rendering:geometricPrecision; text-rendering:geometricPrecision; image-rendering:optimizeQuality; fill-rule:evenodd; clip-rule:evenodd" version="1.0" viewBox="0 0 279378 279379" width="383px" xml:space="preserve" xmlns="http://www.w3.org/2000/svg" xmlns:xlink="http://www.w3.org/1999/xlink"><defs><style type="text/css">
   <![CDATA[
    .fil4 {fill:#663333}
    .fil3 {fill:#8CBA04}
    .fil5 {fill:#99CC01}
    .fil9 {fill:#CCCCCC}
    .fil6 {fill:#E3622B}
    .fil10 {fill:#E6E6E6}
    .fil7 {fill:#ED2323}
    .fil2 {fill:#F5AD1E}
    .fil0 {fill:#FC4344}
    .fil8 {fill:#FF7878}
    .fil1 {fill:#FFBB34}
   ]]>
  </style></defs><g id="Layer_x0020_1"><circle class="fil0" cx="139689" cy="139690" r="139689"/><g id="_6414264"><path class="fil1" d="M93030 89893c0,0 54518,-25224 93638,-2609 39120,22614 42450,109591 39953,120898 -2497,11307 -18453,17913 -26102,19426 -7650,1513 -107488,-137714 -107488,-137714z"/><path class="fil2" d="M58490 102940c0,0 7075,-20875 38496,-24571 31421,-3696 50356,13047 58680,25658 8323,12612 23929,65232 26842,90239 2914,25006 17063,30659 19768,31746 2706,1088 -6346,3153 -10924,1740 -4578,-1413 -14254,-3261 -35271,-21309 -21016,-18048 -96759,-90892 -97800,-95675 -1040,-4783 209,-7828 209,-7828z"/><path class="fil1" d="M60572 107007c12213,16106 79958,79479 101939,98353 18483,16829 30081,18928 30679,19284 -6682,-6355 -12631,-19837 -13455,-26907 -1663,-14269 -5671,-29813 -9525,-43653 -2902,-10417 -6109,-20845 -9787,-31014 -2018,-5576 -4997,-13911 -8253,-18845 -12294,-18628 -33280,-26422 -55077,-23858 -10093,1187 -20287,4545 -27787,11656 -2904,2755 -9192,10673 -8733,14982z"/><path class="fil3" d="M106861 69451c0,0 14566,-17830 24138,-13699 9572,4132 4162,12177 12693,12177 8531,0 10612,-10656 22472,-6958 11862,3696 3746,16743 10612,18047 6867,1304 7907,-5001 12069,-5436 4162,-435 6202,2423 2705,8481 -3497,6057 -2705,18265 7283,18917 9987,652 13794,5478 10226,11763 -3568,6284 -5649,14330 1010,19114 6658,4783 21640,14134 18103,19896 -3538,5763 -10093,5219 -7595,12286 2496,7067 7179,4675 9468,7719 2289,3044 -2185,4240 -624,5327 1560,1087 4577,1196 5306,2392 728,1196 5202,6957 -3641,9784 -8844,2827 6451,7828 832,10437 -5618,2609 -9572,434 -14670,5436 -5098,5001 -2081,15982 -13525,8154 -3153,-2157 -11926,-14052 -22975,-30141 -5126,-27009 -17852,-68164 -25083,-79121 -6864,-10401 -20949,-23610 -43300,-25848 -3472,-5491 -5505,-8728 -5505,-8728z"/><path class="fil4" d="M115888 65663c1771,-2215 4936,-4303 10424,-3280 3148,586 5947,1687 8651,2915 -4821,3035 -8887,8967 -12909,8829 -2931,-100 -4730,-4142 -6166,-8464zm32268 4906c2230,482 4627,703 7288,512 12068,-870 16438,10654 22473,17178 6034,6523 20392,12612 18103,25223 -2290,12612 -3121,13917 5410,22179 8532,8263 5826,10655 9156,15873 3329,5219 8948,21745 4578,30986 -4370,9242 832,12286 1248,16309 335,3245 -2240,13843 -8218,16168 -1817,-7786 -11474,-12798 -16641,-18557 -6243,-6958 -3121,-13265 2497,-21092 5618,-7828 -6659,-11307 -7907,-15004 -1248,-3696 -2081,-2392 2081,-19135 4162,-16743 -9780,-20331 -13630,-23375 -3850,-3045 7699,-5110 3850,-17396 -6392,-20397 -27562,-522 -33541,-17318 -951,-2673 3622,-7803 3252,-12551z"/><path class="fil5" d="M59930 99896c-2683,-3769 -9240,-14181 -4358,-19898 6034,-7067 4682,109 12588,-3153 7907,-3261 5409,-12502 11548,-17069 6139,-4566 6139,-4566 6139,-4566 0,0 2289,2066 936,6306 -1353,4240 3538,10437 9364,8807 5826,-1631 11444,-15112 14982,-15112 3538,0 4578,18700 10925,18917 6346,218 12797,-14677 22161,-9458 9364,5219 -1873,16091 6138,20548 8012,4458 24242,2935 28092,15221 3850,12286 -7700,14351 -3850,17396 3850,3044 17791,6632 13630,23375 -4162,16743 -3329,15439 -2081,19135 1248,3696 13525,7176 7907,15004 -5619,7827 -8740,14134 -2497,21092 6243,6957 19040,12825 16647,23809 -2187,10035 -5563,5909 -5925,5764 -2705,-1087 -16854,-6740 -19768,-31746 -2913,-25007 -18519,-77628 -26842,-90239 -8324,-12612 -27259,-29239 -58680,-25543 -23933,2815 -33739,15480 -37055,21412z"/><g><path class="fil3" d="M202324 193965c198,112 402,211 608,298 -1152,-2555 -943,-6022 816,-9139 2468,-4375 7107,-6494 10654,-4995 -559,-1240 -1439,-2265 -2617,-2930 -3608,-2035 -8650,68 -11262,4698 -2612,4630 -1805,10033 1802,12068z"/><path class="fil5" d="M201673 193175c198,112 401,210 608,297 -1153,-2554 -943,-6021 815,-9138 2469,-4376 7107,-6494 10654,-4995 -559,-1240 -1438,-2265 -2617,-2930 -3608,-2035 -8650,68 -11262,4698 -2613,4630 -1806,10033 1802,12068z"/></g><g><path class="fil6" d="M189755 155035c39,11118 13449,10413 15311,3674 1101,-3988 -344,-6885 -2044,-8202 -5035,-3903 -13286,-924 -13267,4528z"/><path class="fil7" d="M189761 154450c38,11118 13449,10412 15311,3673 1101,-3987 -344,-6884 -2044,-8202 -5035,-3902 -13286,-924 -13267,4529z"/><path class="fil8" d="M199419 150635c-410,137 -631,581 -493,990 137,410 581,633 991,495 410,-137 631,-583 493,-992 -138,-410 -581,-631 -991,-493zm-7594 2047c-630,211 -969,892 -758,1522 211,630 892,969 1522,758 629,-211 969,-892 758,-1522 -211,-630 -893,-969 -1522,-758zm2974 -2608c-761,255 -1170,1079 -915,1840 255,761 1078,1172 1840,916 761,-255 1171,-1078 915,-1840 -255,-760 -1078,-1171 -1840,-915zm909 3648c-372,124 -573,528 -448,899 125,372 528,572 900,447 372,-125 572,-528 447,-899 -124,-372 -528,-572 -899,-447zm-2844 3319c-372,124 -573,528 -448,899 124,372 528,572 900,447 372,-125 572,-528 447,-899 -125,-372 -528,-572 -899,-447zm2640 2034c-305,102 -469,433 -366,738 103,304 433,470 737,367 306,-103 470,-434 368,-738 -103,-305 -433,-470 -739,-367zm3210 782c-507,170 -778,717 -609,1224 170,506 717,780 1224,610 507,-170 779,-720 609,-1225 -170,-507 -718,-780 -1225,-609zm2744 -1396c-253,85 -390,359 -304,611 84,253 358,390 611,305 252,-85 388,-359 303,-612 -85,-253 -359,-389 -610,-304zm-3130 -3829c-902,303 -1387,1278 -1085,2178 303,901 1278,1386 2180,1084 901,-303 1386,-1278 1084,-2178 -303,-901 -1278,-1386 -2179,-1084zm4542 -1466c-501,167 -771,710 -603,1211 168,500 711,770 1211,602 501,-168 772,-710 603,-1210 -168,-501 -711,-771 -1211,-603z"/></g><g><path class="fil6" d="M163792 85528c17,4894 5921,4583 6740,1617 484,-1755 -152,-3031 -900,-3610 -2216,-1718 -5848,-407 -5840,1993z"/><path class="fil7" d="M163794 85270c17,4894 5921,4583 6740,1617 484,-1755 -152,-3031 -900,-3611 -2216,-1718 -5848,-407 -5840,1994z"/><path class="fil8" d="M168046 83591c-180,60 -278,255 -217,436 60,180 256,278 436,217 181,-60 278,-256 217,-437 -60,-180 -256,-277 -436,-216zm-3343 901c-277,93 -427,393 -334,671 93,277 393,426 671,333 277,-92 427,-392 334,-670 -93,-278 -393,-427 -671,-334zm1309 -1147c-335,112 -515,475 -403,809 112,335 474,516 809,403 335,-112 515,-475 403,-810 -113,-334 -475,-515 -810,-403zm400 1605c-163,55 -252,233 -197,397 54,164 232,252 396,197 164,-55 252,-232 197,-396 -55,-164 -233,-252 -397,-197zm-1252 1461c-164,55 -252,233 -197,397 55,163 233,251 397,197 164,-55 252,-232 197,-396 -54,-164 -232,-253 -396,-197zm1163 896c-134,45 -207,191 -162,325 46,134 191,207 325,162 134,-46 207,-191 162,-325 -46,-134 -191,-207 -325,-162zm1413 344c-223,75 -343,316 -268,540 75,222 316,343 539,268 223,-75 343,-316 268,-540 -74,-222 -316,-343 -539,-268zm1208 -615c-111,38 -172,158 -134,270 38,111 158,171 270,134 110,-37 171,-158 134,-269 -38,-111 -158,-172 -269,-134zm-1378 -1685c-397,133 -611,563 -478,959 133,397 562,610 959,478 397,-134 610,-563 477,-959 -133,-397 -562,-609 -959,-477zm1999 -646c-221,74 -340,313 -266,534 74,220 313,339 533,265 221,-74 340,-313 266,-533 -74,-221 -313,-340 -534,-266z"/></g><g><path class="fil9" d="M192823 136574c1175,373 2987,1431 3752,1122 1109,-447 2104,3855 133,4399 -1972,544 -3494,-2442 -5237,-2940 -1012,-290 -481,-3164 1352,-2580z"/><path class="fil10" d="M196956 138786c0,0 -721,-1074 -629,-1989 91,-915 1155,-2370 2414,-1212 3994,3671 -260,10216 -3884,9469 -1200,-247 -1484,-2046 -665,-2707 818,-659 1511,-568 2252,-1177 741,-608 514,-2384 514,-2384z"/></g><g><path class="fil9" d="M152586 80010c898,-715 2656,-1567 2815,-2320 229,-1090 4073,372 3471,2180 -603,1807 -3701,1434 -4991,2524 -748,632 -2696,-1270 -1294,-2384z"/><path class="fil10" d="M156441 77962c0,0 -1204,0 -1865,-545 -659,-546 -1233,-2122 316,-2496 4912,-1184 7765,5501 5307,7917 -814,799 -2352,85 -2438,-890 -86,-975 344,-1463 258,-2352 -85,-889 -1578,-1634 -1578,-1634z"/></g><g><path class="fil3" d="M182314 111836c59,100 122,197 191,288 155,-1422 1146,-2894 2727,-3810 2220,-1285 4810,-1015 5982,563 76,-690 -46,-1370 -392,-1968 -1060,-1830 -3824,-2211 -6173,-851 -2350,1360 -3395,3947 -2335,5778z"/><path class="fil5" d="M182232 111320c59,100 122,197 191,288 155,-1422 1146,-2894 2727,-3810 2220,-1285 4810,-1015 5982,563 76,-690 -46,-1370 -392,-1968 -1060,-1830 -3824,-2211 -6174,-851 -2349,1360 -3394,3947 -2334,5778z"/></g><g><path class="fil6" d="M183410 117413c24,7130 8625,6678 9819,2356 706,-2557 -221,-4415 -1310,-5260 -3230,-2503 -8520,-593 -8508,2904z"/><path class="fil7" d="M183413 117037c25,7131 8625,6678 9819,2356 706,-2557 -220,-4415 -1310,-5260 -3229,-2502 -8520,-592 -8508,2904z"/><path class="fil8" d="M189607 114591c-263,88 -404,372 -316,635 88,263 372,406 635,317 264,-88 405,-373 316,-636 -88,-263 -372,-404 -635,-316zm-4870 1313c-403,135 -622,572 -485,977 135,403 572,621 976,485 404,-135 622,-572 486,-976 -135,-404 -572,-622 -977,-486zm1908 -1672c-489,164 -750,692 -587,1180 164,488 691,752 1180,588 488,-164 751,-692 587,-1180 -164,-488 -692,-752 -1180,-588zm583 2340c-238,80 -367,339 -287,577 80,239 339,367 577,287 239,-80 367,-338 288,-577 -80,-239 -339,-367 -578,-287zm-1823 2128c-239,80 -368,339 -288,577 80,239 339,367 578,287 238,-80 367,-338 287,-577 -80,-239 -339,-367 -577,-287zm1693 1305c-196,66 -300,278 -234,473 66,195 277,301 472,235 197,-66 302,-278 236,-473 -66,-196 -278,-302 -474,-235zm2059 501c-326,109 -500,460 -390,785 109,324 459,501 784,391 326,-109 500,-461 391,-785 -109,-325 -460,-500 -785,-391zm1759 -895c-163,54 -250,229 -196,392 54,162 230,249 392,195 162,-54 249,-229 195,-392 -55,-162 -230,-249 -391,-195zm-2008 -2456c-578,194 -890,819 -696,1396 194,578 820,890 1397,696 578,-194 890,-820 696,-1397 -193,-578 -819,-889 -1397,-695zm2913 -940c-321,108 -494,456 -386,777 107,321 455,493 776,386 322,-108 495,-456 387,-777 -108,-321 -455,-494 -777,-386z"/></g></g></g></svg>