<?xml version="1.0" ?><!DOCTYPE svg  PUBLIC '-//W3C//DTD SVG 1.1//EN'  'http://www.w3.org/Graphics/SVG/1.1/DTD/svg11.dtd'><svg height="43.3492mm" style="shape-rendering:geometricPrecision; text-rendering:geometricPrecision; image-rendering:optimizeQuality; fill-rule:evenodd; clip-rule:evenodd" version="1.1" viewBox="0 0 4335 4335" width="43.3492mm" xml:space="preserve" xmlns="http://www.w3.org/2000/svg" xmlns:xlink="http://www.w3.org/1999/xlink"><defs><style type="text/css">
   <![CDATA[
    .fil0 {fill:#336699}
    .fil5 {fill:#366A9E}
    .fil6 {fill:#457CB3}
    .fil3 {fill:#88A8E8}
    .fil1 {fill:#99FFFF}
    .fil4 {fill:#AECEFF}
    .fil2 {fill:#BFFFFF}
   ]]>
  </style></defs><g id="Layer_x0020_1"><g id="_415924880"><path class="fil0" d="M2174 62c1165,0 2110,945 2110,2110 0,1165 -945,2110 -2110,2110 -1165,0 -2110,-945 -2110,-2110 0,-1165 945,-2110 2110,-2110z"/><path class="fil1" d="M2601 1692l0 1175 0 453c0,62 -51,113 -113,113l-628 0c-62,0 -113,-51 -113,-113l0 -453 0 -1175 0 -26c0,-195 133,-361 313,-412l0 -132 -52 0 0 -212 335 0 0 212 -52 0 0 132c180,50 313,216 313,412l0 26 -1 0zm-791 656l727 0 0 969c0,32 -26,58 -58,58l-611 0c-32,0 -58,-26 -58,-58l0 -969z"/><path class="fil2" d="M1747 1653c5,-190 137,-350 313,-399l0 -132 -52 0 0 -212 335 0 0 212 -52 0 0 132c176,49 307,209 313,399l-432 120 -423 -120z"/><polygon class="fil3" points="2007,1122 2342,1122 2342,1083 2007,1083 "/><polygon class="fil3" points="2007,949 2342,949 2342,910 2007,910 "/><polygon class="fil4" points="2007,1083 2342,1083 2342,949 2007,949 "/><path class="fil2" d="M2602 1653c0,0 -142,120 -432,120 -291,0 -423,-108 -423,-108 0,0 467,-229 855,-12z"/><path class="fil5" d="M2537 2347c0,0 -124,-64 -241,-64 -117,0 -95,22 -246,22 -152,0 -240,-44 -240,-44l0 1055c0,0 9,58 85,58 76,0 584,0 584,0 0,0 58,12 58,-83 0,-95 0,-944 0,-944z"/><path class="fil0" d="M1809 2584c196,-156 285,3 456,3 152,0 272,-88 272,-88l0 819c0,0 -9,58 -85,58 -76,0 -584,0 -584,0 0,0 -58,12 -58,-83 0,-95 0,-708 0,-708z"/><path class="fil6" d="M2537 2755c-383,-86 -348,31 -519,31 -152,0 -208,-117 -208,-117l0 647c0,0 9,58 85,58 76,0 584,0 584,0 0,0 58,12 58,-83 0,-95 0,-536 0,-536z"/></g></g></svg>