<?xml version="1.0" ?><!DOCTYPE svg  PUBLIC '-//W3C//DTD SVG 1.1//EN'  'http://www.w3.org/Graphics/SVG/1.1/DTD/svg11.dtd'><svg enable-background="new 0 0 512 512" height="512px" id="Layer_1" version="1.1" viewBox="0 0 512 512" width="512px" xml:space="preserve" xmlns="http://www.w3.org/2000/svg" xmlns:xlink="http://www.w3.org/1999/xlink"><g><g><g><path d="M256,7.9C119,7.9,7.9,119,7.9,256C7.9,393,119,504.1,256,504.1c137,0,248.1-111.1,248.1-248.1     C504.1,119,393,7.9,256,7.9z" fill="#45A445"/></g></g><g><g><g><g><path d="M395.4,152.9l-117-0.2c-7.8,0-14.1,6.3-14.1,14L264,344.5c0,7.8,6.3,14,14,14.1l117,0.2       c7.8,0,14.1-6.3,14.1-14l0.3-177.8C409.4,159.2,403.1,152.9,395.4,152.9z" fill="#F4F4F4"/></g></g><g><g><g><g><path d="M292.1,178.5c-0.5-0.4-1.1-1.4-1.8-3.1l-7.5-17.2h-0.3l-7.5,16.7c-0.7,1.6-1.3,2.6-1.8,3.2         c-0.5,0.5-1.1,0.8-1.9,0.9l0,0.6l7,0V179c-1.1-0.1-1.8-0.2-2.1-0.4c-0.5-0.3-0.7-0.7-0.7-1.3c0-0.4,0.2-1,0.4-1.7l0.9-2         l7.4,0l1.1,2.6c0.3,0.7,0.4,1.1,0.5,1.2c0.1,0.2,0.1,0.4,0.1,0.6c0,0.3-0.1,0.5-0.3,0.7c-0.3,0.2-0.9,0.3-1.7,0.3l-0.4,0         l0,0.6l10.1,0l0-0.6C293,179,292.5,178.8,292.1,178.5z M277.4,172.5l3.2-7.2l3.1,7.2L277.4,172.5z" fill="#D61E1E"/></g></g><g><g><path d="M290,187.3c0,0-4.3-3.8-6.9,2.9c-2.6-6.7-6.9-2.9-6.9-2.9c-5.6,4.7,6.4,14.9,6.9,15.4v0c0,0,0,0,0,0         c0,0,0,0,0,0v0C283.6,202.2,295.5,192,290,187.3z" fill="#D61E1E"/></g></g></g><g><g><g><path d="M394.9,330v0.6c1.1,0.1,1.8,0.2,2.1,0.4c0.5,0.3,0.7,0.7,0.7,1.3c0,0.4-0.1,1-0.4,1.7l-0.9,2l-7.4,0         l-1.1-2.6c-0.3-0.7-0.4-1.1-0.5-1.2c-0.1-0.2-0.1-0.4-0.1-0.6c0-0.3,0.1-0.5,0.3-0.7c0.3-0.2,0.9-0.3,1.7-0.3l0.4,0V330         l-10.1,0v0.6c0.6,0.1,1.1,0.2,1.5,0.6c0.5,0.4,1.1,1.4,1.8,3.1l7.5,17.2l0.3,0l7.5-16.7c0.7-1.6,1.3-2.7,1.8-3.2         c0.5-0.5,1.1-0.8,1.9-0.9V330L394.9,330z M392.6,344.3l-3.1-7.2l6.3,0L392.6,344.3z" fill="#D61E1E"/></g></g><g><g><path d="M390.5,306.4L390.5,306.4C390.5,306.4,390.5,306.4,390.5,306.4C390.5,306.4,390.5,306.4,390.5,306.4         L390.5,306.4c-0.5,0.5-12.5,10.6-6.9,15.3c0,0,4.2,3.8,6.9-2.9c2.6,6.7,6.9,2.9,6.9,2.9C403,317.1,391,306.9,390.5,306.4z" fill="#D61E1E"/></g></g></g></g><g><g><path d="M369.8,221.6c0,0-20.3-18.1-33.1,13.9c-12.6-32.1-33-14-33-14c-26.7,22.6,30.3,71.3,32.9,73.4v0.1       c0,0,0,0,0.1,0c0,0,0,0,0,0v-0.1C339.2,292.8,396.4,244.3,369.8,221.6z" fill="#D61E1E"/></g></g></g><g><g><g><g><path d="M234,153.4l-117-0.2c-7.8,0-14.1,6.3-14.1,14l-0.3,177.8c0,7.8,6.3,14,14,14.1l117,0.2        c7.8,0,14-6.3,14.1-14l0.3-177.8C248,159.7,241.8,153.4,234,153.4z" fill="#F4F4F4"/></g></g><g><g><g><rect fill="#AA0404" height="182" width="127.4" x="111.3" y="164.9"/></g></g><g><g><rect fill="#F4F4F4" height="164.4" width="110.1" x="119.9" y="173.7"/></g></g><g><g><g><g><g><g><polygon fill="#AA0404" points="129.1,173 119.9,182.1 129.1,191.3 138.3,182.1            "/></g></g><g><g><polygon fill="#AA0404" points="147.4,173 138.3,182.1 147.4,191.3 156.6,182.1            "/></g></g><g><g><polygon fill="#AA0404" points="165.8,173 156.7,182.1 165.8,191.3 175,182.1            "/></g></g><g><g><polygon fill="#AA0404" points="184.2,173 175,182.1 184.2,191.3 193.3,182.1            "/></g></g><g><g><polygon fill="#AA0404" points="202.5,173 193.4,182.1 202.5,191.3 211.7,182.1            "/></g></g><g><g><polygon fill="#AA0404" points="220.9,173 211.7,182.1 220.9,191.3 230,182.1            "/></g></g></g><g><g><g><rect fill="#AA0404" height="13" transform="matrix(0.7073 -0.7069 0.7069 0.7073 -103.998 149.964)" width="13" x="122.6" y="194.1"/></g></g><g><g><rect fill="#AA0404" height="12.9" transform="matrix(0.7071 -0.7071 0.7071 0.7071 -98.6394 162.9961)" width="12.9" x="141" y="194.1"/></g></g><g><g><rect fill="#AA0404" height="12.9" transform="matrix(0.7071 -0.7071 0.7071 0.7071 -93.2578 175.9888)" width="12.9" x="159.3" y="194.1"/></g></g><g><g><rect fill="#AA0404" height="13" transform="matrix(0.7073 -0.7069 0.7069 0.7073 -87.8821 188.9035)" width="12.9" x="177.7" y="194.1"/></g></g><g><g><rect fill="#AA0404" height="12.9" transform="matrix(0.7072 -0.7071 0.7071 0.7072 -82.5042 201.9363)" width="12.9" x="196.1" y="194.1"/></g></g><g><g><rect fill="#AA0404" height="12.9" transform="matrix(0.7072 -0.7071 0.7071 0.7072 -77.1325 214.9062)" width="12.9" x="214.4" y="194.1"/></g></g></g></g><g><g><g><g><rect fill="#AA0404" height="13" transform="matrix(0.7073 -0.7069 0.7069 0.7073 -117.0484 155.3732)" width="13" x="122.6" y="212.6"/></g></g><g><g><rect fill="#AA0404" height="12.9" transform="matrix(0.7071 -0.7071 0.7071 0.7071 -111.6928 168.4091)" width="12.9" x="141" y="212.6"/></g></g><g><g><rect fill="#AA0404" height="12.9" transform="matrix(0.7071 -0.7071 0.7071 0.7071 -106.3109 181.4023)" width="12.9" x="159.3" y="212.6"/></g></g><g><g><rect fill="#AA0404" height="13" transform="matrix(0.7073 -0.707 0.707 0.7073 -100.9321 194.3145)" width="13" x="177.7" y="212.6"/></g></g><g><g><rect fill="#AA0404" height="12.9" transform="matrix(0.7071 -0.7071 0.7071 0.7071 -95.5559 207.3497)" width="12.9" x="196.1" y="212.6"/></g></g><g><g><rect fill="#AA0404" height="12.9" transform="matrix(0.7071 -0.7071 0.7071 0.7071 -90.1839 220.32)" width="12.9" x="214.4" y="212.6"/></g></g></g><g><g><g><polygon fill="#AA0404" points="129.1,228.3 119.9,237.5 129.1,246.6 138.3,237.5            "/></g></g><g><g><polygon fill="#AA0404" points="147.4,228.3 138.3,237.5 147.4,246.6 156.6,237.5            "/></g></g><g><g><rect fill="#AA0404" height="12.9" transform="matrix(0.7072 -0.7071 0.7071 0.7072 -119.36 186.7862)" width="12.9" x="159.3" y="231"/></g></g><g><g><polygon fill="#AA0404" points="184.2,228.3 175,237.5 184.2,246.6 193.3,237.5            "/></g></g><g><g><rect fill="#AA0404" height="12.9" transform="matrix(0.7072 -0.707 0.707 0.7072 -108.6064 212.7309)" width="12.9" x="196.1" y="231"/></g></g><g><g><rect fill="#AA0404" height="12.9" transform="matrix(0.7072 -0.707 0.707 0.7072 -103.2354 225.7002)" width="12.9" x="214.4" y="231"/></g></g></g></g></g><g><g><g><g><g><polygon fill="#AA0404" points="129.1,246.8 119.9,256 129.1,265.1 138.3,256            "/></g></g><g><g><polygon fill="#AA0404" points="147.4,246.8 138.3,256 147.4,265.1 156.6,256            "/></g></g><g><g><polygon fill="#AA0404" points="165.8,246.8 156.7,256 165.8,265.1 175,256            "/></g></g><g><g><polygon fill="#AA0404" points="184.2,246.8 175,256 184.2,265.1 193.3,256            "/></g></g><g><g><polygon fill="#AA0404" points="202.5,246.8 193.4,256 202.5,265.1 211.7,256            "/></g></g><g><g><polygon fill="#AA0404" points="220.9,246.8 211.7,256 220.9,265.1 230,256            "/></g></g></g><g><g><g><rect fill="#AA0404" height="13" transform="matrix(0.7074 -0.7069 0.7069 0.7074 -156.1902 171.5608)" width="12.9" x="122.6" y="267.9"/></g></g><g><g><rect fill="#AA0404" height="12.9" transform="matrix(0.7072 -0.7071 0.7071 0.7072 -150.8462 184.6061)" width="12.9" x="141" y="267.9"/></g></g><g><g><rect fill="#AA0404" height="12.9" transform="matrix(0.7072 -0.7071 0.7071 0.7072 -145.4653 197.5981)" width="12.9" x="159.3" y="267.9"/></g></g><g><g><rect fill="#AA0404" height="13" transform="matrix(0.7073 -0.7069 0.7069 0.7073 -140.0791 210.501)" width="12.9" x="177.7" y="267.9"/></g></g><g><g><rect fill="#AA0404" height="12.9" transform="matrix(0.7072 -0.707 0.707 0.7072 -134.7103 223.5415)" width="12.9" x="196.1" y="267.9"/></g></g><g><g><rect fill="#AA0404" height="12.9" transform="matrix(0.7072 -0.707 0.707 0.7072 -129.3393 236.5108)" width="12.9" x="214.4" y="267.9"/></g></g></g></g><g><g><g><g><rect fill="#AA0404" height="13" transform="matrix(0.7073 -0.7069 0.7069 0.7073 -169.2488 176.9872)" width="13" x="122.6" y="286.4"/></g></g><g><g><rect fill="#AA0404" height="13" transform="matrix(0.7071 -0.7071 0.7071 0.7071 -163.9072 190.037)" width="12.9" x="141" y="286.4"/></g></g><g><g><rect fill="#AA0404" height="13" transform="matrix(0.7071 -0.7071 0.7071 0.7071 -158.5253 203.0302)" width="12.9" x="159.3" y="286.4"/></g></g><g><g><rect fill="#AA0404" height="13" transform="matrix(0.7073 -0.707 0.707 0.7073 -153.1353 215.9313)" width="13" x="177.7" y="286.4"/></g></g><g><g><rect fill="#AA0404" height="13" transform="matrix(0.7071 -0.7071 0.7071 0.7071 -147.7675 228.9749)" width="12.9" x="196.1" y="286.4"/></g></g><g><g><rect fill="#AA0404" height="13" transform="matrix(0.7071 -0.7071 0.7071 0.7071 -142.3955 241.9452)" width="12.9" x="214.4" y="286.4"/></g></g></g><g><g><g><rect fill="#AA0404" height="12.9" transform="matrix(0.7072 -0.707 0.707 0.7072 -182.315 182.4318)" width="13" x="122.6" y="304.9"/></g></g><g><g><rect fill="#AA0404" height="12.9" transform="matrix(0.707 -0.7072 0.7072 0.707 -176.9752 195.4868)" width="12.9" x="141" y="304.9"/></g></g><g><g><rect fill="#AA0404" height="12.9" transform="matrix(0.707 -0.7072 0.7072 0.707 -171.5915 208.4816)" width="12.9" x="159.3" y="304.9"/></g></g><g><g><rect fill="#AA0404" height="12.9" transform="matrix(0.7072 -0.7071 0.7071 0.7072 -166.197 221.3817)" width="13" x="177.7" y="304.9"/></g></g><g><g><rect fill="#AA0404" height="12.9" transform="matrix(0.7071 -0.7072 0.7072 0.7071 -160.8296 234.4291)" width="12.9" x="196.1" y="304.9"/></g></g><g><g><rect fill="#AA0404" height="12.9" transform="matrix(0.7071 -0.7072 0.7072 0.7071 -155.4557 247.4012)" width="12.9" x="214.4" y="304.9"/></g></g></g><g><g><g><rect fill="#AA0404" height="13" transform="matrix(0.7073 -0.7069 0.7069 0.7073 -195.3485 187.794)" width="13" x="122.6" y="323.3"/></g></g><g><g><rect fill="#AA0404" height="12.9" transform="matrix(0.7071 -0.7071 0.7071 0.7071 -190.0139 200.8508)" width="12.9" x="141" y="323.3"/></g></g><g><g><rect fill="#AA0404" height="12.9" transform="matrix(0.7071 -0.7071 0.7071 0.7071 -184.632 213.8439)" width="12.9" x="159.3" y="323.3"/></g></g><g><g><rect fill="#AA0404" height="13" transform="matrix(0.7073 -0.707 0.707 0.7073 -179.2364 226.7394)" width="13" x="177.7" y="323.3"/></g></g><g><g><rect fill="#AA0404" height="12.9" transform="matrix(0.7071 -0.7071 0.7071 0.7071 -173.8728 239.7872)" width="12.9" x="196.1" y="323.3"/></g></g><g><g><rect fill="#AA0404" height="12.9" transform="matrix(0.7071 -0.7071 0.7071 0.7071 -168.5007 252.7575)" width="12.9" x="214.4" y="323.3"/></g></g></g></g></g></g></g></g><g><g><g><circle cx="175.4" cy="255.3" fill="#FFFFFF" r="30"/></g></g><g><g><polygon fill="#AA0404" points="198.9,247.8 182.5,246.4 175.6,230.9 168.7,246.4 152.4,247.8 164.5,259.5 161.3,275.1         175.6,267.6 190,275.1 186.8,259.5       "/></g></g></g></g></g></g></svg>