<?xml version="1.0" ?><!DOCTYPE svg  PUBLIC '-//W3C//DTD SVG 1.1//EN'  'http://www.w3.org/Graphics/SVG/1.1/DTD/svg11.dtd'><svg enable-background="new 0 0 512 512" height="512px" id="Layer_1" version="1.1" viewBox="0 0 512 512" width="512px" xml:space="preserve" xmlns="http://www.w3.org/2000/svg" xmlns:xlink="http://www.w3.org/1999/xlink"><g><g><g><path d="M256,7.9C119,7.9,7.9,119,7.9,256C7.9,393,119,504.1,256,504.1c137,0,248.1-111.1,248.1-248.1     C504.1,119,393,7.9,256,7.9z" fill="#48A1AF"/></g></g><g><g><g><g><g><ellipse cx="332.8" cy="287.2" fill="#117F11" rx="71.8" ry="34.3"/></g></g><g><g><rect fill="#117F11" height="20" width="143.6" x="261.1" y="269.5"/></g></g><g><g><ellipse cx="332.8" cy="271.1" fill="#1D991D" rx="71.8" ry="34.3"/></g></g><g><g><ellipse cx="332.8" cy="271.1" fill="#1D991D" rx="52.5" ry="25.1"/></g></g><g><g><ellipse cx="332.8" cy="271.1" fill="#1D991D" rx="48.3" ry="23.1"/></g></g><g><g><g><path d="M332.8,236.8c-2.9,0-5.8,0.1-8.6,0.3v6h17.7v-6C338.9,236.9,335.9,236.8,332.8,236.8z" fill="#FFFAFA"/></g></g><g><g><g><path d="M332.8,304.8c-2.9,0-5.8-0.1-8.6-0.3v16.8c2.8,0.2,5.7,0.3,8.6,0.3c3.1,0,6.1-0.1,9-0.3v-16.8          C338.9,304.7,335.9,304.8,332.8,304.8z" fill="#EFEDED"/></g></g><g><g><path d="M393.2,289.6c-3.3,2.4-7.1,4.6-11.5,6.6l0,0v16.1c4.4-2,8.3-4.2,11.5-6.6L393.2,289.6L393.2,289.6z" fill="#EFEDED"/></g></g><g><g><path d="M272.5,289.6L272.5,289.6l0,16.1c3.3,2.4,7.1,4.6,11.5,6.6v-16.1l0,0          C279.6,294.3,275.7,292.1,272.5,289.6z" fill="#EFEDED"/></g></g></g><g><g><path d="M284,245.9c-4.4,2-8.3,4.2-11.5,6.6l9.9,7.1l10-7.4L284,245.9z" fill="#FFFAFA"/></g></g><g><g><path d="M381.7,245.9l-8.4,6.3l10,7.4l9.9-7.1C389.9,250.1,386.1,247.9,381.7,245.9z" fill="#FFFAFA"/></g></g><g><g><path d="M324.2,298v7.2c2.8,0.2,5.7,0.3,8.6,0.3c3.1,0,6.1-0.1,9-0.3V298H324.2z" fill="#FFFAFA"/></g></g><g><g><path d="M383.3,282.5l-10,7.4l8.4,6.3c4.4-2,8.3-4.2,11.5-6.6L383.3,282.5z" fill="#FFFAFA"/></g></g><g><g><path d="M282.4,282.5l-9.9,7.1c3.3,2.4,7.1,4.6,11.5,6.6l8.4-6.3L282.4,282.5z" fill="#FFFAFA"/></g></g></g></g><g><g><g><ellipse cx="336.7" cy="267.4" fill="#117F11" rx="71.8" ry="34.3"/></g></g><g><g><rect fill="#117F11" height="20" width="143.6" x="264.9" y="249.8"/></g></g><g><g><ellipse cx="336.7" cy="251.3" fill="#1D991D" rx="71.8" ry="34.3"/></g></g><g><g><ellipse cx="336.7" cy="251.3" fill="#FFFAFA" rx="52.5" ry="25.1"/></g></g><g><g><ellipse cx="336.7" cy="251.3" fill="#1D991D" rx="48.3" ry="23.1"/></g></g><g><g><g><path d="M336.7,217c-2.9,0-5.8,0.1-8.6,0.3v6h17.7v-6C342.7,217.1,339.7,217,336.7,217z" fill="#FFFAFA"/></g></g><g><g><g><path d="M336.7,285c-2.9,0-5.8-0.1-8.6-0.3v16.8c2.8,0.2,5.7,0.3,8.6,0.3c3.1,0,6.1-0.1,9-0.3v-16.8          C342.7,284.9,339.7,285,336.7,285z" fill="#EFEDED"/></g></g><g><g><path d="M397.1,269.8c-3.3,2.4-7.1,4.6-11.5,6.6l0,0v16.1c4.4-2,8.3-4.2,11.5-6.6L397.1,269.8L397.1,269.8z" fill="#EFEDED"/></g></g><g><g><path d="M276.3,269.9L276.3,269.9l0,16.1c3.3,2.4,7.1,4.6,11.5,6.6v-16.1l0,0          C283.5,274.5,279.6,272.3,276.3,269.9z" fill="#EFEDED"/></g></g></g><g><g><path d="M287.9,226.1c-4.4,2-8.3,4.2-11.5,6.6l9.9,7.1l10-7.4L287.9,226.1z" fill="#FFFAFA"/></g></g><g><g><path d="M385.5,226.2l-8.4,6.3l10,7.4l9.9-7.1C393.8,230.3,389.9,228.1,385.5,226.2z" fill="#FFFAFA"/></g></g><g><g><path d="M328,278.2v7.2c2.8,0.2,5.7,0.3,8.6,0.3c3.1,0,6.1-0.1,9-0.3v-7.1H328z" fill="#FFFAFA"/></g></g><g><g><path d="M387.2,262.7l-10,7.4l8.4,6.3c4.4-2,8.3-4.2,11.5-6.6L387.2,262.7z" fill="#FFFAFA"/></g></g><g><g><path d="M286.3,262.7l-9.9,7.1c3.3,2.4,7.1,4.6,11.5,6.6l8.4-6.3L286.3,262.7z" fill="#FFFAFA"/></g></g></g></g><g><g><g><ellipse cx="330.6" cy="246" fill="#117F11" rx="71.8" ry="34.3"/></g></g><g><g><rect fill="#117F11" height="20" width="143.5" x="258.9" y="228.4"/></g></g><g><g><ellipse cx="330.6" cy="229.9" fill="#1D991D" rx="71.8" ry="34.3"/></g></g><g><g><ellipse cx="330.6" cy="229.9" fill="#FFFAFA" rx="52.5" ry="25.1"/></g></g><g><g><ellipse cx="330.6" cy="229.9" fill="#1D991D" rx="48.3" ry="23.1"/></g></g><g><g><g><path d="M330.6,195.6c-2.9,0-5.8,0.1-8.6,0.3v6h17.7v-6C336.7,195.7,333.7,195.6,330.6,195.6z" fill="#FFFAFA"/></g></g><g><g><g><path d="M330.6,263.6c-2.9,0-5.8-0.1-8.6-0.3v16.8c2.8,0.2,5.7,0.3,8.6,0.3c3.1,0,6.1-0.1,9-0.3v-16.8          C336.7,263.5,333.7,263.6,330.6,263.6z" fill="#EFEDED"/></g></g><g><g><path d="M391,248.4c-3.3,2.4-7.1,4.6-11.5,6.6l0,0v16.1c4.4-2,8.3-4.2,11.5-6.6L391,248.4L391,248.4z" fill="#EFEDED"/></g></g><g><g><path d="M270.3,248.4L270.3,248.4l0,16.1c3.3,2.4,7.1,4.6,11.5,6.6v-16.1l0,0          C277.4,253.1,273.5,250.9,270.3,248.4z" fill="#EFEDED"/></g></g></g><g><g><path d="M281.8,204.7c-4.4,2-8.3,4.2-11.5,6.6l9.9,7.1l10-7.4L281.8,204.7z" fill="#FFFAFA"/></g></g><g><g><path d="M379.5,204.8l-8.4,6.3l10,7.4l9.9-7.1C387.7,208.9,383.9,206.7,379.5,204.8z" fill="#FFFAFA"/></g></g><g><g><path d="M322,256.8v7.2c2.8,0.2,5.7,0.3,8.6,0.3c3.1,0,6.1-0.1,9-0.3v-7.1H322z" fill="#FFFAFA"/></g></g><g><g><path d="M381.1,241.3l-10,7.4l8.4,6.3c4.4-2,8.3-4.2,11.5-6.6L381.1,241.3z" fill="#FFFAFA"/></g></g><g><g><path d="M280.2,241.3l-9.9,7.1c3.3,2.4,7.1,4.6,11.5,6.6l8.4-6.3L280.2,241.3z" fill="#FFFAFA"/></g></g></g></g><g><g><g><ellipse cx="338.3" cy="223" fill="#117F11" rx="71.8" ry="34.3"/></g></g><g><g><rect fill="#117F11" height="20" width="143.5" x="266.6" y="205.3"/></g></g><g><g><ellipse cx="338.3" cy="206.8" fill="#1D991D" rx="71.8" ry="34.3"/></g></g><g><g><ellipse cx="338.3" cy="206.8" fill="#FFFAFA" rx="52.5" ry="25.1"/></g></g><g><g><ellipse cx="338.3" cy="206.8" fill="#1D991D" rx="48.3" ry="23.1"/></g></g><g><g><g><path d="M338.3,172.5c-2.9,0-5.8,0.1-8.6,0.3v6h17.7v-6C344.4,172.6,341.4,172.5,338.3,172.5z" fill="#FFFAFA"/></g></g><g><g><g><path d="M338.3,240.5c-2.9,0-5.8-0.1-8.6-0.3V257c2.8,0.2,5.7,0.3,8.6,0.3c3.1,0,6.1-0.1,9-0.3v-16.8          C344.4,240.4,341.4,240.5,338.3,240.5z" fill="#EFEDED"/></g></g><g><g><path d="M398.7,225.4c-3.3,2.4-7.1,4.6-11.5,6.6l0,0v16.1c4.4-2,8.3-4.2,11.5-6.6L398.7,225.4L398.7,225.4z" fill="#EFEDED"/></g></g><g><g><path d="M278,225.4L278,225.4l0,16.1c3.3,2.4,7.1,4.6,11.5,6.6V232l0,0C285.1,230,281.2,227.8,278,225.4z" fill="#EFEDED"/></g></g></g><g><g><path d="M289.5,181.7c-4.4,2-8.3,4.2-11.5,6.6l9.9,7.1l10-7.4L289.5,181.7z" fill="#FFFAFA"/></g></g><g><g><path d="M387.2,181.7l-8.4,6.3l10,7.4l9.9-7.1C395.4,185.9,391.6,183.6,387.2,181.7z" fill="#FFFAFA"/></g></g><g><g><path d="M329.7,233.7v7.2c2.8,0.2,5.7,0.3,8.6,0.3c3.1,0,6.1-0.1,9-0.3v-7.1H329.7z" fill="#FFFAFA"/></g></g><g><g><path d="M388.8,218.3l-10,7.4l8.4,6.3c4.4-2,8.3-4.2,11.5-6.6L388.8,218.3z" fill="#FFFAFA"/></g></g><g><g><path d="M287.9,218.3l-9.9,7.1c3.3,2.4,7.1,4.6,11.5,6.6l8.4-6.3L287.9,218.3z" fill="#FFFAFA"/></g></g></g></g></g><g><g><g><g><g><ellipse cx="181.5" cy="277.2" fill="#084C84" rx="71.8" ry="34.3"/></g></g><g><g><rect fill="#084C84" height="20" width="143.6" x="109.8" y="259.5"/></g></g><g><g><ellipse cx="181.5" cy="261" fill="#0E62A8" rx="71.8" ry="34.3"/></g></g><g><g><ellipse cx="181.5" cy="261" fill="#FFFAFA" rx="52.5" ry="25.1"/></g></g><g><g><ellipse cx="181.5" cy="261" fill="#0E62A8" rx="48.3" ry="23.1"/></g></g><g><g><g><path d="M181.5,226.7c-2.9,0-5.8,0.1-8.6,0.3v6h17.7v-6C187.6,226.8,184.6,226.7,181.5,226.7z" fill="#FFFAFA"/></g></g><g><g><g><path d="M181.5,294.7c-2.9,0-5.8-0.1-8.6-0.3v16.8c2.8,0.2,5.7,0.3,8.6,0.3c3.1,0,6.1-0.1,9-0.3v-16.8           C187.6,294.6,184.6,294.7,181.5,294.7z" fill="#EFEDED"/></g></g><g><g><path d="M241.9,279.6c-3.3,2.4-7.1,4.6-11.5,6.6l0,0v16.1c4.4-2,8.3-4.2,11.5-6.6L241.9,279.6L241.9,279.6z           " fill="#EFEDED"/></g></g><g><g><path d="M121.2,279.6L121.2,279.6l0,16.1c3.3,2.4,7.1,4.6,11.5,6.6v-16.1l0,0           C128.3,284.2,124.4,282,121.2,279.6z" fill="#EFEDED"/></g></g></g><g><g><path d="M132.7,235.9c-4.4,2-8.3,4.2-11.5,6.6l9.9,7.1l10-7.4L132.7,235.9z" fill="#FFFAFA"/></g></g><g><g><path d="M230.4,235.9l-8.4,6.3l10,7.4l9.9-7.1C238.7,240.1,234.8,237.9,230.4,235.9z" fill="#FFFAFA"/></g></g><g><g><path d="M172.9,287.9v7.2c2.8,0.2,5.7,0.3,8.6,0.3c3.1,0,6.1-0.1,9-0.3v-7.1H172.9z" fill="#FFFAFA"/></g></g><g><g><path d="M232,272.5l-10,7.4l8.4,6.3c4.4-2,8.3-4.2,11.5-6.6L232,272.5z" fill="#FFFAFA"/></g></g><g><g><path d="M131.1,272.5l-9.9,7.1c3.3,2.4,7.1,4.6,11.5,6.6l8.4-6.3L131.1,272.5z" fill="#FFFAFA"/></g></g></g></g></g><g><g><g><g><ellipse cx="177.4" cy="258" fill="#084C84" rx="71.8" ry="34.3"/></g></g><g><g><rect fill="#084C84" height="20" width="143.5" x="105.7" y="240.3"/></g></g><g><g><ellipse cx="177.4" cy="241.8" fill="#0E62A8" rx="71.8" ry="34.3"/></g></g><g><g><ellipse cx="177.4" cy="241.8" fill="#FFFAFA" rx="52.5" ry="25.1"/></g></g><g><g><ellipse cx="177.4" cy="241.8" fill="#0E62A8" rx="48.3" ry="23.1"/></g></g><g><g><g><path d="M177.4,207.5c-2.9,0-5.8,0.1-8.6,0.3v6h17.7v-6C183.5,207.6,180.5,207.5,177.4,207.5z" fill="#FFFAFA"/></g></g><g><g><g><path d="M177.4,275.5c-2.9,0-5.8-0.1-8.6-0.3V292c2.8,0.2,5.7,0.3,8.6,0.3c3.1,0,6.1-0.1,9-0.3v-16.8           C183.5,275.4,180.5,275.5,177.4,275.5z" fill="#EFEDED"/></g></g><g><g><path d="M237.8,260.4c-3.3,2.4-7.1,4.6-11.5,6.6l0,0v16.1c4.4-2,8.3-4.2,11.5-6.6L237.8,260.4L237.8,260.4z           " fill="#EFEDED"/></g></g><g><g><path d="M117.1,260.4L117.1,260.4l0,16.1c3.3,2.4,7.1,4.6,11.5,6.6V267l0,0           C124.2,265,120.3,262.8,117.1,260.4z" fill="#EFEDED"/></g></g></g><g><g><path d="M128.6,216.7c-4.4,2-8.3,4.2-11.5,6.6l9.9,7.1l10-7.4L128.6,216.7z" fill="#FFFAFA"/></g></g><g><g><path d="M226.3,216.7l-8.4,6.3l10,7.4l9.9-7.1C234.5,220.9,230.7,218.6,226.3,216.7z" fill="#FFFAFA"/></g></g><g><g><path d="M168.8,268.7v7.2c2.8,0.2,5.7,0.3,8.6,0.3c3.1,0,6.1-0.1,9-0.3v-7.1H168.8z" fill="#FFFAFA"/></g></g><g><g><path d="M227.9,253.3l-10,7.4l8.4,6.3c4.4-2,8.3-4.2,11.5-6.6L227.9,253.3z" fill="#FFFAFA"/></g></g><g><g><path d="M127,253.3l-9.9,7.1c3.3,2.4,7.1,4.6,11.5,6.6l8.4-6.3L127,253.3z" fill="#FFFAFA"/></g></g></g></g></g><g><g><g><g><ellipse cx="175" cy="235.4" fill="#084C84" rx="71.8" ry="34.3"/></g></g><g><g><rect fill="#084C84" height="20" width="143.5" x="103.3" y="217.7"/></g></g><g><g><ellipse cx="175" cy="219.2" fill="#0E62A8" rx="71.8" ry="34.3"/></g></g><g><g><ellipse cx="175" cy="219.2" fill="#FFFAFA" rx="52.5" ry="25.1"/></g></g><g><g><ellipse cx="175" cy="219.2" fill="#0E62A8" rx="48.3" ry="23.1"/></g></g><g><g><g><path d="M175,184.9c-2.9,0-5.8,0.1-8.6,0.3v6h17.7v-6C181.1,185,178.1,184.9,175,184.9z" fill="#FFFAFA"/></g></g><g><g><g><path d="M175,252.9c-2.9,0-5.8-0.1-8.6-0.3v16.8c2.8,0.2,5.7,0.3,8.6,0.3c3.1,0,6.1-0.1,9-0.3v-16.8           C181.1,252.8,178.1,252.9,175,252.9z" fill="#EFEDED"/></g></g><g><g><path d="M235.4,237.8c-3.3,2.4-7.1,4.6-11.5,6.6l0,0v16.1c4.4-2,8.3-4.2,11.5-6.6L235.4,237.8L235.4,237.8z           " fill="#EFEDED"/></g></g><g><g><path d="M114.7,237.8L114.7,237.8l0,16.1c3.3,2.4,7.1,4.6,11.5,6.6v-16.1l0,0           C121.8,242.4,117.9,240.2,114.7,237.8z" fill="#EFEDED"/></g></g></g><g><g><path d="M126.2,194.1c-4.4,2-8.3,4.2-11.5,6.6l9.9,7.1l10-7.4L126.2,194.1z" fill="#FFFAFA"/></g></g><g><g><path d="M223.9,194.1l-8.4,6.3l10,7.4l9.9-7.1C232.2,198.2,228.3,196,223.9,194.1z" fill="#FFFAFA"/></g></g><g><g><path d="M166.4,246.1v7.2c2.8,0.2,5.7,0.3,8.6,0.3c3.1,0,6.1-0.1,9-0.3v-7.1H166.4z" fill="#FFFAFA"/></g></g><g><g><path d="M225.5,230.6l-10,7.4l8.4,6.3c4.4-2,8.3-4.2,11.5-6.6L225.5,230.6z" fill="#FFFAFA"/></g></g><g><g><path d="M124.6,230.6l-9.9,7.1c3.3,2.4,7.1,4.6,11.5,6.6l8.4-6.3L124.6,230.6z" fill="#FFFAFA"/></g></g></g></g></g><g><g><g><g><ellipse cx="182.7" cy="216.1" fill="#084C84" rx="71.8" ry="34.3"/></g></g><g><g><rect fill="#084C84" height="20" width="143.6" x="111" y="198.5"/></g></g><g><g><ellipse cx="182.7" cy="200" fill="#0E62A8" rx="71.8" ry="34.3"/></g></g><g><g><ellipse cx="182.7" cy="200" fill="#FFFAFA" rx="52.5" ry="25.1"/></g></g><g><g><ellipse cx="182.7" cy="200" fill="#0E62A8" rx="48.3" ry="23.1"/></g></g><g><g><g><path d="M182.7,165.7c-2.9,0-5.8,0.1-8.6,0.3v6h17.7v-6C188.8,165.8,185.8,165.7,182.7,165.7z" fill="#FFFAFA"/></g></g><g><g><g><path d="M182.7,233.7c-2.9,0-5.8-0.1-8.6-0.3v16.8c2.8,0.2,5.7,0.3,8.6,0.3c3.1,0,6.1-0.1,9-0.3v-16.8           C188.8,233.6,185.8,233.7,182.7,233.7z" fill="#EFEDED"/></g></g><g><g><path d="M243.1,218.5c-3.3,2.4-7.1,4.6-11.5,6.6l0.1,0v16.1c4.4-2,8.3-4.2,11.5-6.6L243.1,218.5           L243.1,218.5z" fill="#EFEDED"/></g></g><g><g><path d="M122.4,218.6L122.4,218.6l0,16.1c3.3,2.4,7.1,4.6,11.5,6.6v-16.1l0,0           C129.5,223.2,125.6,221,122.4,218.6z" fill="#EFEDED"/></g></g></g><g><g><path d="M133.9,174.8c-4.4,2-8.3,4.2-11.5,6.6l9.9,7.1l10-7.4L133.9,174.8z" fill="#FFFAFA"/></g></g><g><g><path d="M231.6,174.9l-8.4,6.3l10,7.4l9.9-7.1C239.8,179,236,176.8,231.6,174.9z" fill="#FFFAFA"/></g></g><g><g><path d="M174.1,226.9v7.2c2.8,0.2,5.7,0.3,8.6,0.3c3.1,0,6.1-0.1,9-0.3v-7.1H174.1z" fill="#FFFAFA"/></g></g><g><g><path d="M233.2,211.4l-10,7.4l8.4,6.3c4.4-2,8.3-4.2,11.5-6.6L233.2,211.4z" fill="#FFFAFA"/></g></g><g><g><path d="M132.3,211.4l-9.9,7.1c3.3,2.4,7.1,4.6,11.5,6.6l8.4-6.3L132.3,211.4z" fill="#FFFAFA"/></g></g></g></g></g><g><g><g><g><ellipse cx="173.7" cy="201.9" fill="#084C84" rx="71.8" ry="34.3"/></g></g><g><g><rect fill="#084C84" height="20" width="143.5" x="101.9" y="184.2"/></g></g><g><g><ellipse cx="173.7" cy="185.7" fill="#0E62A8" rx="71.8" ry="34.3"/></g></g><g><g><ellipse cx="173.7" cy="185.7" fill="#FFFAFA" rx="52.5" ry="25.1"/></g></g><g><g><ellipse cx="173.7" cy="185.7" fill="#0E62A8" rx="48.3" ry="23.1"/></g></g><g><g><g><path d="M173.7,151.4c-2.9,0-5.8,0.1-8.6,0.3v6h17.7v-6C179.7,151.5,176.7,151.4,173.7,151.4z" fill="#FFFAFA"/></g></g><g><g><g><path d="M173.7,219.4c-2.9,0-5.8-0.1-8.6-0.3v16.8c2.8,0.2,5.7,0.3,8.6,0.3c3.1,0,6.1-0.1,9-0.3v-16.8           C179.7,219.3,176.7,219.4,173.7,219.4z" fill="#EFEDED"/></g></g><g><g><path d="M234.1,204.3c-3.3,2.4-7.1,4.6-11.5,6.6l0,0V227c4.4-2,8.3-4.2,11.5-6.6L234.1,204.3L234.1,204.3z" fill="#EFEDED"/></g></g><g><g><path d="M113.3,204.3L113.3,204.3l0,16.1c3.3,2.4,7.1,4.6,11.5,6.6v-16.1l0,0           C120.5,208.9,116.6,206.7,113.3,204.3z" fill="#EFEDED"/></g></g></g><g><g><path d="M124.9,160.6c-4.4,2-8.3,4.2-11.5,6.6l9.9,7.1l10-7.4L124.9,160.6z" fill="#FFFAFA"/></g></g><g><g><path d="M222.5,160.6l-8.4,6.3l10,7.4l9.9-7.1C230.8,164.8,226.9,162.5,222.5,160.6z" fill="#FFFAFA"/></g></g><g><g><path d="M165,212.6v7.2c2.8,0.2,5.7,0.3,8.6,0.3c3.1,0,6.1-0.1,9-0.3v-7.1H165z" fill="#FFFAFA"/></g></g><g><g><path d="M224.2,197.2l-10,7.4l8.4,6.3c4.4-2,8.3-4.2,11.5-6.6L224.2,197.2z" fill="#FFFAFA"/></g></g><g><g><path d="M123.3,197.2l-9.9,7.1c3.3,2.4,7.1,4.6,11.5,6.6l8.4-6.3L123.3,197.2z" fill="#FFFAFA"/></g></g></g></g></g><g><g><g><g><ellipse cx="188" cy="182.9" fill="#084C84" rx="71.8" ry="34.3"/></g></g><g><g><rect fill="#084C84" height="20" width="143.5" x="116.2" y="165.2"/></g></g><g><g><ellipse cx="188" cy="166.8" fill="#0E62A8" rx="71.8" ry="34.3"/></g></g><g><g><ellipse cx="188" cy="166.8" fill="#FFFAFA" rx="52.5" ry="25.1"/></g></g><g><g><ellipse cx="188" cy="166.8" fill="#0E62A8" rx="48.3" ry="23.1"/></g></g><g><g><g><path d="M188,132.5c-2.9,0-5.8,0.1-8.6,0.3v6H197v-6C194,132.6,191,132.5,188,132.5z" fill="#FFFAFA"/></g></g><g><g><g><path d="M188,200.5c-2.9,0-5.8-0.1-8.6-0.3V217c2.8,0.2,5.7,0.3,8.6,0.3c3.1,0,6.1-0.1,9-0.3v-16.8           C194,200.4,191,200.5,188,200.5z" fill="#EFEDED"/></g></g><g><g><path d="M248.3,185.3c-3.3,2.4-7.1,4.6-11.5,6.6l0,0V208c4.4-2,8.3-4.2,11.5-6.6L248.3,185.3L248.3,185.3z" fill="#EFEDED"/></g></g><g><g><path d="M127.6,185.3L127.6,185.3l0,16.1c3.3,2.4,7.1,4.6,11.5,6.6v-16.1l0,0           C134.7,190,130.9,187.8,127.6,185.3z" fill="#EFEDED"/></g></g></g><g><g><path d="M139.1,141.6c-4.4,2-8.3,4.2-11.5,6.6l9.9,7.1l10-7.4L139.1,141.6z" fill="#FFFAFA"/></g></g><g><g><path d="M236.8,141.6l-8.4,6.3l10,7.4l9.9-7.1C245.1,145.8,241.2,143.6,236.8,141.6z" fill="#FFFAFA"/></g></g><g><g><path d="M179.3,193.7v7.2c2.8,0.2,5.7,0.3,8.6,0.3c3.1,0,6.1-0.1,9-0.3v-7.1H179.3z" fill="#FFFAFA"/></g></g><g><g><path d="M238.4,178.2l-10,7.4l8.4,6.3c4.4-2,8.3-4.2,11.5-6.6L238.4,178.2z" fill="#FFFAFA"/></g></g><g><g><path d="M137.5,178.2l-9.9,7.1c3.3,2.4,7.1,4.6,11.5,6.6l8.4-6.3L137.5,178.2z" fill="#FFFAFA"/></g></g></g></g></g><g><g><g><g><ellipse cx="181.4" cy="159.9" fill="#084C84" rx="71.8" ry="34.3"/></g></g><g><g><rect fill="#084C84" height="20" width="143.5" x="109.6" y="142.2"/></g></g><g><g><ellipse cx="181.4" cy="143.7" fill="#0E62A8" rx="71.8" ry="34.3"/></g></g><g><g><ellipse cx="181.4" cy="143.7" fill="#FFFAFA" rx="52.5" ry="25.1"/></g></g><g><g><ellipse cx="181.4" cy="143.7" fill="#0E62A8" rx="48.3" ry="23.1"/></g></g><g><g><g><path d="M181.4,109.4c-2.9,0-5.8,0.1-8.6,0.3v6h17.7v-6C187.4,109.5,184.4,109.4,181.4,109.4z" fill="#FFFAFA"/></g></g><g><g><g><path d="M181.4,177.4c-2.9,0-5.8-0.1-8.6-0.3v16.8c2.8,0.2,5.7,0.3,8.6,0.3c3.1,0,6.1-0.1,9-0.3v-16.8           C187.4,177.3,184.4,177.4,181.4,177.4z" fill="#EFEDED"/></g></g><g><g><path d="M241.8,162.3c-3.3,2.4-7.1,4.6-11.5,6.6l0,0V185c4.4-2,8.3-4.2,11.5-6.6L241.8,162.3L241.8,162.3z" fill="#EFEDED"/></g></g><g><g><path d="M121,162.3L121,162.3l0,16.1c3.3,2.4,7.1,4.6,11.5,6.6v-16.1l0,0           C128.1,166.9,124.3,164.7,121,162.3z" fill="#EFEDED"/></g></g></g><g><g><path d="M132.6,118.6c-4.4,2-8.3,4.2-11.5,6.6l9.9,7.1l10-7.4L132.6,118.6z" fill="#FFFAFA"/></g></g><g><g><path d="M230.2,118.6l-8.4,6.3l10,7.4l9.9-7.1C238.5,122.8,234.6,120.5,230.2,118.6z" fill="#FFFAFA"/></g></g><g><g><path d="M172.7,170.6v7.2c2.8,0.2,5.7,0.3,8.6,0.3c3.1,0,6.1-0.1,9-0.3v-7.1H172.7z" fill="#FFFAFA"/></g></g><g><g><path d="M231.8,155.2l-10,7.4l8.4,6.3c4.4-2,8.3-4.2,11.5-6.6L231.8,155.2z" fill="#FFFAFA"/></g></g><g><g><path d="M130.9,155.2l-9.9,7.1c3.3,2.4,7.1,4.6,11.5,6.6l8.4-6.3L130.9,155.2z" fill="#FFFAFA"/></g></g></g></g></g><g><g><g><g><ellipse cx="179" cy="138.6" fill="#084C84" rx="71.8" ry="34.3"/></g></g><g><g><rect fill="#084C84" height="20" width="143.6" x="107.2" y="121"/></g></g><g><g><ellipse cx="179" cy="122.5" fill="#0E62A8" rx="71.8" ry="34.3"/></g></g><g><g><ellipse cx="179" cy="122.5" fill="#FFFAFA" rx="52.5" ry="25.1"/></g></g><g><g><ellipse cx="179" cy="122.5" fill="#0E62A8" rx="48.3" ry="23.1"/></g></g><g><g><g><path d="M179,88.2c-2.9,0-5.8,0.1-8.6,0.3v6H188v-6C185,88.3,182,88.2,179,88.2z" fill="#FFFAFA"/></g></g><g><g><g><path d="M179,156.2c-2.9,0-5.8-0.1-8.6-0.3v16.8c2.8,0.2,5.7,0.3,8.6,0.3c3.1,0,6.1-0.1,9-0.3v-16.8           C185,156.1,182,156.2,179,156.2z" fill="#EFEDED"/></g></g><g><g><path d="M239.4,141c-3.3,2.4-7.1,4.6-11.5,6.6l0,0v16.1c4.4-2,8.3-4.2,11.5-6.6L239.4,141L239.4,141z" fill="#EFEDED"/></g></g><g><g><path d="M118.6,141L118.6,141l0,16.1c3.3,2.4,7.1,4.6,11.5,6.6v-16.1l0,0           C125.8,145.7,121.9,143.5,118.6,141z" fill="#EFEDED"/></g></g></g><g><g><path d="M130.2,97.3c-4.4,2-8.3,4.2-11.5,6.6l9.9,7.1l10-7.4L130.2,97.3z" fill="#FFFAFA"/></g></g><g><g><path d="M227.8,97.4l-8.4,6.3l10,7.4l9.9-7.1C236.1,101.5,232.2,99.3,227.8,97.4z" fill="#FFFAFA"/></g></g><g><g><path d="M170.3,149.4v7.2c2.8,0.2,5.7,0.3,8.6,0.3c3.1,0,6.1-0.1,9-0.3v-7.1H170.3z" fill="#FFFAFA"/></g></g><g><g><path d="M229.5,133.9l-10,7.4l8.4,6.3c4.4-2,8.3-4.2,11.5-6.6L229.5,133.9z" fill="#FFFAFA"/></g></g><g><g><path d="M128.6,133.9l-9.9,7.1c3.3,2.4,7.1,4.6,11.5,6.6l8.4-6.3L128.6,133.9z" fill="#FFFAFA"/></g></g></g></g></g></g><g><g><g><g><ellipse cx="258.1" cy="389.5" fill="#C61717" rx="71.8" ry="34.3"/></g></g><g><g><rect fill="#C61717" height="20" width="143.5" x="186.3" y="371.8"/></g></g><g><g><ellipse cx="258.1" cy="373.4" fill="#E22424" rx="71.8" ry="34.3"/></g></g><g><g><ellipse cx="258.1" cy="373.4" fill="#FFFAFA" rx="52.5" ry="25.1"/></g></g><g><g><ellipse cx="258.1" cy="373.4" fill="#E22424" rx="48.3" ry="23.1"/></g></g><g><g><g><path d="M258.1,339.1c-2.9,0-5.8,0.1-8.6,0.3v6h17.7v-6C264.2,339.2,261.1,339.1,258.1,339.1z" fill="#FFFAFA"/></g></g><g><g><g><path d="M258.1,407.1c-2.9,0-5.8-0.1-8.6-0.3v16.8c2.8,0.2,5.7,0.3,8.6,0.3c3.1,0,6.1-0.1,9-0.3v-16.8          C264.2,407,261.1,407.1,258.1,407.1z" fill="#EFEDED"/></g></g><g><g><path d="M318.5,391.9c-3.3,2.4-7.1,4.6-11.5,6.6l0,0v16.1c4.4-2,8.3-4.2,11.5-6.6L318.5,391.9L318.5,391.9z" fill="#EFEDED"/></g></g><g><g><path d="M197.7,391.9L197.7,391.9l0,16.1c3.3,2.4,7.1,4.6,11.5,6.6v-16.1l0,0          C204.9,396.6,201,394.4,197.7,391.9z" fill="#EFEDED"/></g></g></g><g><g><path d="M209.3,348.2c-4.4,2-8.3,4.2-11.5,6.6l9.9,7.1l10-7.4L209.3,348.2z" fill="#FFFAFA"/></g></g><g><g><path d="M306.9,348.2l-8.4,6.3l10,7.4l9.9-7.1C315.2,352.4,311.3,350.2,306.9,348.2z" fill="#FFFAFA"/></g></g><g><g><path d="M249.4,400.3v7.2c2.8,0.2,5.7,0.3,8.6,0.3c3.1,0,6.1-0.1,9-0.3v-7.1H249.4z" fill="#FFFAFA"/></g></g><g><g><path d="M308.6,384.8l-10,7.4l8.4,6.3c4.4-2,8.3-4.2,11.5-6.6L308.6,384.8z" fill="#FFFAFA"/></g></g><g><g><path d="M207.7,384.8l-9.9,7.1c3.3,2.4,7.1,4.6,11.5,6.6l8.4-6.3L207.7,384.8z" fill="#FFFAFA"/></g></g></g></g><g><g><g><ellipse cx="255.6" cy="371.4" fill="#C61717" rx="71.8" ry="34.3"/></g></g><g><g><rect fill="#C61717" height="20" width="143.5" x="183.8" y="353.7"/></g></g><g><g><ellipse cx="255.6" cy="355.3" fill="#E22424" rx="71.8" ry="34.3"/></g></g><g><g><ellipse cx="255.6" cy="355.3" fill="#FFFAFA" rx="52.5" ry="25.1"/></g></g><g><g><ellipse cx="255.6" cy="355.3" fill="#E22424" rx="48.3" ry="23.1"/></g></g><g><g><g><path d="M255.6,320.9c-2.9,0-5.8,0.1-8.6,0.3v6h17.7v-6C261.7,321,258.7,320.9,255.6,320.9z" fill="#FFFAFA"/></g></g><g><g><g><path d="M255.6,389c-2.9,0-5.8-0.1-8.6-0.3v16.8c2.8,0.2,5.7,0.3,8.6,0.3c3.1,0,6.1-0.1,9-0.3v-16.8          C261.7,388.9,258.7,389,255.6,389z" fill="#EFEDED"/></g></g><g><g><path d="M316,373.8c-3.3,2.4-7.1,4.6-11.5,6.6l0,0v16.1c4.4-2,8.3-4.2,11.5-6.6L316,373.8L316,373.8z" fill="#EFEDED"/></g></g><g><g><path d="M195.3,373.8L195.3,373.8l0,16.1c3.3,2.4,7.1,4.6,11.5,6.6v-16.1l0,0          C202.4,378.4,198.5,376.2,195.3,373.8z" fill="#EFEDED"/></g></g></g><g><g><path d="M206.8,330.1c-4.4,2-8.3,4.2-11.5,6.6l9.9,7.1l10-7.4L206.8,330.1z" fill="#FFFAFA"/></g></g><g><g><path d="M304.5,330.1l-8.4,6.3l10,7.4l9.9-7.1C312.7,334.3,308.9,332.1,304.5,330.1z" fill="#FFFAFA"/></g></g><g><g><path d="M247,382.1v7.2c2.8,0.2,5.7,0.3,8.6,0.3c3.1,0,6.1-0.1,9-0.3v-7.1H247z" fill="#FFFAFA"/></g></g><g><g><path d="M306.1,366.7l-10,7.4l8.4,6.3c4.4-2,8.3-4.2,11.5-6.6L306.1,366.7z" fill="#FFFAFA"/></g></g><g><g><path d="M205.2,366.7l-9.9,7.1c3.3,2.4,7.1,4.6,11.5,6.6l8.4-6.3L205.2,366.7z" fill="#FFFAFA"/></g></g></g></g><g><g><g><ellipse cx="257.3" cy="351.3" fill="#C61717" rx="71.8" ry="34.3"/></g></g><g><g><rect fill="#C61717" height="20" width="143.5" x="185.5" y="333.7"/></g></g><g><g><ellipse cx="257.3" cy="335.2" fill="#E22424" rx="71.8" ry="34.3"/></g></g><g><g><ellipse cx="257.3" cy="335.2" fill="#FFFAFA" rx="52.5" ry="25.1"/></g></g><g><g><ellipse cx="257.3" cy="335.2" fill="#E22424" rx="48.3" ry="23.1"/></g></g><g><g><g><path d="M257.3,300.9c-2.9,0-5.8,0.1-8.6,0.3v6h17.7v-6C263.3,301,260.3,300.9,257.3,300.9z" fill="#FFFAFA"/></g></g><g><g><g><path d="M257.3,368.9c-2.9,0-5.8-0.1-8.6-0.3v16.8c2.8,0.2,5.7,0.3,8.6,0.3c3.1,0,6.1-0.1,9-0.3v-16.8          C263.3,368.8,260.3,368.9,257.3,368.9z" fill="#EFEDED"/></g></g><g><g><path d="M317.7,353.7c-3.3,2.4-7.1,4.6-11.5,6.6l0,0v16.1c4.4-2,8.3-4.2,11.5-6.6L317.7,353.7L317.7,353.7z" fill="#EFEDED"/></g></g><g><g><path d="M196.9,353.8L196.9,353.8l0,16.1c3.3,2.4,7.1,4.6,11.5,6.6v-16.1l0,0          C204,358.4,200.2,356.2,196.9,353.8z" fill="#EFEDED"/></g></g></g><g><g><path d="M208.5,310.1c-4.4,2-8.3,4.2-11.5,6.6l9.9,7.1l10-7.4L208.5,310.1z" fill="#FFFAFA"/></g></g><g><g><path d="M306.1,310.1l-8.4,6.3l10,7.4l9.9-7.1C314.4,314.2,310.5,312,306.1,310.1z" fill="#FFFAFA"/></g></g><g><g><path d="M248.6,362.1v7.2c2.8,0.2,5.7,0.3,8.6,0.3c3.1,0,6.1-0.1,9-0.3v-7.1H248.6z" fill="#FFFAFA"/></g></g><g><g><path d="M307.8,346.6l-10,7.4l8.4,6.3c4.4-2,8.3-4.2,11.5-6.6L307.8,346.6z" fill="#FFFAFA"/></g></g><g><g><path d="M206.8,346.6l-9.9,7.1c3.3,2.4,7.1,4.6,11.5,6.6l8.4-6.3L206.8,346.6z" fill="#FFFAFA"/></g></g></g></g><g><g><g><ellipse cx="254.8" cy="332.7" fill="#C61717" rx="71.8" ry="34.3"/></g></g><g><g><rect fill="#C61717" height="20" width="143.5" x="183" y="315"/></g></g><g><g><ellipse cx="254.8" cy="316.5" fill="#E22424" rx="71.8" ry="34.3"/></g></g><g><g><ellipse cx="254.8" cy="316.5" fill="#FFFAFA" rx="52.5" ry="25.1"/></g></g><g><g><ellipse cx="254.8" cy="316.5" fill="#E22424" rx="48.3" ry="23.1"/></g></g><g><g><g><path d="M254.8,282.2c-2.9,0-5.8,0.1-8.6,0.3v6h17.7v-6C260.9,282.3,257.9,282.2,254.8,282.2z" fill="#FFFAFA"/></g></g><g><g><g><path d="M254.8,350.2c-2.9,0-5.8-0.1-8.6-0.3v16.8c2.8,0.2,5.7,0.3,8.6,0.3c3.1,0,6.1-0.1,9-0.3V350          C260.9,350.1,257.9,350.2,254.8,350.2z" fill="#EFEDED"/></g></g><g><g><path d="M315.2,335.1c-3.3,2.4-7.1,4.6-11.5,6.6l0,0v16.1c4.4-2,8.3-4.2,11.5-6.6L315.2,335.1L315.2,335.1z" fill="#EFEDED"/></g></g><g><g><path d="M194.4,335.1L194.4,335.1l0,16.1c3.3,2.4,7.1,4.6,11.5,6.6v-16.1l0,0          C201.6,339.7,197.7,337.5,194.4,335.1z" fill="#EFEDED"/></g></g></g><g><g><path d="M206,291.4c-4.4,2-8.3,4.2-11.5,6.6l9.9,7.1l10-7.4L206,291.4z" fill="#FFFAFA"/></g></g><g><g><path d="M303.6,291.4l-8.4,6.3l10,7.4l9.9-7.1C311.9,295.6,308,293.4,303.6,291.4z" fill="#FFFAFA"/></g></g><g><g><path d="M246.2,343.4v7.2c2.8,0.2,5.7,0.3,8.6,0.3c3.1,0,6.1-0.1,9-0.3v-7.1H246.2z" fill="#FFFAFA"/></g></g><g><g><path d="M305.3,328l-10,7.4l8.4,6.3c4.4-2,8.3-4.2,11.5-6.6L305.3,328z" fill="#FFFAFA"/></g></g><g><g><path d="M204.4,328l-9.9,7.1c3.3,2.4,7.1,4.6,11.5,6.6l8.4-6.3L204.4,328z" fill="#FFFAFA"/></g></g></g></g><g><g><g><ellipse cx="259.7" cy="312.6" fill="#C61717" rx="71.8" ry="34.3"/></g></g><g><g><rect fill="#C61717" height="20" width="143.5" x="188" y="295"/></g></g><g><g><ellipse cx="259.7" cy="296.5" fill="#E22424" rx="71.8" ry="34.3"/></g></g><g><g><ellipse cx="259.7" cy="296.5" fill="#FFFAFA" rx="52.5" ry="25.1"/></g></g><g><g><ellipse cx="259.7" cy="296.5" fill="#E22424" rx="48.3" ry="23.1"/></g></g><g><g><g><path d="M259.7,262.2c-2.9,0-5.8,0.1-8.6,0.3v6h17.7v-6C265.8,262.3,262.8,262.2,259.7,262.2z" fill="#FFFAFA"/></g></g><g><g><g><path d="M259.7,330.2c-2.9,0-5.8-0.1-8.6-0.3v16.8c2.8,0.2,5.7,0.3,8.6,0.3c3.1,0,6.1-0.1,9-0.3v-16.8          C265.8,330.1,262.8,330.2,259.7,330.2z" fill="#EFEDED"/></g></g><g><g><path d="M320.1,315c-3.3,2.4-7.1,4.6-11.5,6.6l0,0v16.1c4.4-2,8.3-4.2,11.5-6.6L320.1,315L320.1,315z" fill="#EFEDED"/></g></g><g><g><path d="M199.4,315.1L199.4,315.1l0,16.1c3.3,2.4,7.1,4.6,11.5,6.6v-16.1l0,0          C206.5,319.7,202.6,317.5,199.4,315.1z" fill="#EFEDED"/></g></g></g><g><g><path d="M210.9,271.3c-4.4,2-8.3,4.2-11.5,6.6l9.9,7.1l10-7.4L210.9,271.3z" fill="#FFFAFA"/></g></g><g><g><path d="M308.6,271.4l-8.4,6.3l10,7.4l9.9-7.1C316.8,275.5,313,273.3,308.6,271.4z" fill="#FFFAFA"/></g></g><g><g><path d="M251.1,323.4v7.2c2.8,0.2,5.7,0.3,8.6,0.3c3.1,0,6.1-0.1,9-0.3v-7.1H251.1z" fill="#FFFAFA"/></g></g><g><g><path d="M310.2,307.9l-10,7.4l8.4,6.3c4.4-2,8.3-4.2,11.5-6.6L310.2,307.9z" fill="#FFFAFA"/></g></g><g><g><path d="M209.3,307.9l-9.9,7.1c3.3,2.4,7.1,4.6,11.5,6.6l8.4-6.3L209.3,307.9z" fill="#FFFAFA"/></g></g></g></g></g></g></g></svg>