<?xml version="1.0" ?><!DOCTYPE svg  PUBLIC '-//W3C//DTD SVG 1.1//EN'  'http://www.w3.org/Graphics/SVG/1.1/DTD/svg11.dtd'><svg enable-background="new 0 0 128 128" id="Layer_1" version="1.1" viewBox="0 0 128 128" xml:space="preserve" xmlns="http://www.w3.org/2000/svg" xmlns:xlink="http://www.w3.org/1999/xlink"><g><circle cx="64" cy="64" fill="#60A799" r="63.5"/><path d="M104.7,45.8L90.1,57l-27.9,5.9L36.8,90.8L36.7,91l36.2,35.9c29.4-4.2,52.4-28.5,54.4-58.6L104.7,45.8z" fill="#4B9183"/><g><polygon fill="#A41E23" points="66.7,73.5 83.3,82.2 82.8,55.4 60.7,46.8   "/><polygon fill="#CB3634" points="99.6,72.9 83.3,82.2 82.8,55.4 104.7,46   "/><polygon fill="#EB5F54" points="82.5,37.2 104.7,46 82.8,55.5 60.7,46.8   "/><polygon fill="#EB5F54" points="59.6,49.2 49.1,72.7 60.3,90.7 70,68.7   "/><polygon fill="#A41E23" points="49.1,72.7 23.3,73.2 36.8,90.8 60.3,90.7   "/><polygon fill="#CB3634" points="59.6,49.2 49.1,72.7 23.3,73.2 34.8,50.9   "/><ellipse cx="82.6" cy="42.4" fill="#FFFFFF" rx="4.1" ry="1.7" transform="matrix(-0.9998 1.743887e-002 -1.743887e-002 -0.9998 165.9601 83.3193)"/><ellipse cx="82.7" cy="49.4" fill="#FFFFFF" rx="4.1" ry="1.7" transform="matrix(-0.9998 1.768369e-002 -1.768369e-002 -0.9998 166.3368 97.2781)"/><ellipse cx="91.4" cy="45.5" fill="#FFFFFF" rx="4.1" ry="1.7" transform="matrix(-0.9998 1.745508e-002 -1.745508e-002 -0.9998 183.6762 89.4368)"/><ellipse cx="73.8" cy="45.8" fill="#FFFFFF" rx="4.1" ry="1.7" transform="matrix(-0.9998 1.756259e-002 -1.756259e-002 -0.9998 148.319 90.3576)"/><ellipse cx="37.9" cy="55.7" fill="#FFFFFF" rx="4.1" ry="1.7" transform="matrix(-0.8378 0.5459 -0.5459 -0.8378 100.1266 81.7241)"/><path d="M42,69.4c0.5,0.8,2.5,0.4,4.4-0.8c1.9-1.2,3-2.9,2.5-3.7c-0.5-0.8-2.5-0.4-4.4,0.8    C42.6,67,41.4,68.6,42,69.4z" fill="#FFFFFF"/><path d="M59.7,65.4c-1.5,0-2.7,1.9-2.5,4.4c0.1,2.5,1.5,4.5,3.1,4.5c1.5,0,2.7-2,2.5-4.4    C62.6,67.5,61.3,65.5,59.7,65.4z" fill="#FFFFFF"/><ellipse cx="50.7" cy="55.3" fill="#FFFFFF" rx="4.1" ry="1.7" transform="matrix(-0.8378 0.5459 -0.5459 -0.8378 123.2973 73.9379)"/><path d="M28.1,69.7c0.5,0.8,2.5,0.4,4.4-0.8c1.9-1.2,3-2.9,2.5-3.7c-0.5-0.8-2.5-0.4-4.4,0.8    C28.7,67.2,27.5,68.9,28.1,69.7z" fill="#FFFFFF"/><ellipse cx="41.1" cy="61.5" fill="#FFFFFF" rx="4.1" ry="1.7" transform="matrix(-0.8377 0.5461 -0.5461 -0.8377 109.1663 90.5316)"/><path d="M41,74.8c-0.5,0.9,0.8,2.4,2.9,3.4c2.1,1,4.1,1.1,4.6,0.2c0.5-0.9-0.8-2.4-2.9-3.4    C43.6,74,41.5,73.9,41,74.8z" fill="#FFFFFF"/><path d="M29.9,74.9c-0.5,0.9,0.8,2.4,2.9,3.4c2.1,1,4.1,1.1,4.6,0.2c0.5-0.9-0.8-2.4-2.9-3.4    C32.5,74.1,30.4,74,29.9,74.9z" fill="#FFFFFF"/><path d="M44,80.2c-0.5,0.9,0.8,2.4,2.9,3.4c2.1,1,4.1,1.1,4.6,0.2c0.5-0.9-0.8-2.4-2.9-3.4    C46.5,79.5,44.5,79.4,44,80.2z" fill="#FFFFFF"/><path d="M32.9,80.3c-0.5,0.9,0.8,2.4,2.9,3.4c2.1,1,4.1,1.1,4.6,0.2c0.5-0.9-0.8-2.4-2.9-3.4    C35.4,79.6,33.4,79.5,32.9,80.3z" fill="#FFFFFF"/><path d="M47.2,85.5c-0.5,0.9,0.8,2.4,2.9,3.4c2.1,1,4.1,1.1,4.6,0.2c0.5-0.9-0.8-2.4-2.9-3.4    C49.8,84.8,47.7,84.7,47.2,85.5z" fill="#FFFFFF"/><path d="M36.1,85.6C35.7,86.5,36.9,88,39,89c2.1,1,4.1,1.1,4.6,0.2c0.5-0.9-0.8-2.4-2.9-3.4    C38.7,84.9,36.6,84.8,36.1,85.6z" fill="#FFFFFF"/><path d="M95,59.5c0.9,0.4,2.6-1,3.9-3.1c1.3-2.1,1.6-4.2,0.7-4.6c-0.9-0.4-2.6,1-3.9,3.1    C94.5,57.1,94.2,59.1,95,59.5z" fill="#FFFFFF"/><path d="M68.8,59.7c0.9-0.7,0.8-3.1-0.3-5.3c-1-2.3-2.6-3.5-3.5-2.8c-0.9,0.7-0.8,3.1,0.3,5.3    C66.4,59.1,67.9,60.4,68.8,59.7z" fill="#FFFFFF"/><path d="M74.7,68.3c0.9-0.7,0.8-3.1-0.3-5.3c-1-2.3-2.6-3.5-3.5-2.8c-0.9,0.7-0.8,3.1,0.3,5.3    C72.2,67.7,73.8,69,74.7,68.3z" fill="#FFFFFF"/><path d="M80.9,77.8c0.9-0.7,0.8-3.1-0.3-5.3c-1-2.3-2.6-3.5-3.5-2.8c-0.9,0.7-0.8,3.1,0.3,5.3S80.1,78.5,80.9,77.8    z" fill="#FFFFFF"/><path d="M87,75.6c0.9,0.4,2.6-1,3.9-3.1c1.3-2.1,1.6-4.2,0.7-4.6c-0.9-0.4-2.6,1-3.9,3.1    C86.4,73.1,86.1,75.2,87,75.6z" fill="#FFFFFF"/></g></g></svg>