<?xml version="1.0" ?><!DOCTYPE svg  PUBLIC '-//W3C//DTD SVG 1.1//EN'  'http://www.w3.org/Graphics/SVG/1.1/DTD/svg11.dtd'><svg enable-background="new 0 0 512 512" height="512px" id="Layer_1" version="1.1" viewBox="0 0 512 512" width="512px" xml:space="preserve" xmlns="http://www.w3.org/2000/svg" xmlns:xlink="http://www.w3.org/1999/xlink"><g><g><g><path d="M256,7.9C119,7.9,7.9,119,7.9,256C7.9,393,119,504.1,256,504.1c137,0,248.1-111.1,248.1-248.1     C504.1,119,393,7.9,256,7.9z" fill="#45A445"/></g></g><g><g><path d="M256,7.9C119,7.9,7.9,119,7.9,256c0,26.7,4.2,52.4,12,76.4C76.5,399.8,161.2,442.6,256,442.6     c94.8,0,179.5-42.8,236.1-110.1c7.8-24.1,12-49.8,12-76.4C504.1,119,393,7.9,256,7.9z" fill="#45A445"/></g></g><g><g><g><g><path d="M290,156l-28.5,0c-1.9,0-3.4,1.5-3.4,3.4l-0.1,43.4c0,1.9,1.5,3.4,3.4,3.4l28.5,0.1       c1.9,0,3.4-1.5,3.4-3.4l0.1-43.4C293.4,157.6,291.9,156,290,156z" fill="#F4F4F4"/></g></g><g><g><g><g><path d="M264.8,162.3c-0.1-0.1-0.3-0.4-0.4-0.8l-1.8-4.2h-0.1l-1.8,4.1c-0.2,0.4-0.3,0.6-0.4,0.8         c-0.1,0.1-0.3,0.2-0.5,0.2l0,0.1l1.7,0v-0.1c-0.3,0-0.4-0.1-0.5-0.1c-0.1-0.1-0.2-0.2-0.2-0.3c0-0.1,0-0.2,0.1-0.4l0.2-0.5         l1.8,0l0.3,0.6c0.1,0.2,0.1,0.3,0.1,0.3c0,0,0,0.1,0,0.1c0,0.1,0,0.1-0.1,0.2c-0.1,0.1-0.2,0.1-0.4,0.1l-0.1,0l0,0.1l2.5,0         l0-0.1C265,162.4,264.9,162.4,264.8,162.3z M261.2,160.8l0.8-1.8l0.8,1.8L261.2,160.8z" fill="#D61E1E"/></g></g><g><g><path d="M264.3,164.4c0,0-1-0.9-1.7,0.7c-0.6-1.6-1.7-0.7-1.7-0.7c-1.4,1.2,1.5,3.6,1.7,3.7v0c0,0,0,0,0,0         c0,0,0,0,0,0v0C262.7,168.1,265.6,165.6,264.3,164.4z" fill="#D61E1E"/></g></g></g><g><g><g><path d="M289.9,199.2v0.1c0.3,0,0.4,0.1,0.5,0.1c0.1,0.1,0.2,0.2,0.2,0.3c0,0.1,0,0.2-0.1,0.4l-0.2,0.5         l-1.8,0l-0.3-0.6c-0.1-0.2-0.1-0.3-0.1-0.3c0,0,0-0.1,0-0.1c0-0.1,0-0.1,0.1-0.2c0.1-0.1,0.2-0.1,0.4-0.1l0.1,0v-0.1l-2.5,0         v0.1c0.2,0,0.3,0.1,0.4,0.1c0.1,0.1,0.3,0.4,0.4,0.8l1.8,4.2l0.1,0l1.8-4.1c0.2-0.4,0.3-0.6,0.4-0.8c0.1-0.1,0.3-0.2,0.5-0.2         v-0.1L289.9,199.2z M289.3,202.7l-0.8-1.8l1.5,0L289.3,202.7z" fill="#D61E1E"/></g></g><g><g><path d="M288.8,193.5L288.8,193.5C288.8,193.5,288.8,193.5,288.8,193.5C288.8,193.5,288.8,193.5,288.8,193.5         L288.8,193.5c-0.1,0.1-3.1,2.6-1.7,3.7c0,0,1,0.9,1.7-0.7c0.6,1.6,1.7,0.7,1.7,0.7C291.8,196.1,288.9,193.6,288.8,193.5z" fill="#D61E1E"/></g></g></g></g><g><g><path d="M283.7,172.8c0,0-5-4.4-8.1,3.4c-3.1-7.8-8.1-3.4-8.1-3.4c-6.5,5.5,7.4,17.4,8,17.9v0c0,0,0,0,0,0       c0,0,0,0,0,0v0C276.3,190.1,290.2,178.3,283.7,172.8z" fill="#D61E1E"/></g></g></g><g><g><g><path d="M250.6,156.2l-28.5-0.1c-1.9,0-3.4,1.5-3.4,3.4l-0.1,43.4c0,1.9,1.5,3.4,3.4,3.4l28.5,0       c1.9,0,3.4-1.5,3.4-3.4l0.1-43.4C254.1,157.7,252.5,156.2,250.6,156.2z" fill="#F4F4F4"/></g></g><g><g><g><rect fill="#AA0404" height="44.4" width="31.1" x="220.7" y="159"/></g></g><g><g><rect fill="#F4F4F4" height="40.1" width="26.9" x="222.8" y="161.1"/></g></g><g><g><g><g><g><g><rect fill="#AA0404" height="3.2" transform="matrix(0.7074 -0.7068 0.7068 0.7074 -49.4728 206.8074)" width="3.2" x="223.5" y="161.6"/></g></g><g><g><rect fill="#AA0404" height="3.2" transform="matrix(0.7073 -0.7069 0.7069 0.7073 -48.159 209.9993)" width="3.2" x="228" y="161.6"/></g></g><g><g><rect fill="#AA0404" height="3.2" transform="matrix(0.7073 -0.7069 0.7069 0.7073 -46.8478 213.1661)" width="3.2" x="232.4" y="161.6"/></g></g><g><g><rect fill="#AA0404" height="3.2" transform="matrix(0.7074 -0.7068 0.7068 0.7074 -45.5444 216.2974)" width="3.2" x="236.9" y="161.6"/></g></g><g><g><rect fill="#AA0404" height="3.2" transform="matrix(0.7073 -0.7069 0.7069 0.7073 -44.2276 219.4948)" width="3.2" x="241.4" y="161.6"/></g></g><g><g><rect fill="#AA0404" height="3.2" transform="matrix(0.7073 -0.7069 0.7069 0.7073 -42.9185 222.6568)" width="3.2" x="245.9" y="161.6"/></g></g></g><g><g><g><rect fill="#AA0404" height="3.2" transform="matrix(0.7073 -0.707 0.707 0.7073 -52.6453 208.185)" width="3.2" x="223.5" y="166.1"/></g></g><g><g><rect fill="#AA0404" height="3.2" transform="matrix(0.7072 -0.707 0.707 0.7072 -51.3311 211.378)" width="3.2" x="228" y="166.1"/></g></g><g><g><rect fill="#AA0404" height="3.2" transform="matrix(0.7072 -0.707 0.707 0.7072 -50.0192 214.5455)" width="3.2" x="232.4" y="166.1"/></g></g><g><g><rect fill="#AA0404" height="3.2" transform="matrix(0.7073 -0.707 0.707 0.7073 -48.7148 217.6771)" width="3.2" x="236.9" y="166.1"/></g></g><g><g><rect fill="#AA0404" height="3.2" transform="matrix(0.7072 -0.707 0.707 0.7072 -47.3976 220.8756)" width="3.2" x="241.4" y="166.1"/></g></g><g><g><rect fill="#AA0404" height="3.2" transform="matrix(0.7072 -0.707 0.707 0.7072 -46.0878 224.0383)" width="3.2" x="245.9" y="166.1"/></g></g></g></g><g><g><g><g><rect fill="#AA0404" height="3.2" transform="matrix(0.7073 -0.707 0.707 0.7073 -55.8273 209.5026)" width="3.2" x="223.5" y="170.6"/></g></g><g><g><rect fill="#AA0404" height="3.2" transform="matrix(0.7072 -0.707 0.707 0.7072 -54.5134 212.696)" width="3.2" x="228" y="170.6"/></g></g><g><g><rect fill="#AA0404" height="3.2" transform="matrix(0.7072 -0.707 0.707 0.7072 -53.2015 215.8635)" width="3.2" x="232.4" y="170.6"/></g></g><g><g><rect fill="#AA0404" height="3.2" transform="matrix(0.7073 -0.707 0.707 0.7073 -51.8967 218.9947)" width="3.2" x="236.9" y="170.6"/></g></g><g><g><rect fill="#AA0404" height="3.2" transform="matrix(0.7072 -0.707 0.707 0.7072 -50.5799 222.1936)" width="3.2" x="241.4" y="170.6"/></g></g><g><g><rect fill="#AA0404" height="3.2" transform="matrix(0.7072 -0.707 0.707 0.7072 -49.2701 225.3562)" width="3.2" x="245.9" y="170.6"/></g></g></g><g><g><g><rect fill="#AA0404" height="3.2" transform="matrix(0.7073 -0.7069 0.7069 0.7073 -59.0131 210.7892)" width="3.2" x="223.5" y="175.1"/></g></g><g><g><rect fill="#AA0404" height="3.2" transform="matrix(0.7073 -0.707 0.707 0.7073 -57.7 213.9826)" width="3.2" x="228" y="175.1"/></g></g><g><g><rect fill="#AA0404" height="3.2" transform="matrix(0.7073 -0.707 0.707 0.7073 -56.3885 217.1497)" width="3.2" x="232.4" y="175.1"/></g></g><g><g><rect fill="#AA0404" height="3.2" transform="matrix(0.7073 -0.7069 0.7069 0.7073 -55.0836 220.2803)" width="3.2" x="236.9" y="175.1"/></g></g><g><g><rect fill="#AA0404" height="3.2" transform="matrix(0.7073 -0.707 0.707 0.7073 -53.7676 223.4792)" width="3.2" x="241.4" y="175.1"/></g></g><g><g><rect fill="#AA0404" height="3.2" transform="matrix(0.7073 -0.707 0.707 0.7073 -52.4581 226.6414)" width="3.2" x="245.9" y="175.1"/></g></g></g></g></g><g><g><g><g><g><rect fill="#AA0404" height="3.2" transform="matrix(0.7071 -0.7071 0.7071 0.7071 -62.1846 212.2007)" width="3.2" x="223.5" y="179.6"/></g></g><g><g><rect fill="#AA0404" height="3.2" transform="matrix(0.707 -0.7072 0.7072 0.707 -60.8707 215.3955)" width="3.2" x="228" y="179.6"/></g></g><g><g><rect fill="#AA0404" height="3.2" transform="matrix(0.707 -0.7072 0.7072 0.707 -59.5582 218.5636)" width="3.2" x="232.4" y="179.6"/></g></g><g><g><rect fill="#AA0404" height="3.2" transform="matrix(0.7071 -0.7071 0.7071 0.7071 -58.252 221.6949)" width="3.2" x="236.9" y="179.6"/></g></g><g><g><rect fill="#AA0404" height="3.2" transform="matrix(0.707 -0.7072 0.7072 0.707 -56.9352 224.8952)" width="3.2" x="241.4" y="179.6"/></g></g><g><g><rect fill="#AA0404" height="3.2" transform="matrix(0.707 -0.7072 0.7072 0.707 -55.6247 228.0585)" width="3.2" x="245.9" y="179.6"/></g></g></g><g><g><g><rect fill="#AA0404" height="3.2" transform="matrix(0.7073 -0.7069 0.7069 0.7073 -65.3769 213.424)" width="3.2" x="223.5" y="184.1"/></g></g><g><g><rect fill="#AA0404" height="3.2" transform="matrix(0.7073 -0.707 0.707 0.7073 -64.0644 216.618)" width="3.2" x="228" y="184.1"/></g></g><g><g><rect fill="#AA0404" height="3.2" transform="matrix(0.7073 -0.707 0.707 0.7073 -62.753 219.7852)" width="3.2" x="232.4" y="184.1"/></g></g><g><g><rect fill="#AA0404" height="3.2" transform="matrix(0.7073 -0.7069 0.7069 0.7073 -61.4474 222.915)" width="3.2" x="236.9" y="184.1"/></g></g><g><g><rect fill="#AA0404" height="3.2" transform="matrix(0.7073 -0.707 0.707 0.7073 -60.132 226.1146)" width="3.2" x="241.4" y="184.1"/></g></g><g><g><rect fill="#AA0404" height="3.2" transform="matrix(0.7073 -0.707 0.707 0.7073 -58.8226 229.2769)" width="3.2" x="245.9" y="184.1"/></g></g></g></g><g><g><g><g><rect fill="#AA0404" height="3.2" transform="matrix(0.7073 -0.707 0.707 0.7073 -68.5562 214.7735)" width="3.2" x="223.5" y="188.6"/></g></g><g><g><rect fill="#AA0404" height="3.2" transform="matrix(0.7072 -0.707 0.707 0.7072 -67.2437 217.9682)" width="3.2" x="228" y="188.6"/></g></g><g><g><rect fill="#AA0404" height="3.2" transform="matrix(0.7072 -0.707 0.707 0.7072 -65.9319 221.1357)" width="3.2" x="232.4" y="188.6"/></g></g><g><g><rect fill="#AA0404" height="3.2" transform="matrix(0.7073 -0.707 0.707 0.7073 -64.6257 224.2656)" width="3.2" x="236.9" y="188.6"/></g></g><g><g><rect fill="#AA0404" height="3.2" transform="matrix(0.7072 -0.707 0.707 0.7072 -63.3102 227.4659)" width="3.2" x="241.4" y="188.6"/></g></g><g><g><rect fill="#AA0404" height="3.2" transform="matrix(0.7072 -0.707 0.707 0.7072 -62.0004 230.6285)" width="3.2" x="245.9" y="188.6"/></g></g></g><g><g><g><rect fill="#AA0404" height="3.2" transform="matrix(0.7072 -0.707 0.707 0.7072 -71.7358 216.1236)" width="3.2" x="223.5" y="193.1"/></g></g><g><g><rect fill="#AA0404" height="3.2" transform="matrix(0.7071 -0.7071 0.7071 0.7071 -70.4233 219.319)" width="3.2" x="228" y="193.1"/></g></g><g><g><rect fill="#AA0404" height="3.2" transform="matrix(0.7071 -0.7071 0.7071 0.7071 -69.1111 222.4868)" width="3.2" x="232.4" y="193.1"/></g></g><g><g><rect fill="#AA0404" height="3.2" transform="matrix(0.7072 -0.707 0.707 0.7072 -67.8043 225.6167)" width="3.2" x="236.9" y="193.1"/></g></g><g><g><rect fill="#AA0404" height="3.2" transform="matrix(0.7071 -0.7071 0.7071 0.7071 -66.4888 228.8176)" width="3.2" x="241.4" y="193.1"/></g></g><g><g><rect fill="#AA0404" height="3.2" transform="matrix(0.7071 -0.7071 0.7071 0.7071 -65.1787 231.9806)" width="3.2" x="245.9" y="193.1"/></g></g></g><g><g><g><rect fill="#AA0404" height="3.2" transform="matrix(0.7073 -0.707 0.707 0.7073 -74.9205 217.4089)" width="3.2" x="223.5" y="197.6"/></g></g><g><g><rect fill="#AA0404" height="3.2" transform="matrix(0.7072 -0.707 0.707 0.7072 -73.6087 220.6043)" width="3.2" x="228" y="197.6"/></g></g><g><g><rect fill="#AA0404" height="3.2" transform="matrix(0.7072 -0.707 0.707 0.7072 -72.2969 223.7718)" width="3.2" x="232.4" y="197.6"/></g></g><g><g><rect fill="#AA0404" height="3.2" transform="matrix(0.7073 -0.707 0.707 0.7073 -70.99 226.9009)" width="3.2" x="236.9" y="197.6"/></g></g><g><g><rect fill="#AA0404" height="3.2" transform="matrix(0.7072 -0.707 0.707 0.7072 -69.6753 230.1019)" width="3.2" x="241.4" y="197.6"/></g></g><g><g><rect fill="#AA0404" height="3.2" transform="matrix(0.7072 -0.707 0.707 0.7072 -68.3654 233.2645)" width="3.2" x="245.9" y="197.6"/></g></g></g></g></g></g></g></g></g><g><g><path d="M256,7.9c-80.8,0-152.6,38.6-197.8,98.4h395.7C408.5,46.5,336.8,7.9,256,7.9z" fill="#A56C42"/></g></g><g><g><g><g><circle cx="174.9" cy="69.2" fill="#7597DB" r="11.5"/></g></g><g><g><circle cx="174.9" cy="69.2" fill="#FFFFFF" r="7.9"/></g></g><g><g><circle cx="174.9" cy="69.2" fill="#7597DB" r="7.3"/></g></g><g><g><g><path d="M174.9,57.7c-0.7,0-1.4,0.1-2.1,0.2v2.8h4.3v-2.8C176.3,57.8,175.6,57.7,174.9,57.7z" fill="#F0F2F2"/></g></g><g><g><path d="M172.7,77.6v2.9c0.7,0.1,1.4,0.2,2.1,0.2c0.7,0,1.4-0.1,2.1-0.2v-2.9H172.7z" fill="#F0F2F2"/></g></g><g><g><path d="M183.4,61.5L181,63l2.2,3.6l2.4-1.5C185.1,63.8,184.3,62.6,183.4,61.5z" fill="#F0F2F2"/></g></g><g><g><path d="M166.6,71.7l-2.5,1.5c0.5,1.4,1.3,2.6,2.2,3.6l2.5-1.5L166.6,71.7z" fill="#F0F2F2"/></g></g><g><g><path d="M183.2,71.7l-2.2,3.6l2.5,1.5c0.9-1.1,1.7-2.3,2.2-3.6L183.2,71.7z" fill="#F0F2F2"/></g></g><g><g><path d="M166.3,61.5c-0.9,1.1-1.7,2.3-2.2,3.6l2.4,1.5l2.2-3.6L166.3,61.5z" fill="#F0F2F2"/></g></g></g></g><g><g><g><circle cx="202.4" cy="69.2" fill="#D61E1E" r="11.5"/></g></g><g><g><circle cx="202.4" cy="69.2" fill="#FFFFFF" r="7.9"/></g></g><g><g><circle cx="202.4" cy="69.2" fill="#D61E1E" r="7.3"/></g></g><g><g><g><path d="M202.4,57.7c-0.7,0-1.4,0.1-2.1,0.2v2.8h4.3v-2.8C203.8,57.8,203.1,57.7,202.4,57.7z" fill="#F0F2F2"/></g></g><g><g><path d="M200.2,77.6v2.9c0.7,0.1,1.4,0.2,2.1,0.2c0.7,0,1.4-0.1,2.1-0.2v-2.9H200.2z" fill="#F0F2F2"/></g></g><g><g><path d="M210.9,61.5l-2.4,1.5l2.2,3.6l2.4-1.5C212.6,63.8,211.8,62.6,210.9,61.5z" fill="#F0F2F2"/></g></g><g><g><path d="M194.1,71.7l-2.5,1.5c0.5,1.4,1.3,2.6,2.2,3.6l2.5-1.5L194.1,71.7z" fill="#F0F2F2"/></g></g><g><g><path d="M210.7,71.7l-2.2,3.6l2.5,1.5c0.9-1.1,1.7-2.3,2.2-3.6L210.7,71.7z" fill="#F0F2F2"/></g></g><g><g><path d="M193.8,61.5c-0.9,1.1-1.7,2.3-2.2,3.6l2.4,1.5l2.2-3.6L193.8,61.5z" fill="#F0F2F2"/></g></g></g></g><g><g><g><circle cx="229.8" cy="69.2" fill="#3E60B5" r="11.5"/></g></g><g><g><circle cx="229.8" cy="69.2" fill="#FFFFFF" r="7.9"/></g></g><g><g><circle cx="229.8" cy="69.2" fill="#3E60B5" r="7.3"/></g></g><g><g><g><path d="M229.8,57.7c-0.7,0-1.4,0.1-2.1,0.2v2.8h4.3v-2.8C231.3,57.8,230.6,57.7,229.8,57.7z" fill="#F0F2F2"/></g></g><g><g><path d="M227.7,77.6v2.9c0.7,0.1,1.4,0.2,2.1,0.2c0.7,0,1.4-0.1,2.1-0.2v-2.9H227.7z" fill="#F0F2F2"/></g></g><g><g><path d="M238.4,61.5l-2.4,1.5l2.2,3.6l2.4-1.5C240.1,63.8,239.3,62.6,238.4,61.5z" fill="#F0F2F2"/></g></g><g><g><path d="M221.5,71.7l-2.5,1.5c0.5,1.4,1.3,2.6,2.2,3.6l2.5-1.5L221.5,71.7z" fill="#F0F2F2"/></g></g><g><g><path d="M238.2,71.7l-2.2,3.6l2.5,1.5c0.9-1.1,1.7-2.3,2.2-3.6L238.2,71.7z" fill="#F0F2F2"/></g></g><g><g><path d="M221.3,61.5c-0.9,1.1-1.7,2.3-2.2,3.6l2.4,1.5l2.2-3.6L221.3,61.5z" fill="#F0F2F2"/></g></g></g></g><g><g><g><circle cx="257.3" cy="69.2" fill="#CCAA05" r="11.5"/></g></g><g><g><circle cx="257.3" cy="69.2" fill="#FFFFFF" r="7.9"/></g></g><g><g><circle cx="257.3" cy="69.2" fill="#CCAA05" r="7.3"/></g></g><g><g><g><path d="M257.3,57.7c-0.7,0-1.4,0.1-2.1,0.2v2.8h4.3v-2.8C258.8,57.8,258.1,57.7,257.3,57.7z" fill="#F0F2F2"/></g></g><g><g><path d="M255.2,77.6v2.9c0.7,0.1,1.4,0.2,2.1,0.2c0.7,0,1.4-0.1,2.1-0.2v-2.9H255.2z" fill="#F0F2F2"/></g></g><g><g><path d="M265.9,61.5l-2.4,1.5l2.2,3.6l2.4-1.5C267.6,63.8,266.8,62.6,265.9,61.5z" fill="#F0F2F2"/></g></g><g><g><path d="M249,71.7l-2.5,1.5c0.5,1.4,1.3,2.6,2.2,3.6l2.5-1.5L249,71.7z" fill="#F0F2F2"/></g></g><g><g><path d="M265.6,71.7l-2.2,3.6l2.5,1.5c0.9-1.1,1.7-2.3,2.2-3.6L265.6,71.7z" fill="#F0F2F2"/></g></g><g><g><path d="M248.8,61.5c-0.9,1.1-1.7,2.3-2.2,3.6l2.4,1.5l2.2-3.6L248.8,61.5z" fill="#F0F2F2"/></g></g></g></g><g><g><g><circle cx="283.7" cy="69.2" fill="#B23FA7" r="11.5"/></g></g><g><g><circle cx="283.7" cy="69.2" fill="#FFFFFF" r="7.9"/></g></g><g><g><circle cx="283.7" cy="69.2" fill="#B23FA7" r="7.3"/></g></g><g><g><g><path d="M283.7,57.7c-0.7,0-1.4,0.1-2.1,0.2v2.8h4.3v-2.8C285.2,57.8,284.5,57.7,283.7,57.7z" fill="#F0F2F2"/></g></g><g><g><path d="M281.6,77.6v2.9c0.7,0.1,1.4,0.2,2.1,0.2c0.7,0,1.4-0.1,2.1-0.2v-2.9H281.6z" fill="#F0F2F2"/></g></g><g><g><path d="M292.3,61.5l-2.4,1.5l2.2,3.6l2.4-1.5C294,63.8,293.2,62.6,292.3,61.5z" fill="#F0F2F2"/></g></g><g><g><path d="M275.4,71.7l-2.5,1.5c0.5,1.4,1.3,2.6,2.2,3.6l2.5-1.5L275.4,71.7z" fill="#F0F2F2"/></g></g><g><g><path d="M292,71.7l-2.2,3.6l2.5,1.5c0.9-1.1,1.7-2.3,2.2-3.6L292,71.7z" fill="#F0F2F2"/></g></g><g><g><path d="M275.2,61.5c-0.9,1.1-1.7,2.3-2.2,3.6l2.4,1.5l2.2-3.6L275.2,61.5z" fill="#F0F2F2"/></g></g></g></g><g><g><g><circle cx="311.2" cy="69.2" fill="#1FAF1B" r="11.5"/></g></g><g><g><circle cx="311.2" cy="69.2" fill="#FFFFFF" r="7.9"/></g></g><g><g><circle cx="311.2" cy="69.2" fill="#1FAF1B" r="7.3"/></g></g><g><g><g><path d="M311.2,57.7c-0.7,0-1.4,0.1-2.1,0.2v2.8h4.3v-2.8C312.7,57.8,311.9,57.7,311.2,57.7z" fill="#F0F2F2"/></g></g><g><g><path d="M309.1,77.6v2.9c0.7,0.1,1.4,0.2,2.1,0.2c0.7,0,1.4-0.1,2.1-0.2v-2.9H309.1z" fill="#F0F2F2"/></g></g><g><g><path d="M319.7,61.5l-2.4,1.5l2.2,3.6l2.4-1.5C321.4,63.8,320.7,62.6,319.7,61.5z" fill="#F0F2F2"/></g></g><g><g><path d="M302.9,71.7l-2.5,1.5c0.5,1.4,1.3,2.6,2.2,3.6l2.5-1.5L302.9,71.7z" fill="#F0F2F2"/></g></g><g><g><path d="M319.5,71.7l-2.2,3.6l2.5,1.5c0.9-1.1,1.7-2.3,2.2-3.6L319.5,71.7z" fill="#F0F2F2"/></g></g><g><g><path d="M302.7,61.5c-0.9,1.1-1.7,2.3-2.2,3.6l2.4,1.5l2.2-3.6L302.7,61.5z" fill="#F0F2F2"/></g></g></g></g><g><g><g><circle cx="337.3" cy="69.2" fill="#4C4C4C" r="11.5"/></g></g><g><g><circle cx="337.3" cy="69.2" fill="#FFFFFF" r="7.9"/></g></g><g><g><circle cx="337.3" cy="69.2" fill="#4C4C4C" r="7.3"/></g></g><g><g><g><path d="M337.3,57.7c-0.7,0-1.4,0.1-2.1,0.2v2.8h4.3v-2.8C338.7,57.8,338,57.7,337.3,57.7z" fill="#F0F2F2"/></g></g><g><g><path d="M335.1,77.6v2.9c0.7,0.1,1.4,0.2,2.1,0.2c0.7,0,1.4-0.1,2.1-0.2v-2.9H335.1z" fill="#F0F2F2"/></g></g><g><g><path d="M345.8,61.5l-2.4,1.5l2.2,3.6l2.4-1.5C347.5,63.8,346.7,62.6,345.8,61.5z" fill="#F0F2F2"/></g></g><g><g><path d="M329,71.7l-2.5,1.5c0.5,1.4,1.3,2.6,2.2,3.6l2.5-1.5L329,71.7z" fill="#F0F2F2"/></g></g><g><g><path d="M345.6,71.7l-2.2,3.6l2.5,1.5c0.9-1.1,1.7-2.3,2.2-3.6L345.6,71.7z" fill="#F0F2F2"/></g></g><g><g><path d="M328.7,61.5c-0.9,1.1-1.7,2.3-2.2,3.6l2.4,1.5l2.2-3.6L328.7,61.5z" fill="#F0F2F2"/></g></g></g></g></g><g><g><g><g><g><path d="M269.3,352.1h-27c-1.8,0-3.2,1.4-3.2,3.2v41c0,1.8,1.4,3.2,3.2,3.2h27c1.8,0,3.2-1.4,3.2-3.2v-41        C272.6,353.5,271.1,352.1,269.3,352.1z" fill="#FFFFFF"/></g></g><g><g><path d="M359.6,379.9l-12.5-39c-0.5-1.7-2.4-2.6-4.1-2.1l-25.7,8.2c-1.7,0.5-2.6,2.4-2.1,4.1l12.5,39        c0.5,1.7,2.4,2.6,4.1,2.1l25.7-8.2C359.2,383.4,360.1,381.6,359.6,379.9z" fill="#FFFFFF"/></g></g><g><g><path d="M434.8,337.9l-24.9-32.6c-1.1-1.4-3.1-1.7-4.5-0.6l-21.4,16.4c-1.4,1.1-1.7,3.1-0.6,4.5l24.9,32.6        c1.1,1.4,3.1,1.7,4.5,0.6l21.4-16.4C435.6,341.3,435.9,339.3,434.8,337.9z" fill="#FFFFFF"/></g></g><g><g><path d="M482.9,276.6l-35.1-21.1c-1.5-0.9-3.5-0.4-4.4,1.1l-13.9,23.1c-0.9,1.5-0.4,3.5,1.1,4.4l35.1,21.1        c1.5,0.9,3.5,0.4,4.4-1.1l13.9-23.1C485,279.5,484.5,277.5,482.9,276.6z" fill="#FFFFFF"/></g></g></g><g><g><g><path d="M194.7,347l-25.7-8.2c-1.7-0.5-3.5,0.4-4.1,2.1l-12.5,39c-0.5,1.7,0.4,3.5,2.1,4.1l25.7,8.2        c1.7,0.5,3.5-0.4,4.1-2.1l12.5-39C197.3,349.4,196.4,347.6,194.7,347z" fill="#FFFFFF"/></g></g><g><g><path d="M128.1,321.1l-21.4-16.4c-1.4-1.1-3.5-0.8-4.5,0.6l-24.9,32.6c-1.1,1.4-0.8,3.5,0.6,4.5l21.4,16.4        c1.4,1.1,3.5,0.8,4.5-0.6l24.9-32.6C129.8,324.2,129.5,322.2,128.1,321.1z" fill="#FFFFFF"/></g></g><g><g><path d="M82.5,279.7l-13.9-23.1c-0.9-1.5-2.9-2-4.4-1.1l-35.1,21.1c-1.5,0.9-2,2.9-1.1,4.4l13.9,23.1        c0.9,1.5,2.9,2,4.4,1.1l35.1-21.1C82.9,283.3,83.4,281.3,82.5,279.7z" fill="#FFFFFF"/></g></g></g></g><g><g><g><g><path d="M400.9,291.5l-25.2-34c-1.1-1.5-3.2-1.8-4.7-0.7l-22.4,16.6c-1.5,1.1-1.8,3.2-0.7,4.7l25.2,34        c1.1,1.5,3.2,1.8,4.7,0.7l22.4-16.6C401.6,295,402,292.9,400.9,291.5z" fill="#DDDBDB"/></g></g><g><g><g><path d="M381.2,279.7C381.2,279.7,381.2,279.7,381.2,279.7C381.2,279.7,381.2,279.7,381.2,279.7L381.2,279.7         c-5.7,0.9-13.3-3.7-13.3-3.7s1.9,8.5-0.4,13.8l0,0c0,0,0,0,0,0c0,0,0,0,0,0l0,0c5.7-0.6,13.3,3.6,13.3,3.6         S378.7,284.9,381.2,279.7L381.2,279.7z" fill="#D61E1E"/></g></g><g><g><g><path d="M357,279.8C357,279.8,357,279.8,357,279.8C357,279.8,357,279.8,357,279.8L357,279.8          c-1.2,0.2-2.8-0.8-2.8-0.8s0.4,1.8-0.1,2.9l0,0c0,0,0,0,0,0c0,0,0,0,0,0l0,0c1.2-0.1,2.8,0.8,2.8,0.8S356.5,280.9,357,279.8          L357,279.8z" fill="#D61E1E"/></g></g><g><g><path d="M354.5,276.4l-1.7,1.3l0,0l0.2-0.7c0.2-1.1,0.3-2.1-0.2-2.8c-0.6-0.8-1.6-1-2.6-0.2          c-0.6,0.4-1,1-1.1,1.5l0.9,0.5c0.1-0.3,0.3-0.8,0.7-1.1c0.5-0.4,0.9-0.3,1.2,0.1c0.4,0.5,0.3,1.4-0.1,3l-0.2,0.9l0.5,0.6          l3.2-2.4L354.5,276.4z" fill="#D61E1E"/></g></g></g><g><g><g><path d="M394.6,287.3C394.6,287.3,394.6,287.3,394.6,287.3C394.6,287.3,394.6,287.3,394.6,287.3L394.6,287.3          c-1.2,0.1-2.8-0.8-2.8-0.8s0.5,1.8-0.1,2.9l0,0c0,0,0,0,0,0c0,0,0,0,0,0l0,0c1.2-0.2,2.8,0.8,2.8,0.8          S394.1,288.5,394.6,287.3L394.6,287.3z" fill="#D61E1E"/></g></g><g><g><path d="M398.8,293.3c-0.1,0.3-0.3,0.8-0.7,1.1c-0.5,0.4-0.9,0.3-1.2-0.1c-0.4-0.5-0.3-1.4,0.1-3l0.2-0.9          l-0.5-0.6l-3.2,2.4l0.6,0.9l1.7-1.3l0,0l-0.2,0.7c-0.2,1.1-0.3,2.1,0.2,2.8c0.6,0.8,1.6,1,2.6,0.2c0.6-0.4,1-1,1.1-1.5          L398.8,293.3z" fill="#D61E1E"/></g></g></g></g></g><g><g><g><path d="M392.9,279.1l-27.7-32c-1.2-1.4-3.3-1.6-4.7-0.3l-21.1,18.2c-1.4,1.2-1.6,3.3-0.3,4.7l27.7,32        c1.2,1.4,3.3,1.6,4.7,0.3l21.1-18.2C394,282.6,394.1,280.5,392.9,279.1z" fill="#FFFFFF"/></g></g><g><g><g><path d="M372.5,268.8L372.5,268.8C372.5,268.8,372.5,268.8,372.5,268.8C372.5,268.8,372.5,268.8,372.5,268.8         L372.5,268.8c-5.6,1.3-13.5-2.7-13.5-2.7s2.5,8.4,0.6,13.8l0,0c0,0,0,0,0,0c0,0,0,0,0,0l0,0c5.6-1.1,13.5,2.6,13.5,2.6         S370.3,274.1,372.5,268.8z" fill="#D61E1E"/></g></g><g><g><g><path d="M346.3,267.3c-0.1,0.1-0.2,0.1-0.4,0.1c-0.1,0-0.4-0.1-0.8-0.3l-4-1.9l-0.1,0l1.3,4.2          c0.1,0.4,0.2,0.7,0.2,0.8c0,0.2-0.1,0.3-0.2,0.5l0.1,0.1l1.3-1.1l-0.1-0.1c-0.2,0.2-0.4,0.2-0.4,0.3c-0.1,0-0.2,0-0.3-0.1          c-0.1-0.1-0.1-0.2-0.2-0.4l-0.2-0.5l1.3-1.2l0.6,0.3c0.2,0.1,0.2,0.1,0.3,0.1c0,0,0.1,0.1,0.1,0.1c0,0.1,0.1,0.1,0,0.2          c0,0.1-0.1,0.2-0.3,0.3l-0.1,0.1l0.1,0.1l1.8-1.6L346.3,267.3z M342.4,268.6l-0.5-1.8l1.7,0.8L342.4,268.6z" fill="#D61E1E"/></g></g><g><g><path d="M348.3,270.7L348.3,270.7C348.3,270.6,348.3,270.6,348.3,270.7C348.3,270.6,348.3,270.6,348.3,270.7          L348.3,270.7c-1.2,0.3-2.8-0.6-2.8-0.6s0.5,1.7,0.1,2.9l0,0c0,0,0,0,0,0c0,0,0,0,0,0l0,0c1.2-0.2,2.8,0.6,2.8,0.6          S347.9,271.8,348.3,270.7z" fill="#D61E1E"/></g></g></g><g><g><g><path d="M389.4,279c-0.1-0.4-0.2-0.7-0.2-0.8c0-0.2,0.1-0.3,0.2-0.5l-0.1-0.1l-1.3,1.1l0.1,0.1          c0.2-0.2,0.4-0.2,0.4-0.3c0.1,0,0.2,0,0.3,0.1c0.1,0.1,0.1,0.2,0.2,0.4l0.2,0.5l-1.3,1.2l-0.6-0.3c-0.2-0.1-0.2-0.1-0.3-0.1          c0,0-0.1-0.1-0.1-0.1c0-0.1-0.1-0.1,0-0.2c0-0.1,0.1-0.2,0.3-0.3l0.1-0.1l-0.1-0.1l-1.8,1.6l0.1,0.1          c0.1-0.1,0.2-0.1,0.4-0.1c0.2,0,0.4,0.1,0.8,0.3l4,1.9l0.1,0L389.4,279z M388.2,280.8l1.1-1l0.5,1.8L388.2,280.8z" fill="#D61E1E"/></g></g><g><g><path d="M386.4,275.4L386.4,275.4L386.4,275.4C386.4,275.4,386.4,275.4,386.4,275.4L386.4,275.4          c-1.2,0.2-2.8-0.6-2.8-0.6s0.6,1.8,0.1,2.9l0,0h0v0l0,0c1.2-0.3,2.8,0.6,2.8,0.6S386,276.6,386.4,275.4z" fill="#D61E1E"/></g></g></g></g></g></g><g><g><g><circle cx="408.7" cy="331.1" fill="#4C4C4C" r="11.5"/></g></g><g><g><circle cx="408.7" cy="331.1" fill="#FFFFFF" r="7.9"/></g></g><g><g><circle cx="408.7" cy="331.1" fill="#4C4C4C" r="7.3"/></g></g><g><g><g><path d="M408.7,319.7c-0.7,0-1.4,0.1-2.1,0.2v2.8h4.3v-2.8C410.2,319.7,409.4,319.7,408.7,319.7z" fill="#F0F2F2"/></g></g><g><g><path d="M406.6,339.5v2.9c0.7,0.1,1.4,0.2,2.1,0.2c0.7,0,1.4-0.1,2.1-0.2v-2.9H406.6z" fill="#F0F2F2"/></g></g><g><g><path d="M417.2,323.4l-2.4,1.5l2.2,3.6l2.4-1.5C418.9,325.7,418.2,324.5,417.2,323.4z" fill="#F0F2F2"/></g></g><g><g><path d="M400.4,333.7l-2.5,1.5c0.5,1.4,1.3,2.6,2.2,3.6l2.5-1.5L400.4,333.7z" fill="#F0F2F2"/></g></g><g><g><path d="M417,333.6l-2.2,3.6l2.5,1.5c0.9-1.1,1.7-2.3,2.2-3.6L417,333.6z" fill="#F0F2F2"/></g></g><g><g><path d="M400.2,323.5c-0.9,1.1-1.7,2.3-2.2,3.6l2.4,1.5l2.2-3.6L400.2,323.5z" fill="#F0F2F2"/></g></g></g></g><g><g><g><circle cx="338.2" cy="367" fill="#3E60B5" r="11.5"/></g></g><g><g><circle cx="338.2" cy="367" fill="#FFFFFF" r="7.9"/></g></g><g><g><circle cx="338.2" cy="367" fill="#3E60B5" r="7.3"/></g></g><g><g><g><path d="M338.2,355.5c-0.7,0-1.4,0.1-2.1,0.2v2.8h4.3v-2.8C339.6,355.6,338.9,355.5,338.2,355.5z" fill="#F0F2F2"/></g></g><g><g><path d="M336,375.4v2.9c0.7,0.1,1.4,0.2,2.1,0.2c0.7,0,1.4-0.1,2.1-0.2v-2.9H336z" fill="#F0F2F2"/></g></g><g><g><path d="M346.7,359.3l-2.4,1.5l2.2,3.6l2.4-1.5C348.4,361.6,347.6,360.4,346.7,359.3z" fill="#F0F2F2"/></g></g><g><g><path d="M329.9,369.5l-2.5,1.5c0.5,1.4,1.3,2.6,2.2,3.6l2.5-1.5L329.9,369.5z" fill="#F0F2F2"/></g></g><g><g><path d="M346.5,369.5l-2.2,3.6l2.5,1.5c0.9-1.1,1.7-2.3,2.2-3.6L346.5,369.5z" fill="#F0F2F2"/></g></g><g><g><path d="M329.6,359.3c-0.9,1.1-1.7,2.3-2.2,3.6l2.4,1.5l2.2-3.6L329.6,359.3z" fill="#F0F2F2"/></g></g></g></g><g><g><g><g><path d="M345.1,328.7l-14.2-39c-0.6-1.7-2.5-2.6-4.2-2l-25.6,9.4c-1.7,0.6-2.6,2.5-2,4.2l14.2,39        c0.6,1.7,2.5,2.6,4.2,2l25.6-9.4C344.8,332.2,345.7,330.4,345.1,328.7z" fill="#DDDBDB"/></g></g><g><g><g><g><path d="M306.8,306.7c0.5-0.2,0.7-0.7,0.5-1.2c-0.2-0.5-0.7-0.7-1.2-0.5c-0.2,0.1-0.4,0.2-0.5,0.4l-0.1-0.1          c0.2-0.2,0.3-0.6,0.1-0.9c-0.2-0.5-0.7-0.7-1.2-0.5c-0.5,0.2-0.7,0.7-0.5,1.2c0.1,0.3,0.4,0.5,0.7,0.6l0,0.1          c-0.2-0.1-0.4-0.1-0.7,0c-0.5,0.2-0.7,0.7-0.5,1.2c0.2,0.5,0.7,0.7,1.2,0.5c0.4-0.1,0.6-0.5,0.6-0.9l0.2-0.1          c0.3,1-0.1,1.7-0.1,1.7l1.5-0.6c0,0-0.8-0.3-1.2-1.2l0.2-0.1C306,306.7,306.4,306.8,306.8,306.7z" fill="#3A3A3A"/></g></g><g><g><g><polygon fill="#3A3A3A" points="301.9,298.4 301,298.7 300,299.7 300.4,300.4 301.2,299.7 301.2,299.7 302.5,303.4            303.6,303          "/></g></g><g><g><path d="M306.7,299.2c-0.5-1.3-1.4-2.2-2.6-1.8c-1.2,0.4-1.4,1.7-0.9,3c0.5,1.3,1.4,2.2,2.6,1.8           C307,301.8,307.3,300.6,306.7,299.2z M305.6,301.4c-0.4,0.2-0.9-0.3-1.2-1.3c-0.4-1.1-0.3-1.7,0.1-1.8           c0.4-0.2,0.9,0.3,1.2,1.3C306,300.7,306,301.3,305.6,301.4z" fill="#3A3A3A"/></g></g></g></g><g><g><g><path d="M340,323.9c0.5-0.2,0.7-0.7,0.5-1.2c-0.2-0.5-0.7-0.7-1.2-0.5c-0.4,0.1-0.6,0.5-0.6,0.9l-0.2,0.1          c-0.3-1,0.1-1.7,0.1-1.7l-1.5,0.6c0,0,0.8,0.3,1.2,1.2l-0.2,0.1c-0.2-0.3-0.6-0.4-1-0.3c-0.5,0.2-0.7,0.7-0.5,1.2          c0.2,0.5,0.7,0.7,1.2,0.5c0.2-0.1,0.4-0.2,0.5-0.4l0.1,0.1c-0.2,0.2-0.3,0.6-0.1,0.9c0.2,0.5,0.7,0.7,1.2,0.5          c0.5-0.2,0.7-0.7,0.5-1.2c-0.1-0.3-0.4-0.5-0.7-0.6l0-0.1C339.5,323.9,339.7,323.9,340,323.9z" fill="#3A3A3A"/></g></g><g><g><g><polygon fill="#3A3A3A" points="343.8,328.5 343.1,329.2 343.1,329.2 341.8,325.6 340.7,325.9 342.4,330.6 343.3,330.3            344.3,329.2          "/></g></g><g><g><path d="M340.9,328.5c-0.5-1.3-1.4-2.2-2.6-1.8c-1.2,0.4-1.4,1.6-0.9,3.1c0.5,1.3,1.4,2.2,2.6,1.8           C341.3,331.1,341.4,329.8,340.9,328.5z M339.8,330.7c-0.4,0.2-0.9-0.3-1.2-1.3c-0.4-1.1-0.3-1.7,0.1-1.8           c0.4-0.2,0.9,0.3,1.2,1.3C340.3,330,340.2,330.6,339.8,330.7z" fill="#3A3A3A"/></g></g></g></g></g><g><g><path d="M319.4,327.8c1-0.4,1.5-1.4,1.1-2.4c-0.4-1-1.4-1.5-2.4-1.1c-0.8,0.3-1.3,1.1-1.2,1.9l-0.3,0.1        c-0.7-2,0.3-3.5,0.3-3.5l-3.1,1.1c0,0,1.7,0.6,2.5,2.5l-0.3,0.1c-0.5-0.6-1.3-0.9-2.1-0.6c-1,0.4-1.5,1.4-1.1,2.4        c0.4,1,1.4,1.5,2.4,1.1c0.5-0.2,0.8-0.5,1-0.9l0.2,0.2c-0.4,0.5-0.5,1.2-0.3,1.8c0.4,1,1.4,1.5,2.4,1.1c1-0.4,1.5-1.4,1.1-2.4        c-0.2-0.6-0.8-1.1-1.4-1.2l0-0.2C318.5,327.9,319,328,319.4,327.8z" fill="#3A3A3A"/></g></g><g><g><path d="M335.4,322.2c1-0.4,1.5-1.4,1.1-2.4c-0.4-1-1.4-1.5-2.4-1.1c-0.8,0.3-1.3,1.1-1.2,1.9l-0.3,0.1        c-0.7-2,0.3-3.5,0.3-3.5l-3.1,1.1c0,0,1.7,0.6,2.5,2.5l-0.3,0.1c-0.5-0.6-1.3-0.9-2.1-0.6c-1,0.4-1.5,1.4-1.1,2.4        c0.4,1,1.4,1.5,2.4,1.1c0.5-0.2,0.8-0.5,1-0.9l0.2,0.2c-0.4,0.5-0.5,1.2-0.3,1.8c0.4,1,1.4,1.5,2.4,1.1c1-0.4,1.5-1.4,1.1-2.4        c-0.2-0.6-0.8-1.1-1.4-1.2l0-0.2C334.4,322.3,334.9,322.3,335.4,322.2z" fill="#3A3A3A"/></g></g><g><g><path d="M326,320.9c1-0.4,1.5-1.4,1.1-2.4c-0.4-1-1.4-1.5-2.4-1.1c-0.8,0.3-1.3,1.1-1.2,1.9l-0.3,0.1        c-0.7-2,0.3-3.5,0.3-3.5l-3.1,1.1c0,0,1.7,0.6,2.5,2.5l-0.3,0.1c-0.5-0.6-1.3-0.9-2.1-0.6c-1,0.4-1.5,1.4-1.1,2.4        c0.4,1,1.4,1.5,2.4,1.1c0.5-0.2,0.8-0.5,1-0.9l0.2,0.2c-0.4,0.5-0.5,1.2-0.3,1.8c0.4,1,1.4,1.5,2.4,1.1c1-0.4,1.5-1.4,1.1-2.4        c-0.2-0.6-0.8-1.1-1.4-1.2l0-0.2C325,321.1,325.5,321.1,326,320.9z" fill="#3A3A3A"/></g></g></g><g><g><g><path d="M339.8,313l-13.9-39.7c-0.6-1.7-2.5-2.6-4.2-2l-26.1,9.1c-1.7,0.6-2.6,2.5-2,4.2l13.9,39.7        c0.6,1.7,2.5,2.6,4.2,2l26.1-9.1C339.4,316.6,340.4,314.8,339.8,313z" fill="#FFFFFF"/></g></g><g><g><g><g><path d="M300.9,287.2c0,0-1.2-0.5-1.3,1.2c-1.1-1.3-1.8-0.1-1.8-0.1c-0.9,1.5,2.6,2.8,2.7,2.9l0,0          c0,0,0,0,0,0c0,0,0,0,0,0l0,0C300.6,291.1,302.5,287.9,300.9,287.2z" fill="#D61E1E"/></g></g><g><g><path d="M300.8,284.7l-0.3-0.9l-0.6,0.2l-1.1-3.1l-1.5,0.5l-0.9,3.9l0.3,0.8l2.4-0.8l0.4,1.3l1.2-0.4          l-0.4-1.3L300.8,284.7z M297.4,284.8L297.4,284.8l0.3-1.4c0.1-0.4,0.1-0.8,0.2-1.2l0,0c0.1,0.3,0.2,0.7,0.3,1l0.4,1.2          L297.4,284.8z" fill="#D61E1E"/></g></g></g><g><g><g><path d="M332.6,305.9L332.6,305.9C332.6,305.9,332.6,305.9,332.6,305.9C332.6,305.9,332.6,305.9,332.6,305.9          L332.6,305.9c-0.1,0.1-2,3.3-0.3,4c0,0,1.2,0.5,1.3-1.2c1.1,1.3,1.8,0.1,1.8,0.1C336.2,307.3,332.8,306,332.6,305.9z" fill="#D61E1E"/></g></g><g><g><path d="M337.1,311.1l-2.4,0.8l-0.4-1.3l-1.2,0.4l0.4,1.3l-0.6,0.2l0.3,0.9l0.6-0.2l1.1,3.1l1.5-0.5l0.9-3.9          L337.1,311.1z M336.3,312.5l-0.3,1.4c-0.1,0.4-0.1,0.8-0.2,1.2l0,0c-0.1-0.4-0.2-0.7-0.3-1l-0.4-1.2L336.3,312.5          L336.3,312.5z" fill="#D61E1E"/></g></g></g></g><g><g><path d="M309.4,284.4c0,0-2.7-1.1-2.9,2.6c-2.4-2.8-3.9-0.2-3.9-0.2c-1.9,3.3,5.6,6.2,6,6.3l0,0c0,0,0,0,0,0        c0,0,0,0,0,0l0,0C308.8,292.8,312.9,285.8,309.4,284.4z" fill="#D61E1E"/></g></g><g><g><path d="M322.6,280.3c0,0-2.7-1.1-2.9,2.6c-2.4-2.8-3.9-0.2-3.9-0.2c-1.9,3.3,5.6,6.2,6,6.3l0,0c0,0,0,0,0,0        c0,0,0,0,0,0l0,0C322,288.6,326.1,281.6,322.6,280.3z" fill="#D61E1E"/></g></g><g><g><path d="M317,306.3c0,0-2.7-1.1-2.9,2.6c-2.4-2.8-3.9-0.2-3.9-0.2c-1.9,3.3,5.6,6.2,6,6.3l0,0c0,0,0,0,0,0        c0,0,0,0,0,0l0,0C316.4,314.6,320.5,307.7,317,306.3z" fill="#D61E1E"/></g></g><g><g><path d="M330.2,302.1c0,0-2.7-1.1-2.9,2.6c-2.4-2.8-3.9-0.2-3.9-0.2c-1.9,3.3,5.6,6.2,6,6.3l0,0c0,0,0,0,0,0        c0,0,0,0,0,0l0,0C329.6,310.5,333.7,303.5,330.2,302.1z" fill="#D61E1E"/></g></g></g></g><g><g><g><g><path d="M212.3,287.7l-26.2-7.9c-1.7-0.5-3.6,0.5-4.1,2.2l-12,39.9c-0.5,1.7,0.5,3.6,2.2,4.1l26.2,7.9        c1.7,0.5,3.6-0.5,4.1-2.2l12-39.9C215.1,290,214.1,288.2,212.3,287.7z" fill="#DDDBDB"/></g></g><g><g><g><g><path d="M186,290.2L186,290.2c-0.9-0.8-1-2.6-1-2.6s-1.2,1.4-2.3,1.6l0,0c0,0,0,0,0,0c0,0,0,0,0,0l0,0          c0.8,0.9,1,2.6,1,2.6S184.8,290.4,186,290.2L186,290.2C186,290.2,186,290.2,186,290.2C186,290.2,186,290.2,186,290.2z" fill="#D61E1E"/></g></g><g><g><path d="M187.8,282.8l0.3-0.9l-2.6-0.8l-1.1,2.4c0.2,0,0.4,0.1,0.6,0.1c0.9,0.3,1.2,0.7,1.1,1.2          c-0.2,0.5-0.7,0.6-1.2,0.4c-0.4-0.1-0.8-0.4-1-0.6l-0.5,0.8c0.2,0.2,0.7,0.5,1.2,0.7c1.3,0.4,2.3-0.2,2.5-1.1          c0.2-0.6,0.1-1-0.2-1.4c-0.3-0.3-0.7-0.6-1.1-0.7c-0.1,0-0.2-0.1-0.3-0.1l0.3-0.7L187.8,282.8z" fill="#D61E1E"/></g></g></g><g><g><g><path d="M199.9,328c0.4,0.1,0.8,0.4,1,0.6l0.5-0.8c-0.2-0.2-0.7-0.5-1.2-0.7c-1.3-0.4-2.3,0.2-2.5,1.1          c-0.2,0.6-0.1,1,0.2,1.4c0.3,0.3,0.7,0.6,1.1,0.7c0.1,0,0.2,0.1,0.3,0.1l-0.3,0.7l-1.8-0.5l-0.3,0.9l2.6,0.8l1-2.4          c-0.2,0-0.4-0.1-0.6-0.1c-0.9-0.3-1.2-0.7-1.1-1.2C198.9,328,199.4,327.9,199.9,328z" fill="#D61E1E"/></g></g><g><g><path d="M201,322.2L201,322.2C201,322.2,201,322.2,201,322.2C201,322.2,201,322.2,201,322.2L201,322.2          c-0.1,0.1-3.2,1.5-2.4,2.8c0,0,0.7,1,1.6-0.2c0.2,1.6,1.3,1,1.3,1C203,325.1,201.1,322.3,201,322.2z" fill="#D61E1E"/></g></g></g><g><g><path d="M181.4,311.4L181.4,311.4C181.5,311.4,181.4,311.4,181.4,311.4C181.4,311.4,181.4,311.4,181.4,311.4         L181.4,311.4c-0.3,0.1-7.7,3.5-5.6,6.6c0,0,1.6,2.5,3.8-0.5c0.4,3.7,3,2.4,3,2.4C186.1,318.5,181.6,311.7,181.4,311.4z" fill="#D61E1E"/></g></g><g><g><path d="M195.8,315.5L195.8,315.5C195.8,315.5,195.8,315.5,195.8,315.5C195.8,315.5,195.8,315.5,195.8,315.5         L195.8,315.5c-0.3,0.1-7.7,3.5-5.6,6.6c0,0,1.6,2.5,3.8-0.5c0.4,3.7,3,2.4,3,2.4C200.5,322.6,196,315.8,195.8,315.5z" fill="#D61E1E"/></g></g></g></g><g><g><g><path d="M217.2,271.5l-26.2-7.9c-1.7-0.5-3.6,0.5-4.1,2.2l-12,39.9c-0.5,1.7,0.5,3.6,2.2,4.1l26.2,7.9        c1.7,0.5,3.6-0.5,4.1-2.2l12-39.9C219.9,273.9,218.9,272.1,217.2,271.5z" fill="#FFFFFF"/></g></g><g><g><g><path d="M195.9,278.2L195.9,278.2c-1.7-1.7-2.1-5.3-2.1-5.3s-2.3,2.7-4.6,3.3l0,0c0,0,0,0,0,0c0,0,0,0,0,0         l0,0c1.6,1.7,2.1,5.3,2.1,5.3S193.6,278.6,195.9,278.2L195.9,278.2C195.9,278.2,195.9,278.2,195.9,278.2         C195.9,278.2,195.9,278.2,195.9,278.2z" fill="#D61E1E"/></g></g><g><g><path d="M212.3,283.1L212.3,283.1c-1.7-1.6-2.1-5.3-2.1-5.3s-2.3,2.7-4.6,3.3l0,0c0,0,0,0,0,0c0,0,0,0,0,0         l0,0c1.6,1.7,2.1,5.3,2.1,5.3S210,283.5,212.3,283.1L212.3,283.1C212.3,283.1,212.3,283.1,212.3,283.1         C212.3,283.1,212.3,283.1,212.3,283.1z" fill="#D61E1E"/></g></g><g><g><path d="M189.6,299.1L189.6,299.1c-1.7-1.7-2.1-5.3-2.1-5.3s-2.3,2.7-4.6,3.3l0,0c0,0,0,0,0,0c0,0,0,0,0,0         l0,0c1.6,1.7,2.1,5.3,2.1,5.3S187.3,299.5,189.6,299.1L189.6,299.1C189.6,299.1,189.6,299.1,189.6,299.1         C189.6,299.1,189.6,299.1,189.6,299.1z" fill="#D61E1E"/></g></g><g><g><path d="M206,304L206,304c-1.7-1.7-2.1-5.3-2.1-5.3s-2.3,2.7-4.6,3.3l0,0c0,0,0,0,0,0c0,0,0,0,0,0l0,0         c1.6,1.7,2.1,5.3,2.1,5.3S203.7,304.4,206,304L206,304C206,304,206,304,206,304C206,304,206,304,206,304z" fill="#D61E1E"/></g></g><g><g><path d="M201,291.4L201,291.4c-1.7-1.6-2.1-5.3-2.1-5.3s-2.3,2.7-4.6,3.3l0,0c0,0,0,0,0,0c0,0,0,0,0,0l0,0         c1.6,1.7,2.1,5.3,2.1,5.3S198.7,291.9,201,291.4L201,291.4C201,291.4,201,291.4,201,291.4C201,291.4,201,291.4,201,291.4z" fill="#D61E1E"/></g></g><g><g><g><path d="M190.9,274.1L190.9,274.1c-0.9-0.8-1-2.6-1-2.6s-1.2,1.4-2.3,1.6l0,0c0,0,0,0,0,0c0,0,0,0,0,0l0,0          c0.8,0.9,1,2.6,1,2.6S189.7,274.3,190.9,274.1L190.9,274.1C190.9,274.1,190.9,274.1,190.9,274.1          C190.9,274.1,190.9,274.1,190.9,274.1z" fill="#D61E1E"/></g></g><g><g><path d="M192.6,266.6l0.3-0.9l-2.6-0.8l-1.1,2.4c0.2,0,0.4,0.1,0.6,0.1c0.9,0.3,1.2,0.7,1.1,1.2          c-0.2,0.5-0.7,0.6-1.2,0.4c-0.4-0.1-0.8-0.4-1-0.6l-0.5,0.8c0.2,0.2,0.7,0.5,1.2,0.7c1.3,0.4,2.3-0.2,2.5-1.1          c0.2-0.6,0.1-1-0.2-1.4c-0.3-0.3-0.7-0.6-1.1-0.7c-0.1,0-0.2-0.1-0.3-0.1l0.3-0.7L192.6,266.6z" fill="#D61E1E"/></g></g></g><g><g><g><path d="M207,308.1L207,308.1c-0.8-0.9-1-2.6-1-2.6s-1.1,1.4-2.3,1.6l0,0c0,0,0,0,0,0c0,0,0,0,0,0l0,0          c0.8,0.8,1,2.6,1,2.6S205.8,308.4,207,308.1L207,308.1C207,308.1,207,308.1,207,308.1C207,308.1,207,308.1,207,308.1z" fill="#D61E1E"/></g></g><g><g><path d="M204.7,311.9c0.4,0.1,0.8,0.4,1,0.6l0.5-0.8c-0.2-0.2-0.7-0.5-1.2-0.7c-1.3-0.4-2.3,0.2-2.5,1.1          c-0.2,0.6-0.1,1,0.2,1.4c0.3,0.3,0.7,0.6,1.1,0.7c0.1,0,0.2,0.1,0.3,0.1l-0.3,0.7l-1.8-0.5l-0.3,0.9l2.6,0.8l1-2.4          c-0.2,0-0.4-0.1-0.6-0.1c-0.9-0.3-1.2-0.7-1.1-1.2C203.7,311.8,204.3,311.7,204.7,311.9z" fill="#D61E1E"/></g></g></g></g></g></g><g><g><g><circle cx="174.9" cy="365.9" fill="#D61E1E" r="11.5"/></g></g><g><g><circle cx="174.9" cy="365.9" fill="#FFFFFF" r="7.9"/></g></g><g><g><circle cx="174.9" cy="365.9" fill="#D61E1E" r="7.3"/></g></g><g><g><g><path d="M174.9,354.4c-0.7,0-1.4,0.1-2.1,0.2v2.8h4.3v-2.8C176.3,354.5,175.6,354.4,174.9,354.4z" fill="#F0F2F2"/></g></g><g><g><path d="M172.7,374.3v2.9c0.7,0.1,1.4,0.2,2.1,0.2c0.7,0,1.4-0.1,2.1-0.2v-2.9H172.7z" fill="#F0F2F2"/></g></g><g><g><path d="M183.4,358.2l-2.4,1.5l2.2,3.6l2.4-1.5C185.1,360.5,184.3,359.3,183.4,358.2z" fill="#F0F2F2"/></g></g><g><g><path d="M166.6,368.4l-2.5,1.5c0.5,1.4,1.3,2.6,2.2,3.6l2.5-1.5L166.6,368.4z" fill="#F0F2F2"/></g></g><g><g><path d="M183.2,368.4l-2.2,3.6l2.5,1.5c0.9-1.1,1.7-2.3,2.2-3.6L183.2,368.4z" fill="#F0F2F2"/></g></g><g><g><path d="M166.3,358.2c-0.9,1.1-1.7,2.3-2.2,3.6l2.4,1.5l2.2-3.6L166.3,358.2z" fill="#F0F2F2"/></g></g></g></g></g></g></svg>