<?xml version="1.0" ?><!DOCTYPE svg  PUBLIC '-//W3C//DTD SVG 1.1//EN'  'http://www.w3.org/Graphics/SVG/1.1/DTD/svg11.dtd'><svg enable-background="new 0 0 512 512" height="512px" id="Layer_1" version="1.1" viewBox="0 0 512 512" width="512px" xml:space="preserve" xmlns="http://www.w3.org/2000/svg" xmlns:xlink="http://www.w3.org/1999/xlink"><g><g><g><path d="M256,7.9C119,7.9,7.9,119,7.9,256C7.9,393,119,504.1,256,504.1c137,0,248.1-111.1,248.1-248.1     C504.1,119,393,7.9,256,7.9z" fill="#703D2A"/></g></g><g><g><path d="M256,54.4C144.7,54.4,54.4,144.7,54.4,256c0,111.3,90.3,201.6,201.6,201.6     c111.3,0,201.6-90.3,201.6-201.6C457.6,144.7,367.3,54.4,256,54.4z" fill="#A56C42"/></g></g><g><g><path d="M256,93.4c-89.8,0-162.6,72.8-162.6,162.6c0,89.8,72.8,162.6,162.6,162.6c89.8,0,162.6-72.8,162.6-162.6     C418.6,166.2,345.8,93.4,256,93.4z" fill="#C6B8AF"/></g></g><g><g><path d="M256,101c-85.6,0-155,69.4-155,155c0,85.6,69.4,155,155,155c85.6,0,155-69.4,155-155     C411,170.4,341.6,101,256,101z" fill="#BA7C49"/></g></g><g><g><g><path d="M129.1,167.1c-5.2,7.5-9.7,15.3-13.5,23.4L256,256L129.1,167.1z" fill="#CE2E2E"/></g></g><g><g><path d="M115.6,190.5c-3.8,8.2-6.9,16.7-9.2,25.4L256,256L115.6,190.5z" fill="#3A3A3A"/></g></g><g><g><path d="M146.5,146.5c-6.5,6.5-12.3,13.4-17.4,20.7L256,256L146.5,146.5z" fill="#3A3A3A"/></g></g><g><g><path d="M106.4,215.9c-2.3,8.7-3.9,17.6-4.7,26.6L256,256L106.4,215.9z" fill="#CE2E2E"/></g></g><g><g><path d="M167.1,129.1c-7.3,5.1-14.2,10.9-20.7,17.4L256,256L167.1,129.1z" fill="#CE2E2E"/></g></g><g><g><path d="M129.1,344.9L256,256l-140.4,65.5C119.4,329.6,123.9,337.4,129.1,344.9z M256,256L256,256L256,256      L256,256z" fill="#CE2E2E"/></g></g><g><g><path d="M101.7,242.5c-0.8,9-0.8,18,0,27L256,256L101.7,242.5z" fill="#3A3A3A"/></g></g><g><g><path d="M106.4,296.1c2.3,8.7,5.4,17.2,9.2,25.4L256,256L106.4,296.1z" fill="#3A3A3A"/></g></g><g><g><path d="M101.7,269.5c0.8,9,2.3,17.9,4.7,26.6L256,256v0L101.7,269.5z" fill="#CE2E2E"/></g></g><g><g><path d="M365.5,146.5L256,256l126.9-88.9C377.8,159.9,372,153,365.5,146.5z" fill="#3A3A3A"/></g></g><g><g><path d="M190.5,115.6c-8.1,3.8-15.9,8.3-23.4,13.5L256,256L190.5,115.6z" fill="#3A3A3A"/></g></g><g><g><path d="M269.5,101.7L256,256l40.1-149.6C287.4,104,278.5,102.5,269.5,101.7z" fill="#3A3A3A"/></g></g><g><g><path d="M321.5,115.6L256,256l88.9-126.9C337.4,123.9,329.6,119.4,321.5,115.6z" fill="#3A3A3A"/></g></g><g><g><path d="M344.9,129.1L256,256l109.5-109.5C359,140,352.1,134.2,344.9,129.1z" fill="#CE2E2E"/></g></g><g><g><path d="M296.1,106.4L256,256l65.5-140.4C313.3,111.7,304.7,108.7,296.1,106.4z" fill="#CE2E2E"/></g></g><g><g><path d="M129.1,344.9c5.1,7.3,10.9,14.2,17.4,20.7L256,256L129.1,344.9z" fill="#3A3A3A"/></g></g><g><g><path d="M242.5,101.7L256,256l13.5-154.3C260.5,100.9,251.5,100.9,242.5,101.7z" fill="#357157"/></g></g><g><g><path d="M242.5,101.7c-9,0.8-17.9,2.3-26.6,4.7L256,256L242.5,101.7z" fill="#3A3A3A"/></g></g><g><g><path d="M215.9,106.4c-8.7,2.3-17.2,5.4-25.4,9.2L256,256L215.9,106.4z" fill="#CE2E2E"/></g></g><g><g><path d="M256,256l149.6,40.1c2.3-8.7,3.9-17.6,4.7-26.6L256,256z" fill="#CE2E2E"/></g></g><g><g><path d="M256,256l126.9,88.9c5.2-7.5,9.7-15.3,13.5-23.4L256,256z" fill="#CE2E2E"/></g></g><g><g><path d="M410.3,242.5L256,256l154.3,13.5C411.1,260.5,411.1,251.5,410.3,242.5z" fill="#3A3A3A"/></g></g><g><g><path d="M405.6,215.9L256,256l154.3-13.5C409.5,233.5,408,224.6,405.6,215.9z" fill="#CE2E2E"/></g></g><g><g><path d="M382.9,167.1L256,256l140.4-65.5C392.6,182.4,388.1,174.6,382.9,167.1z" fill="#CE2E2E"/></g></g><g><g><path d="M396.4,190.5L256,256l149.6-40.1C403.3,207.3,400.2,198.8,396.4,190.5z" fill="#3A3A3A"/></g></g><g><g><path d="M256,256l109.5,109.5c6.5-6.5,12.3-13.4,17.4-20.7L256,256z" fill="#3A3A3A"/></g></g><g><g><path d="M256,256L146.5,365.5c6.5,6.5,13.4,12.3,20.7,17.4L256,256L256,256z" fill="#CE2E2E"/></g></g><g><g><path d="M256,256L256,256l-13.5,154.3c9,0.8,18,0.8,27,0L256,256z" fill="#CE2E2E"/></g></g><g><g><path d="M190.5,396.4c8.2,3.8,16.7,6.9,25.4,9.2L256,256v0L190.5,396.4z" fill="#CE2E2E"/></g></g><g><g><path d="M215.9,405.6c8.7,2.3,17.6,3.9,26.6,4.7L256,256L215.9,405.6z" fill="#3A3A3A"/></g></g><g><g><path d="M190.5,396.4L256,256l-88.9,126.9C174.6,388.1,182.4,392.6,190.5,396.4z M256,256L256,256L256,256      L256,256z" fill="#3A3A3A"/></g></g><g><g><path d="M256,256l13.5,154.3c9-0.8,17.9-2.3,26.6-4.7L256,256z" fill="#3A3A3A"/></g></g><g><g><path d="M256,256l65.5,140.4c8.1-3.8,15.9-8.3,23.4-13.5L256,256z" fill="#3A3A3A"/></g></g><g><g><path d="M256,256l88.9,126.9c7.3-5.1,14.2-10.9,20.7-17.4L256,256z" fill="#CE2E2E"/></g></g><g><g><path d="M256,256l40.1,149.6c8.7-2.3,17.2-5.4,25.4-9.2L256,256z" fill="#CE2E2E"/></g></g><g><g><path d="M256,256l140.4,65.5c3.8-8.2,6.9-16.7,9.2-25.4L256,256z" fill="#3A3A3A"/></g></g></g><g><g><path d="M256,125c-72.3,0-131,58.6-131,131c0,72.3,58.6,131,131,131c72.3,0,131-58.6,131-131     C387,183.7,328.3,125,256,125z" fill="#BFAFA5"/></g></g><g><g><path d="M256,131.9c-68.5,0-124.1,55.6-124.1,124.1c0,68.5,55.6,124.1,124.1,124.1c68.5,0,124.1-55.6,124.1-124.1     C380.1,187.5,324.5,131.9,256,131.9z" fill="#C6854A"/></g></g><g><g><g><path d="M152,183.2c-4.3,6.1-8,12.5-11.1,19.1L256,256L152,183.2z" fill="#E03636"/></g></g><g><g><path d="M141,202.4c-3.1,6.7-5.7,13.7-7.6,20.8L256,256L141,202.4z" fill="#3A3A3A"/></g></g><g><g><path d="M166.3,166.3c-5.3,5.3-10.1,11-14.2,16.9L256,256L166.3,166.3z" fill="#3A3A3A"/></g></g><g><g><path d="M133.4,223.2c-1.9,7.2-3.2,14.4-3.8,21.8L256,256L133.4,223.2z" fill="#E03636"/></g></g><g><g><path d="M183.2,152c-6,4.2-11.6,8.9-16.9,14.2L256,256L183.2,152z" fill="#E03636"/></g></g><g><g><path d="M152,328.8L256,256l-115,53.6C144.1,316.3,147.8,322.7,152,328.8z M256,256L256,256L256,256L256,256z" fill="#E03636"/></g></g><g><g><path d="M129.6,244.9c-0.6,7.4-0.6,14.8,0,22.1L256,256L129.6,244.9z" fill="#3A3A3A"/></g></g><g><g><path d="M133.4,288.8c1.9,7.1,4.4,14.1,7.6,20.8L256,256L133.4,288.8z" fill="#3A3A3A"/></g></g><g><g><path d="M129.6,267.1c0.6,7.3,1.9,14.6,3.8,21.8L256,256v0L129.6,267.1z" fill="#E03636"/></g></g><g><g><path d="M345.7,166.3L256,256l104-72.8C355.8,177.3,351,171.6,345.7,166.3z" fill="#3A3A3A"/></g></g><g><g><path d="M202.4,141c-6.6,3.1-13,6.8-19.1,11.1L256,256L202.4,141z" fill="#3A3A3A"/></g></g><g><g><path d="M267.1,129.6L256,256l32.8-122.6C281.7,131.5,274.4,130.2,267.1,129.6z" fill="#3A3A3A"/></g></g><g><g><path d="M309.6,141L256,256l72.8-104C322.7,147.8,316.3,144.1,309.6,141z" fill="#3A3A3A"/></g></g><g><g><path d="M328.8,152L256,256l89.7-89.7C340.4,161,334.7,156.2,328.8,152z" fill="#E03636"/></g></g><g><g><path d="M288.8,133.4L256,256l53.6-115C302.9,137.8,295.9,135.3,288.8,133.4z" fill="#E03636"/></g></g><g><g><path d="M152,328.8c4.2,5.9,8.9,11.6,14.2,16.9L256,256L152,328.8z" fill="#3A3A3A"/></g></g><g><g><path d="M244.9,129.6L256,256l11.1-126.4C259.7,129,252.3,129,244.9,129.6z" fill="#398764"/></g></g><g><g><path d="M244.9,129.6c-7.3,0.6-14.6,1.9-21.8,3.8L256,256L244.9,129.6z" fill="#3A3A3A"/></g></g><g><g><path d="M223.2,133.4c-7.1,1.9-14.1,4.4-20.8,7.6L256,256L223.2,133.4z" fill="#E03636"/></g></g><g><g><path d="M256,256l122.6,32.8c1.9-7.2,3.2-14.5,3.8-21.8L256,256z" fill="#E03636"/></g></g><g><g><path d="M256,256l104,72.8c4.3-6.1,8-12.5,11.1-19.2L256,256z" fill="#E03636"/></g></g><g><g><path d="M382.4,244.9L256,256l126.4,11.1C383,259.7,383,252.3,382.4,244.9z" fill="#3A3A3A"/></g></g><g><g><path d="M378.6,223.2L256,256l126.4-11.1C381.8,237.6,380.5,230.3,378.6,223.2z" fill="#E03636"/></g></g><g><g><path d="M360,183.2L256,256l115-53.6C367.9,195.7,364.2,189.3,360,183.2z" fill="#E03636"/></g></g><g><g><path d="M371,202.4L256,256l122.6-32.8C376.7,216.1,374.2,209.1,371,202.4z" fill="#3A3A3A"/></g></g><g><g><path d="M256,256l89.7,89.7c5.3-5.3,10.1-11,14.2-16.9L256,256z" fill="#3A3A3A"/></g></g><g><g><path d="M256,256l-89.7,89.7c5.3,5.3,11,10.1,16.9,14.2L256,256L256,256z" fill="#E03636"/></g></g><g><g><path d="M256,256L256,256l-11.1,126.4c7.4,0.6,14.8,0.6,22.1,0L256,256z" fill="#E03636"/></g></g><g><g><path d="M202.4,371c6.7,3.1,13.7,5.7,20.8,7.6L256,256v0L202.4,371z" fill="#E03636"/></g></g><g><g><path d="M223.2,378.6c7.2,1.9,14.5,3.2,21.8,3.8L256,256L223.2,378.6z" fill="#3A3A3A"/></g></g><g><g><path d="M256,256L256,256L256,256L256,256z M202.4,371L256,256l-72.8,104C189.3,364.2,195.7,367.9,202.4,371z" fill="#3A3A3A"/></g></g><g><g><path d="M256,256l11.1,126.4c7.3-0.6,14.6-1.9,21.8-3.8L256,256z" fill="#3A3A3A"/></g></g><g><g><path d="M256,256l53.6,115c6.6-3.1,13-6.8,19.2-11.1L256,256z" fill="#3A3A3A"/></g></g><g><g><path d="M256,256l72.8,104c6-4.2,11.6-8.9,16.9-14.2L256,256z" fill="#E03636"/></g></g><g><g><path d="M256,256l32.8,122.6c7.1-1.9,14.1-4.4,20.8-7.6L256,256z" fill="#E03636"/></g></g><g><g><path d="M256,256l115,53.6c3.1-6.7,5.7-13.7,7.6-20.8L256,256z" fill="#3A3A3A"/></g></g></g><g><g><g><circle cx="256" cy="143" fill="#E2E2E2" r="9"/></g></g><g><g><path d="M255.7,134.9c-4.5,0-8.1,3.6-8.1,8.1s3.6,8.1,8.1,8.1C260.2,151,260.2,134.9,255.7,134.9z" fill="#FFFFFF"/></g></g></g><g><g><path d="M256,157.5c-54.4,0-98.5,44.1-98.5,98.5c0,54.4,44.1,98.5,98.5,98.5c54.4,0,98.5-44.1,98.5-98.5     C354.5,201.6,310.4,157.5,256,157.5z" fill="#CEC0B7"/></g></g><g><g><path d="M256,161.7c-52.1,0-94.3,42.2-94.3,94.3c0,52.1,42.2,94.3,94.3,94.3c52.1,0,94.3-42.2,94.3-94.3     C350.3,203.9,308.1,161.7,256,161.7z" fill="#D89450"/></g></g><g><g><path d="M316.6,192.6c-34.2-34.2-89.7-34.2-124,0c-34.2,34.2-34.2,89.7,0,124c17.1,17.1,56.5-5.2,87.5-36.1     C311.2,249.5,333.8,209.8,316.6,192.6z" fill="#E09F65"/></g></g><g><g><g><g><rect fill="#685B51" height="189.4" width="3" x="254.5" y="161.3"/></g></g><g><g><rect fill="#685B51" height="3" width="189.4" x="161.3" y="254.5"/></g></g></g><g><g><g><rect fill="#685B51" height="3" transform="matrix(0.7071 -0.7071 0.7071 0.7071 -106.0387 256)" width="189.4" x="161.3" y="254.5"/></g></g><g><g><rect fill="#685B51" height="189.4" transform="matrix(0.7071 -0.7071 0.7071 0.7071 -106.0387 256)" width="3" x="254.5" y="161.3"/></g></g></g></g><g><g><circle cx="256" cy="256" fill="#685B51" r="30.3"/></g></g><g><g><circle cx="256" cy="256" fill="#4C4642" r="13.2"/></g></g><g><g><g><g><g><g><g><path d="M255.9,57c-1.8,0-5.5,7.4-5.5,16.5s3.2,16.5,5.5,16.5s5.5-7.4,5.5-16.5S257.7,57,255.9,57z" fill="#C1BDBC"/></g></g><g><g><path d="M255.9,57c-1.8,0-5.5,7.4-5.5,16.5s3.2,16.5,5.5,16.5S257.7,57,255.9,57z" fill="#D8D8D8"/></g></g></g><g><g><g><path d="M255.9,422c-1.8,0-5.5,7.4-5.5,16.5s3.2,16.5,5.5,16.5s5.5-7.4,5.5-16.5S257.7,422,255.9,422z" fill="#C1BDBC"/></g></g><g><g><path d="M255.9,422c-1.8,0-5.5,7.4-5.5,16.5s3.2,16.5,5.5,16.5S257.7,422,255.9,422z" fill="#D8D8D8"/></g></g></g></g><g><g><g><g><path d="M438.4,250.5c-9.1,0-16.5,3.2-16.5,5.5s7.4,5.5,16.5,5.5s16.5-3.8,16.5-5.5S447.5,250.5,438.4,250.5          z" fill="#C1BDBC"/></g></g><g><g><path d="M438.4,250.5c-9.1,0-16.5,3.2-16.5,5.5s33,1.8,33,0S447.5,250.5,438.4,250.5z" fill="#D8D8D8"/></g></g></g><g><g><g><path d="M73.4,250.5c-9.1,0-16.5,3.2-16.5,5.5s7.4,5.5,16.5,5.5s16.5-3.8,16.5-5.5S82.5,250.5,73.4,250.5z" fill="#C1BDBC"/></g></g><g><g><path d="M73.4,250.5c-9.1,0-16.5,3.2-16.5,5.5s33,1.8,33,0S82.5,250.5,73.4,250.5z" fill="#D8D8D8"/></g></g></g></g></g><g><g><g><g><g><path d="M396.6,115.3c-1.2-1.2-9.1,1.3-15.6,7.8s-9.4,14-7.8,15.6c1.6,1.6,9.1-1.3,15.6-7.8          C395.3,124.4,397.9,116.5,396.6,115.3z" fill="#C1BDBC"/></g></g><g><g><path d="M396.6,115.3c-1.2-1.2-9.1,1.3-15.6,7.8s-9.4,14-7.8,15.6C374.9,140.2,397.9,116.5,396.6,115.3z" fill="#D8D8D8"/></g></g></g><g><g><g><path d="M138.5,373.4c-1.2-1.2-9.1,1.3-15.6,7.8s-9.4,14-7.8,15.6c1.6,1.6,9.1-1.3,15.6-7.8          C137.2,382.5,139.8,374.6,138.5,373.4z" fill="#C1BDBC"/></g></g><g><g><path d="M138.5,373.4c-1.2-1.2-9.1,1.3-15.6,7.8s-9.4,14-7.8,15.6C116.8,398.3,139.8,374.6,138.5,373.4z" fill="#D8D8D8"/></g></g></g></g><g><g><g><g><path d="M388.9,381.1c-6.4-6.4-14-9.4-15.6-7.8c-1.6,1.6,1.3,9.1,7.8,15.6s14.3,9,15.6,7.8          C397.9,395.5,395.3,387.6,388.9,381.1z" fill="#C1BDBC"/></g></g><g><g><path d="M388.9,381.1c-6.4-6.4-14-9.4-15.6-7.8c-1.6,1.6,22.1,24.6,23.3,23.3          C397.9,395.5,395.3,387.6,388.9,381.1z" fill="#D8D8D8"/></g></g></g><g><g><g><path d="M130.8,123c-6.4-6.4-14-9.4-15.6-7.8c-1.6,1.6,1.3,9.1,7.8,15.6c6.4,6.4,14.3,9,15.6,7.8          S137.2,129.5,130.8,123z" fill="#C1BDBC"/></g></g><g><g><path d="M130.8,123c-6.4-6.4-14-9.4-15.6-7.8c-1.6,1.6,22.1,24.6,23.3,23.3S137.2,129.5,130.8,123z" fill="#D8D8D8"/></g></g></g></g></g></g><g><g><g><g><g><g><path d="M328.2,82.5c-8.4-3.5-16.5-3.4-17.3-1.3c-0.9,2.1,4.7,7.9,13.1,11.4c8.4,3.5,16.7,2.9,17.3,1.3          C341.9,92.3,336.6,86,328.2,82.5z" fill="#C1BDBC"/></g></g><g><g><path d="M328.2,82.5c-8.4-3.5-16.5-3.4-17.3-1.3c-0.9,2.1,29.8,14.4,30.4,12.8          C341.9,92.3,336.6,86,328.2,82.5z" fill="#D8D8D8"/></g></g></g><g><g><g><path d="M187.9,417.1c-8.4-3.5-16.5-3.4-17.3-1.3c-0.9,2.1,4.7,7.9,13.1,11.4c8.4,3.5,16.7,2.9,17.3,1.3          C201.7,427,196.3,420.7,187.9,417.1z" fill="#C1BDBC"/></g></g><g><g><path d="M187.9,417.1c-8.4-3.5-16.5-3.4-17.3-1.3c-0.9,2.1,29.8,14.4,30.4,12.8          C201.7,427,196.3,420.7,187.9,417.1z" fill="#D8D8D8"/></g></g></g></g><g><g><g><g><path d="M429.6,309.8c-2.1-0.9-7.9,4.7-11.4,13.1s-2.9,16.7-1.3,17.3c1.6,0.7,7.9-4.7,11.4-13.1          C431.8,318.7,431.7,310.7,429.6,309.8z" fill="#C1BDBC"/></g></g><g><g><path d="M429.6,309.8c-2.1-0.9-14.4,29.8-12.8,30.4c1.6,0.7,7.9-4.7,11.4-13.1          C431.8,318.7,431.7,310.7,429.6,309.8z" fill="#D8D8D8"/></g></g></g><g><g><g><path d="M95,169.6c-2.1-0.9-7.9,4.7-11.5,13.1c-3.5,8.4-2.9,16.7-1.3,17.3c1.6,0.7,7.9-4.7,11.4-13.1          C97.2,178.5,97.1,170.4,95,169.6z" fill="#C1BDBC"/></g></g><g><g><path d="M95,169.6c-2.1-0.9-14.4,29.8-12.8,30.4c1.6,0.7,7.9-4.7,11.4-13.1C97.2,178.5,97.1,170.4,95,169.6z          " fill="#D8D8D8"/></g></g></g></g></g><g><g><g><g><g><path d="M428.9,184c-3.5-8.4-9.3-14-11.3-13.2c-2.1,0.9-2.3,8.9,1.2,17.4c3.5,8.4,9.7,13.8,11.3,13.2          C431.6,200.7,432.3,192.4,428.9,184z" fill="#C1BDBC"/></g></g><g><g><path d="M428.9,184c-3.5-8.4-9.3-14-11.3-13.2c-2.1,0.9,10.9,31.2,12.5,30.5          C431.6,200.7,432.3,192.4,428.9,184z" fill="#D8D8D8"/></g></g></g><g><g><g><path d="M93.1,321.5c-3.5-8.4-9.3-14-11.3-13.2c-2.1,0.9-2.3,8.9,1.2,17.4c3.5,8.4,9.7,13.8,11.3,13.2          C95.9,338.1,96.5,329.9,93.1,321.5z" fill="#C1BDBC"/></g></g><g><g><path d="M93.1,321.5c-3.5-8.4-9.3-14-11.3-13.2c-2.1,0.9,10.9,31.2,12.5,30.5          C95.9,338.1,96.5,329.9,93.1,321.5z" fill="#D8D8D8"/></g></g></g></g><g><g><g><g><path d="M339.9,416.4c-0.9-2.1-8.9-2.3-17.4,1.2c-8.4,3.5-13.8,9.7-13.2,11.3c0.7,1.6,8.9,2.3,17.4-1.2          C335.1,424.3,340.7,418.5,339.9,416.4z" fill="#C1BDBC"/></g></g><g><g><path d="M339.9,416.4c-0.9-2.1-31.2,10.9-30.5,12.5c0.7,1.6,8.9,2.3,17.4-1.2          C335.1,424.3,340.7,418.5,339.9,416.4z" fill="#D8D8D8"/></g></g></g><g><g><g><path d="M202.4,80.7c-0.9-2.1-8.9-2.3-17.4,1.2c-8.4,3.5-13.8,9.7-13.2,11.3c0.7,1.6,8.9,2.3,17.4-1.2          C197.7,88.5,203.3,82.7,202.4,80.7z" fill="#C1BDBC"/></g></g><g><g><path d="M202.4,80.7c-0.9-2.1-31.2,10.9-30.5,12.5c0.7,1.6,8.9,2.3,17.4-1.2          C197.7,88.5,203.3,82.7,202.4,80.7z" fill="#D8D8D8"/></g></g></g></g></g></g></g></g></svg>