<?xml version="1.0" ?><!DOCTYPE svg  PUBLIC '-//W3C//DTD SVG 1.1//EN'  'http://www.w3.org/Graphics/SVG/1.1/DTD/svg11.dtd'><svg enable-background="new 0 0 512 512" height="512px" id="Layer_1" version="1.1" viewBox="0 0 512 512" width="512px" xml:space="preserve" xmlns="http://www.w3.org/2000/svg" xmlns:xlink="http://www.w3.org/1999/xlink"><g><g><g><path d="M256,7.9C119,7.9,7.9,119,7.9,256C7.9,393,119,504.1,256,504.1c137,0,248.1-111.1,248.1-248.1     C504.1,119,393,7.9,256,7.9z" fill="#A3D5E0"/></g></g><g><g><path d="M33.3,365.3c40.4,82.2,125,138.8,222.7,138.8c97.8,0,182.3-56.6,222.7-138.8H33.3z" fill="#4ABC96"/></g></g><g><g><g><g><path d="M368.5,177.4c-1.9,0-3.5,1.6-3.5,3.5v53.7h-11.3c-1.9,0-3.5,1.6-3.5,3.5c0,1.9,1.6,3.5,3.5,3.5h14.8       c1.9,0,3.5-1.6,3.5-3.5v-57.2C372,179,370.4,177.4,368.5,177.4z" fill="#7F7F7F"/></g></g><g><g><circle cx="368.7" cy="181.2" fill="#C10505" r="10.8"/></g></g><g><g><path d="M350.5,221.1c-3.1,0-3.1,34,0,34c3.1,0,5.7-7.6,5.7-17C356.1,228.7,353.6,221.1,350.5,221.1z" fill="#427C99"/></g></g></g><g><g><g><g><path d="M256,79.6c-10.3,0-18.6,8.3-18.6,18.6v31h37.2v-31C274.6,87.9,266.3,79.6,256,79.6z" fill="#EDC92C"/></g></g><g><g><path d="M256,79.6c-10.3,0-18.6,8.3-18.6,18.6v31h19.2L256,79.6z" fill="#F37C2A"/></g></g></g><g><g><g><path d="M256,40c-1.8,0-3.3,1.5-3.3,3.3v28.2c0,1.8,1.5,3.3,3.3,3.3c1.8,0,3.3-1.5,3.3-3.3V43.3        C259.3,41.5,257.8,40,256,40z" fill="#F2B42C"/></g></g><g><g><path d="M294.8,52.9c-1.3-1.3-3.4-1.3-4.7,0l-19.9,19.9c-1.3,1.3-1.3,3.4,0,4.7c1.3,1.3,3.4,1.3,4.7,0        l19.9-19.9C296.1,56.3,296.1,54.2,294.8,52.9z" fill="#F2B42C"/></g></g><g><g><path d="M309.4,85.4h-28.2c-1.8,0-3.3,1.5-3.3,3.3c0,1.8,1.5,3.3,3.3,3.3h28.2c1.8,0,3.3-1.5,3.3-3.3        C312.7,86.8,311.2,85.4,309.4,85.4z" fill="#F2B42C"/></g></g><g><g><path d="M230.6,85.4h-28.2c-1.8,0-3.3,1.5-3.3,3.3c0,1.8,1.5,3.3,3.3,3.3h28.2c1.8,0,3.3-1.5,3.3-3.3        C233.9,86.8,232.4,85.4,230.6,85.4z" fill="#F2B42C"/></g></g><g><g><path d="M242.1,72.8l-19.9-19.9c-1.3-1.3-3.4-1.3-4.7,0s-1.3,3.4,0,4.7l19.9,19.9c1.3,1.3,3.4,1.3,4.7,0        C243.4,76.2,243.4,74.1,242.1,72.8z" fill="#F2B42C"/></g></g></g><g><g><path d="M338.5,124.5h-165c-6.6,0-11.9,5.3-11.9,11.9v306.4c0,6.6,5.3,11.9,11.9,11.9h165       c6.6,0,11.9-5.3,11.9-11.9V136.4C350.4,129.8,345.1,124.5,338.5,124.5z" fill="#334D5C"/></g></g><g><g><polygon fill="#415E6D" points="350.4,263.1 161.6,263.1 146.4,294.4 365.6,294.4      "/></g></g><g><g><path d="M146.4,294.6v151.5c0,7.6,6.2,13.8,13.8,13.8h191.5c7.6,0,13.8-6.2,13.8-13.8V294.6H146.4z" fill="#334D5C"/></g></g><g><g><g><path d="M270.5,151.4h-29c-4.1,0-7.3,3.3-7.3,7.3v64.4c0,4.1,3.3,7.3,7.3,7.3h29c4.1,0,7.3-3.3,7.3-7.3v-64.4        C277.8,154.7,274.6,151.4,270.5,151.4z" fill="#FFFFFF"/></g></g><g><g><g><path d="M215.1,151.4h-29c-4.1,0-7.3,3.3-7.3,7.3v64.4c0,4.1,3.3,7.3,7.3,7.3h29c4.1,0,7.3-3.3,7.3-7.3v-64.4         C222.5,154.7,219.2,151.4,215.1,151.4z" fill="#FFFFFF"/></g></g><g><g><path d="M325.9,151.4h-29c-4.1,0-7.3,3.3-7.3,7.3v64.4c0,4.1,3.3,7.3,7.3,7.3h29c4.1,0,7.3-3.3,7.3-7.3v-64.4         C333.2,154.7,329.9,151.4,325.9,151.4z" fill="#FFFFFF"/></g></g></g></g><g><g><path d="M201.9,171c-0.3,0-2,0-4.9-0.1c-3,0-4.7-0.2-5.3-0.4c-0.6-0.2-1-0.6-1.3-1.1c-0.4-0.7-0.8-1.1-1.2-1.1       c-0.4,0-0.8,0.4-1.3,1.1c-0.5,0.8-1.1,3-1.9,6.9c-0.8,3.8-1.3,6.1-1.3,6.9c0,0.7,0.3,1.1,1,1.1c0.4,0,1-0.6,1.9-1.9       c1.1-1.6,2.2-2.6,3.2-3c1-0.4,3.1-0.6,6.5-0.6H210l-7.7,13.6c-2.6,4.6-5.8,12.2-6.6,14.4s-1.1,3.9-1.1,5.2       c0,1.4,0.5,2.5,1.4,3.4c0.9,0.9,2.1,1.3,3.5,1.3c1.9,0,3.3-0.7,4-2c0.8-1.3,1.2-3.7,1.4-7.1c0.2-5.3,2.5-14,3.6-18       c1-3.9,3.2-8.9,6.3-14.9c0.8-1.5,1.3-2.7,1.6-3.8H201.9z" fill="#C10505"/></g></g><g><g><path d="M313.4,171c-0.3,0-2,0-4.9-0.1c-3,0-4.7-0.2-5.3-0.4c-0.6-0.2-1-0.6-1.3-1.1c-0.4-0.7-0.8-1.1-1.2-1.1       c-0.4,0-0.8,0.4-1.3,1.1c-0.5,0.8-1.1,3-1.9,6.9c-0.8,3.8-1.3,6.1-1.3,6.9c0,0.7,0.3,1.1,1,1.1c0.4,0,1-0.6,1.9-1.9       c1.1-1.6,2.2-2.6,3.2-3c1-0.4,3.1-0.6,6.5-0.6h12.9l-7.7,13.6c-2.6,4.6-5.8,12.2-6.6,14.4c-0.8,2.2-1.1,3.9-1.1,5.2       c0,1.4,0.5,2.5,1.4,3.4c0.9,0.9,2.1,1.3,3.5,1.3c1.9,0,3.3-0.7,4-2c0.8-1.3,1.2-3.7,1.4-7.1c0.2-5.3,2.5-14,3.6-18       c1-3.9,3.2-8.9,6.3-14.9c0.8-1.5,1.3-2.7,1.6-3.8H313.4z" fill="#C10505"/></g></g><g><g><path d="M257.6,171c-0.3,0-2,0-4.9-0.1c-3,0-4.7-0.2-5.3-0.4c-0.6-0.2-1-0.6-1.3-1.1c-0.4-0.7-0.8-1.1-1.2-1.1       c-0.4,0-0.9,0.4-1.3,1.1c-0.5,0.8-1.1,3-1.9,6.9c-0.8,3.8-1.3,6.1-1.3,6.9c0,0.7,0.3,1.1,1,1.1c0.4,0,1-0.6,1.9-1.9       c1.1-1.6,2.2-2.6,3.2-3c1-0.4,3.1-0.6,6.5-0.6h12.9l-7.7,13.6c-2.6,4.6-5.8,12.2-6.6,14.4s-1.1,3.9-1.1,5.2       c0,1.4,0.5,2.5,1.4,3.4c0.9,0.9,2.1,1.3,3.5,1.3c1.9,0,3.3-0.7,4-2c0.8-1.3,1.2-3.7,1.4-7.1c0.2-5.3,2.5-14,3.6-18       c1-3.9,3.2-8.9,6.3-14.9c0.8-1.5,1.3-2.7,1.6-3.8H257.6z" fill="#C10505"/></g></g><g><g><rect fill="#1C2D35" height="71.5" width="141.9" x="187" y="344.1"/></g></g><g><g><polygon points="311,387.7 205,387.7 187,415.6 328.9,415.6      "/></g></g><g><g><g><g><g><g><path d="M254.9,390.6c-12.8,0-11.6,2.4-11.6,5.5c0,3,5.2,5.5,11.6,5.5c6.4,0,11.6-2.4,11.6-5.5           C266.6,393,267.9,390.6,254.9,390.6z" fill="#DAC425"/></g></g><g><g><ellipse cx="254.9" cy="393.9" fill="#F4E028" rx="11.6" ry="5.5"/></g></g><g><g><path d="M254.9,389c-5.4,0-9.7,2-9.7,4.6c0,2.5,4.4,4.6,9.7,4.6c5.4,0,9.7-2,9.7-4.6           C264.7,391.1,260.3,389,254.9,389z" fill="#F9F29A"/></g><g><path d="M254.9,389c-5.4,0-9.7,2-9.7,4.6           c0,2.5,4.4,4.6,9.7,4.6c5.4,0,9.7-2,9.7-4.6C264.7,391.1,260.3,389,254.9,389z" fill="none" stroke="#E1C821" stroke-miterlimit="10" stroke-width="0.2351"/></g></g><g><g><path d="M254.2,399.3c-2.3,0-4.6-0.6-4.6-0.6l0,2.2c1.8,0.7,4.6,0.6,4.6,0.6L254.2,399.3z" fill="#F9F29A"/></g></g></g></g><g><g><path d="M255.6,392.9c-1.2-0.1-2-0.2-2-0.7c0-0.4,0.6-0.6,1.6-0.6c1,0,2,0.3,2.6,0.6c0,0,0.8-0.2,0.8-0.6         c0-0.4-0.9-0.8-2.6-0.9v-0.3c0-0.4-0.2-0.5-0.9-0.5h-0.1c-0.6,0-0.9,0.2-0.9,0.5v0.3c-1.6,0.2-2.7,0.7-2.7,1.5         c0,1,1.8,1.3,3.1,1.5c1.1,0.1,2,0.3,2,0.7c0,0.4-0.6,0.6-1.7,0.6c-1.2,0-2.3-0.3-2.9-0.7c-0.1,0-0.8,0.2-0.8,0.6         c0,0.4,1,0.9,2.9,1v0.3c0,0.4,0.2,0.5,0.9,0.5h0.1c0.6,0,0.9-0.2,0.9-0.5v-0.3c1.8-0.1,2.8-0.7,2.8-1.5         C258.8,393.4,257,393.1,255.6,392.9z" fill="#E1C821"/></g></g></g><g><g><g><g><g><path d="M238.3,388.1c-12.8,0-11.6,2.4-11.6,5.5c0,3,5.2,5.5,11.6,5.5c6.4,0,11.6-2.4,11.6-5.5           C249.9,390.6,251.3,388.1,238.3,388.1z" fill="#DAC425"/></g></g><g><g><path d="M238.3,385.9c-6.4,0-11.6,2.4-11.6,5.5s5.2,5.5,11.6,5.5c6.4,0,11.6-2.4,11.6-5.5           S244.7,385.9,238.3,385.9z" fill="#F4E028"/></g></g><g><g><path d="M238.3,386.6c-5.4,0-9.7,2-9.7,4.6c0,2.5,4.4,4.6,9.7,4.6c5.4,0,9.7-2,9.7-4.6           C248,388.6,243.7,386.6,238.3,386.6z" fill="#F9F29A"/></g><g><path d="M238.3,386.6c-5.4,0-9.7,2-9.7,4.6           c0,2.5,4.4,4.6,9.7,4.6c5.4,0,9.7-2,9.7-4.6C248,388.6,243.7,386.6,238.3,386.6z" fill="none" stroke="#E1C821" stroke-miterlimit="10" stroke-width="0.2351"/></g></g><g><g><path d="M237.5,396.8c-2.3,0-4.6-0.6-4.6-0.6l0,2.2c1.8,0.7,4.6,0.6,4.6,0.6L237.5,396.8z" fill="#F9F29A"/></g></g></g></g><g><g><path d="M239,390.5c-1.2-0.1-2-0.2-2-0.7c0-0.4,0.6-0.6,1.6-0.6c1,0,2,0.3,2.6,0.6c0,0,0.8-0.2,0.8-0.6         c0-0.4-0.9-0.8-2.6-0.9v-0.3c0-0.4-0.2-0.5-0.9-0.5h-0.1c-0.6,0-0.9,0.2-0.9,0.5v0.3c-1.6,0.2-2.7,0.7-2.7,1.5         c0,1,1.8,1.3,3.1,1.5c1.1,0.1,2,0.3,2,0.7c0,0.4-0.6,0.6-1.7,0.6c-1.2,0-2.3-0.3-2.9-0.7c-0.1,0-0.8,0.2-0.8,0.6         c0,0.4,1,0.9,2.9,1v0.3c0,0.4,0.2,0.5,0.9,0.5h0.1c0.6,0,0.9-0.2,0.9-0.5v-0.3c1.8-0.1,2.8-0.7,2.8-1.5         C242.2,390.9,240.4,390.6,239,390.5z" fill="#E1C821"/></g></g></g><g><g><g><g><g><path d="M224.3,390.6c-12.8,0-11.6,2.4-11.6,5.5c0,3,5.2,5.5,11.6,5.5c6.4,0,11.6-2.4,11.6-5.5           C235.9,393,237.2,390.6,224.3,390.6z" fill="#DAC425"/></g></g><g><g><ellipse cx="224.3" cy="393.9" fill="#F4E028" rx="11.6" ry="5.5"/></g></g><g><g><ellipse cx="224.3" cy="393.6" fill="#F9F29A" rx="9.7" ry="4.6"/></g><g><ellipse cx="224.3" cy="393.6" fill="none" rx="9.7" ry="4.6" stroke="#E1C821" stroke-miterlimit="10" stroke-width="0.2351"/></g></g><g><g><path d="M223.5,399.3c-2.3,0-4.6-0.6-4.6-0.6l0,2.2c1.8,0.7,4.6,0.6,4.6,0.6L223.5,399.3z" fill="#F9F29A"/></g></g></g></g><g><g><path d="M224.9,392.9c-1.2-0.1-2-0.2-2-0.7c0-0.4,0.6-0.6,1.6-0.6c1,0,2,0.3,2.6,0.6c0,0,0.8-0.2,0.8-0.6         c0-0.4-0.9-0.8-2.6-0.9v-0.3c0-0.4-0.2-0.5-0.9-0.5h-0.1c-0.6,0-0.9,0.2-0.9,0.5v0.3c-1.6,0.2-2.7,0.7-2.7,1.5         c0,1,1.8,1.3,3.1,1.5c1.1,0.1,2,0.3,2,0.7c0,0.4-0.6,0.6-1.7,0.6c-1.2,0-2.3-0.3-2.9-0.7c-0.1,0-0.8,0.2-0.8,0.6         c0,0.4,1,0.9,2.9,1v0.3c0,0.4,0.2,0.5,0.9,0.5h0.1c0.6,0,0.9-0.2,0.9-0.5v-0.3c1.8-0.1,2.8-0.7,2.8-1.5         C228.1,393.4,226.3,393.1,224.9,392.9z" fill="#E1C821"/></g></g></g><g><g><g><g><g><path d="M210.3,390.8c-12.8,0-11.6,2.4-11.6,5.5c0,3,5.2,5.5,11.6,5.5c6.4,0,11.6-2.4,11.6-5.5           C221.9,393.2,223.2,390.8,210.3,390.8z" fill="#DAC425"/></g></g><g><g><ellipse cx="210.3" cy="394.1" fill="#F4E028" rx="11.6" ry="5.5"/></g></g><g><g><path d="M210.3,389.3c-5.4,0-9.7,2-9.7,4.6c0,2.5,4.4,4.6,9.7,4.6c5.4,0,9.7-2,9.7-4.6           C220,391.3,215.7,389.3,210.3,389.3z" fill="#F9F29A"/></g><g><path d="M210.3,389.3c-5.4,0-9.7,2-9.7,4.6           c0,2.5,4.4,4.6,9.7,4.6c5.4,0,9.7-2,9.7-4.6C220,391.3,215.7,389.3,210.3,389.3z" fill="none" stroke="#E1C821" stroke-miterlimit="10" stroke-width="0.2351"/></g></g><g><g><path d="M209.5,399.5c-2.3,0-4.6-0.6-4.6-0.6l0,2.2c1.8,0.7,4.6,0.6,4.6,0.6L209.5,399.5z" fill="#F9F29A"/></g></g></g></g><g><g><path d="M211,393.1c-1.2-0.1-2-0.2-2-0.7c0-0.4,0.6-0.6,1.6-0.6c1,0,2,0.3,2.6,0.6c0,0,0.8-0.2,0.8-0.6         c0-0.4-0.9-0.8-2.6-0.9v-0.3c0-0.4-0.2-0.5-0.9-0.5h-0.1c-0.6,0-0.9,0.2-0.9,0.5v0.3c-1.6,0.2-2.7,0.7-2.7,1.5         c0,1,1.8,1.3,3.1,1.5c1.1,0.1,2,0.3,2,0.7c0,0.4-0.6,0.6-1.7,0.6c-1.2,0-2.3-0.3-2.9-0.7c-0.1,0-0.8,0.2-0.8,0.6         c0,0.4,1,0.9,2.9,1v0.3c0,0.4,0.2,0.5,0.9,0.5h0.1c0.6,0,0.9-0.2,0.9-0.5v-0.3c1.8-0.1,2.8-0.7,2.8-1.5         C214.2,393.6,212.4,393.3,211,393.1z" fill="#E1C821"/></g></g></g></g><g><g><g><g><g><g><path d="M308.7,390.5c-12.8,0-11.6,2.4-11.6,5.5c0,3,5.2,5.5,11.6,5.5c6.4,0,11.6-2.4,11.6-5.5           C320.4,392.9,321.7,390.5,308.7,390.5z" fill="#DAC425"/></g></g><g><g><ellipse cx="308.7" cy="393.7" fill="#F4E028" rx="11.6" ry="5.5"/></g></g><g><g><ellipse cx="308.7" cy="393.5" fill="#F9F29A" rx="9.7" ry="4.6"/></g><g><ellipse cx="308.7" cy="393.5" fill="none" rx="9.7" ry="4.6" stroke="#E1C821" stroke-miterlimit="10" stroke-width="0.2351"/></g></g><g><g><path d="M308,399.2c-2.3,0-4.6-0.6-4.6-0.6l0,2.2c1.8,0.7,4.6,0.6,4.6,0.6L308,399.2z" fill="#F9F29A"/></g></g></g></g><g><g><path d="M309.4,392.8c-1.2-0.1-2-0.2-2-0.7c0-0.4,0.6-0.6,1.6-0.6c1,0,2,0.3,2.6,0.6c0,0,0.8-0.2,0.8-0.6         c0-0.4-0.9-0.8-2.6-0.9v-0.3c0-0.4-0.2-0.5-0.9-0.5h-0.1c-0.6,0-0.9,0.2-0.9,0.5v0.3c-1.6,0.2-2.7,0.7-2.7,1.5         c0,1,1.8,1.3,3.1,1.5c1.1,0.1,2,0.3,2,0.7c0,0.4-0.6,0.6-1.7,0.6c-1.2,0-2.3-0.3-2.9-0.7c-0.1,0-0.8,0.2-0.8,0.6         c0,0.4,1,0.9,2.9,1v0.3c0,0.4,0.2,0.5,0.9,0.5h0.1c0.6,0,0.9-0.2,0.9-0.5v-0.3c1.8-0.1,2.8-0.7,2.8-1.5         C312.6,393.3,310.8,393,309.4,392.8z" fill="#E1C821"/></g></g></g><g><g><g><g><g><path d="M276.1,387.5c-12.8,0-11.6,2.4-11.6,5.5c0,3,5.2,5.5,11.6,5.5s11.6-2.4,11.6-5.5           C287.7,389.9,289,387.5,276.1,387.5z" fill="#DAC425"/></g></g><g><g><ellipse cx="276.1" cy="390.8" fill="#F4E028" rx="11.6" ry="5.5"/></g></g><g><g><ellipse cx="276.1" cy="390.5" fill="#F9F29A" rx="9.7" ry="4.6"/></g><g><ellipse cx="276.1" cy="390.5" fill="none" rx="9.7" ry="4.6" stroke="#E1C821" stroke-miterlimit="10" stroke-width="0.2351"/></g></g><g><g><path d="M275.3,396.2c-2.3,0-4.6-0.6-4.6-0.6l0,2.2c1.8,0.7,4.6,0.6,4.6,0.6L275.3,396.2z" fill="#F9F29A"/></g></g></g></g><g><g><path d="M276.7,389.8c-1.2-0.1-2-0.2-2-0.7c0-0.4,0.6-0.6,1.6-0.6c1,0,2,0.3,2.6,0.6c0,0,0.8-0.2,0.8-0.6         c0-0.4-0.9-0.8-2.6-0.9v-0.3c0-0.4-0.2-0.5-0.9-0.5h-0.1c-0.6,0-0.9,0.2-0.9,0.5v0.3c-1.6,0.2-2.7,0.7-2.7,1.5         c0,1,1.8,1.3,3.1,1.5c1.1,0.1,2,0.3,2,0.7c0,0.4-0.6,0.6-1.7,0.6c-1.2,0-2.3-0.3-2.9-0.7c-0.1,0-0.8,0.2-0.8,0.6         c0,0.4,1,0.9,2.9,1v0.3c0,0.4,0.2,0.5,0.9,0.5h0.1c0.6,0,0.9-0.2,0.9-0.5v-0.3c1.8-0.1,2.8-0.7,2.8-1.5         C280,390.3,278.1,390,276.7,389.8z" fill="#E1C821"/></g></g></g><g><g><g><g><g><path d="M271.3,390.9c-12.8,0-11.6,2.4-11.6,5.5s5.2,5.5,11.6,5.5s11.6-2.4,11.6-5.5           S284.2,390.9,271.3,390.9z" fill="#DAC425"/></g></g><g><g><ellipse cx="271.3" cy="394.2" fill="#F4E028" rx="11.6" ry="5.5"/></g></g><g><g><ellipse cx="271.3" cy="394" fill="#F9F29A" rx="9.7" ry="4.6"/></g><g><ellipse cx="271.3" cy="394" fill="none" rx="9.7" ry="4.6" stroke="#E1C821" stroke-miterlimit="10" stroke-width="0.2351"/></g></g><g><g><path d="M270.5,399.7c-2.3,0-4.6-0.6-4.6-0.6l0,2.2c1.8,0.7,4.6,0.6,4.6,0.6L270.5,399.7z" fill="#F9F29A"/></g></g></g></g><g><g><path d="M271.9,393.3c-1.2-0.1-2-0.2-2-0.7c0-0.4,0.6-0.6,1.6-0.6c1,0,2,0.3,2.6,0.6c0,0,0.8-0.2,0.8-0.6         c0-0.4-0.9-0.8-2.6-0.9v-0.3c0-0.4-0.2-0.5-0.9-0.5h-0.1c-0.6,0-0.9,0.2-0.9,0.5v0.3c-1.6,0.2-2.7,0.7-2.7,1.5         c0,1,1.8,1.3,3.1,1.5c1.1,0.1,2,0.3,2,0.7c0,0.4-0.6,0.6-1.7,0.6c-1.2,0-2.3-0.3-2.9-0.7c-0.1,0-0.8,0.2-0.8,0.6         c0,0.4,1,0.9,2.9,1v0.3c0,0.4,0.2,0.5,0.9,0.5h0.1c0.6,0,0.9-0.2,0.9-0.5v-0.3c1.8-0.1,2.8-0.7,2.8-1.5         C275.2,393.7,273.3,393.4,271.9,393.3z" fill="#E1C821"/></g></g></g><g><g><g><g><g><path d="M290.5,392c-12.8,0-11.6,2.4-11.6,5.5c0,3,5.2,5.5,11.6,5.5c6.4,0,11.6-2.4,11.6-5.5           C302.1,394.5,303.5,392,290.5,392z" fill="#DAC425"/></g></g><g><g><ellipse cx="290.5" cy="395.3" fill="#F4E028" rx="11.6" ry="5.5"/></g></g><g><g><ellipse cx="290.5" cy="395.1" fill="#F9F29A" rx="9.7" ry="4.6"/></g><g><ellipse cx="290.5" cy="395.1" fill="none" rx="9.7" ry="4.6" stroke="#E1C821" stroke-miterlimit="10" stroke-width="0.2351"/></g></g><g><g><path d="M289.7,400.8c-2.3,0-4.6-0.6-4.6-0.6l0,2.2c1.9,0.7,4.6,0.6,4.6,0.6L289.7,400.8z" fill="#F9F29A"/></g></g></g></g><g><g><path d="M291.2,394.4c-1.2-0.1-2-0.2-2-0.7c0-0.4,0.6-0.6,1.6-0.6c1,0,2,0.3,2.6,0.6c0,0,0.8-0.2,0.8-0.6         c0-0.4-0.9-0.8-2.6-0.9V392c0-0.4-0.2-0.5-0.9-0.5h-0.1c-0.6,0-0.9,0.2-0.9,0.5v0.3c-1.6,0.2-2.7,0.7-2.7,1.5         c0,1,1.8,1.3,3.1,1.5c1.1,0.1,2,0.3,2,0.7c0,0.4-0.6,0.6-1.7,0.6c-1.2,0-2.3-0.3-2.9-0.7c-0.1,0-0.8,0.2-0.8,0.6         c0,0.4,1,0.9,2.9,1v0.3c0,0.4,0.2,0.5,0.9,0.5h0.1c0.6,0,0.9-0.2,0.9-0.5v-0.3c1.8-0.1,2.8-0.7,2.8-1.5         C294.4,394.8,292.6,394.6,291.2,394.4z" fill="#E1C821"/></g></g></g></g><g><g><g><g><g><g><path d="M254.2,399.9c-12.8,0-11.6,2.4-11.6,5.5c0,3,5.2,5.5,11.6,5.5c6.4,0,11.6-2.4,11.6-5.5           C265.8,402.4,267.1,399.9,254.2,399.9z" fill="#DAC425"/></g></g><g><g><ellipse cx="254.2" cy="403.2" fill="#F4E028" rx="11.6" ry="5.5"/></g></g><g><g><ellipse cx="254.2" cy="403" fill="#F9F29A" rx="9.7" ry="4.6"/></g><g><ellipse cx="254.2" cy="403" fill="none" rx="9.7" ry="4.6" stroke="#E1C821" stroke-miterlimit="10" stroke-width="0.2351"/></g></g><g><g><path d="M253.4,408.7c-2.3,0-4.6-0.6-4.6-0.6l0,2.2c1.8,0.7,4.6,0.6,4.6,0.6L253.4,408.7z" fill="#F9F29A"/></g></g></g></g><g><g><path d="M254.8,402.3c-1.2-0.1-2-0.2-2-0.7c0-0.4,0.6-0.6,1.6-0.6c1,0,2,0.3,2.6,0.6c0,0,0.8-0.2,0.8-0.6         c0-0.4-0.9-0.8-2.6-0.9v-0.3c0-0.4-0.2-0.5-0.9-0.5h-0.1c-0.6,0-0.9,0.2-0.9,0.5v0.3c-1.6,0.2-2.7,0.7-2.7,1.5         c0,1,1.8,1.3,3.1,1.5c1.1,0.1,2,0.3,2,0.7c0,0.4-0.6,0.6-1.7,0.6c-1.2,0-2.3-0.3-2.9-0.7c-0.1,0-0.8,0.2-0.8,0.6         c0,0.4,1,0.9,2.9,1v0.3c0,0.4,0.2,0.5,0.9,0.5h0.1c0.6,0,0.9-0.2,0.9-0.5v-0.3c1.8-0.1,2.8-0.7,2.8-1.5         C258.1,402.7,256.2,402.4,254.8,402.3z" fill="#E1C821"/></g></g></g><g><g><g><g><g><path d="M237.9,398.7c-12.8,0-11.6,2.4-11.6,5.5c0,3,5.2,5.5,11.6,5.5s11.6-2.4,11.6-5.5           C249.5,401.2,250.9,398.7,237.9,398.7z" fill="#DAC425"/></g></g><g><g><ellipse cx="237.9" cy="402" fill="#F4E028" rx="11.6" ry="5.5"/></g></g><g><g><ellipse cx="237.9" cy="401.8" fill="#F9F29A" rx="9.7" ry="4.6"/></g><g><ellipse cx="237.9" cy="401.8" fill="none" rx="9.7" ry="4.6" stroke="#E1C821" stroke-miterlimit="10" stroke-width="0.2351"/></g></g><g><g><path d="M237.1,407.5c-2.3,0-4.6-0.6-4.6-0.6l0,2.2c1.8,0.7,4.6,0.6,4.6,0.6L237.1,407.5z" fill="#F9F29A"/></g></g></g></g><g><g><path d="M238.6,401.1c-1.2-0.1-2-0.2-2-0.7c0-0.4,0.6-0.6,1.6-0.6c1,0,2,0.3,2.6,0.6c0,0,0.8-0.2,0.8-0.6         c0-0.4-0.9-0.8-2.6-0.9v-0.3c0-0.4-0.2-0.5-0.9-0.5H238c-0.6,0-0.9,0.2-0.9,0.5v0.3c-1.6,0.2-2.7,0.7-2.7,1.5         c0,1,1.8,1.3,3.1,1.5c1.1,0.1,2,0.3,2,0.7c0,0.4-0.6,0.6-1.7,0.6c-1.2,0-2.3-0.3-2.9-0.7c-0.1,0-0.8,0.2-0.8,0.6         c0,0.4,1,0.9,2.9,1v0.3c0,0.4,0.2,0.5,0.9,0.5h0.1c0.6,0,0.9-0.2,0.9-0.5v-0.3c1.8-0.1,2.8-0.7,2.8-1.5         C241.8,401.5,240,401.3,238.6,401.1z" fill="#E1C821"/></g></g></g><g><g><g><g><g><path d="M221.5,396.9c-12.8,0-11.6,2.4-11.6,5.5s5.2,5.5,11.6,5.5c6.4,0,11.6-2.4,11.6-5.5           S234.5,396.9,221.5,396.9z" fill="#DAC425"/></g></g><g><g><ellipse cx="221.5" cy="400.2" fill="#F4E028" rx="11.6" ry="5.5"/></g></g><g><g><ellipse cx="221.5" cy="400" fill="#F9F29A" rx="9.7" ry="4.6"/></g><g><ellipse cx="221.5" cy="400" fill="none" rx="9.7" ry="4.6" stroke="#E1C821" stroke-miterlimit="10" stroke-width="0.2351"/></g></g><g><g><path d="M220.7,405.7c-2.3,0-4.6-0.6-4.6-0.6l0,2.2c1.8,0.7,4.6,0.6,4.6,0.6L220.7,405.7z" fill="#F9F29A"/></g></g></g></g><g><g><path d="M222.2,399.3c-1.2-0.1-2-0.2-2-0.7c0-0.4,0.6-0.6,1.6-0.6c1,0,2,0.3,2.6,0.6c0,0,0.8-0.2,0.8-0.6         c0-0.4-0.9-0.8-2.6-0.9v-0.3c0-0.4-0.2-0.5-0.9-0.5h-0.1c-0.6,0-0.9,0.2-0.9,0.5v0.3c-1.6,0.2-2.7,0.7-2.7,1.5         c0,1,1.8,1.3,3.1,1.5c1.1,0.1,2,0.3,2,0.7c0,0.4-0.6,0.6-1.7,0.6c-1.2,0-2.3-0.3-2.9-0.7c-0.1,0-0.8,0.2-0.8,0.6         c0,0.4,1,0.9,2.9,1v0.3c0,0.4,0.2,0.5,0.9,0.5h0.1c0.6,0,0.9-0.2,0.9-0.5v-0.3c1.8-0.1,2.8-0.7,2.8-1.5         C225.4,399.7,223.6,399.5,222.2,399.3z" fill="#E1C821"/></g></g></g><g><g><g><g><g><path d="M209.5,400.1c-12.8,0-11.6,2.4-11.6,5.5c0,3,5.2,5.5,11.6,5.5c6.4,0,11.6-2.4,11.6-5.5           C221.2,402.6,222.5,400.1,209.5,400.1z" fill="#DAC425"/></g></g><g><g><ellipse cx="209.5" cy="403.4" fill="#F4E028" rx="11.6" ry="5.5"/></g></g><g><g><ellipse cx="209.5" cy="403.2" fill="#F9F29A" rx="9.7" ry="4.6"/></g><g><ellipse cx="209.5" cy="403.2" fill="none" rx="9.7" ry="4.6" stroke="#E1C821" stroke-miterlimit="10" stroke-width="0.2351"/></g></g><g><g><path d="M208.8,408.9c-2.3,0-4.6-0.6-4.6-0.6l0,2.2c1.8,0.7,4.6,0.6,4.6,0.6L208.8,408.9z" fill="#F9F29A"/></g></g></g></g><g><g><path d="M210.2,402.5c-1.2-0.1-2-0.2-2-0.7c0-0.4,0.6-0.6,1.6-0.6c1,0,2,0.3,2.6,0.6c0,0,0.8-0.2,0.8-0.6         c0-0.4-0.9-0.8-2.6-0.9v-0.3c0-0.4-0.2-0.5-0.9-0.5h-0.1c-0.6,0-0.9,0.2-0.9,0.5v0.3c-1.6,0.2-2.7,0.7-2.7,1.5         c0,1,1.8,1.3,3.1,1.5c1.1,0.1,2,0.3,2,0.7c0,0.4-0.6,0.6-1.7,0.6c-1.2,0-2.3-0.3-2.9-0.7c-0.1,0-0.8,0.2-0.8,0.6         c0,0.4,1,0.9,2.9,1v0.3c0,0.4,0.2,0.5,0.9,0.5h0.1c0.6,0,0.9-0.2,0.9-0.5v-0.3c1.8-0.1,2.8-0.7,2.8-1.5         C213.4,403,211.6,402.7,210.2,402.5z" fill="#E1C821"/></g></g></g></g><g><g><g><g><g><g><path d="M308.8,400.4c-12.8,0-11.6,2.4-11.6,5.5c0,3,5.2,5.5,11.6,5.5c6.4,0,11.6-2.4,11.6-5.5           C320.5,402.8,321.8,400.4,308.8,400.4z" fill="#DAC425"/></g></g><g><g><ellipse cx="308.8" cy="403.6" fill="#F4E028" rx="11.6" ry="5.5"/></g></g><g><g><ellipse cx="308.8" cy="403.4" fill="#F9F29A" rx="9.7" ry="4.6"/></g><g><ellipse cx="308.8" cy="403.4" fill="none" rx="9.7" ry="4.6" stroke="#E1C821" stroke-miterlimit="10" stroke-width="0.2351"/></g></g><g><g><path d="M308.1,409.1c-2.3,0-4.6-0.6-4.6-0.6l0,2.2c1.8,0.7,4.6,0.6,4.6,0.6L308.1,409.1z" fill="#F9F29A"/></g></g></g></g><g><g><path d="M309.5,402.7c-1.2-0.1-2-0.2-2-0.7c0-0.4,0.6-0.6,1.6-0.6c1,0,2,0.3,2.6,0.6c0,0,0.8-0.2,0.8-0.6         c0-0.4-0.9-0.8-2.6-0.9v-0.3c0-0.4-0.2-0.5-0.9-0.5H309c-0.6,0-0.9,0.2-0.9,0.5v0.3c-1.6,0.2-2.7,0.7-2.7,1.5         c0,1,1.8,1.3,3.1,1.5c1.1,0.1,2,0.3,2,0.7c0,0.4-0.6,0.6-1.7,0.6c-1.2,0-2.3-0.3-2.9-0.7c-0.1,0-0.8,0.2-0.8,0.6         c0,0.4,1,0.9,2.9,1v0.3c0,0.4,0.2,0.5,0.9,0.5h0.1c0.6,0,0.9-0.2,0.9-0.5v-0.3c1.8-0.1,2.8-0.7,2.8-1.5         C312.7,403.2,310.9,402.9,309.5,402.7z" fill="#E1C821"/></g></g></g><g><g><g><g><g><path d="M290.6,401.9c-12.8,0-11.6,2.4-11.6,5.5c0,3,5.2,5.5,11.6,5.5c6.4,0,11.6-2.4,11.6-5.5           C302.2,404.4,303.6,401.9,290.6,401.9z" fill="#DAC425"/></g></g><g><g><ellipse cx="290.6" cy="405.2" fill="#F4E028" rx="11.6" ry="5.5"/></g></g><g><g><ellipse cx="290.6" cy="405" fill="#F9F29A" rx="9.7" ry="4.6"/></g><g><ellipse cx="290.6" cy="405" fill="none" rx="9.7" ry="4.6" stroke="#E1C821" stroke-miterlimit="10" stroke-width="0.2351"/></g></g><g><g><path d="M289.8,410.7c-2.3,0-4.6-0.6-4.6-0.6l0,2.2c1.9,0.7,4.6,0.6,4.6,0.6L289.8,410.7z" fill="#F9F29A"/></g></g></g></g><g><g><path d="M291.3,404.3c-1.2-0.1-2-0.2-2-0.7c0-0.4,0.6-0.6,1.6-0.6c1,0,2,0.3,2.6,0.6c0,0,0.8-0.2,0.8-0.6         c0-0.4-0.9-0.8-2.6-0.9v-0.3c0-0.4-0.2-0.5-0.9-0.5h-0.1c-0.6,0-0.9,0.2-0.9,0.5v0.3c-1.6,0.2-2.7,0.7-2.7,1.5         c0,1,1.8,1.3,3.1,1.5c1.1,0.1,2,0.3,2,0.7c0,0.4-0.6,0.6-1.7,0.6c-1.2,0-2.3-0.3-2.9-0.7c-0.1,0-0.8,0.2-0.8,0.6         c0,0.4,1,0.9,2.9,1v0.3c0,0.4,0.2,0.5,0.9,0.5h0.1c0.6,0,0.9-0.2,0.9-0.5v-0.3c1.8-0.1,2.8-0.7,2.8-1.5         C294.5,404.7,292.7,404.5,291.3,404.3z" fill="#E1C821"/></g></g></g><g><g><g><g><g><path d="M276.2,397.4c-12.8,0-11.6,2.4-11.6,5.5c0,3,5.2,5.5,11.6,5.5s11.6-2.4,11.6-5.5           C287.8,399.8,289.1,397.4,276.2,397.4z" fill="#DAC425"/></g></g><g><g><ellipse cx="276.2" cy="400.7" fill="#F4E028" rx="11.6" ry="5.5"/></g></g><g><g><ellipse cx="276.2" cy="400.4" fill="#F9F29A" rx="9.7" ry="4.6"/></g><g><ellipse cx="276.2" cy="400.4" fill="none" rx="9.7" ry="4.6" stroke="#E1C821" stroke-miterlimit="10" stroke-width="0.2351"/></g></g><g><g><path d="M275.4,406.1c-2.3,0-4.6-0.6-4.6-0.6l0,2.2c1.9,0.7,4.6,0.6,4.6,0.6L275.4,406.1z" fill="#F9F29A"/></g></g></g></g><g><g><path d="M276.8,399.7c-1.2-0.1-2-0.2-2-0.7c0-0.4,0.6-0.6,1.6-0.6c1,0,2,0.3,2.6,0.6c0,0,0.8-0.2,0.8-0.6         c0-0.4-0.9-0.8-2.6-0.9v-0.3c0-0.4-0.2-0.5-0.9-0.5h-0.1c-0.6,0-0.9,0.2-0.9,0.5v0.3c-1.6,0.2-2.7,0.7-2.7,1.5         c0,1,1.8,1.3,3.1,1.5c1.1,0.1,2,0.3,2,0.7c0,0.4-0.6,0.6-1.7,0.6c-1.2,0-2.3-0.3-2.9-0.7c-0.1,0-0.8,0.2-0.8,0.6         c0,0.4,1,0.9,2.9,1v0.3c0,0.4,0.2,0.5,0.9,0.5h0.1c0.6,0,0.9-0.2,0.9-0.5v-0.3c1.8-0.1,2.8-0.7,2.8-1.5         C280.1,400.2,278.2,399.9,276.8,399.7z" fill="#E1C821"/></g></g></g><g><g><g><g><g><path d="M264.2,400.6c-12.8,0-11.6,2.4-11.6,5.5c0,3,5.2,5.5,11.6,5.5c6.4,0,11.6-2.4,11.6-5.5           C275.8,403,277.1,400.6,264.2,400.6z" fill="#F4E028"/></g></g><g><g><ellipse cx="264.2" cy="403.9" fill="#F4E028" rx="11.6" ry="5.5"/></g></g><g><g><ellipse cx="264.2" cy="403.6" fill="#F9F29A" rx="9.7" ry="4.6"/></g><g><ellipse cx="264.2" cy="403.6" fill="none" rx="9.7" ry="4.6" stroke="#E1C821" stroke-miterlimit="10" stroke-width="0.2351"/></g></g><g><g><path d="M263.4,409.3c-2.3,0-4.6-0.6-4.6-0.6l0,2.2c1.8,0.7,4.6,0.6,4.6,0.6L263.4,409.3z" fill="#F9F29A"/></g></g></g></g><g><g><path d="M264.9,402.9c-1.2-0.1-2-0.2-2-0.7c0-0.4,0.6-0.6,1.6-0.6c1,0,2,0.3,2.6,0.6c0,0,0.8-0.2,0.8-0.6         c0-0.4-0.9-0.8-2.6-0.9v-0.3c0-0.4-0.2-0.5-0.9-0.5h-0.1c-0.6,0-0.9,0.2-0.9,0.5v0.3c-1.6,0.2-2.7,0.7-2.7,1.5         c0,1,1.8,1.3,3.1,1.5c1.1,0.1,2,0.3,2,0.7c0,0.4-0.6,0.6-1.7,0.6c-1.2,0-2.3-0.3-2.9-0.7c-0.1,0-0.8,0.2-0.8,0.6         c0,0.4,1,0.9,2.9,1v0.3c0,0.4,0.2,0.5,0.9,0.5h0.1c0.6,0,0.9-0.2,0.9-0.5v-0.3c1.8-0.1,2.8-0.7,2.8-1.5         C268.1,403.4,266.3,403.1,264.9,402.9z" fill="#E1C821"/></g></g></g></g></g></g></g></svg>