<?xml version="1.0" ?><!DOCTYPE svg  PUBLIC '-//W3C//DTD SVG 1.1//EN'  'http://www.w3.org/Graphics/SVG/1.1/DTD/svg11.dtd'><svg enable-background="new 0 0 514 514" height="514px" id="Layer_1" version="1.1" viewBox="0 0 514 514" width="514px" xml:space="preserve" xmlns="http://www.w3.org/2000/svg" xmlns:xlink="http://www.w3.org/1999/xlink"><g><path clip-rule="evenodd" d="M257.083,513.073c141,0,256-115,256-256s-115-256-256-256   c-141,0-256,115-256,256S116.083,513.073,257.083,513.073z" fill="#804788" fill-rule="evenodd"/><path clip-rule="evenodd" d="M257.079,161.257l0.384,1.249   c8.788-0.033,18.943-0.464,26.297-0.905c2.106-0.126,3.661-3.307,4.54-3.633l-0.012-0.372c-0.747-19.769-6.996-55.299-9.024-61.728   c-1.588-5.584-2.821-12.462,0-17.283c2.821-4.82,0.235-11.286-0.94-13.286c-1.174-1.998-1.175-3.879-1.175-3.879l-19.636-4.876   l-0.431,0.001h-0.004l-4.829,20.596l3.493,79.975L257.079,161.257z" fill="#E6E7E8" fill-rule="evenodd"/><path clip-rule="evenodd" d="M237.016,61.421c0,0,0,1.881-1.175,3.879   c-1.175,2-3.762,8.466-0.94,13.286c2.821,4.82,1.586,11.698,0,17.283c-2.033,6.446-8.312,42.153-9.029,61.889l-0.014,0.39   c0.735,0.036,1.846,1.042,2.624,1.078c8.129,0.381,18.191,2.067,28.597,2.032V56.545L237.016,61.421z" fill="#FFFFFF" fill-rule="evenodd"/><g><path clip-rule="evenodd" d="M232.158,63.795c-0.035-3.654-0.568-10.771,6.631-12.098    c6.032-1.111,12.161-1.663,18.29-1.655l3.146,3.781l-3.146,7.524h-0.116C250.989,61.364,242.464,62.088,232.158,63.795z" fill="#FFE400" fill-rule="evenodd"/><path clip-rule="evenodd" d="M282,63.795c0.037-3.654,0.569-10.771-6.63-12.098    c-6.033-1.111-12.162-1.663-18.291-1.655v11.305h0.116C263.171,61.364,271.694,62.088,282,63.795z" fill="#FFCB05" fill-rule="evenodd"/><path clip-rule="evenodd" d="M273.412,56.478L273.412,56.478    c-1.127,0-2.048,0.908-2.048,2.019v3.725c1.313,0.147,2.679,0.316,4.1,0.509v-4.233C275.464,57.386,274.54,56.478,273.412,56.478z    " fill="#FFF200" fill-rule="evenodd"/><path clip-rule="evenodd" d="M240.746,56.478L240.746,56.478c1.127,0,2.048,0.908,2.048,2.019    v3.725c-1.313,0.147-2.679,0.316-4.098,0.509v-4.233C238.696,57.386,239.619,56.478,240.746,56.478z" fill="#FFFCD5" fill-rule="evenodd"/><path clip-rule="evenodd" d="M266.882,55.19h-0.002c-1.168,0-2.123,0.94-2.123,2.092v4.341    c1.346,0.09,2.762,0.207,4.247,0.351v-4.692C269.004,56.13,268.048,55.19,266.882,55.19z" fill="#FFF200" fill-rule="evenodd"/><path clip-rule="evenodd" d="M247.278,55.19L247.278,55.19c1.168,0,2.123,0.94,2.123,2.092    v4.341c-1.345,0.09-2.761,0.207-4.246,0.351v-4.692C245.156,56.13,246.111,55.19,247.278,55.19z" fill="#FFFCD5" fill-rule="evenodd"/><path clip-rule="evenodd" d="M260.519,54.633L260.519,54.633    c-1.187,0-2.156,0.955-2.156,2.123v4.602c1.346,0.018,2.78,0.063,4.31,0.141v-4.743C262.672,55.588,261.703,54.633,260.519,54.633    z" fill="#FFF200" fill-rule="evenodd"/><path clip-rule="evenodd" d="M253.641,54.633L253.641,54.633c1.186,0,2.156,0.955,2.156,2.123    v4.602c-1.346,0.018-2.781,0.063-4.311,0.141v-4.743C251.486,55.588,252.456,54.633,253.641,54.633z" fill="#FFFCD5" fill-rule="evenodd"/><path clip-rule="evenodd" d="M278.895,58.149h-0.002c-0.911,0-1.656,0.734-1.656,1.632v3.199    c1.074,0.156,2.18,0.327,3.314,0.51v-3.709C280.551,58.883,279.805,58.149,278.895,58.149z" fill="#FFF200" fill-rule="evenodd"/><path clip-rule="evenodd" d="M235.265,58.149L235.265,58.149c0.912,0,1.658,0.734,1.658,1.632    v3.199c-1.075,0.156-2.181,0.327-3.314,0.51v-3.709C233.609,58.883,234.354,58.149,235.265,58.149z" fill="#FFFCD5" fill-rule="evenodd"/></g><path clip-rule="evenodd" d="M257.079,463.586l-12.128,0.177   c12.062-0.218,34.024-0.053,48.542-3.261c15.695-3.468,13.402-8.876,14.578-20.633c1.588-12.227-0.118-146.37,0.47-172.353   c0.588-25.983-13.036-42.076-15.02-44.956c-1.984-2.88-5.75-8.397-5.496-15.769c0.251-7.372,0.823-42.794,0.292-48.32l-0.017-0.505   c-8.291,0.427-19.561,0.675-30.866,0.716l-0.355,0.001l-9.875,46.955L257.079,463.586z" fill="#F8D369" fill-rule="evenodd"/><path clip-rule="evenodd" d="M225.858,158.146l-0.011,0.326   c-0.531,5.525,0.041,40.948,0.293,48.32c0.252,7.372-3.513,12.888-5.497,15.769c-1.983,2.88-15.608,18.973-15.021,44.956   c0.588,25.982-1.118,160.126,0.471,172.353c1.176,11.757-1.117,17.165,14.578,20.633c14.559,3.216,24.279,3.261,36.407,3.084   V158.685C245.676,158.723,234.264,158.552,225.858,158.146z" fill="#FDEB7D" fill-rule="evenodd"/><path clip-rule="evenodd" d="M214.659,270.573c12.886-0.78,27.889-0.742,41.833-0.585   l8.229,67.641l-5.29,12.205l-2.939,1.034c-22.248,0.656-39.63-1.394-45.105-2.141l-0.003-0.208   C211.002,320.619,211.704,292.053,214.659,270.573z" fill="#FFFFFF" fill-rule="evenodd"/><path clip-rule="evenodd" d="M298.325,270.573c-13.943-0.194-26.947-0.683-41.833-0.585v80.316   v0.563c22.247,0.656,39.63-1.394,45.105-2.141l0.003-0.208C301.981,320.619,301.28,292.053,298.325,270.573z" fill="#E6E7E8" fill-rule="evenodd"/><path clip-rule="evenodd" d="M256.492,350.868l8.699,31.2l-8.699,49.798   c-15.158-0.383-30.427-1.57-41.401-3.863c-1.486-18.621-3.272-47.991-3.705-79.275   C216.862,349.475,234.244,351.524,256.492,350.868z" fill="#0C2750" fill-rule="evenodd"/><path clip-rule="evenodd" d="M256.492,350.868v30.143v50.855   c15.396-0.338,30.428-1.347,41.4-3.639c1.485-18.622,3.273-48.216,3.705-79.5C296.122,349.475,278.739,351.524,256.492,350.868z" fill="#06101D" fill-rule="evenodd"/></g></svg>