<?xml version="1.0" ?><!DOCTYPE svg  PUBLIC '-//W3C//DTD SVG 1.1//EN'  'http://www.w3.org/Graphics/SVG/1.1/DTD/svg11.dtd'><svg enable-background="new 0 0 64 64" height="64px" version="1.1" viewBox="0 0 64 64" width="64px" xml:space="preserve" xmlns="http://www.w3.org/2000/svg" xmlns:xlink="http://www.w3.org/1999/xlink"><g id="background"><circle cx="32" cy="32" fill="#21B2D1" r="32"/></g><g id="icon"><g id="beer"><g><g><g><path d="M48.852,46.428l-5.1-0.25c-1.418-0.07-2.72-0.628-3.666-1.572c-0.926-0.925-1.395-2.106-1.32-3.328       l0.653-10.635c0.152-2.47,2.472-4.405,5.282-4.405c0.097,0,0.194,0.002,0.292,0.007l5.097,0.25       c1.418,0.07,2.72,0.628,3.666,1.572c0.926,0.924,1.395,2.106,1.32,3.328L54.423,42.03c-0.152,2.47-2.471,4.405-5.278,4.405       C49.048,46.436,48.95,46.433,48.852,46.428z M44.697,27.94c-1.708,0-3.122,1.224-3.218,2.787l-0.653,10.635       c-0.045,0.741,0.212,1.465,0.726,2.039c0.573,0.641,1.419,1.033,2.321,1.077c0,0,5.241,0.254,5.242,0.254       c1.739,0,3.151-1.224,3.248-2.787l0.653-10.635c0.05-0.799-0.251-1.567-0.847-2.162c-0.575-0.574-1.357-0.913-2.2-0.954       L44.697,27.94z" fill="#FBE158"/><path d="M44.702,26.909L44.702,26.909c0.086,0,0.173,0.002,0.258,0.006l5.098,0.25       c1.252,0.062,2.398,0.551,3.226,1.377c0.788,0.786,1.187,1.785,1.124,2.812l-0.652,10.635       c-0.131,2.117-2.155,3.776-4.609,3.776c-0.085,0-0.172-0.002-0.262-0.006l-5.098-0.25c-1.252-0.062-2.398-0.551-3.226-1.376       c-0.788-0.787-1.187-1.785-1.125-2.812l0.653-10.635C40.218,28.568,42.245,26.91,44.702,26.909L44.702,26.909z M49.156,45.376       h-0.011c2.062,0,3.769-1.487,3.887-3.403l0.652-10.627c0.062-0.995-0.309-1.942-1.042-2.674       c-0.693-0.692-1.631-1.099-2.641-1.147l-5.239-0.142l-0.033,0.111h-0.032c-2.062,0-3.769,1.39-3.887,3.306l-0.653,10.579       c-0.057,0.921,0.261,1.791,0.896,2.499c0.692,0.773,1.708,1.232,2.788,1.285l5.239,0.233l0.033-0.02H49.156z M44.701,25.568       c-3.161,0-5.778,2.21-5.952,5.035l-0.653,10.635c-0.087,1.416,0.452,2.781,1.516,3.843c1.064,1.062,2.522,1.688,4.107,1.767       l5.098,0.25c0.11,0.006,0.219,0.008,0.328,0.008c3.162,0,5.774-2.211,5.948-5.035l0.653-10.635       c0.087-1.417-0.452-2.781-1.516-3.843c-1.064-1.062-2.522-1.689-4.107-1.767l-5.098-0.25       C44.916,25.571,44.809,25.568,44.701,25.568L44.701,25.568z M49.145,44.063l-5.239-0.254c-1.406-0.069-2.487-1.147-2.41-2.404       l0.653-10.635c0.074-1.21,1.193-2.158,2.548-2.158l5.239,0.254c0.677,0.033,1.302,0.302,1.759,0.759       c0.458,0.456,0.689,1.041,0.651,1.646l-0.653,10.635C51.619,43.115,50.5,44.063,49.145,44.063L49.145,44.063z" fill="#FACB1B"/></g></g><path d="M47.675,47.042l0.231-3.04l-4.001-0.194c-1.406-0.069-2.487-1.147-2.41-2.404l0.653-10.635     c0.074-1.21,1.193-2.158,2.548-2.158l4.366,0.212l0.231-3.038l-4.27-0.209c-3.304-0.157-6.096,2.106-6.275,5.027l-0.653,10.635     c-0.087,1.416,0.452,2.781,1.516,3.843c1.064,1.062,2.522,1.688,4.107,1.767L47.675,47.042z" fill="#FACB1B"/><path d="M44.835,50.758C44.579,54.191,41.554,57,38.111,57H22.648c-3.442,0-6.468-2.809-6.724-6.242     l-2.068-27.753c-0.256-3.433,2.352-6.242,5.794-6.242h21.459c3.442,0,6.05,2.809,5.794,6.242L44.835,50.758z" fill="#FACB1B"/><path d="M40.215,18.552H20.544c-2.951,0-5.201,2.409-5,5.353l1.708,25.042c0.613,2.53,3.029,4.477,5.76,4.477     h14.737c2.73,0,5.146-1.946,5.759-4.477l1.708-25.042C45.416,20.96,43.166,18.552,40.215,18.552z" fill="#FBE158"/><path d="M35.332,49.871c-0.03,0.983,0.75,1.812,1.733,1.842l1.788,0.054c0.983,0.03,1.812-0.75,1.842-1.733     l0.827-27.167c0.03-0.983-0.75-1.812-1.733-1.842L38,20.972c-0.983-0.03-1.812,0.75-1.842,1.733L35.332,49.871z" fill="#FACB1B"/><path d="M33.062,49.847c0,0.988-0.801,1.789-1.789,1.789h-1.788c-0.988,0-1.788-0.801-1.788-1.789V23.022     c0-0.987,0.8-1.788,1.788-1.788h1.788c0.988,0,1.789,0.801,1.789,1.788V49.847z" fill="#FACB1B"/><path d="M39.747,50.873l-1.788-0.054c-0.983-0.03-1.763-0.859-1.732-1.842l0.826-27.167     c0.007-0.239,0.063-0.465,0.156-0.671c-0.599,0.275-1.028,0.865-1.05,1.566l-0.827,27.167c-0.03,0.983,0.75,1.812,1.733,1.842     l1.788,0.054c0.744,0.022,1.398-0.419,1.686-1.062C40.297,50.817,40.03,50.882,39.747,50.873z" fill="#FBEC9A"/><path d="M25.427,49.871c0.03,0.983-0.75,1.812-1.733,1.842l-1.788,0.054c-0.983,0.03-1.812-0.75-1.842-1.733     l-0.826-27.167c-0.03-0.983,0.75-1.812,1.733-1.842l1.788-0.054c0.983-0.03,1.812,0.75,1.842,1.733L25.427,49.871z" fill="#FACB1B"/><path d="M24.588,50.819L22.8,50.873c-0.983,0.03-1.812-0.75-1.842-1.733l-0.827-27.167     c-0.009-0.283,0.056-0.55,0.167-0.792c-0.642,0.288-1.084,0.942-1.061,1.686l0.826,27.167c0.03,0.983,0.859,1.763,1.842,1.733     l1.788-0.054c0.7-0.021,1.291-0.452,1.566-1.05C25.054,50.755,24.827,50.812,24.588,50.819z" fill="#FBEC9A"/><path d="M32.168,50.741h-1.789c-0.987,0-1.788-0.801-1.788-1.789V22.128c0-0.262,0.059-0.509,0.161-0.733     c-0.621,0.281-1.055,0.902-1.055,1.627v26.824c0,0.988,0.8,1.789,1.788,1.789h1.788c0.726,0,1.347-0.434,1.628-1.055     C32.677,50.682,32.43,50.741,32.168,50.741z" fill="#FBEC9A"/><g><g><ellipse cx="38.977" cy="48.094" fill="#FBE158" rx="1.972" ry="1.625"/><ellipse cx="38.082" cy="39.153" fill="#FBE158" rx="0.853" ry="0.703"/><ellipse cx="39.871" cy="32.894" fill="#FBE158" rx="1.136" ry="0.935"/></g><g><ellipse cx="30.929" cy="43.624" fill="#FBE158" rx="1.972" ry="1.625"/><ellipse cx="30.929" cy="37.365" fill="#FBE158" rx="1.416" ry="1.166"/><ellipse cx="30.119" cy="30.211" fill="#FBE158" rx="0.857" ry="0.637"/></g><g><ellipse cx="23.365" cy="47.687" fill="#FBE158" rx="1.525" ry="1.18" transform="matrix(0.997 -0.077 0.077 0.997 -3.6021 1.9404)"/><ellipse cx="23.365" cy="42.323" fill="#FBE158" rx="1.073" ry="0.83" transform="matrix(0.997 -0.0769 0.0769 0.997 -3.1849 1.9218)"/></g></g></g><g><path d="M45.215,23.905c0.201-2.944-2.049-5.353-5-5.353H20.544c-2.951,0-5.201,2.409-5,5.353l0.947,13.878     c0.295,0.077,0.595,0.141,0.904,0.177c0.098,2.136,1.847,3.84,4.005,3.84c2.222,0,4.024-1.8,4.024-4.023     c0-1.244-0.577-2.341-1.463-3.08c0.586-0.997,0.929-2.154,0.929-3.394c0-0.019-0.002-0.037-0.003-0.055     c3.189-0.667,5.874-2.693,7.431-5.443c1.225,1.329,2.976,2.166,4.926,2.166c2.218,0,4.179-1.081,5.4-2.739     c0.888-0.036,1.733-0.23,2.518-0.545L45.215,23.905z" fill="#FACB1B"/><g><g><circle cx="22.592" cy="18.522" fill="#F8E1C2" r="11.177"/><circle cx="18.184" cy="29.516" fill="#F8E1C2" r="6.706"/><circle cx="21.401" cy="35.989" fill="#F8E1C2" r="4.024"/><circle cx="30.334" cy="14.816" fill="#F8E1C2" r="8.494"/><circle cx="37.245" cy="19.477" fill="#F8E1C2" r="6.706"/><circle cx="42.337" cy="15.859" fill="#F8E1C2" r="7.6"/></g><g><circle cx="20.955" cy="16.98" fill="#FCF1E2" r="8.494"/><circle cx="17.312" cy="28.492" fill="#FCF1E2" r="4.024"/><circle cx="18.276" cy="33.096" fill="#FCF1E2" r="2.236"/><circle cx="30.174" cy="13.297" fill="#FCF1E2" r="6.706"/><circle cx="36.72" cy="18.522" fill="#FCF1E2" r="4.918"/><circle cx="41.228" cy="16.98" fill="#FCF1E2" r="5.365"/></g></g></g></g></g></svg>