<?xml version="1.0" ?><!DOCTYPE svg  PUBLIC '-//W3C//DTD SVG 1.1//EN'  'http://www.w3.org/Graphics/SVG/1.1/DTD/svg11.dtd'><svg enable-background="new -128 -128 512 512" height="512px" id="Layer_1" version="1.1" viewBox="-128 -128 512 512" width="512px" xml:space="preserve" xmlns="http://www.w3.org/2000/svg" xmlns:xlink="http://www.w3.org/1999/xlink"><g><circle cx="128.071" cy="128.852" fill="#66B0DD" r="256"/><g><g><path d="M118.071,58.876c-12.181-9.977-27.576-19.881-32-30.026c-7.595-17.416-8-76-8-76h-32     c0,0-0.406,58.584-8,76c-7.637,17.512-48,34.308-48,52c0,49.008,0,196.042,0,232.001c0,4.418,3.583,8,8,8h92     C121.946,320.852,118.103,233.52,118.071,58.876z" fill="#4B5A64"/><path d="M42.071-51.148c0,2.208,1.791,4,4,4h32c2.207,0,4-1.792,4-4v-4h-40V-51.148z" fill="#3E4F59"/><path d="M78.071-79.148h-32c-2.209,0-4,1.792-4,4v12h40v-12C82.071-77.358,80.28-79.148,78.071-79.148z" fill="#4B5A64"/><rect fill="#F4F4F4" height="8" width="40" x="42.071" y="-63.148"/><path d="M118.187,120.852H-9.929v144h125.208C118.282,231.631,118.337,183.637,118.187,120.852z" fill="#F9C953"/><path d="M90.071,320.852h36c4.418,0,8-3.582,8-8c0-9.514,0-26.805,0-48h-18.793     C111.905,302.174,104.805,320.852,90.071,320.852z" fill="#3E4F59"/><path d="M118.071,58.876c0.004,22.052,0.069,42.707,0.115,61.974h15.885c0-16.187,0-30.097,0-40     C134.071,73.408,126.919,66.123,118.071,58.876z" fill="#3E4F59"/><path d="M115.278,264.852h18.793v-144h-15.885C118.337,183.637,118.282,231.631,115.278,264.852z" fill="#F1BC3A"/></g><g><path d="M243.749,304.852h-87.01c-3.686,0-6.668-3.582-6.668-8c0-19.102,0-17.549,0-68h103.264     c0.363-11.008,0.588-23.016,0.719-36H146.071c0,50.451,0,100.898,0,120c0,4.418,2.982,8,6.668,8h73.332     C233.946,320.852,239.636,315.512,243.749,304.852z" fill="#F4F4F4"/><path d="M150.071,296.852c0,4.418,2.982,8,6.668,8h87.01c5.748-14.91,8.402-40.238,9.586-76H150.071     C150.071,279.301,150.071,277.75,150.071,296.852z" fill="#F97450"/><path d="M266.071,312.852c0-19.102,0-69.549,0-120h-12.018c-0.131,12.984-0.357,24.992-0.719,36h8.736     c0,50.451,0,48.898,0,68c0,4.418-2.984,8-6.668,8h-11.654c-4.113,10.66-9.803,16-17.678,16h33.332     C263.087,320.852,266.071,317.27,266.071,312.852z" fill="#D8D8D8"/><path d="M255.403,304.852c3.684,0,6.668-3.582,6.668-8c0-19.102,0-17.549,0-68h-8.736     c-1.184,35.762-3.838,61.09-9.586,76H255.403z" fill="#F25E37"/></g></g></g></svg>