<?xml version="1.0" ?><!DOCTYPE svg  PUBLIC '-//W3C//DTD SVG 1.1//EN'  'http://www.w3.org/Graphics/SVG/1.1/DTD/svg11.dtd'><svg enable-background="new 0 0 130 130" id="Layer_1" version="1.1" viewBox="0 0 130 130" xml:space="preserve" xmlns="http://www.w3.org/2000/svg" xmlns:xlink="http://www.w3.org/1999/xlink"><g><g><g><linearGradient gradientUnits="userSpaceOnUse" id="SVGID_1_" x1="65" x2="65" y1="74.3131" y2="32.7158"><stop offset="0" style="stop-color:#FBAF28"/><stop offset="0.9964" style="stop-color:#F4832C"/></linearGradient><circle cx="65" cy="65" fill="url(#SVGID_1_)" r="64"/><g><g><linearGradient gradientTransform="matrix(-1 0 0 1 -933.3359 0)" gradientUnits="userSpaceOnUse" id="SVGID_2_" x1="-998.3359" x2="-998.3359" y1="147.7254" y2="78.506"><stop offset="0" style="stop-color:#FBAF28"/><stop offset="0.9964" style="stop-color:#F4832C"/></linearGradient><path d="M7.4,93c10.4,21.3,32.3,36,57.6,36s47.2-14.7,57.6-36H7.4z" fill="url(#SVGID_2_)"/></g></g><g><g><linearGradient gradientTransform="matrix(-1 0 0 1 -933.3359 0)" gradientUnits="userSpaceOnUse" id="SVGID_3_" x1="-998.3359" x2="-998.3359" y1="147.7254" y2="78.506"><stop offset="0" style="stop-color:#FBAF28"/><stop offset="0.9964" style="stop-color:#F4832C"/></linearGradient><path d="M7.4,93c10.4,21.3,32.3,36,57.6,36s47.2-14.7,57.6-36H7.4z" fill="url(#SVGID_3_)"/></g></g><g><g><linearGradient gradientTransform="matrix(-1 0 0 1 -933.3359 0)" gradientUnits="userSpaceOnUse" id="SVGID_4_" x1="-998.3359" x2="-998.3359" y1="128.0908" y2="75.1032"><stop offset="0" style="stop-color:#FBAF28"/><stop offset="0.9964" style="stop-color:#F4832C"/></linearGradient><path d="M7.4,93c10.4,21.3,32.3,36,57.6,36s47.2-14.7,57.6-36H7.4z" fill="url(#SVGID_4_)"/></g></g><g><linearGradient gradientUnits="userSpaceOnUse" id="SVGID_5_" x1="32.6837" x2="32.6837" y1="114.4923" y2="112.8641"><stop offset="1.076729e-007" style="stop-color:#383647"/><stop offset="0.9928" style="stop-color:#272535"/></linearGradient><rect fill="url(#SVGID_5_)" height="6.1" width="6.8" x="29.3" y="104.1"/></g><linearGradient gradientUnits="userSpaceOnUse" id="SVGID_6_" x1="32.6837" x2="32.6837" y1="128.7837" y2="125.8692"><stop offset="3.584667e-003" style="stop-color:#E6E6E6"/><stop offset="1" style="stop-color:#F1F1F1"/></linearGradient><rect fill="url(#SVGID_6_)" height="8.1" width="2.5" x="31.4" y="110.1"/><g><g><linearGradient gradientUnits="userSpaceOnUse" id="SVGID_7_" x1="32.6837" x2="32.6837" y1="110.0002" y2="117.6591"><stop offset="1.076729e-007" style="stop-color:#383647"/><stop offset="0.9928" style="stop-color:#272535"/></linearGradient><path d="M16.9,100.9v2.3c0,4.1,31.6,4.1,31.6,0v-2.3H16.9z" fill="url(#SVGID_7_)"/></g><g><g><g><linearGradient gradientUnits="userSpaceOnUse" id="SVGID_8_" x1="76.9889" x2="76.9889" y1="130.9847" y2="124.9874"><stop offset="1.076729e-007" style="stop-color:#383647"/><stop offset="0.9928" style="stop-color:#272535"/></linearGradient><path d="M82.8,121.6l-8.8,0.9c-1.6,0.2-2.9-1.1-2.9-2.6l0.2-2.2l4.1-0.7l5.3,1.7         C82.1,119.1,82.9,120.3,82.8,121.6z" fill="url(#SVGID_8_)"/></g><g><linearGradient gradientTransform="matrix(0.8958 -0.4445 0.4445 0.8958 296.9337 -238.1823)" gradientUnits="userSpaceOnUse" id="SVGID_9_" x1="-342.6949" x2="-342.6949" y1="240.7883" y2="234.791"><stop offset="1.076729e-007" style="stop-color:#383647"/><stop offset="0.9928" style="stop-color:#272535"/></linearGradient><path d="M84.8,92.1l-7.4,4.7c-1.3,0.8-3.1,0.3-3.8-1.1l-0.8-2.1l3.4-2.5l5.5-0.8         C83,90.2,84.3,90.9,84.8,92.1z" fill="url(#SVGID_9_)"/></g><g><linearGradient gradientUnits="userSpaceOnUse" id="SVGID_10_" x1="56.4538" x2="56.4538" y1="67.5858" y2="59.1941"><stop offset="0" style="stop-color:#FBD2C3"/><stop offset="0.9964" style="stop-color:#F8AF9B"/></linearGradient><path d="M55.2,61.1c1.8-1.8,3.4-0.8,1.9,0.5" fill="url(#SVGID_10_)"/><g><linearGradient gradientUnits="userSpaceOnUse" id="SVGID_11_" x1="54.0295" x2="63.6297" y1="59.139" y2="57.615"><stop offset="3.584667e-003" style="stop-color:#E6E6E6"/><stop offset="1" style="stop-color:#F1F1F1"/></linearGradient><path d="M58.3,61.6v3c0.8,0.1,1.5,0.4,1.9,0.8h-4.7c0.5-0.4,1.2-0.7,1.9-0.8v-3          c0-1.5-0.8-2.8-1.9-3.7c-1.4-1.2-2.4-3.4-2.6-5.9h9.8c-0.1,2.6-1.1,4.8-2.5,5.9C59,58.9,58.3,60.2,58.3,61.6z" fill="url(#SVGID_11_)"/></g><g><linearGradient gradientUnits="userSpaceOnUse" id="SVGID_12_" x1="57.8516" x2="57.8516" y1="63.3442" y2="51.0104"><stop offset="0" style="stop-color:#ED5B5A"/><stop offset="0.9928" style="stop-color:#E24026"/></linearGradient><path d="M53.5,54.8c0.4,1.3,1.2,2.5,2.1,3.2c0.5,0.4,0.8,0.8,1.2,1.3c0.8,0.6,1.6,0.6,2.4,0          c0.3-0.5,0.7-0.9,1.2-1.3c0.9-0.7,1.6-1.8,2-3.2H53.5z" fill="url(#SVGID_12_)"/></g><g><g><linearGradient gradientUnits="userSpaceOnUse" id="SVGID_13_" x1="56.1304" x2="56.1304" y1="67.5858" y2="59.1941"><stop offset="0" style="stop-color:#FBD2C3"/><stop offset="0.9964" style="stop-color:#F8AF9B"/></linearGradient><path d="M57.1,61.6c0.6,0.2,1.1-0.3,1.2-1c0.1-0.8,0.5-0.3,0.9,0.5c1,2.1,1.7,3.7-0.6,3.9           c-1,0-1.1,0.2-4.3,2.7l-2.2-3.6c2.2-1.9,2.5-2.3,2.7-2.6c0.1-0.1,0.2-0.3,0.4-0.4" fill="url(#SVGID_13_)"/></g><g><g><g><g><linearGradient gradientTransform="matrix(0.9874 0.1582 -0.1582 0.9874 -134.2251 55.4045)" gradientUnits="userSpaceOnUse" id="SVGID_14_" x1="151.7223" x2="151.7223" y1="-24.1081" y2="-42.5355"><stop offset="0" style="stop-color:#FBD2C3"/><stop offset="0.9964" style="stop-color:#F8AF9B"/></linearGradient><polygon fill="url(#SVGID_14_)" points="18,33.5 15.2,51 24.8,52.5 27.6,35             "/></g><g><g><g><linearGradient gradientTransform="matrix(0.9874 0.1582 -0.1582 0.9874 -134.2251 55.4045)" gradientUnits="userSpaceOnUse" id="SVGID_15_" x1="154.922" x2="153.764" y1="-36.4779" y2="-54.2544"><stop offset="0" style="stop-color:#FBD2C3"/><stop offset="0.9964" style="stop-color:#F8AF9B"/></linearGradient><path d="M29.4,43.5c-0.3,0.7-1.1,0.9-1.8,0.6c-6.8-2.9-10.9-10.9-8.9-17.4l15,0.2                C33.5,32.6,32,38.3,29.4,43.5z" fill="url(#SVGID_15_)"/></g></g><g><linearGradient gradientTransform="matrix(0.9874 0.1582 -0.1582 0.9874 -134.2251 55.4045)" gradientUnits="userSpaceOnUse" id="SVGID_16_" x1="153.274" x2="153.274" y1="-59.3221" y2="-38.9437"><stop offset="1.076729e-007" style="stop-color:#383647"/><stop offset="0.9928" style="stop-color:#272535"/></linearGradient><path d="M32.5,29.1c-2.1,0.2-4.9-2.4-5.9,1.4c-0.2,0.9-0.5,1.7-0.7,2.6               c-0.6,2.3-1.5,1.2-2.4,0.5c-3.3-2.5-4,5.1-5.9,6.4c-0.5,0.4-0.9,0.3-1-0.6c0-3.6-2.6-8.9,1.1-14.2               c6-8.8,14.8-1,16.2-1.8C36,25.9,34.6,28.9,32.5,29.1z" fill="url(#SVGID_16_)"/></g></g></g><g><g><linearGradient gradientUnits="userSpaceOnUse" id="SVGID_17_" x1="21.1636" x2="21.1636" y1="61.6951" y2="66.7869"><stop offset="3.584667e-003" style="stop-color:#E6E6E6"/><stop offset="1" style="stop-color:#F1F1F1"/></linearGradient><path d="M27.1,52c-4.6-2-8.7-4.3-11.9-7.2l0.8-3.3c0.1-0.4,0.6-0.7,1-0.5              C19.6,42,27.7,45.6,27.1,52z" fill="url(#SVGID_17_)"/></g><g><g><linearGradient gradientUnits="userSpaceOnUse" id="SVGID_18_" x1="73.5724" x2="53.2058" y1="128.2887" y2="88.0329"><stop offset="0" style="stop-color:#2A3477"/><stop offset="0.9892" style="stop-color:#13163F"/></linearGradient><path d="M75.9,117c-1.5,1-3.1,1.3-4.9,1l-7.8-20.4l-23.7-0.9l-0.2-15.8l28.1,5.5               c3,0.6,5.2,3,5.5,6.1L75.9,117z" fill="url(#SVGID_18_)"/></g><g><linearGradient gradientUnits="userSpaceOnUse" id="SVGID_19_" x1="52.9538" x2="52.9538" y1="99.406" y2="119.8398"><stop offset="0" style="stop-color:#2A3477"/><stop offset="0.9892" style="stop-color:#13163F"/></linearGradient><path d="M76.8,91c-1.1,1.5-2.5,2.6-4.2,3.2L56.7,78.9L41.9,97.3l-12.8-9.2l22.2-20.2               c2.9-2.6,7.5-2.1,9.7,1.2L76.8,91z" fill="url(#SVGID_19_)"/></g><g><linearGradient gradientUnits="userSpaceOnUse" id="SVGID_20_" x1="25.5278" x2="25.5278" y1="108.3917" y2="81.9873"><stop offset="3.584667e-003" style="stop-color:#E6E6E6"/><stop offset="1" style="stop-color:#F1F1F1"/></linearGradient><path d="M40.1,78c0,0-4.3,17.9-17.8,21.9c-1.7-7.1-3.5-14.2-6.2-21c-5.3-13-8-16.4-0.9-34.1               c0,0,10.8,2.6,15.3,11.4C37.3,65.3,40.1,78,40.1,78z" fill="url(#SVGID_20_)"/></g><g><linearGradient gradientUnits="userSpaceOnUse" id="SVGID_21_" x1="30.0624" x2="30.0624" y1="103.5439" y2="48.414"><stop offset="0" style="stop-color:#ED5B5A"/><stop offset="0.9928" style="stop-color:#E24026"/></linearGradient><path d="M52.2,100.1c-6.6,3.3-22.7,3.9-31.1,3.4c-7.8-0.5-8.2-4.2-7.8-11.9               c1-15.8-5.9-22.4-7.3-31.3c-0.7-4.6,1.3-6.2,3.3-2.1c4.5,9.2,12.5,16.6,22,20.3c6.4,2.5,6.7,2.6,10.3,9.2               c1.8,3.4,4.4,6.8,8.2,7.5C55.5,96.5,54.9,98.8,52.2,100.1z" fill="url(#SVGID_21_)"/></g></g></g></g><g><linearGradient gradientUnits="userSpaceOnUse" id="SVGID_22_" x1="35.77" x2="35.77" y1="90.1195" y2="94.3381"><stop offset="3.584667e-003" style="stop-color:#E6E6E6"/><stop offset="1" style="stop-color:#F1F1F1"/></linearGradient><path d="M56.8,66c-12.5,16-35.5,15-41.2-3c-4.1-8.8,8.5-17.3,11.5-5.2c5.8,17.9,20.8,8.2,26.8,4.3            C55.5,62.9,56.4,64.2,56.8,66z" fill="url(#SVGID_22_)"/></g></g></g><g><linearGradient gradientUnits="userSpaceOnUse" id="SVGID_23_" x1="57.7577" x2="57.7577" y1="58.5934" y2="59.4128"><stop offset="0" style="stop-color:#ED5B5A"/><stop offset="0.9928" style="stop-color:#E24026"/></linearGradient><path d="M58,56.9c0,0.1-0.1,0.2-0.2,0.2c-0.1,0-0.2-0.1-0.2-0.2c0-0.1,0.1-0.2,0.2-0.2          C57.9,56.7,58,56.8,58,56.9z" fill="url(#SVGID_23_)"/></g><g><linearGradient gradientUnits="userSpaceOnUse" id="SVGID_24_" x1="59.4945" x2="59.4945" y1="57.9323" y2="59.0802"><stop offset="0" style="stop-color:#ED5B5A"/><stop offset="0.9928" style="stop-color:#E24026"/></linearGradient><path d="M59.8,55.6c0,0.2-0.1,0.3-0.3,0.3c-0.2,0-0.3-0.1-0.3-0.3c0-0.2,0.1-0.3,0.3-0.3          C59.7,55.3,59.8,55.4,59.8,55.6z" fill="url(#SVGID_24_)"/></g><g><linearGradient gradientUnits="userSpaceOnUse" id="SVGID_25_" x1="58.4824" x2="58.4824" y1="59.6163" y2="60.4001"><stop offset="0" style="stop-color:#ED5B5A"/><stop offset="0.9928" style="stop-color:#E24026"/></linearGradient><path d="M58.7,58c0,0.1-0.1,0.2-0.2,0.2c-0.1,0-0.2-0.1-0.2-0.2c0-0.1,0.1-0.2,0.2-0.2          C58.6,57.8,58.7,57.9,58.7,58z" fill="url(#SVGID_25_)"/></g><g><linearGradient gradientUnits="userSpaceOnUse" id="SVGID_26_" x1="56.1507" x2="56.1507" y1="58.3895" y2="59.5781"><stop offset="0" style="stop-color:#ED5B5A"/><stop offset="0.9928" style="stop-color:#E24026"/></linearGradient><path d="M56.5,56c0,0.2-0.1,0.3-0.3,0.3c-0.2,0-0.3-0.1-0.3-0.3c0-0.2,0.1-0.3,0.3-0.3          C56.3,55.6,56.5,55.8,56.5,56z" fill="url(#SVGID_26_)"/></g><g><linearGradient gradientUnits="userSpaceOnUse" id="SVGID_27_" x1="58.8087" x2="58.8087" y1="55.8318" y2="57.0205"><stop offset="0" style="stop-color:#ED5B5A"/><stop offset="0.9928" style="stop-color:#E24026"/></linearGradient><path d="M59.1,53.4c0,0.2-0.1,0.3-0.3,0.3c-0.2,0-0.3-0.1-0.3-0.3c0-0.2,0.1-0.3,0.3-0.3          C59,53.1,59.1,53.2,59.1,53.4z" fill="url(#SVGID_27_)"/></g></g></g></g></g><linearGradient gradientUnits="userSpaceOnUse" id="SVGID_28_" x1="37.7159" x2="37.7159" y1="129.2569" y2="125.0583"><stop offset="1.076729e-007" style="stop-color:#383647"/><stop offset="0.9928" style="stop-color:#272535"/></linearGradient><path d="M31.5,119.5h15.6v-2.1H28.3C29.4,118.2,30.4,118.9,31.5,119.5z" fill="url(#SVGID_28_)"/><g><linearGradient gradientUnits="userSpaceOnUse" id="SVGID_29_" x1="47.1187" x2="47.1187" y1="129.2569" y2="125.0583"><stop offset="1.076729e-007" style="stop-color:#383647"/><stop offset="0.9928" style="stop-color:#272535"/></linearGradient><path d="M49.9,120.2c0,1.6-1.3,2.8-2.8,2.8c-1.6,0-2.8-1.3-2.8-2.8s1.3-2.8,2.8-2.8      C48.7,117.4,49.9,118.7,49.9,120.2z" fill="url(#SVGID_29_)"/></g></g><g><linearGradient gradientUnits="userSpaceOnUse" id="SVGID_30_" x1="109.518" x2="109.518" y1="119.7955" y2="99.7763"><stop offset="0" style="stop-color:#FBAF28"/><stop offset="0.9964" style="stop-color:#F4832C"/></linearGradient><path d="M129,66H90.1v37.7H116C123.9,93.2,128.8,80.2,129,66z" fill="url(#SVGID_30_)"/><linearGradient gradientUnits="userSpaceOnUse" id="SVGID_31_" x1="107.3591" x2="107.3591" y1="73.5485" y2="61.645"><stop offset="0" style="stop-color:#FBAF28"/><stop offset="0.9964" style="stop-color:#F4832C"/></linearGradient><path d="M128.8,59.6h-43V66H129c0-0.3,0-0.7,0-1C129,63.2,128.9,61.4,128.8,59.6z" fill="url(#SVGID_31_)"/></g><g><g><g><linearGradient gradientTransform="matrix(1 0 0 1 5.4739 7.088)" gradientUnits="userSpaceOnUse" id="SVGID_32_" x1="92.2419" x2="92.2419" y1="61.1952" y2="24.7356"><stop offset="1.076729e-007" style="stop-color:#383647"/><stop offset="0.9928" style="stop-color:#272535"/></linearGradient><path d="M101.6,49.7v9.2c0,0.4-0.3,0.7-0.7,0.7h-6.3c-0.4,0-0.7-0.3-0.7-0.7l0-9.2c0-1.4,0.4-2.8,1.1-4       c0.9-1.3,1.3-2.9,1.3-4.5v-3.5h2.9l0,3.4c0,1.5,0.4,3,1.2,4.3C101.1,46.8,101.6,48.2,101.6,49.7z" fill="url(#SVGID_32_)"/></g><g><linearGradient gradientTransform="matrix(1 0 0 1 5.4739 7.088)" gradientUnits="userSpaceOnUse" id="SVGID_33_" x1="92.2346" x2="92.2346" y1="31.6613" y2="33.6298"><stop offset="1.076729e-007" style="stop-color:#383647"/><stop offset="0.9928" style="stop-color:#272535"/></linearGradient><path d="M99.1,37.9c0.2,0,0.4-0.2,0.4-0.4S99.4,37,99.1,37h-2.9c-0.2,0-0.4,0.2-0.4,0.4       c0,0.2,0.2,0.4,0.4,0.4L99.1,37.9z" fill="url(#SVGID_33_)"/></g></g><g><g><linearGradient gradientTransform="matrix(1 0 0 1 5.4739 7.088)" gradientUnits="userSpaceOnUse" id="SVGID_34_" x1="92.2419" x2="92.2419" y1="67.1527" y2="18.053"><stop offset="4.255643e-007" style="stop-color:#64BABC"/><stop offset="0.9821" style="stop-color:#038689"/></linearGradient><rect fill="url(#SVGID_34_)" height="5.2" width="7.7" x="93.8" y="51.1"/></g></g></g><g><g><g><linearGradient gradientTransform="matrix(1 0 0 1 5.4739 7.088)" gradientUnits="userSpaceOnUse" id="SVGID_35_" x1="105.7957" x2="105.7957" y1="61.1952" y2="24.7356"><stop offset="1.076729e-007" style="stop-color:#383647"/><stop offset="0.9928" style="stop-color:#272535"/></linearGradient><path d="M115.1,49.7v9.2c0,0.4-0.3,0.7-0.7,0.7h-6.3c-0.4,0-0.7-0.3-0.7-0.7v-9.2c0-1.4,0.4-2.8,1.1-4       c0.9-1.3,1.3-2.9,1.3-4.5v-3.5h2.9v3.4c0,1.5,0.4,3,1.2,4.3C114.7,46.8,115.1,48.2,115.1,49.7z" fill="url(#SVGID_35_)"/></g><g><linearGradient gradientTransform="matrix(1 0 0 1 5.4739 7.088)" gradientUnits="userSpaceOnUse" id="SVGID_36_" x1="105.7883" x2="105.7883" y1="31.6613" y2="33.6298"><stop offset="1.076729e-007" style="stop-color:#383647"/><stop offset="0.9928" style="stop-color:#272535"/></linearGradient><path d="M112.7,37.9c0.2,0,0.4-0.2,0.4-0.4s-0.2-0.4-0.4-0.4h-2.9c-0.2,0-0.4,0.2-0.4,0.4       c0,0.2,0.2,0.4,0.4,0.4L112.7,37.9z" fill="url(#SVGID_36_)"/></g></g><g><g><linearGradient gradientTransform="matrix(1 0 0 1 5.4739 7.088)" gradientUnits="userSpaceOnUse" id="SVGID_37_" x1="105.7957" x2="105.7957" y1="67.1527" y2="18.053"><stop offset="4.255643e-007" style="stop-color:#64BABC"/><stop offset="0.9821" style="stop-color:#038689"/></linearGradient><rect fill="url(#SVGID_37_)" height="5.2" width="7.7" x="107.4" y="51.1"/></g></g></g><g><g><path d="M94,8v23.9c0,2.3-1.9,4.2-4.2,4.2H64.5c-1.7,4.5-7.2,7.7-12,8c2.2-2.2,3.4-5.1,3.6-8h-3.5      c-2.3,0-4.2-1.9-4.2-4.2V8c0-2.3,1.9-4.2,4.2-4.2h37.2C92.2,3.9,94,5.7,94,8z" fill="#F89B2B"/></g></g></g><g><linearGradient gradientUnits="userSpaceOnUse" id="SVGID_38_" x1="41.4091" x2="25.9153" y1="126.1397" y2="68.7455"><stop offset="0" style="stop-color:#ED5B5A"/><stop offset="0.9928" style="stop-color:#E24026"/></linearGradient><path d="M52.2,100.1c-6.6,3.3-22.7,3.9-31.1,3.4c-7.8-0.5-8.2-4.2-7.8-11.9c1-15.8-5.9-22.4-7.3-31.3    c-0.3-2-0.1-3.4,0.4-4c0.5,5,3.5,9.3,5.5,13.7c7.3,16.6,3.7,29.3,30.1,28.7c9.5,0,11.1-1.5,9.9-2.9C55.3,97.1,54.5,99,52.2,100.1z    " fill="url(#SVGID_38_)"/></g></g></svg>