<?xml version="1.0" ?><!DOCTYPE svg  PUBLIC '-//W3C//DTD SVG 1.1//EN'  'http://www.w3.org/Graphics/SVG/1.1/DTD/svg11.dtd'><svg height="6.82666in" style="shape-rendering:geometricPrecision; text-rendering:geometricPrecision; image-rendering:optimizeQuality; fill-rule:evenodd; clip-rule:evenodd" viewBox="0 0 6.82666 6.82666" width="6.82666in" xml:space="preserve" xmlns="http://www.w3.org/2000/svg" xmlns:xlink="http://www.w3.org/1999/xlink"><defs><style type="text/css">
   <![CDATA[
    .fil0 {fill:#7E57C2}
    .fil1 {fill:#FFFFFE;fill-rule:nonzero}
   ]]>
  </style></defs><g id="Layer_x0020_1"><circle class="fil0" cx="3.41333" cy="3.41333" r="3.41333"/><g id="_424025568"><polygon class="fil1" id="_424026960" points="4.36564,3.10398 4.36571,3.10406 4.38589,3.12065 "/><path class="fil1" d="M4.54354 3.09267c-0.000964567,0.129933 -0.000846457,0.23028 0.00341339,0.328736 0.00535827,0.123906 0.0170433,0.244803 0.0408583,0.415843 0.0199803,0.143504 0.0429961,0.343354 0.0626614,0.532157 0.0215118,0.206535 0.0390354,0.399661 0.0442402,0.491528l-8.66142e-005 0c0,0.0555079 0.0267165,0.104677 0.0699094,0.139295 0.0385197,0.0308622 0.0905433,0.0499606 0.146941,0.0499606 0.0563976,0 0.108425,-0.0190945 0.146941,-0.0499646 0.0430945,-0.0345354 0.0697913,-0.0835669 0.0699094,-0.138917 0.00520472,-0.0759409 0.0251299,-0.295949 0.0490197,-0.529059 0.017811,-0.17378 0.0377008,-0.354075 0.0552205,-0.487169 0.0521693,-0.396335 0.0494409,-0.660835 0.0455945,-1.03387 -0.000527559,-0.0513228 -0.00108268,-0.104732 -0.0015,-0.15911l0.000299213 0 0 -0.000594488 0 -6.29921e-005c-0.000185039,-0.0984173 -0.0414134,-0.187453 -0.107969,-0.251886 -0.0662165,-0.0641063 -0.157291,-0.103756 -0.257516,-0.103756 -0.0484252,0 -0.0971654,0.008 -0.142071,0.0239213 -0.0444764,0.0157756 -0.0852874,0.0394331 -0.118689,0.0709646 -0.00447244,0.00420472 -0.00833465,0.00882283 -0.0115827,0.0137323l-0.405654 0.405185 -0.393622 -0.10748 8.26772e-005 -0.000311024c-0.00714173,-0.00194882 -0.0143228,-0.00283858 -0.021378,-0.00276378 -0.00179921,7.87402e-006 -0.00358661,7.87402e-005 -0.00535827,0.000208661 -0.049626,0.000700787 -0.094252,0.0238425 -0.127,0.0615315 -0.0303622,0.0349291 -0.0502559,0.0832559 -0.052622,0.136807l-0.000244094 -1.1811e-005c-0.000114173,0.00260236 -9.44882e-005,0.00517717 4.72441e-005,0.00772441 -0.000594488,0.0514528 0.0153425,0.0992008 0.0419764,0.135315 0.0297362,0.0403189 0.0725866,0.0671575 0.122276,0.0720315l0.493236 0.120512 -5.90551e-005 0.000251969c0.00796063,0.00194094 0.0159291,0.00258661 0.0236929,0.00206693 0.0246614,-0.000188976 0.0481969,-0.00599606 0.0697795,-0.0164567 0.0207795,-0.0100669 0.0395945,-0.0244646 0.055626,-0.0422402l0.103626 -0.084122z" id="_424026360"/><path class="fil1" d="M1.93989 1.632c0.0796693,0 0.151559,0.0344724 0.20339,0.090189 0.0504567,0.054252 0.0816732,0.128685 0.0816732,0.210433 0,0.081748 -0.0312165,0.156181 -0.0816732,0.210433 -0.0518307,0.0557165 -0.12372,0.090185 -0.20339,0.090185 -0.0796693,0 -0.151559,-0.0344685 -0.20339,-0.090185 -0.0504567,-0.054248 -0.0816732,-0.128685 -0.0816732,-0.210433 0,-0.081748 0.0312165,-0.156185 0.0816732,-0.210433 0.0518307,-0.0557165 0.12372,-0.090189 0.20339,-0.090189z" id="_424026408"/><path class="fil1" d="M4.70809 1.72219c0.0518268,-0.0557165 0.12372,-0.090189 0.203386,-0.090189 0.0796693,0 0.151563,0.0344724 0.20339,0.090189 0.0504606,0.054252 0.0816772,0.128685 0.0816772,0.210433 0,0.081748 -0.0312165,0.156181 -0.0816772,0.210433 -0.0518268,0.0557165 -0.12372,0.090185 -0.20339,0.090185 -0.0796654,0 -0.151559,-0.0344685 -0.203386,-0.090185 -0.0504606,-0.054248 -0.0816772,-0.128685 -0.0816772,-0.210433 0,-0.081748 0.0312165,-0.156185 0.0816772,-0.210433z" id="_424026336"/><polygon class="fil1" id="_424026024" points="2.48565,3.10406 2.48573,3.10398 2.46548,3.12065 "/><path class="fil1" d="M2.19122 2.38344c-0.00640551,-0.00637008 -0.0136535,-0.0113898 -0.021374,-0.0150669 -0.0261535,-0.0196181 -0.0554685,-0.0352756 -0.0866693,-0.0469528 -0.0455433,-0.0170472 -0.094689,-0.0256102 -0.143291,-0.0256102 -0.101047,0 -0.192524,0.0418504 -0.258736,0.109508 -0.0658189,0.0672598 -0.106583,0.159783 -0.106744,0.261661l0 4.33071e-005 -3.93701e-006 0.000566929 0.00030315 0 -0.00698819 0.956358c-0.00551181,0.0678701 -0.0130945,0.404319 -0.0174134,0.729622 -0.00379134,0.285535 -0.00533071,0.563835 -0.00111811,0.644941l-1.1811e-005 0.000704724c0,0.0563937 0.0261378,0.106713 0.0683898,0.142457 0.0387008,0.0327402 0.091248,0.0529961 0.148465,0.0529961 0.0572165,0 0.109764,-0.0202559 0.148465,-0.0529961 0.042252,-0.0357441 0.0683898,-0.0860551 0.0683898,-0.142457l-9.05512e-005 0c0.0152992,-0.287343 0.0792559,-0.526031 0.145917,-0.774787 0.0853622,-0.318547 0.17502,-0.653189 0.178327,-1.13239l0.104417 0.0847598c0.0160315,0.0177756 0.0348465,0.0321732 0.055626,0.0422402 0.0215827,0.0104606 0.0451181,0.0162677 0.0697795,0.0164567 0.00776378,0.000515748 0.0157323,-0.000125984 0.0236929,-0.00206693l-6.29921e-005 -0.000251969 0.49324 -0.120512c0.049685,-0.00487008 0.0925394,-0.0317165 0.122272,-0.0720354 0.0266299,-0.0361063 0.0425709,-0.0838543 0.0419764,-0.135303 0.000141732,-0.00254724 0.000161417,-0.00512598 5.11811e-005,-0.00772441l-0.000248031 1.1811e-005c-0.00236614,-0.0535512 -0.0222559,-0.101874 -0.052622,-0.136815 -0.0327559,-0.0376929 -0.0773858,-0.0608386 -0.127024,-0.0615354 -0.00212205,-0.00015748 -0.00427559,-0.000220472 -0.00644488,-0.000200787 -0.00669685,2.3622e-005 -0.0135,0.000913386 -0.0202717,0.00275984l8.66142e-005 0.000311024 -0.393622 0.10748 -0.426661 -0.426173z" id="_424025472"/><path class="fil1" d="M2.99104 2.73472c0,0.0215039 0.017437,0.0389409 0.0389409,0.0389409 0.0215079,0 0.0389449,-0.017437 0.0389449,-0.0389409l0 -0.186339c0,-0.0215039 -0.017437,-0.0389409 -0.0389449,-0.0389409 -0.0215039,0 -0.0389409,0.017437 -0.0389409,0.0389409l0 0.186339z" id="_424025808"/><path class="fil1" d="M3.78245 2.73472c0,0.0215039 0.017437,0.0389409 0.0389409,0.0389409 0.0215039,0 0.0389409,-0.017437 0.0389409,-0.0389409l0 -0.186339c0,-0.0215039 -0.017437,-0.0389409 -0.0389409,-0.0389409 -0.0215039,0 -0.0389409,0.017437 -0.0389409,0.0389409l0 0.186339z" id="_424025208"/><path class="fil1" d="M2.81753 2.25688l0.424898 0c0.0215039,0 0.0389409,0.017437 0.0389409,0.0389409 0,0.0111732 -0.00470866,0.021248 -0.012248,0.0283504l-0.210689 0.226512 6.29921e-005 5.90551e-005c-0.0146457,0.015748 -0.0392874,0.0166378 -0.0550354,0.00199213 -0.00135039,-0.00125591 -0.00258661,-0.00258661 -0.00372047,-0.00398031l-0.210654 -0.226465 0.0284449 -0.0264685 -0.0285157 0.0265197c-0.0146457,-0.0157441 -0.013752,-0.0403858 0.00199213,-0.0550315 0.00750394,-0.00697638 0.0170236,-0.0104252 0.0265236,-0.0104213l0 -7.87402e-006z" id="_424025136"/><path class="fil1" d="M3.60894 2.25688l0.424898 0 0 7.87402e-006c0.00949606,-3.93701e-006 0.0190197,0.00344488 0.0265197,0.0104213 0.015748,0.0146457 0.0166378,0.0392874 0.00199213,0.0550315l-0.0285118 -0.0265197 0.0284449 0.0264685 -0.210654 0.226465c-0.00112992,0.0013937 -0.00237008,0.00272441 -0.00372047,0.00398031 -0.0157441,0.0146457 -0.0403858,0.0137559 -0.0550315,-0.00199213l6.29921e-005 -5.90551e-005 -0.210693 -0.226512c-0.00753937,-0.00710236 -0.012248,-0.0171772 -0.012248,-0.0283504 0,-0.0215039 0.017437,-0.0389409 0.0389409,-0.0389409z" id="_424025448"/><path class="fil1" d="M2.2691 3.58922c0.00117323,-0.0428425 -0.0326024,-0.0785315 -0.0754488,-0.0797087 -0.0428465,-0.00117323 -0.0785315,0.0326024 -0.0797087,0.0754488 -0.00411811,0.148012 -0.0624331,0.26998 -0.0225118,0.492555 -0.0682402,-0.0816772 0.0807126,0.224307 -0.0697323,0.267894 -0.0411654,0.0119291 -0.0648622,0.0549724 -0.052937,0.0961339 0.0349843,0.120996 0.0592913,0.223189 0.0780354,0.301996 0.0205354,0.0863346 0.0346181,0.145535 0.0548858,0.189398 0.00053937,0.00146063 0.00112205,0.00290945 0.00175984,0.00435039l9.05512e-005 -3.93701e-005c0.0439724,0.0997835 0.116866,0.142488 0.188961,0.145472 0.0303858,0.00125984 0.0602323,-0.00500394 0.0875354,-0.0174488 0.0264094,-0.0120315 0.0503465,-0.0299331 0.069878,-0.0523937 0.048622,-0.0559094 0.0705512,-0.139996 0.0345197,-0.230701 -0.000358268,-0.00116929 -0.000744094,-0.00233465 -0.00116142,-0.0035l-0.000216535 7.87402e-005 -0.000614173 -0.00145276c-0.0501575,-0.140173 -0.109516,-0.38376 -0.153106,-0.62678 -0.0382441,-0.213244 -0.0640394,-0.424264 -0.0602283,-0.561303z" id="_424025592"/></g></g></svg>