<?xml version="1.0" ?><!DOCTYPE svg  PUBLIC '-//W3C//DTD SVG 1.1//EN'  'http://www.w3.org/Graphics/SVG/1.1/DTD/svg11.dtd'><svg enable-background="new 0 0 130 130" id="Layer_1" version="1.1" viewBox="0 0 130 130" xml:space="preserve" xmlns="http://www.w3.org/2000/svg" xmlns:xlink="http://www.w3.org/1999/xlink"><g><g><linearGradient gradientUnits="userSpaceOnUse" id="SVGID_1_" x1="65" x2="65" y1="21.6932" y2="88.4745"><stop offset="0" style="stop-color:#ED5B5A"/><stop offset="0.9928" style="stop-color:#E24026"/></linearGradient><circle cx="65" cy="65" fill="url(#SVGID_1_)" r="64"/><linearGradient gradientUnits="userSpaceOnUse" id="SVGID_2_" x1="36.0655" x2="36.0655" y1="64.1867" y2="25.8935"><stop offset="0" style="stop-color:#ED5B5A"/><stop offset="0.9928" style="stop-color:#E24026"/></linearGradient><path d="M71.1,80.8V34.2c0-3.9-3.2-7.1-7.1-7.1H13.4C5.6,37.7,1,50.8,1,65c0,8.1,1.5,15.8,4.2,22.9H64    C68,87.9,71.1,84.7,71.1,80.8z" fill="url(#SVGID_2_)"/><linearGradient gradientUnits="userSpaceOnUse" id="SVGID_3_" x1="36.0655" x2="36.0655" y1="80.1563" y2="44.2559"><stop offset="0" style="stop-color:#ED5B5A"/><stop offset="0.9928" style="stop-color:#E24026"/></linearGradient><path d="M64,87.9c3.9,0,7.1-3.2,7.1-7.1V56H57.5c-1,0-1.8,0.8-1.8,1.8V83h-2.5V44.3c0-1-0.8-1.8-1.8-1.8    h-19c-1,0-1.8,0.8-1.8,1.8V82h-2.6V70.7c0-4.6-3.7-8.3-8.3-8.3H1.1C1,63.3,1,64.1,1,65c0,8.1,1.5,15.8,4.2,22.9H64z" fill="url(#SVGID_3_)"/><g><g><g><rect fill="#EB5853" height="1.9" width="1.9" x="33.1" y="46.7"/></g><g><rect fill="#EB5853" height="1.9" width="1.9" x="36.9" y="46.7"/></g><g><rect fill="#EB5853" height="1.9" width="1.9" x="40.8" y="46.7"/></g><g><rect fill="#EB5853" height="1.9" width="1.9" x="44.7" y="46.7"/></g><g><rect fill="#EB5853" height="1.9" width="1.9" x="48.5" y="46.7"/></g></g><g><g><rect fill="#EB5853" height="1.9" width="1.9" x="33.1" y="51.1"/></g><g><rect fill="#EB5853" height="1.9" width="1.9" x="36.9" y="51.1"/></g><g><rect fill="#EB5853" height="1.9" width="1.9" x="40.8" y="51.1"/></g><g><rect fill="#EB5853" height="1.9" width="1.9" x="44.7" y="51.1"/></g><g><rect fill="#EB5853" height="1.9" width="1.9" x="48.5" y="51.1"/></g></g><g><g><rect fill="#EB5853" height="1.9" width="1.9" x="33.1" y="55.5"/></g><g><rect fill="#EB5853" height="1.9" width="1.9" x="36.9" y="55.5"/></g><g><rect fill="#EB5853" height="1.9" width="1.9" x="40.8" y="55.5"/></g><g><rect fill="#EB5853" height="1.9" width="1.9" x="44.7" y="55.5"/></g><g><rect fill="#EB5853" height="1.9" width="1.9" x="48.5" y="55.5"/></g></g><g><g><rect fill="#EB5853" height="1.9" width="1.9" x="33.1" y="59.9"/></g><g><rect fill="#EB5853" height="1.9" width="1.9" x="36.9" y="59.9"/></g><g><rect fill="#EB5853" height="1.9" width="1.9" x="40.8" y="59.9"/></g><g><rect fill="#EB5853" height="1.9" width="1.9" x="44.7" y="59.9"/></g><g><rect fill="#EB5853" height="1.9" width="1.9" x="48.5" y="59.9"/></g></g><g><g><rect fill="#EB5853" height="1.9" width="1.9" x="33.1" y="64.3"/></g><g><rect fill="#EB5853" height="1.9" width="1.9" x="36.9" y="64.3"/></g><g><rect fill="#EB5853" height="1.9" width="1.9" x="40.8" y="64.3"/></g><g><rect fill="#EB5853" height="1.9" width="1.9" x="44.7" y="64.3"/></g><g><rect fill="#EB5853" height="1.9" width="1.9" x="48.5" y="64.3"/></g></g><g><g><rect fill="#EB5853" height="1.9" width="1.9" x="33.1" y="68.7"/></g><g><rect fill="#EB5853" height="1.9" width="1.9" x="36.9" y="68.7"/></g><g><rect fill="#EB5853" height="1.9" width="1.9" x="40.8" y="68.7"/></g><g><rect fill="#EB5853" height="1.9" width="1.9" x="44.7" y="68.7"/></g><g><rect fill="#EB5853" height="1.9" width="1.9" x="48.5" y="68.7"/></g></g><g><g><rect fill="#EB5853" height="1.9" width="1.9" x="33.1" y="73.1"/></g><g><rect fill="#EB5853" height="1.9" width="1.9" x="36.9" y="73.1"/></g><g><rect fill="#EB5853" height="1.9" width="1.9" x="40.8" y="73.1"/></g><g><rect fill="#EB5853" height="1.9" width="1.9" x="44.7" y="73.1"/></g><g><rect fill="#EB5853" height="1.9" width="1.9" x="48.5" y="73.1"/></g></g><g><g><rect fill="#EB5853" height="1.9" width="1.9" x="33.1" y="77.5"/></g><g><rect fill="#EB5853" height="1.9" width="1.9" x="36.9" y="77.5"/></g><g><rect fill="#EB5853" height="1.9" width="1.9" x="40.8" y="77.5"/></g><g><rect fill="#EB5853" height="1.9" width="1.9" x="44.7" y="77.5"/></g><g><rect fill="#EB5853" height="1.9" width="1.9" x="48.5" y="77.5"/></g></g></g><g><linearGradient gradientUnits="userSpaceOnUse" id="SVGID_4_" x1="40.1523" x2="84.8716" y1="61.6646" y2="77.2819"><stop offset="0" style="stop-color:#FBD2C3"/><stop offset="0.9964" style="stop-color:#F8AF9B"/></linearGradient><path d="M54.8,68.2c0,0-0.3-1.4-0.2-2.5c0.1-1.1,1-0.7,1.3,0l2.2,4.1" fill="url(#SVGID_4_)"/></g><g><g><g><linearGradient gradientTransform="matrix(-1 0 0 1 -768.2196 0)" gradientUnits="userSpaceOnUse" id="SVGID_5_" x1="-833.2195" x2="-833.2195" y1="99.6048" y2="140.6934"><stop offset="0" style="stop-color:#ED5B5A"/><stop offset="0.9928" style="stop-color:#E24026"/></linearGradient><path d="M16.1,106.2C27.8,120.2,45.4,129,65,129c19.6,0,37.2-8.8,48.9-22.8H16.1z" fill="url(#SVGID_5_)"/></g></g></g><g><g><linearGradient gradientTransform="matrix(0.9811 -0.1934 0.1934 0.9811 147.2639 -83.6882)" gradientUnits="userSpaceOnUse" id="SVGID_6_" x1="-76.6373" x2="-76.7804" y1="138.4705" y2="121.9449"><stop offset="0" style="stop-color:#FBD2C3"/><stop offset="0.9964" style="stop-color:#F8AF9B"/></linearGradient><polygon fill="url(#SVGID_6_)" points="103.3,60.5 91.9,62.7 86.5,35.6 98,33.3     "/></g><linearGradient gradientUnits="userSpaceOnUse" id="SVGID_7_" x1="49.6843" x2="92.7863" y1="142.35" y2="96.4491"><stop offset="0" style="stop-color:#2A3477"/><stop offset="0.9892" style="stop-color:#13163F"/></linearGradient><path d="M65,129l3-13.1c0,0,44.1,1.4,42.2-14.6L87.6,90.2L86,93c0,0-23.8,9.6-24,9.7     c-3,1.5-4.8,4.5-5.1,7.8l-1.5,17.8C58.6,128.8,61.7,129,65,129z" fill="url(#SVGID_7_)"/><g><linearGradient gradientUnits="userSpaceOnUse" id="SVGID_8_" x1="97.3559" x2="97.3559" y1="104.7624" y2="49.9856"><stop offset="0" style="stop-color:#726EB2"/><stop offset="0.9964" style="stop-color:#6355A3"/></linearGradient><path d="M108.9,104.2c-1,2.5-18.9-3.1-22.9-11.2l0.2-5.5c0.3-6.6,1.1-12.4-0.7-18.7      c-1.5-5.4,0-7.1,2.8-10.1c3.9-10.1,13.1-9.7,17.1-7.2c5.9,3.7,3.9,5.6,2.5,24.1C106.9,90,111.5,97.7,108.9,104.2z" fill="url(#SVGID_8_)"/></g><g><linearGradient gradientUnits="userSpaceOnUse" id="SVGID_9_" x1="92.7906" x2="92.7906" y1="50.5076" y2="26.6987"><stop offset="0" style="stop-color:#FBD2C3"/><stop offset="0.9964" style="stop-color:#F8AF9B"/></linearGradient><path d="M88.6,50.5c-0.9,0.1-1.7-0.4-2.1-1.2c-3.4-6.5-4.1-16-1.7-22.6l17,0.2      C103.7,38.3,98.5,49.4,88.6,50.5z" fill="url(#SVGID_9_)"/></g><g><linearGradient gradientUnits="userSpaceOnUse" id="SVGID_10_" x1="96.547" x2="96.547" y1="71.5778" y2="24.4143"><stop offset="1.076729e-007" style="stop-color:#383647"/><stop offset="0.9928" style="stop-color:#272535"/></linearGradient><path d="M108.9,66.6c-0.9,1.6-2.9,1.8-3.1-2.4c-0.1-4.1-3-7.9-6.9-9.2c-4.4-1.4-5.7-1.4-4.8-6.9      c1.6-9.8-3.6-13.3-7.8-16.6c-5.2-4-4.7-8.1-1.9-9.9C98,13.2,104.5,18,106,27c0.8,4.9-0.1,9.8,0.5,14.7      C107.5,49.3,113.5,58.9,108.9,66.6z" fill="url(#SVGID_10_)"/></g></g><linearGradient gradientUnits="userSpaceOnUse" id="SVGID_11_" x1="29.8599" x2="29.8599" y1="124.7744" y2="93.2405"><stop offset="1.076729e-007" style="stop-color:#6F2E15"/><stop offset="0.9928" style="stop-color:#481D0F"/></linearGradient><path d="M32.7,120.3V87H27v29.4C28.8,117.8,30.8,119.1,32.7,120.3z" fill="url(#SVGID_11_)"/><linearGradient gradientUnits="userSpaceOnUse" id="SVGID_12_" x1="32.0372" x2="32.0372" y1="116.9049" y2="129.515"><stop offset="1.076729e-007" style="stop-color:#6F2E15"/><stop offset="0.9928" style="stop-color:#481D0F"/></linearGradient><path d="M6.5,90.9h50.2c1.9,0,3.5-1.6,3.5-3.5s-1.6-3.5-3.5-3.5H3.8C4.6,86.3,5.5,88.7,6.5,90.9z" fill="url(#SVGID_12_)"/><linearGradient gradientUnits="userSpaceOnUse" id="SVGID_13_" x1="92.4345" x2="92.4345" y1="141.3063" y2="150.4391"><stop offset="3.584667e-003" style="stop-color:#E6E6E6"/><stop offset="1" style="stop-color:#F1F1F1"/></linearGradient><path d="M119.2,99.1c0.1-3.6,0.1-6.9,0.3-9.5c0.9-11,3.3-37.5-2.6-30.8c-5.8,6.7-8.8,31.1-14.1,35.7    c-5.4,4.7-29-1-35.3,5.7c-4.6,5-3.6,20.8-2.7,28.8c0,0,0.1,0,0.1,0C87.8,129,107.9,117,119.2,99.1z" fill="url(#SVGID_13_)"/><g><path d="M54.3,68.2v3.7c0.9,0.1,1.6,0.4,2.1,0.8h-5.1c0.5-0.4,1.3-0.7,2.1-0.8v-3.7     c0-0.8-0.5-1.5-1.2-1.9c-1.9-1-3.4-3.6-3.5-6.7H59c-0.1,3.1-1.5,5.7-3.5,6.7C54.8,66.7,54.3,67.4,54.3,68.2z" fill="#FFFFFF" opacity="0.5"/><g><linearGradient gradientUnits="userSpaceOnUse" id="SVGID_14_" x1="53.925" x2="53.925" y1="62.2241" y2="83.5619"><stop offset="0" style="stop-color:#FBAF28"/><stop offset="0.9964" style="stop-color:#F4832C"/></linearGradient><path d="M58.7,61.9c-0.5,2-1.6,3.5-2.9,4.3c-1.1,0.7-2.3,0.7-3.6,0c-1.3-0.8-2.4-2.3-2.9-4.3H58.7z" fill="url(#SVGID_14_)"/></g></g><g><linearGradient gradientUnits="userSpaceOnUse" id="SVGID_15_" x1="39.1248" x2="83.8441" y1="64.6067" y2="80.224"><stop offset="0" style="stop-color:#FBD2C3"/><stop offset="0.9964" style="stop-color:#F8AF9B"/></linearGradient><path d="M57.5,69.1c0,0-4-1.9-4.9-2.6c0,0-1.4,3.2-0.4,4.7c1.5,1.5,3,1.8,3,1.8" fill="url(#SVGID_15_)"/></g><g><linearGradient gradientUnits="userSpaceOnUse" id="SVGID_16_" x1="42.3105" x2="87.0298" y1="55.4847" y2="71.1019"><stop offset="0" style="stop-color:#FBD2C3"/><stop offset="0.9964" style="stop-color:#F8AF9B"/></linearGradient><path d="M101.4,68.5C97.3,82,79.1,90.6,55.2,73l2.2-3.9c25.7,11.3,25.9,2.8,33.8-6.6     C98.8,53.3,103.4,64.1,101.4,68.5z" fill="url(#SVGID_16_)"/></g><g><g><g><linearGradient gradientTransform="matrix(1 0 0 1 5.4739 7.088)" gradientUnits="userSpaceOnUse" id="SVGID_17_" x1="14.4462" x2="14.4462" y1="87.3855" y2="43.1672"><stop offset="1.076729e-007" style="stop-color:#383647"/><stop offset="0.9928" style="stop-color:#272535"/></linearGradient><path d="M24.6,72l0,11.1c0,0.5-0.4,0.8-0.8,0.8h-7.7c-0.5,0-0.8-0.4-0.8-0.8l0-11.1       c0-1.7,0.4-3.4,1.4-4.9c1-1.6,1.6-3.5,1.6-5.4l0-4.2h3.5v4.2c0,1.9,0.5,3.7,1.5,5.2C24.1,68.4,24.6,70.2,24.6,72z" fill="url(#SVGID_17_)"/></g><g><linearGradient gradientTransform="matrix(1 0 0 1 5.4739 7.088)" gradientUnits="userSpaceOnUse" id="SVGID_18_" x1="14.4373" x2="14.4373" y1="51.5668" y2="53.9542"><stop offset="1.076729e-007" style="stop-color:#383647"/><stop offset="0.9928" style="stop-color:#272535"/></linearGradient><path d="M21.7,57.6c0.3,0,0.5-0.2,0.5-0.5c0-0.3-0.2-0.5-0.5-0.5l-3.5,0c-0.3,0-0.5,0.2-0.5,0.5       c0,0.3,0.2,0.5,0.5,0.5L21.7,57.6z" fill="url(#SVGID_18_)"/></g></g><g><g><linearGradient gradientTransform="matrix(1 0 0 1 5.4739 7.088)" gradientUnits="userSpaceOnUse" id="SVGID_19_" x1="14.4462" x2="14.4462" y1="94.6107" y2="35.0625"><stop offset="4.255643e-007" style="stop-color:#64BABC"/><stop offset="0.9821" style="stop-color:#038689"/></linearGradient><rect fill="url(#SVGID_19_)" height="6.3" width="9.4" x="15.2" y="73.6"/></g></g></g><g><linearGradient gradientUnits="userSpaceOnUse" id="SVGID_20_" x1="58.6875" x2="58.6875" y1="29.0638" y2="13.4271"><stop offset="0" style="stop-color:#ED5B5A"/><stop offset="0.9928" style="stop-color:#E24026"/></linearGradient><path d="M62.7,18.6c0,2.2-4,5-4,5s-4-2.8-4-5c0-1.2,0.9-2.1,2.1-2.1c0.9,0,1.6,0.5,1.9,1.3     c0.3-0.8,1.1-1.3,1.9-1.3C61.8,16.6,62.7,17.5,62.7,18.6z" fill="url(#SVGID_20_)"/></g><g><linearGradient gradientUnits="userSpaceOnUse" id="SVGID_21_" x1="72.9262" x2="72.9262" y1="43.1705" y2="40.4437"><stop offset="0" style="stop-color:#ED5B5A"/><stop offset="0.9928" style="stop-color:#E24026"/></linearGradient><path d="M75.4,28c0,1.3-2.5,3.1-2.5,3.1s-2.5-1.7-2.5-3.1c0-0.7,0.6-1.3,1.3-1.3c0.5,0,1,0.3,1.2,0.8     c0.2-0.5,0.6-0.8,1.2-0.8C74.8,26.7,75.4,27.3,75.4,28z" fill="url(#SVGID_21_)"/></g><g><linearGradient gradientUnits="userSpaceOnUse" id="SVGID_22_" x1="68.7072" x2="68.7072" y1="18.2347" y2="1.3037"><stop offset="0" style="stop-color:#ED5B5A"/><stop offset="0.9928" style="stop-color:#E24026"/></linearGradient><path d="M72.9,7c0,2.3-4.2,5.3-4.2,5.3s-4.2-3-4.2-5.3c0-1.2,1-2.2,2.2-2.2c0.9,0,1.7,0.6,2,1.3     c0.3-0.8,1.1-1.3,2-1.3C71.9,4.8,72.9,5.8,72.9,7z" fill="url(#SVGID_22_)"/></g></g><g><linearGradient gradientUnits="userSpaceOnUse" id="SVGID_23_" x1="21.186" x2="21.186" y1="27.636" y2="57.0096"><stop offset="0" style="stop-color:#ED5B5A"/><stop offset="0.9928" style="stop-color:#E24026"/></linearGradient><path d="M10.7,37.8c0.3-0.2,0.7-0.2,1-0.3c1-0.1,2.3,0.1,4.2,0.2c-0.4-0.8,0.1-2.2,0.8-2.9    c-0.4-2,1.9-4.1,4.3-3.7c1.6,0.3,3,1.7,2.7,3.5c1.1,0.3,2,1.3,1.6,2.5c0.6,0,1.7,0.2,4.7,0.2c0.5,0,1,0.1,1.5,0.2    C36.5,39.3,6.5,39.9,10.7,37.8z" fill="url(#SVGID_23_)"/></g></g></svg>