<?xml version="1.0" ?><!DOCTYPE svg  PUBLIC '-//W3C//DTD SVG 1.1//EN'  'http://www.w3.org/Graphics/SVG/1.1/DTD/svg11.dtd'><svg enable-background="new 0 0 250 250" height="250px" id="Layer_1" version="1.1" viewBox="0 0 250 250" width="250px" xml:space="preserve" xmlns="http://www.w3.org/2000/svg" xmlns:xlink="http://www.w3.org/1999/xlink"><circle cx="125.194" cy="125.51" fill="#6CBA9C" r="124.401"/><path d="M116.277,25.373c-0.303,0.91-0.435,18.685-0.469,24.105c2.439,0,4.808,0,7.16,0l-0.736-25.276  C119.496,24.42,116.471,24.791,116.277,25.373z" fill="#C2C7CA"/><path d="M137.077,25.373c-0.358-1.074-10.385-1.432-10.385-1.432h-0.03c0,0-2.111,0.076-4.43,0.261l0.736,25.276  c4.839,0,9.586,0,14.578,0C137.513,44.058,137.381,26.283,137.077,25.373z" fill="#D7DBDF"/><g><path d="M137.077,25.373c-0.005,0.008-0.038-0.088-0.172-0.155c-0.132-0.071-0.348-0.134-0.627-0.195   c-0.559-0.124-1.383-0.182-2.368-0.252c-0.988-0.051-2.141-0.11-3.377-0.174c-1.231-0.05-2.543-0.103-3.856-0.156   c-0.652,0.033-1.305,0.065-1.947,0.098c-0.651,0.038-1.294,0.047-1.915,0.07c-0.616,0.025-1.211,0.05-1.776,0.073   c-0.566,0.032-1.101,0.063-1.594,0.091c-0.984,0.072-1.81,0.125-2.368,0.252c-0.279,0.059-0.496,0.12-0.627,0.195   c-0.141,0.067-0.163,0.161-0.173,0.153c0.009,0.01,0.012-0.094,0.141-0.197c0.12-0.107,0.325-0.234,0.602-0.337   c0.552-0.215,1.364-0.451,2.351-0.635c0.493-0.097,1.028-0.189,1.597-0.265c0.561-0.077,1.179-0.167,1.797-0.209   c0.62-0.049,1.259-0.117,1.911-0.155c0.661-0.044,1.332-0.089,2.003-0.133c0.671,0.038,1.343,0.075,2.003,0.112   c0.654,0.039,1.296,0.109,1.917,0.168c1.242,0.128,2.4,0.289,3.386,0.483c0.987,0.184,1.798,0.422,2.351,0.634   c0.278,0.104,0.48,0.234,0.604,0.338C137.066,25.287,137.068,25.376,137.077,25.373z" fill="#8F8F8F"/></g><path d="M137.555,51.037c0,0-0.003-0.581-0.009-1.56c-4.826,0-9.425,0-14.097,0l0.036,2.75h13.548  C137.242,51.543,137.555,51.037,137.555,51.037z" fill="#606369"/><path d="M115.808,49.477c-0.006,0.979-0.009,1.56-0.009,1.56s0.313,0.506,0.522,1.19h7.163l-0.036-2.75  C120.939,49.477,118.414,49.477,115.808,49.477z" fill="#4C4E52"/><path d="M116.321,52.227c0.198,0.648,0.304,1.455-0.044,2.152c-0.158,0.316-0.27,1.969-0.348,4.348h7.784l-0.227-6.5  H116.321z" fill="#D9D9D9"/><path d="M137.077,54.379c-0.348-0.697-0.243-1.504-0.044-2.152h-13.546l0.227,6.5h13.711  C137.347,56.348,137.235,54.696,137.077,54.379z" fill="#D7DBDF"/><path d="M115.929,58.727c-0.078,2.386-0.122,5.507-0.146,8.75c2.634,0,5.268,0,7.901,0l-0.115-8.75H115.929z" fill="#ADB2B4"/><path d="M137.425,58.727H123.57l0.115,8.75c4.628,0,9.257,0,13.885,0C137.547,64.234,137.503,61.114,137.425,58.727z  " fill="#C4CACF"/><path d="M122.036,87.477c2-6,1-13,1-20c-2.417,0-4.835,0-7.252,0c-0.058,8.161,0.016,17.102,0.016,17.102  s-13.011,6.088-13.369,14.802c-0.358,8.714,0.477,119.846,0.477,119.846s-0.038,0.234-0.033,0.627  c2.186,1.288,4.494,2.323,6.869,3.167C106.802,178.324,103.648,131.028,122.036,87.477z" fill="#D9D9D9"/><path d="M150.924,99.381c-0.358-8.714-13.369-14.802-13.369-14.802s0.074-8.941,0.016-17.102  c-4.845,0-9.689,0-14.534,0c0,7,1,14-1,20c-18.388,43.55-15.234,90.847-12.292,135.544c13.109,4.66,28.568,2.741,40.706-4.179  C150.502,211.802,151.27,107.8,150.924,99.381z" fill="#ECECED"/><g><path d="M136.577,68.477c0.045,7.783-0.021,16.008-0.022,16.094l-0.005,0.642l0.581,0.272   c0.125,0.058,12.466,5.936,12.794,13.937c0.338,8.224-0.4,109.252-0.471,118.833c-7.378,4.089-16.057,6.336-24.506,6.336   c-7.671,0-14.93-1.828-21.04-5.294l-0.001-0.077c-0.008-1.111-0.831-111.207-0.478-119.798c0.329-8.001,12.67-13.879,12.794-13.937   l0.581-0.272l-0.005-0.641c-0.001-0.086-0.068-8.311-0.022-16.094H136.577 M137.57,67.477c-7.262,0-14.524,0-21.786,0   c-0.058,8.161,0.016,17.102,0.016,17.102s-13.011,6.088-13.369,14.802c-0.358,8.714,0.477,119.846,0.477,119.846   s-0.038,0.234-0.033,0.627c6.645,3.915,14.321,5.736,22.073,5.736c8.874,0,17.849-2.386,25.502-6.748   c0.052-7.041,0.821-111.042,0.475-119.461c-0.358-8.714-13.369-14.802-13.369-14.802S137.629,75.639,137.57,67.477L137.57,67.477z" fill="#BCC1C4"/></g><path d="M150.447,219.228c0,0,0.001-0.138,0.003-0.385c-12.046,6.868-27.363,8.81-40.407,4.284l0.412,4.464  c0.443,0.127,0.91,0.245,1.406,0.351c6.486,1.39,11.221,1.88,13.758,2.054l0,0.095c0,0,0.362,0,1.059-0.033  c0.697,0.033,1.059,0.033,1.059,0.033l-0.001-0.095c2.537-0.173,7.272-0.664,13.758-2.054  C151.521,225.793,150.447,219.228,150.447,219.228z" fill="#D7DBDF"/><path d="M102.875,219.855c0.021,1.589,0.754,5.786,7.579,7.736l-0.412-4.464  C107.561,222.266,105.153,221.197,102.875,219.855z" fill="#BAC0C3"/><g><g><path d="M111.292,130.478l-2.802-8.584h1.655l1.314,4.157c0.259,0.813,0.471,1.503,0.646,2.148    c0.211-0.726,0.461-1.471,0.69-2.143l1.425-4.163h1.649l-3.069,8.584H111.292z" fill="#FFFFFF"/><path d="M115.515,122.143l-2.891,8.084h-1.151l-2.639-8.084h1.127l1.259,3.982    c0.348,1.091,0.648,2.074,0.864,3.022h0.024c0.228-0.936,0.563-1.955,0.923-3.011l1.367-3.994H115.515 M116.224,121.643h-0.71    h-1.116h-0.357l-0.116,0.338l-1.367,3.994c-0.145,0.426-0.298,0.88-0.445,1.341c-0.123-0.415-0.261-0.857-0.416-1.343    l-1.259-3.981l-0.11-0.349h-0.366h-1.127h-0.689l0.214,0.655l2.639,8.084l0.113,0.345h0.363h1.151h0.352l0.119-0.332l2.891-8.084    L116.224,121.643L116.224,121.643z" fill="#505050"/></g><g><path d="M119.548,130.609c-2.287,0-3.884-1.789-3.884-4.352c0-2.647,1.646-4.496,4.004-4.496    c2.323,0,3.884,1.744,3.884,4.34C123.552,129.216,121.541,130.609,119.548,130.609z M119.62,123.113    c-1.617,0-2.34,1.567-2.34,3.12c0,1.457,0.729,3.024,2.328,3.024c1.617,0,2.341-1.562,2.341-3.108    C121.948,124.687,121.22,123.113,119.62,123.113z" fill="#FFFFFF"/><path d="M119.667,122.012c2.207,0,3.634,1.691,3.634,4.09c0,2.782-1.691,4.258-3.754,4.258    c-2.135,0-3.634-1.655-3.634-4.102C115.914,123.691,117.509,122.012,119.667,122.012 M119.607,129.508    c1.655,0,2.591-1.523,2.591-3.358c0-1.606-0.839-3.286-2.579-3.286c-1.727,0-2.59,1.596-2.59,3.37    C117.029,127.961,117.964,129.508,119.607,129.508 M119.667,121.512c-2.505,0-4.254,1.952-4.254,4.746    c0,2.709,1.7,4.602,4.134,4.602c2.117,0,4.254-1.471,4.254-4.758C123.802,123.399,122.102,121.512,119.667,121.512    L119.667,121.512z M119.607,129.008c-1.428,0-2.078-1.438-2.078-2.774c0-1.324,0.547-2.87,2.09-2.87    c1.428,0,2.079,1.444,2.079,2.786C121.698,127.572,121.052,129.008,119.607,129.008L119.607,129.008z" fill="#505050"/></g><g><path d="M126.557,130.55c-0.708,0-1.355-0.033-1.923-0.099l-0.222-0.025v-8.389l0.213-0.032    c0.752-0.113,1.511-0.171,2.256-0.171c1.543,0,2.669,0.352,3.444,1.075c0.808,0.74,1.219,1.779,1.219,3.085    c0,1.376-0.428,2.523-1.238,3.32C129.498,130.122,128.201,130.55,126.557,130.55z M125.955,129.182    c0.257,0.024,0.571,0.028,0.806,0.028c2.059,0,3.192-1.129,3.192-3.18c0.006-0.898-0.237-1.601-0.723-2.089    c-0.515-0.518-1.289-0.78-2.302-0.78c-0.429,0-0.749,0.031-0.974,0.066V129.182z" fill="#FFFFFF"/><path d="M126.88,122.084c1.499,0,2.566,0.348,3.274,1.008c0.72,0.659,1.14,1.595,1.14,2.902    c0,1.319-0.408,2.398-1.164,3.142c-0.755,0.756-2.003,1.164-3.574,1.164c-0.744,0-1.367-0.036-1.895-0.097v-7.951    C125.297,122.156,126.053,122.084,126.88,122.084 M126.76,129.46c2.231,0,3.442-1.247,3.442-3.43    c0.012-1.907-1.067-3.119-3.274-3.119c-0.54,0-0.947,0.049-1.223,0.108v6.381C125.969,129.448,126.353,129.46,126.76,129.46     M126.88,121.584c-0.757,0-1.528,0.058-2.293,0.174l-0.426,0.064v0.43v7.951v0.446l0.443,0.051c0.578,0.066,1.235,0.1,1.952,0.1    c1.712,0,3.071-0.453,3.927-1.311c0.856-0.841,1.31-2.051,1.31-3.495c0-1.379-0.438-2.48-1.302-3.271    C129.672,121.957,128.489,121.584,126.88,121.584L126.88,121.584z M126.205,123.447c0.187-0.02,0.428-0.036,0.723-0.036    c0.944,0,1.658,0.238,2.124,0.707c0.436,0.439,0.655,1.082,0.65,1.91c0,1.92-1.017,2.933-2.942,2.933    c-0.163,0-0.364-0.002-0.555-0.011V123.447L126.205,123.447z" fill="#505050"/></g><g><path d="M136.993,130.478l-2.554-3.809l-0.492,0.569v3.239h-1.544v-8.584h1.544v3.425    c0.075-0.101,0.15-0.198,0.223-0.292l2.55-3.133h1.957l-3.155,3.698l3.313,4.886H136.993z" fill="#FFFFFF"/><path d="M138.134,122.143l-2.926,3.431l3.154,4.653h-1.235l-2.663-3.97l-0.768,0.888v3.082h-1.043v-8.084h1.043    v3.898h0.036c0.216-0.312,0.432-0.6,0.636-0.863l2.471-3.035H138.134 M139.218,121.643h-1.084h-1.295h-0.238l-0.15,0.184    l-2.254,2.769v-2.454v-0.5h-0.5h-1.043h-0.5v0.5v8.084v0.5h0.5h1.043h0.5v-0.5v-2.896l0.217-0.251l2.298,3.426l0.149,0.221h0.267    h1.235h0.943l-0.529-0.781l-2.941-4.338l2.679-3.141L139.218,121.643L139.218,121.643z" fill="#505050"/></g><g><path d="M144.136,130.478l-0.863-2.543h-2.507l-0.84,2.543h-1.608l2.916-8.584h1.617l2.929,8.584H144.136z     M142.886,126.619l-0.679-1.996c-0.073-0.216-0.138-0.423-0.195-0.625c-0.057,0.202-0.117,0.405-0.182,0.608l-0.681,2.013H142.886    z" fill="#FFFFFF"/><path d="M142.671,122.143l2.758,8.084h-1.115l-0.863-2.543h-2.867l-0.839,2.543h-1.08l2.747-8.084H142.671     M140.8,126.869h2.435l-0.792-2.326c-0.18-0.528-0.3-1.008-0.419-1.476H142c-0.12,0.479-0.251,0.972-0.408,1.463L140.8,126.869     M143.029,121.643h-0.358h-1.259h-0.358l-0.115,0.339l-2.747,8.084l-0.225,0.661h0.698h1.08h0.361l0.113-0.343l0.726-2.2h2.147    l0.748,2.204l0.115,0.339h0.358h1.115h0.699l-0.226-0.661l-2.758-8.084L143.029,121.643L143.029,121.643z M141.497,126.369    l0.518-1.531l0.521,1.531H141.497L141.497,126.369z" fill="#505050"/></g></g><path d="M123.886,117.124c-0.505-0.639-0.884-2.333-0.884-2.333c-0.119-0.727-0.085-1.551,0.163-2.463  c0.189-0.696,0.575-2.088,1.453-2.365c1.342-0.424,1.647,0.929,2.595,1.238c1.049,0.341,2.494-0.503,3.407,0.349  c0.696,0.65,0.636,2.54,0.393,3.393c-0.75,2.627-2.769,3.599-4.601,3.309C124.908,118.301,124.28,117.623,123.886,117.124z" fill="#BC1919"/><path d="M125.551,110.018c-0.275-0.141-0.601-0.193-1.037-0.055c-0.877,0.277-1.264,1.669-1.453,2.365  c-0.247,0.912-0.282,1.735-0.163,2.463c0,0,0.379,1.694,0.884,2.333c0.395,0.499,1.022,1.177,2.525,1.128  c0.978,0.155,2.008-0.055,2.872-0.68C126.226,116.467,125.323,113.213,125.551,110.018z" fill="#8A0505"/><path d="M127.895,112.191c-0.882,0.02-1.285-0.314-1.964-0.87c-0.164-0.135-0.359-0.522-0.613-0.458  c-0.313,0.079-0.315,0.559-0.248,0.818c0.239,0.922,3.188,1.864,3.017,0.581c-0.101-0.01-0.221-0.018-0.324,0L127.895,112.191z" fill="#FFFFFF"/><g><path d="M126.961,111.65c0,0,0.301-0.521,0.718-1.318c0.111-0.199,0.202-0.415,0.353-0.643   c0.129-0.226,0.372-0.432,0.561-0.614c0.392-0.386,0.815-0.821,1.146-1.292c0.173-0.233,0.302-0.489,0.415-0.741   c0.095-0.25,0.179-0.53,0.222-0.779c0.097-0.513,0.094-1.001-0.01-1.402c-0.101-0.403-0.286-0.713-0.437-0.92   c-0.15-0.208-0.258-0.317-0.258-0.317l0.03-0.04c0,0,0.144,0.059,0.359,0.23c0.215,0.165,0.505,0.462,0.691,0.917   c0.186,0.45,0.265,1.045,0.127,1.634c-0.066,0.305-0.173,0.576-0.313,0.867c-0.15,0.276-0.321,0.543-0.52,0.781   c-0.193,0.245-0.41,0.463-0.624,0.673c-0.224,0.207-0.421,0.404-0.655,0.586c-0.229,0.189-0.438,0.308-0.592,0.518   c-0.163,0.183-0.265,0.422-0.386,0.607c-0.458,0.776-0.783,1.279-0.783,1.279L126.961,111.65z" fill="#861313"/></g><line fill="none" stroke="#9E9E9E" stroke-miterlimit="10" x1="108.921" x2="140.669" y1="194.793" y2="194.793"/><line fill="none" stroke="#9E9E9E" stroke-miterlimit="10" x1="108.921" x2="147.269" y1="196.793" y2="196.793"/><line fill="none" stroke="#9E9E9E" stroke-miterlimit="10" x1="108.921" x2="129.669" y1="198.793" y2="198.793"/><line fill="none" stroke="#9E9E9E" stroke-miterlimit="10" x1="108.921" x2="147.269" y1="200.793" y2="200.793"/><line fill="none" stroke="#9E9E9E" stroke-miterlimit="10" x1="108.921" x2="147.269" y1="202.793" y2="202.793"/><line fill="none" stroke="#9E9E9E" stroke-miterlimit="10" x1="108.921" x2="140.669" y1="204.793" y2="204.793"/><line fill="none" stroke="#9E9E9E" stroke-miterlimit="10" x1="108.921" x2="147.269" y1="206.793" y2="206.793"/><g><path d="M136.536,88.727c0,0,0.179,0.272,0.515,0.781c0.19,0.239,0.429,0.52,0.714,0.842   c0.315,0.307,0.651,0.671,1.073,1.048c0.816,0.777,1.907,1.614,3.02,2.834c0.141,0.164,0.276,0.285,0.428,0.492   c0.124,0.162,0.25,0.326,0.378,0.493c0.256,0.334,0.519,0.677,0.789,1.029c0.53,0.716,1.009,1.599,1.538,2.467   c0.216,0.457,0.437,0.924,0.662,1.4c0.113,0.239,0.226,0.481,0.341,0.724c0.089,0.254,0.18,0.51,0.271,0.768   c0.175,0.521,0.352,1.051,0.533,1.589c0.127,0.54,0.256,1.088,0.387,1.644c0.284,1.058,0.43,2.278,0.642,3.472   c0.148,1.19,0.287,2.407,0.36,3.639c0.177,2.471,0.246,5.001,0.265,7.559c0.009,2.543,0.066,5.121,0.13,7.723   c0.027,2.593,0.054,5.186,0.08,7.738c0.043,2.552-0.003,5.065,0,7.495c-0.022,4.862-0.106,9.401-0.234,13.292   c-0.225,7.781-0.642,12.972-0.642,12.972s-0.593-5.18-1.081-12.954c-0.26-3.887-0.498-8.422-0.685-13.282   c-0.079-2.43-0.211-4.941-0.255-7.493c-0.06-2.552-0.121-5.144-0.182-7.737c-0.028-2.583-0.051-5.191-0.026-7.752   c-0.006-2.546,0.092-5.043-0.002-7.428c-0.014-1.197-0.127-2.361-0.175-3.501c-0.127-1.12-0.164-2.188-0.382-3.305   c-0.088-0.537-0.176-1.066-0.262-1.587c-0.127-0.5-0.252-0.992-0.375-1.476c-0.06-0.244-0.12-0.485-0.179-0.725   c-0.084-0.231-0.168-0.461-0.251-0.688c-0.165-0.457-0.328-0.906-0.487-1.346c-0.407-0.833-0.752-1.632-1.186-2.4   c-0.227-0.382-0.447-0.754-0.662-1.115c-0.107-0.181-0.213-0.359-0.317-0.534c-0.072-0.134-0.213-0.307-0.313-0.456   c-0.891-1.226-1.852-2.245-2.564-3.144c-0.74-0.875-1.204-1.681-1.495-2.218C136.666,89.026,136.536,88.727,136.536,88.727z" fill="#FFFFFF"/></g></svg>