<?xml version="1.0" ?><!DOCTYPE svg  PUBLIC '-//W3C//DTD SVG 1.1//EN'  'http://www.w3.org/Graphics/SVG/1.1/DTD/svg11.dtd'><svg enable-background="new 0 0 251.667 253.667" height="253.667px" id="Layer_1" version="1.1" viewBox="0 0 251.667 253.667" width="251.667px" xml:space="preserve" xmlns="http://www.w3.org/2000/svg" xmlns:xlink="http://www.w3.org/1999/xlink"><circle cx="127.265" cy="127.833" fill="#E3C52E" r="124.401"/><path d="M146.471,125.324c18.517-10.052,18.517-25.659,19.311-34.389c0.794-8.73-6.349-32.273-6.349-32.273h-32.74  h-0.855h-32.74c0,0-7.142,23.543-6.349,32.273c0.794,8.729,0.794,24.337,19.311,34.389c6.562,3.562,12.451,5.515,18.274,5.87  c0.164,5.737,1.192,43.879-0.021,57.203c-0.263,2.892-1.309,8.009-4.044,11.314c-12.764,1.032-22.144,4.464-22.144,8.543  c0,4.894,13.502,9.92,30.156,9.92s30.156-5.026,30.156-9.92c0-4.286-10.355-7.861-24.115-8.684  c-2.649-3.308-3.669-8.323-3.928-11.174c-1.229-13.497-0.158-52.461-0.015-57.41C135.498,130.327,140.727,128.443,146.471,125.324z" fill="#ECEFF0"/><g><path d="M158.542,208.255c-0.023,0.004,0.071,0.255,0.001,0.765c-0.065,0.508-0.305,1.26-0.889,2.041   c-0.571,0.783-1.41,1.629-2.496,2.394c-1.076,0.781-2.366,1.547-3.836,2.225c-1.463,0.695-3.093,1.341-4.857,1.876   c-1.76,0.548-3.638,1.052-5.607,1.43c-3.935,0.776-8.204,1.184-12.473,1.189l-1.582-0.023l-1.615-0.055   c-1.062-0.044-2.119-0.13-3.165-0.224c-2.094-0.19-4.144-0.496-6.112-0.881c-1.969-0.378-3.849-0.88-5.608-1.43   c-1.764-0.536-3.394-1.179-4.857-1.876c-2.927-1.366-5.198-3.026-6.331-4.623c-0.584-0.78-0.824-1.538-0.887-2.039   c-0.07-0.507,0.024-0.771,0.001-0.768c0.018-0.005,0.023,0.273,0.221,0.708c0.181,0.44,0.594,1.002,1.253,1.562   c1.321,1.133,3.66,2.158,6.563,3.014c1.456,0.423,3.066,0.784,4.774,1.128c1.713,0.331,3.538,0.585,5.428,0.82   c1.892,0.228,3.855,0.392,5.852,0.516c0.999,0.06,2.008,0.089,3.019,0.131l1.503,0.034l1.543,0.007   c4.068,0.007,8.135-0.23,11.919-0.683c1.89-0.235,3.716-0.487,5.429-0.82c1.708-0.345,3.319-0.703,4.775-1.129   c2.903-0.855,5.242-1.883,6.562-3.017c0.658-0.559,1.072-1.126,1.251-1.56C158.519,208.535,158.524,208.244,158.542,208.255z" fill="#CCCCCC"/></g><path d="M146.489,102.762H88.229c1.76,7.696,6.039,16.349,17.831,22.75c3.129,1.698,6.099,3.009,8.988,3.979  C129.853,128.164,143.696,117.945,146.489,102.762z" fill="#411824"/><path d="M146.489,102.762c-2.793,15.184-16.636,25.402-31.442,26.729c10.569,3.547,19.976,2.236,31.424-3.979  c11.792-6.401,16.07-15.054,17.831-22.75H146.489z" fill="#4F1226"/><ellipse cx="126.265" cy="58.663" fill="#DEDEDE" rx="33.168" ry="4.508"/><ellipse cx="126.265" cy="102.595" fill="#582C3D" rx="38.037" ry="2.833"/></svg>