<?xml version="1.0" ?><svg height="90px" id="Layer_1" style="enable-background:new 0 0 90 90;" version="1.1" viewBox="0 0 90 90" width="90px" xml:space="preserve" xmlns="http://www.w3.org/2000/svg" xmlns:xlink="http://www.w3.org/1999/xlink"><style type="text/css">
	.st0{fill:#FFCF0F;}
	.st1{fill:#F1C40E;}
	.st2{fill:#7ECC00;}
	.st3{fill:#9DBEC9;}
	.st4{fill:#B54A95;}
	.st5{fill:#AA8566;}
	.st6{fill:#81D100;}
	.st7{fill:#FFAF11;}
	.st8{fill:#81D4EF;}
	.st9{fill:#5DCCEF;}
	.st10{fill:#F25757;}
	.st11{opacity:0.3;fill:#4D241A;}
	.st12{fill:#FFFAF0;}
	.st13{fill:#BCC3C9;}
	.st14{fill:#5CB1FF;}
	.st15{fill:#F0C4E5;}
	.st16{fill:#ABD7FF;}
	.st17{fill:#485C70;}
	.st18{fill:#EFEAE1;}
	.st19{fill:#FFFFFF;}
	.st20{fill:#E1574C;}
	.st21{opacity:0.25;fill:#734E2E;}
	.st22{fill:#E8F8FA;}
	.st23{fill:#DDEFF2;}
	.st24{fill:#C9ECF2;}
	.st25{fill:none;stroke:#505070;stroke-width:2;stroke-linecap:round;stroke-linejoin:round;stroke-miterlimit:10;}
	.st26{opacity:0.6;fill:#A0C4C9;}
	.st27{fill:#A6ACB2;}
	.st28{fill:#FF5729;}
	.st29{fill:#F959FF;}
	.st30{opacity:0.2;fill:#2E4D73;}
	.st31{opacity:0.15;fill:#734E2E;}
	.st32{fill:#ABCFD3;}
	.st33{fill:none;}
	.st34{fill:#8C6FD6;}
	.st35{opacity:0.25;fill:#0D134F;}
	.st36{opacity:0.25;fill:#2E5D73;}
	.st37{fill:#805734;}
	.st38{opacity:0.15;fill:#4F3620;}
	.st39{fill:#27B51F;}
	.st40{fill:#BDB9B1;}
	.st41{fill:#F0EBE2;}
	.st42{fill:#C5CDD4;}
	.st43{fill:#A5B3C2;}
	.st44{fill:#FFAE21;}
	.st45{fill:#FFCC00;}
	.st46{fill:#FF9121;}
	.st47{fill:#E45544;}
	.st48{fill:#CF9463;}
	.st49{fill:#9C724E;}
	.st50{fill:#DE6262;}
	.st51{fill:#BF5E83;}
	.st52{fill:#AD6A34;}
	.st53{opacity:0.4;fill:#4F2020;}
	.st54{fill:#6E5541;}
	.st55{fill:#599EFF;}
	.st56{fill:#FFC88A;}
	.st57{fill:#E6E1D8;}
	.st58{fill:#BEC6CC;}
	.st59{fill:#CFA27C;}
	.st60{fill:#855C3C;}
	.st61{fill:#A0C4C9;}
	.st62{fill:#D1E9ED;}
	.st63{fill:#ACD1D6;}
	.st64{fill:#9DC0C4;}
	.st65{opacity:0.3;}
	.st66{fill:#2E4D73;}
	.st67{fill:#8DADB0;}
	.st68{opacity:0.5;fill:#4D241A;}
	.st69{fill:#82E641;}
	.st70{opacity:0.15;fill:#4F0D2A;}
	.st71{fill:#8BB0B5;}
	.st72{fill:#BCF553;}
	.st73{opacity:0.75;fill:#E4F7FA;}
	.st74{fill:#826ABD;}
	.st75{fill:#DED9D0;}
	.st76{opacity:0.3;fill:#4F0D2A;}
	.st77{fill:#CC8A56;}
	.st78{fill:#E3E0D3;}
	.st79{fill:#D14B85;}
	.st80{opacity:0.7;fill:#FFFAF0;}
	.st81{fill:#6BC804;}
	.st82{opacity:0.3;fill:#0D4F1A;}
	.st83{fill:#3EB40B;}
	.st84{fill:#68D420;}
	.st85{fill:#DB428E;}
	.st86{fill:#D1D9E0;}
	.st87{fill:#5C87FF;}
	.st88{fill:#C57DFF;}
	.st89{fill:#1ACDD4;}
	.st90{fill:#83B4CC;}
	.st91{fill:#CC83B8;}
	.st92{fill:#FFE5C7;}
	.st93{opacity:0.99;fill:#FFFFFF;}
	.st94{opacity:0.81;fill:#FFFFFF;}
	.st95{fill:#DAE3E6;}
	.st96{fill:#94633A;}
	.st97{fill:#7A55AB;}
	.st98{fill:#FFEC70;}
	.st99{fill:#DB4F4F;}
	.st100{opacity:0.3;fill:#4F2020;}
	.st101{fill:#ADD7DE;}
	.st102{fill:#DBE3EB;}
	.st103{fill:#88B3C7;}
	.st104{fill:#5E402B;}
	.st105{fill:#FFDD00;}
	.st106{fill:#505070;}
	.st107{fill:#415266;}
	.st108{fill:#232E38;}
	.st109{fill:#CF8D00;}
	.st110{fill:#FF5C5C;}
	.st111{fill:#96FF52;}
	.st112{fill:#59758F;}
	.st113{fill:#E8FDFF;}
	.st114{fill:#EDD898;}
	.st115{fill:#99B2C9;}
	.st116{fill:#FFF0C9;}
	.st117{fill:#E3F5F7;}
	.st118{fill:#D8F1F5;}
	.st119{opacity:0.2;}
	.st120{fill:#5F7996;}
	.st121{fill:#ACB2B8;}
	.st122{fill:#8F7B59;}
	.st123{fill:#54D100;}
	.st124{fill:#CEFFAB;}
	.st125{opacity:0.2;fill:#20324F;}
	.st126{fill:#F7FDFF;}
	.st127{fill:#BCCDDB;}
	.st128{fill:#2497FF;}
	.st129{fill:#9EE0FF;}
	.st130{opacity:0.7;fill:#FFFFFF;}
	.st131{opacity:0.9;fill:#FFFFFF;}
	.st132{fill:#82DD47;}
	.st133{fill:#F0EFD2;}
	.st134{fill:#A688FC;}
	.st135{fill:#829194;}
	.st136{fill:#ABEAFF;}
	.st137{fill:#ABDBFF;}
	.st138{fill:#2C5B61;}
	.st139{opacity:0.25;fill:#05252B;}
	.st140{fill:#3F291E;}
	.st141{fill:#F24444;}
	.st142{fill:#DB2861;}
	.st143{fill:#754F2E;}
	.st144{opacity:0.25;fill:#4F3620;}
	.st145{fill:#53898F;}
	.st146{fill:#544134;}
	.st147{fill:#CF872F;}
	.st148{fill:#DEBC25;}
	.st149{fill:#88C5FF;}
	.st150{fill-rule:evenodd;clip-rule:evenodd;fill:#FFCC00;}
	.st151{fill:#383128;}
	.st152{fill:#AADB5C;}
	.st153{fill-rule:evenodd;clip-rule:evenodd;fill:#FFFFFF;}
	.st154{fill:#752121;}
	.st155{fill:#FF5757;}
	.st156{fill:#43CFD1;}
	.st157{fill:#D4F9FA;}
	.st158{fill:#52DE88;}
	.st159{fill:#49D156;}
	.st160{fill:#77F027;}
	.st161{fill:#C6E800;}
	.st162{fill:#4566FF;}
	.st163{fill:#FF5683;}
	.st164{fill:#62FCAF;}
	.st165{fill:#F214D5;}
	.st166{fill:#BF7932;}
	.st167{fill:#CF8E3E;}
	.st168{fill:#C99438;}
	.st169{fill:#C48037;}
	.st170{opacity:0.35;fill:#301714;}
	.st171{fill:#80471D;}
	.st172{fill:#FFFB2B;}
	.st173{fill:#FFE32B;}
	.st174{fill:#FFD82B;}
</style><circle class="st0" cx="45" cy="45" r="45"/><polygon class="st12" points="22,65 22,33.9700317 45,23.9700317 68,33.9700317 68,65 "/><rect class="st10" height="25.0300007" width="14" x="38" y="41"/><polygon class="st10" points="67,20.9700317 67,32.6666985 61,30 61,20.9700317 "/><polygon class="st38" points="22,33.9700317 22,36.9700317 45,26.9700317 68,36.9700317 68,33.9700317 45,23.9700317 "/><g><rect class="st14" height="10" width="8" x="56" y="41"/><rect class="st14" height="10" width="8" x="26" y="41"/></g><path class="st39" d="M35,62.0299988c-0.3950005,0-0.7701149,0.0809059-1.1155128,0.2196007  C33.5391846,60.9737015,32.3850861,60.0299988,31,60.0299988c-0.6244144,0-1.2037144,0.1912994-1.6839142,0.5178032  C28.452486,59.0499039,26.8531857,58.0299988,25,58.0299988c-2.0656147,0-3.8373146,1.2532997-4.5997143,3.0403023  C20.2666855,61.0568047,20.1370869,61.0299988,20,61.0299988c-2.2092133,0-4,1.790802-4,4v1h22v-1  C38,63.3731003,36.6568871,62.0299988,35,62.0299988z"/><path class="st39" d="M54.1401863,62.1702042C54.5116844,60.9354019,55.6440849,60.0299988,57,60.0299988  c0.6243858,0,1.2036858,0.1912994,1.6838837,0.5178032C59.5474854,59.0499039,61.1467857,58.0299988,63,58.0299988  c2.2958832,0,4.2097855,1.5563011,4.7967834,3.6650009C68.4290009,61.2765999,69.1850815,61.0299988,70,61.0299988  c2.2091827,0,4,1.790802,4,4v1H52v-1C52,63.6741028,52.9053841,62.5417023,54.1401863,62.1702042z"/><rect class="st68" height="3" width="2" x="40" y="53"/><rect class="st11" height="4" width="6" x="61" y="20.9700317"/><rect class="st10" height="4" width="8" x="60" y="19.0000324"/><path class="st69" d="M67.7208405,66C65.9949875,66,61.8747787,66,60,66c0-2.1320496,1.7283707-3.8604202,3.8604202-3.8604202  S67.7208405,63.8679504,67.7208405,66z"/><path class="st69" d="M30,66c-1.9493885,0-6.603241,0-8.7208405,0c0-2.4081955,1.9522266-4.3604202,4.3604202-4.3604202  S30,63.5918045,30,66z"/><path class="st69" d="M33,66c-1.2787914,0-4.3317032,0-5.7208405,0c0-1.5797653,1.280653-2.8604202,2.8604202-2.8604202  S33,64.4202347,33,66z"/><g><polygon class="st52" points="45,21 18,33 18,37 22,37 22,35 45,25 68,35 68,37 72,37 72,33  "/></g></svg>