<?xml version="1.0" ?><!DOCTYPE svg  PUBLIC '-//W3C//DTD SVG 1.1//EN'  'http://www.w3.org/Graphics/SVG/1.1/DTD/svg11.dtd'><svg height="512px" id="Layer_1" style="enable-background:new 0 0 512 512;" version="1.1" viewBox="0 0 512 512" width="512px" xml:space="preserve" xmlns="http://www.w3.org/2000/svg" xmlns:xlink="http://www.w3.org/1999/xlink"><style type="text/css">
<![CDATA[
	.st0{fill:#7A7A7A;}
	.st1{fill:#474645;}
	.st2{fill:#AA701B;}
	.st3{fill:#AAA493;}
	.st4{fill:#48A1AF;}
	.st5{fill:#493E30;}
	.st6{fill:#AF731B;}
	.st7{fill:#E0942F;}
	.st8{fill:#AFAAA3;}
	.st9{fill:#E09C4B;}
	.st10{fill:#E2E2E2;}
	.st11{fill:#4ABC96;}
	.st12{fill:#E5AA17;}
	.st13{fill:#E79E2F;}
	.st14{fill:#191919;}
	.st15{fill:#E8CD07;}
	.st16{fill:#E8E5DA;}
	.st17{fill:#E8E8E8;}
	.st18{fill:#4F4F4F;}
	.st19{fill:#B04902;}
	.st20{fill:#826A4D;}
	.st21{fill:#B2751B;}
	.st22{fill:#835A00;}
	.st23{fill:#843C0B;}
	.st24{fill:#847741;}
	.st25{fill:#84AF92;}
	.st26{fill:#85B06E;}
	.st27{fill:#1A6A96;}
	.st28{fill:#B58841;}
	.st29{fill:#EA4949;}
	.st30{fill:#875513;}
	.st31{fill:#EAAA54;}
	.st32{fill:#87C69E;}
	.st33{fill:#EAE2D6;}
	.st34{fill:#EDC92F;}
	.st35{fill:#EEF471;}
	.st36{fill:#EFB76C;}
	.st37{fill:#EFEFEF;}
	.st38{fill:#565553;}
	.st39{fill:#BA4511;}
	.st40{fill:#BA6D20;}
	.st41{fill:#57843A;}
	.st42{fill:#BC9042;}
	.st43{fill:#BE802B;}
	.st44{fill:#BF801B;}
	.st45{fill:#BF832C;}
	.st46{fill:#22A85B;}
	.st47{fill:#258ACE;}
	.st48{fill:#F4F4F4;}
	.st49{fill:#5B2C12;}
	.st50{fill:#F7D0A1;}
	.st51{fill:#5D963E;}
	.st52{fill:#29C183;}
	.st53{fill:#5E5E5E;}
	.st54{fill:#F9CC91;}
	.st55{fill:#F9F3DC;}
	.st56{fill:#915412;}
	.st57{fill:#91581A;}
	.st58{fill:#919191;}
	.st59{fill:#C1C1C1;}
	.st60{fill:#93783D;}
	.st61{fill:#C2C6C5;}
	.st62{fill:#C4C4C4;}
	.st63{fill:#2A7CA0;}
	.st64{fill:#96744B;}
	.st65{fill:#C68932;}
	.st66{fill:#C69422;}
	.st67{fill:#996304;}
	.st68{fill:#C8D6D4;}
	.st69{fill:#FCC677;}
	.st70{fill:#60390B;}
	.st71{fill:#606060;}
	.st72{fill:#FFFAE6;}
	.st73{fill:#FFFFFF;}
	.st74{fill:#632D08;}
	.st75{fill:#63492E;}
	.st76{fill:#635021;}
	.st77{fill:none;}
	.st78{fill:#663514;}
	.st79{fill:#9B581C;}
	.st80{fill:#CC5215;}
	.st81{fill:#9D633C;}
	.st82{fill:#CCAC0D;}
	.st83{fill:#CCB2AC;}
	.st84{fill:#CE8F20;}
	.st85{fill:#327F32;}
	.st86{fill:#337180;}
	.st87{fill:#347C0E;}
	.st88{fill:#349B34;}
	.st89{fill:#352E28;}
	.st90{fill:#353535;}
	.st91{fill:#357D8E;}
	.st92{fill:#368736;}
	.st93{fill:#378299;}
	.st94{fill:#379137;}
	.st95{fill:#6B6B6A;}
	.st96{fill:#D1814B;}
	.st97{fill:#D19433;}
	.st98{fill:#D1D1D1;}
	.st99{fill:#D37611;}
	.st100{fill:#D3C0A9;}
	.st101{fill:#D3D2D1;}
	.st102{fill:#D3D3D3;}
	.st103{fill:#D6AFE2;}
	.st104{fill:#D6E5E4;}
	.st105{fill:#D8DBBA;}
	.st106{fill:#3F8CAA;}
	.st107{fill:#3FACE8;}
	.st108{fill:#72480E;}
	.st109{fill:#724C00;}
	.st110{fill:#A39E93;}
	.st111{fill:#A3D5E0;}
	.st112{fill:#776046;}
	.st113{fill:#77B78D;}
	.st114{fill:#DB5B23;}
	.st115{fill:#A87D3D;}
	.st116{fill:#A8A398;}
	.st117{fill:#DD6B03;}
	.st118{fill:#DD8645;}
	.st119{fill:#DDB9B3;}
	.st120{fill:#DDBF0B;}
	.st121{fill:#DDDDDD;}
	.st122{fill:#421E06;}
	.st123{fill:#429B42;}
	.st124{fill:#4397AA;}
]]>
</style><g><g><g><g><path class="st11" d="M7.921,256.004c0-137.021,111.07-248.083,248.075-248.083c137.013,0,248.083,111.062,248.083,248.083      c0,137.005-111.07,248.075-248.083,248.075C118.991,504.079,7.921,393.009,7.921,256.004z"/></g></g></g><g><path class="st112" d="M208.177,253.533c-0.709-2.93-1.257-5.86-1.687-8.798c-0.132-0.386-0.291-0.761-0.417-1.151    c-2.559,0.853-5.156,1.634-7.819,2.28c-24.447,5.933-49.304,1.97-70.249-9.211c-3.845,8.332-4.407,17.531,0.059,27.255    c9.022,19.646,27.463,52.666,27.463,52.666c2.006,13.167-11.694,31.52-18.028,39.19c-1.867,2.261-2.071,2.276-2.244,3.951    c-0.172,1.68,0.149,3.52,0.149,3.52l11.317,43.933c0,0,0.49,1.419,1.572,2.307c1.083,0.896,2.54,0.608,2.54,0.608l29.827-1.144    c-1.151-17.397-15.859-11.522-15.859-11.522l-2.928-29.362c41.378-38.471,46.534-77.377,46.534-77.377s5.702-2.314,14.096-5.042    C215.977,276.09,211.032,265.295,208.177,253.533z"/><path class="st112" d="M322.039,385.42l12.792-89.473c3.001-2.854,6.073-7.226,9.016-12.218c-2.733-0.589-5.413-1.308-8.048-2.115    c-12.382,3.232-25.51,4.12-38.765,2.215c-5.47,5.164-11.541,9.655-18.001,13.507c-0.645,2.383-1.383,4.728-2.196,7.035    c7.425,1.752,12.186,2.796,12.186,2.796c17.958,20.545,18.656,71.655,18.635,86.615c-0.004,1.285-0.128,4.625,0.635,5.784    c0.734,1.117,4.558,1.614,4.558,1.614l20.45,2.792C341.548,390.974,322.039,385.42,322.039,385.42z"/><path class="st5" d="M125.414,227.529c0,0-29.621,33.865-41.047,38.436c-11.426,4.567-28.735,2.945-36.56,10.772    c0,0,23.5,8.159,35.905,3.263c12.405-4.896,27.094-15.343,27.094-15.343L125.414,227.529z"/><path class="st20" d="M187.842,211.776c34.173,1.614,69.954,13.763,112.125-4.078c12.73-5.386,15.016-13.875,22.85-45.211    c4.417-17.665,11.47-32.878,22.468-41.339c7.279-5.6,24.497-8.381,33.042-4.292c21.842,10.451,13.633,20.633,24.833,27.354    c0,0,34.347,5.413,36.772,11.663c2.417,6.243-3.734,24.451-19.042,26.692c-3.928,0.574-19.222,1.224-19.222,1.224    s-7.366-0.757-15.684,21.651c-8.167,22.003-14.37,26.574-15.022,35.713c-0.646,9.062-5.259,42.942-14.222,54.889l2.242,90.352    c0,0,20.159,2.238,14.184,16.43l-20.629,0.643c0,0-3.852,0.142-4.763-0.842c-0.945-1.014-1.377-4.33-1.587-5.6    c-2.463-14.75-11.636-65.037-32.756-82.312c0,0-46.182-2.25-77.848-7.475c-23.437-3.863-54.322,0.75-54.322,0.75    s-14.188,36.593-63.472,64.218l-5.226,24.643c0,0,15.68-2.242,12.696,14.934l-28.112-1.339c0,0-1.484-0.069-2.326-1.186    c-0.842-1.125-0.983-2.617-0.983-2.617l-0.635-45.36c0,0,0.122-1.867,0.685-3.458c0.562-1.583,0.765-1.553,3.114-3.312    c7.964-5.956,25.606-20.557,26.761-33.827c0,0-10.131-36.436-14.264-57.658C102.319,226.14,153.669,210.169,187.842,211.776z"/><path class="st5" d="M439.934,155.874c-0.608-1.564-3.209-3.076-6.771-4.46l-4.059,8.006c3.171,3.171,10.734,4.304,10.734,4.304    C440.614,160.548,440.641,157.699,439.934,155.874z"/><path class="st75" d="M336.619,169.951c0.979,4.357,26.446,26.382,32.188,22.324c5.738-4.062,2.8-26.325,2.8-26.325    s-0.562-0.559-1.68,3.083c-1.121,3.642,2.1,19.884-2.804,21.421c-4.9,1.538-26.212-17.145-27.333-20.786    c-1.117-3.642,13.195-23.036,19.354-33.257c1.625-2.693,6.561-4.074,6.721-4.762c0.241-1.048-7.282-0.016-7.421,0.141    C356.112,134.415,335.781,166.218,336.619,169.951z"/><path class="st75" d="M313.432,314.714c0,0-16.621-23.25-17.554-26.987c-0.934-3.733,5.788-24.455,5.788-24.455    s0.746,0.371,0.558,1.679c-0.184,1.312-3.921,16.055-2.238,22.121c1.68,6.067,17.172,30.897,17.172,30.897L313.432,314.714z"/><path class="st5" d="M391.861,144.077c0,2.203-9.991,3.726-12.191,3.221c-0.73-0.172-0.62-3.137,0.336-6.266    c0.677-2.204,1.962-4.575,2.708-4.575C383.465,136.457,391.861,140.688,391.861,144.077z"/></g></g></svg>