<?xml version="1.0" ?><!DOCTYPE svg  PUBLIC '-//W3C//DTD SVG 1.1//EN'  'http://www.w3.org/Graphics/SVG/1.1/DTD/svg11.dtd'><svg height="512px" id="Layer_1" style="enable-background:new 0 0 512 512;" version="1.1" viewBox="0 0 512 512" width="512px" xml:space="preserve" xmlns="http://www.w3.org/2000/svg" xmlns:xlink="http://www.w3.org/1999/xlink"><style type="text/css">
<![CDATA[
	.st0{fill:#7A7A7A;}
	.st1{fill:#474645;}
	.st2{fill:#AA701B;}
	.st3{fill:#AAA493;}
	.st4{fill:#48A1AF;}
	.st5{fill:#493E30;}
	.st6{fill:#AF731B;}
	.st7{fill:#E0942F;}
	.st8{fill:#AFAAA3;}
	.st9{fill:#E09C4B;}
	.st10{fill:#E2E2E2;}
	.st11{fill:#4ABC96;}
	.st12{fill:#E5AA17;}
	.st13{fill:#E79E2F;}
	.st14{fill:#191919;}
	.st15{fill:#E8CD07;}
	.st16{fill:#E8E5DA;}
	.st17{fill:#E8E8E8;}
	.st18{fill:#4F4F4F;}
	.st19{fill:#B04902;}
	.st20{fill:#826A4D;}
	.st21{fill:#B2751B;}
	.st22{fill:#835A00;}
	.st23{fill:#843C0B;}
	.st24{fill:#847741;}
	.st25{fill:#84AF92;}
	.st26{fill:#85B06E;}
	.st27{fill:#1A6A96;}
	.st28{fill:#B58841;}
	.st29{fill:#EA4949;}
	.st30{fill:#875513;}
	.st31{fill:#EAAA54;}
	.st32{fill:#87C69E;}
	.st33{fill:#EAE2D6;}
	.st34{fill:#EDC92F;}
	.st35{fill:#EEF471;}
	.st36{fill:#EFB76C;}
	.st37{fill:#EFEFEF;}
	.st38{fill:#565553;}
	.st39{fill:#BA4511;}
	.st40{fill:#BA6D20;}
	.st41{fill:#57843A;}
	.st42{fill:#BC9042;}
	.st43{fill:#BE802B;}
	.st44{fill:#BF801B;}
	.st45{fill:#BF832C;}
	.st46{fill:#22A85B;}
	.st47{fill:#258ACE;}
	.st48{fill:#F4F4F4;}
	.st49{fill:#5B2C12;}
	.st50{fill:#F7D0A1;}
	.st51{fill:#5D963E;}
	.st52{fill:#29C183;}
	.st53{fill:#5E5E5E;}
	.st54{fill:#F9CC91;}
	.st55{fill:#F9F3DC;}
	.st56{fill:#915412;}
	.st57{fill:#91581A;}
	.st58{fill:#919191;}
	.st59{fill:#C1C1C1;}
	.st60{fill:#93783D;}
	.st61{fill:#C2C6C5;}
	.st62{fill:#C4C4C4;}
	.st63{fill:#2A7CA0;}
	.st64{fill:#96744B;}
	.st65{fill:#C68932;}
	.st66{fill:#C69422;}
	.st67{fill:#996304;}
	.st68{fill:#C8D6D4;}
	.st69{fill:#FCC677;}
	.st70{fill:#60390B;}
	.st71{fill:#606060;}
	.st72{fill:#FFFAE6;}
	.st73{fill:#FFFFFF;}
	.st74{fill:#632D08;}
	.st75{fill:#63492E;}
	.st76{fill:#635021;}
	.st77{fill:none;}
	.st78{fill:#663514;}
	.st79{fill:#9B581C;}
	.st80{fill:#CC5215;}
	.st81{fill:#9D633C;}
	.st82{fill:#CCAC0D;}
	.st83{fill:#CCB2AC;}
	.st84{fill:#CE8F20;}
	.st85{fill:#327F32;}
	.st86{fill:#337180;}
	.st87{fill:#347C0E;}
	.st88{fill:#349B34;}
	.st89{fill:#352E28;}
	.st90{fill:#353535;}
	.st91{fill:#357D8E;}
	.st92{fill:#368736;}
	.st93{fill:#378299;}
	.st94{fill:#379137;}
	.st95{fill:#6B6B6A;}
	.st96{fill:#D1814B;}
	.st97{fill:#D19433;}
	.st98{fill:#D1D1D1;}
	.st99{fill:#D37611;}
	.st100{fill:#D3C0A9;}
	.st101{fill:#D3D2D1;}
	.st102{fill:#D3D3D3;}
	.st103{fill:#D6AFE2;}
	.st104{fill:#D6E5E4;}
	.st105{fill:#D8DBBA;}
	.st106{fill:#3F8CAA;}
	.st107{fill:#3FACE8;}
	.st108{fill:#72480E;}
	.st109{fill:#724C00;}
	.st110{fill:#A39E93;}
	.st111{fill:#A3D5E0;}
	.st112{fill:#776046;}
	.st113{fill:#77B78D;}
	.st114{fill:#DB5B23;}
	.st115{fill:#A87D3D;}
	.st116{fill:#A8A398;}
	.st117{fill:#DD6B03;}
	.st118{fill:#DD8645;}
	.st119{fill:#DDB9B3;}
	.st120{fill:#DDBF0B;}
	.st121{fill:#DDDDDD;}
	.st122{fill:#421E06;}
	.st123{fill:#429B42;}
	.st124{fill:#4397AA;}
]]>
</style><g><g><g><g><path class="st86" d="M7.921,256.004c0-137.021,111.07-248.083,248.075-248.083c137.013,0,248.083,111.062,248.083,248.083      c0,137.005-111.07,248.075-248.083,248.075C118.991,504.079,7.921,393.009,7.921,256.004z"/></g></g></g><g><g><path class="st104" d="M89.529,149.096c0-12.578,10.205-22.775,22.783-22.775h289.005c12.577,0,22.783,10.198,22.783,22.775l0,0     c0,12.585-10.206,22.783-22.783,22.783H112.312C99.734,171.879,89.529,161.681,89.529,149.096L89.529,149.096z"/><path class="st104" d="M178.229,427.207c0-3.022,4.789-5.478,10.703-5.478h135.766c5.906,0,10.703,2.456,10.703,5.478l0,0     c0,3.03-4.797,5.485-10.703,5.485H188.932C183.018,432.692,178.229,430.236,178.229,427.207L178.229,427.207z"/><g><path class="st104" d="M87.892,275.26c0,65.067,37.028,121.452,91.141,149.338h153.606      c54.112-27.886,91.141-84.271,91.141-149.338c0-39.416-13.618-75.641-36.355-104.292H124.255      C101.51,199.62,87.892,235.845,87.892,275.26z"/></g></g><g><path class="st68" d="M99.643,276.836c0,60.516,34.442,112.952,84.768,138.887h142.858c50.324-25.935,84.76-78.372,84.76-138.887     c0-24.642-5.746-47.93-15.921-68.655c0,0-45.283-11.751-138.313,0c-93.03,11.751-142.23,0-142.23,0     C105.389,228.906,99.643,252.194,99.643,276.836z"/></g><g><path class="st32" d="M290.236,392.343c0,0,18.969-47.667-3.569-83.903c0,0,43.176,13.809,16.192,83.077L290.236,392.343z"/><path class="st25" d="M286.021,397.09c0,0,12.853-33.222-3.041-58.224c0,0,30.074,9.295,11.793,57.562L286.021,397.09z"/><path class="st113" d="M318.05,398.25c0,0-8.955-39.255,12.914-64.624c0,0-35.154,5.481-22.596,62.455L318.05,398.25z"/></g><path class="st71" d="M319.618,397.798c-1.301-6.404-6.962-11.224-13.756-11.224c-5.998,0-11.078,3.779-13.082,9.074    c-0.842-0.153-1.699-0.26-2.586-0.26c-1.103,0-2.158,0.161-3.183,0.398c-2.311-4.575-7.008-7.742-12.486-7.742    c-3.756,0-7.153,1.5-9.678,3.909c-2.548-3.542-6.679-5.868-11.376-5.868c-5.156,0-9.625,2.823-12.058,6.969    c-0.39-0.03-0.765-0.115-1.163-0.115c-3.81,0-7.26,1.538-9.792,4.001c-2.524-2.463-5.976-4.001-9.793-4.001    c-2.486,0-4.789,0.704-6.816,1.844c-2.341-1.752-5.218-2.823-8.362-2.823c-5.118,0-9.562,2.777-12.011,6.878    c-0.077,0-0.153-0.023-0.229-0.023c-7.735,0-14.009,6.266-14.031,14c1.729,0.979,3.428,1.997,5.194,2.907h142.858    c0.222-0.115,0.436-0.245,0.657-0.367c0.475-1.408,0.788-2.892,0.788-4.46C328.714,404.89,324.927,399.803,319.618,397.798z"/><g><path class="st117" d="M145.867,283.852c0,7.245,18.2,32.32,57.96,32.32c39.748,0,98.08-26.861,98.08-32.32     c0-6.48-58.332-32.323-98.08-32.323C164.067,251.528,145.867,276.048,145.867,283.852z"/><path class="st117" d="M326.423,316.171c0,0-38.864-14.467-38.864-32.32c0-17.849,38.864-32.323,38.864-32.323l-14.888,31.772     L326.423,316.171z"/><path class="st117" d="M253.024,237.042v34.554l-44.588-16.724C208.437,254.872,230.73,234.812,253.024,237.042z"/><path class="st117" d="M253.024,323.799v-34.55l-44.588,16.72C208.437,305.969,230.73,326.033,253.024,323.799z"/><path class="st14" d="M180.57,274.38c0,4.617,3.752,8.354,8.369,8.354c4.598,0,8.347-3.737,8.347-8.354     c0-4.621-3.749-8.358-8.347-8.358C184.322,266.022,180.57,269.759,180.57,274.38z"/></g></g></g></svg>