<?xml version="1.0" ?><svg data-name="Слой 1" id="Слой_1" viewBox="0 0 160 160" xmlns="http://www.w3.org/2000/svg" xmlns:xlink="http://www.w3.org/1999/xlink"><defs><style>.cls-1{fill:none;}.cls-2{fill:#00a0b4;}.cls-3{fill:#00d2eb;}.cls-4{fill:#fefdfd;}.cls-5{opacity:0.5;isolation:isolate;}.cls-6{fill:#d5f6f7;}.cls-7{fill:#ff655d;}.cls-8{fill:#d13224;}.cls-9{clip-path:url(#clip-path);}.cls-10{fill:#fde7d9;}.cls-11{clip-path:url(#clip-path-2);}.cls-12{fill:#ffac49;}</style><clipPath id="clip-path"><path class="cls-1" d="M45.8,85.7l3-2a4.26,4.26,0,0,1,4.6,0l3,2a4.26,4.26,0,0,0,4.6,0l3-2a4.26,4.26,0,0,1,4.6,0l3,2a4.26,4.26,0,0,0,4.6,0l2.4-2a9,9,0,0,1,1.4-.6s0-26.5.1-27.6H44c-1.6,0-4,1.9-4,3l-.3.9V84.7l1.5,1A4.71,4.71,0,0,0,45.8,85.7Z"/></clipPath><clipPath id="clip-path-2"><path class="cls-1" d="M120,58.5c0-1.1-2.5-3.1-4.1-3.1H80.1C80,57.8,80,83,80,83a5.93,5.93,0,0,1,1.4.5l2.4,2a4.26,4.26,0,0,0,4.6,0l3-2a4.26,4.26,0,0,1,4.6,0l3,2a4.26,4.26,0,0,0,4.6,0l3-2a4.26,4.26,0,0,1,4.6,0l3,2a4.43,4.43,0,0,0,4.7,0l1.5-.9V59.2Z"/></clipPath></defs><title/><path class="cls-2" d="M80,20a60,60,0,1,0,60,60A60,60,0,0,0,80,20Z"/><path class="cls-3" d="M80,24.1a56,56,0,1,1-56,56,56,56,0,0,1,56-56"/><path class="cls-2" d="M43.43,116.22l42.2,21.9c29.35-4,52-28.71,52-58.62a58.18,58.18,0,0,0-2.47-16.78l-19.05-7.26Z"/><path class="cls-4" d="M115.5,116.5h-71a2,2,0,0,1-2-2v-56a2,2,0,0,1,2-2h71a2,2,0,0,1,2,2v56A2,2,0,0,1,115.5,116.5Z"/><g class="cls-5"><path class="cls-6" d="M115.6,116.5H80.1v-60h37.5v58A2.07,2.07,0,0,1,115.6,116.5Z"/></g><path class="cls-2" d="M84.1,110.5H57.6a1.79,1.79,0,0,1-1.8-1.8V92.4a1.79,1.79,0,0,1,1.8-1.8H84.1a1.79,1.79,0,0,1,1.8,1.8v16.4A1.84,1.84,0,0,1,84.1,110.5Z"/><path class="cls-2" d="M112.6,116.8h-14v-26a2,2,0,0,1,2-2h10a2,2,0,0,1,2,2Z"/><path class="cls-7" d="M45.8,85.7l3-2a4.26,4.26,0,0,1,4.6,0l3,2a4.26,4.26,0,0,0,4.6,0l3-2a4.26,4.26,0,0,1,4.6,0l3,2a4.26,4.26,0,0,0,4.6,0l2.4-2a9,9,0,0,1,1.4-.6s0-26.5.1-27.6H44c-1.6,0-4,1.9-4,3l-.3.9V84.7l1.5,1A4.71,4.71,0,0,0,45.8,85.7Z"/><path class="cls-8" d="M120,58.5c0-1.1-2.5-3.1-4.1-3.1H80.1C80,57.8,80,83,80,83a5.93,5.93,0,0,1,1.4.5l2.4,2a4.26,4.26,0,0,0,4.6,0l3-2a4.26,4.26,0,0,1,4.6,0l3,2a4.26,4.26,0,0,0,4.6,0l3-2a4.26,4.26,0,0,1,4.6,0l3,2a4.43,4.43,0,0,0,4.7,0l1.5-.9V59.2Z"/><g class="cls-9"><rect class="cls-10" height="32.3" width="10" x="46.3" y="54.7"/><rect class="cls-10" height="32.3" width="10" x="63.3" y="54.7"/></g><g class="cls-11"><rect class="cls-7" height="32.3" width="10" x="86.6" y="54.7"/><rect class="cls-7" height="32.3" width="10" x="103.6" y="54.7"/></g><circle class="cls-4" cx="79.8" cy="57.1" r="15"/><path class="cls-10" d="M79.8,42.1v30c8.5-.2,15.3-6.8,15.3-15S88.3,42.3,79.8,42.1Z"/><path class="cls-12" d="M85.3,52.9A2.66,2.66,0,0,1,84.1,55a2.38,2.38,0,0,1-1.2.4h-.4a2.13,2.13,0,0,1-1.2-.4,2.66,2.66,0,0,1-1.2-2.1,3.11,3.11,0,0,1,.5-1.7l2.1-3.3,2.1,3.3A2.59,2.59,0,0,1,85.3,52.9Zm5,1.9-2.1-3.3-2.1,3.3a2.59,2.59,0,0,0-.5,1.7,2.66,2.66,0,0,0,1.2,2.1A2.38,2.38,0,0,0,88,59h.4a2.13,2.13,0,0,0,1.2-.4,2.79,2.79,0,0,0,1.2-2.1A3.11,3.11,0,0,0,90.3,54.8ZM78.9,51.2l-2.1-3.3-2.1,3.3a2.59,2.59,0,0,0-.5,1.7A2.66,2.66,0,0,0,75.4,55a2.38,2.38,0,0,0,1.2.4H77a2.13,2.13,0,0,0,1.2-.4,2.79,2.79,0,0,0,1.2-2.1A2.59,2.59,0,0,0,78.9,51.2Zm-5.5,3.6-2.1-3.5-2.1,3.5a3.11,3.11,0,0,0-.5,1.7,2.93,2.93,0,0,0,1.2,2.2,5.13,5.13,0,0,0,1.2.5h.4a1.73,1.73,0,0,0,1.2-.5,2.93,2.93,0,0,0,1.2-2.2A2.83,2.83,0,0,0,73.4,54.8ZM86.3,61a4.25,4.25,0,0,0-1.7-2.1l-4.7-3.3-.1-.1-.1.1L75,58.9A4.29,4.29,0,0,0,73.3,61a4.45,4.45,0,0,0,.3,3.7A4.62,4.62,0,0,0,75,66.1c.1,0,.1.1.2.1s.1.1.2.1a4.26,4.26,0,0,0,2,.1,4.16,4.16,0,0,0,2.4-1.5,4.33,4.33,0,0,0,2.4,1.5,4.26,4.26,0,0,0,2-.1.35.35,0,0,0,.2-.1c.1,0,.1-.1.2-.1A3.7,3.7,0,0,0,86,64.7,4.45,4.45,0,0,0,86.3,61Z"/></svg>