<?xml version="1.0" ?><!DOCTYPE svg  PUBLIC '-//W3C//DTD SVG 1.1//EN'  'http://www.w3.org/Graphics/SVG/1.1/DTD/svg11.dtd'><svg height="512px" id="Layer_1" style="enable-background:new 0 0 512 512;" version="1.1" viewBox="0 0 512 512" width="512px" xml:space="preserve" xmlns="http://www.w3.org/2000/svg" xmlns:xlink="http://www.w3.org/1999/xlink"><style type="text/css">
<![CDATA[
	.st0{fill:#7A7A7A;}
	.st1{fill:#474645;}
	.st2{fill:#AA701B;}
	.st3{fill:#AAA493;}
	.st4{fill:#48A1AF;}
	.st5{fill:#493E30;}
	.st6{fill:#AF731B;}
	.st7{fill:#E0942F;}
	.st8{fill:#AFAAA3;}
	.st9{fill:#E09C4B;}
	.st10{fill:#E2E2E2;}
	.st11{fill:#4ABC96;}
	.st12{fill:#E5AA17;}
	.st13{fill:#E79E2F;}
	.st14{fill:#191919;}
	.st15{fill:#E8CD07;}
	.st16{fill:#E8E5DA;}
	.st17{fill:#E8E8E8;}
	.st18{fill:#4F4F4F;}
	.st19{fill:#B04902;}
	.st20{fill:#826A4D;}
	.st21{fill:#B2751B;}
	.st22{fill:#835A00;}
	.st23{fill:#843C0B;}
	.st24{fill:#847741;}
	.st25{fill:#84AF92;}
	.st26{fill:#85B06E;}
	.st27{fill:#1A6A96;}
	.st28{fill:#B58841;}
	.st29{fill:#EA4949;}
	.st30{fill:#875513;}
	.st31{fill:#EAAA54;}
	.st32{fill:#87C69E;}
	.st33{fill:#EAE2D6;}
	.st34{fill:#EDC92F;}
	.st35{fill:#EEF471;}
	.st36{fill:#EFB76C;}
	.st37{fill:#EFEFEF;}
	.st38{fill:#565553;}
	.st39{fill:#BA4511;}
	.st40{fill:#BA6D20;}
	.st41{fill:#57843A;}
	.st42{fill:#BC9042;}
	.st43{fill:#BE802B;}
	.st44{fill:#BF801B;}
	.st45{fill:#BF832C;}
	.st46{fill:#22A85B;}
	.st47{fill:#258ACE;}
	.st48{fill:#F4F4F4;}
	.st49{fill:#5B2C12;}
	.st50{fill:#F7D0A1;}
	.st51{fill:#5D963E;}
	.st52{fill:#29C183;}
	.st53{fill:#5E5E5E;}
	.st54{fill:#F9CC91;}
	.st55{fill:#F9F3DC;}
	.st56{fill:#915412;}
	.st57{fill:#91581A;}
	.st58{fill:#919191;}
	.st59{fill:#C1C1C1;}
	.st60{fill:#93783D;}
	.st61{fill:#C2C6C5;}
	.st62{fill:#C4C4C4;}
	.st63{fill:#2A7CA0;}
	.st64{fill:#96744B;}
	.st65{fill:#C68932;}
	.st66{fill:#C69422;}
	.st67{fill:#996304;}
	.st68{fill:#C8D6D4;}
	.st69{fill:#FCC677;}
	.st70{fill:#60390B;}
	.st71{fill:#606060;}
	.st72{fill:#FFFAE6;}
	.st73{fill:#FFFFFF;}
	.st74{fill:#632D08;}
	.st75{fill:#63492E;}
	.st76{fill:#635021;}
	.st77{fill:none;}
	.st78{fill:#663514;}
	.st79{fill:#9B581C;}
	.st80{fill:#CC5215;}
	.st81{fill:#9D633C;}
	.st82{fill:#CCAC0D;}
	.st83{fill:#CCB2AC;}
	.st84{fill:#CE8F20;}
	.st85{fill:#327F32;}
	.st86{fill:#337180;}
	.st87{fill:#347C0E;}
	.st88{fill:#349B34;}
	.st89{fill:#352E28;}
	.st90{fill:#353535;}
	.st91{fill:#357D8E;}
	.st92{fill:#368736;}
	.st93{fill:#378299;}
	.st94{fill:#379137;}
	.st95{fill:#6B6B6A;}
	.st96{fill:#D1814B;}
	.st97{fill:#D19433;}
	.st98{fill:#D1D1D1;}
	.st99{fill:#D37611;}
	.st100{fill:#D3C0A9;}
	.st101{fill:#D3D2D1;}
	.st102{fill:#D3D3D3;}
	.st103{fill:#D6AFE2;}
	.st104{fill:#D6E5E4;}
	.st105{fill:#D8DBBA;}
	.st106{fill:#3F8CAA;}
	.st107{fill:#3FACE8;}
	.st108{fill:#72480E;}
	.st109{fill:#724C00;}
	.st110{fill:#A39E93;}
	.st111{fill:#A3D5E0;}
	.st112{fill:#776046;}
	.st113{fill:#77B78D;}
	.st114{fill:#DB5B23;}
	.st115{fill:#A87D3D;}
	.st116{fill:#A8A398;}
	.st117{fill:#DD6B03;}
	.st118{fill:#DD8645;}
	.st119{fill:#DDB9B3;}
	.st120{fill:#DDBF0B;}
	.st121{fill:#DDDDDD;}
	.st122{fill:#421E06;}
	.st123{fill:#429B42;}
	.st124{fill:#4397AA;}
]]>
</style><g><g><g><g><path class="st111" d="M7.921,256c0-137.021,111.07-248.083,248.075-248.083c137.013,0,248.083,111.062,248.083,248.083      c0,137.005-111.07,248.083-248.083,248.083C118.991,504.083,7.921,393.005,7.921,256z"/></g></g></g><g><path class="st60" d="M255.996,504.083c90.488,0,169.631-48.466,212.967-120.836H43.037    C86.371,455.617,165.514,504.083,255.996,504.083z"/></g><g><path class="st7" d="M246.498,73.475c0,0,7.671,33.62,5.713,42.108l29.051-16.158l-23.013-29.867    C258.249,69.558,246.498,59.11,246.498,73.475z"/><path class="st7" d="M348.831,74.453c0,0-7.671,33.62-5.713,42.108l-29.051-16.157l23.013-29.868    C337.08,70.536,348.831,60.09,348.831,74.453z"/><path class="st13" d="M168.157,383.102h107.999c0,0,15.708-3.48,14.161-9.013c-1.547-5.531-5.149-6.438-12.876-7.723h-12.872    c0,0,10.491-9.234,14.161-21.888l11.587,19.31c0,0,9.052,16.885,11.586,19.313s14.222,2.793,19.314,0    c5.091-2.792,7.492-14.938,5.148-19.313c-2.343-4.368-11.588-6.435-11.588-6.435l-3.862-88.837c0,0,30.9-47.636,23.175-105.569    c0,0,19.964-21.903,9.011-47.64c0,0-15.598-24.612-43.885-25.186c-19.283-0.398-39.171,7.18-45.698,19.585    c-7.482,14.215,0,31.337,3.917,45.696c0,0-8.318,8.829-14.754,15.263c-6.436,6.442-41.2,16.739-56.648,37.343    c-15.45,20.595-49.449,54.073-49.319,100.42c0,0,2.1,34.76,1.576,57.57C138.113,373.604,168.157,383.102,168.157,383.102z"/><path class="st7" d="M310.915,268.517c0,0,30.9-47.636,23.175-105.569c0,0,19.964-21.903,9.011-47.64    c0,0-15.598-24.612-43.885-25.186c-19.283-0.398-39.171,7.18-45.698,19.585c-7.482,14.215,0,31.337,3.917,45.696    c0,0-8.089,9.066-14.754,15.263C209.775,201.269,310.915,268.517,310.915,268.517z"/><path class="st13" d="M138.29,365.999c0,0-8.324,35.528,9.303,52.177c17.627,16.647,52.88,37.701,119.03-8.438    c0,0,2.957-7.712-10.297-2.575c-13.254,5.138-99.919,33.536-83.762-36.971L138.29,365.999z"/><g><ellipse class="st9" cx="297.891" cy="152.623" rx="14.548" ry="13.92"/><path class="st31" d="M299.87,148.984c0,7.689-6.514,13.925-14.549,13.925c-8.033,0-14.547-6.235-14.547-13.925     c0-7.685,6.515-13.916,14.547-13.916C293.355,135.068,299.87,141.3,299.87,148.984z"/><path class="st31" d="M325.371,148.984c0,7.689-6.515,13.925-14.55,13.925c-8.033,0-14.547-6.235-14.547-13.925     c0-7.685,6.515-13.916,14.547-13.916C318.856,135.068,325.371,141.3,325.371,148.984z"/><g><path class="st96" d="M304.762,145.979c0-1.929-3.278-10.73-3.278-10.73h-6.642c0,0-3.278,8.626-3.278,10.73      c0,2.111,3.299,5.21,4.311,6.234c0.795,0.804,3.791,0.796,4.575,0C301.394,151.257,304.762,147.914,304.762,145.979z"/><path class="st118" d="M304.762,145.979c0-1.929-2.479-10.076-3.278-10.73c-0.799-0.654-5.63-0.734-6.642,0      c-1.012,0.734-3.278,8.626-3.278,10.73C291.563,148.09,304.762,147.914,304.762,145.979z"/></g></g><g><path class="st99" d="M288.159,127.12c0,2.383-5.523,5.775-10.472,5.21c-3.928-0.448-8.764-5.796-8.302-8.354     c0.528-2.388,5.441-5.846,9.387-5.593C284.615,118.758,288.159,124.273,288.159,127.12z"/><path class="st56" d="M285.251,126.622c-0.084,2.143-4.045,5.383-7.465,5.046c-2.718-0.264-5.893-4.9-5.483-7.211     c0.451-2.173,3.99-5.447,6.725-5.355C283.079,119.232,285.351,124.067,285.251,126.622z"/><path class="st89" d="M276.854,125.375c0-0.994,0.803-3.427,1.796-3.427s1.796,2.433,1.796,3.427     c0,0.991-0.803,2.773-1.796,2.773S276.854,126.366,276.854,125.375z"/></g><g><path class="st99" d="M307.872,127.12c0,2.383,5.524,5.775,10.472,5.21c3.929-0.448,8.764-5.796,8.303-8.354     c-0.528-2.388-5.441-5.846-9.387-5.593C311.417,118.758,307.872,124.273,307.872,127.12z"/><path class="st56" d="M310.779,126.622c0.084,2.143,4.045,5.383,7.465,5.046c2.718-0.264,5.893-4.9,5.483-7.211     c-0.452-2.173-3.99-5.447-6.725-5.355C312.952,119.232,310.68,124.067,310.779,126.622z"/><path class="st89" d="M319.178,125.375c0-0.994-0.803-3.427-1.796-3.427s-1.796,2.433-1.796,3.427     c0,0.991,0.803,2.773,1.796,2.773S319.178,126.366,319.178,125.375z"/></g><path class="st7" d="M215.651,247.454c0,0,54.187,15.669,63.078,97.024l-0.283,0.864c0,0-7.955-26.402-23.95-55.451    C238.501,260.839,215.651,247.454,215.651,247.454z"/></g></g></svg>