<?xml version="1.0" standalone="no"?>
<!DOCTYPE svg PUBLIC "-//W3C//DTD SVG 20010904//EN"
 "http://www.w3.org/TR/2001/REC-SVG-20010904/DTD/svg10.dtd">
<svg version="1.0" xmlns="http://www.w3.org/2000/svg"
 width="640.000000pt" height="640.000000pt" viewBox="0 0 640.000000 640.000000"
 preserveAspectRatio="xMidYMid meet">
<metadata>
Created by potrace 1.11, written by Peter Selinger 2001-2013
</metadata>
<g transform="translate(0.000000,640.000000) scale(0.100000,-0.100000)"
fill="#000000" stroke="none">
<path d="M797 5064 c-1 -1 -33 -5 -72 -9 -38 -4 -79 -9 -90 -10 -11 -2 -24 -4
-29 -4 -4 -1 -5 -9 -1 -18 4 -10 8 -22 9 -28 12 -57 113 -184 213 -270 84 -72
262 -195 281 -195 7 0 12 -4 12 -10 0 -5 6 -10 13 -10 7 0 23 -7 36 -16 l23
-16 -29 -27 c-16 -14 -41 -34 -57 -44 -43 -29 -73 -55 -182 -162 -159 -155
-249 -295 -293 -454 -23 -82 -21 -73 -21 -111 0 -26 -5 -31 -47 -43 -165 -50
-434 -172 -491 -224 -7 -7 -21 -18 -32 -26 -20 -14 -33 -114 -33 -242 1 -222
67 -435 150 -486 33 -21 149 -80 163 -84 3 -1 36 -16 74 -33 38 -18 74 -32 81
-32 6 0 15 -3 19 -7 6 -6 64 -29 96 -38 8 -2 31 -9 50 -15 37 -12 168 -47 210
-56 29 -7 48 -10 114 -19 32 -4 55 -14 67 -28 31 -36 119 -155 119 -161 0 -4
15 -28 33 -54 52 -74 147 -231 147 -242 0 -5 5 -10 11 -10 10 0 7 -110 -6
-230 -5 -41 -5 -253 -1 -290 1 -14 8 -44 15 -67 9 -35 17 -43 36 -45 14 -1 37
-3 53 -5 165 -19 474 -23 659 -10 160 12 161 12 188 71 37 78 73 181 96 270
26 101 24 92 34 150 l8 48 56 -6 c31 -4 70 -9 86 -11 182 -24 663 -24 870 0
17 2 57 6 90 9 33 3 76 8 95 10 19 3 60 8 90 11 30 3 63 9 73 11 16 5 18 1 13
-33 -3 -21 -8 -58 -11 -83 -3 -25 -7 -61 -10 -80 -16 -128 -25 -324 -15 -340
4 -7 27 -14 51 -16 24 -2 71 -7 104 -11 125 -14 522 -7 640 11 11 2 28 4 37 5
29 2 62 85 84 211 7 40 17 107 20 125 1 11 5 38 8 60 9 61 23 162 31 225 8 67
14 113 21 165 9 72 12 106 13 143 1 29 16 49 95 130 99 102 124 129 159 175
12 16 27 34 33 41 44 48 218 345 219 376 0 3 10 30 22 60 21 55 50 148 57 185
2 11 7 31 10 45 6 28 16 91 21 135 2 17 6 44 10 60 8 41 14 85 17 122 2 31 4
32 66 43 98 17 162 46 260 120 26 19 46 25 97 26 193 6 349 97 503 292 37 48
41 58 37 93 -6 51 -26 88 -62 119 -65 56 -62 56 -180 -16 -96 -59 -216 -124
-226 -124 -3 0 -4 26 -3 58 4 152 -42 294 -115 351 -81 64 -223 77 -324 31
-49 -23 -123 -76 -158 -115 -60 -67 -80 -173 -50 -263 16 -47 73 -138 112
-179 24 -26 21 -29 -39 -38 -75 -12 -83 -13 -134 -20 -28 -3 -53 -8 -57 -11
-4 -2 -18 10 -31 28 -85 120 -349 363 -513 473 -33 22 -61 43 -63 48 -2 4 -8
7 -13 7 -5 0 -32 15 -61 34 -49 31 -224 118 -329 165 -41 18 -208 76 -249 86
-8 2 -40 11 -70 20 -72 21 -68 20 -190 43 -232 46 -363 58 -635 63 -91 1 -416
-11 -447 -16 -9 -2 -48 -7 -85 -10 -37 -4 -71 -9 -74 -11 -3 -2 -21 -6 -40 -9
-19 -3 -56 -10 -84 -15 -27 -6 -59 -12 -70 -14 -11 -2 -96 -23 -189 -45 l-169
-42 -57 58 c-97 99 -137 129 -251 191 -73 40 -222 95 -291 106 -18 3 -44 8
-58 11 -59 12 -364 28 -373 19z"/>
</g>
</svg>
