<?xml version="1.0" ?><svg id="Layer_1" style="enable-background:new 0 0 64 64;" version="1.1" viewBox="0 0 64 64" xml:space="preserve" xmlns="http://www.w3.org/2000/svg" xmlns:xlink="http://www.w3.org/1999/xlink"><style type="text/css">
	.st0{fill:#6FB544;}
	.st1{fill:#E9D893;}
	.st2{fill:#D3C383;}
	.st3{fill:#C5B87F;}
	.st4{fill:#649E42;}
	.st5{fill:#F3D246;}
	.st6{fill:#DAB92C;}
	.st7{fill:#7A77A8;}
	.st8{fill:#6C6A93;}
	.st9{fill:#E6EBF0;}
	.st10{fill:#E2E5E7;}
	.st11{fill:#C2C2C3;}
	.st12{fill:#524E4B;}
	.st13{fill:#696664;}
	.st14{fill:#E1C343;}
	.st15{fill:#CECDE0;}
	.st16{fill:#5E9842;}
	.st17{fill:#D8E7AF;}
	.st18{fill:#61ADDF;}
	.st19{fill:#5DA5CD;}
	.st20{fill:#B5A872;}
	.st21{fill:none;}
	.st22{fill:#FFDAAB;}
	.st23{fill:#F0C07C;}
	.st24{fill:#CCCBCB;}
	.st25{fill:#D0B441;}
	.st26{fill:#BFA02F;}
	.st27{fill:#F16944;}
	.st28{fill:#D3D3D3;}
	.st29{fill:#C4C3C3;}
	.st30{fill:#EDEDEF;}
	.st31{fill:#A2A2A3;}
	.st32{fill:#D5D5D5;}
	.st33{fill:#6E6F71;}
	.st34{fill:#1F5360;}
	.st35{fill:#8D8D8E;}
	.st36{fill:#E05F40;}
	.st37{fill:#3D7F96;}
	.st38{fill:#A8A8A8;}
	.st39{fill:#C9AA2D;}
	.st40{fill:#B2B2B2;}
	.st41{fill:#44A8DE;}
	.st42{fill:#3F64AE;}
	.st43{fill:#4A8BC9;}
	.st44{fill:#37C1F0;}
	.st45{fill:#45A9DF;}
	.st46{fill:#41B3E6;}
	.st47{fill:#4B99D3;}
	.st48{fill:#3EC6F2;}
	.st49{fill:#7DD0E8;}
	.st50{fill:#F69361;}
	.st51{fill:#F16A2A;}
	.st52{fill:#F4844D;}
	.st53{fill:#F79F70;}
	.st54{fill:#F69564;}
	.st55{fill:#F69969;}
	.st56{fill:#F58C58;}
	.st57{fill:#F8A478;}
	.st58{fill:#FABA94;}
	.st59{fill:#E0E0E0;}
	.st60{fill:#EBECEC;}
	.st61{fill:#5199C3;}
	.st62{fill:#7AC4EC;}
	.st63{fill:#BBBBBC;}
	.st64{fill:#F48A73;}
	.st65{fill:#8C8B8B;}
	.st66{fill:#C0C0C0;}
	.st67{fill:#D5D7D7;}
	.st68{fill:#D7D5D5;}
	.st69{fill:#5F9B42;}
	.st70{fill:#9ECE73;}
</style><g><circle class="st5" cx="32" cy="33.006" r="30.994"/><path class="st14" d="M57.932,24.382v15.35c0,0.958-0.777,1.731-1.735,1.731h-9.42v18.792c-4.393,2.388-9.426,3.744-14.777,3.744   c-7.333,0-14.071-2.545-19.378-6.804V15.659c0-1.597,1.296-2.897,2.897-2.897h5.016V4.488c0-0.097,0.003-0.198,0.017-0.291   c0.144-1.493,1.4-2.662,2.937-2.662h17.788c0.814,0,1.554,0.332,2.09,0.864c0.532,0.536,0.864,1.272,0.864,2.09V5.64h4.969v1.982   c0,0.686-0.278,1.306-0.727,1.758c-0.449,0.449-1.072,0.727-1.758,0.727h-8.395v2.655h5.562c1.601,0,2.897,1.299,2.897,2.897v6.992   h9.42C57.155,22.651,57.932,23.428,57.932,24.382z"/><path class="st31" d="M46.777,14.122v44.914c0,0.516-0.134,0.998-0.368,1.416c-1.055,0.553-2.143,1.048-3.265,1.48H20.849   c-2.994-1.155-5.766-2.763-8.227-4.738V14.122c0-1.597,1.296-2.897,2.897-2.897h28.362C45.482,11.226,46.777,12.525,46.777,14.122z   "/><path class="st30" d="M56.198,39.929H40.462V21.115h15.736c0.957,0,1.733,0.776,1.733,1.733v15.348   C57.931,39.153,57.155,39.929,56.198,39.929z"/><rect class="st13" height="4.431" width="17.469" x="40.462" y="30.985"/><path class="st33" d="M46.777,17.909v42.346c-0.121,0.067-0.244,0.131-0.368,0.198c-1.055,0.553-2.143,1.048-3.265,1.48   c-3.459,1.336-7.216,2.066-11.144,2.066c-3.931,0-7.692-0.73-11.151-2.066c-2.994-1.155-5.766-2.763-8.227-4.738V17.909   c0-1.601,1.296-2.897,2.897-2.897h28.362C45.482,15.013,46.777,16.309,46.777,17.909z"/><path class="st30" d="M20.533,21.115V2.953C20.533,1.322,21.855,0,23.487,0h0h17.785c-2.879,0.153-2.953,2.851-2.953,2.851v5.713   v12.551H20.533z"/><path class="st67" d="M44.228,5.609V2.954c0-0.817-0.332-1.554-0.864-2.09C42.828,0.332,42.088,0,41.274,0h-0.003   c-0.449,0.023-0.83,0.111-1.155,0.238c-0.044,0.017-0.084,0.037-0.124,0.057c-0.044,0.02-0.084,0.04-0.124,0.06   c-0.532,0.268-0.884,0.66-1.112,1.055c-0.013,0.023-0.03,0.047-0.044,0.074c-0.234,0.432-0.332,0.857-0.368,1.115   c-0.003,0.027-0.007,0.05-0.01,0.074c-0.013,0.111-0.017,0.177-0.017,0.177v2.759v2.511v0.452h8.395V5.609H44.228z"/><path class="st30" d="M49.197,4.106v1.982c0,0.686-0.278,1.306-0.727,1.758c-0.449,0.449-1.072,0.727-1.758,0.727   c-1.373,0-2.485-1.112-2.485-2.485V4.106H49.197z"/><rect class="st67" height="1.164" width="11.901" x="23.365" y="10.799"/><rect class="st67" height="1.164" width="11.901" x="23.365" y="14.766"/><rect class="st67" height="1.164" width="11.901" x="23.365" y="6.887"/><rect class="st67" height="1.164" width="11.901" x="23.365" y="2.975"/><rect class="st13" height="2.323" width="21.592" x="18.52" y="18.791"/><rect class="st67" height="2.323" width="17.785" x="20.533" y="18.791"/><rect class="st11" height="9.755" width="25.395" x="17.093" y="27.553"/><rect class="st31" height="1.947" width="25.395" x="17.093" y="27.553"/><path class="st13" d="M20.324,47.317L20.324,47.317c-1.784,0-3.231-1.447-3.231-3.231v0c0-1.784,1.447-3.231,3.231-3.231h0   c1.784,0,3.231,1.447,3.231,3.231v0C23.555,45.87,22.108,47.317,20.324,47.317z"/><path class="st13" d="M29.7,47.317L29.7,47.317c-1.784,0-3.231-1.447-3.231-3.231v0c0-1.784,1.447-3.231,3.231-3.231h0   c1.784,0,3.231,1.447,3.231,3.231v0C32.931,45.87,31.485,47.317,29.7,47.317z"/><path class="st13" d="M38.741,47.317L38.741,47.317c-1.784,0-3.231-1.447-3.231-3.231v0c0-1.784,1.447-3.231,3.231-3.231h0   c1.784,0,3.231,1.447,3.231,3.231v0C41.972,45.87,40.525,47.317,38.741,47.317z"/><path class="st13" d="M20.324,56.348L20.324,56.348c-1.784,0-3.231-1.447-3.231-3.231v0c0-1.784,1.447-3.231,3.231-3.231h0   c1.784,0,3.231,1.447,3.231,3.231v0C23.555,54.901,22.108,56.348,20.324,56.348z"/><path class="st13" d="M29.7,56.348L29.7,56.348c-1.784,0-3.231-1.447-3.231-3.231v0c0-1.784,1.447-3.231,3.231-3.231h0   c1.784,0,3.231,1.447,3.231,3.231v0C32.931,54.901,31.485,56.348,29.7,56.348z"/><path class="st13" d="M38.741,56.348L38.741,56.348c-1.784,0-3.231-1.447-3.231-3.231v0c0-1.784,1.447-3.231,3.231-3.231h0   c1.784,0,3.231,1.447,3.231,3.231v0C41.972,54.901,40.525,56.348,38.741,56.348z"/><path class="st31" d="M20.324,48.857L20.324,48.857c-1.784,0-3.231-1.447-3.231-3.231v0c0-1.784,1.447-3.231,3.231-3.231h0   c1.784,0,3.231,1.447,3.231,3.231v0C23.555,47.411,22.108,48.857,20.324,48.857z"/><path class="st31" d="M29.7,48.857L29.7,48.857c-1.784,0-3.231-1.447-3.231-3.231v0c0-1.784,1.447-3.231,3.231-3.231h0   c1.784,0,3.231,1.447,3.231,3.231v0C32.931,47.411,31.485,48.857,29.7,48.857z"/><path class="st31" d="M38.741,48.857L38.741,48.857c-1.784,0-3.231-1.447-3.231-3.231v0c0-1.784,1.447-3.231,3.231-3.231h0   c1.784,0,3.231,1.447,3.231,3.231v0C41.972,47.411,40.525,48.857,38.741,48.857z"/><path class="st31" d="M20.324,57.888L20.324,57.888c-1.784,0-3.231-1.447-3.231-3.231v0c0-1.784,1.447-3.231,3.231-3.231h0   c1.784,0,3.231,1.447,3.231,3.231v0C23.555,56.442,22.108,57.888,20.324,57.888z"/><path class="st31" d="M29.7,57.888L29.7,57.888c-1.784,0-3.231-1.447-3.231-3.231v0c0-1.784,1.447-3.231,3.231-3.231h0   c1.784,0,3.231,1.447,3.231,3.231v0C32.931,56.442,31.485,57.888,29.7,57.888z"/><path class="st31" d="M38.741,57.888L38.741,57.888c-1.784,0-3.231-1.447-3.231-3.231v0c0-1.784,1.447-3.231,3.231-3.231h0   c1.784,0,3.231,1.447,3.231,3.231v0C41.972,56.442,40.525,57.888,38.741,57.888z"/></g></svg>