<?xml version="1.0" ?><!DOCTYPE svg  PUBLIC '-//W3C//DTD SVG 1.0//EN'  'http://www.w3.org/TR/2001/REC-SVG-20010904/DTD/svg10.dtd'><svg height="110px" style="enable-background:new 0 0 110 110;" version="1.0" viewBox="0 0 110 110" width="110px" xml:space="preserve" xmlns="http://www.w3.org/2000/svg" xmlns:xlink="http://www.w3.org/1999/xlink"><g id="Artboard"/><g id="Multicolor"><circle cx="55" cy="55" r="55" style="fill:#25B7D3;"/><g><path d="M74.537,72.067c-0.484,0.993-1.681,1.406-2.674,0.922L28.71,51.972    c-0.993-0.484-1.406-1.681-0.922-2.674l12.26-25.173c0.484-0.993,1.681-1.406,2.674-0.922L85.875,44.22    c0.993,0.484,1.406,1.681,0.922,2.674L74.537,72.067z" style="fill:#F99134;"/><path d="M42.722,23.202c-0.993-0.484-2.19-0.071-2.674,0.922L27.787,49.298    c-0.483,0.993-0.07,2.19,0.922,2.674l8.673,4.224L61.318,32.26L42.722,23.202z" style="fill:#F3B607;"/><path d="M49.501,42.235c-1.233-0.601-2.067-1.681-2.402-2.898c0.993-0.419,1.843-1.174,2.349-2.212    c0.505-1.038,0.575-2.173,0.294-3.213c1.165-0.487,2.53-0.497,3.763,0.104c2.271,1.106,3.214,3.841,2.108,6.112    C54.506,42.398,51.771,43.341,49.501,42.235z" style="fill:#FACB1B;"/><path d="M47.099,39.337c-0.282-1.04-0.212-2.175,0.294-3.213s1.356-1.793,2.349-2.212    c0.282,1.04,0.212,2.175-0.294,3.213C48.942,38.162,48.091,38.917,47.099,39.337z" style="fill:#F99134;"/><path d="M43.336,39.233c-2.271-1.106-3.214-3.841-2.108-6.112c1.106-2.271,3.841-3.214,6.112-2.108    c1.233,0.601,2.067,1.681,2.402,2.898c-0.993,0.419-1.843,1.174-2.349,2.212s-0.575,2.173-0.294,3.213    C45.933,39.824,44.569,39.833,43.336,39.233z" style="fill:#FA5655;"/><path d="M76.126,52.819c-0.484,0.993-1.681,1.406-2.674,0.922l-5.394-2.627    c-0.993-0.484-1.406-1.681-0.922-2.674l2.189-4.495c0.484-0.993,1.681-1.406,2.674-0.922l5.394,2.627    c0.993,0.484,1.406,1.681,0.922,2.674L76.126,52.819z" style="fill:#FBEC9A;"/><g><path d="M36.955,43.691l0.004-0.008c0.404-0.802,1.336-1.157,2.191-0.726     c0.436,0.22,0.657,0.493,0.807,0.807c0.033,0.066,0.042,0.158-0.002,0.247c-0.069,0.137-0.231,0.187-0.368,0.118     c-0.068-0.035-0.105-0.083-0.125-0.124c-0.114-0.255-0.274-0.458-0.545-0.594c-0.536-0.271-1.155-0.026-1.434,0.526l-0.004,0.008     c-0.279,0.553-0.113,1.197,0.427,1.47c0.298,0.15,0.549,0.155,0.842,0.085c0.053-0.014,0.117-0.012,0.178,0.019     c0.125,0.063,0.181,0.224,0.118,0.348c-0.039,0.077-0.105,0.119-0.17,0.137c-0.384,0.1-0.76,0.092-1.216-0.137     C36.836,45.452,36.546,44.502,36.955,43.691z" style="fill:#FCF6C2;"/><path d="M40.648,44.087c0.071-0.142,0.235-0.195,0.376-0.124l1.008,0.508     c0.355,0.179,0.581,0.424,0.672,0.693c0.072,0.229,0.051,0.481-0.073,0.727l-0.004,0.009c-0.228,0.451-0.628,0.594-1.066,0.52     l0.197,0.954c0.018,0.085,0.024,0.154-0.015,0.23c-0.069,0.137-0.233,0.17-0.354,0.11c-0.112-0.057-0.159-0.146-0.176-0.251     l-0.245-1.221l-0.625-0.315l-0.382,0.758c-0.069,0.137-0.233,0.191-0.37,0.122c-0.141-0.071-0.195-0.235-0.126-0.372     L40.648,44.087z M41.29,45.852c0.355,0.179,0.675,0.107,0.819-0.179l0.004-0.008c0.152-0.303,0.018-0.577-0.349-0.763     l-0.722-0.364l-0.478,0.948L41.29,45.852z" style="fill:#FCF6C2;"/><path d="M42.395,47.881l1.171-2.323c0.071-0.141,0.234-0.195,0.375-0.124l1.642,0.828     c0.121,0.061,0.171,0.212,0.11,0.334c-0.063,0.125-0.213,0.171-0.333,0.109l-1.396-0.704l-0.37,0.734l1.214,0.612     c0.121,0.061,0.17,0.212,0.107,0.338c-0.061,0.121-0.21,0.167-0.331,0.105l-1.214-0.612l-0.382,0.758l1.416,0.714     c0.121,0.061,0.171,0.213,0.11,0.334c-0.063,0.125-0.213,0.171-0.334,0.11l-1.662-0.838     C42.377,48.186,42.324,48.022,42.395,47.881z" style="fill:#FCF6C2;"/><path d="M46.27,46.922c0.071-0.142,0.235-0.195,0.376-0.124l0.803,0.404     c0.887,0.447,1.193,1.365,0.792,2.16l-0.004,0.008c-0.401,0.795-1.325,1.103-2.212,0.655l-0.803-0.405     c-0.141-0.071-0.195-0.234-0.124-0.376L46.27,46.922z M46.252,49.573c0.593,0.299,1.182,0.095,1.46-0.457l0.004-0.008     c0.278-0.552,0.097-1.155-0.496-1.454l-0.557-0.281l-0.968,1.92L46.252,49.573z" style="fill:#FCF6C2;"/><path d="M49.466,48.503c0.069-0.137,0.233-0.191,0.375-0.12c0.137,0.069,0.191,0.233,0.122,0.37     l-1.196,2.371c-0.069,0.138-0.233,0.191-0.37,0.122c-0.142-0.071-0.195-0.235-0.126-0.372L49.466,48.503z" style="fill:#FCF6C2;"/><path d="M51.293,49.718l-0.686-0.346c-0.129-0.065-0.177-0.221-0.114-0.346s0.216-0.179,0.346-0.114     l1.875,0.945c0.125,0.063,0.173,0.219,0.11,0.344s-0.217,0.18-0.342,0.116l-0.689-0.348l-1.078,2.137     c-0.069,0.137-0.237,0.189-0.374,0.12c-0.137-0.069-0.195-0.235-0.126-0.372L51.293,49.718z" style="fill:#FCF6C2;"/><path d="M53.816,52.194l0.004-0.008c0.404-0.802,1.336-1.157,2.191-0.726     c0.436,0.22,0.657,0.493,0.807,0.807c0.032,0.066,0.042,0.158-0.003,0.247c-0.069,0.137-0.231,0.187-0.368,0.118     c-0.069-0.035-0.105-0.083-0.125-0.123c-0.114-0.255-0.275-0.458-0.545-0.595c-0.537-0.271-1.155-0.025-1.434,0.527l-0.004,0.008     c-0.279,0.552-0.113,1.197,0.427,1.47c0.298,0.15,0.549,0.155,0.842,0.086c0.053-0.014,0.117-0.012,0.178,0.019     c0.125,0.062,0.181,0.223,0.118,0.348c-0.039,0.077-0.105,0.119-0.17,0.137c-0.384,0.1-0.76,0.093-1.215-0.137     C53.697,53.955,53.407,53.004,53.816,52.194z" style="fill:#FCF6C2;"/><path d="M56.212,54.758l2.229-1.81c0.119-0.097,0.259-0.123,0.4-0.051l0.024,0.013     c0.141,0.071,0.199,0.196,0.193,0.35l-0.131,2.868c0.002,0.046-0.009,0.086-0.025,0.119c-0.067,0.133-0.221,0.187-0.354,0.12     c-0.117-0.059-0.163-0.168-0.155-0.295l0.037-0.644l-1.371-0.691l-0.512,0.424c-0.092,0.08-0.205,0.094-0.31,0.041     c-0.129-0.064-0.179-0.217-0.114-0.346C56.142,54.818,56.172,54.788,56.212,54.758z M58.462,54.891l0.079-1.391l-1.071,0.891     L58.462,54.891z" style="fill:#FCF6C2;"/><path d="M60.628,54.162c0.071-0.141,0.234-0.195,0.375-0.124l1.009,0.509     c0.354,0.179,0.58,0.424,0.672,0.693c0.072,0.229,0.05,0.481-0.074,0.727l-0.004,0.008c-0.228,0.452-0.628,0.594-1.066,0.52     l0.196,0.954c0.018,0.085,0.024,0.153-0.015,0.23c-0.069,0.137-0.233,0.171-0.354,0.109c-0.113-0.057-0.159-0.146-0.176-0.251     l-0.245-1.221l-0.625-0.315l-0.382,0.758c-0.069,0.137-0.232,0.191-0.37,0.122c-0.141-0.071-0.194-0.235-0.125-0.372     L60.628,54.162z M61.271,55.928c0.354,0.179,0.674,0.107,0.819-0.179l0.004-0.008c0.152-0.303,0.018-0.578-0.349-0.763     l-0.722-0.364l-0.478,0.947L61.271,55.928z" style="fill:#FCF6C2;"/><path d="M63.546,55.634c0.071-0.142,0.234-0.195,0.376-0.124l0.802,0.404     c0.887,0.448,1.193,1.366,0.793,2.16l-0.004,0.008c-0.401,0.795-1.325,1.103-2.212,0.655l-0.802-0.405     c-0.142-0.071-0.195-0.234-0.124-0.376L63.546,55.634z M63.528,58.285c0.593,0.299,1.182,0.096,1.46-0.457l0.004-0.008     c0.278-0.553,0.097-1.155-0.497-1.454l-0.557-0.281l-0.968,1.92L63.528,58.285z" style="fill:#FCF6C2;"/></g><path d="M75,81c0,1.105-0.895,2-2,2H25c-1.105,0-2-0.895-2-2V53c0-1.105,0.895-2,2-2h48    c1.105,0,2,0.895,2,2V81z" style="fill:#FFFFFF;"/><rect height="8" style="fill:#3E3E3F;" width="52" x="23" y="59"/><path d="M35.795,80.224c-0.936,0-1.769-0.413-2.338-1.06c0.483-0.554,0.779-1.271,0.779-2.058    c0-0.787-0.296-1.504-0.779-2.058c0.569-0.647,1.403-1.06,2.338-1.06c1.723,0,3.118,1.395,3.118,3.118    C38.913,78.829,37.518,80.224,35.795,80.224z" style="fill:#FACB1B;"/><path d="M33.457,79.164c-0.483-0.554-0.779-1.271-0.779-2.058c0-0.787,0.296-1.504,0.779-2.058    c0.483,0.554,0.779,1.271,0.779,2.058C34.236,77.894,33.94,78.611,33.457,79.164z" style="fill:#F99134;"/><path d="M31.118,80.224c-1.723,0-3.118-1.395-3.118-3.118c0-1.723,1.395-3.118,3.118-3.118    c0.936,0,1.769,0.413,2.338,1.06c-0.483,0.554-0.779,1.271-0.779,2.058c0,0.787,0.296,1.504,0.779,2.058    C32.888,79.811,32.054,80.224,31.118,80.224z" style="fill:#FA5655;"/><g><path d="M29.276,71.748V71.24c0-0.073,0.033-0.126,0.126-0.126c0.093,0,0.126,0.053,0.126,0.126v0.634     c0,0.091-0.061,0.126-0.126,0.126H28.41c-0.065,0-0.126-0.035-0.126-0.126c0-0.09,0.061-0.126,0.126-0.126h0.37v-1.455h-0.37     c-0.065,0-0.126-0.035-0.126-0.126c0-0.09,0.061-0.126,0.126-0.126h0.622v1.707H29.276z" style="fill:#3E3E3F;"/><path d="M30.349,71.748h0.866c0.065,0,0.126,0.036,0.126,0.126c0,0.091-0.061,0.126-0.126,0.126h-1.118     v-0.821c0-0.189,0.096-0.285,0.285-0.285h0.707v-0.602h-0.866c-0.065,0-0.126-0.035-0.126-0.126c0-0.09,0.061-0.126,0.126-0.126     h0.836c0.083,0,0.141,0.013,0.204,0.071c0.071,0.065,0.078,0.133,0.078,0.224v0.516c0,0.09-0.008,0.159-0.078,0.224     c-0.063,0.058-0.121,0.07-0.204,0.07h-0.71V71.748z" style="fill:#3E3E3F;"/><path d="M32.036,70.293c-0.065,0-0.126-0.035-0.126-0.126c0-0.09,0.061-0.126,0.126-0.126h0.866     c0.144,0,0.252,0.108,0.252,0.252v0.483c0,0.101-0.02,0.174-0.098,0.244c0.078,0.071,0.098,0.144,0.098,0.244v0.483     c0,0.144-0.108,0.252-0.252,0.252h-0.866c-0.065,0-0.126-0.035-0.126-0.126c0-0.09,0.061-0.126,0.126-0.126h0.866V71.33     c0-0.141-0.055-0.184-0.126-0.184h-0.493c-0.066,0-0.126-0.035-0.126-0.126c0-0.09,0.06-0.126,0.126-0.126h0.493     c0.071,0,0.126-0.042,0.126-0.184v-0.418H32.036z" style="fill:#3E3E3F;"/><path d="M34.589,71.109v-0.728c0-0.063,0.03-0.126,0.126-0.126c0.096,0,0.126,0.063,0.126,0.126v0.728     c0.065,0,0.126,0.035,0.126,0.126c0,0.09-0.061,0.125-0.126,0.125v0.514c0,0.081-0.035,0.126-0.126,0.126     c-0.091,0-0.126-0.045-0.126-0.126V71.36h-0.74v-1.193c0-0.063,0.03-0.126,0.126-0.126c0.095,0,0.126,0.063,0.126,0.126v0.942     H34.589z" style="fill:#3E3E3F;"/><path d="M37.85,70.895h0.463c0.081,0,0.141,0.013,0.201,0.071c0.071,0.065,0.078,0.126,0.078,0.214v0.539     c0,0.078-0.008,0.133-0.061,0.196C38.469,71.99,38.404,72,38.313,72h-0.559c-0.065,0-0.103-0.018-0.166-0.045l-0.096-0.042     c-0.068-0.03-0.144-0.053-0.144-0.141c0-0.065,0.055-0.126,0.121-0.126c0.03,0,0.053,0.007,0.081,0.02l0.076,0.033     c0.035,0.015,0.093,0.05,0.133,0.05h0.582v-0.602h-0.743v-1.105h0.869c0.065,0,0.126,0.036,0.126,0.126     c0,0.091-0.061,0.126-0.126,0.126H37.85V70.895z" style="fill:#3E3E3F;"/><path d="M39.414,71.109h0.841c0.126,0,0.151,0.053,0.151,0.168v0.564c0,0.118-0.051,0.159-0.164,0.159     h-0.916c-0.118,0-0.164-0.043-0.164-0.159v-1.674c0-0.058,0.02-0.126,0.108-0.126h0.151c0.065,0,0.118,0.061,0.118,0.126     c0,0.076-0.053,0.126-0.126,0.126V71.109z M39.414,71.36v0.388h0.74V71.36H39.414z" style="fill:#3E3E3F;"/><path d="M41.227,70.293c0,0.055-0.045,0.126-0.126,0.126s-0.126-0.071-0.126-0.126v-0.126     c0-0.055,0.045-0.126,0.126-0.126h1.118v0.73c0,0.088,0.002,0.098-0.068,0.159l-0.353,0.305c-0.065,0.058-0.07,0.062-0.07,0.151     v0.488c0,0.081-0.035,0.126-0.126,0.126s-0.126-0.045-0.126-0.126v-0.606c0-0.083,0.003-0.091,0.066-0.146l0.347-0.299     c0.083-0.073,0.078-0.07,0.078-0.181v-0.348H41.227z" style="fill:#3E3E3F;"/><path d="M43.654,70.041c0.085,0,0.126,0.061,0.126,0.126v0.728c0.078,0,0.139,0.028,0.184,0.071     c0.045,0.042,0.068,0.105,0.068,0.184v0.599c0,0.154-0.096,0.252-0.252,0.252h-0.74c-0.156,0-0.252-0.098-0.252-0.252v-0.599     c0-0.078,0.023-0.141,0.068-0.184c0.045-0.043,0.106-0.071,0.184-0.071v-0.728c0-0.065,0.04-0.126,0.126-0.126H43.654z      M43.78,71.748v-0.602h-0.74v0.602H43.78z M43.528,70.895v-0.602h-0.237v0.602H43.528z" style="fill:#3E3E3F;"/><path d="M47.406,70.938H46.54c-0.071,0-0.126-0.061-0.126-0.126v-0.645c0-0.065,0.055-0.126,0.126-0.126     h0.992c0.071,0,0.126,0.061,0.126,0.126v1.707c0,0.068-0.051,0.126-0.126,0.126h-0.126c-0.075,0-0.126-0.058-0.126-0.126     c0-0.076,0.053-0.126,0.126-0.126V70.938z M47.406,70.686v-0.393h-0.74v0.393H47.406z" style="fill:#3E3E3F;"/><path d="M49.093,70.041c0.085,0,0.126,0.061,0.126,0.126v0.728c0.078,0,0.139,0.028,0.184,0.071     c0.045,0.042,0.068,0.105,0.068,0.184v0.599c0,0.154-0.096,0.252-0.252,0.252h-0.74c-0.156,0-0.252-0.098-0.252-0.252v-0.599     c0-0.078,0.023-0.141,0.068-0.184c0.045-0.043,0.106-0.071,0.184-0.071v-0.728c0-0.065,0.04-0.126,0.126-0.126H49.093z      M49.219,71.748v-0.602h-0.74v0.602H49.219z M48.967,70.895v-0.602H48.73v0.602H48.967z" style="fill:#3E3E3F;"/><path d="M50.292,70.293c0,0.055-0.045,0.126-0.126,0.126s-0.126-0.071-0.126-0.126v-0.126     c0-0.055,0.045-0.126,0.126-0.126h1.118v0.73c0,0.088,0.002,0.098-0.068,0.159l-0.352,0.305     c-0.066,0.058-0.071,0.062-0.071,0.151v0.488c0,0.081-0.035,0.126-0.126,0.126s-0.126-0.045-0.126-0.126v-0.606     c0-0.083,0.002-0.091,0.065-0.146l0.347-0.299c0.083-0.073,0.078-0.07,0.078-0.181v-0.348H50.292z" style="fill:#3E3E3F;"/><path d="M52.104,71.109h0.841c0.126,0,0.151,0.053,0.151,0.168v0.564c0,0.118-0.051,0.159-0.164,0.159     h-0.916c-0.118,0-0.164-0.043-0.164-0.159v-1.674c0-0.058,0.02-0.126,0.108-0.126h0.151c0.065,0,0.118,0.061,0.118,0.126     c0,0.076-0.053,0.126-0.126,0.126V71.109z M52.104,71.36v0.388h0.74V71.36H52.104z" style="fill:#3E3E3F;"/><path d="M55.979,70.895h0.463c0.081,0,0.141,0.013,0.201,0.071c0.071,0.065,0.078,0.126,0.078,0.214v0.539     c0,0.078-0.008,0.133-0.061,0.196C56.599,71.99,56.533,72,56.443,72h-0.559c-0.066,0-0.103-0.018-0.166-0.045l-0.096-0.042     c-0.068-0.03-0.144-0.053-0.144-0.141c0-0.065,0.055-0.126,0.121-0.126c0.03,0,0.053,0.007,0.081,0.02l0.076,0.033     c0.035,0.015,0.093,0.05,0.133,0.05h0.582v-0.602h-0.743v-1.105h0.869c0.065,0,0.126,0.036,0.126,0.126     c0,0.091-0.061,0.126-0.126,0.126h-0.617V70.895z" style="fill:#3E3E3F;"/><path d="M58.157,71.109v-0.728c0-0.063,0.03-0.126,0.126-0.126c0.096,0,0.126,0.063,0.126,0.126v0.728     c0.065,0,0.126,0.035,0.126,0.126c0,0.09-0.061,0.125-0.126,0.125v0.514c0,0.081-0.035,0.126-0.126,0.126     c-0.091,0-0.126-0.045-0.126-0.126V71.36h-0.74v-1.193c0-0.063,0.03-0.126,0.126-0.126c0.095,0,0.126,0.063,0.126,0.126v0.942     H58.157z" style="fill:#3E3E3F;"/><path d="M59.23,70.293c-0.065,0-0.126-0.035-0.126-0.126c0-0.09,0.061-0.126,0.126-0.126h0.866     c0.144,0,0.252,0.108,0.252,0.252v0.483c0,0.101-0.02,0.174-0.098,0.244c0.078,0.071,0.098,0.144,0.098,0.244v0.483     c0,0.144-0.108,0.252-0.252,0.252H59.23c-0.065,0-0.126-0.035-0.126-0.126c0-0.09,0.061-0.126,0.126-0.126h0.866V71.33     c0-0.141-0.055-0.184-0.126-0.184h-0.493c-0.066,0-0.126-0.035-0.126-0.126c0-0.09,0.06-0.126,0.126-0.126h0.493     c0.071,0,0.126-0.042,0.126-0.184v-0.418H59.23z" style="fill:#3E3E3F;"/><path d="M61.169,71.748h0.866c0.065,0,0.126,0.036,0.126,0.126c0,0.091-0.061,0.126-0.126,0.126h-1.118     v-0.821c0-0.189,0.096-0.285,0.285-0.285h0.707v-0.602h-0.866c-0.065,0-0.126-0.035-0.126-0.126c0-0.09,0.061-0.126,0.126-0.126     h0.836c0.083,0,0.141,0.013,0.204,0.071c0.071,0.065,0.078,0.133,0.078,0.224v0.516c0,0.09-0.008,0.159-0.078,0.224     c-0.063,0.058-0.121,0.07-0.204,0.07h-0.71V71.748z" style="fill:#3E3E3F;"/></g><g><path d="M60.665,78.959H56.05c-0.387,0-0.691-0.111-0.903-0.329c-0.395-0.407-0.376-1.065-0.36-1.646     c0.008-0.291,0.02-0.69-0.068-0.78c-0.004-0.004-0.014-0.014-0.054-0.014c-0.26,0-0.371,0.658-0.46,1.187     c-0.125,0.742-0.267,1.583-0.924,1.583c-0.271,0-0.476-0.087-0.609-0.259c-0.289-0.373-0.124-1.009,0.035-1.624     c0.076-0.295,0.204-0.789,0.136-0.891c-0.236,0.004-0.364,0.426-0.5,0.872c-0.244,0.802-0.579,1.901-1.832,1.901     c-0.533,0-0.936-0.246-1.199-0.601c-0.661,0.357-1.392,0.601-2.032,0.601c-1.208,0-1.748-0.746-1.748-1.484     c0-0.944,0.827-1.92,2.21-1.92c0.127,0,0.231,0.103,0.231,0.231s-0.103,0.231-0.231,0.231c-1.094,0-1.748,0.741-1.748,1.458     c0,0.494,0.338,1.023,1.287,1.023c0.59,0,1.236-0.224,1.813-0.538c-0.091-0.229-0.137-0.476-0.137-0.72     c0-0.412,0.129-0.794,0.364-1.074c0.272-0.326,0.665-0.498,1.135-0.498c0.258,0,0.453,0.046,0.597,0.139     c0.162,0.105,0.251,0.27,0.251,0.465c0,0.53-0.689,1.279-1.591,1.852c0.183,0.225,0.451,0.373,0.8,0.373     c0.845,0,1.109-0.652,1.39-1.574c0.179-0.588,0.364-1.195,0.918-1.195c0.209,0,0.327,0.096,0.389,0.176     c0.209,0.269,0.087,0.742-0.055,1.288c-0.112,0.435-0.267,1.032-0.117,1.226c0.015,0.02,0.062,0.08,0.244,0.08     c0.268,0,0.38-0.664,0.469-1.198c0.124-0.737,0.265-1.572,0.915-1.572c0.195,0,0.317,0.084,0.385,0.154     c0.224,0.23,0.212,0.64,0.198,1.115c-0.014,0.49-0.03,1.045,0.229,1.311c0.123,0.127,0.31,0.189,0.572,0.189h4.616     c0.127,0,0.231,0.103,0.231,0.231S60.793,78.959,60.665,78.959z M50.454,76.13c-0.334,0-0.596,0.112-0.781,0.332     c-0.165,0.198-0.256,0.474-0.256,0.778c0,0.164,0.026,0.328,0.077,0.481c0.775-0.501,1.347-1.12,1.347-1.449     c0-0.039-0.01-0.057-0.041-0.078C50.762,76.17,50.668,76.13,50.454,76.13z" style="fill:#5B5C5F;"/></g></g></g></svg>