<?xml version="1.0" ?><!DOCTYPE svg  PUBLIC '-//W3C//DTD SVG 1.1//EN'  'http://www.w3.org/Graphics/SVG/1.1/DTD/svg11.dtd'><svg enable-background="new 0 0 600 600" height="600px" id="Calque_1" version="1.1" viewBox="0 0 600 600" width="600px" xml:space="preserve" xmlns="http://www.w3.org/2000/svg" xmlns:xlink="http://www.w3.org/1999/xlink"><circle cx="300" cy="300" fill="#F3726E" r="300"/><g><path d="M143.839,301.377c-18.663,0.053-34.509-15.381-34.106-33.977c0.435-19.881,14.896-33.54,32.648-33.736   c18.903-0.212,34.802,12.331,35.235,33.767C177.989,285.863,162.232,301.324,143.839,301.377z" fill="#1C3F4C"/><g><path d="M384.162,165.518c-7.684-1.148-18.542,1.416-32.573,7.689l-19.092-25.111    c6.182-1.863,11.763-0.701,16.745,3.482l17.227-16.441c-6.173-5.441-13.048-8.304-20.628-8.586    c-7.58-0.285-15.627,2.164-24.138,7.353l-4.832-6.359l-10.797,8.21l4.834,6.357c-7.98,7.221-12.73,15.169-14.234,23.851    c-1.51,8.679,0.406,16.527,5.744,23.549c5.274,6.938,12.032,11.109,20.267,12.515c8.235,1.406,18.13-0.391,29.681-5.391    l20.459,26.912c-3.523,0.924-7.324,0.974-11.394,0.152c-4.075-0.824-7.808-2.646-11.209-5.467l-18.063,16.572    c7.903,7.304,16.29,11.228,25.168,11.777c8.875,0.549,17.949-1.993,27.222-7.623l8.885,11.689l10.797-8.21l-9.133-12.008    c8.77-8.555,13.854-17.556,15.249-26.999c1.397-9.441-0.851-18.037-6.739-25.79C398.332,170.708,391.851,166.667,384.162,165.518z     M327.639,179.106c-3.069-0.74-5.465-2.245-7.192-4.515c-1.886-2.482-2.742-5.413-2.569-8.79c0.176-3.378,1.4-6.606,3.678-9.687    l16.896,22.221C334.313,179.589,330.708,179.848,327.639,179.106z M389.998,204.868c-0.527,4.15-2.422,7.94-5.693,11.37    l-19.043-25.048c5.314-2.282,9.742-3.129,13.279-2.544c3.542,0.585,6.399,2.315,8.584,5.183    C389.563,197.038,390.521,200.719,389.998,204.868z" fill="#012734"/><path d="M317.877,165.802c-0.173,3.377,0.684,6.308,2.569,8.79c1.728,2.27,4.123,3.774,7.192,4.515    c3.069,0.742,6.674,0.483,10.813-0.771l-16.896-22.221C319.277,159.196,318.053,162.424,317.877,165.802z" fill="#147589"/><path d="M378.541,188.645c-3.537-0.584-7.965,0.263-13.279,2.544l19.043,25.048    c3.271-3.43,5.166-7.219,5.693-11.37c0.523-4.149-0.436-7.831-2.873-11.041C384.94,190.96,382.083,189.23,378.541,188.645z" fill="#147589"/><path d="M439.633,124.864c-35.555-46.763-102.282-55.845-149.044-20.292    c-46.758,35.553-55.843,102.282-20.291,149.041c35.553,46.761,102.283,55.846,149.045,20.291    C466.102,238.352,475.186,171.625,439.633,124.864z M410.347,203.431c-1.395,9.443-6.479,18.444-15.249,26.999l9.133,12.008    l-10.797,8.21l-8.885-11.689c-9.272,5.63-18.347,8.172-27.222,7.623c-8.878-0.549-17.265-4.473-25.168-11.777l18.063-16.572    c3.401,2.821,7.134,4.643,11.209,5.467c4.069,0.822,7.87,0.772,11.394-0.152l-20.459-26.912c-11.551,5-21.445,6.797-29.681,5.391    c-8.234-1.406-14.992-5.578-20.267-12.515c-5.338-7.022-7.254-14.871-5.744-23.549c1.504-8.682,6.254-16.63,14.234-23.851    l-4.834-6.357l10.797-8.21l4.832,6.359c8.511-5.189,16.558-7.638,24.138-7.353c7.58,0.282,14.455,3.145,20.628,8.586    l-17.227,16.441c-4.982-4.183-10.563-5.345-16.745-3.482l19.092,25.111c14.031-6.273,24.89-8.837,32.573-7.689    c7.688,1.148,14.17,5.19,19.445,12.123C409.496,185.394,411.744,193.99,410.347,203.431z" fill="#147589"/></g><g><path d="M462.126,290.346c-1.69,0-3.35-0.33-4.921-0.979l-16.845-6.94c-6.588-2.717-9.737-10.284-7.022-16.869    c2.004-4.862,6.692-8.003,11.948-8.003c1.691,0,3.347,0.33,4.921,0.979l16.839,6.941c6.593,2.716,9.742,10.284,7.028,16.868    C472.07,287.205,467.381,290.346,462.126,290.346z M445.286,263.357c-2.896,0-5.481,1.732-6.586,4.41    c-1.496,3.63,0.243,7.799,3.871,9.292l16.845,6.946c0.867,0.355,1.777,0.54,2.71,0.54c2.895,0,5.481-1.733,6.583-4.411    c1.497-3.633-0.24-7.799-3.868-9.297l-16.845-6.94C447.127,263.54,446.215,263.357,445.286,263.357z"/><path d="M403.176,452.327c-4.017,0-7.737-1.817-10.201-4.986c-4.377-5.624-3.36-13.754,2.261-18.132l14.377-11.192    c2.29-1.78,5.032-2.724,7.931-2.724c4.018,0,7.734,1.819,10.202,4.988c4.372,5.62,3.362,13.756-2.264,18.134l-14.373,11.187    C408.813,451.387,406.073,452.327,403.176,452.327z M417.543,421.096c-1.596,0-3.104,0.521-4.368,1.501l-14.376,11.188    c-3.1,2.415-3.658,6.895-1.247,9.994c1.359,1.746,3.408,2.748,5.624,2.748c1.594,0,3.105-0.52,4.367-1.501l14.375-11.189    c3.099-2.411,3.66-6.894,1.248-9.993C421.808,422.097,419.758,421.096,417.543,421.096z"/><path d="M425.525,432.341c-1.037,0-2.074-0.124-3.088-0.371c-6.918-1.701-11.168-8.71-9.473-15.629l4.337-17.692    c1.421-5.8,6.576-9.852,12.538-9.852c1.037,0,2.074,0.129,3.087,0.376c6.918,1.694,11.167,8.703,9.473,15.628l-4.337,17.69    C436.643,428.293,431.487,432.341,425.525,432.341z M429.84,394.601c-3.279,0-6.12,2.23-6.902,5.425l-4.34,17.693    c-0.935,3.816,1.41,7.676,5.222,8.61c0.561,0.14,1.134,0.21,1.706,0.21c3.278,0,6.122-2.232,6.904-5.428l4.337-17.693    c0.932-3.811-1.407-7.676-5.222-8.61C430.982,394.67,430.409,394.601,429.84,394.601z"/><path d="M439.036,406.977c-3.224,0-6.314-1.194-8.698-3.374c-2.552-2.325-4.045-5.502-4.206-8.951    c-0.159-3.446,1.031-6.751,3.358-9.301l12.27-13.463c2.446-2.683,5.929-4.222,9.554-4.222c3.225,0,6.315,1.197,8.701,3.375    c2.552,2.324,4.044,5.501,4.206,8.946c0.158,3.45-1.035,6.758-3.358,9.306l-12.275,13.461    C446.147,405.437,442.666,406.977,439.036,406.977z M451.314,373.469c-2,0-3.917,0.85-5.267,2.324l-12.27,13.466    c-1.282,1.407-1.94,3.225-1.852,5.128c0.088,1.898,0.912,3.648,2.317,4.93c1.313,1.197,3.017,1.855,4.792,1.855    c2.001,0,3.919-0.846,5.265-2.322l12.276-13.464c1.278-1.404,1.937-3.228,1.849-5.127c-0.09-1.898-0.914-3.649-2.318-4.933    C454.793,374.127,453.094,373.469,451.314,373.469z"/><path d="M462.118,391.635c-2.019,0-3.964-0.459-5.777-1.369c-3.086-1.547-5.387-4.2-6.476-7.472    c-1.091-3.279-0.838-6.781,0.708-9.867l8.16-16.289c2.203-4.402,6.637-7.136,11.56-7.136c2.021,0,3.963,0.457,5.779,1.366    c6.372,3.193,8.957,10.972,5.766,17.346l-8.159,16.283C471.474,388.901,467.044,391.635,462.118,391.635z M470.293,355.303    c-2.714,0-5.156,1.505-6.37,3.932l-8.159,16.289c-0.855,1.701-0.991,3.631-0.393,5.436c0.6,1.806,1.866,3.266,3.567,4.121    c1.002,0.501,2.072,0.755,3.18,0.755c2.717,0,5.159-1.508,6.372-3.936l8.161-16.285c1.758-3.511,0.334-7.798-3.179-9.557    C472.472,355.556,471.403,355.303,470.293,355.303z"/><path d="M472.24,365.152c-5.515,0-10.426-3.508-12.219-8.732l-5.918-17.229c-1.12-3.261-0.905-6.766,0.611-9.866    c1.515-3.104,4.149-5.43,7.411-6.549c1.358-0.469,2.771-0.707,4.199-0.707c5.515,0,10.427,3.508,12.217,8.731l5.919,17.229    c1.124,3.26,0.905,6.769-0.608,9.867c-1.515,3.103-4.146,5.428-7.412,6.548C475.082,364.913,473.669,365.152,472.24,365.152z     M466.325,327.871c-0.784,0-1.561,0.134-2.315,0.392c-1.799,0.62-3.248,1.899-4.081,3.607c-0.837,1.708-0.954,3.639-0.339,5.439    l5.92,17.229c0.99,2.879,3.691,4.81,6.73,4.81c0.787,0,1.565-0.132,2.317-0.389c1.796-0.618,3.25-1.897,4.085-3.607    c0.831-1.705,0.953-3.64,0.336-5.438l-5.919-17.229C472.066,329.807,469.363,327.871,466.325,327.871z"/><path d="M463.718,338.751c-2.871,0-5.595-0.927-7.875-2.687c-5.647-4.345-6.704-12.475-2.356-18.119l11.116-14.433    c2.467-3.204,6.2-5.038,10.246-5.038c2.87,0,5.594,0.929,7.874,2.682c5.648,4.346,6.703,12.477,2.356,18.121l-11.115,14.438    C471.496,336.914,467.766,338.751,463.718,338.751z M474.849,304.277c-2.233,0-4.291,1.011-5.649,2.772l-11.116,14.438    c-2.393,3.11-1.811,7.589,1.297,9.985c1.257,0.965,2.758,1.478,4.338,1.478c2.231,0,4.289-1.014,5.647-2.778l11.116-14.432    c2.393-3.111,1.813-7.589-1.297-9.986C477.927,304.785,476.43,304.277,474.849,304.277z"/><path d="M477.355,315.139c-4.63,0-8.937-2.498-11.229-6.521l-9.029-15.825c-3.529-6.188-1.369-14.094,4.821-17.625    c1.948-1.113,4.158-1.699,6.394-1.699c4.633,0,8.938,2.498,11.232,6.517l9.026,15.824c1.711,2.997,2.151,6.485,1.241,9.813    c-0.909,3.332-3.063,6.105-6.061,7.817C481.801,314.55,479.59,315.139,477.355,315.139z M468.311,279.27    c-1.225,0-2.443,0.323-3.515,0.938c-3.412,1.947-4.604,6.3-2.656,9.713l9.025,15.823c1.266,2.217,3.636,3.592,6.19,3.592    c1.23,0,2.447-0.322,3.521-0.938c1.651-0.939,2.839-2.47,3.338-4.303c0.503-1.836,0.261-3.753-0.682-5.405l-9.03-15.825    C473.24,280.646,470.87,279.27,468.311,279.27z"/><path d="M436.428,273.954c-3.219,3.221-8.44,3.221-11.659,0l0,0c-3.222-3.22-3.222-8.44,0-11.661l11.118-11.123    c3.223-3.217,8.443-3.217,11.666,0l0,0c3.217,3.223,3.217,8.442,0,11.662L436.428,273.954z"/><path d="M402.396,446.473c2.588,1.891,3.153,5.521,1.263,8.107l-27.563,37.737c-1.891,2.592-5.519,3.156-8.109,1.265l-8.586-6.274    c-2.585-1.887-3.155-5.519-1.265-8.103l27.564-37.742c1.891-2.585,5.522-3.154,8.106-1.265L402.396,446.473z"/></g><path d="M376.475,439.089c-12.408-7.833-22.69-17.239-30.837-29.728c-16.298-24.978-33.544-49.353-55.284-70.113   c-3.761-3.592-7.274-7.442-10.9-11.176c19.12,5.475,37.885,11.415,56.667,17.288c5.269,1.646,10.515,3.743,15.927,4.504   c10.224,1.438,19.995-5.769,22.218-15.555c2.391-10.551-3.045-20.585-13.364-24.219c-6.338-2.233-12.797-4.129-19.211-6.149   c-42.415-13.378-84.824-26.769-127.265-40.063c-2.715-0.851-5.727-1.513-8.511-1.263c-10.026,0.891-16.675,6.625-20.074,15.867   c-3.396,9.241-1.952,17.714,5.137,24.989c17.967,18.433,35.843,36.947,53.812,55.377c4.932,5.059,10.066,9.924,15.672,15.435   c-10.34,2.966-19.756,5.653-29.165,8.368c-8.874,2.563-17.665,5.444-26.625,7.646c-10.923,2.68-16.278,9.789-18.156,20.403   c-4.23,23.92-8.582,47.819-12.925,71.72c-2.591,14.264,7.612,26.239,21.943,25.688c10.171-0.392,17.993-8.452,19.958-19.989   c3.292-19.324,6.794-38.616,10.367-57.892c0.218-1.182,1.664-2.698,2.837-3.048c20.847-6.19,41.739-12.212,62.614-18.311   c1.859-0.543,2.903-0.21,4.094,1.547c7.068,10.372,14.245,20.675,21.558,30.874c4.064,5.667,7.477,12.457,12.895,16.375   c8.392,6.075,16.901,11.997,25.455,17.848l24.865-34.048C378.94,440.672,377.714,439.875,376.475,439.089z" fill="#1C3F4C"/><path d="M415.145,465.245c-3.059-2.084-6.109-4.187-9.154-6.293l-24.836,34.005c3.905,2.621,7.81,5.233,11.71,7.86   c4.468,3.011,9.638,3.712,14.923,2.539c8.903-1.985,14.679-7.609,16.343-16.39C425.805,478.132,422.889,470.515,415.145,465.245z" fill="#1C3F4C"/></g></svg>