<?xml version="1.0" ?><!DOCTYPE svg  PUBLIC '-//W3C//DTD SVG 1.1//EN'  'http://www.w3.org/Graphics/SVG/1.1/DTD/svg11.dtd'><svg enable-background="new 0 0 128 128" id="Layer_1" version="1.1" viewBox="0 0 128 128" xml:space="preserve" xmlns="http://www.w3.org/2000/svg" xmlns:xlink="http://www.w3.org/1999/xlink"><g><circle cx="64" cy="64" fill="#00AFC0" r="63.5"/><g><polygon fill="#F4866E" points="88.3,97.2 88.3,62.3 88.2,62.3 59,35.8 29.8,62.3 29.6,62.3 29.6,97.2   "/><polygon fill="#474F5A" points="29.4,62.7 59,35.8 88.5,62.7 101.6,62.7 59,22.7 16.3,62.7   "/><g><path d="M90,34.3c-12,0-21.7,8.5-21.7,18.9c0,5.3,2.5,10,6.4,13.4l-4.3,11.1l10.3-7.5c2.8,1.2,6,1.8,9.3,1.8     c12,0,21.7-8.5,21.7-18.9C111.7,42.7,102,34.3,90,34.3z" fill="#F3D97F"/><g><path d="M90.7,60.6v2.3h-1.5v-2.2c-1.4,0-2.7-0.3-4-1v-2.9c0.4,0.3,1,0.6,1.8,0.9c0.8,0.3,1.5,0.4,2.1,0.5v-3.8      c-1.6-0.6-2.7-1.3-3.3-2c-0.6-0.7-0.9-1.6-0.9-2.6c0-1.1,0.4-2,1.2-2.8c0.8-0.8,1.8-1.2,3.1-1.3v-1.9h1.5v1.9      c1.5,0.1,2.6,0.3,3.3,0.7v2.8c-1-0.6-2.1-1-3.3-1.1v4c1.5,0.6,2.6,1.2,3.3,1.9c0.7,0.7,1,1.6,1,2.6c0,1.2-0.4,2.1-1.1,2.8      C93.2,60.1,92.1,60.5,90.7,60.6z M89.2,51.5v-3.3c-1,0.2-1.5,0.7-1.5,1.5C87.8,50.4,88.3,51,89.2,51.5z M90.7,55v3.2      c1-0.2,1.5-0.7,1.5-1.5C92.2,56,91.7,55.5,90.7,55z" fill="#474F5A"/></g></g></g></g></svg>