<?xml version="1.0" ?><svg height="90px" id="Layer_1" style="enable-background:new 0 0 90 90;" version="1.1" viewBox="0 0 90 90" width="90px" xml:space="preserve" xmlns="http://www.w3.org/2000/svg" xmlns:xlink="http://www.w3.org/1999/xlink"><style type="text/css">
	.st0{fill:#DAE3E6;}
	.st1{fill:#3873C4;}
	.st2{fill:#FFCC00;}
	.st3{fill:#232E38;}
	.st4{fill:#E3EFFF;}
	.st5{fill:#29528C;}
	.st6{fill:#FFFFFF;}
	.st7{fill:#FFE785;}
	.st8{fill:#F2C200;}
	.st9{fill:#FFEEA8;}
	.st10{fill:#3D322A;}
	.st11{fill:#DBE3EB;}
	.st12{fill:#A6ACB3;}
	.st13{fill:#E89600;}
	.st14{fill:#A6734E;}
	.st15{fill:#EFEAE1;}
	.st16{fill:#2497FF;}
	.st17{fill:#F24444;}
	.st18{fill:#A63241;}
	.st19{fill:#8BB6BA;}
	.st20{fill:#6C939E;}
	.st21{fill:#597982;}
	.st22{fill:#233F5C;}
	.st23{fill:#9DBEC9;}
	.st24{opacity:0.1;fill:#3C2415;}
	.st25{opacity:0.2;fill:#3C2415;}
	.st26{fill:#6A727D;}
	.st27{fill:#27B51F;}
	.st28{opacity:0.5;fill:#E89600;}
	.st29{fill:#AD723E;}
	.st30{fill-rule:evenodd;clip-rule:evenodd;fill:#965344;}
	.st31{fill-rule:evenodd;clip-rule:evenodd;fill:#BF704E;}
	.st32{fill-rule:evenodd;clip-rule:evenodd;fill:#DE9C64;}
	.st33{fill:none;}
	.st34{opacity:0.1;fill:#3C081F;}
	.st35{fill:#78DE38;}
	.st36{fill:#5CC427;}
	.st37{fill:#F05970;}
	.st38{fill:#C2DCDE;}
	.st39{fill:#DFF4F5;}
	.st40{fill:#56B51F;}
	.st41{fill:#FA5252;}
	.st42{fill:#46962B;}
	.st43{fill:#FFDE5C;}
	.st44{opacity:0.3;fill:#2D3B66;}
	.st45{fill:#887CF7;}
	.st46{fill:#506F9C;}
	.st47{opacity:0.7;fill:#A63241;}
	.st48{fill:#1C9622;}
	.st49{opacity:0.3;fill:#369C15;}
	.st50{fill:#FF9021;}
	.st51{fill:#FFD733;}
	.st52{fill:#BAC3D4;}
	.st53{fill:#CC6008;}
	.st54{opacity:0.3;fill:#CC4908;}
	.st55{fill:#FFDEDE;}
	.st56{fill:#FFF000;}
	.st57{fill:#169C0E;}
	.st58{fill:#8C4205;}
	.st59{fill:#875427;}
	.st60{fill:#FF7733;}
	.st61{opacity:0.3;fill:#A83C07;}
	.st62{fill:#D98C00;}
	.st63{fill:#FFEB0A;}
	.st64{fill:#8A2936;}
	.st65{opacity:0.4;fill:#CC4908;}
	.st66{fill:#F0EFD2;}
	.st67{fill:#FFEEAB;}
	.st68{fill:#FF6666;}
	.st69{fill:#E0ECFF;}
	.st70{fill:#E45544;}
	.st71{fill:#5E98F0;}
	.st72{fill:#E6E6E6;}
	.st73{fill:#A6AAB0;}
	.st74{fill:#1A9AEB;}
	.st75{fill:#188CD9;}
	.st76{fill:#F0F5FF;}
	.st77{fill:#7951E6;}
	.st78{fill:#6237BD;}
	.st79{fill:#E0E4FF;}
	.st80{fill:#127BC2;}
	.st81{fill:#E0F5FF;}
	.st82{fill:#2D61A8;}
	.st83{fill:#DBDFE8;}
	.st84{fill:#B7DBEB;}
	.st85{fill:#C9EBFF;}
	.st86{fill:#99CAE0;}
	.st87{fill:#F26666;}
	.st88{fill-rule:evenodd;clip-rule:evenodd;fill:#CCECFF;}
	.st89{fill-rule:evenodd;clip-rule:evenodd;fill:#99CAE0;}
	.st90{fill-rule:evenodd;clip-rule:evenodd;fill:#E5F7FF;}
	.st91{fill-rule:evenodd;clip-rule:evenodd;fill:#B5DBFF;}
	.st92{fill-rule:evenodd;clip-rule:evenodd;fill:#91BBCF;}
	.st93{fill-rule:evenodd;clip-rule:evenodd;fill:#D4EAFF;}
	.st94{fill-rule:evenodd;clip-rule:evenodd;fill:#B5D8E8;}
	.st95{fill-rule:evenodd;clip-rule:evenodd;fill:#EDFAFF;}
	.st96{fill-rule:evenodd;clip-rule:evenodd;fill:#FFFFFF;}
	.st97{opacity:0.5;fill:#BDEFFF;}
	.st98{opacity:0.5;}
	.st99{fill:#BDEFFF;}
	.st100{fill-rule:evenodd;clip-rule:evenodd;fill:#A9D8F5;}
	.st101{fill-rule:evenodd;clip-rule:evenodd;fill:#3873C4;}
	.st102{fill-rule:evenodd;clip-rule:evenodd;fill:#C9EBFF;}
	.st103{fill-rule:evenodd;clip-rule:evenodd;fill:#E3F6FF;}
	.st104{fill-rule:evenodd;clip-rule:evenodd;fill:#87D0FF;}
	.st105{fill:#A9D8F5;}
	.st106{fill:#94633A;}
	.st107{fill:#88B3C7;}
	.st108{fill:#5E402B;}
	.st109{fill:#FFDD00;}
	.st110{fill:#E08A09;}
	.st111{fill:#7FEB3B;}
	.st112{fill:#CF9765;}
	.st113{fill:#AB794F;}
	.st114{fill:#8FC3FF;}
	.st115{fill:#166EE8;}
	.st116{fill:#CCECFF;}
	.st117{fill:#F2FBFF;}
	.st118{opacity:0.6;fill:#D0E8F2;}
	.st119{fill:#FF427E;}
	.st120{fill:#FF9121;}
	.st121{fill:#E6DE00;}
	.st122{fill:#E8F7FF;}
	.st123{fill:#FFCC00;stroke:#383128;stroke-width:2;stroke-linecap:round;stroke-linejoin:round;stroke-miterlimit:10;}
	.st124{fill:#81D4EF;}
	.st125{fill:#C3DEEB;}
</style><circle class="st16" cx="45" cy="45" r="45"/><path class="st88" d="M42.9264908,49.1016655l-3.034771,8.7630081l-2.96418,8.5570717  c-0.2669563,0.7704163,0.4164467,1.5341721,1.2117043,1.3542252l0.7111588-0.1609192  c1.3853073-0.31353,2.6220627-1.0903854,3.5057831-2.2020874l8.3284836-10.4762955l6.7955513-8.373333L42.9264908,49.1016655z"/><path class="st89" d="M40.9913521,54.6893997c3.9301071-1.0458946,8.3862762-2.2351875,12.6340103-3.376194l3.8548584-4.7498741  l-14.55373,2.5383492L40.9913521,54.6893997z"/><path class="st90" d="M40.6025658,43.118103l-8.9116402-15.3213902c-0.3606052-0.6197205-0.0485764-1.4137421,0.637394-1.6223907  l1.0514717-0.3196983c1.6868629-0.5130062,3.5170135-0.1953087,4.9321976,0.8563824L55.1936302,39.2556L40.6025658,43.118103z"/><path class="st96" d="M54.1664314,38.9777565c0,0,4.8286171-1.2804184,10.6487617-2.7791405  c6.2328415-1.6050682,9.380188-0.3290176,9.9414444,1.6129684c0.5590744,1.9343987-1.0684509,4.7670784-7.705574,6.6231956  C56.9675064,47.254776,29.2130184,54.5895462,29.2130184,54.5895462c-3.3392487,0.9059677-6.8905678-0.3502274-8.9174862-3.1543159  l-5.2393436-7.2482796c-0.4116631-0.5694656-0.1515665-1.3747025,0.5154095-1.5958138l0.3395185-0.1124802  c0.5903616-0.1956444,1.2373781-0.1167412,1.7633924,0.2150841l5.2476597,3.3104515  c1.0405922,0.6565819,2.3103008,0.8427658,3.4955978,0.5127106l14.1033974-3.9270134L54.1664314,38.9777565z"/><g><path class="st1" d="M33.5167122,47.4881668c-0.1629372-0.5507393-0.7436256-0.8624039-1.2923317-0.7014961   c-0.5502338,0.1629372-0.8644333,0.7415962-0.7014961,1.2923355l0.1873016,0.6324615   c0.1340046,0.4517593,0.5476952,0.7446404,0.9964066,0.7446404c0.0979652,0,0.1974564-0.0142136,0.295929-0.0431442   c0.5502319-0.1629372,0.8644333-0.7415962,0.7014923-1.2923355L33.5167122,47.4881668z"/><path class="st1" d="M62.986599,40.2275429l-0.1873016-0.6319542c-0.1629372-0.5507393-0.7421036-0.8624001-1.2923317-0.7014961   c-0.5502319,0.1634483-0.8644333,0.7421036-0.7014961,1.2923355l0.1873016,0.6319542   c0.1340065,0.4517593,0.5482025,0.7446404,0.9964066,0.7446404c0.0979652,0,0.1974525-0.0142136,0.295929-0.0431442   C62.8353386,41.3564339,63.1495361,40.7777748,62.986599,40.2275429z"/><path class="st1" d="M57.9187813,40.9107666c-0.1634445-0.5502319-0.7431145-0.8618965-1.2923317-0.7014961   c-0.5502319,0.1629372-0.8644333,0.7415924-0.7014961,1.2923355l0.1873016,0.6324615   c0.1340065,0.4517555,0.5476952,0.7446404,0.9964066,0.7446404c0.0979652,0,0.1974564-0.0142136,0.295929-0.043148   c0.5502319-0.1629372,0.8644333-0.7415924,0.7014923-1.2923317L57.9187813,40.9107666z"/><path class="st1" d="M53.0377579,42.2259407c-0.1634445-0.5502319-0.7436218-0.8639259-1.2923317-0.7004814   c-0.5507393,0.1634483-0.8639259,0.7421036-0.7004814,1.2923355l0.187809,0.6319542   c0.1340065,0.4517593,0.5476952,0.744133,0.995903,0.744133c0.0979652,0,0.1979599-0.0142136,0.2964325-0.0436516   c0.5507393-0.1634483,0.8639259-0.7421036,0.7004814-1.2923355L53.0377579,42.2259407z"/><path class="st1" d="M48.1572456,43.5411148c-0.1634483-0.5507393-0.7446404-0.8659554-1.2923355-0.7004776   c-0.5502319,0.1634445-0.8639259,0.7421036-0.7004814,1.2923355l0.1878128,0.6324615   c0.1340027,0.4517555,0.5476913,0.744133,0.9958992,0.744133c0.0979652,0,0.1979599-0.0142136,0.2964325-0.0436554   c0.5502319-0.1634445,0.8639259-0.7420998,0.7004814-1.2923317L48.1572456,43.5411148z"/><path class="st1" d="M38.3962135,46.1719742c-0.1634445-0.5507393-0.744133-0.8649368-1.2923355-0.7004776   c-0.5502319,0.1634445-0.8639221,0.7421036-0.7004776,1.2923317l0.187809,0.6324654   c0.1340065,0.4517555,0.5476952,0.744133,0.9958992,0.744133c0.0979652,0,0.1979599-0.0142136,0.2964363-0.0436554   c0.5502319-0.1634445,0.8639221-0.7421036,0.7004776-1.2923317L38.3962135,46.1719742z"/><path class="st1" d="M43.2767296,44.8568001c-0.1629372-0.5507393-0.7431183-0.865448-1.2923355-0.7004814   c-0.5502319,0.1634483-0.8639259,0.7421036-0.7004776,1.2923355l0.187809,0.6324615   c0.1340027,0.4517593,0.5476913,0.744133,0.9958992,0.744133c0.0979652,0,0.1979599-0.0142136,0.2964325-0.0436516   c0.5502319-0.1634445,0.8639259-0.7421036,0.7004814-1.2923355L43.2767296,44.8568001z"/></g><path class="st104" d="M74.7566223,37.8115883c-0.5433121-1.8797493-3.5185089-3.1273499-9.3606644-1.7503128l1.0781326,4.1948853  l8.345665-2.1449013C74.8030701,38.0097389,74.784729,37.9087906,74.7566223,37.8115883z"/></svg>