<?xml version="1.0" ?><!DOCTYPE svg  PUBLIC '-//W3C//DTD SVG 1.1//EN'  'http://www.w3.org/Graphics/SVG/1.1/DTD/svg11.dtd'><svg enable-background="new -17.5 -17.5 100 100" height="100px" id="Layer_1" version="1.1" viewBox="-17.5 -17.5 100 100" width="100px" xml:space="preserve" xmlns="http://www.w3.org/2000/svg" xmlns:xlink="http://www.w3.org/1999/xlink"><circle cx="32.5" cy="32.5" fill="#EE2D61" r="50"/><g><path d="   M19.193,29.902c0.003,0.053,0.007,0.106,0.016,0.159c0.008,0.048,0.02,0.095,0.033,0.142c0.012,0.046,0.025,0.091,0.042,0.136   c0.018,0.047,0.039,0.092,0.061,0.137c0.021,0.042,0.042,0.083,0.067,0.124c0.026,0.041,0.054,0.08,0.083,0.119   c0.029,0.039,0.06,0.076,0.093,0.112c0.033,0.036,0.068,0.068,0.105,0.101c0.036,0.032,0.071,0.063,0.11,0.091   c0.043,0.032,0.089,0.059,0.136,0.086c0.026,0.015,0.048,0.034,0.076,0.048c0.012,0.006,0.025,0.008,0.038,0.014   c0.072,0.034,0.147,0.059,0.225,0.081c0.029,0.008,0.058,0.021,0.087,0.027c0.091,0.02,0.185,0.03,0.28,0.032   c0.014,0,0.027,0.005,0.041,0.005c0.001,0,0.002,0,0.003,0h23.628c0.002,0,0.004,0,0.004,0c0.015,0,0.027-0.004,0.041-0.005   c0.096-0.002,0.188-0.012,0.279-0.032c0.028-0.006,0.059-0.019,0.088-0.027c0.076-0.022,0.15-0.047,0.225-0.081   c0.013-0.006,0.025-0.007,0.038-0.014c0.026-0.014,0.051-0.033,0.077-0.049c0.045-0.026,0.091-0.053,0.133-0.084   c0.04-0.029,0.076-0.062,0.113-0.094c0.035-0.031,0.067-0.062,0.102-0.096c0.034-0.038,0.064-0.077,0.098-0.117   c0.026-0.037,0.055-0.074,0.078-0.114c0.025-0.042,0.049-0.084,0.069-0.128c0.021-0.043,0.042-0.086,0.06-0.132   c0.018-0.046,0.03-0.092,0.043-0.14c0.012-0.045,0.023-0.091,0.031-0.138c0.01-0.054,0.014-0.107,0.018-0.162   c0.002-0.03,0.008-0.058,0.008-0.087c0-0.015-0.004-0.029-0.004-0.043c-0.002-0.055-0.008-0.108-0.017-0.163   c-0.007-0.046-0.013-0.093-0.022-0.138c-0.008-0.045-0.024-0.088-0.041-0.133c-0.019-0.052-0.034-0.104-0.059-0.153   c-0.007-0.014-0.009-0.028-0.016-0.041l-3.672-7.347c-0.006-0.011-0.014-0.021-0.02-0.032c-0.003,0-0.003,0-0.003-0.001   c-0.143-0.268-0.354-0.476-0.602-0.611c-0.011-0.005-0.021-0.008-0.029-0.013c-0.075-0.04-0.155-0.075-0.237-0.101   c-0.007-0.001-0.011-0.004-0.016-0.006c-5.613-1.727-11.55-1.727-17.166,0c-0.006,0.002-0.011,0.005-0.017,0.007   c-0.066,0.021-0.129,0.051-0.192,0.081c-0.025,0.012-0.053,0.021-0.077,0.034c-0.081,0.044-0.158,0.098-0.23,0.157   c-0.002,0.002-0.005,0.003-0.008,0.005c-0.133,0.111-0.246,0.251-0.336,0.41c-0.008,0.014-0.019,0.027-0.026,0.042   c-0.005,0.01-0.012,0.017-0.017,0.027l-3.673,7.347c-0.007,0.014-0.01,0.028-0.016,0.042c-0.022,0.049-0.04,0.1-0.057,0.151   c-0.015,0.044-0.031,0.088-0.042,0.133c-0.011,0.045-0.016,0.092-0.023,0.139c-0.007,0.054-0.015,0.107-0.016,0.161   c0,0.015-0.004,0.029-0.004,0.044C19.184,29.844,19.191,29.872,19.193,29.902z M39.606,23.741l2.285,4.572H23.111l2.286-4.573   C30.061,22.424,34.944,22.425,39.606,23.741z" fill="#FFFFFF" stroke="#FFFFFF" stroke-linecap="round" stroke-linejoin="round" stroke-miterlimit="10" stroke-width="0.2"/><path d="M52.817,23.44c1.146,1.245,3.146,2.057,5.475,2.057c3.645,0,6.499-1.986,6.499-4.521   s-2.854-4.521-6.499-4.521c-3.465,0-6.211,1.796-6.475,4.151c-0.904,0.316-1.699,0.919-2.313,1.712l-2.519-5.034   c-0.143-0.285-0.361-0.502-0.623-0.644c-0.004-0.002-0.01-0.004-0.014-0.006c-0.082-0.043-0.166-0.08-0.254-0.107   c-0.006-0.001-0.009-0.004-0.014-0.005c-0.629-0.193-1.262-0.37-1.895-0.536l-2.062-8.954c-0.008-0.035-0.022-0.066-0.034-0.101   c-0.018-0.057-0.031-0.114-0.058-0.168c-0.019-0.039-0.04-0.074-0.062-0.111c-0.025-0.049-0.052-0.098-0.084-0.143   c-0.023-0.035-0.053-0.065-0.08-0.098c-0.035-0.042-0.068-0.084-0.106-0.123c-0.029-0.027-0.063-0.05-0.093-0.075   c-0.045-0.036-0.088-0.073-0.137-0.104c-0.031-0.021-0.066-0.037-0.101-0.055c-0.052-0.027-0.101-0.055-0.153-0.077   c-0.041-0.017-0.086-0.026-0.128-0.039c-0.05-0.015-0.098-0.032-0.149-0.042c-0.055-0.011-0.112-0.013-0.172-0.018   c-0.035-0.002-0.068-0.011-0.105-0.011H24.334c-0.048,0-0.094,0.01-0.142,0.014c-0.044,0.004-0.09,0.005-0.133,0.014   c-0.062,0.011-0.12,0.031-0.179,0.05c-0.033,0.01-0.067,0.018-0.099,0.03c-0.059,0.026-0.114,0.056-0.17,0.087   c-0.029,0.016-0.059,0.029-0.087,0.047c-0.05,0.032-0.095,0.07-0.14,0.107c-0.03,0.024-0.061,0.046-0.088,0.073   c-0.039,0.038-0.072,0.079-0.106,0.121c-0.028,0.033-0.058,0.064-0.083,0.1c-0.032,0.044-0.056,0.091-0.082,0.138   c-0.021,0.039-0.045,0.075-0.063,0.116c-0.023,0.053-0.039,0.11-0.056,0.167c-0.011,0.034-0.026,0.066-0.035,0.102l-2.061,8.954   c-0.633,0.166-1.265,0.342-1.893,0.536c-0.005,0.001-0.009,0.004-0.013,0.005c-0.084,0.027-0.165,0.062-0.243,0.103   c-0.008,0.004-0.018,0.007-0.026,0.012c-0.259,0.141-0.48,0.359-0.623,0.643l-2.517,5.034c-0.612-0.792-1.407-1.395-2.312-1.711   c-0.263-2.356-3.009-4.152-6.475-4.152c-3.645,0-6.499,1.986-6.499,4.521s2.854,4.521,6.499,4.521c2.327,0,4.328-0.812,5.474-2.057   c0.82,0.275,1.457,1.234,1.558,2.386l-1.515,3.03l-6.97,5.727c-0.019,0.016-0.032,0.034-0.05,0.05   c-0.039,0.035-0.076,0.072-0.111,0.111c-0.032,0.036-0.062,0.071-0.089,0.108c-0.029,0.039-0.056,0.08-0.081,0.123   c-0.023,0.041-0.047,0.084-0.067,0.127c-0.021,0.043-0.038,0.088-0.055,0.135c-0.017,0.047-0.031,0.093-0.043,0.14   c-0.011,0.046-0.02,0.093-0.027,0.14c-0.008,0.053-0.014,0.104-0.016,0.157c-0.001,0.022-0.007,0.046-0.007,0.068v13.403   c0,0.828,0.671,1.5,1.5,1.5h7.56v3.582c0,2.705,2.2,4.903,4.905,4.903c2.704,0,4.904-2.198,4.904-4.903v-3.582h17.847v3.582   c0,2.705,2.2,4.903,4.905,4.903c2.703,0,4.901-2.198,4.901-4.903v-3.582h7.563c0.828,0,1.5-0.672,1.5-1.5V35.743   c0-0.023-0.006-0.047-0.007-0.068c-0.003-0.054-0.009-0.105-0.017-0.158c-0.008-0.047-0.017-0.093-0.026-0.138   c-0.013-0.048-0.027-0.095-0.044-0.142c-0.018-0.045-0.033-0.09-0.055-0.133c-0.021-0.045-0.045-0.088-0.069-0.129   s-0.05-0.082-0.079-0.121c-0.028-0.037-0.061-0.074-0.092-0.11c-0.034-0.038-0.07-0.074-0.108-0.109   c-0.019-0.016-0.032-0.034-0.051-0.051l-6.972-5.728l-1.516-3.029C51.36,24.675,51.998,23.715,52.817,23.44z M35.196,9.761h2.896   v0.67h-1.024v2.973h-0.846v-2.973h-1.025V9.761L35.196,9.761z M32.642,9.761h2.343v0.65h-1.493v0.923h1.243v0.652h-1.243v1.418   h-0.85V9.761z M29.618,9.761c0.073,0,0.131,0.017,0.173,0.051s0.078,0.078,0.106,0.131l0.515,1.06   c0.043,0.084,0.082,0.161,0.117,0.234c0.035,0.072,0.066,0.143,0.093,0.213c0.025-0.071,0.054-0.143,0.086-0.216   c0.033-0.072,0.071-0.149,0.114-0.231l0.51-1.06c0.011-0.022,0.025-0.044,0.042-0.065c0.017-0.022,0.037-0.041,0.059-0.059   c0.023-0.017,0.049-0.031,0.078-0.042c0.029-0.01,0.061-0.016,0.097-0.016h0.75l-1.32,2.258v1.385h-0.845v-1.385l-1.32-2.258   H29.618z M27.145,9.761h0.844v2.968h1.35v0.675h-2.194V9.761z M57.293,36.452v11.195H7.709V36.452l6.669-5.48   c0.035-0.029,0.062-0.063,0.093-0.094c0.026-0.026,0.052-0.049,0.077-0.077c0.084-0.096,0.157-0.198,0.213-0.308   c0.002-0.003,0.005-0.006,0.006-0.009l1.875-3.75c0.002-0.004,0.004-0.008,0.006-0.013l3.752-7.505   c7.931-2.317,16.269-2.317,24.199,0l3.754,7.507c0,0.002,0.002,0.004,0.002,0.006l1.879,3.755c0.002,0.003,0.004,0.005,0.006,0.008   c0.058,0.111,0.131,0.214,0.216,0.31c0.022,0.027,0.05,0.05,0.073,0.076c0.031,0.031,0.061,0.065,0.096,0.094L57.293,36.452z" fill="#FFFFFF"/><path d="M16.101,35.095c-2.853,0-5.173,2.321-5.173,5.174c0,2.854,2.321,5.174,5.173,5.174s5.173-2.319,5.173-5.174   C21.274,37.416,18.953,35.095,16.101,35.095z" fill="#FFFFFF"/><path d="M43.729,40.269c0,2.854,2.319,5.174,5.172,5.174c2.854,0,5.176-2.319,5.176-5.174   c0-2.853-2.321-5.174-5.176-5.174C46.049,35.095,43.729,37.416,43.729,40.269z" fill="#FFFFFF"/></g></svg>