<?xml version="1.0" ?><!DOCTYPE svg  PUBLIC '-//W3C//DTD SVG 1.1//EN'  'http://www.w3.org/Graphics/SVG/1.1/DTD/svg11.dtd'><svg height="128px" id="Layer_1" style="enable-background:new 0 0 128 128;" version="1.1" viewBox="0 0 128 128" width="128px" xml:space="preserve" xmlns="http://www.w3.org/2000/svg" xmlns:xlink="http://www.w3.org/1999/xlink"><g><circle cx="64" cy="64" r="64" style="fill:#4AB8A1;"/><path d="M2.868,83c8.094,26.068,32.403,45,61.132,45c28.729,0,53.038-18.932,61.132-45H2.868z" style="fill:#242424;"/><g><rect height="2" style="fill:#F5F5F5;" width="12" x="15" y="99"/><rect height="2" style="fill:#F5F5F5;" width="12" x="32" y="99"/><rect height="2" style="fill:#F5F5F5;" width="12" x="49" y="99"/><rect height="2" style="fill:#F5F5F5;" width="12" x="66" y="99"/><rect height="2" style="fill:#F5F5F5;" width="12" x="83" y="99"/><rect height="2" style="fill:#F5F5F5;" width="12" x="100" y="99"/></g><path d="M102.152,57H87.758L77.193,42.025C75.848,40.103,73.686,39,71.262,39H43.567   c-2.421,0-4.582,1.103-5.928,3.022L27.069,57H15c-0.553,0-1,0.447-1,1v19c0,0.553,0.447,1,1,1h7.051c0.511-6.15,5.67-11,11.949-11   s11.438,4.85,11.949,11h36.102c0.512-6.15,5.67-11,11.949-11s11.438,4.85,11.949,11H113c0.553,0,1-0.447,1-1v-2.715   C114,59.999,107.559,57,102.152,57z" style="fill:#FFD464;"/><g><path d="M30,67c-6.279,0-11.438,4.85-11.949,11h4c0.455-5.48,4.606-9.92,9.949-10.822    C31.349,67.066,30.683,67,30,67z" style="fill:#F2C95F;"/><path d="M75.193,42.025L85.758,57h2L77.193,42.025C75.848,40.103,73.686,39,71.262,39h-2    C71.686,39,73.848,40.103,75.193,42.025z" style="fill:#F2C95F;"/><path d="M90,67c-6.279,0-11.438,4.85-11.949,11h4c0.455-5.48,4.606-9.92,9.949-10.822    C91.35,67.066,90.684,67,90,67z" style="fill:#F2C95F;"/><path d="M102.152,57h-4C103.559,57,110,59.999,110,74.285V77c0,0.553-0.447,1-1,1h4c0.553,0,1-0.447,1-1    v-2.715C114,59.999,107.559,57,102.152,57z" style="fill:#F2C95F;"/></g><path d="M110,60.178c-2.271-2.447-5.186-3.178-7.848-3.178H87.758H27.07H15c-0.553,0-1,0.447-1,1v7h96   V60.178z" style="fill:#F5F5F5;"/><path d="M19,62v6c0,1.65-1.35,3-3,3h-2v-9H19z" style="fill:#CC584C;"/><path d="M34,89c-5.514,0-10-4.486-10-10s4.486-10,10-10s10,4.486,10,10S39.514,89,34,89z" style="fill:#0D0D0D;"/><path d="M34,86c-3.859,0-7-3.141-7-7s3.141-7,7-7s7,3.141,7,7S37.859,86,34,86z" style="fill:#B3B3B3;"/><path d="M34,85c-3.309,0-6-2.691-6-6s2.691-6,6-6s6,2.691,6,6S37.309,85,34,85z" style="fill:#CCCCCC;"/><path d="M34,81c-1.103,0-2-0.896-2-2s0.897-2,2-2s2,0.896,2,2S35.103,81,34,81z" style="fill:#242424;"/><path d="M94,89c-5.514,0-10-4.486-10-10s4.486-10,10-10s10,4.486,10,10S99.514,89,94,89z" style="fill:#0D0D0D;"/><path d="M94,86c-3.859,0-7-3.141-7-7s3.141-7,7-7s7,3.141,7,7S97.859,86,94,86z" style="fill:#B3B3B3;"/><path d="M94,85c-3.309,0-6-2.691-6-6s2.691-6,6-6s6,2.691,6,6S97.309,85,94,85z" style="fill:#CCCCCC;"/><path d="M94,81c-1.104,0-2-0.896-2-2s0.896-2,2-2s2,0.896,2,2S95.104,81,94,81z" style="fill:#242424;"/><g><path d="M58,57h24.861l-8.943-12.68C73.32,43.469,72.378,43,71.262,43H58V57z" style="fill:#C2E2F2;"/><path d="M56,43H43.566c-1.114,0-2.057,0.468-2.659,1.329L31.965,57H56V43z" style="fill:#C2E2F2;"/></g><path d="M108.695,59H107c-2.2,0-3.126,1.573-2.059,3.496l1.115,2.008C107.126,66.427,109.8,68,112,68   c0.506,0,0.986-0.104,1.434-0.277C112.572,63.285,110.811,60.58,108.695,59z" style="fill:#FFFFFF;"/><path d="M14,59h2c1.65,0,3,1.35,3,3h-5V59z" style="fill:#FFC066;"/><polygon points="70,39 43,39 47,29 66,29  " style="fill:#FFC066;"/><g><rect height="4" style="fill:#242424;" width="4" x="20" y="57"/><rect height="4" style="fill:#242424;" width="4" x="24" y="61"/><rect height="4" style="fill:#242424;" width="4" x="28" y="57"/><rect height="4" style="fill:#242424;" width="4" x="32" y="61"/><rect height="4" style="fill:#242424;" width="4" x="36" y="57"/><rect height="4" style="fill:#242424;" width="4" x="40" y="61"/><rect height="4" style="fill:#242424;" width="4" x="44" y="57"/><rect height="4" style="fill:#242424;" width="4" x="48" y="61"/><rect height="4" style="fill:#242424;" width="4" x="52" y="57"/><rect height="4" style="fill:#242424;" width="4" x="56" y="61"/><rect height="4" style="fill:#242424;" width="4" x="60" y="57"/><rect height="4" style="fill:#242424;" width="4" x="64" y="61"/><rect height="4" style="fill:#242424;" width="4" x="68" y="57"/><rect height="4" style="fill:#242424;" width="4" x="72" y="61"/><rect height="4" style="fill:#242424;" width="4" x="76" y="57"/><rect height="4" style="fill:#242424;" width="4" x="80" y="61"/><rect height="4" style="fill:#242424;" width="4" x="84" y="57"/><rect height="4" style="fill:#242424;" width="4" x="88" y="61"/><rect height="4" style="fill:#242424;" width="4" x="92" y="57"/><rect height="4" style="fill:#242424;" width="4" x="96" y="61"/><rect height="4" style="fill:#242424;" width="4" x="100" y="57"/></g><polygon points="66.8,31 46.2,31 44,36.5 44,37 69.2,37  " style="fill:#F5F5F5;"/><g><polygon points="67.2,32 67,32 67,34 68,34   " style="fill:#242424;"/><rect height="2" style="fill:#242424;" width="2" x="59" y="32"/><rect height="2" style="fill:#242424;" width="2" x="63" y="32"/><rect height="2" style="fill:#242424;" width="2" x="55" y="32"/><rect height="2" style="fill:#242424;" width="2" x="47" y="32"/><rect height="2" style="fill:#242424;" width="2" x="51" y="32"/><rect height="2" style="fill:#242424;" width="2" x="65" y="34"/><rect height="2" style="fill:#242424;" width="2" x="45" y="34"/><rect height="2" style="fill:#242424;" width="2" x="49" y="34"/><rect height="2" style="fill:#242424;" width="2" x="61" y="34"/><rect height="2" style="fill:#242424;" width="2" x="57" y="34"/><rect height="2" style="fill:#242424;" width="2" x="53" y="34"/></g></g></svg>