<?xml version="1.0" ?><!DOCTYPE svg  PUBLIC '-//W3C//DTD SVG 1.1//EN'  'http://www.w3.org/Graphics/SVG/1.1/DTD/svg11.dtd'><svg enable-background="new 0 0 128 128" id="Layer_1" version="1.1" viewBox="0 0 128 128" xml:space="preserve" xmlns="http://www.w3.org/2000/svg" xmlns:xlink="http://www.w3.org/1999/xlink"><g><circle cx="64" cy="64" fill="#FDDA7F" r="64"/><g><path d="M9.5,97.5C20.7,115.8,40.9,128,64,128c23.1,0,43.3-12.2,54.5-30.5H9.5z" fill="#474F59"/></g><g><g><path d="M38.4,57.7h11.9v3.5h1.6v-3.4H60l1.7,2.3h4.7l-1.4-1.4c-1.7-1.7-4-2.6-6.3-2.6H39.9     c-2.4,0-4.7,0.9-6.4,2.6l-1.4,1.4h6.2V57.7z" fill="#474F59"/></g><g><g><g><path d="M89.9,70c0,0,9.5,0.6,15.2,2.9c5.7,2.3,7.2,8.5,7.2,8.5s1.3,0.9,1,4.3c-0.2,3.4-1.3,4.3-3.1,4.6       c-1.8,0.3-7.1,0.8-7.1,0.8l-57.7,0.2H26.7c0,0-11.1-1.4-11.6-1.9c-0.6-0.5-0.8-5.6,0-7.1c0.8-1.4,1.1-2.1,1.1-2.1       S17,61.2,31.9,59.9h36.6c1.5,0,3,0.4,4.3,1.1L89.9,70z" fill="#7DCEDC"/></g><path d="M111.9,80.1c-0.4-1.1-1.2-2.7-2.6-4.2h-4.8c-0.3,0-0.5,0.3-0.3,0.6c0.5,0.8,1.3,2.2,1.5,3.2      c0,0.1,0.1,0.2,0.2,0.3C106.8,80.4,110.5,81.9,111.9,80.1z" fill="#FFFFFF"/><g><path d="M45.1,62.9v8c0,0.4-0.3,0.7-0.7,0.7H32.1c-0.7,0-1.1-0.7-0.9-1.3l2.7-7.4c0.2-0.5,0.6-0.8,1.1-0.8h9.4       C44.8,62.2,45.1,62.5,45.1,62.9z" fill="#474F59"/><path d="M85.6,71.7H63.9c-0.4,0-0.7-0.3-0.7-0.6l-0.8-8c0-0.4,0.3-0.8,0.7-0.8H68c1.3,0,2.5,0.3,3.6,0.9       l14.3,7.5C86.4,70.9,86.2,71.7,85.6,71.7z" fill="#474F59"/><path d="M60.2,62.9v8c0,0.4-0.3,0.7-0.7,0.7H48.7c-0.4,0-0.7-0.3-0.7-0.7v-8c0-0.4,0.3-0.7,0.7-0.7h10.8       C59.9,62.2,60.2,62.5,60.2,62.9z" fill="#474F59"/></g><g><path d="M35.8,79.6c-5.5,0-10,4.5-10,10c0,0.5,0,1,0.1,1.4c0.6,0.1,0.9,0.1,0.9,0.1h18.8l0.2,0       c0.1-0.5,0.1-1,0.1-1.6C45.8,84.1,41.3,79.6,35.8,79.6z" fill="#25313B"/><circle cx="35.8" cy="89.6" fill="#474F59" r="7.9"/><circle cx="35.8" cy="89.6" fill="#F3F3F3" r="3.9"/></g><g><path d="M94.5,79.6c-5.5,0-10,4.5-10,10c0,0.5,0,1,0.1,1.4l18.6,0c0,0,0.5,0,1.3-0.1c0.1-0.4,0.1-0.9,0.1-1.3       C104.6,84.1,100.1,79.6,94.5,79.6z" fill="#25313B"/><circle cx="94.5" cy="89.6" fill="#474F59" r="7.9"/><circle cx="94.5" cy="89.6" fill="#F3F3F3" r="3.9"/></g><path d="M17.8,80.4c0,0,0.1,0.1,0.1,0.1h2.5c0.1,0,0.2-0.1,0.2-0.2c-0.1-1-0.3-4.8,0.9-7c0.1-0.2,0-0.3-0.2-0.3      h-3.8c-0.8,2.6-1.2,4.9-1.3,6.2L17.8,80.4z" fill="#F37C5A"/></g></g></g><g><path d="M49,43c1.3-4-3.1-7.5-6.7-5.4c-0.1-1.9-1-3.8-2.7-5.1c-3-2.2-7.2-1.6-9.4,1.4c-1.1,1.5-1.5,3.4-1.2,5.2    c-1.9,0.1-3.3,1.6-3.3,3.5c0,0.1,0,0.2,0,0.3H49z" fill="#F6BB53"/></g><g><path d="M91.6,27.3H62.6c-1-2,0-4.4,2.2-5c-0.2-3.1,3-4.9,5.4-3.5c0.3-3,3.7-4.7,6.2-3.1c1.1-2.2,3.3-3.7,5.9-3.7    c4.9,0,8.1,5.1,6,9.5C91.3,21.5,93.2,24.7,91.6,27.3z" fill="#F6BB53"/></g><g><path d="M85.2,54.6C82.8,49.1,86.8,43,92.8,43c3.2,0,6,1.9,7.4,4.6c3.2-2,7.4,0.1,7.7,3.9c2.7-1.5,6,0.1,6.6,3.1    H85.2z" fill="#F6BB53"/></g></g></svg>