<?xml version="1.0" ?><!DOCTYPE svg  PUBLIC '-//W3C//DTD SVG 1.1//EN'  'http://www.w3.org/Graphics/SVG/1.1/DTD/svg11.dtd'><svg enable-background="new -17.5 -17.5 100 100" height="100px" id="Layer_1" version="1.1" viewBox="-17.5 -17.5 100 100" width="100px" xml:space="preserve" xmlns="http://www.w3.org/2000/svg" xmlns:xlink="http://www.w3.org/1999/xlink"><circle cx="32.5" cy="32.5" fill="#4F4946" r="50"/><g><path d="M19.191,29.901c0.003,0.053,0.007,0.106,0.016,0.159c0.008,0.048,0.02,0.095,0.033,0.142   c0.012,0.046,0.025,0.091,0.042,0.136c0.018,0.047,0.039,0.092,0.061,0.137c0.021,0.042,0.042,0.083,0.067,0.124   c0.026,0.041,0.054,0.08,0.083,0.119c0.029,0.039,0.06,0.076,0.093,0.112c0.033,0.036,0.068,0.068,0.105,0.101   c0.036,0.032,0.071,0.063,0.11,0.091c0.043,0.032,0.089,0.059,0.136,0.086c0.026,0.015,0.048,0.034,0.076,0.048   c0.012,0.006,0.025,0.008,0.038,0.014c0.072,0.034,0.147,0.059,0.225,0.081c0.029,0.008,0.058,0.021,0.087,0.027   c0.091,0.02,0.185,0.03,0.28,0.032c0.014,0,0.027,0.005,0.041,0.005c0.001,0,0.002,0,0.003,0h23.629c0.002,0,0.002,0,0.004,0   c0.014,0,0.025-0.004,0.039-0.005c0.096-0.002,0.189-0.012,0.281-0.032c0.027-0.006,0.057-0.018,0.084-0.026   c0.08-0.022,0.154-0.048,0.229-0.083c0.012-0.005,0.021-0.007,0.033-0.013c0.025-0.013,0.049-0.031,0.072-0.045   c0.049-0.028,0.098-0.057,0.143-0.09c0.037-0.027,0.07-0.057,0.105-0.087c0.037-0.034,0.072-0.067,0.107-0.104   c0.033-0.035,0.063-0.072,0.09-0.109c0.031-0.04,0.061-0.079,0.086-0.122c0.023-0.039,0.045-0.08,0.064-0.121   c0.023-0.045,0.045-0.091,0.063-0.139c0.018-0.044,0.029-0.088,0.041-0.133c0.014-0.047,0.025-0.095,0.033-0.144   c0.01-0.052,0.014-0.104,0.018-0.157c0.002-0.031,0.008-0.06,0.008-0.091c0-0.015-0.004-0.03-0.004-0.045   c-0.002-0.053-0.01-0.105-0.018-0.159c-0.006-0.047-0.012-0.095-0.021-0.141c-0.01-0.044-0.025-0.087-0.041-0.13   c-0.018-0.053-0.033-0.104-0.059-0.154c-0.008-0.014-0.01-0.028-0.016-0.041l-3.67-7.347c-0.189-0.38-0.521-0.641-0.896-0.758   c-0.004-0.001-0.008-0.004-0.012-0.005c-5.615-1.728-11.551-1.729-17.166,0c-0.004,0.001-0.007,0.003-0.012,0.005   c-0.083,0.026-0.163,0.061-0.241,0.102c-0.01,0.005-0.021,0.008-0.03,0.013c-0.231,0.127-0.427,0.319-0.568,0.561   c-0.012,0.02-0.026,0.038-0.037,0.058c-0.005,0.009-0.011,0.016-0.016,0.024l-3.673,7.347c-0.007,0.014-0.01,0.028-0.016,0.042   c-0.022,0.049-0.04,0.1-0.057,0.151c-0.015,0.044-0.031,0.088-0.042,0.133c-0.011,0.045-0.016,0.092-0.023,0.139   c-0.007,0.054-0.015,0.107-0.016,0.161c0,0.015-0.004,0.029-0.004,0.044C19.183,29.843,19.189,29.872,19.191,29.901z M39.605,23.74   l2.285,4.572H23.109l2.286-4.573C30.061,22.422,34.943,22.424,39.605,23.74z" fill="#FFFFFF"/><path d="M31.473,11.173c0.062-0.011,0.114-0.029,0.154-0.055c0.038-0.023,0.064-0.054,0.083-0.095   c0.022-0.045,0.033-0.105,0.033-0.177c0-0.072-0.009-0.133-0.027-0.182c-0.014-0.039-0.036-0.071-0.067-0.095   c-0.032-0.025-0.077-0.044-0.131-0.056c-0.061-0.014-0.135-0.02-0.226-0.02h-0.394v0.699h0.34   C31.324,11.192,31.402,11.186,31.473,11.173z" fill="#FFFFFF"/><path d="M37.611,11.336c0.066-0.026,0.121-0.058,0.162-0.099c0.039-0.04,0.066-0.088,0.088-0.143   c0.018-0.058,0.029-0.122,0.029-0.192c0-0.13-0.039-0.228-0.121-0.3c-0.084-0.073-0.229-0.11-0.42-0.11v0.001h-0.24v0.88h0.24   C37.457,11.374,37.543,11.361,37.611,11.336z" fill="#FFFFFF"/><path d="M31.393,12.664c0.098,0,0.178-0.012,0.237-0.035c0.054-0.021,0.097-0.049,0.129-0.084   c0.03-0.033,0.049-0.068,0.06-0.11c0.014-0.05,0.019-0.097,0.018-0.144c0-0.062-0.007-0.11-0.021-0.151   c-0.012-0.036-0.033-0.066-0.062-0.092c-0.031-0.027-0.074-0.048-0.129-0.064c-0.062-0.017-0.142-0.026-0.238-0.026h-0.489v0.706   H31.393z" fill="#FFFFFF"/><path d="M52.816,23.439c1.145,1.246,3.145,2.057,5.475,2.057c3.645,0,6.5-1.986,6.5-4.521s-2.855-4.521-6.5-4.521   c-3.465,0-6.211,1.796-6.475,4.151c-0.904,0.316-1.701,0.919-2.314,1.711l-2.518-5.033c-0.141-0.284-0.361-0.501-0.619-0.643   c-0.012-0.006-0.023-0.01-0.035-0.015c-0.076-0.039-0.152-0.074-0.232-0.099c-0.008-0.001-0.012-0.004-0.016-0.006   c-0.629-0.193-1.264-0.37-1.896-0.536l-2.057-8.952c-0.008-0.035-0.021-0.065-0.031-0.098c-0.02-0.058-0.035-0.116-0.059-0.171   c-0.02-0.042-0.043-0.079-0.064-0.118c-0.025-0.045-0.049-0.092-0.078-0.135c-0.027-0.04-0.063-0.074-0.092-0.111   c-0.031-0.037-0.063-0.075-0.098-0.108c-0.033-0.032-0.068-0.059-0.104-0.087c-0.039-0.032-0.078-0.065-0.121-0.093   c-0.037-0.023-0.074-0.041-0.113-0.061c-0.047-0.025-0.094-0.052-0.145-0.072c-0.039-0.016-0.082-0.026-0.123-0.039   C41.049,5.924,41,5.906,40.945,5.896c-0.049-0.009-0.098-0.011-0.148-0.015c-0.043-0.004-0.086-0.013-0.129-0.013H24.333   c-0.039,0-0.075,0.008-0.113,0.011c-0.056,0.004-0.113,0.006-0.168,0.017c-0.048,0.009-0.094,0.025-0.14,0.039   c-0.047,0.014-0.094,0.025-0.138,0.043c-0.047,0.019-0.091,0.044-0.136,0.068c-0.041,0.021-0.082,0.041-0.12,0.065   c-0.041,0.027-0.078,0.059-0.116,0.089c-0.038,0.03-0.077,0.059-0.111,0.092C23.257,6.325,23.229,6.36,23.2,6.396   c-0.033,0.039-0.067,0.075-0.096,0.117c-0.028,0.04-0.05,0.084-0.074,0.127c-0.023,0.042-0.049,0.082-0.068,0.126   c-0.023,0.052-0.038,0.107-0.055,0.163c-0.011,0.035-0.027,0.068-0.035,0.104l-2.061,8.954c-0.633,0.166-1.265,0.342-1.894,0.536   c-0.005,0.002-0.01,0.005-0.016,0.007c-0.071,0.022-0.138,0.053-0.205,0.086c-0.021,0.011-0.044,0.018-0.065,0.029   c-0.258,0.142-0.477,0.358-0.619,0.641l-2.517,5.034c-0.612-0.792-1.406-1.395-2.311-1.711c-0.263-2.355-3.009-4.151-6.474-4.151   c-3.645,0-6.5,1.986-6.5,4.521s2.855,4.521,6.5,4.521c2.327,0,4.328-0.812,5.474-2.057c0.82,0.275,1.456,1.234,1.558,2.385   l-1.516,3.031l-6.969,5.728c-0.019,0.016-0.032,0.033-0.05,0.049c-0.039,0.035-0.076,0.072-0.111,0.111   c-0.032,0.035-0.062,0.07-0.089,0.109c-0.029,0.039-0.056,0.08-0.081,0.123c-0.026,0.039-0.05,0.082-0.07,0.125   c-0.021,0.043-0.038,0.088-0.055,0.135c-0.017,0.047-0.031,0.094-0.043,0.141c-0.011,0.045-0.02,0.092-0.027,0.139   c-0.008,0.053-0.014,0.105-0.016,0.156c-0.001,0.023-0.007,0.047-0.007,0.07v13.402c0,0.828,0.671,1.5,1.5,1.5h7.56v3.582   c0,2.705,2.2,4.902,4.905,4.902c2.704,0,4.904-2.197,4.904-4.902v-3.582h17.847v3.582c0,2.705,2.199,4.902,4.904,4.902   c2.703,0,4.902-2.197,4.902-4.902v-3.582h7.563c0.828,0,1.5-0.672,1.5-1.5V35.742c0-0.023-0.006-0.047-0.008-0.068   c-0.002-0.053-0.008-0.105-0.016-0.158c-0.008-0.047-0.018-0.092-0.027-0.137c-0.012-0.049-0.027-0.096-0.043-0.143   c-0.018-0.045-0.033-0.09-0.055-0.133c-0.021-0.045-0.045-0.088-0.07-0.129c-0.023-0.041-0.049-0.082-0.078-0.121   c-0.029-0.037-0.061-0.074-0.092-0.109c-0.035-0.039-0.07-0.074-0.109-0.109c-0.018-0.016-0.031-0.035-0.051-0.051l-6.971-5.729   l-1.518-3.031C51.359,24.673,51.996,23.714,52.816,23.439z M36.064,9.761c0-0.055,0.043-0.1,0.1-0.1h1.186   c0.27,0,0.504,0.029,0.703,0.086c0.199,0.058,0.365,0.141,0.49,0.245c0.131,0.107,0.227,0.235,0.285,0.382   c0.059,0.142,0.088,0.3,0.088,0.467c0,0.124-0.018,0.246-0.051,0.363c-0.039,0.125-0.09,0.23-0.154,0.322   c-0.068,0.098-0.152,0.186-0.25,0.261c-0.053,0.04-0.107,0.076-0.17,0.109c0.006,0.005,0.012,0.009,0.018,0.014   c0.055,0.048,0.104,0.106,0.146,0.172l0.775,1.269c0.02,0.031,0.02,0.07,0.002,0.101c-0.02,0.031-0.051,0.051-0.086,0.051h-0.768   c-0.178,0-0.309-0.07-0.391-0.209l-0.605-1.058c-0.02-0.029-0.039-0.051-0.061-0.063c-0.01-0.006-0.037-0.017-0.098-0.017h-0.115   v1.248c0,0.055-0.045,0.1-0.102,0.1h-0.846c-0.057,0-0.1-0.045-0.1-0.1V9.761H36.064z M33.199,9.761c0-0.055,0.045-0.1,0.1-0.1   h2.348c0.057,0,0.1,0.045,0.1,0.1v0.65c0,0.055-0.043,0.1-0.1,0.1H34.25v0.65h1.045c0.057,0,0.102,0.045,0.102,0.1v0.626   c0,0.055-0.045,0.1-0.102,0.1H34.25v0.667h1.396c0.057,0,0.1,0.045,0.1,0.1v0.65c0,0.055-0.043,0.1-0.1,0.1h-2.348   c-0.055,0-0.1-0.045-0.1-0.1V9.761z M29.853,9.762c0-0.055,0.045-0.1,0.1-0.1h1.34c0.263,0,0.482,0.024,0.668,0.073   c0.187,0.049,0.344,0.121,0.468,0.214c0.125,0.095,0.217,0.213,0.275,0.351c0.056,0.132,0.084,0.281,0.084,0.446   c0,0.091-0.014,0.177-0.04,0.265c-0.026,0.087-0.068,0.169-0.126,0.244c-0.054,0.072-0.126,0.141-0.214,0.203   c-0.022,0.015-0.045,0.03-0.07,0.045c0.14,0.06,0.253,0.138,0.337,0.233c0.131,0.148,0.197,0.34,0.197,0.571   c0,0.171-0.032,0.326-0.096,0.474c-0.066,0.146-0.164,0.275-0.291,0.384c-0.125,0.107-0.281,0.191-0.463,0.251   c-0.178,0.059-0.385,0.089-0.614,0.089h-1.455c-0.055,0-0.1-0.045-0.1-0.1V9.762z M26.062,9.761c0-0.055,0.045-0.1,0.1-0.1h0.845   c0.055,0,0.1,0.045,0.1,0.1v2.154c0,0.116,0.014,0.221,0.044,0.313c0.029,0.09,0.069,0.163,0.121,0.223   c0.051,0.058,0.115,0.104,0.191,0.137c0.153,0.063,0.373,0.063,0.53,0c0.073-0.031,0.135-0.075,0.189-0.135   c0.054-0.06,0.094-0.133,0.122-0.22c0.027-0.085,0.042-0.184,0.043-0.295c-0.002-0.006-0.002-0.013-0.002-0.019V9.761   c0-0.055,0.045-0.1,0.1-0.1h0.845c0.055,0,0.1,0.045,0.101,0.1v2.158c0,0.234-0.039,0.454-0.116,0.651   c-0.076,0.197-0.188,0.371-0.333,0.517c-0.146,0.144-0.323,0.257-0.528,0.337c-0.206,0.079-0.438,0.119-0.688,0.119   c-0.255,0-0.487-0.04-0.691-0.119c-0.205-0.08-0.382-0.193-0.526-0.337c-0.145-0.143-0.256-0.317-0.333-0.517   c-0.076-0.198-0.114-0.417-0.114-0.651V9.761z M57.293,36.451v11.195l0,0H7.708V36.451l6.669-5.479   c0.034-0.028,0.061-0.062,0.092-0.093c0.027-0.026,0.053-0.05,0.078-0.078c0.084-0.096,0.157-0.197,0.213-0.308   c0.002-0.003,0.005-0.006,0.007-0.009l1.874-3.748c0.002-0.005,0.005-0.01,0.007-0.015l3.753-7.504   c7.93-2.317,16.268-2.317,24.199,0l3.752,7.501c0.004,0.011,0.01,0.021,0.016,0.032l1.867,3.734   c0.002,0.003,0.004,0.005,0.006,0.008c0.057,0.111,0.131,0.214,0.215,0.31c0.023,0.027,0.051,0.05,0.074,0.076   c0.031,0.031,0.061,0.065,0.096,0.094L57.293,36.451z" fill="#FFFFFF"/><path d="M16.1,35.096c-2.853,0-5.173,2.32-5.173,5.172c0,2.855,2.321,5.174,5.173,5.174s5.173-2.318,5.173-5.174   C21.272,37.416,18.953,35.096,16.1,35.096z" fill="#FFFFFF"/><path d="M48.9,35.096c-2.854,0-5.172,2.32-5.172,5.172c0,2.855,2.318,5.174,5.172,5.174s5.174-2.318,5.174-5.174   C54.074,37.416,51.754,35.096,48.9,35.096z" fill="#FFFFFF"/></g></svg>