<?xml version="1.0" ?><!DOCTYPE svg  PUBLIC '-//W3C//DTD SVG 1.0//EN'  'http://www.w3.org/TR/2001/REC-SVG-20010904/DTD/svg10.dtd'><svg height="110px" style="enable-background:new 0 0 110 110;" version="1.0" viewBox="0 0 110 110" width="110px" xml:space="preserve" xmlns="http://www.w3.org/2000/svg" xmlns:xlink="http://www.w3.org/1999/xlink"><g id="Artboard"/><g id="Multicolor"><circle cx="55" cy="55" r="55" style="fill:#32BEA6;"/><g><g><rect height="4" style="fill:#DADDDE;" width="46" x="32" y="56"/></g><path d="M66.422,70H71c-0.772-1.765-2.529-3-4.578-3s-3.806,1.236-4.578,3H48.578    c-0.772-1.764-2.529-3-4.578-3c-2.049,0-3.806,1.235-4.578,3H44v4h-4.578c0.772,1.765,2.529,3,4.578,3    c2.049,0,3.806-1.236,4.578-3h13.266c0.772,1.764,2.529,3,4.578,3s3.806-1.235,4.578-3h-4.578V70z" style="fill:#FFFFFF;"/><g><path d="M72.019,40.449c-0.385-2.325-2.406-4.092-4.837-4.092l-1.956-10.427     c-0.286-1.547-1.637-2.668-3.217-2.668H47.8c-1.58,0-2.93,1.121-3.217,2.668c-0.099,0.528-1.883,10.039-1.956,10.427     c-2.709,0-4.911,2.202-4.911,4.911v4.092h34.376C72.093,41.537,72.14,41.092,72.019,40.449z M45.901,36.357     c0.295-1.76,0.055-0.32,1.179-7.088c0.262-1.58,1.629-2.734,3.233-2.734h9.183c1.604,0,2.971,1.154,3.233,2.734l1.179,7.088     H45.901z" style="fill:#DF2C2C;"/></g><g><path d="M63.908,50.271v4.092c0,0.904,0.733,1.637,1.637,1.637h3.274c0.904,0,1.637-0.733,1.637-1.637     v-4.092H63.908z" style="fill:#3E3E3F;"/></g><g><path d="M39.354,50.271v4.092c0,0.904,0.733,1.637,1.637,1.637h3.274c0.904,0,1.637-0.733,1.637-1.637     v-4.092H39.354z" style="fill:#3E3E3F;"/></g><g><path d="M73.73,46.997c0-0.904-0.733-1.637-1.637-1.637H37.717c-0.904,0-1.637,0.733-1.637,1.637v1.637     c0,0.904,0.733,1.637,1.637,1.637h34.376c0.904,0,1.637-0.733,1.637-1.637V46.997z" style="fill:#E2E4E5;"/></g><g><circle cx="67.182" cy="42.086" r="2.455" style="fill:#FBE158;"/></g><g><path d="M72.093,45.36H37.717c-0.904,0-1.637,0.733-1.637,1.637v0.818h37.65v-0.818     C73.73,46.093,72.997,45.36,72.093,45.36z" style="fill:#FFFFFF;"/></g><g><path d="M67.182,39.63c-1.356,0-2.455,1.099-2.455,2.455c0,0.702,0.298,1.33,0.77,1.778L68.96,40.4     C68.512,39.928,67.883,39.63,67.182,39.63z" style="fill:#FBEC9A;"/></g><g><path d="M44.584,25.929c-0.099,0.528-1.883,10.039-1.956,10.427c-2.709,0-4.911,2.202-4.911,4.911v4.092     h1.729l9.003-9.003h-2.548c0.295-1.76,0.056-0.32,1.179-7.088c0.262-1.58,1.629-2.734,3.233-2.734h7.958l3.274-3.274H47.8     C46.221,23.261,44.87,24.382,44.584,25.929z" style="fill:#FA5655;"/></g><g><circle cx="42.627" cy="42.086" r="2.455" style="fill:#FBE158;"/></g><g><path d="M42.627,39.63c-1.356,0-2.455,1.099-2.455,2.455c0,0.702,0.298,1.33,0.77,1.778l3.464-3.464     C43.958,39.928,43.329,39.63,42.627,39.63z" style="fill:#FBEC9A;"/></g><g><g><path d="M59.496,26.535h-9.183c-1.604,0-2.971,1.154-3.233,2.734c-1.125,6.778-0.884,5.331-1.179,7.088      h18.007l-1.179-7.088C62.467,27.689,61.101,26.535,59.496,26.535z" style="fill:#6FDAF1;"/></g><g><path d="M45.901,36.357c0.295-1.76,0.055-0.32,1.179-7.088c0.262-1.58,1.629-2.734,3.233-2.734h9.183      c1.604,0,2.971,1.154,3.233,2.734l1.179,7.088H45.901z" style="fill:#6FDAF1;"/></g></g><g><path d="M47.08,29.268c-1.059,6.388-0.925,5.58-1.179,7.088h2.548l9.822-9.822h-7.958     C48.709,26.535,47.342,27.689,47.08,29.268z" style="fill:#9CE5F4;"/></g><g><polygon points="32,80 29,80 26,80 23,83.616 23,87 29,87 35,87 35,83.616    " style="fill:#3E3E3F;"/></g><g><rect height="43" style="fill:#FFFFFF;" width="6" x="26" y="37"/></g><g><polygon points="84,80 81,80 78,80 75,83.616 75,87 81,87 87,87 87,83.616    " style="fill:#3E3E3F;"/></g><g><rect height="43" style="fill:#FFFFFF;" width="6" x="78" y="37"/></g><g><rect height="3" style="fill:#E2E4E5;" width="8" x="25" y="34"/></g><g><rect height="3" style="fill:#E2E4E5;" width="8" x="77" y="34"/></g></g></g></svg>