<?xml version="1.0" ?><svg height="90px" id="Layer_1" style="enable-background:new 0 0 90 90;" version="1.1" viewBox="0 0 90 90" width="90px" xml:space="preserve" xmlns="http://www.w3.org/2000/svg" xmlns:xlink="http://www.w3.org/1999/xlink"><style type="text/css">
	.st0{fill:#FFCF0F;}
	.st1{fill:#F1C40E;}
	.st2{fill:#7ECC00;}
	.st3{fill:#9DBEC9;}
	.st4{fill:#B54A95;}
	.st5{fill:#AA8566;}
	.st6{fill:#81D100;}
	.st7{fill:#FFAF11;}
	.st8{fill:#81D4EF;}
	.st9{fill:#5DCCEF;}
	.st10{fill:#F25757;}
	.st11{opacity:0.3;fill:#4D241A;}
	.st12{fill:#FFFAF0;}
	.st13{fill:#BCC3C9;}
	.st14{fill:#5CB1FF;}
	.st15{fill:#F0C4E5;}
	.st16{fill:#ABD7FF;}
	.st17{fill:#485C70;}
	.st18{fill:#EFEAE1;}
	.st19{fill:#FFFFFF;}
	.st20{fill:#E1574C;}
	.st21{opacity:0.25;fill:#734E2E;}
	.st22{fill:#E8F8FA;}
	.st23{fill:#DDEFF2;}
	.st24{fill:#C9ECF2;}
	.st25{fill:none;stroke:#505070;stroke-width:2;stroke-linecap:round;stroke-linejoin:round;stroke-miterlimit:10;}
	.st26{opacity:0.6;fill:#A0C4C9;}
	.st27{fill:#A6ACB2;}
	.st28{fill:#FF5729;}
	.st29{fill:#F959FF;}
	.st30{opacity:0.2;fill:#2E4D73;}
	.st31{opacity:0.15;fill:#734E2E;}
	.st32{fill:#ABCFD3;}
	.st33{fill:none;}
	.st34{fill:#8C6FD6;}
	.st35{opacity:0.25;fill:#0D134F;}
	.st36{opacity:0.25;fill:#2E5D73;}
	.st37{fill:#805734;}
	.st38{opacity:0.15;fill:#4F3620;}
	.st39{fill:#27B51F;}
	.st40{fill:#BDB9B1;}
	.st41{fill:#F0EBE2;}
	.st42{fill:#C5CDD4;}
	.st43{fill:#A5B3C2;}
	.st44{fill:#FFAE21;}
	.st45{fill:#FFCC00;}
	.st46{fill:#FF9121;}
	.st47{fill:#E45544;}
	.st48{fill:#CF9463;}
	.st49{fill:#9C724E;}
	.st50{fill:#DE6262;}
	.st51{fill:#BF5E83;}
	.st52{fill:#AD6A34;}
	.st53{opacity:0.4;fill:#4F2020;}
	.st54{fill:#6E5541;}
	.st55{fill:#599EFF;}
	.st56{fill:#FFC88A;}
	.st57{fill:#E6E1D8;}
	.st58{fill:#BEC6CC;}
	.st59{fill:#CFA27C;}
	.st60{fill:#855C3C;}
	.st61{fill:#A0C4C9;}
	.st62{fill:#D1E9ED;}
	.st63{fill:#ACD1D6;}
	.st64{fill:#9DC0C4;}
	.st65{opacity:0.3;}
	.st66{fill:#2E4D73;}
	.st67{fill:#8DADB0;}
	.st68{opacity:0.5;fill:#4D241A;}
	.st69{fill:#82E641;}
	.st70{opacity:0.15;fill:#4F0D2A;}
	.st71{fill:#8BB0B5;}
	.st72{fill:#BCF553;}
	.st73{opacity:0.75;fill:#E4F7FA;}
	.st74{fill:#826ABD;}
	.st75{fill:#DED9D0;}
	.st76{opacity:0.3;fill:#4F0D2A;}
	.st77{fill:#CC8A56;}
	.st78{fill:#E3E0D3;}
	.st79{fill:#D14B85;}
	.st80{opacity:0.7;fill:#FFFAF0;}
	.st81{fill:#6BC804;}
	.st82{opacity:0.3;fill:#0D4F1A;}
	.st83{fill:#3EB40B;}
	.st84{fill:#68D420;}
	.st85{fill:#DB428E;}
	.st86{fill:#D1D9E0;}
	.st87{fill:#5C87FF;}
	.st88{fill:#C57DFF;}
	.st89{fill:#1ACDD4;}
	.st90{fill:#83B4CC;}
	.st91{fill:#CC83B8;}
	.st92{fill:#FFE5C7;}
	.st93{opacity:0.99;fill:#FFFFFF;}
	.st94{opacity:0.81;fill:#FFFFFF;}
	.st95{fill:#DAE3E6;}
	.st96{fill:#94633A;}
	.st97{fill:#7A55AB;}
	.st98{fill:#FFEC70;}
	.st99{fill:#DB4F4F;}
	.st100{opacity:0.3;fill:#4F2020;}
	.st101{fill:#ADD7DE;}
	.st102{fill:#DBE3EB;}
	.st103{fill:#88B3C7;}
	.st104{fill:#5E402B;}
	.st105{fill:#FFDD00;}
	.st106{fill:#505070;}
	.st107{fill:#415266;}
	.st108{fill:#232E38;}
	.st109{fill:#CF8D00;}
	.st110{fill:#FF5C5C;}
	.st111{fill:#96FF52;}
	.st112{fill:#59758F;}
	.st113{fill:#E8FDFF;}
	.st114{fill:#EDD898;}
	.st115{fill:#99B2C9;}
	.st116{fill:#FFF0C9;}
	.st117{fill:#E3F5F7;}
	.st118{fill:#D8F1F5;}
	.st119{opacity:0.2;}
	.st120{fill:#5F7996;}
	.st121{fill:#ACB2B8;}
	.st122{fill:#8F7B59;}
	.st123{fill:#54D100;}
	.st124{fill:#CEFFAB;}
	.st125{opacity:0.2;fill:#20324F;}
	.st126{fill:#F7FDFF;}
	.st127{fill:#BCCDDB;}
	.st128{fill:#2497FF;}
	.st129{fill:#9EE0FF;}
	.st130{opacity:0.7;fill:#FFFFFF;}
	.st131{opacity:0.9;fill:#FFFFFF;}
	.st132{fill:#82DD47;}
	.st133{fill:#F0EFD2;}
	.st134{fill:#A688FC;}
	.st135{fill:#829194;}
	.st136{fill:#ABEAFF;}
	.st137{fill:#ABDBFF;}
	.st138{fill:#2C5B61;}
	.st139{opacity:0.25;fill:#05252B;}
	.st140{fill:#3F291E;}
	.st141{fill:#F24444;}
	.st142{fill:#DB2861;}
	.st143{fill:#754F2E;}
	.st144{opacity:0.25;fill:#4F3620;}
	.st145{fill:#53898F;}
	.st146{fill:#544134;}
	.st147{fill:#CF872F;}
	.st148{fill:#DEBC25;}
	.st149{fill:#88C5FF;}
	.st150{fill-rule:evenodd;clip-rule:evenodd;fill:#FFCC00;}
	.st151{fill:#383128;}
	.st152{fill:#AADB5C;}
	.st153{fill-rule:evenodd;clip-rule:evenodd;fill:#FFFFFF;}
	.st154{fill:#752121;}
	.st155{fill:#FF5757;}
	.st156{fill:#43CFD1;}
	.st157{fill:#D4F9FA;}
	.st158{fill:#52DE88;}
	.st159{fill:#49D156;}
	.st160{fill:#77F027;}
	.st161{fill:#C6E800;}
	.st162{fill:#4566FF;}
	.st163{fill:#FF5683;}
	.st164{fill:#62FCAF;}
	.st165{fill:#F214D5;}
	.st166{fill:#BF7932;}
	.st167{fill:#CF8E3E;}
	.st168{fill:#C99438;}
	.st169{fill:#C48037;}
	.st170{opacity:0.35;fill:#301714;}
	.st171{fill:#80471D;}
	.st172{fill:#FFFB2B;}
	.st173{fill:#FFE32B;}
	.st174{fill:#FFD82B;}
</style><circle class="st98" cx="45" cy="45" r="45"/><path class="st135" d="M66,28c-0.5522461,0-1-0.4477539-1-1v-3.6972656l-3.8320313-5.7480469  c-0.3061523-0.4594727-0.1821289-1.0805664,0.2773438-1.3867188c0.4594727-0.3081055,1.0800781-0.1821289,1.3867188,0.2773438  L67,22.6972656V27C67,27.5522461,66.5522461,28,66,28z"/><rect class="st136" height="18" width="24" x="28" y="22.0299683"/><polygon class="st137" points="28,40.0299683 52,22.0299683 52,40.0299683 "/><path class="st138" d="M32.4633064,27.7531738L32.4633064,27.7531738c0.3278999-0.2231369,0.7722092-0.1569138,1.0207863,0.1521473  l8.8384018,12.0946484L40,41.5804405l-7.7697601-12.821867C32.0339622,28.4139271,32.1354103,27.9763107,32.4633064,27.7531738z"/><path class="st108" d="M64,59.9997864c-2.2055664,0-4-1.7944336-4-4v-15c0-0.5512695-0.4487305-1-1-1h-4  c-0.5522461,0-1-0.4477539-1-1s0.4477539-1,1-1h4c1.6542969,0,3,1.3457031,3,3v15c0,1.1030273,0.8969727,2,2,2s2-0.8969727,2-2  V29.9699993c0-0.5522461,0.4477539-1,1-1s1,0.4477539,1,1v26.0297871C68,58.2053528,66.2055664,59.9997864,64,59.9997864z"/><path class="st141" d="M51,18.9999676H29c-2.2091064,0-4,1.7908936-4,4v48h30v-48  C55,20.7908611,53.2091064,18.9999676,51,18.9999676z M51,38.9999695H29V22.9999676h22V38.9999695z"/><rect class="st19" height="4" width="30" x="25" y="67"/><path class="st153" d="M40.0001945,45C38.5003929,47.9073982,34,50.8175011,34,55.1814995  C34,58.3935013,36.6875954,61,40.0001945,61C43.3133965,61,46,58.3935013,46,55.1814995  C46,50.8175011,41.5005951,47.9073982,40.0001945,45L40.0001945,45z"/><path class="st141" d="M60,27.9999676v5.0000019c0,1.6568527,1.3431473,3,3,3h5V24.9999676h-5  C61.3431473,24.9999676,60,26.3431149,60,27.9999676z M65,33.9999695h-2v-4.0000019h2V33.9999695z"/><path class="st141" d="M69,31.9999676h-2l-1-5l2-2l2,2v4C70,31.5522537,69.5522842,31.9999676,69,31.9999676z"/></svg>