<?xml version="1.0" ?><!DOCTYPE svg  PUBLIC '-//W3C//DTD SVG 1.0//EN'  'http://www.w3.org/TR/2001/REC-SVG-20010904/DTD/svg10.dtd'><svg height="110px" style="enable-background:new 0 0 110 110;" version="1.0" viewBox="0 0 110 110" width="110px" xml:space="preserve" xmlns="http://www.w3.org/2000/svg" xmlns:xlink="http://www.w3.org/1999/xlink"><g id="Artboard"/><g id="Multicolor"><circle cx="55" cy="55" r="55" style="fill:#32BEA6;"/><g><g><path d="M36.996,41.601c3.178-3.476,8.304-4.362,12.464-2.153c4.16,2.208,6.298,6.951,5.199,11.53     l-4.398,16.314c-0.634,2.351-2.304,4.286-4.537,5.256c-2.234,0.97-4.787,0.87-6.938-0.272l-10.537-5.594     c-2.151-1.142-3.664-3.201-4.112-5.594c-0.448-2.393,0.219-4.861,1.811-6.703L36.996,41.601z" style="fill:#3E3E3F;"/></g><g><path d="M36.996,41.601L25.948,54.384c-1.593,1.842-2.259,4.31-1.811,6.703     c0.448,2.393,1.961,4.453,4.112,5.594l4.98,2.644l16.139-29.921C45.225,37.256,40.151,38.15,36.996,41.601z" style="fill:#5B5C5F;"/></g><g><g><path d="M49.999,42.002c-0.974,0-1.945-0.242-2.809-0.701c-1.416-0.752-2.454-2.009-2.923-3.542      c-0.47-1.532-0.314-3.156,0.437-4.571C45.747,31.221,47.78,30,50.008,30c0.973,0,1.944,0.243,2.809,0.701      c1.416,0.752,2.454,2.009,2.923,3.542c0.47,1.532,0.314,3.156-0.437,4.571C54.259,40.781,52.226,42.002,49.999,42.002z       M50.008,32c-1.486,0-2.842,0.814-3.538,2.125c-0.501,0.944-0.604,2.026-0.292,3.047s1.005,1.86,1.949,2.361      c0.585,0.311,1.215,0.468,1.872,0.468c1.486,0,2.841-0.814,3.537-2.125c0.501-0.944,0.604-2.026,0.292-3.047      s-1.005-1.86-1.949-2.361C51.294,32.157,50.664,32,50.008,32z" style="fill:#E2E4E5;"/></g></g><g><path d="M54.359,45.147c-0.838-2.386-2.544-4.449-4.899-5.7c-2.355-1.25-5.02-1.507-7.466-0.865     l-9.97,18.781c-1.036,1.951-0.294,4.373,1.657,5.409l5.3,2.813c1.951,1.036,4.373,0.294,5.409-1.657L54.359,45.147z" style="fill:#5B5C5F;"/></g><g><path d="M77.645,62.527l-4.084,1.42l5.872,16.881l1.914,1.865c0.293,0.286,0.723,0.381,1.11,0.247     c0.387-0.135,0.664-0.476,0.717-0.882l0.344-2.65L77.645,62.527z" style="fill:#FFFFFF;"/></g><path d="M72.605,37.038c-0.469-1.532-1.508-2.79-2.923-3.542c-0.569-0.302-1.186-0.5-1.818-0.607    c-0.033-3.132-1.732-6.152-4.687-7.721c-1.272-0.675-2.701-1.032-4.133-1.032c-3.279,0-6.269,1.797-7.805,4.69    c-1.105,2.083-1.334,4.472-0.643,6.727c0.691,2.255,2.219,4.106,4.302,5.211c1.272,0.675,2.701,1.032,4.133,1.032    c0.851,0,1.68-0.126,2.471-0.356c0.552,1.125,1.425,2.055,2.554,2.655c0.864,0.459,1.835,0.701,2.809,0.701    c2.228,0,4.26-1.222,5.304-3.188C72.92,40.194,73.075,38.57,72.605,37.038z M62.885,38.592c0.029-0.577,0.171-1.146,0.45-1.671    c0.479-0.902,1.274-1.561,2.205-1.889c-0.123,0.386-0.276,0.767-0.472,1.137C64.54,37.164,63.78,37.979,62.885,38.592z     M55.835,38.998c-1.611-0.855-2.792-2.287-3.327-4.031c-0.534-1.744-0.358-3.592,0.498-5.203c1.188-2.238,3.502-3.628,6.039-3.628    c1.106,0,2.211,0.276,3.195,0.799c2.28,1.21,3.593,3.539,3.624,5.955c-1.818,0.309-3.411,1.429-4.294,3.093    c-0.586,1.104-0.804,2.333-0.652,3.548c-0.605,0.173-1.238,0.267-1.887,0.267C57.925,39.797,56.82,39.521,55.835,38.998z     M70.402,40.671c-0.696,1.311-2.051,2.125-3.537,2.125c-1.463,0-2.833-0.807-3.53-2.131c1.457-0.813,2.686-2.026,3.5-3.559    c0.382-0.72,0.645-1.47,0.813-2.229c1.501,0.298,2.624,1.373,3.045,2.746C71.006,38.646,70.903,39.728,70.402,40.671z" style="fill:#CFD3D4;"/><g><path d="M67.125,44.95c-0.181-0.522,0.094-1.092,0.616-1.273l1.889-0.657     c0.522-0.181,1.092,0.094,1.273,0.616l0.657,1.889c0.181,0.522-0.094,1.092-0.616,1.273l-1.889,0.657     c-0.522,0.181-1.092-0.094-1.273-0.616L67.125,44.95z" style="fill:#FFFFFF;"/></g><g><path d="M75.603,63.237l-2.042,0.71l5.872,16.881l1.914,1.865c0.293,0.286,0.723,0.381,1.11,0.247h0     L75.603,63.237z" style="fill:#CFD3D4;"/></g><g><path d="M63.436,54.709c-1.025-2.09-0.409-4.618,1.467-5.997c2.999-2.204,6.358-3.372,10.077-3.505     c2.332-0.083,4.378,1.512,4.872,3.793l2.121,9.781c0.258,1.189-0.412,2.384-1.562,2.784l-9.616,3.345     c-1.15,0.4-2.417-0.121-2.952-1.214L63.436,54.709z" style="fill:#3E3E3F;"/></g><g><ellipse cx="73.223" cy="56.393" rx="4.324" ry="2.162" style="fill:#9E9FA0;" transform="matrix(0.9445 -0.3285 0.3285 0.9445 -14.462 27.1847)"/></g><g><path d="M63.177,25.168c-1.272-0.675-2.701-1.032-4.133-1.032c-3.279,0-6.269,1.797-7.805,4.69     c-1.105,2.083-1.334,4.472-0.643,6.727c0.69,2.251,2.215,4.1,4.293,5.206l1.507-1.506c-0.189-0.08-0.378-0.158-0.56-0.255     c-1.611-0.855-2.792-2.287-3.327-4.031c-0.534-1.744-0.358-3.592,0.498-5.203c1.188-2.238,3.502-3.628,6.039-3.628     c1.106,0,2.211,0.276,3.195,0.799c1.445,0.767,2.5,1.983,3.088,3.385l1.5-1.5C66.031,27.315,64.791,26.025,63.177,25.168z" style="fill:#E2E4E5;"/></g><g><path d="M41.994,38.583l-9.97,18.78c-1.036,1.951-0.294,4.373,1.657,5.409l2.396,1.272l13.291-24.64     C47.035,38.195,44.408,37.949,41.994,38.583z" style="fill:#9E9FA0;"/></g><g><path d="M46.897,52.805c-0.259,0.488-0.864,0.673-1.352,0.414l-5.3-2.813     c-0.488-0.259-0.673-0.864-0.414-1.352l1.407-2.65c0.259-0.488,0.864-0.673,1.352-0.414l5.3,2.813     c0.488,0.259,0.673,0.864,0.414,1.352L46.897,52.805z" style="fill:#F0F1F1;"/></g><g><path d="M42.677,60.755c-0.259,0.488-0.864,0.673-1.352,0.414l-5.3-2.813     c-0.488-0.259-0.673-0.864-0.414-1.352l1.407-2.65c0.259-0.488,0.864-0.673,1.352-0.414l5.3,2.813     c0.488,0.259,0.673,0.864,0.414,1.352L42.677,60.755z" style="fill:#F0F1F1;"/></g></g></g></svg>