<?xml version="1.0" ?><!DOCTYPE svg  PUBLIC '-//W3C//DTD SVG 1.1//EN'  'http://www.w3.org/Graphics/SVG/1.1/DTD/svg11.dtd'><svg enable-background="new 0 0 512 512" id="Layer_1" version="1.1" viewBox="0 0 512 512" xml:space="preserve" xmlns="http://www.w3.org/2000/svg" xmlns:xlink="http://www.w3.org/1999/xlink"><g><g><circle cx="256" cy="256" fill="#6EB1E1" r="254.5"/></g><g><g><path d="M40.6,264.8h-6.2v10.5h-4.9l2.1,26.8c0,0,10.7,4.9,23.9,4.9s79.1,0,79.1,0L40.6,264.8z" fill="#333842"/></g><g><polygon fill="#080708" points="184.8,265.8 170.4,312.6 93.6,299.3 83.5,281.3 110.1,242.4 164.9,246.8 178.4,258.7    "/></g><g><polygon fill="#A0A0A0" points="96.9,223.7 60.4,227.7 47.7,205.7 52.1,204.3 58.4,192.9    "/></g><g><polygon fill="#6EB1E1" points="107.3,218.8 58.4,190.1 47.7,205.7 50.1,207.2 58.4,195.3 96.9,223.7    "/></g><g><polygon fill="#F1F3F7" points="58.4,190.1 47.7,205.7 31.9,205.7 40.8,190.1    "/></g><g><polygon fill="#BDBDBE" points="47.7,205.7 50.1,207.2 35,207.2 31.9,205.7    "/></g><g><path d="M60.4,227.7l132.8-31.1c0,0,34.8-5.6,54.4,0s81.2,39.8,81.2,39.8L200,253.2L60.4,227.7z" fill="#F1F3F7"/></g><g><path d="M478.5,285.7l4.1-4.8l-59.8-38.3l-79.5-10.2l-30.5,1.8l-37.1,4.2l-135.8-16.7l-79.5,6l-20.3,34.7     c0,0,3,16.7,11.4,25.1c3.2,3.2,21.1,7.6,42.1,11.8c-1.1-3.5-1.7-7.3-1.7-11.2c0-21.6,17.5-39.2,39.2-39.2     c21.6,0,39.2,17.5,39.2,39.2v24.5c0.1,0,0.2,0,0.2,0h312.2l-4.1-5.4V285.7z" fill="#F0582F"/></g><g><g><path d="M227.9,313c-0.4-0.4-37.4-40.2-49.4-60.1c-4-6.6-5-12.3-3.1-17c2.8-6.8,10.8-8.9,11.1-9l0.3,1.2      c-0.1,0-7.7,2-10.3,8.3c-1.8,4.3-0.8,9.7,3,15.9c12,19.8,48.9,59.5,49.3,59.9L227.9,313z" fill="#D54232"/></g></g><g><polygon fill="#B5261C" points="186.8,263.9 168.4,262.2 186.8,289.7 208.8,290.7    "/></g><g><path d="M334.6,246.4l17.3,2.6c0,0-15.6,15.3-22.1,15.8s-128-12.4-128-12.4s116.7,8.7,119.4,7.7     C323.7,259.1,334.6,246.4,334.6,246.4z" fill="#B5261C"/></g><g><g><path d="M302.2,312.7l-1.2-0.3c0.1-0.4,11.3-42.8,11-56.8c-0.2-13.7-18.9-18.5-19.1-18.5l0.3-1.2      c0.2,0,19.8,5.1,20,19.7C313.6,269.8,302.7,311,302.2,312.7z" fill="#D54232"/></g></g><g><path d="M368.9,272.8l-2.7,6.8c0,0-8.1-5.2-11.4,0s-22.3,27.4-28.5,27.6c-6.2,0.1-149.3-5-149.3-5     s145.7,2.4,150.1-1.1c4.3-3.5,22-27.4,26.1-29.6S368.9,272.8,368.9,272.8z" fill="#B5261C"/></g><g><polygon fill="#333842" points="482.6,280.9 466,280.9 470.7,295.9 467.5,295.9 449.7,280.9 446.7,281.9 464.6,305.5      453.9,304.6 454.6,312.6 482.6,312.6 478.5,307.2 478.5,285.7    "/></g><g><path d="M422.8,242.6l-19.7,3.7c0,0,19.4,1.9,31.3,15.7c11.9,13.8,18.8,17.5,18.8,17.5l29.5,1.4L422.8,242.6z" fill="#D54232"/></g><g><path d="M60.4,227.7c0,0,10.3,0.1,8.5,2.5s-18.5,20-21.2,19L60.4,227.7z" fill="#333842"/></g><g><path d="M137.7,216.8c0,0,61.2-18,86.6-15.8s76.5,35.4,76.5,35.4l-53.4,8.8L137.7,216.8z" fill="#6EB1E1"/></g><g><path d="M249,197l-5.3,3.8l62.8,34.1l17.3-1.2C309.1,225.7,266.2,202.6,249,197z" fill="#4485C5"/></g><g><path d="M439.4,288.1c0-21.6-17.5-39.2-39.2-39.2c-21.6,0-39.2,17.5-39.2,39.2c0,4.3,0.7,8.3,1.9,12.2l0,0     l4.1,12.3h72.3V288.1z" fill="#080708"/></g><g><circle cx="131.1" cy="288.1" fill="#4F5565" r="33.8"/></g><g><circle cx="131.1" cy="288.1" fill="#DEDEDF" r="23.2"/></g><g><circle cx="131.1" cy="288.1" fill="#646B79" r="8.1"/></g><g><g><path d="M135.9,277.6c0-5.4-4.4-9.7-9.7-9.7C126.2,273.3,130.6,277.6,135.9,277.6z" fill="#4F5565"/></g><g><path d="M126.2,298.5c0,5.4,4.4,9.7,9.7,9.7C135.9,302.9,131.6,298.5,126.2,298.5z" fill="#4F5565"/></g><g><path d="M141.5,292.9c5.4,0,9.7-4.4,9.7-9.7C145.9,283.2,141.5,287.6,141.5,292.9z" fill="#4F5565"/></g><g><path d="M120.6,283.2c-5.4,0-9.7,4.4-9.7,9.7C116.3,292.9,120.6,288.6,120.6,283.2z" fill="#4F5565"/></g><g><path d="M127.1,277.2c-3.8-3.8-10-3.8-13.8,0C117.2,281.1,123.3,281.1,127.1,277.2z" fill="#4F5565"/></g><g><path d="M135,298.9c3.8,3.8,10,3.8,13.8,0C145,295.1,138.8,295.1,135,298.9z" fill="#4F5565"/></g><g><path d="M141.9,270.4c-3.8,3.8-3.8,10,0,13.8C145.7,280.3,145.7,274.2,141.9,270.4z" fill="#4F5565"/></g><g><path d="M120.3,305.8c3.8-3.8,3.8-10,0-13.8C116.5,295.8,116.5,302,120.3,305.8z" fill="#4F5565"/></g></g><g><g><circle cx="400.2" cy="288.1" fill="#4F5565" r="33.8"/></g><g><circle cx="400.2" cy="288.1" fill="#DEDEDF" r="23.2"/></g><g><circle cx="400.2" cy="288.1" fill="#646B79" r="8.1"/></g><g><g><path d="M405.1,277.6c0-5.4-4.4-9.7-9.7-9.7C395.3,273.3,399.7,277.6,405.1,277.6z" fill="#4F5565"/></g><g><path d="M395.3,298.5c0,5.4,4.4,9.7,9.7,9.7C405.1,302.9,400.7,298.5,395.3,298.5z" fill="#4F5565"/></g><g><path d="M410.6,292.9c5.4,0,9.7-4.4,9.7-9.7C415,283.2,410.6,287.6,410.6,292.9z" fill="#4F5565"/></g><g><path d="M389.8,283.2c-5.4,0-9.7,4.4-9.7,9.7C385.4,292.9,389.8,288.6,389.8,283.2z" fill="#4F5565"/></g><g><path d="M396.3,277.2c-3.8-3.8-10-3.8-13.8,0C386.3,281.1,392.5,281.1,396.3,277.2z" fill="#4F5565"/></g><g><path d="M404.1,298.9c3.8,3.8,10,3.8,13.8,0C414.1,295.1,407.9,295.1,404.1,298.9z" fill="#4F5565"/></g><g><path d="M411,270.4c-3.8,3.8-3.8,10,0,13.8C414.8,280.3,414.8,274.2,411,270.4z" fill="#4F5565"/></g><g><path d="M389.4,305.8c3.8-3.8,3.8-10,0-13.8C385.6,295.8,385.6,302,389.4,305.8z" fill="#4F5565"/></g></g></g></g></g></svg>