<?xml version="1.0" ?><!DOCTYPE svg  PUBLIC '-//W3C//DTD SVG 1.1//EN'  'http://www.w3.org/Graphics/SVG/1.1/DTD/svg11.dtd'><svg height="512px" id="Layer_1" style="enable-background:new 0 0 512 512;" version="1.1" viewBox="0 0 512 512" width="512px" xml:space="preserve" xmlns="http://www.w3.org/2000/svg" xmlns:xlink="http://www.w3.org/1999/xlink"><style type="text/css">
<![CDATA[
	.st0{fill:#474441;}
	.st1{fill:#AB908C;}
	.st2{fill:#7C5B4D;}
	.st3{fill:#48A1AF;}
	.st4{fill:#7CBCBF;}
	.st5{fill:#494949;}
	.st6{fill:#ADDDE9;}
	.st7{fill:#7F7F7F;}
	.st8{fill:#AECF00;}
	.st9{fill:#E0AE55;}
	.st10{fill:#E0B896;}
	.st11{fill:#E0DCCE;}
	.st12{fill:#E17A2D;}
	.st13{fill:#E20E64;}
	.st14{fill:#E28A79;}
	.st15{fill:#E29898;}
	.st16{fill:#E2BB9A;}
	.st17{fill:#E2C796;}
	.st18{fill:#E2CB23;}
	.st19{fill:#E2DECF;}
	.st20{fill:#E2E2E2;}
	.st21{fill:#E4F2F4;}
	.st22{fill:#4ABC96;}
	.st23{fill:#E5DFE3;}
	.st24{fill:#E5E1DA;}
	.st25{fill:#4C4C4C;}
	.st26{fill:#E8B1A0;}
	.st27{fill:#E8C7AF;}
	.st28{fill:#E8CEA7;}
	.st29{fill:#E8DCCA;}
	.st30{fill:#E8E3CD;}
	.st31{fill:#E8E3D1;}
	.st32{fill:#E8E6E6;}
	.st33{fill:#E9C29C;}
	.st34{fill:#4F4E4E;}
	.st35{fill:#806C69;}
	.st36{fill:#B28766;}
	.st37{fill:#B29952;}
	.st38{fill:#B2B1B1;}
	.st39{fill:#83CCC6;}
	.st40{fill:#B4222D;}
	.st41{fill:#B5805D;}
	.st42{fill:#B6D9DF;}
	.st43{fill:#EABC60;}
	.st44{fill:#EAE8E4;}
	.st45{fill:#EAEAEA;}
	.st46{fill:#EB9783;}
	.st47{fill:#B7B7B7;}
	.st48{fill:#88D67B;}
	.st49{fill:#89887D;}
	.st50{fill:#EDBF77;}
	.st51{fill:#EDC2A2;}
	.st52{fill:#EDC92F;}
	.st53{fill:#EDE6DD;}
	.st54{fill:#515151;}
	.st55{fill:#EFE4DC;}
	.st56{fill:#EFE8DF;}
	.st57{fill:#535454;}
	.st58{opacity:0.5;fill:#90F47F;}
	.st59{fill:#565656;}
	.st60{fill:#BA8E68;}
	.st61{fill:#BC2A3C;}
	.st62{fill:#BC9DC6;}
	.st63{fill:#8D6956;}
	.st64{fill:#BF2244;}
	.st65{fill:#BFB89D;}
	.st66{fill:#F25872;}
	.st67{fill:#F2EDF1;}
	.st68{fill:#F2F2F2;}
	.st69{fill:#F4CCB0;}
	.st70{fill:#F4E028;}
	.st71{fill:#F5EFD8;}
	.st72{fill:#5B4F3F;}
	.st73{fill:#5B5B5B;}
	.st74{fill:#F7CD84;}
	.st75{fill:#F7F1ED;}
	.st76{fill:#F7F3F0;}
	.st77{fill:#F7F3F2;}
	.st78{fill:#F7F9F9;}
	.st79{fill:#5E5E5E;}
	.st80{fill:#5E9B0E;}
	.st81{fill:#F9EDF3;}
	.st82{fill:#F9F4EF;}
	.st83{fill:#5F4744;}
	.st84{fill:#5F6060;}
	.st85{fill:#917751;}
	.st86{fill:#91C7CF;}
	.st87{fill:#C1A857;}
	.st88{fill:#C1C1C1;}
	.st89{fill:#937341;}
	.st90{fill:#C4BC99;}
	.st91{fill:#C6C6C6;}
	.st92{fill:#2D2D2D;}
	.st93{fill:#99774A;}
	.st94{fill:#99937F;}
	.st95{fill:#C9936B;}
	.st96{fill:#C9C3AD;}
	.st97{fill:#C9F4EC;}
	.st98{opacity:0.8;}
	.st99{fill:#608C13;}
	.st100{fill:#61994D;}
	.st101{fill:#FFB357;}
	.st102{fill:#FFFFFF;}
	.st103{fill:#666666;}
	.st104{fill:#9ACCC2;}
	.st105{fill:#CC9679;}
	.st106{fill:#CCC6B4;}
	.st107{fill:#CCC8B8;}
	.st108{fill-rule:evenodd;clip-rule:evenodd;fill:#5E4F63;}
	.st109{fill:#9E835A;}
	.st110{fill:#306A87;}
	.st111{fill:#CE0658;}
	.st112{fill:#CE8C78;}
	.st113{fill:#CE9D4E;}
	.st114{fill:#CEA98D;}
	.st115{fill:#CEC8C0;}
	.st116{fill:#333333;}
	.st117{fill:#6B6B6B;}
	.st118{fill:#6BBBC1;}
	.st119{fill:#6DB4BF;}
	.st120{fill:#6FA519;}
	.st121{fill:#D10566;}
	.st122{fill:#D1AB8F;}
	.st123{fill:#D37866;}
	.st124{fill:#D3AB8D;}
	.st125{fill:#D3AE92;}
	.st126{fill:#D3CCA7;}
	.st127{fill:#3A3A3A;}
	.st128{fill:#D6BC50;}
	.st129{fill:#D89A82;}
	.st130{fill:#D8AF91;}
	.st131{fill:#D8D8D8;}
	.st132{fill:#3F3F3F;}
	.st133{fill:#707070;}
	.st134{fill:#70B1B7;}
	.st135{fill:#A076AB;}
	.st136{fill:#72CC5E;}
	.st137{fill:#A31D2D;}
	.st138{fill:#A3D5E0;}
	.st139{fill:#A58763;}
	.st140{fill:#DACF9F;}
	.st141{fill:#A77F64;}
	.st142{fill:#DB1675;}
	.st143{fill:#DB9A83;}
	.st144{fill:#A7D8CF;}
	.st145{fill:#DBB595;}
	.st146{fill:#78C1BA;}
	.st147{fill:#DBC565;}
	.st148{fill:#DBD8C6;}
	.st149{fill:#DBDDDD;}
	.st150{fill:#DD8F8C;}
	.st151{fill:#DDDCDB;}
	.st152{fill:#DEFCF8;}
	.st153{fill:#444444;}
]]>
</style><g><g><g><g><path class="st14" d="M504.079,256.006c0-137.022-111.07-248.082-248.076-248.082c-137.012,0-248.083,111.06-248.083,248.082      c0,137.001,111.07,248.07,248.083,248.07C393.009,504.076,504.079,393.007,504.079,256.006z"/></g></g></g><polygon class="st16" points="306.614,438.622 204.383,438.622 217.75,359.127 294.247,359.127  "/><path class="st16" d="M401.403,416c0,0-71.682-16.355-144.531-16.355c-72.85,0-143.279,16.355-143.279,16.355   c-12.827,0-24.078,7.996-30.449,17.917c44.646,43.381,105.552,70.118,172.712,70.157c0.265,0,0.528-0.005,0.793-0.006   c67.864-0.173,129.318-27.598,174.008-71.908C424.129,423.069,413.464,416,401.403,416z"/><ellipse class="st16" cx="349.299" cy="259.383" rx="9" ry="21.749"/><ellipse class="st16" cx="162.309" cy="259.383" rx="9" ry="21.749"/><g><g><path class="st33" d="M356.426,217c0,32.4-9.053,86.771-23.345,110c-12.51,20.333-48.162,54.716-76.839,54.716     c-28.677,0-64.88-37.716-76.249-53.795C164.131,305.486,156.06,249.833,156.06,217c0-73.215,44.855-100.491,100.183-100.491     C311.577,116.509,356.426,143.785,356.426,217z"/></g></g><g><g><path class="st104" d="M257,63.715c0,0-63.326,13.873-93,60.285c-30.497,47.701-18.616,110.635-11,132.5c2.124,6.096,6,2,6,2     s52.796-36.758,98-83.75V63.715z"/><path class="st144" d="M254.247,55.893C273.971,63.427,308.348,73.006,344,115c35.653,41.994,14.5,137,14.5,137     s-63-26-101.5-77.25c0,0-13.153-39.037-14.751-64.609C240.748,86.142,240.442,50.619,254.247,55.893z"/><g><g><g><path class="st136" d="M330.059,253.135c0,16.214-14.318,29.351-31.929,29.351c-17.614,0-31.883-13.137-31.883-29.351        c0-16.222,14.27-29.385,31.883-29.385C315.741,223.75,330.059,236.914,330.059,253.135z"/><path class="st48" d="M325.95,253.133c0,14.126-12.475,25.571-27.817,25.571c-15.345,0-27.777-11.444-27.777-25.571        c0-14.132,12.432-25.601,27.777-25.601C313.475,227.532,325.95,239,325.95,253.133z"/><path class="st58" d="M310.54,253.125c0,6.295-5.559,11.395-12.396,11.395c-6.838,0-12.378-5.1-12.378-11.395        c0-6.298,5.54-11.408,12.378-11.408C304.981,241.717,310.54,246.827,310.54,253.125z"/></g><polygon class="st58" points="322.5,251.5 304.134,251.5 317.121,238.513 313.821,235.213 300.833,248.2 300.833,229.833        296.167,229.833 296.167,248.2 283.18,235.212 279.88,238.512 292.867,251.5 274.5,251.5 274.5,256.166 292.868,256.166        279.88,269.154 283.18,272.454 296.167,259.466 296.167,277.833 300.833,277.833 300.833,259.466 313.821,272.453        317.121,269.154 304.133,256.166 322.5,256.166      "/></g><g><g><path class="st136" d="M246.059,253.135c0,16.214-14.318,29.351-31.929,29.351c-17.614,0-31.883-13.137-31.883-29.351        c0-16.222,14.27-29.385,31.883-29.385C231.741,223.75,246.059,236.914,246.059,253.135z"/><path class="st48" d="M241.95,253.133c0,14.126-12.475,25.571-27.817,25.571c-15.345,0-27.777-11.444-27.777-25.571        c0-14.132,12.432-25.601,27.777-25.601C229.475,227.532,241.95,239,241.95,253.133z"/><path class="st58" d="M226.54,253.125c0,6.295-5.559,11.395-12.396,11.395c-6.838,0-12.378-5.1-12.378-11.395        c0-6.298,5.54-11.408,12.378-11.408C220.981,241.717,226.54,246.827,226.54,253.125z"/></g><polygon class="st58" points="238.5,251.5 220.134,251.5 233.121,238.513 229.821,235.213 216.833,248.2 216.833,229.833        212.167,229.833 212.167,248.2 199.18,235.212 195.88,238.512 208.867,251.5 190.5,251.5 190.5,256.166 208.868,256.166        195.88,269.154 199.18,272.454 212.167,259.466 212.167,277.833 216.833,277.833 216.833,259.466 229.821,272.453        233.121,269.154 220.133,256.166 238.5,256.166      "/></g></g></g></g><g><polygon class="st102" points="255.978,335.867 228.963,329.31 256.357,328.257 283.751,329.31   "/><path class="st112" d="M284.413,329.5c0,0-18.924,3.704-28.055,3.704s-28.442-3.704-28.442-3.704s9.8,16.64,28.443,16.64    C275.001,346.14,284.413,329.5,284.413,329.5z"/><path class="st143" d="M284.413,329.5c0,0-17.4,1.111-28.055,1.111c-10.654,0-28.443-1.111-28.443-1.111s7.897-7.14,14.746-7.14    c6.848,0,13.697,1.712,13.697,1.712s6.847-1.712,13.696-1.712C276.903,322.36,284.413,329.5,284.413,329.5z"/><path class="st26" d="M232.157,328.657c0,0,5.841-8.367,17.275-3.394L232.157,328.657z"/></g><g><path class="st130" d="M262.325,256.302l3.303,33.033c0,0,9.634,6.882,1.927,14.314c0,0,14.039-2.753,0.275-15.415    L262.325,256.302z"/><path class="st10" d="M249.929,256.302l-3.304,33.033c0,0-9.634,6.882-1.927,14.314c0,0-14.039-2.753-0.275-15.415    L249.929,256.302z"/></g></g></svg>