<?xml version="1.0" ?><!DOCTYPE svg  PUBLIC '-//W3C//DTD SVG 1.1//EN'  'http://www.w3.org/Graphics/SVG/1.1/DTD/svg11.dtd'><svg height="512px" id="Layer_1" style="enable-background:new 0 0 512 512;" version="1.1" viewBox="0 0 512 512" width="512px" xml:space="preserve" xmlns="http://www.w3.org/2000/svg" xmlns:xlink="http://www.w3.org/1999/xlink"><style type="text/css">
<![CDATA[
	.st0{fill:#474441;}
	.st1{fill:#AB908C;}
	.st2{fill:#7C5B4D;}
	.st3{fill:#48A1AF;}
	.st4{fill:#7CBCBF;}
	.st5{fill:#494949;}
	.st6{fill:#ADDDE9;}
	.st7{fill:#7F7F7F;}
	.st8{fill:#AECF00;}
	.st9{fill:#E0AE55;}
	.st10{fill:#E0B896;}
	.st11{fill:#E0DCCE;}
	.st12{fill:#E17A2D;}
	.st13{fill:#E20E64;}
	.st14{fill:#E28A79;}
	.st15{fill:#E29898;}
	.st16{fill:#E2BB9A;}
	.st17{fill:#E2C796;}
	.st18{fill:#E2CB23;}
	.st19{fill:#E2DECF;}
	.st20{fill:#E2E2E2;}
	.st21{fill:#E4F2F4;}
	.st22{fill:#4ABC96;}
	.st23{fill:#E5DFE3;}
	.st24{fill:#E5E1DA;}
	.st25{fill:#4C4C4C;}
	.st26{fill:#E8B1A0;}
	.st27{fill:#E8C7AF;}
	.st28{fill:#E8CEA7;}
	.st29{fill:#E8DCCA;}
	.st30{fill:#E8E3CD;}
	.st31{fill:#E8E3D1;}
	.st32{fill:#E8E6E6;}
	.st33{fill:#E9C29C;}
	.st34{fill:#4F4E4E;}
	.st35{fill:#806C69;}
	.st36{fill:#B28766;}
	.st37{fill:#B29952;}
	.st38{fill:#B2B1B1;}
	.st39{fill:#83CCC6;}
	.st40{fill:#B4222D;}
	.st41{fill:#B5805D;}
	.st42{fill:#B6D9DF;}
	.st43{fill:#EABC60;}
	.st44{fill:#EAE8E4;}
	.st45{fill:#EAEAEA;}
	.st46{fill:#EB9783;}
	.st47{fill:#B7B7B7;}
	.st48{fill:#88D67B;}
	.st49{fill:#89887D;}
	.st50{fill:#EDBF77;}
	.st51{fill:#EDC2A2;}
	.st52{fill:#EDC92F;}
	.st53{fill:#EDE6DD;}
	.st54{fill:#515151;}
	.st55{fill:#EFE4DC;}
	.st56{fill:#EFE8DF;}
	.st57{fill:#535454;}
	.st58{opacity:0.5;fill:#90F47F;}
	.st59{fill:#565656;}
	.st60{fill:#BA8E68;}
	.st61{fill:#BC2A3C;}
	.st62{fill:#BC9DC6;}
	.st63{fill:#8D6956;}
	.st64{fill:#BF2244;}
	.st65{fill:#BFB89D;}
	.st66{fill:#F25872;}
	.st67{fill:#F2EDF1;}
	.st68{fill:#F2F2F2;}
	.st69{fill:#F4CCB0;}
	.st70{fill:#F4E028;}
	.st71{fill:#F5EFD8;}
	.st72{fill:#5B4F3F;}
	.st73{fill:#5B5B5B;}
	.st74{fill:#F7CD84;}
	.st75{fill:#F7F1ED;}
	.st76{fill:#F7F3F0;}
	.st77{fill:#F7F3F2;}
	.st78{fill:#F7F9F9;}
	.st79{fill:#5E5E5E;}
	.st80{fill:#5E9B0E;}
	.st81{fill:#F9EDF3;}
	.st82{fill:#F9F4EF;}
	.st83{fill:#5F4744;}
	.st84{fill:#5F6060;}
	.st85{fill:#917751;}
	.st86{fill:#91C7CF;}
	.st87{fill:#C1A857;}
	.st88{fill:#C1C1C1;}
	.st89{fill:#937341;}
	.st90{fill:#C4BC99;}
	.st91{fill:#C6C6C6;}
	.st92{fill:#2D2D2D;}
	.st93{fill:#99774A;}
	.st94{fill:#99937F;}
	.st95{fill:#C9936B;}
	.st96{fill:#C9C3AD;}
	.st97{fill:#C9F4EC;}
	.st98{opacity:0.8;}
	.st99{fill:#608C13;}
	.st100{fill:#61994D;}
	.st101{fill:#FFB357;}
	.st102{fill:#FFFFFF;}
	.st103{fill:#666666;}
	.st104{fill:#9ACCC2;}
	.st105{fill:#CC9679;}
	.st106{fill:#CCC6B4;}
	.st107{fill:#CCC8B8;}
	.st108{fill-rule:evenodd;clip-rule:evenodd;fill:#5E4F63;}
	.st109{fill:#9E835A;}
	.st110{fill:#306A87;}
	.st111{fill:#CE0658;}
	.st112{fill:#CE8C78;}
	.st113{fill:#CE9D4E;}
	.st114{fill:#CEA98D;}
	.st115{fill:#CEC8C0;}
	.st116{fill:#333333;}
	.st117{fill:#6B6B6B;}
	.st118{fill:#6BBBC1;}
	.st119{fill:#6DB4BF;}
	.st120{fill:#6FA519;}
	.st121{fill:#D10566;}
	.st122{fill:#D1AB8F;}
	.st123{fill:#D37866;}
	.st124{fill:#D3AB8D;}
	.st125{fill:#D3AE92;}
	.st126{fill:#D3CCA7;}
	.st127{fill:#3A3A3A;}
	.st128{fill:#D6BC50;}
	.st129{fill:#D89A82;}
	.st130{fill:#D8AF91;}
	.st131{fill:#D8D8D8;}
	.st132{fill:#3F3F3F;}
	.st133{fill:#707070;}
	.st134{fill:#70B1B7;}
	.st135{fill:#A076AB;}
	.st136{fill:#72CC5E;}
	.st137{fill:#A31D2D;}
	.st138{fill:#A3D5E0;}
	.st139{fill:#A58763;}
	.st140{fill:#DACF9F;}
	.st141{fill:#A77F64;}
	.st142{fill:#DB1675;}
	.st143{fill:#DB9A83;}
	.st144{fill:#A7D8CF;}
	.st145{fill:#DBB595;}
	.st146{fill:#78C1BA;}
	.st147{fill:#DBC565;}
	.st148{fill:#DBD8C6;}
	.st149{fill:#DBDDDD;}
	.st150{fill:#DD8F8C;}
	.st151{fill:#DDDCDB;}
	.st152{fill:#DEFCF8;}
	.st153{fill:#444444;}
]]>
</style><g><g><g><g><path class="st52" d="M504.079,256.006c0-137.022-111.07-248.082-248.076-248.082c-137.012,0-248.082,111.06-248.082,248.082      c0,137.001,111.07,248.07,248.082,248.07C393.009,504.076,504.079,393.007,504.079,256.006z"/></g></g></g><g><path class="st72" d="M132.042,142.521l-3.396-3.397l42.656-44.392l-5.17-5.17l-69.596,69.594c-8.594,8.594-8.594,22.527,0,31.119    l225.189,225.188c8.592,8.593,22.525,8.593,31.117,0l69.596-69.595l-4.842-4.84l-44.389,42.656l-3.396-3.397l42.654-44.39    l-4.809-4.811l-44.391,42.656l-3.396-3.396l42.656-44.391l-5.025-5.024l-44.391,42.655l-3.396-3.397l42.656-44.39l-4.811-4.811    l-44.389,42.656l-3.398-3.396l42.654-44.389l-5.023-5.027l-44.389,42.657l-3.398-3.396l42.656-44.391l-4.811-4.811l-44.389,42.657    l-3.398-3.398l42.656-44.391l-5.023-5.023l-44.391,42.656l-3.398-3.398l42.656-44.389l-4.809-4.811l-44.391,42.656l-3.396-3.396    l42.656-44.391l-5.025-5.025l-44.391,42.656l-3.396-3.396l42.654-44.391l-4.809-4.811l-44.389,42.656l-3.398-3.396l42.656-44.391    l-5.025-5.023L272.722,283.2l-3.396-3.398l42.656-44.39l-4.811-4.811l-44.389,42.657l-3.398-3.398l42.656-44.391l-5.025-5.023    l-44.389,42.655l-3.398-3.397l42.656-44.391l-4.809-4.809l-44.391,42.656l-3.398-3.396l42.656-44.391l-5.023-5.025l-44.391,42.656    l-3.396-3.396l42.656-44.391l-4.811-4.811l-44.391,42.657l-3.396-3.397l42.656-44.391l-5.025-5.025l-44.391,42.658l-3.396-3.398    l42.654-44.391l-4.809-4.81l-44.389,42.656l-3.398-3.397l42.656-44.39l-5.025-5.026l-44.391,42.657l-3.396-3.396l42.656-44.392    l-4.811-4.809l-44.389,42.656l-3.398-3.398l42.656-44.39l-5.023-5.024l-44.391,42.656l-3.396-3.397l42.656-44.39l-4.811-4.811    l-44.391,42.657l-3.396-3.397l42.656-44.391l-5.027-5.025l-44.389,42.656l-3.396-3.396l42.656-44.391l-4.811-4.811L142.2,152.675    l-3.398-3.396l42.656-44.39l-5.025-5.025L132.042,142.521z"/></g><g><g><g><path class="st131" d="M416.337,168.899c0,0,4.975,10.545-12.033,22.182c-17.01,11.637-139.945,97.971-139.945,97.971      l-19.693-24.27L416.337,168.899z"/><path class="st91" d="M416.829,170.621c0.627,3.45,0.363,11.642-12.525,20.46c-17.01,11.637-139.945,97.971-139.945,97.971      l-18.09-22.293C246.269,266.759,416.628,169.519,416.829,170.621z"/><g><path class="st110" d="M85.325,273.138c-17.797,17.797-18.332,46.12-1.193,63.258c17.139,17.139,45.461,16.604,63.258-1.193       c0,0,27.752-22.975,38.791-30.436c11.041-7.46,23.498-3.356,29.84,0.001c10.143,5.37,20.887,4.177,28.049,0.597       c7.16-3.581,20.289-16.312,20.289-16.312l-19.693-24.27c0,0-18.201,8.654-32.822,15.516       c-11.312,5.312-33.719,10.445-41.178,8.955c-7.461-1.494-14.379-8.97-17.715-12.195c-1.301-1.791-2.756-3.502-4.367-5.113       C131.446,254.806,103.124,255.341,85.325,273.138z M97.261,285.073c10.953-10.951,28.383-11.279,38.928-0.734       c10.547,10.547,10.219,27.977-0.734,38.928c-10.951,10.953-28.381,11.281-38.928,0.734       C85.981,313.456,86.31,296.026,97.261,285.073z"/></g></g></g><g><g><g><path class="st91" d="M351.956,104.519c0,0-10.547-4.975-22.184,12.033c-11.635,17.01-97.969,139.945-97.969,139.945       l24.268,19.691L351.956,104.519z"/><path class="st47" d="M350.126,104.007c-3.512-0.603-11.625-0.212-20.354,12.545c-11.635,17.01-97.969,139.945-97.969,139.945       l21.729,17.632C253.532,274.129,351.296,104.208,350.126,104.007z"/><g><path class="st110" d="M248.909,372.271c-1.609-1.611-3.32-3.065-5.111-4.365c-3.227-3.337-10.703-10.256-12.195-17.715        c-1.492-7.461,3.643-29.865,8.953-41.18c6.861-14.62,15.516-32.822,15.516-32.822l-24.268-19.691        c0,0-12.732,13.128-16.312,20.289c-3.58,7.162-4.775,17.904,0.596,28.049c3.357,6.341,7.459,18.797,0,29.84        c-7.459,11.039-30.436,38.789-30.436,38.789c-17.797,17.797-18.332,46.119-1.193,63.258s45.461,16.604,63.258-1.193        C265.515,417.73,266.048,389.409,248.909,372.271z M196.853,424.327c-10.545-10.547-10.217-27.975,0.734-38.928        c10.953-10.952,28.381-11.279,38.928-0.734c10.545,10.545,10.219,27.976-0.734,38.928        C224.829,434.546,207.399,434.872,196.853,424.327z"/></g></g></g><circle class="st88" cx="239.66" cy="282.454" r="8.296"/><path class="st38" d="M239.659,290.751c-4.582,0-8.297-3.715-8.295-8.297c-0.002-4.582,3.711-8.297,8.295-8.295V290.751z"/></g></g></g></svg>