<?xml version="1.0" ?><!DOCTYPE svg  PUBLIC '-//W3C//DTD SVG 1.1//EN'  'http://www.w3.org/Graphics/SVG/1.1/DTD/svg11.dtd'><svg enable-background="new 0 0 256 256" id="Layer_1" version="1.1" viewBox="0 0 256 256" xml:space="preserve" xmlns="http://www.w3.org/2000/svg" xmlns:xlink="http://www.w3.org/1999/xlink"><g><circle cx="128" cy="128" fill="#38B29A" r="127"/><g><path d="M176.6,53.1L44.8,88.7c-2.4,0.6-3.8,3.1-3.2,5.5l25.1,92.9c0.6,2.4,3.1,3.8,5.5,3.2L204,154.7    c2.4-0.6,3.8-3.1,3.2-5.5l-25.1-92.9C181.5,53.9,179,52.5,176.6,53.1z" fill="#7A656C"/><path d="M71,187.3c-0.6,0-1.1-0.4-1.3-1L44.7,93.4c-0.1-0.5,0-0.8,0.1-1c0.1-0.2,0.3-0.5,0.8-0.6l131.8-35.6    c0.1,0,0.2,0,0.4,0c0.6,0,1.1,0.4,1.3,1l25.1,92.9c0.1,0.5,0,0.8-0.1,1c-0.1,0.2-0.3,0.5-0.8,0.6L71.4,187.2    C71.2,187.3,71.1,187.3,71,187.3z" fill="#110D0E"/><path d="M202.9,90.6H66.3c-2.5,0-4.5,2-4.5,4.5v96.2c0,2.5,2,4.5,4.5,4.5h136.6c2.5,0,4.5-2,4.5-4.5V95.1    C207.4,92.6,205.4,90.6,202.9,90.6z" fill="#635757"/><circle cx="183.6" cy="110.7" fill="#A79998" r="13.6"/><circle cx="183.6" cy="142.4" fill="#A79998" r="13.6"/><circle cx="183.6" cy="174.1" fill="#A79998" r="13.6"/><path d="M83.4,97.1H72.7c-1.8,0-3.3,1.5-3.3,3.3v83.7c0,1.8,1.5,3.3,3.3,3.3h10.6c1.8,0,3.3-1.5,3.3-3.3v-83.7    C86.7,98.6,85.2,97.1,83.4,97.1z" fill="#A79998"/><path d="M72.7,184.4c-0.1,0-0.2-0.1-0.2-0.2v-83.7c0-0.1,0.1-0.2,0.2-0.2h10.6c0.1,0,0.2,0.1,0.2,0.2v83.7    c0,0.1-0.1,0.2-0.2,0.2H72.7z" fill="#211718"/><circle cx="108.1" cy="142.4" fill="#A79998" r="13.6"/><circle cx="108.1" cy="174.1" fill="#A79998" r="13.6"/><circle cx="108.1" cy="110.7" fill="#211718" r="13.6"/><circle cx="108.1" cy="110.7" fill="#211718" r="10.6"/><circle cx="108.1" cy="142.4" fill="#211718" r="10.6"/><circle cx="108.1" cy="110.7" fill="#A79998" r="13.6"/><circle cx="108.1" cy="110.7" fill="#F0ACA9" r="11"/><circle cx="108.1" cy="142.4" fill="#F2CD56" r="11"/><circle cx="108.1" cy="174.1" fill="#E09173" r="11"/><circle cx="183.6" cy="110.7" fill="#39B39B" r="11"/><circle cx="183.6" cy="142.4" fill="#6DB8E0" r="11"/><circle cx="183.6" cy="174.1" fill="#527F99" r="11"/><path d="M162.5,97.1h-33c-1.5,0-2.6,1.1-2.6,2.5v22.1c0,1.4,1.2,2.5,2.6,2.5h33c1.5,0,2.6-1.1,2.6-2.5V99.6    C165.1,98.2,163.9,97.1,162.5,97.1z" fill="#A79998"/><rect fill="#E37D39" height="20.8" width="31.9" x="130" y="100.3"/><path d="M162.5,128.8h-33c-1.5,0-2.6,1.1-2.6,2.5v22.1c0,1.4,1.2,2.5,2.6,2.5h33c1.5,0,2.6-1.1,2.6-2.5v-22.1    C165.1,129.9,163.9,128.8,162.5,128.8z" fill="#A79998"/><rect fill="#D8B43F" height="20.8" width="31.9" x="130" y="132"/><path d="M162.5,160.5h-33c-1.5,0-2.6,1.1-2.6,2.5v22.1c0,1.4,1.2,2.5,2.6,2.5h33c1.5,0,2.6-1.1,2.6-2.5V163    C165.1,161.6,163.9,160.5,162.5,160.5z" fill="#A79998"/><rect fill="#EBA443" height="20.8" width="31.9" x="130" y="163.7"/><path d="M78.2,183L78.2,183c-1.1,0-2.1-0.9-2.1-2.1l-0.8-68.6l5.4,0l-0.5,68.6C80.3,182,79.3,183,78.2,183z" fill="#46454A"/><rect fill="#BD672A" height="2.4" transform="matrix(1 -1.934867e-003 1.934867e-003 1 -0.2149 0.1513)" width="5.4" x="75.4" y="110"/><path d="M81.1,103.7c-1.1-2.7-5.1-2.7-6.2,0c0.1,2.3,0.3,4.4,0.4,6.3c1.8,0,3.6,0,5.4,0    C80.9,108.1,81,106,81.1,103.7z" fill="#F0C949"/></g></g></svg>