<?xml version="1.0" ?><!DOCTYPE svg  PUBLIC '-//W3C//DTD SVG 1.1//EN'  'http://www.w3.org/Graphics/SVG/1.1/DTD/svg11.dtd'><svg height="512px" id="Layer_1" style="enable-background:new 0 0 512 512;" version="1.1" viewBox="0 0 512 512" width="512px" xml:space="preserve" xmlns="http://www.w3.org/2000/svg" xmlns:xlink="http://www.w3.org/1999/xlink"><style type="text/css">
<![CDATA[
	.st0{fill:#474441;}
	.st1{fill:#AB908C;}
	.st2{fill:#7C5B4D;}
	.st3{fill:#48A1AF;}
	.st4{fill:#7CBCBF;}
	.st5{fill:#494949;}
	.st6{fill:#ADDDE9;}
	.st7{fill:#7F7F7F;}
	.st8{fill:#AECF00;}
	.st9{fill:#E0AE55;}
	.st10{fill:#E0B896;}
	.st11{fill:#E0DCCE;}
	.st12{fill:#E17A2D;}
	.st13{fill:#E20E64;}
	.st14{fill:#E28A79;}
	.st15{fill:#E29898;}
	.st16{fill:#E2BB9A;}
	.st17{fill:#E2C796;}
	.st18{fill:#E2CB23;}
	.st19{fill:#E2DECF;}
	.st20{fill:#E2E2E2;}
	.st21{fill:#E4F2F4;}
	.st22{fill:#4ABC96;}
	.st23{fill:#E5DFE3;}
	.st24{fill:#E5E1DA;}
	.st25{fill:#4C4C4C;}
	.st26{fill:#E8B1A0;}
	.st27{fill:#E8C7AF;}
	.st28{fill:#E8CEA7;}
	.st29{fill:#E8DCCA;}
	.st30{fill:#E8E3CD;}
	.st31{fill:#E8E3D1;}
	.st32{fill:#E8E6E6;}
	.st33{fill:#E9C29C;}
	.st34{fill:#4F4E4E;}
	.st35{fill:#806C69;}
	.st36{fill:#B28766;}
	.st37{fill:#B29952;}
	.st38{fill:#B2B1B1;}
	.st39{fill:#83CCC6;}
	.st40{fill:#B4222D;}
	.st41{fill:#B5805D;}
	.st42{fill:#B6D9DF;}
	.st43{fill:#EABC60;}
	.st44{fill:#EAE8E4;}
	.st45{fill:#EAEAEA;}
	.st46{fill:#EB9783;}
	.st47{fill:#B7B7B7;}
	.st48{fill:#88D67B;}
	.st49{fill:#89887D;}
	.st50{fill:#EDBF77;}
	.st51{fill:#EDC2A2;}
	.st52{fill:#EDC92F;}
	.st53{fill:#EDE6DD;}
	.st54{fill:#515151;}
	.st55{fill:#EFE4DC;}
	.st56{fill:#EFE8DF;}
	.st57{fill:#535454;}
	.st58{opacity:0.5;fill:#90F47F;}
	.st59{fill:#565656;}
	.st60{fill:#BA8E68;}
	.st61{fill:#BC2A3C;}
	.st62{fill:#BC9DC6;}
	.st63{fill:#8D6956;}
	.st64{fill:#BF2244;}
	.st65{fill:#BFB89D;}
	.st66{fill:#F25872;}
	.st67{fill:#F2EDF1;}
	.st68{fill:#F2F2F2;}
	.st69{fill:#F4CCB0;}
	.st70{fill:#F4E028;}
	.st71{fill:#F5EFD8;}
	.st72{fill:#5B4F3F;}
	.st73{fill:#5B5B5B;}
	.st74{fill:#F7CD84;}
	.st75{fill:#F7F1ED;}
	.st76{fill:#F7F3F0;}
	.st77{fill:#F7F3F2;}
	.st78{fill:#F7F9F9;}
	.st79{fill:#5E5E5E;}
	.st80{fill:#5E9B0E;}
	.st81{fill:#F9EDF3;}
	.st82{fill:#F9F4EF;}
	.st83{fill:#5F4744;}
	.st84{fill:#5F6060;}
	.st85{fill:#917751;}
	.st86{fill:#91C7CF;}
	.st87{fill:#C1A857;}
	.st88{fill:#C1C1C1;}
	.st89{fill:#937341;}
	.st90{fill:#C4BC99;}
	.st91{fill:#C6C6C6;}
	.st92{fill:#2D2D2D;}
	.st93{fill:#99774A;}
	.st94{fill:#99937F;}
	.st95{fill:#C9936B;}
	.st96{fill:#C9C3AD;}
	.st97{fill:#C9F4EC;}
	.st98{opacity:0.8;}
	.st99{fill:#608C13;}
	.st100{fill:#61994D;}
	.st101{fill:#FFB357;}
	.st102{fill:#FFFFFF;}
	.st103{fill:#666666;}
	.st104{fill:#9ACCC2;}
	.st105{fill:#CC9679;}
	.st106{fill:#CCC6B4;}
	.st107{fill:#CCC8B8;}
	.st108{fill-rule:evenodd;clip-rule:evenodd;fill:#5E4F63;}
	.st109{fill:#9E835A;}
	.st110{fill:#306A87;}
	.st111{fill:#CE0658;}
	.st112{fill:#CE8C78;}
	.st113{fill:#CE9D4E;}
	.st114{fill:#CEA98D;}
	.st115{fill:#CEC8C0;}
	.st116{fill:#333333;}
	.st117{fill:#6B6B6B;}
	.st118{fill:#6BBBC1;}
	.st119{fill:#6DB4BF;}
	.st120{fill:#6FA519;}
	.st121{fill:#D10566;}
	.st122{fill:#D1AB8F;}
	.st123{fill:#D37866;}
	.st124{fill:#D3AB8D;}
	.st125{fill:#D3AE92;}
	.st126{fill:#D3CCA7;}
	.st127{fill:#3A3A3A;}
	.st128{fill:#D6BC50;}
	.st129{fill:#D89A82;}
	.st130{fill:#D8AF91;}
	.st131{fill:#D8D8D8;}
	.st132{fill:#3F3F3F;}
	.st133{fill:#707070;}
	.st134{fill:#70B1B7;}
	.st135{fill:#A076AB;}
	.st136{fill:#72CC5E;}
	.st137{fill:#A31D2D;}
	.st138{fill:#A3D5E0;}
	.st139{fill:#A58763;}
	.st140{fill:#DACF9F;}
	.st141{fill:#A77F64;}
	.st142{fill:#DB1675;}
	.st143{fill:#DB9A83;}
	.st144{fill:#A7D8CF;}
	.st145{fill:#DBB595;}
	.st146{fill:#78C1BA;}
	.st147{fill:#DBC565;}
	.st148{fill:#DBD8C6;}
	.st149{fill:#DBDDDD;}
	.st150{fill:#DD8F8C;}
	.st151{fill:#DDDCDB;}
	.st152{fill:#DEFCF8;}
	.st153{fill:#444444;}
]]>
</style><g><g><g><g><g><path class="st97" d="M504.079,256.006c0-137.022-111.07-248.082-248.076-248.082c-137.012,0-248.082,111.06-248.082,248.082       c0,137.001,111.07,248.07,248.082,248.07C393.009,504.076,504.079,393.007,504.079,256.006z"/></g></g></g></g><g><path class="st33" d="M467.882,126.91c-11.83-19.375-26.25-36.991-42.766-52.389c-9.557-8.91-19.809-17.083-30.682-24.409    c-5.765-3.883-11.708-7.518-17.803-10.917l-65.19-9.889c-1.105,0-4.177-4.337-9.091-17.042    c-15.017-2.839-30.506-4.341-46.348-4.341c-15.134,0-29.949,1.36-44.336,3.955c-4.572,11.979-8.33,17.428-9.424,17.428    l-70.899,12.177c-4.69,2.731-9.288,5.605-13.777,8.629c-5.883,3.963-11.577,8.182-17.087,12.622    c-22.274,17.946-41.389,39.654-56.36,64.174c12.374,11.067,22.906,20.344,30.141,26.679    c10.277,27.672,61.678,174.796,46.192,310.197c38.966,25.471,85.524,40.292,135.551,40.292c50.554,0,97.566-15.136,136.78-41.104    c-16.536-140.062,39.332-290.669,47.433-311.554C447.288,145.214,456.853,136.772,467.882,126.91z"/></g><g><g><g><g><path class="st145" d="M318.646,373.525c0,0-18.691-18.389-24.381-26.282c-2.891-4.04-3.881-14.964-6.422-25.431       c-2.434-10.055-7.293-18.625-5.201-21.257c5.736-7.221,15.961,3.384,16.949,4.711c8.387,11.305,12.744,29.603,12.744,29.603       l14.49,12.921L318.646,373.525z"/></g><polygon class="st145" points="389.845,343.266 316.423,369.266 306.446,302.777 339.517,296.548 365.72,296.617       382.284,298.354     "/><g><path class="st145" d="M323.925,305.344c0.947,5.146-2.018,10.003-6.617,10.851l0,0c-4.611,0.849-9.109-2.635-10.053-7.786       l-11.121-60.459c-0.939-5.143,2.02-10.006,6.627-10.854l0,0c4.6-0.844,9.1,2.643,10.045,7.793L323.925,305.344z"/></g><g><path class="st145" d="M343.983,302.156c0.867,5.164-2.314,9.998-7.113,10.805l0,0c-4.799,0.808-9.393-2.715-10.262-7.881       l-12.66-75.214c-0.869-5.156,2.316-10.003,7.117-10.809l0,0c4.793-0.807,9.387,2.727,10.256,7.887L343.983,302.156z"/></g><g><path class="st145" d="M363.146,298.7c0.801,5.177-2.295,9.946-6.92,10.667l0,0c-4.623,0.721-9.033-2.885-9.83-8.062       l-9.891-63.667c-0.807-5.17,2.297-9.945,6.922-10.664l0,0c4.627-0.721,9.025,2.889,9.832,8.06L363.146,298.7z"/></g><g><path class="st145" d="M382.101,297.605c0.73,5.185-2.217,9.884-6.576,10.498l0,0c-4.361,0.613-8.49-3.092-9.221-8.268       l-4.646-33.026c-0.729-5.182,2.217-9.878,6.574-10.497l0,0c4.359-0.612,8.488,3.092,9.217,8.273L382.101,297.605z"/></g></g></g><g><g><g><path class="st145" d="M389.911,343.648l-1.486-8.824c-1.57-9.341-5.309-11.998-14.648-10.426l-49.045,8.254       c-9.342,1.571-10.453,14.594-8.879,23.934l2.916,17.302c2.416,4.094,7.982,18.217,10.777,17.746l12.525,97.095       c21.091-7.803,40.826-18.393,58.769-31.319l-10.204-76.059C392.147,381.1,391.481,352.988,389.911,343.648z"/><path class="st145" d="M193.231,373.888l2.916-17.302c1.574-9.339,0.463-22.362-8.879-23.934l-49.045-8.254       c-9.34-1.572-13.078,1.085-14.648,10.426l-1.486,8.824c-1.57,9.34-2.236,37.452-0.725,37.703L111.16,457.41       c17.942,12.925,37.679,23.516,58.769,31.318l12.525-97.094C185.249,392.105,190.815,377.982,193.231,373.888z"/></g><g><path class="st145" d="M193.354,373.525c0,0,18.691-18.389,24.381-26.282c2.891-4.04,3.881-14.964,6.422-25.431       c2.434-10.055,7.293-18.625,5.201-21.257c-5.736-7.221-15.961,3.384-16.949,4.711c-8.387,11.305-12.744,29.603-12.744,29.603       l-14.49,12.921L193.354,373.525z"/></g><polygon class="st145" points="122.155,343.266 195.577,369.266 205.554,302.777 172.483,296.548 146.28,296.617       129.716,298.354     "/><g><path class="st145" d="M188.075,305.344c-0.947,5.146,2.018,10.003,6.617,10.851l0,0c4.611,0.849,9.109-2.635,10.053-7.786       l11.121-60.459c0.939-5.143-2.02-10.006-6.627-10.854l0,0c-4.6-0.844-9.1,2.643-10.045,7.793L188.075,305.344z"/></g><g><path class="st145" d="M168.017,302.156c-0.867,5.164,2.314,9.998,7.113,10.805l0,0c4.799,0.808,9.393-2.715,10.262-7.881       l12.66-75.214c0.869-5.156-2.316-10.003-7.117-10.809l0,0c-4.793-0.807-9.387,2.727-10.256,7.887L168.017,302.156z"/></g><g><path class="st145" d="M148.854,298.7c-0.801,5.177,2.295,9.946,6.92,10.667l0,0c4.623,0.721,9.033-2.885,9.83-8.062       l9.891-63.667c0.807-5.17-2.297-9.945-6.922-10.664l0,0c-4.627-0.721-9.025,2.889-9.832,8.06L148.854,298.7z"/></g><g><path class="st145" d="M129.899,297.605c-0.73,5.185,2.217,9.884,6.576,10.498l0,0c4.361,0.613,8.49-3.092,9.221-8.268       l4.646-33.026c0.729-5.182-2.217-9.878-6.574-10.497l0,0c-4.359-0.612-8.488,3.092-9.217,8.273L129.899,297.605z"/></g></g></g></g></g></svg>