<?xml version="1.0" ?><!DOCTYPE svg  PUBLIC '-//W3C//DTD SVG 1.1//EN'  'http://www.w3.org/Graphics/SVG/1.1/DTD/svg11.dtd'><svg height="512px" id="Layer_1" style="enable-background:new 0 0 512 512;" version="1.1" viewBox="0 0 512 512" width="512px" xml:space="preserve" xmlns="http://www.w3.org/2000/svg" xmlns:xlink="http://www.w3.org/1999/xlink"><style type="text/css">
<![CDATA[
	.st0{fill:#474441;}
	.st1{fill:#AB908C;}
	.st2{fill:#7C5B4D;}
	.st3{fill:#48A1AF;}
	.st4{fill:#7CBCBF;}
	.st5{fill:#494949;}
	.st6{fill:#ADDDE9;}
	.st7{fill:#7F7F7F;}
	.st8{fill:#AECF00;}
	.st9{fill:#E0AE55;}
	.st10{fill:#E0B896;}
	.st11{fill:#E0DCCE;}
	.st12{fill:#E17A2D;}
	.st13{fill:#E20E64;}
	.st14{fill:#E28A79;}
	.st15{fill:#E29898;}
	.st16{fill:#E2BB9A;}
	.st17{fill:#E2C796;}
	.st18{fill:#E2CB23;}
	.st19{fill:#E2DECF;}
	.st20{fill:#E2E2E2;}
	.st21{fill:#E4F2F4;}
	.st22{fill:#4ABC96;}
	.st23{fill:#E5DFE3;}
	.st24{fill:#E5E1DA;}
	.st25{fill:#4C4C4C;}
	.st26{fill:#E8B1A0;}
	.st27{fill:#E8C7AF;}
	.st28{fill:#E8CEA7;}
	.st29{fill:#E8DCCA;}
	.st30{fill:#E8E3CD;}
	.st31{fill:#E8E3D1;}
	.st32{fill:#E8E6E6;}
	.st33{fill:#E9C29C;}
	.st34{fill:#4F4E4E;}
	.st35{fill:#806C69;}
	.st36{fill:#B28766;}
	.st37{fill:#B29952;}
	.st38{fill:#B2B1B1;}
	.st39{fill:#83CCC6;}
	.st40{fill:#B4222D;}
	.st41{fill:#B5805D;}
	.st42{fill:#B6D9DF;}
	.st43{fill:#EABC60;}
	.st44{fill:#EAE8E4;}
	.st45{fill:#EAEAEA;}
	.st46{fill:#EB9783;}
	.st47{fill:#B7B7B7;}
	.st48{fill:#88D67B;}
	.st49{fill:#89887D;}
	.st50{fill:#EDBF77;}
	.st51{fill:#EDC2A2;}
	.st52{fill:#EDC92F;}
	.st53{fill:#EDE6DD;}
	.st54{fill:#515151;}
	.st55{fill:#EFE4DC;}
	.st56{fill:#EFE8DF;}
	.st57{fill:#535454;}
	.st58{opacity:0.5;fill:#90F47F;}
	.st59{fill:#565656;}
	.st60{fill:#BA8E68;}
	.st61{fill:#BC2A3C;}
	.st62{fill:#BC9DC6;}
	.st63{fill:#8D6956;}
	.st64{fill:#BF2244;}
	.st65{fill:#BFB89D;}
	.st66{fill:#F25872;}
	.st67{fill:#F2EDF1;}
	.st68{fill:#F2F2F2;}
	.st69{fill:#F4CCB0;}
	.st70{fill:#F4E028;}
	.st71{fill:#F5EFD8;}
	.st72{fill:#5B4F3F;}
	.st73{fill:#5B5B5B;}
	.st74{fill:#F7CD84;}
	.st75{fill:#F7F1ED;}
	.st76{fill:#F7F3F0;}
	.st77{fill:#F7F3F2;}
	.st78{fill:#F7F9F9;}
	.st79{fill:#5E5E5E;}
	.st80{fill:#5E9B0E;}
	.st81{fill:#F9EDF3;}
	.st82{fill:#F9F4EF;}
	.st83{fill:#5F4744;}
	.st84{fill:#5F6060;}
	.st85{fill:#917751;}
	.st86{fill:#91C7CF;}
	.st87{fill:#C1A857;}
	.st88{fill:#C1C1C1;}
	.st89{fill:#937341;}
	.st90{fill:#C4BC99;}
	.st91{fill:#C6C6C6;}
	.st92{fill:#2D2D2D;}
	.st93{fill:#99774A;}
	.st94{fill:#99937F;}
	.st95{fill:#C9936B;}
	.st96{fill:#C9C3AD;}
	.st97{fill:#C9F4EC;}
	.st98{opacity:0.8;}
	.st99{fill:#608C13;}
	.st100{fill:#61994D;}
	.st101{fill:#FFB357;}
	.st102{fill:#FFFFFF;}
	.st103{fill:#666666;}
	.st104{fill:#9ACCC2;}
	.st105{fill:#CC9679;}
	.st106{fill:#CCC6B4;}
	.st107{fill:#CCC8B8;}
	.st108{fill-rule:evenodd;clip-rule:evenodd;fill:#5E4F63;}
	.st109{fill:#9E835A;}
	.st110{fill:#306A87;}
	.st111{fill:#CE0658;}
	.st112{fill:#CE8C78;}
	.st113{fill:#CE9D4E;}
	.st114{fill:#CEA98D;}
	.st115{fill:#CEC8C0;}
	.st116{fill:#333333;}
	.st117{fill:#6B6B6B;}
	.st118{fill:#6BBBC1;}
	.st119{fill:#6DB4BF;}
	.st120{fill:#6FA519;}
	.st121{fill:#D10566;}
	.st122{fill:#D1AB8F;}
	.st123{fill:#D37866;}
	.st124{fill:#D3AB8D;}
	.st125{fill:#D3AE92;}
	.st126{fill:#D3CCA7;}
	.st127{fill:#3A3A3A;}
	.st128{fill:#D6BC50;}
	.st129{fill:#D89A82;}
	.st130{fill:#D8AF91;}
	.st131{fill:#D8D8D8;}
	.st132{fill:#3F3F3F;}
	.st133{fill:#707070;}
	.st134{fill:#70B1B7;}
	.st135{fill:#A076AB;}
	.st136{fill:#72CC5E;}
	.st137{fill:#A31D2D;}
	.st138{fill:#A3D5E0;}
	.st139{fill:#A58763;}
	.st140{fill:#DACF9F;}
	.st141{fill:#A77F64;}
	.st142{fill:#DB1675;}
	.st143{fill:#DB9A83;}
	.st144{fill:#A7D8CF;}
	.st145{fill:#DBB595;}
	.st146{fill:#78C1BA;}
	.st147{fill:#DBC565;}
	.st148{fill:#DBD8C6;}
	.st149{fill:#DBDDDD;}
	.st150{fill:#DD8F8C;}
	.st151{fill:#DDDCDB;}
	.st152{fill:#DEFCF8;}
	.st153{fill:#444444;}
]]>
</style><g><g><g><g><g><path class="st135" d="M504.079,256.006c0-137.022-111.07-248.082-248.076-248.082c-137.012,0-248.082,111.06-248.082,248.082       c0,137.001,111.07,248.07,248.082,248.07C393.009,504.076,504.079,393.007,504.079,256.006z"/></g></g></g></g><g><g><g><g><g><path class="st145" d="M496.116,193.438l-0.613-0.365l-19.09,33.987l-19.881,59.414l-7.404,32.735        c0,0,17.514,10.833,39.482,23.179c9.996-26.902,15.469-56.002,15.469-86.383C504.079,234.392,501.31,213.426,496.116,193.438z        "/><path class="st145" d="M363.271,93.809c-4.93,8.873-0.881,20.545,9.053,26.063l123.18,73.2l0.347-0.619        c-5.684-21.51-14.178-41.875-25.075-60.677L390.19,87.716C380.267,82.213,368.21,84.923,363.271,93.809z"/><path class="st145" d="M495.503,193.073l0.613,0.365c-0.086-0.329-0.18-0.655-0.267-0.984L495.503,193.073z"/></g><g><path class="st145" d="M341.036,118.061c-9.994-5.363-22.168-2.18-27.156,7.131c-4.984,9.291-0.906,21.187,9.097,26.553        l161.962,91.482c5.992,3.208,12.9,3.116,18.845,0.726c-0.745-15.565-2.929-30.751-6.413-45.435L341.036,118.061z"/></g><path class="st145" d="M462.103,284.76c11.117,5.773,25.405-0.114,30.574-10.045l0,0c5.168-9.921,1.199-23.873-9.92-29.637       l-137.498-69.893c-11.096-5.779-24.289-2.399-29.453,7.527l0,0c-5.172,9.93-0.355,22.657,10.742,28.438L462.103,284.76z"/><path class="st145" d="M475.056,317.471c4.723-9.41,0.688-23.669-10.48-29.283l-80.953-35.994       c-9.705-4.873-20.895-2.199-25.004,5.957c-4.097,8.168,0.445,18.742,10.15,23.617l78.803,36.446       C458.757,323.838,470.331,326.877,475.056,317.471z"/></g></g><g><path class="st27" d="M379.251,254.917c7.574,3.465,7.518,9.363,4.754,15.407c-2.768,6.042-7.193,9.94-14.768,6.474      c-0.547-0.25-3.057-1.15-3.602-1.465c-7.014-3.976-8.071-10.054-5.506-15.659c2.638-5.768,8.474-8.807,16.086-5.829      C376.585,253.988,378.903,254.76,379.251,254.917z"/><g><path class="st150" d="M378.8,254.98c7.229,3.443,7.087,9.116,4.342,14.882c-2.75,5.768-7.062,9.45-14.292,6.006       c-0.521-0.251-5.897-2.39-6.416-2.695c-6.683-3.928-12.396-9.844-8.983-17.004c3.412-7.162,12.198-6.473,19.473-3.502       C373.273,252.811,378.469,254.823,378.8,254.98z"/><path class="st150" d="M378.839,254.926c7.383,3.516,7.236,9.307,4.434,15.195c-2.807,5.891-7.211,9.65-14.596,6.135       c-0.531-0.256-2.787-1.379-3.316-1.691c-6.824-4.012-7.771-9.994-5.17-15.455c2.679-5.623,8.454-8.52,15.881-5.483       C376.431,253.769,378.501,254.766,378.839,254.926z"/></g></g><g><path class="st27" d="M341.116,179.568c9.093,4.497,8.808,11.675,5.219,18.929c-3.588,7.254-9.119,11.837-18.213,7.34      c-0.654-0.324-3.678-1.516-4.328-1.916c-8.393-5.098-9.458-12.534-6.129-19.264c3.422-6.922,10.639-10.41,19.795-6.506      C337.903,178.338,340.698,179.364,341.116,179.568z"/><g><path class="st150" d="M340.563,179.629c8.675,4.455,8.293,11.355,4.74,18.273c-3.559,6.92-8.943,11.244-17.618,6.787       c-0.626-0.324-7.093-3.125-7.712-3.518c-7.99-5.027-14.729-12.436-10.312-21.025c4.416-8.596,15.088-7.432,23.834-3.549       C333.917,176.784,340.167,179.424,340.563,179.629z"/><path class="st150" d="M340.509,179.478c8.974,4.608,8.579,11.744,4.902,18.901c-3.682,7.158-9.252,11.633-18.226,7.023       c-0.647-0.336-3.386-1.807-4.026-2.211c-8.266-5.201-9.213-12.611-5.801-19.25c3.512-6.832,10.74-10.193,19.786-6.172       C337.583,177.961,340.099,179.265,340.509,179.478z"/></g></g><g><path class="st27" d="M340.261,122.48c8.775,5.09,8.013,12.233,3.949,19.237c-4.062,6.997-9.887,11.199-18.66,6.107      c-0.631-0.367-3.57-1.756-4.192-2.197c-8.034-5.646-8.603-13.139-4.833-19.632c3.874-6.679,11.307-9.677,20.186-5.175      C337.138,121.04,339.858,122.249,340.261,122.48z"/><g><path class="st150" d="M339.706,122.504c8.359,5.021,7.52,11.881,3.514,18.547c-4.01,6.67-9.671,10.625-18.029,5.602       c-0.604-0.363-6.869-3.59-7.461-4.023c-7.639-5.546-13.868-13.388-8.891-21.663c4.979-8.282,15.547-6.413,24.016-1.958       C333.263,119.225,339.323,122.272,339.706,122.504z"/><path class="st150" d="M339.88,122.673c8.496,5.104,7.643,12.073,3.57,18.853c-4.076,6.775-9.83,10.797-18.326,5.69       c-0.613-0.371-3.2-1.99-3.803-2.429c-7.764-5.64-8.207-12.965-4.428-19.25c3.889-6.469,11.193-9.29,19.801-4.76       C337.11,120.996,339.491,122.437,339.88,122.673z"/></g></g><g><path class="st27" d="M388.558,91.108c8.775,5.089,8.014,12.234,3.951,19.233c-4.064,7.001-9.887,11.202-18.662,6.111      c-0.632-0.366-3.568-1.755-4.191-2.199c-8.035-5.646-8.604-13.136-4.834-19.629c3.875-6.682,11.307-9.679,20.186-5.177      C385.435,89.667,388.155,90.877,388.558,91.108z"/><g><path class="st150" d="M388.005,91.131c8.358,5.023,7.518,11.881,3.514,18.548c-4.012,6.669-9.672,10.626-18.031,5.601       c-0.604-0.364-6.869-3.59-7.461-4.023c-7.639-5.546-13.867-13.387-8.889-21.665c4.977-8.282,15.547-6.411,24.014-1.955       C381.561,87.852,387.622,90.9,388.005,91.131z"/><path class="st150" d="M388.183,91.299c8.497,5.105,7.645,12.076,3.571,18.854c-4.077,6.779-9.831,10.8-18.329,5.692       c-0.613-0.37-3.201-1.991-3.805-2.431c-7.764-5.639-8.209-12.965-4.428-19.252c3.889-6.471,11.195-9.293,19.805-4.76       C385.413,89.62,387.794,91.063,388.183,91.299z"/></g></g></g></g><g><path class="st150" d="M333.495,415.656c0,6.837-9.679-164.195-9.679-164.195s-39.993-2.859-67.816-2.859    c-27.992,0-68.095,3.841-68.095,3.841s-9.4,169.992-9.4,163.213C178.505,399.081,333.495,399.081,333.495,415.656z"/><path class="st15" d="M324.884,254.319c0,14.732-26.787,26.678-68.884,26.678c-42.098,0-68.884-11.945-68.884-26.678    c0-14.735,26.786-26.678,68.884-26.678C298.097,227.641,324.884,239.584,324.884,254.319z"/><path class="st153" d="M294.115,252.413c0,8.596-17.061,15.562-38.115,15.562c-21.052,0-38.113-6.967-38.113-15.562    c0-8.595,17.062-15.562,38.113-15.562C277.055,236.851,294.115,243.818,294.115,252.413z"/><path class="st150" d="M333.495,415.656c0,16.575-30.137,30.012-77.495,30.012s-77.495-13.437-77.495-30.012    s30.137-30.013,77.495-30.013S333.495,399.081,333.495,415.656z"/><polygon class="st153" points="225.511,83.554 217.887,252.413 294.115,252.413 286.495,83.554   "/><path class="st34" d="M286.495,83.554c0,6.876-13.652,12.45-30.495,12.45c-16.839,0-30.489-5.574-30.489-12.45    c0-6.875,13.65-12.449,30.489-12.449C272.843,71.104,286.495,76.678,286.495,83.554z"/><g><g><ellipse class="st121" cx="253.4" cy="344.069" rx="20.348" ry="32.756"/><path class="st121" d="M283.514,367.961c10.755,8.855,14.905,21.59,9.257,28.444c-5.635,6.854-18.933,5.231-29.69-3.623      c-10.755-8.854-14.907-21.589-9.259-28.444C259.459,357.486,272.751,359.109,283.514,367.961z"/><ellipse class="st121" cx="234.086" cy="380.372" rx="16.074" ry="25.228" transform="matrix(-0.6355 -0.7721 0.7721 -0.6355 89.1706 802.8396)"/></g><ellipse class="st111" cx="253.398" cy="362.93" rx="11.167" ry="17.974"/><ellipse class="st13" cx="253.401" cy="364.915" rx="6.701" ry="10.784"/><path class="st142" d="M305.958,357.991c-0.193-3.093-1.01-6.592-2.59-8.614c-3.113-3.975-11.689-14.07-15.735-15.437     c-4.224-1.423-14.89-3.721-19.358,4.963c-4.466,8.686-9.056,15.633-15.509,19.107c0,0,0.235,0.013,0.655,0.034     c-0.42,0.021-0.655,0.032-0.655,0.032c6.453,3.473,11.043,10.421,15.509,19.106c4.469,8.687,14.891,6.452,19.358,4.965     c4.464-1.49,12.622-11.462,15.735-15.437c1.58-2.022,2.396-5.524,2.59-8.615c0-0.018-0.012-0.036-0.012-0.052     C305.946,358.025,305.958,358.009,305.958,357.991z"/><path class="st142" d="M200.651,358.125c0.193,3.091,1.012,6.592,2.592,8.614c3.113,3.974,11.691,14.068,15.736,15.435     c4.22,1.426,14.892,3.722,19.359-4.962c4.468-8.684,9.059-15.633,15.506-19.106c0,0-0.231-0.011-0.656-0.033     c0.425-0.021,0.656-0.034,0.656-0.034c-6.447-3.473-11.038-10.421-15.506-19.105c-4.468-8.685-14.89-6.454-19.359-4.964     c-4.467,1.488-12.623,11.461-15.736,15.435c-1.58,2.023-2.398,5.522-2.592,8.616c0,0.019,0.014,0.034,0.017,0.053     C200.665,358.089,200.651,358.106,200.651,358.125z"/><path class="st81" d="M258.099,358.818c0,2.605-2.109,4.715-4.715,4.715c-2.602,0-4.717-2.11-4.717-4.715     c0-2.603,2.115-4.714,4.717-4.714C255.989,354.104,258.099,356.216,258.099,358.818z"/></g></g></g></svg>